<?xml version="1.0" encoding="utf-8" standalone="no"?>
<!DOCTYPE svg PUBLIC "-//W3C//DTD SVG 1.1//EN"
  "http://www.w3.org/Graphics/SVG/1.1/DTD/svg11.dtd">
<svg xmlns:xlink="http://www.w3.org/1999/xlink" width="720pt" height="432pt" viewBox="0 0 720 432" xmlns="http://www.w3.org/2000/svg" version="1.1">
 <metadata>
  <rdf:RDF xmlns:dc="http://purl.org/dc/elements/1.1/" xmlns:cc="http://creativecommons.org/ns#" xmlns:rdf="http://www.w3.org/1999/02/22-rdf-syntax-ns#">
   <cc:Work>
    <dc:type rdf:resource="http://purl.org/dc/dcmitype/StillImage"/>
    <dc:date>2025-09-29T17:17:13.039640</dc:date>
    <dc:format>image/svg+xml</dc:format>
    <dc:creator>
     <cc:Agent>
      <dc:title>Matplotlib v3.10.6, https://matplotlib.org/</dc:title>
     </cc:Agent>
    </dc:creator>
   </cc:Work>
  </rdf:RDF>
 </metadata>
 <defs>
  <style type="text/css">*{stroke-linejoin: round; stroke-linecap: butt}</style>
 </defs>
 <g id="figure_1">
  <g id="patch_1">
   <path d="M 0 432 
L 720 432 
L 720 0 
L 0 0 
z
" style="fill: #ffffff"/>
  </g>
  <g id="patch_2">
   <path d="M 202.68 384.48 
L 535.32 384.48 
L 535.32 51.84 
L 202.68 51.84 
z
" style="fill: #ffffff"/>
  </g>
  <g id="pane3d_1">
   <g id="patch_3">
    <path d="M 227.796614 302.461636 
L 337.645206 210.384369 
L 336.118205 77.592489 
L 221.012792 161.591176 
" style="fill: #f2f2f2; opacity: 0.5; stroke: #f2f2f2; stroke-linejoin: miter"/>
   </g>
  </g>
  <g id="pane3d_2">
   <g id="patch_4">
    <path d="M 337.645206 210.384369 
L 513.913001 261.618458 
L 520.203377 124.252714 
L 336.118205 77.592489 
" style="fill: #e6e6e6; opacity: 0.5; stroke: #e6e6e6; stroke-linejoin: miter"/>
   </g>
  </g>
  <g id="pane3d_3">
   <g id="patch_5">
    <path d="M 227.796614 302.461636 
L 414.649086 363.487653 
L 513.913001 261.618458 
L 337.645206 210.384369 
" style="fill: #ececec; opacity: 0.5; stroke: #ececec; stroke-linejoin: miter"/>
   </g>
  </g>
  <g id="grid3d_1">
   <g id="Line3DCollection_1">
    <path d="M 245.480597 308.237225 
L 354.394241 215.252652 
L 353.576661 82.017698 
" style="fill: none; stroke: #b0b0b0; stroke-width: 0.8"/>
    <path d="M 267.165778 315.319605 
L 374.913802 221.216878 
L 374.974889 87.441525 
" style="fill: none; stroke: #b0b0b0; stroke-width: 0.8"/>
    <path d="M 289.12385 322.491111 
L 395.670144 227.249927 
L 396.630732 92.93065 
" style="fill: none; stroke: #b0b0b0; stroke-width: 0.8"/>
    <path d="M 311.359997 329.753437 
L 416.667388 233.352997 
L 418.548871 98.48626 
" style="fill: none; stroke: #b0b0b0; stroke-width: 0.8"/>
    <path d="M 333.879536 337.108318 
L 437.909752 239.527314 
L 440.7341 104.109568 
" style="fill: none; stroke: #b0b0b0; stroke-width: 0.8"/>
    <path d="M 356.687917 344.557535 
L 459.401554 245.774132 
L 463.19133 109.801822 
" style="fill: none; stroke: #b0b0b0; stroke-width: 0.8"/>
    <path d="M 379.790734 352.102916 
L 481.147213 252.094737 
L 485.925596 115.564295 
" style="fill: none; stroke: #b0b0b0; stroke-width: 0.8"/>
    <path d="M 403.193726 359.746333 
L 503.151254 258.490443 
L 508.942055 121.398297 
" style="fill: none; stroke: #b0b0b0; stroke-width: 0.8"/>
   </g>
  </g>
  <g id="grid3d_2">
   <g id="Line3DCollection_2">
    <path d="M 228.972616 155.782459 
L 235.36611 296.116734 
L 421.517381 356.439093 
" style="fill: none; stroke: #b0b0b0; stroke-width: 0.8"/>
    <path d="M 242.402023 145.98229 
L 248.145976 285.404398 
L 433.103884 344.548491 
" style="fill: none; stroke: #b0b0b0; stroke-width: 0.8"/>
    <path d="M 255.565557 136.376142 
L 260.683809 274.894937 
L 444.459378 332.894961 
" style="fill: none; stroke: #b0b0b0; stroke-width: 0.8"/>
    <path d="M 268.471036 126.958312 
L 272.98642 264.582644 
L 455.590703 321.471482 
" style="fill: none; stroke: #b0b0b0; stroke-width: 0.8"/>
    <path d="M 281.125974 117.723314 
L 285.060369 254.462022 
L 466.504434 310.27131 
" style="fill: none; stroke: #b0b0b0; stroke-width: 0.8"/>
    <path d="M 293.537598 108.665876 
L 296.91197 244.527775 
L 477.206887 299.28796 
" style="fill: none; stroke: #b0b0b0; stroke-width: 0.8"/>
    <path d="M 305.712858 99.780926 
L 308.54731 234.774802 
L 487.70414 288.515197 
" style="fill: none; stroke: #b0b0b0; stroke-width: 0.8"/>
    <path d="M 317.658441 91.063583 
L 319.972254 225.198187 
L 498.002037 277.94702 
" style="fill: none; stroke: #b0b0b0; stroke-width: 0.8"/>
    <path d="M 329.380787 82.509149 
L 331.192459 215.793189 
L 508.106206 267.577658 
" style="fill: none; stroke: #b0b0b0; stroke-width: 0.8"/>
   </g>
  </g>
  <g id="grid3d_3">
   <g id="Line3DCollection_3">
    <path d="M 514.597868 246.6627 
L 337.47864 195.899372 
L 227.059131 287.147331 
" style="fill: none; stroke: #b0b0b0; stroke-width: 0.8"/>
    <path d="M 515.606112 224.645236 
L 337.233565 174.587072 
L 225.972937 264.591795 
" style="fill: none; stroke: #b0b0b0; stroke-width: 0.8"/>
    <path d="M 516.628868 202.310858 
L 336.985133 152.982746 
L 224.870508 241.699145 
" style="fill: none; stroke: #b0b0b0; stroke-width: 0.8"/>
    <path d="M 517.666452 179.652674 
L 336.733273 131.08035 
L 223.751478 218.461767 
" style="fill: none; stroke: #b0b0b0; stroke-width: 0.8"/>
    <path d="M 518.719189 156.66359 
L 336.477914 108.873672 
L 222.61547 194.871815 
" style="fill: none; stroke: #b0b0b0; stroke-width: 0.8"/>
    <path d="M 519.787413 133.336305 
L 336.218982 86.356328 
L 221.462093 170.921203 
" style="fill: none; stroke: #b0b0b0; stroke-width: 0.8"/>
   </g>
  </g>
  <g id="axis3d_1">
   <g id="line2d_1">
    <path d="M 227.796614 302.461636 
L 414.649086 363.487653 
" style="fill: none; stroke: #000000; stroke-width: 0.8; stroke-linecap: square"/>
   </g>
   <g id="xtick_1">
    <g id="line2d_2">
     <path d="M 246.429152 307.4274 
L 243.579408 309.860357 
" style="fill: none; stroke: #000000; stroke-width: 0.8; stroke-linecap: square"/>
    </g>
    <g id="text_1">
     <!-- 1000 -->
     <g transform="translate(225.237217 331.569855) scale(0.1 -0.1)">
      <defs>
       <path id="DejaVuSans-31" d="M 794 531 
L 1825 531 
L 1825 4091 
L 703 3866 
L 703 4441 
L 1819 4666 
L 2450 4666 
L 2450 531 
L 3481 531 
L 3481 0 
L 794 0 
L 794 531 
z
" transform="scale(0.015625)"/>
       <path id="DejaVuSans-30" d="M 2034 4250 
Q 1547 4250 1301 3770 
Q 1056 3291 1056 2328 
Q 1056 1369 1301 889 
Q 1547 409 2034 409 
Q 2525 409 2770 889 
Q 3016 1369 3016 2328 
Q 3016 3291 2770 3770 
Q 2525 4250 2034 4250 
z
M 2034 4750 
Q 2819 4750 3233 4129 
Q 3647 3509 3647 2328 
Q 3647 1150 3233 529 
Q 2819 -91 2034 -91 
Q 1250 -91 836 529 
Q 422 1150 422 2328 
Q 422 3509 836 4129 
Q 1250 4750 2034 4750 
z
" transform="scale(0.015625)"/>
      </defs>
      <use xlink:href="#DejaVuSans-31"/>
      <use xlink:href="#DejaVuSans-30" transform="translate(63.623047 0)"/>
      <use xlink:href="#DejaVuSans-30" transform="translate(127.246094 0)"/>
      <use xlink:href="#DejaVuSans-30" transform="translate(190.869141 0)"/>
     </g>
    </g>
   </g>
   <g id="xtick_2">
    <g id="line2d_3">
     <path d="M 268.104659 314.499624 
L 265.283953 316.963114 
" style="fill: none; stroke: #000000; stroke-width: 0.8; stroke-linecap: square"/>
    </g>
    <g id="text_2">
     <!-- 1500 -->
     <g transform="translate(246.94021 338.772129) scale(0.1 -0.1)">
      <defs>
       <path id="DejaVuSans-35" d="M 691 4666 
L 3169 4666 
L 3169 4134 
L 1269 4134 
L 1269 2991 
Q 1406 3038 1543 3061 
Q 1681 3084 1819 3084 
Q 2600 3084 3056 2656 
Q 3513 2228 3513 1497 
Q 3513 744 3044 326 
Q 2575 -91 1722 -91 
Q 1428 -91 1123 -41 
Q 819 9 494 109 
L 494 744 
Q 775 591 1075 516 
Q 1375 441 1709 441 
Q 2250 441 2565 725 
Q 2881 1009 2881 1497 
Q 2881 1984 2565 2268 
Q 2250 2553 1709 2553 
Q 1456 2553 1204 2497 
Q 953 2441 691 2322 
L 691 4666 
z
" transform="scale(0.015625)"/>
      </defs>
      <use xlink:href="#DejaVuSans-31"/>
      <use xlink:href="#DejaVuSans-35" transform="translate(63.623047 0)"/>
      <use xlink:href="#DejaVuSans-30" transform="translate(127.246094 0)"/>
      <use xlink:href="#DejaVuSans-30" transform="translate(190.869141 0)"/>
     </g>
    </g>
   </g>
   <g id="xtick_3">
    <g id="line2d_4">
     <path d="M 290.052738 321.660783 
L 287.262031 324.155382 
" style="fill: none; stroke: #000000; stroke-width: 0.8; stroke-linecap: square"/>
    </g>
    <g id="text_3">
     <!-- 2000 -->
     <g transform="translate(268.917142 346.065312) scale(0.1 -0.1)">
      <defs>
       <path id="DejaVuSans-32" d="M 1228 531 
L 3431 531 
L 3431 0 
L 469 0 
L 469 531 
Q 828 903 1448 1529 
Q 2069 2156 2228 2338 
Q 2531 2678 2651 2914 
Q 2772 3150 2772 3378 
Q 2772 3750 2511 3984 
Q 2250 4219 1831 4219 
Q 1534 4219 1204 4116 
Q 875 4013 500 3803 
L 500 4441 
Q 881 4594 1212 4672 
Q 1544 4750 1819 4750 
Q 2544 4750 2975 4387 
Q 3406 4025 3406 3419 
Q 3406 3131 3298 2873 
Q 3191 2616 2906 2266 
Q 2828 2175 2409 1742 
Q 1991 1309 1228 531 
z
" transform="scale(0.015625)"/>
      </defs>
      <use xlink:href="#DejaVuSans-32"/>
      <use xlink:href="#DejaVuSans-30" transform="translate(63.623047 0)"/>
      <use xlink:href="#DejaVuSans-30" transform="translate(127.246094 0)"/>
      <use xlink:href="#DejaVuSans-30" transform="translate(190.869141 0)"/>
     </g>
    </g>
   </g>
   <g id="xtick_4">
    <g id="line2d_5">
     <path d="M 312.278563 328.912564 
L 309.518842 331.438867 
" style="fill: none; stroke: #000000; stroke-width: 0.8; stroke-linecap: square"/>
    </g>
    <g id="text_4">
     <!-- 2500 -->
     <g transform="translate(291.173232 353.451134) scale(0.1 -0.1)">
      <use xlink:href="#DejaVuSans-32"/>
      <use xlink:href="#DejaVuSans-35" transform="translate(63.623047 0)"/>
      <use xlink:href="#DejaVuSans-30" transform="translate(127.246094 0)"/>
      <use xlink:href="#DejaVuSans-30" transform="translate(190.869141 0)"/>
     </g>
    </g>
   </g>
   <g id="xtick_5">
    <g id="line2d_6">
     <path d="M 334.787439 336.256699 
L 332.059725 338.815312 
" style="fill: none; stroke: #000000; stroke-width: 0.8; stroke-linecap: square"/>
    </g>
    <g id="text_5">
     <!-- 3000 -->
     <g transform="translate(313.713833 360.931374) scale(0.1 -0.1)">
      <defs>
       <path id="DejaVuSans-33" d="M 2597 2516 
Q 3050 2419 3304 2112 
Q 3559 1806 3559 1356 
Q 3559 666 3084 287 
Q 2609 -91 1734 -91 
Q 1441 -91 1130 -33 
Q 819 25 488 141 
L 488 750 
Q 750 597 1062 519 
Q 1375 441 1716 441 
Q 2309 441 2620 675 
Q 2931 909 2931 1356 
Q 2931 1769 2642 2001 
Q 2353 2234 1838 2234 
L 1294 2234 
L 1294 2753 
L 1863 2753 
Q 2328 2753 2575 2939 
Q 2822 3125 2822 3475 
Q 2822 3834 2567 4026 
Q 2313 4219 1838 4219 
Q 1578 4219 1281 4162 
Q 984 4106 628 3988 
L 628 4550 
Q 988 4650 1302 4700 
Q 1616 4750 1894 4750 
Q 2613 4750 3031 4423 
Q 3450 4097 3450 3541 
Q 3450 3153 3228 2886 
Q 3006 2619 2597 2516 
z
" transform="scale(0.015625)"/>
      </defs>
      <use xlink:href="#DejaVuSans-33"/>
      <use xlink:href="#DejaVuSans-30" transform="translate(63.623047 0)"/>
      <use xlink:href="#DejaVuSans-30" transform="translate(127.246094 0)"/>
      <use xlink:href="#DejaVuSans-30" transform="translate(190.869141 0)"/>
     </g>
    </g>
   </g>
   <g id="xtick_6">
    <g id="line2d_7">
     <path d="M 357.584809 343.694962 
L 354.890152 346.28651 
" style="fill: none; stroke: #000000; stroke-width: 0.8; stroke-linecap: square"/>
    </g>
    <g id="text_6">
     <!-- 3500 -->
     <g transform="translate(336.544435 368.507852) scale(0.1 -0.1)">
      <use xlink:href="#DejaVuSans-33"/>
      <use xlink:href="#DejaVuSans-35" transform="translate(63.623047 0)"/>
      <use xlink:href="#DejaVuSans-30" transform="translate(127.246094 0)"/>
      <use xlink:href="#DejaVuSans-30" transform="translate(190.869141 0)"/>
     </g>
    </g>
   </g>
   <g id="xtick_7">
    <g id="line2d_8">
     <path d="M 380.676254 351.229175 
L 378.015739 353.854299 
" style="fill: none; stroke: #000000; stroke-width: 0.8; stroke-linecap: square"/>
    </g>
    <g id="text_7">
     <!-- 4000 -->
     <g transform="translate(359.670672 376.182439) scale(0.1 -0.1)">
      <defs>
       <path id="DejaVuSans-34" d="M 2419 4116 
L 825 1625 
L 2419 1625 
L 2419 4116 
z
M 2253 4666 
L 3047 4666 
L 3047 1625 
L 3713 1625 
L 3713 1100 
L 3047 1100 
L 3047 0 
L 2419 0 
L 2419 1100 
L 313 1100 
L 313 1709 
L 2253 4666 
z
" transform="scale(0.015625)"/>
      </defs>
      <use xlink:href="#DejaVuSans-34"/>
      <use xlink:href="#DejaVuSans-30" transform="translate(63.623047 0)"/>
      <use xlink:href="#DejaVuSans-30" transform="translate(127.246094 0)"/>
      <use xlink:href="#DejaVuSans-30" transform="translate(190.869141 0)"/>
     </g>
    </g>
   </g>
   <g id="xtick_8">
    <g id="line2d_9">
     <path d="M 404.067502 358.861207 
L 401.442247 361.520563 
" style="fill: none; stroke: #000000; stroke-width: 0.8; stroke-linecap: square"/>
    </g>
    <g id="text_8">
     <!-- 4500 -->
     <g transform="translate(383.098324 383.957052) scale(0.1 -0.1)">
      <use xlink:href="#DejaVuSans-34"/>
      <use xlink:href="#DejaVuSans-35" transform="translate(63.623047 0)"/>
      <use xlink:href="#DejaVuSans-30" transform="translate(127.246094 0)"/>
      <use xlink:href="#DejaVuSans-30" transform="translate(190.869141 0)"/>
     </g>
    </g>
   </g>
   <g id="text_9">
    <!-- X1 -->
    <g transform="translate(295.889163 370.143148) scale(0.1 -0.1)">
     <defs>
      <path id="DejaVuSans-58" d="M 403 4666 
L 1081 4666 
L 2241 2931 
L 3406 4666 
L 4084 4666 
L 2584 2425 
L 4184 0 
L 3506 0 
L 2194 1984 
L 872 0 
L 191 0 
L 1856 2491 
L 403 4666 
z
" transform="scale(0.015625)"/>
     </defs>
     <use xlink:href="#DejaVuSans-58"/>
     <use xlink:href="#DejaVuSans-31" transform="translate(68.505859 0)"/>
    </g>
   </g>
  </g>
  <g id="axis3d_2">
   <g id="line2d_10">
    <path d="M 513.913001 261.618458 
L 414.649086 363.487653 
" style="fill: none; stroke: #000000; stroke-width: 0.8; stroke-linecap: square"/>
   </g>
   <g id="xtick_9">
    <g id="line2d_11">
     <path d="M 419.948678 355.930755 
L 424.658842 357.457085 
" style="fill: none; stroke: #000000; stroke-width: 0.8; stroke-linecap: square"/>
    </g>
    <g id="text_10">
     <!-- 1.0 -->
     <g transform="translate(426.44491 377.459216) scale(0.1 -0.1)">
      <defs>
       <path id="DejaVuSans-2e" d="M 684 794 
L 1344 794 
L 1344 0 
L 684 0 
L 684 794 
z
" transform="scale(0.015625)"/>
      </defs>
      <use xlink:href="#DejaVuSans-31"/>
      <use xlink:href="#DejaVuSans-2e" transform="translate(63.623047 0)"/>
      <use xlink:href="#DejaVuSans-30" transform="translate(95.410156 0)"/>
     </g>
    </g>
   </g>
   <g id="xtick_10">
    <g id="line2d_12">
     <path d="M 431.546033 344.050336 
L 436.223574 345.546076 
" style="fill: none; stroke: #000000; stroke-width: 0.8; stroke-linecap: square"/>
    </g>
    <g id="text_11">
     <!-- 1.5 -->
     <g transform="translate(437.907162 365.427765) scale(0.1 -0.1)">
      <use xlink:href="#DejaVuSans-31"/>
      <use xlink:href="#DejaVuSans-2e" transform="translate(63.623047 0)"/>
      <use xlink:href="#DejaVuSans-35" transform="translate(95.410156 0)"/>
     </g>
    </g>
   </g>
   <g id="xtick_11">
    <g id="line2d_13">
     <path d="M 442.91226 332.406686 
L 447.557536 333.872747 
" style="fill: none; stroke: #000000; stroke-width: 0.8; stroke-linecap: square"/>
    </g>
    <g id="text_12">
     <!-- 2.0 -->
     <g transform="translate(449.140775 353.636308) scale(0.1 -0.1)">
      <use xlink:href="#DejaVuSans-32"/>
      <use xlink:href="#DejaVuSans-2e" transform="translate(63.623047 0)"/>
      <use xlink:href="#DejaVuSans-30" transform="translate(95.410156 0)"/>
     </g>
    </g>
   </g>
   <g id="xtick_12">
    <g id="line2d_14">
     <path d="M 454.0542 320.992797 
L 458.667567 322.430053 
" style="fill: none; stroke: #000000; stroke-width: 0.8; stroke-linecap: square"/>
    </g>
    <g id="text_13">
     <!-- 2.5 -->
     <g transform="translate(460.152523 342.077733) scale(0.1 -0.1)">
      <use xlink:href="#DejaVuSans-32"/>
      <use xlink:href="#DejaVuSans-2e" transform="translate(63.623047 0)"/>
      <use xlink:href="#DejaVuSans-35" transform="translate(95.410156 0)"/>
     </g>
    </g>
   </g>
   <g id="xtick_13">
    <g id="line2d_15">
     <path d="M 464.978427 309.801935 
L 469.560239 311.211227 
" style="fill: none; stroke: #000000; stroke-width: 0.8; stroke-linecap: square"/>
    </g>
    <g id="text_14">
     <!-- 3.0 -->
     <g transform="translate(470.948914 330.745209) scale(0.1 -0.1)">
      <use xlink:href="#DejaVuSans-33"/>
      <use xlink:href="#DejaVuSans-2e" transform="translate(63.623047 0)"/>
      <use xlink:href="#DejaVuSans-30" transform="translate(95.410156 0)"/>
     </g>
    </g>
   </g>
   <g id="xtick_14">
    <g id="line2d_16">
     <path d="M 475.691261 298.827626 
L 480.241869 300.209762 
" style="fill: none; stroke: #000000; stroke-width: 0.8; stroke-linecap: square"/>
    </g>
    <g id="text_15">
     <!-- 3.5 -->
     <g transform="translate(481.536204 319.63217) scale(0.1 -0.1)">
      <use xlink:href="#DejaVuSans-33"/>
      <use xlink:href="#DejaVuSans-2e" transform="translate(63.623047 0)"/>
      <use xlink:href="#DejaVuSans-35" transform="translate(95.410156 0)"/>
     </g>
    </g>
   </g>
   <g id="xtick_15">
    <g id="line2d_17">
     <path d="M 486.198778 288.063644 
L 490.718531 289.419402 
" style="fill: none; stroke: #000000; stroke-width: 0.8; stroke-linecap: square"/>
    </g>
    <g id="text_16">
     <!-- 4.0 -->
     <g transform="translate(491.92041 308.732299) scale(0.1 -0.1)">
      <use xlink:href="#DejaVuSans-34"/>
      <use xlink:href="#DejaVuSans-2e" transform="translate(63.623047 0)"/>
      <use xlink:href="#DejaVuSans-30" transform="translate(95.410156 0)"/>
     </g>
    </g>
   </g>
   <g id="xtick_16">
    <g id="line2d_18">
     <path d="M 496.506826 277.504001 
L 500.996069 278.834128 
" style="fill: none; stroke: #000000; stroke-width: 0.8; stroke-linecap: square"/>
    </g>
    <g id="text_17">
     <!-- 4.5 -->
     <g transform="translate(502.10732 298.039523) scale(0.1 -0.1)">
      <use xlink:href="#DejaVuSans-34"/>
      <use xlink:href="#DejaVuSans-2e" transform="translate(63.623047 0)"/>
      <use xlink:href="#DejaVuSans-35" transform="translate(95.410156 0)"/>
     </g>
    </g>
   </g>
   <g id="xtick_17">
    <g id="line2d_19">
     <path d="M 506.621031 267.142932 
L 511.080107 268.448149 
" style="fill: none; stroke: #000000; stroke-width: 0.8; stroke-linecap: square"/>
    </g>
    <g id="text_18">
     <!-- 5.0 -->
     <g transform="translate(512.102503 287.547993) scale(0.1 -0.1)">
      <use xlink:href="#DejaVuSans-35"/>
      <use xlink:href="#DejaVuSans-2e" transform="translate(63.623047 0)"/>
      <use xlink:href="#DejaVuSans-30" transform="translate(95.410156 0)"/>
     </g>
    </g>
   </g>
   <g id="text_19">
    <!-- y -->
    <g transform="translate(490.507544 341.035949) scale(0.1 -0.1)">
     <defs>
      <path id="DejaVuSans-79" d="M 2059 -325 
Q 1816 -950 1584 -1140 
Q 1353 -1331 966 -1331 
L 506 -1331 
L 506 -850 
L 844 -850 
Q 1081 -850 1212 -737 
Q 1344 -625 1503 -206 
L 1606 56 
L 191 3500 
L 800 3500 
L 1894 763 
L 2988 3500 
L 3597 3500 
L 2059 -325 
z
" transform="scale(0.015625)"/>
     </defs>
     <use xlink:href="#DejaVuSans-79"/>
    </g>
   </g>
  </g>
  <g id="axis3d_3">
   <g id="line2d_20">
    <path d="M 513.913001 261.618458 
L 520.203377 124.252714 
" style="fill: none; stroke: #000000; stroke-width: 0.8; stroke-linecap: square"/>
   </g>
   <g id="xtick_18">
    <g id="line2d_21">
     <path d="M 513.111011 246.236559 
L 517.575137 247.516001 
" style="fill: none; stroke: #000000; stroke-width: 0.8; stroke-linecap: square"/>
    </g>
    <g id="text_20">
     <!-- 200000 -->
     <g transform="translate(513.857149 251.677964) scale(0.1 -0.1)">
      <use xlink:href="#DejaVuSans-32"/>
      <use xlink:href="#DejaVuSans-30" transform="translate(63.623047 0)"/>
      <use xlink:href="#DejaVuSans-30" transform="translate(127.246094 0)"/>
      <use xlink:href="#DejaVuSans-30" transform="translate(190.869141 0)"/>
      <use xlink:href="#DejaVuSans-30" transform="translate(254.492188 0)"/>
      <use xlink:href="#DejaVuSans-30" transform="translate(318.115234 0)"/>
     </g>
    </g>
   </g>
   <g id="xtick_19">
    <g id="line2d_22">
     <path d="M 514.10823 224.224874 
L 518.60548 225.486974 
" style="fill: none; stroke: #000000; stroke-width: 0.8; stroke-linecap: square"/>
    </g>
    <g id="text_21">
     <!-- 300000 -->
     <g transform="translate(514.993721 229.695564) scale(0.1 -0.1)">
      <use xlink:href="#DejaVuSans-33"/>
      <use xlink:href="#DejaVuSans-30" transform="translate(63.623047 0)"/>
      <use xlink:href="#DejaVuSans-30" transform="translate(127.246094 0)"/>
      <use xlink:href="#DejaVuSans-30" transform="translate(190.869141 0)"/>
      <use xlink:href="#DejaVuSans-30" transform="translate(254.492188 0)"/>
      <use xlink:href="#DejaVuSans-30" transform="translate(318.115234 0)"/>
     </g>
    </g>
   </g>
   <g id="xtick_20">
    <g id="line2d_23">
     <path d="M 515.119798 201.896485 
L 519.650666 203.140609 
" style="fill: none; stroke: #000000; stroke-width: 0.8; stroke-linecap: square"/>
    </g>
    <g id="text_22">
     <!-- 400000 -->
     <g transform="translate(516.146613 207.39753) scale(0.1 -0.1)">
      <use xlink:href="#DejaVuSans-34"/>
      <use xlink:href="#DejaVuSans-30" transform="translate(63.623047 0)"/>
      <use xlink:href="#DejaVuSans-30" transform="translate(127.246094 0)"/>
      <use xlink:href="#DejaVuSans-30" transform="translate(190.869141 0)"/>
      <use xlink:href="#DejaVuSans-30" transform="translate(254.492188 0)"/>
      <use xlink:href="#DejaVuSans-30" transform="translate(318.115234 0)"/>
     </g>
    </g>
   </g>
   <g id="xtick_21">
    <g id="line2d_24">
     <path d="M 516.146025 179.244509 
L 520.711018 180.470001 
" style="fill: none; stroke: #000000; stroke-width: 0.8; stroke-linecap: square"/>
    </g>
    <g id="text_23">
     <!-- 500000 -->
     <g transform="translate(517.316179 184.777012) scale(0.1 -0.1)">
      <use xlink:href="#DejaVuSans-35"/>
      <use xlink:href="#DejaVuSans-30" transform="translate(63.623047 0)"/>
      <use xlink:href="#DejaVuSans-30" transform="translate(127.246094 0)"/>
      <use xlink:href="#DejaVuSans-30" transform="translate(190.869141 0)"/>
      <use xlink:href="#DejaVuSans-30" transform="translate(254.492188 0)"/>
      <use xlink:href="#DejaVuSans-30" transform="translate(318.115234 0)"/>
     </g>
    </g>
   </g>
   <g id="xtick_22">
    <g id="line2d_25">
     <path d="M 517.187234 156.261859 
L 521.786867 157.468041 
" style="fill: none; stroke: #000000; stroke-width: 0.8; stroke-linecap: square"/>
    </g>
    <g id="text_24">
     <!-- 600000 -->
     <g transform="translate(518.502782 161.826966) scale(0.1 -0.1)">
      <defs>
       <path id="DejaVuSans-36" d="M 2113 2584 
Q 1688 2584 1439 2293 
Q 1191 2003 1191 1497 
Q 1191 994 1439 701 
Q 1688 409 2113 409 
Q 2538 409 2786 701 
Q 3034 994 3034 1497 
Q 3034 2003 2786 2293 
Q 2538 2584 2113 2584 
z
M 3366 4563 
L 3366 3988 
Q 3128 4100 2886 4159 
Q 2644 4219 2406 4219 
Q 1781 4219 1451 3797 
Q 1122 3375 1075 2522 
Q 1259 2794 1537 2939 
Q 1816 3084 2150 3084 
Q 2853 3084 3261 2657 
Q 3669 2231 3669 1497 
Q 3669 778 3244 343 
Q 2819 -91 2113 -91 
Q 1303 -91 875 529 
Q 447 1150 447 2328 
Q 447 3434 972 4092 
Q 1497 4750 2381 4750 
Q 2619 4750 2861 4703 
Q 3103 4656 3366 4563 
z
" transform="scale(0.015625)"/>
      </defs>
      <use xlink:href="#DejaVuSans-36"/>
      <use xlink:href="#DejaVuSans-30" transform="translate(63.623047 0)"/>
      <use xlink:href="#DejaVuSans-30" transform="translate(127.246094 0)"/>
      <use xlink:href="#DejaVuSans-30" transform="translate(190.869141 0)"/>
      <use xlink:href="#DejaVuSans-30" transform="translate(254.492188 0)"/>
      <use xlink:href="#DejaVuSans-30" transform="translate(318.115234 0)"/>
     </g>
    </g>
   </g>
   <g id="xtick_23">
    <g id="line2d_26">
     <path d="M 518.243753 132.941242 
L 522.878557 134.12741 
" style="fill: none; stroke: #000000; stroke-width: 0.8; stroke-linecap: square"/>
    </g>
    <g id="text_25">
     <!-- 700000 -->
     <g transform="translate(519.706798 138.540136) scale(0.1 -0.1)">
      <defs>
       <path id="DejaVuSans-37" d="M 525 4666 
L 3525 4666 
L 3525 4397 
L 1831 0 
L 1172 0 
L 2766 4134 
L 525 4134 
L 525 4666 
z
" transform="scale(0.015625)"/>
      </defs>
      <use xlink:href="#DejaVuSans-37"/>
      <use xlink:href="#DejaVuSans-30" transform="translate(63.623047 0)"/>
      <use xlink:href="#DejaVuSans-30" transform="translate(127.246094 0)"/>
      <use xlink:href="#DejaVuSans-30" transform="translate(190.869141 0)"/>
      <use xlink:href="#DejaVuSans-30" transform="translate(254.492188 0)"/>
      <use xlink:href="#DejaVuSans-30" transform="translate(318.115234 0)"/>
     </g>
    </g>
   </g>
  </g>
  <g id="axes_1">
   <g id="Path3DCollection_1">
    <defs>
     <path id="C0_0_7fc489c0ef" d="M 0 2.236068 
C 0.593012 2.236068 1.161816 2.000462 1.581139 1.581139 
C 2.000462 1.161816 2.236068 0.593012 2.236068 -0 
C 2.236068 -0.593012 2.000462 -1.161816 1.581139 -1.581139 
C 1.161816 -2.000462 0.593012 -2.236068 0 -2.236068 
C -0.593012 -2.236068 -1.161816 -2.000462 -1.581139 -1.581139 
C -2.000462 -1.161816 -2.236068 -0.593012 -2.236068 0 
C -2.236068 0.593012 -2.000462 1.161816 -1.581139 1.581139 
C -1.161816 2.000462 -0.593012 2.236068 0 2.236068 
z
"/>
    </defs>
    <g clip-path="url(#pefb46df222)">
     <use xlink:href="#C0_0_7fc489c0ef" x="364.868093" y="228.106164" style="fill: #0000ff; fill-opacity: 0.3; stroke: #0000ff; stroke-opacity: 0.3"/>
    </g>
    <g clip-path="url(#pefb46df222)">
     <use xlink:href="#C0_0_7fc489c0ef" x="365.796571" y="224.026054" style="fill: #0000ff; fill-opacity: 0.316675; stroke: #0000ff; stroke-opacity: 0.316675"/>
    </g>
    <g clip-path="url(#pefb46df222)">
     <use xlink:href="#C0_0_7fc489c0ef" x="359.324586" y="216.440417" style="fill: #0000ff; fill-opacity: 0.317038; stroke: #0000ff; stroke-opacity: 0.317038"/>
    </g>
    <g clip-path="url(#pefb46df222)">
     <use xlink:href="#C0_0_7fc489c0ef" x="361.063439" y="213.869173" style="fill: #0000ff; fill-opacity: 0.331858; stroke: #0000ff; stroke-opacity: 0.331858"/>
    </g>
    <g clip-path="url(#pefb46df222)">
     <use xlink:href="#C0_0_7fc489c0ef" x="366.761427" y="215.520071" style="fill: #0000ff; fill-opacity: 0.347809; stroke: #0000ff; stroke-opacity: 0.347809"/>
    </g>
    <g clip-path="url(#pefb46df222)">
     <use xlink:href="#C0_0_7fc489c0ef" x="374.371823" y="220.570621" style="fill: #0000ff; fill-opacity: 0.359904; stroke: #0000ff; stroke-opacity: 0.359904"/>
    </g>
    <g clip-path="url(#pefb46df222)">
     <use xlink:href="#C0_0_7fc489c0ef" x="369.118384" y="212.892452" style="fill: #0000ff; fill-opacity: 0.365121; stroke: #0000ff; stroke-opacity: 0.365121"/>
    </g>
    <g clip-path="url(#pefb46df222)">
     <use xlink:href="#C0_0_7fc489c0ef" x="311.893162" y="247.862766" style="fill: #0000ff; fill-opacity: 0.375345; stroke: #0000ff; stroke-opacity: 0.375345"/>
    </g>
    <g clip-path="url(#pefb46df222)">
     <use xlink:href="#C0_0_7fc489c0ef" x="305.900567" y="235.151854" style="fill: #0000ff; fill-opacity: 0.394737; stroke: #0000ff; stroke-opacity: 0.394737"/>
    </g>
    <g clip-path="url(#pefb46df222)">
     <use xlink:href="#C0_0_7fc489c0ef" x="311.889005" y="241.324174" style="fill: #0000ff; fill-opacity: 0.397223; stroke: #0000ff; stroke-opacity: 0.397223"/>
    </g>
    <g clip-path="url(#pefb46df222)">
     <use xlink:href="#C0_0_7fc489c0ef" x="373.078989" y="207.364555" style="fill: #0000ff; fill-opacity: 0.397812; stroke: #0000ff; stroke-opacity: 0.397812"/>
    </g>
    <g clip-path="url(#pefb46df222)">
     <use xlink:href="#C0_0_7fc489c0ef" x="320.007833" y="250.520959" style="fill: #0000ff; fill-opacity: 0.397819; stroke: #0000ff; stroke-opacity: 0.397819"/>
    </g>
    <g clip-path="url(#pefb46df222)">
     <use xlink:href="#C0_0_7fc489c0ef" x="310.317884" y="238.753414" style="fill: #0000ff; fill-opacity: 0.399756; stroke: #0000ff; stroke-opacity: 0.399756"/>
    </g>
    <g clip-path="url(#pefb46df222)">
     <use xlink:href="#C0_0_7fc489c0ef" x="317.95718" y="247.064648" style="fill: #0000ff; fill-opacity: 0.401464; stroke: #0000ff; stroke-opacity: 0.401464"/>
    </g>
    <g clip-path="url(#pefb46df222)">
     <use xlink:href="#C0_0_7fc489c0ef" x="312.991587" y="235.088792" style="fill: #0000ff; fill-opacity: 0.422365; stroke: #0000ff; stroke-opacity: 0.422365"/>
    </g>
    <g clip-path="url(#pefb46df222)">
     <use xlink:href="#C0_0_7fc489c0ef" x="391.92864" y="219.680416" style="fill: #0000ff; fill-opacity: 0.428395; stroke: #0000ff; stroke-opacity: 0.428395"/>
    </g>
    <g clip-path="url(#pefb46df222)">
     <use xlink:href="#C0_0_7fc489c0ef" x="320.240523" y="239.458067" style="fill: #0000ff; fill-opacity: 0.435762; stroke: #0000ff; stroke-opacity: 0.435762"/>
    </g>
    <g clip-path="url(#pefb46df222)">
     <use xlink:href="#C0_0_7fc489c0ef" x="322.704381" y="241.822774" style="fill: #0000ff; fill-opacity: 0.437371; stroke: #0000ff; stroke-opacity: 0.437371"/>
    </g>
    <g clip-path="url(#pefb46df222)">
     <use xlink:href="#C0_0_7fc489c0ef" x="309.921223" y="225.573008" style="fill: #0000ff; fill-opacity: 0.442357; stroke: #0000ff; stroke-opacity: 0.442357"/>
    </g>
    <g clip-path="url(#pefb46df222)">
     <use xlink:href="#C0_0_7fc489c0ef" x="327.413046" y="243.151019" style="fill: #0000ff; fill-opacity: 0.451129; stroke: #0000ff; stroke-opacity: 0.451129"/>
    </g>
    <g clip-path="url(#pefb46df222)">
     <use xlink:href="#C0_0_7fc489c0ef" x="334.3876" y="243.044978" style="fill: #0000ff; fill-opacity: 0.478451; stroke: #0000ff; stroke-opacity: 0.478451"/>
    </g>
    <g clip-path="url(#pefb46df222)">
     <use xlink:href="#C0_0_7fc489c0ef" x="380.402882" y="185.941786" style="fill: #0000ff; fill-opacity: 0.494514; stroke: #0000ff; stroke-opacity: 0.494514"/>
    </g>
    <g clip-path="url(#pefb46df222)">
     <use xlink:href="#C0_0_7fc489c0ef" x="324.16028" y="226.281862" style="fill: #0000ff; fill-opacity: 0.495038; stroke: #0000ff; stroke-opacity: 0.495038"/>
    </g>
    <g clip-path="url(#pefb46df222)">
     <use xlink:href="#C0_0_7fc489c0ef" x="271.472251" y="267.738985" style="fill: #0000ff; fill-opacity: 0.505962; stroke: #0000ff; stroke-opacity: 0.505962"/>
    </g>
    <g clip-path="url(#pefb46df222)">
     <use xlink:href="#C0_0_7fc489c0ef" x="326.9518" y="223.774595" style="fill: #0000ff; fill-opacity: 0.514227; stroke: #0000ff; stroke-opacity: 0.514227"/>
    </g>
    <g clip-path="url(#pefb46df222)">
     <use xlink:href="#C0_0_7fc489c0ef" x="339.50554" y="227.459713" style="fill: #0000ff; fill-opacity: 0.550426; stroke: #0000ff; stroke-opacity: 0.550426"/>
    </g>
    <g clip-path="url(#pefb46df222)">
     <use xlink:href="#C0_0_7fc489c0ef" x="394.031851" y="178.360641" style="fill: #0000ff; fill-opacity: 0.569981; stroke: #0000ff; stroke-opacity: 0.569981"/>
    </g>
    <g clip-path="url(#pefb46df222)">
     <use xlink:href="#C0_0_7fc489c0ef" x="344.254721" y="225.055767" style="fill: #0000ff; fill-opacity: 0.576838; stroke: #0000ff; stroke-opacity: 0.576838"/>
    </g>
    <g clip-path="url(#pefb46df222)">
     <use xlink:href="#C0_0_7fc489c0ef" x="354.68828" y="231.965414" style="fill: #0000ff; fill-opacity: 0.594042; stroke: #0000ff; stroke-opacity: 0.594042"/>
    </g>
    <g clip-path="url(#pefb46df222)">
     <use xlink:href="#C0_0_7fc489c0ef" x="320.322445" y="191.624305" style="fill: #0000ff; fill-opacity: 0.596248; stroke: #0000ff; stroke-opacity: 0.596248"/>
    </g>
    <g clip-path="url(#pefb46df222)">
     <use xlink:href="#C0_0_7fc489c0ef" x="295.271675" y="263.705191" style="fill: #0000ff; fill-opacity: 0.615274; stroke: #0000ff; stroke-opacity: 0.615274"/>
    </g>
    <g clip-path="url(#pefb46df222)">
     <use xlink:href="#C0_0_7fc489c0ef" x="372.258548" y="243.900305" style="fill: #0000ff; fill-opacity: 0.622014; stroke: #0000ff; stroke-opacity: 0.622014"/>
    </g>
    <g clip-path="url(#pefb46df222)">
     <use xlink:href="#C0_0_7fc489c0ef" x="348.701109" y="214.444611" style="fill: #0000ff; fill-opacity: 0.629561; stroke: #0000ff; stroke-opacity: 0.629561"/>
    </g>
    <g clip-path="url(#pefb46df222)">
     <use xlink:href="#C0_0_7fc489c0ef" x="361.766886" y="225.244528" style="fill: #0000ff; fill-opacity: 0.643916; stroke: #0000ff; stroke-opacity: 0.643916"/>
    </g>
    <g clip-path="url(#pefb46df222)">
     <use xlink:href="#C0_0_7fc489c0ef" x="411.50426" y="174.019804" style="fill: #0000ff; fill-opacity: 0.649325; stroke: #0000ff; stroke-opacity: 0.649325"/>
    </g>
    <g clip-path="url(#pefb46df222)">
     <use xlink:href="#C0_0_7fc489c0ef" x="290.723556" y="247.231467" style="fill: #0000ff; fill-opacity: 0.654199; stroke: #0000ff; stroke-opacity: 0.654199"/>
    </g>
    <g clip-path="url(#pefb46df222)">
     <use xlink:href="#C0_0_7fc489c0ef" x="315.671723" y="264.892584" style="fill: #0000ff; fill-opacity: 0.692861; stroke: #0000ff; stroke-opacity: 0.692861"/>
    </g>
    <g clip-path="url(#pefb46df222)">
     <use xlink:href="#C0_0_7fc489c0ef" x="413.062669" y="160.739553" style="fill: #0000ff; fill-opacity: 0.698128; stroke: #0000ff; stroke-opacity: 0.698128"/>
    </g>
    <g clip-path="url(#pefb46df222)">
     <use xlink:href="#C0_0_7fc489c0ef" x="352.80639" y="198.537952" style="fill: #0000ff; fill-opacity: 0.698696; stroke: #0000ff; stroke-opacity: 0.698696"/>
    </g>
    <g clip-path="url(#pefb46df222)">
     <use xlink:href="#C0_0_7fc489c0ef" x="252.646648" y="293.240373" style="fill: #0000ff; fill-opacity: 0.715773; stroke: #0000ff; stroke-opacity: 0.715773"/>
    </g>
    <g clip-path="url(#pefb46df222)">
     <use xlink:href="#C0_0_7fc489c0ef" x="367.288454" y="204.060251" style="fill: #0000ff; fill-opacity: 0.736199; stroke: #0000ff; stroke-opacity: 0.736199"/>
    </g>
    <g clip-path="url(#pefb46df222)">
     <use xlink:href="#C0_0_7fc489c0ef" x="305.333127" y="236.245607" style="fill: #0000ff; fill-opacity: 0.750818; stroke: #0000ff; stroke-opacity: 0.750818"/>
    </g>
    <g clip-path="url(#pefb46df222)">
     <use xlink:href="#C0_0_7fc489c0ef" x="313.109587" y="242.795544" style="fill: #0000ff; fill-opacity: 0.759245; stroke: #0000ff; stroke-opacity: 0.759245"/>
    </g>
    <g clip-path="url(#pefb46df222)">
     <use xlink:href="#C0_0_7fc489c0ef" x="501.474978" y="135.66684" style="fill: #0000ff; fill-opacity: 0.759558; stroke: #0000ff; stroke-opacity: 0.759558"/>
    </g>
    <g clip-path="url(#pefb46df222)">
     <use xlink:href="#C0_0_7fc489c0ef" x="466.762579" y="187.067637" style="fill: #0000ff; fill-opacity: 0.8136; stroke: #0000ff; stroke-opacity: 0.8136"/>
    </g>
    <g clip-path="url(#pefb46df222)">
     <use xlink:href="#C0_0_7fc489c0ef" x="394.90822" y="186.092819" style="fill: #0000ff; fill-opacity: 0.903153; stroke: #0000ff; stroke-opacity: 0.903153"/>
    </g>
    <g clip-path="url(#pefb46df222)">
     <use xlink:href="#C0_0_7fc489c0ef" x="429.576946" y="197.201978" style="fill: #0000ff; stroke: #0000ff"/>
    </g>
   </g>
   <g id="text_26">
    <!-- Data Points -->
    <g transform="translate(334.748438 45.84) scale(0.12 -0.12)">
     <defs>
      <path id="DejaVuSans-44" d="M 1259 4147 
L 1259 519 
L 2022 519 
Q 2988 519 3436 956 
Q 3884 1394 3884 2338 
Q 3884 3275 3436 3711 
Q 2988 4147 2022 4147 
L 1259 4147 
z
M 628 4666 
L 1925 4666 
Q 3281 4666 3915 4102 
Q 4550 3538 4550 2338 
Q 4550 1131 3912 565 
Q 3275 0 1925 0 
L 628 0 
L 628 4666 
z
" transform="scale(0.015625)"/>
      <path id="DejaVuSans-61" d="M 2194 1759 
Q 1497 1759 1228 1600 
Q 959 1441 959 1056 
Q 959 750 1161 570 
Q 1363 391 1709 391 
Q 2188 391 2477 730 
Q 2766 1069 2766 1631 
L 2766 1759 
L 2194 1759 
z
M 3341 1997 
L 3341 0 
L 2766 0 
L 2766 531 
Q 2569 213 2275 61 
Q 1981 -91 1556 -91 
Q 1019 -91 701 211 
Q 384 513 384 1019 
Q 384 1609 779 1909 
Q 1175 2209 1959 2209 
L 2766 2209 
L 2766 2266 
Q 2766 2663 2505 2880 
Q 2244 3097 1772 3097 
Q 1472 3097 1187 3025 
Q 903 2953 641 2809 
L 641 3341 
Q 956 3463 1253 3523 
Q 1550 3584 1831 3584 
Q 2591 3584 2966 3190 
Q 3341 2797 3341 1997 
z
" transform="scale(0.015625)"/>
      <path id="DejaVuSans-74" d="M 1172 4494 
L 1172 3500 
L 2356 3500 
L 2356 3053 
L 1172 3053 
L 1172 1153 
Q 1172 725 1289 603 
Q 1406 481 1766 481 
L 2356 481 
L 2356 0 
L 1766 0 
Q 1100 0 847 248 
Q 594 497 594 1153 
L 594 3053 
L 172 3053 
L 172 3500 
L 594 3500 
L 594 4494 
L 1172 4494 
z
" transform="scale(0.015625)"/>
      <path id="DejaVuSans-20" transform="scale(0.015625)"/>
      <path id="DejaVuSans-50" d="M 1259 4147 
L 1259 2394 
L 2053 2394 
Q 2494 2394 2734 2622 
Q 2975 2850 2975 3272 
Q 2975 3691 2734 3919 
Q 2494 4147 2053 4147 
L 1259 4147 
z
M 628 4666 
L 2053 4666 
Q 2838 4666 3239 4311 
Q 3641 3956 3641 3272 
Q 3641 2581 3239 2228 
Q 2838 1875 2053 1875 
L 1259 1875 
L 1259 0 
L 628 0 
L 628 4666 
z
" transform="scale(0.015625)"/>
      <path id="DejaVuSans-6f" d="M 1959 3097 
Q 1497 3097 1228 2736 
Q 959 2375 959 1747 
Q 959 1119 1226 758 
Q 1494 397 1959 397 
Q 2419 397 2687 759 
Q 2956 1122 2956 1747 
Q 2956 2369 2687 2733 
Q 2419 3097 1959 3097 
z
M 1959 3584 
Q 2709 3584 3137 3096 
Q 3566 2609 3566 1747 
Q 3566 888 3137 398 
Q 2709 -91 1959 -91 
Q 1206 -91 779 398 
Q 353 888 353 1747 
Q 353 2609 779 3096 
Q 1206 3584 1959 3584 
z
" transform="scale(0.015625)"/>
      <path id="DejaVuSans-69" d="M 603 3500 
L 1178 3500 
L 1178 0 
L 603 0 
L 603 3500 
z
M 603 4863 
L 1178 4863 
L 1178 4134 
L 603 4134 
L 603 4863 
z
" transform="scale(0.015625)"/>
      <path id="DejaVuSans-6e" d="M 3513 2113 
L 3513 0 
L 2938 0 
L 2938 2094 
Q 2938 2591 2744 2837 
Q 2550 3084 2163 3084 
Q 1697 3084 1428 2787 
Q 1159 2491 1159 1978 
L 1159 0 
L 581 0 
L 581 3500 
L 1159 3500 
L 1159 2956 
Q 1366 3272 1645 3428 
Q 1925 3584 2291 3584 
Q 2894 3584 3203 3211 
Q 3513 2838 3513 2113 
z
" transform="scale(0.015625)"/>
      <path id="DejaVuSans-73" d="M 2834 3397 
L 2834 2853 
Q 2591 2978 2328 3040 
Q 2066 3103 1784 3103 
Q 1356 3103 1142 2972 
Q 928 2841 928 2578 
Q 928 2378 1081 2264 
Q 1234 2150 1697 2047 
L 1894 2003 
Q 2506 1872 2764 1633 
Q 3022 1394 3022 966 
Q 3022 478 2636 193 
Q 2250 -91 1575 -91 
Q 1294 -91 989 -36 
Q 684 19 347 128 
L 347 722 
Q 666 556 975 473 
Q 1284 391 1588 391 
Q 1994 391 2212 530 
Q 2431 669 2431 922 
Q 2431 1156 2273 1281 
Q 2116 1406 1581 1522 
L 1381 1569 
Q 847 1681 609 1914 
Q 372 2147 372 2553 
Q 372 3047 722 3315 
Q 1072 3584 1716 3584 
Q 2034 3584 2315 3537 
Q 2597 3491 2834 3397 
z
" transform="scale(0.015625)"/>
     </defs>
     <use xlink:href="#DejaVuSans-44"/>
     <use xlink:href="#DejaVuSans-61" transform="translate(77.001953 0)"/>
     <use xlink:href="#DejaVuSans-74" transform="translate(138.28125 0)"/>
     <use xlink:href="#DejaVuSans-61" transform="translate(177.490234 0)"/>
     <use xlink:href="#DejaVuSans-20" transform="translate(238.769531 0)"/>
     <use xlink:href="#DejaVuSans-50" transform="translate(270.556641 0)"/>
     <use xlink:href="#DejaVuSans-6f" transform="translate(327.234375 0)"/>
     <use xlink:href="#DejaVuSans-69" transform="translate(388.416016 0)"/>
     <use xlink:href="#DejaVuSans-6e" transform="translate(416.199219 0)"/>
     <use xlink:href="#DejaVuSans-74" transform="translate(479.578125 0)"/>
     <use xlink:href="#DejaVuSans-73" transform="translate(518.787109 0)"/>
    </g>
   </g>
   <g id="legend_1">
    <g id="patch_6">
     <path d="M 438.552813 74.518125 
L 528.32 74.518125 
Q 530.32 74.518125 530.32 72.518125 
L 530.32 58.84 
Q 530.32 56.84 528.32 56.84 
L 438.552813 56.84 
Q 436.552813 56.84 436.552813 58.84 
L 436.552813 72.518125 
Q 436.552813 74.518125 438.552813 74.518125 
z
" style="fill: #ffffff; opacity: 0.8; stroke: #cccccc; stroke-linejoin: miter"/>
    </g>
    <g id="Path3DCollection_2">
     <defs>
      <path id="m49d41f07bc" d="M 0 2.236068 
C 0.593012 2.236068 1.161816 2.000462 1.581139 1.581139 
C 2.000462 1.161816 2.236068 0.593012 2.236068 0 
C 2.236068 -0.593012 2.000462 -1.161816 1.581139 -1.581139 
C 1.161816 -2.000462 0.593012 -2.236068 0 -2.236068 
C -0.593012 -2.236068 -1.161816 -2.000462 -1.581139 -1.581139 
C -2.000462 -1.161816 -2.236068 -0.593012 -2.236068 0 
C -2.236068 0.593012 -2.000462 1.161816 -1.581139 1.581139 
C -1.161816 2.000462 -0.593012 2.236068 0 2.236068 
z
" style="stroke: #0000ff"/>
     </defs>
     <g>
      <use xlink:href="#m49d41f07bc" x="450.552813" y="65.813438" style="fill: #0000ff; stroke: #0000ff"/>
     </g>
    </g>
    <g id="text_27">
     <!-- Data points -->
     <g transform="translate(468.552813 68.438438) scale(0.1 -0.1)">
      <defs>
       <path id="DejaVuSans-70" d="M 1159 525 
L 1159 -1331 
L 581 -1331 
L 581 3500 
L 1159 3500 
L 1159 2969 
Q 1341 3281 1617 3432 
Q 1894 3584 2278 3584 
Q 2916 3584 3314 3078 
Q 3713 2572 3713 1747 
Q 3713 922 3314 415 
Q 2916 -91 2278 -91 
Q 1894 -91 1617 61 
Q 1341 213 1159 525 
z
M 3116 1747 
Q 3116 2381 2855 2742 
Q 2594 3103 2138 3103 
Q 1681 3103 1420 2742 
Q 1159 2381 1159 1747 
Q 1159 1113 1420 752 
Q 1681 391 2138 391 
Q 2594 391 2855 752 
Q 3116 1113 3116 1747 
z
" transform="scale(0.015625)"/>
      </defs>
      <use xlink:href="#DejaVuSans-44"/>
      <use xlink:href="#DejaVuSans-61" transform="translate(77.001953 0)"/>
      <use xlink:href="#DejaVuSans-74" transform="translate(138.28125 0)"/>
      <use xlink:href="#DejaVuSans-61" transform="translate(177.490234 0)"/>
      <use xlink:href="#DejaVuSans-20" transform="translate(238.769531 0)"/>
      <use xlink:href="#DejaVuSans-70" transform="translate(270.556641 0)"/>
      <use xlink:href="#DejaVuSans-6f" transform="translate(334.033203 0)"/>
      <use xlink:href="#DejaVuSans-69" transform="translate(395.214844 0)"/>
      <use xlink:href="#DejaVuSans-6e" transform="translate(422.998047 0)"/>
      <use xlink:href="#DejaVuSans-74" transform="translate(486.376953 0)"/>
      <use xlink:href="#DejaVuSans-73" transform="translate(525.585938 0)"/>
     </g>
    </g>
   </g>
  </g>
 </g>
 <defs>
  <clipPath id="pefb46df222">
   <rect x="202.68" y="51.84" width="332.64" height="332.64"/>
  </clipPath>
 </defs>
</svg>
