<?xml version="1.0" encoding="utf-8" standalone="no"?>
<!DOCTYPE svg PUBLIC "-//W3C//DTD SVG 1.1//EN"
  "http://www.w3.org/Graphics/SVG/1.1/DTD/svg11.dtd">
<svg xmlns:xlink="http://www.w3.org/1999/xlink" width="720pt" height="432pt" viewBox="0 0 720 432" xmlns="http://www.w3.org/2000/svg" version="1.1">
 <metadata>
  <rdf:RDF xmlns:dc="http://purl.org/dc/elements/1.1/" xmlns:cc="http://creativecommons.org/ns#" xmlns:rdf="http://www.w3.org/1999/02/22-rdf-syntax-ns#">
   <cc:Work>
    <dc:type rdf:resource="http://purl.org/dc/dcmitype/StillImage"/>
    <dc:date>2025-10-27T12:00:35.812889</dc:date>
    <dc:format>image/svg+xml</dc:format>
    <dc:creator>
     <cc:Agent>
      <dc:title>Matplotlib v3.10.7, https://matplotlib.org/</dc:title>
     </cc:Agent>
    </dc:creator>
   </cc:Work>
  </rdf:RDF>
 </metadata>
 <defs>
  <style type="text/css">*{stroke-linejoin: round; stroke-linecap: butt}</style>
 </defs>
 <g id="figure_1">
  <g id="patch_1">
   <path d="M 0 432 
L 720 432 
L 720 0 
L 0 0 
z
" style="fill: #ffffff"/>
  </g>
  <g id="axes_1">
   <g id="patch_2">
    <path d="M 90 384.48 
L 648 384.48 
L 648 51.84 
L 90 51.84 
z
" style="fill: #ffffff"/>
   </g>
   <g id="matplotlib.axis_1">
    <g id="xtick_1">
     <g id="line2d_1">
      <path d="M 115.363636 384.48 
L 115.363636 51.84 
" clip-path="url(#pa83a9c98e0)" style="fill: none; stroke-dasharray: 2.96,1.28; stroke-dashoffset: 0; stroke: #b0b0b0; stroke-opacity: 0.7; stroke-width: 0.8"/>
     </g>
     <g id="line2d_2">
      <defs>
       <path id="m720190b38e" d="M 0 0 
L 0 3.5 
" style="stroke: #000000; stroke-width: 0.8"/>
      </defs>
      <g>
       <use xlink:href="#m720190b38e" x="115.363636" y="384.48" style="stroke: #000000; stroke-width: 0.8"/>
      </g>
     </g>
     <g id="text_1">
      <!-- 0 -->
      <g transform="translate(112.182386 399.078438) scale(0.1 -0.1)">
       <defs>
        <path id="DejaVuSans-30" d="M 2034 4250 
Q 1547 4250 1301 3770 
Q 1056 3291 1056 2328 
Q 1056 1369 1301 889 
Q 1547 409 2034 409 
Q 2525 409 2770 889 
Q 3016 1369 3016 2328 
Q 3016 3291 2770 3770 
Q 2525 4250 2034 4250 
z
M 2034 4750 
Q 2819 4750 3233 4129 
Q 3647 3509 3647 2328 
Q 3647 1150 3233 529 
Q 2819 -91 2034 -91 
Q 1250 -91 836 529 
Q 422 1150 422 2328 
Q 422 3509 836 4129 
Q 1250 4750 2034 4750 
z
" transform="scale(0.015625)"/>
       </defs>
       <use xlink:href="#DejaVuSans-30"/>
      </g>
     </g>
    </g>
    <g id="xtick_2">
     <g id="line2d_3">
      <path d="M 191.760131 384.48 
L 191.760131 51.84 
" clip-path="url(#pa83a9c98e0)" style="fill: none; stroke-dasharray: 2.96,1.28; stroke-dashoffset: 0; stroke: #b0b0b0; stroke-opacity: 0.7; stroke-width: 0.8"/>
     </g>
     <g id="line2d_4">
      <g>
       <use xlink:href="#m720190b38e" x="191.760131" y="384.48" style="stroke: #000000; stroke-width: 0.8"/>
      </g>
     </g>
     <g id="text_2">
      <!-- 25 -->
      <g transform="translate(185.397631 399.078438) scale(0.1 -0.1)">
       <defs>
        <path id="DejaVuSans-32" d="M 1228 531 
L 3431 531 
L 3431 0 
L 469 0 
L 469 531 
Q 828 903 1448 1529 
Q 2069 2156 2228 2338 
Q 2531 2678 2651 2914 
Q 2772 3150 2772 3378 
Q 2772 3750 2511 3984 
Q 2250 4219 1831 4219 
Q 1534 4219 1204 4116 
Q 875 4013 500 3803 
L 500 4441 
Q 881 4594 1212 4672 
Q 1544 4750 1819 4750 
Q 2544 4750 2975 4387 
Q 3406 4025 3406 3419 
Q 3406 3131 3298 2873 
Q 3191 2616 2906 2266 
Q 2828 2175 2409 1742 
Q 1991 1309 1228 531 
z
" transform="scale(0.015625)"/>
        <path id="DejaVuSans-35" d="M 691 4666 
L 3169 4666 
L 3169 4134 
L 1269 4134 
L 1269 2991 
Q 1406 3038 1543 3061 
Q 1681 3084 1819 3084 
Q 2600 3084 3056 2656 
Q 3513 2228 3513 1497 
Q 3513 744 3044 326 
Q 2575 -91 1722 -91 
Q 1428 -91 1123 -41 
Q 819 9 494 109 
L 494 744 
Q 775 591 1075 516 
Q 1375 441 1709 441 
Q 2250 441 2565 725 
Q 2881 1009 2881 1497 
Q 2881 1984 2565 2268 
Q 2250 2553 1709 2553 
Q 1456 2553 1204 2497 
Q 953 2441 691 2322 
L 691 4666 
z
" transform="scale(0.015625)"/>
       </defs>
       <use xlink:href="#DejaVuSans-32"/>
       <use xlink:href="#DejaVuSans-35" transform="translate(63.623047 0)"/>
      </g>
     </g>
    </g>
    <g id="xtick_3">
     <g id="line2d_5">
      <path d="M 268.156627 384.48 
L 268.156627 51.84 
" clip-path="url(#pa83a9c98e0)" style="fill: none; stroke-dasharray: 2.96,1.28; stroke-dashoffset: 0; stroke: #b0b0b0; stroke-opacity: 0.7; stroke-width: 0.8"/>
     </g>
     <g id="line2d_6">
      <g>
       <use xlink:href="#m720190b38e" x="268.156627" y="384.48" style="stroke: #000000; stroke-width: 0.8"/>
      </g>
     </g>
     <g id="text_3">
      <!-- 50 -->
      <g transform="translate(261.794127 399.078438) scale(0.1 -0.1)">
       <use xlink:href="#DejaVuSans-35"/>
       <use xlink:href="#DejaVuSans-30" transform="translate(63.623047 0)"/>
      </g>
     </g>
    </g>
    <g id="xtick_4">
     <g id="line2d_7">
      <path d="M 344.553122 384.48 
L 344.553122 51.84 
" clip-path="url(#pa83a9c98e0)" style="fill: none; stroke-dasharray: 2.96,1.28; stroke-dashoffset: 0; stroke: #b0b0b0; stroke-opacity: 0.7; stroke-width: 0.8"/>
     </g>
     <g id="line2d_8">
      <g>
       <use xlink:href="#m720190b38e" x="344.553122" y="384.48" style="stroke: #000000; stroke-width: 0.8"/>
      </g>
     </g>
     <g id="text_4">
      <!-- 75 -->
      <g transform="translate(338.190622 399.078438) scale(0.1 -0.1)">
       <defs>
        <path id="DejaVuSans-37" d="M 525 4666 
L 3525 4666 
L 3525 4397 
L 1831 0 
L 1172 0 
L 2766 4134 
L 525 4134 
L 525 4666 
z
" transform="scale(0.015625)"/>
       </defs>
       <use xlink:href="#DejaVuSans-37"/>
       <use xlink:href="#DejaVuSans-35" transform="translate(63.623047 0)"/>
      </g>
     </g>
    </g>
    <g id="xtick_5">
     <g id="line2d_9">
      <path d="M 420.949617 384.48 
L 420.949617 51.84 
" clip-path="url(#pa83a9c98e0)" style="fill: none; stroke-dasharray: 2.96,1.28; stroke-dashoffset: 0; stroke: #b0b0b0; stroke-opacity: 0.7; stroke-width: 0.8"/>
     </g>
     <g id="line2d_10">
      <g>
       <use xlink:href="#m720190b38e" x="420.949617" y="384.48" style="stroke: #000000; stroke-width: 0.8"/>
      </g>
     </g>
     <g id="text_5">
      <!-- 100 -->
      <g transform="translate(411.405867 399.078438) scale(0.1 -0.1)">
       <defs>
        <path id="DejaVuSans-31" d="M 794 531 
L 1825 531 
L 1825 4091 
L 703 3866 
L 703 4441 
L 1819 4666 
L 2450 4666 
L 2450 531 
L 3481 531 
L 3481 0 
L 794 0 
L 794 531 
z
" transform="scale(0.015625)"/>
       </defs>
       <use xlink:href="#DejaVuSans-31"/>
       <use xlink:href="#DejaVuSans-30" transform="translate(63.623047 0)"/>
       <use xlink:href="#DejaVuSans-30" transform="translate(127.246094 0)"/>
      </g>
     </g>
    </g>
    <g id="xtick_6">
     <g id="line2d_11">
      <path d="M 497.346112 384.48 
L 497.346112 51.84 
" clip-path="url(#pa83a9c98e0)" style="fill: none; stroke-dasharray: 2.96,1.28; stroke-dashoffset: 0; stroke: #b0b0b0; stroke-opacity: 0.7; stroke-width: 0.8"/>
     </g>
     <g id="line2d_12">
      <g>
       <use xlink:href="#m720190b38e" x="497.346112" y="384.48" style="stroke: #000000; stroke-width: 0.8"/>
      </g>
     </g>
     <g id="text_6">
      <!-- 125 -->
      <g transform="translate(487.802362 399.078438) scale(0.1 -0.1)">
       <use xlink:href="#DejaVuSans-31"/>
       <use xlink:href="#DejaVuSans-32" transform="translate(63.623047 0)"/>
       <use xlink:href="#DejaVuSans-35" transform="translate(127.246094 0)"/>
      </g>
     </g>
    </g>
    <g id="xtick_7">
     <g id="line2d_13">
      <path d="M 573.742607 384.48 
L 573.742607 51.84 
" clip-path="url(#pa83a9c98e0)" style="fill: none; stroke-dasharray: 2.96,1.28; stroke-dashoffset: 0; stroke: #b0b0b0; stroke-opacity: 0.7; stroke-width: 0.8"/>
     </g>
     <g id="line2d_14">
      <g>
       <use xlink:href="#m720190b38e" x="573.742607" y="384.48" style="stroke: #000000; stroke-width: 0.8"/>
      </g>
     </g>
     <g id="text_7">
      <!-- 150 -->
      <g transform="translate(564.198857 399.078438) scale(0.1 -0.1)">
       <use xlink:href="#DejaVuSans-31"/>
       <use xlink:href="#DejaVuSans-35" transform="translate(63.623047 0)"/>
       <use xlink:href="#DejaVuSans-30" transform="translate(127.246094 0)"/>
      </g>
     </g>
    </g>
    <g id="text_8">
     <!-- Data Points sorted by distance -->
     <g transform="translate(292.439062 412.756563) scale(0.1 -0.1)">
      <defs>
       <path id="DejaVuSans-44" d="M 1259 4147 
L 1259 519 
L 2022 519 
Q 2988 519 3436 956 
Q 3884 1394 3884 2338 
Q 3884 3275 3436 3711 
Q 2988 4147 2022 4147 
L 1259 4147 
z
M 628 4666 
L 1925 4666 
Q 3281 4666 3915 4102 
Q 4550 3538 4550 2338 
Q 4550 1131 3912 565 
Q 3275 0 1925 0 
L 628 0 
L 628 4666 
z
" transform="scale(0.015625)"/>
       <path id="DejaVuSans-61" d="M 2194 1759 
Q 1497 1759 1228 1600 
Q 959 1441 959 1056 
Q 959 750 1161 570 
Q 1363 391 1709 391 
Q 2188 391 2477 730 
Q 2766 1069 2766 1631 
L 2766 1759 
L 2194 1759 
z
M 3341 1997 
L 3341 0 
L 2766 0 
L 2766 531 
Q 2569 213 2275 61 
Q 1981 -91 1556 -91 
Q 1019 -91 701 211 
Q 384 513 384 1019 
Q 384 1609 779 1909 
Q 1175 2209 1959 2209 
L 2766 2209 
L 2766 2266 
Q 2766 2663 2505 2880 
Q 2244 3097 1772 3097 
Q 1472 3097 1187 3025 
Q 903 2953 641 2809 
L 641 3341 
Q 956 3463 1253 3523 
Q 1550 3584 1831 3584 
Q 2591 3584 2966 3190 
Q 3341 2797 3341 1997 
z
" transform="scale(0.015625)"/>
       <path id="DejaVuSans-74" d="M 1172 4494 
L 1172 3500 
L 2356 3500 
L 2356 3053 
L 1172 3053 
L 1172 1153 
Q 1172 725 1289 603 
Q 1406 481 1766 481 
L 2356 481 
L 2356 0 
L 1766 0 
Q 1100 0 847 248 
Q 594 497 594 1153 
L 594 3053 
L 172 3053 
L 172 3500 
L 594 3500 
L 594 4494 
L 1172 4494 
z
" transform="scale(0.015625)"/>
       <path id="DejaVuSans-20" transform="scale(0.015625)"/>
       <path id="DejaVuSans-50" d="M 1259 4147 
L 1259 2394 
L 2053 2394 
Q 2494 2394 2734 2622 
Q 2975 2850 2975 3272 
Q 2975 3691 2734 3919 
Q 2494 4147 2053 4147 
L 1259 4147 
z
M 628 4666 
L 2053 4666 
Q 2838 4666 3239 4311 
Q 3641 3956 3641 3272 
Q 3641 2581 3239 2228 
Q 2838 1875 2053 1875 
L 1259 1875 
L 1259 0 
L 628 0 
L 628 4666 
z
" transform="scale(0.015625)"/>
       <path id="DejaVuSans-6f" d="M 1959 3097 
Q 1497 3097 1228 2736 
Q 959 2375 959 1747 
Q 959 1119 1226 758 
Q 1494 397 1959 397 
Q 2419 397 2687 759 
Q 2956 1122 2956 1747 
Q 2956 2369 2687 2733 
Q 2419 3097 1959 3097 
z
M 1959 3584 
Q 2709 3584 3137 3096 
Q 3566 2609 3566 1747 
Q 3566 888 3137 398 
Q 2709 -91 1959 -91 
Q 1206 -91 779 398 
Q 353 888 353 1747 
Q 353 2609 779 3096 
Q 1206 3584 1959 3584 
z
" transform="scale(0.015625)"/>
       <path id="DejaVuSans-69" d="M 603 3500 
L 1178 3500 
L 1178 0 
L 603 0 
L 603 3500 
z
M 603 4863 
L 1178 4863 
L 1178 4134 
L 603 4134 
L 603 4863 
z
" transform="scale(0.015625)"/>
       <path id="DejaVuSans-6e" d="M 3513 2113 
L 3513 0 
L 2938 0 
L 2938 2094 
Q 2938 2591 2744 2837 
Q 2550 3084 2163 3084 
Q 1697 3084 1428 2787 
Q 1159 2491 1159 1978 
L 1159 0 
L 581 0 
L 581 3500 
L 1159 3500 
L 1159 2956 
Q 1366 3272 1645 3428 
Q 1925 3584 2291 3584 
Q 2894 3584 3203 3211 
Q 3513 2838 3513 2113 
z
" transform="scale(0.015625)"/>
       <path id="DejaVuSans-73" d="M 2834 3397 
L 2834 2853 
Q 2591 2978 2328 3040 
Q 2066 3103 1784 3103 
Q 1356 3103 1142 2972 
Q 928 2841 928 2578 
Q 928 2378 1081 2264 
Q 1234 2150 1697 2047 
L 1894 2003 
Q 2506 1872 2764 1633 
Q 3022 1394 3022 966 
Q 3022 478 2636 193 
Q 2250 -91 1575 -91 
Q 1294 -91 989 -36 
Q 684 19 347 128 
L 347 722 
Q 666 556 975 473 
Q 1284 391 1588 391 
Q 1994 391 2212 530 
Q 2431 669 2431 922 
Q 2431 1156 2273 1281 
Q 2116 1406 1581 1522 
L 1381 1569 
Q 847 1681 609 1914 
Q 372 2147 372 2553 
Q 372 3047 722 3315 
Q 1072 3584 1716 3584 
Q 2034 3584 2315 3537 
Q 2597 3491 2834 3397 
z
" transform="scale(0.015625)"/>
       <path id="DejaVuSans-72" d="M 2631 2963 
Q 2534 3019 2420 3045 
Q 2306 3072 2169 3072 
Q 1681 3072 1420 2755 
Q 1159 2438 1159 1844 
L 1159 0 
L 581 0 
L 581 3500 
L 1159 3500 
L 1159 2956 
Q 1341 3275 1631 3429 
Q 1922 3584 2338 3584 
Q 2397 3584 2469 3576 
Q 2541 3569 2628 3553 
L 2631 2963 
z
" transform="scale(0.015625)"/>
       <path id="DejaVuSans-65" d="M 3597 1894 
L 3597 1613 
L 953 1613 
Q 991 1019 1311 708 
Q 1631 397 2203 397 
Q 2534 397 2845 478 
Q 3156 559 3463 722 
L 3463 178 
Q 3153 47 2828 -22 
Q 2503 -91 2169 -91 
Q 1331 -91 842 396 
Q 353 884 353 1716 
Q 353 2575 817 3079 
Q 1281 3584 2069 3584 
Q 2775 3584 3186 3129 
Q 3597 2675 3597 1894 
z
M 3022 2063 
Q 3016 2534 2758 2815 
Q 2500 3097 2075 3097 
Q 1594 3097 1305 2825 
Q 1016 2553 972 2059 
L 3022 2063 
z
" transform="scale(0.015625)"/>
       <path id="DejaVuSans-64" d="M 2906 2969 
L 2906 4863 
L 3481 4863 
L 3481 0 
L 2906 0 
L 2906 525 
Q 2725 213 2448 61 
Q 2172 -91 1784 -91 
Q 1150 -91 751 415 
Q 353 922 353 1747 
Q 353 2572 751 3078 
Q 1150 3584 1784 3584 
Q 2172 3584 2448 3432 
Q 2725 3281 2906 2969 
z
M 947 1747 
Q 947 1113 1208 752 
Q 1469 391 1925 391 
Q 2381 391 2643 752 
Q 2906 1113 2906 1747 
Q 2906 2381 2643 2742 
Q 2381 3103 1925 3103 
Q 1469 3103 1208 2742 
Q 947 2381 947 1747 
z
" transform="scale(0.015625)"/>
       <path id="DejaVuSans-62" d="M 3116 1747 
Q 3116 2381 2855 2742 
Q 2594 3103 2138 3103 
Q 1681 3103 1420 2742 
Q 1159 2381 1159 1747 
Q 1159 1113 1420 752 
Q 1681 391 2138 391 
Q 2594 391 2855 752 
Q 3116 1113 3116 1747 
z
M 1159 2969 
Q 1341 3281 1617 3432 
Q 1894 3584 2278 3584 
Q 2916 3584 3314 3078 
Q 3713 2572 3713 1747 
Q 3713 922 3314 415 
Q 2916 -91 2278 -91 
Q 1894 -91 1617 61 
Q 1341 213 1159 525 
L 1159 0 
L 581 0 
L 581 4863 
L 1159 4863 
L 1159 2969 
z
" transform="scale(0.015625)"/>
       <path id="DejaVuSans-79" d="M 2059 -325 
Q 1816 -950 1584 -1140 
Q 1353 -1331 966 -1331 
L 506 -1331 
L 506 -850 
L 844 -850 
Q 1081 -850 1212 -737 
Q 1344 -625 1503 -206 
L 1606 56 
L 191 3500 
L 800 3500 
L 1894 763 
L 2988 3500 
L 3597 3500 
L 2059 -325 
z
" transform="scale(0.015625)"/>
       <path id="DejaVuSans-63" d="M 3122 3366 
L 3122 2828 
Q 2878 2963 2633 3030 
Q 2388 3097 2138 3097 
Q 1578 3097 1268 2742 
Q 959 2388 959 1747 
Q 959 1106 1268 751 
Q 1578 397 2138 397 
Q 2388 397 2633 464 
Q 2878 531 3122 666 
L 3122 134 
Q 2881 22 2623 -34 
Q 2366 -91 2075 -91 
Q 1284 -91 818 406 
Q 353 903 353 1747 
Q 353 2603 823 3093 
Q 1294 3584 2113 3584 
Q 2378 3584 2631 3529 
Q 2884 3475 3122 3366 
z
" transform="scale(0.015625)"/>
      </defs>
      <use xlink:href="#DejaVuSans-44"/>
      <use xlink:href="#DejaVuSans-61" transform="translate(77.001953 0)"/>
      <use xlink:href="#DejaVuSans-74" transform="translate(138.28125 0)"/>
      <use xlink:href="#DejaVuSans-61" transform="translate(177.490234 0)"/>
      <use xlink:href="#DejaVuSans-20" transform="translate(238.769531 0)"/>
      <use xlink:href="#DejaVuSans-50" transform="translate(270.556641 0)"/>
      <use xlink:href="#DejaVuSans-6f" transform="translate(327.234375 0)"/>
      <use xlink:href="#DejaVuSans-69" transform="translate(388.416016 0)"/>
      <use xlink:href="#DejaVuSans-6e" transform="translate(416.199219 0)"/>
      <use xlink:href="#DejaVuSans-74" transform="translate(479.578125 0)"/>
      <use xlink:href="#DejaVuSans-73" transform="translate(518.787109 0)"/>
      <use xlink:href="#DejaVuSans-20" transform="translate(570.886719 0)"/>
      <use xlink:href="#DejaVuSans-73" transform="translate(602.673828 0)"/>
      <use xlink:href="#DejaVuSans-6f" transform="translate(654.773438 0)"/>
      <use xlink:href="#DejaVuSans-72" transform="translate(715.955078 0)"/>
      <use xlink:href="#DejaVuSans-74" transform="translate(757.068359 0)"/>
      <use xlink:href="#DejaVuSans-65" transform="translate(796.277344 0)"/>
      <use xlink:href="#DejaVuSans-64" transform="translate(857.800781 0)"/>
      <use xlink:href="#DejaVuSans-20" transform="translate(921.277344 0)"/>
      <use xlink:href="#DejaVuSans-62" transform="translate(953.064453 0)"/>
      <use xlink:href="#DejaVuSans-79" transform="translate(1016.541016 0)"/>
      <use xlink:href="#DejaVuSans-20" transform="translate(1075.720703 0)"/>
      <use xlink:href="#DejaVuSans-64" transform="translate(1107.507812 0)"/>
      <use xlink:href="#DejaVuSans-69" transform="translate(1170.984375 0)"/>
      <use xlink:href="#DejaVuSans-73" transform="translate(1198.767578 0)"/>
      <use xlink:href="#DejaVuSans-74" transform="translate(1250.867188 0)"/>
      <use xlink:href="#DejaVuSans-61" transform="translate(1290.076172 0)"/>
      <use xlink:href="#DejaVuSans-6e" transform="translate(1351.355469 0)"/>
      <use xlink:href="#DejaVuSans-63" transform="translate(1414.734375 0)"/>
      <use xlink:href="#DejaVuSans-65" transform="translate(1469.714844 0)"/>
     </g>
    </g>
   </g>
   <g id="matplotlib.axis_2">
    <g id="ytick_1">
     <g id="line2d_15">
      <path d="M 90 369.36 
L 648 369.36 
" clip-path="url(#pa83a9c98e0)" style="fill: none; stroke-dasharray: 2.96,1.28; stroke-dashoffset: 0; stroke: #b0b0b0; stroke-opacity: 0.7; stroke-width: 0.8"/>
     </g>
     <g id="line2d_16">
      <defs>
       <path id="md508c3a188" d="M 0 0 
L -3.5 0 
" style="stroke: #000000; stroke-width: 0.8"/>
      </defs>
      <g>
       <use xlink:href="#md508c3a188" x="90" y="369.36" style="stroke: #000000; stroke-width: 0.8"/>
      </g>
     </g>
     <g id="text_9">
      <!-- 0 -->
      <g transform="translate(76.6375 373.159219) scale(0.1 -0.1)">
       <use xlink:href="#DejaVuSans-30"/>
      </g>
     </g>
    </g>
    <g id="ytick_2">
     <g id="line2d_17">
      <path d="M 90 306.954575 
L 648 306.954575 
" clip-path="url(#pa83a9c98e0)" style="fill: none; stroke-dasharray: 2.96,1.28; stroke-dashoffset: 0; stroke: #b0b0b0; stroke-opacity: 0.7; stroke-width: 0.8"/>
     </g>
     <g id="line2d_18">
      <g>
       <use xlink:href="#md508c3a188" x="90" y="306.954575" style="stroke: #000000; stroke-width: 0.8"/>
      </g>
     </g>
     <g id="text_10">
      <!-- 1 -->
      <g transform="translate(76.6375 310.753794) scale(0.1 -0.1)">
       <use xlink:href="#DejaVuSans-31"/>
      </g>
     </g>
    </g>
    <g id="ytick_3">
     <g id="line2d_19">
      <path d="M 90 244.54915 
L 648 244.54915 
" clip-path="url(#pa83a9c98e0)" style="fill: none; stroke-dasharray: 2.96,1.28; stroke-dashoffset: 0; stroke: #b0b0b0; stroke-opacity: 0.7; stroke-width: 0.8"/>
     </g>
     <g id="line2d_20">
      <g>
       <use xlink:href="#md508c3a188" x="90" y="244.54915" style="stroke: #000000; stroke-width: 0.8"/>
      </g>
     </g>
     <g id="text_11">
      <!-- 2 -->
      <g transform="translate(76.6375 248.348369) scale(0.1 -0.1)">
       <use xlink:href="#DejaVuSans-32"/>
      </g>
     </g>
    </g>
    <g id="ytick_4">
     <g id="line2d_21">
      <path d="M 90 182.143725 
L 648 182.143725 
" clip-path="url(#pa83a9c98e0)" style="fill: none; stroke-dasharray: 2.96,1.28; stroke-dashoffset: 0; stroke: #b0b0b0; stroke-opacity: 0.7; stroke-width: 0.8"/>
     </g>
     <g id="line2d_22">
      <g>
       <use xlink:href="#md508c3a188" x="90" y="182.143725" style="stroke: #000000; stroke-width: 0.8"/>
      </g>
     </g>
     <g id="text_12">
      <!-- 3 -->
      <g transform="translate(76.6375 185.942944) scale(0.1 -0.1)">
       <defs>
        <path id="DejaVuSans-33" d="M 2597 2516 
Q 3050 2419 3304 2112 
Q 3559 1806 3559 1356 
Q 3559 666 3084 287 
Q 2609 -91 1734 -91 
Q 1441 -91 1130 -33 
Q 819 25 488 141 
L 488 750 
Q 750 597 1062 519 
Q 1375 441 1716 441 
Q 2309 441 2620 675 
Q 2931 909 2931 1356 
Q 2931 1769 2642 2001 
Q 2353 2234 1838 2234 
L 1294 2234 
L 1294 2753 
L 1863 2753 
Q 2328 2753 2575 2939 
Q 2822 3125 2822 3475 
Q 2822 3834 2567 4026 
Q 2313 4219 1838 4219 
Q 1578 4219 1281 4162 
Q 984 4106 628 3988 
L 628 4550 
Q 988 4650 1302 4700 
Q 1616 4750 1894 4750 
Q 2613 4750 3031 4423 
Q 3450 4097 3450 3541 
Q 3450 3153 3228 2886 
Q 3006 2619 2597 2516 
z
" transform="scale(0.015625)"/>
       </defs>
       <use xlink:href="#DejaVuSans-33"/>
      </g>
     </g>
    </g>
    <g id="ytick_5">
     <g id="line2d_23">
      <path d="M 90 119.7383 
L 648 119.7383 
" clip-path="url(#pa83a9c98e0)" style="fill: none; stroke-dasharray: 2.96,1.28; stroke-dashoffset: 0; stroke: #b0b0b0; stroke-opacity: 0.7; stroke-width: 0.8"/>
     </g>
     <g id="line2d_24">
      <g>
       <use xlink:href="#md508c3a188" x="90" y="119.7383" style="stroke: #000000; stroke-width: 0.8"/>
      </g>
     </g>
     <g id="text_13">
      <!-- 4 -->
      <g transform="translate(76.6375 123.537519) scale(0.1 -0.1)">
       <defs>
        <path id="DejaVuSans-34" d="M 2419 4116 
L 825 1625 
L 2419 1625 
L 2419 4116 
z
M 2253 4666 
L 3047 4666 
L 3047 1625 
L 3713 1625 
L 3713 1100 
L 3047 1100 
L 3047 0 
L 2419 0 
L 2419 1100 
L 313 1100 
L 313 1709 
L 2253 4666 
z
" transform="scale(0.015625)"/>
       </defs>
       <use xlink:href="#DejaVuSans-34"/>
      </g>
     </g>
    </g>
    <g id="ytick_6">
     <g id="line2d_25">
      <path d="M 90 57.332875 
L 648 57.332875 
" clip-path="url(#pa83a9c98e0)" style="fill: none; stroke-dasharray: 2.96,1.28; stroke-dashoffset: 0; stroke: #b0b0b0; stroke-opacity: 0.7; stroke-width: 0.8"/>
     </g>
     <g id="line2d_26">
      <g>
       <use xlink:href="#md508c3a188" x="90" y="57.332875" style="stroke: #000000; stroke-width: 0.8"/>
      </g>
     </g>
     <g id="text_14">
      <!-- 5 -->
      <g transform="translate(76.6375 61.132094) scale(0.1 -0.1)">
       <use xlink:href="#DejaVuSans-35"/>
      </g>
     </g>
    </g>
    <g id="text_15">
     <!-- Distance to Kth Nearest Neighbor -->
     <g transform="translate(70.557812 302.11) rotate(-90) scale(0.1 -0.1)">
      <defs>
       <path id="DejaVuSans-4b" d="M 628 4666 
L 1259 4666 
L 1259 2694 
L 3353 4666 
L 4166 4666 
L 1850 2491 
L 4331 0 
L 3500 0 
L 1259 2247 
L 1259 0 
L 628 0 
L 628 4666 
z
" transform="scale(0.015625)"/>
       <path id="DejaVuSans-68" d="M 3513 2113 
L 3513 0 
L 2938 0 
L 2938 2094 
Q 2938 2591 2744 2837 
Q 2550 3084 2163 3084 
Q 1697 3084 1428 2787 
Q 1159 2491 1159 1978 
L 1159 0 
L 581 0 
L 581 4863 
L 1159 4863 
L 1159 2956 
Q 1366 3272 1645 3428 
Q 1925 3584 2291 3584 
Q 2894 3584 3203 3211 
Q 3513 2838 3513 2113 
z
" transform="scale(0.015625)"/>
       <path id="DejaVuSans-4e" d="M 628 4666 
L 1478 4666 
L 3547 763 
L 3547 4666 
L 4159 4666 
L 4159 0 
L 3309 0 
L 1241 3903 
L 1241 0 
L 628 0 
L 628 4666 
z
" transform="scale(0.015625)"/>
       <path id="DejaVuSans-67" d="M 2906 1791 
Q 2906 2416 2648 2759 
Q 2391 3103 1925 3103 
Q 1463 3103 1205 2759 
Q 947 2416 947 1791 
Q 947 1169 1205 825 
Q 1463 481 1925 481 
Q 2391 481 2648 825 
Q 2906 1169 2906 1791 
z
M 3481 434 
Q 3481 -459 3084 -895 
Q 2688 -1331 1869 -1331 
Q 1566 -1331 1297 -1286 
Q 1028 -1241 775 -1147 
L 775 -588 
Q 1028 -725 1275 -790 
Q 1522 -856 1778 -856 
Q 2344 -856 2625 -561 
Q 2906 -266 2906 331 
L 2906 616 
Q 2728 306 2450 153 
Q 2172 0 1784 0 
Q 1141 0 747 490 
Q 353 981 353 1791 
Q 353 2603 747 3093 
Q 1141 3584 1784 3584 
Q 2172 3584 2450 3431 
Q 2728 3278 2906 2969 
L 2906 3500 
L 3481 3500 
L 3481 434 
z
" transform="scale(0.015625)"/>
      </defs>
      <use xlink:href="#DejaVuSans-44"/>
      <use xlink:href="#DejaVuSans-69" transform="translate(77.001953 0)"/>
      <use xlink:href="#DejaVuSans-73" transform="translate(104.785156 0)"/>
      <use xlink:href="#DejaVuSans-74" transform="translate(156.884766 0)"/>
      <use xlink:href="#DejaVuSans-61" transform="translate(196.09375 0)"/>
      <use xlink:href="#DejaVuSans-6e" transform="translate(257.373047 0)"/>
      <use xlink:href="#DejaVuSans-63" transform="translate(320.751953 0)"/>
      <use xlink:href="#DejaVuSans-65" transform="translate(375.732422 0)"/>
      <use xlink:href="#DejaVuSans-20" transform="translate(437.255859 0)"/>
      <use xlink:href="#DejaVuSans-74" transform="translate(469.042969 0)"/>
      <use xlink:href="#DejaVuSans-6f" transform="translate(508.251953 0)"/>
      <use xlink:href="#DejaVuSans-20" transform="translate(569.433594 0)"/>
      <use xlink:href="#DejaVuSans-4b" transform="translate(601.220703 0)"/>
      <use xlink:href="#DejaVuSans-74" transform="translate(666.796875 0)"/>
      <use xlink:href="#DejaVuSans-68" transform="translate(706.005859 0)"/>
      <use xlink:href="#DejaVuSans-20" transform="translate(769.384766 0)"/>
      <use xlink:href="#DejaVuSans-4e" transform="translate(801.171875 0)"/>
      <use xlink:href="#DejaVuSans-65" transform="translate(875.976562 0)"/>
      <use xlink:href="#DejaVuSans-61" transform="translate(937.5 0)"/>
      <use xlink:href="#DejaVuSans-72" transform="translate(998.779297 0)"/>
      <use xlink:href="#DejaVuSans-65" transform="translate(1037.642578 0)"/>
      <use xlink:href="#DejaVuSans-73" transform="translate(1099.166016 0)"/>
      <use xlink:href="#DejaVuSans-74" transform="translate(1151.265625 0)"/>
      <use xlink:href="#DejaVuSans-20" transform="translate(1190.474609 0)"/>
      <use xlink:href="#DejaVuSans-4e" transform="translate(1222.261719 0)"/>
      <use xlink:href="#DejaVuSans-65" transform="translate(1297.066406 0)"/>
      <use xlink:href="#DejaVuSans-69" transform="translate(1358.589844 0)"/>
      <use xlink:href="#DejaVuSans-67" transform="translate(1386.373047 0)"/>
      <use xlink:href="#DejaVuSans-68" transform="translate(1449.849609 0)"/>
      <use xlink:href="#DejaVuSans-62" transform="translate(1513.228516 0)"/>
      <use xlink:href="#DejaVuSans-6f" transform="translate(1576.705078 0)"/>
      <use xlink:href="#DejaVuSans-72" transform="translate(1637.886719 0)"/>
     </g>
    </g>
   </g>
   <g id="line2d_27">
    <path d="M 115.363636 369.36 
L 622.636364 369.36 
L 622.636364 369.36 
" clip-path="url(#pa83a9c98e0)" style="fill: none; stroke: #1f77b4; stroke-width: 1.5; stroke-linecap: square"/>
   </g>
   <g id="line2d_28">
    <path d="M 115.363636 366.524076 
L 118.419496 366.524076 
L 121.475356 365.554535 
L 124.531216 365.554535 
L 127.587076 364.202388 
L 130.642935 362.450504 
L 133.698795 362.450504 
L 136.754655 362.279929 
L 139.810515 362.279929 
L 142.866375 361.953853 
L 145.922234 361.953853 
L 148.978094 361.727008 
L 152.033954 361.727008 
L 155.089814 361.349744 
L 158.145674 361.349744 
L 161.201533 360.878126 
L 170.369113 360.807879 
L 173.424973 360.621217 
L 176.480832 359.746896 
L 188.704272 359.466227 
L 191.760131 359.466227 
L 194.815991 359.230171 
L 200.927711 359.184153 
L 203.983571 358.891798 
L 207.03943 358.891798 
L 210.09529 358.724492 
L 222.318729 358.63397 
L 225.374589 358.308645 
L 231.486309 358.134095 
L 240.653888 357.967636 
L 243.709748 357.489378 
L 246.765608 357.489378 
L 249.821468 357.334989 
L 255.933187 357.24057 
L 262.044907 357.208011 
L 265.100767 356.972316 
L 268.156627 356.972316 
L 271.212486 356.500721 
L 280.380066 356.491064 
L 283.435926 356.348989 
L 292.603505 356.273282 
L 298.715225 355.799794 
L 301.771084 355.646979 
L 304.826944 355.646979 
L 307.882804 355.352974 
L 310.938664 355.352974 
L 313.994524 355.10847 
L 317.050383 355.039761 
L 320.106243 354.774279 
L 326.217963 354.758866 
L 329.273823 354.561149 
L 335.385542 354.519454 
L 338.441402 354.260845 
L 341.497262 354.24397 
L 344.553122 354.014227 
L 350.664841 353.933412 
L 353.720701 353.467518 
L 362.88828 353.378572 
L 387.335159 352.651185 
L 390.391019 351.810747 
L 396.502738 351.739614 
L 411.782037 351.104138 
L 414.837897 350.860591 
L 417.893757 350.494168 
L 420.949617 349.987876 
L 427.061336 349.892882 
L 442.340635 349.799531 
L 454.564074 349.60345 
L 457.619934 349.144107 
L 463.731654 349.061357 
L 472.899233 348.236789 
L 475.955093 347.814003 
L 479.010953 347.814003 
L 482.066813 347.372384 
L 485.122673 347.255562 
L 488.178532 347.255562 
L 491.234392 346.9877 
L 494.290252 345.968591 
L 497.346112 345.822485 
L 500.401972 345.513992 
L 509.569551 345.315259 
L 512.625411 344.642545 
L 515.681271 344.232213 
L 518.73713 344.232213 
L 521.79299 344.110802 
L 524.84885 343.811675 
L 534.016429 342.054576 
L 537.072289 341.611628 
L 540.128149 341.480244 
L 543.184009 340.865108 
L 546.239869 339.716592 
L 549.295728 339.133839 
L 555.407448 337.625788 
L 558.463308 335.309632 
L 561.519168 334.888451 
L 564.575027 334.888451 
L 567.630887 332.80341 
L 570.686747 332.80341 
L 573.742607 325.981557 
L 576.798467 325.062806 
L 579.854326 322.05116 
L 582.910186 320.433122 
L 585.966046 318.36892 
L 589.021906 317.882028 
L 592.077766 312.469205 
L 595.133625 311.726229 
L 598.189485 308.182328 
L 601.245345 306.844643 
L 604.301205 302.279808 
L 607.357065 291.733445 
L 610.412924 279.3413 
L 613.468784 231.992903 
L 616.524644 231.992903 
L 619.580504 200.791408 
L 622.636364 186.664343 
L 622.636364 186.664343 
" clip-path="url(#pa83a9c98e0)" style="fill: none; stroke: #ff7f0e; stroke-width: 1.5; stroke-linecap: square"/>
   </g>
   <g id="line2d_29">
    <path d="M 115.363636 364.202388 
L 118.419496 360.621217 
L 121.475356 360.462675 
L 124.531216 360.462675 
L 127.587076 359.746896 
L 130.642935 358.659564 
L 133.698795 358.554028 
L 136.754655 358.308645 
L 145.922234 358.134095 
L 152.033954 357.927213 
L 155.089814 357.927213 
L 158.145674 357.521246 
L 167.313253 357.484468 
L 170.369113 357.374775 
L 176.480832 356.433174 
L 179.536692 356.27895 
L 185.648412 356.255231 
L 191.760131 355.799794 
L 194.815991 355.779843 
L 197.871851 355.143078 
L 210.09529 355.039761 
L 216.20701 354.98959 
L 225.374589 354.274754 
L 231.486309 354.24397 
L 234.542169 354.014227 
L 240.653888 354.011222 
L 243.709748 353.540264 
L 246.765608 353.540264 
L 249.821468 353.278888 
L 258.989047 353.224146 
L 265.100767 353.085955 
L 274.268346 352.988606 
L 277.324206 352.833629 
L 280.380066 352.366736 
L 286.491785 352.23585 
L 289.547645 352.114522 
L 292.603505 351.810747 
L 304.826944 351.62603 
L 307.882804 351.241976 
L 326.217963 350.493739 
L 332.329682 350.432106 
L 335.385542 349.880469 
L 341.497262 349.60345 
L 344.553122 348.822253 
L 353.720701 348.749864 
L 369 348.512794 
L 372.05586 348.236789 
L 396.502738 347.279882 
L 399.558598 346.9877 
L 408.726177 346.672222 
L 411.782037 346.288792 
L 414.837897 346.153509 
L 417.893757 346.153509 
L 420.949617 345.97521 
L 424.005476 345.97521 
L 427.061336 345.822485 
L 430.117196 345.355555 
L 433.173056 345.115158 
L 436.228916 345.008079 
L 439.284775 344.580309 
L 445.396495 344.465554 
L 448.452355 344.12879 
L 457.619934 344.114007 
L 460.675794 343.979034 
L 463.731654 343.979034 
L 466.787514 343.693614 
L 469.843373 342.566945 
L 472.899233 342.566945 
L 475.955093 342.300483 
L 479.010953 342.234321 
L 482.066813 341.906004 
L 488.178532 341.884049 
L 491.234392 341.287018 
L 494.290252 341.156591 
L 497.346112 340.899686 
L 500.401972 340.824838 
L 503.457831 340.324789 
L 512.625411 339.790755 
L 515.681271 338.328269 
L 518.73713 337.838345 
L 521.79299 337.566704 
L 524.84885 337.112945 
L 527.90471 337.112945 
L 530.96057 336.772841 
L 534.016429 335.309632 
L 537.072289 335.108559 
L 540.128149 334.12519 
L 543.184009 333.834018 
L 546.239869 331.899846 
L 549.295728 325.062806 
L 552.351588 324.519752 
L 555.407448 321.884395 
L 558.463308 321.787015 
L 561.519168 319.370439 
L 567.630887 319.366643 
L 570.686747 317.949315 
L 573.742607 317.882028 
L 576.798467 317.619927 
L 579.854326 316.167453 
L 582.910186 312.550991 
L 585.966046 310.535895 
L 589.021906 308.756718 
L 592.077766 305.567604 
L 595.133625 305.205741 
L 598.189485 301.155411 
L 601.245345 295.798261 
L 604.301205 291.733445 
L 607.357065 270.503172 
L 610.412924 265.982884 
L 613.468784 220.213445 
L 616.524644 200.791408 
L 619.580504 165.377838 
L 622.636364 122.65371 
L 622.636364 122.65371 
" clip-path="url(#pa83a9c98e0)" style="fill: none; stroke: #2ca02c; stroke-width: 1.5; stroke-linecap: square"/>
   </g>
   <g id="line2d_30">
    <path d="M 115.363636 359.474832 
L 118.419496 359.184153 
L 121.475356 358.554028 
L 127.587076 357.967636 
L 130.642935 357.374775 
L 133.698795 357.24057 
L 136.754655 356.987999 
L 139.810515 356.936732 
L 142.866375 356.433174 
L 145.922234 355.068276 
L 148.978094 354.456262 
L 152.033954 354.411934 
L 155.089814 353.715711 
L 167.313253 353.502159 
L 170.369113 353.224146 
L 176.480832 353.054812 
L 179.536692 352.787741 
L 188.704272 352.685805 
L 191.760131 352.581466 
L 194.815991 352.295865 
L 207.03943 352.227127 
L 222.318729 351.7115 
L 225.374589 351.7115 
L 228.430449 350.908153 
L 231.486309 350.908153 
L 234.542169 350.71354 
L 240.653888 350.696224 
L 243.709748 350.500265 
L 246.765608 350.493739 
L 249.821468 349.885847 
L 252.877327 349.712794 
L 255.933187 349.712794 
L 271.212486 348.8484 
L 289.547645 348.263685 
L 292.603505 348.100448 
L 307.882804 347.791898 
L 313.994524 347.629548 
L 323.162103 347.540968 
L 329.273823 346.909644 
L 344.553122 346.568427 
L 356.776561 345.513992 
L 359.832421 345.047561 
L 365.94414 344.954541 
L 369 344.666611 
L 378.167579 344.528273 
L 381.223439 344.110802 
L 384.279299 344.101834 
L 387.335159 343.977142 
L 390.391019 343.479769 
L 396.502738 343.220595 
L 399.558598 342.643637 
L 402.614458 342.538877 
L 405.670318 342.300483 
L 408.726177 341.94976 
L 411.782037 341.853022 
L 414.837897 341.611628 
L 427.061336 341.24037 
L 433.173056 340.908853 
L 439.284775 340.865108 
L 445.396495 340.115059 
L 451.508215 339.790755 
L 454.564074 339.716592 
L 457.619934 339.371841 
L 463.731654 339.287414 
L 472.899233 339.073704 
L 475.955093 337.838345 
L 482.066813 337.164078 
L 488.178532 337.028899 
L 491.234392 336.966066 
L 494.290252 336.719672 
L 497.346112 336.71144 
L 500.401972 336.504675 
L 503.457831 335.954978 
L 509.569551 335.55769 
L 512.625411 335.158089 
L 515.681271 335.108559 
L 518.73713 334.360517 
L 521.79299 334.132573 
L 524.84885 334.132573 
L 527.90471 333.467846 
L 530.96057 332.94383 
L 534.016429 332.098032 
L 537.072289 331.899846 
L 540.128149 331.321752 
L 543.184009 330.063589 
L 546.239869 322.085899 
L 549.295728 320.708138 
L 555.407448 316.198445 
L 558.463308 315.482412 
L 561.519168 314.31239 
L 567.630887 313.685176 
L 570.686747 313.050963 
L 573.742607 312.650585 
L 576.798467 312.550991 
L 579.854326 309.459683 
L 582.910186 308.503394 
L 585.966046 304.885798 
L 589.021906 304.682953 
L 592.077766 302.279808 
L 595.133625 299.489701 
L 598.189485 298.565775 
L 601.245345 291.468726 
L 604.301205 286.346719 
L 607.357065 260.280077 
L 610.412924 251.329908 
L 613.468784 208.907271 
L 616.524644 150.472639 
L 619.580504 121.060666 
L 622.636364 114.853696 
L 622.636364 114.853696 
" clip-path="url(#pa83a9c98e0)" style="fill: none; stroke: #d62728; stroke-width: 1.5; stroke-linecap: square"/>
   </g>
   <g id="line2d_31">
    <path d="M 115.363636 358.018911 
L 118.419496 356.987999 
L 121.475356 356.27895 
L 124.531216 355.779843 
L 127.587076 354.411934 
L 136.754655 354.096011 
L 139.810515 353.111474 
L 145.922234 353.054812 
L 148.978094 352.697365 
L 155.089814 352.581466 
L 161.201533 352.366736 
L 170.369113 352.071849 
L 173.424973 352.058296 
L 176.480832 351.759952 
L 179.536692 351.62603 
L 182.592552 351.613941 
L 185.648412 351.065536 
L 188.704272 350.687561 
L 194.815991 350.543285 
L 200.927711 350.303497 
L 203.983571 349.987876 
L 210.09529 349.880469 
L 216.20701 349.818393 
L 219.26287 349.094361 
L 222.318729 348.759622 
L 225.374589 348.757525 
L 228.430449 348.377658 
L 234.542169 348.263685 
L 240.653888 348.114628 
L 246.765608 348.100448 
L 249.821468 347.806691 
L 252.877327 347.806691 
L 258.989047 347.372384 
L 265.100767 347.229544 
L 268.156627 346.672222 
L 271.212486 346.376316 
L 274.268346 346.294989 
L 280.380066 346.007781 
L 289.547645 345.681303 
L 292.603505 345.195714 
L 295.659365 344.850529 
L 298.715225 344.850529 
L 313.994524 343.977142 
L 329.273823 343.218013 
L 341.497262 342.809051 
L 344.553122 342.685269 
L 347.608981 342.391011 
L 353.720701 342.084589 
L 356.776561 341.704207 
L 365.94414 341.168335 
L 369 341.152834 
L 372.05586 340.824838 
L 384.279299 340.630956 
L 390.391019 340.479334 
L 393.446878 340.133867 
L 396.502738 339.930843 
L 399.558598 339.911124 
L 402.614458 339.598902 
L 408.726177 339.347283 
L 411.782037 339.347283 
L 417.893757 339.133839 
L 420.949617 339.073704 
L 424.005476 338.753901 
L 427.061336 337.591227 
L 436.228916 336.350795 
L 439.284775 336.214144 
L 442.340635 336.214144 
L 445.396495 336.042851 
L 454.564074 335.951137 
L 457.619934 335.803534 
L 460.675794 335.774438 
L 472.899233 334.995127 
L 485.122673 334.833784 
L 488.178532 334.12519 
L 494.290252 333.314254 
L 500.401972 333.234913 
L 503.457831 332.503665 
L 506.513691 332.064701 
L 509.569551 330.967536 
L 512.625411 330.547457 
L 518.73713 330.453664 
L 521.79299 330.083871 
L 524.84885 330.007809 
L 530.96057 327.702209 
L 537.072289 327.522706 
L 540.128149 322.05116 
L 543.184009 321.787015 
L 546.239869 320.00837 
L 549.295728 316.692195 
L 552.351588 315.370289 
L 555.407448 312.469205 
L 558.463308 311.613466 
L 561.519168 311.401122 
L 567.630887 309.459683 
L 570.686747 308.127205 
L 573.742607 307.594984 
L 576.798467 307.594984 
L 579.854326 306.527268 
L 582.910186 304.826019 
L 585.966046 301.97372 
L 589.021906 298.244289 
L 592.077766 296.736502 
L 595.133625 296.600669 
L 598.189485 294.431141 
L 601.245345 286.844181 
L 604.301205 277.795278 
L 607.357065 251.866317 
L 610.412924 240.777343 
L 613.468784 175.69392 
L 616.524644 150.071499 
L 619.580504 95.41638 
L 622.636364 94.025227 
L 622.636364 94.025227 
" clip-path="url(#pa83a9c98e0)" style="fill: none; stroke: #9467bd; stroke-width: 1.5; stroke-linecap: square"/>
   </g>
   <g id="line2d_32">
    <path d="M 115.363636 354.456262 
L 121.475356 353.066255 
L 127.587076 352.058296 
L 130.642935 351.924666 
L 133.698795 351.924666 
L 136.754655 351.262988 
L 139.810515 351.262988 
L 142.866375 351.063499 
L 145.922234 350.696224 
L 148.978094 350.500265 
L 155.089814 350.460872 
L 161.201533 349.984375 
L 164.257393 349.897235 
L 170.369113 349.236861 
L 176.480832 349.22453 
L 182.592552 348.382286 
L 185.648412 348.379494 
L 188.704272 348.154041 
L 194.815991 347.944811 
L 197.871851 347.696658 
L 203.983571 347.606601 
L 207.03943 346.935245 
L 222.318729 346.295398 
L 228.430449 346.239666 
L 234.542169 345.8731 
L 237.598028 345.668813 
L 243.709748 345.634413 
L 246.765608 345.416225 
L 252.877327 345.209132 
L 258.989047 344.657094 
L 271.212486 344.311626 
L 274.268346 343.505574 
L 280.380066 343.427255 
L 301.771084 343.042597 
L 307.882804 342.932919 
L 313.994524 342.879951 
L 317.050383 342.534285 
L 320.106243 342.534285 
L 335.385542 341.800109 
L 338.441402 341.287018 
L 344.553122 340.710028 
L 350.664841 340.642563 
L 356.776561 339.96928 
L 359.832421 339.930843 
L 362.88828 339.608518 
L 365.94414 339.503714 
L 369 338.987269 
L 387.335159 338.690776 
L 393.446878 337.593266 
L 399.558598 337.352101 
L 411.782037 337.123886 
L 417.893757 336.547944 
L 420.949617 336.12011 
L 424.005476 335.917357 
L 433.173056 335.757129 
L 436.228916 335.171531 
L 439.284775 335.149032 
L 442.340635 334.997304 
L 448.452355 334.863861 
L 457.619934 334.52997 
L 460.675794 333.857384 
L 463.731654 333.552843 
L 466.787514 333.488663 
L 469.843373 332.902115 
L 472.899233 332.482831 
L 475.955093 332.470277 
L 479.010953 332.165154 
L 485.122673 332.064701 
L 488.178532 331.341886 
L 491.234392 330.343345 
L 494.290252 330.048898 
L 497.346112 329.981689 
L 500.401972 329.684592 
L 503.457831 329.650871 
L 512.625411 328.812635 
L 515.681271 328.008675 
L 518.73713 327.447905 
L 521.79299 327.058582 
L 524.84885 326.412833 
L 527.90471 325.119602 
L 530.96057 324.82156 
L 534.016429 324.110165 
L 537.072289 322.058767 
L 540.128149 317.142468 
L 543.184009 315.681585 
L 546.239869 312.154068 
L 549.295728 311.401122 
L 552.351588 311.070413 
L 555.407448 308.24165 
L 558.463308 308.064241 
L 564.575027 308.05566 
L 567.630887 307.815223 
L 570.686747 306.106703 
L 573.742607 304.871481 
L 576.798467 304.871481 
L 579.854326 304.143415 
L 582.910186 302.810075 
L 585.966046 299.868501 
L 589.021906 295.713901 
L 592.077766 293.635511 
L 595.133625 292.329661 
L 598.189485 290.255274 
L 601.245345 284.492406 
L 604.301205 277.710898 
L 607.357065 244.764822 
L 610.412924 216.864934 
L 613.468784 174.820534 
L 616.524644 143.441603 
L 619.580504 82.202846 
L 622.636364 70.52317 
L 622.636364 70.52317 
" clip-path="url(#pa83a9c98e0)" style="fill: none; stroke: #8c564b; stroke-width: 1.5; stroke-linecap: square"/>
   </g>
   <g id="line2d_33">
    <path d="M 115.363636 353.154997 
L 118.419496 353.079574 
L 121.475356 351.111843 
L 127.587076 351.065536 
L 130.642935 350.687561 
L 139.810515 350.176882 
L 142.866375 349.885847 
L 145.922234 349.310052 
L 158.145674 348.8484 
L 161.201533 348.578155 
L 164.257393 348.106412 
L 170.369113 348.028875 
L 176.480832 347.741091 
L 179.536692 347.259216 
L 182.592552 347.229544 
L 185.648412 346.799067 
L 197.871851 346.743642 
L 203.983571 346.109732 
L 207.03943 345.405758 
L 210.09529 345.209721 
L 216.20701 345.115158 
L 222.318729 345.008079 
L 225.374589 344.465554 
L 228.430449 344.311626 
L 231.486309 343.592913 
L 234.542169 343.592913 
L 240.653888 343.345983 
L 243.709748 342.879951 
L 255.933187 342.643637 
L 258.989047 342.517343 
L 265.100767 342.413988 
L 277.324206 341.963866 
L 283.435926 341.853022 
L 289.547645 341.704207 
L 292.603505 341.694593 
L 295.659365 341.555447 
L 307.882804 341.455685 
L 310.938664 341.207834 
L 313.994524 341.156591 
L 320.106243 340.642563 
L 326.217963 340.32546 
L 329.273823 340.324789 
L 332.329682 339.827313 
L 335.385542 339.827313 
L 338.441402 339.576454 
L 341.497262 339.495613 
L 344.553122 338.990165 
L 350.664841 338.901269 
L 353.720701 338.821026 
L 356.776561 338.570291 
L 359.832421 338.570291 
L 362.88828 338.294991 
L 365.94414 337.347428 
L 375.11172 337.200342 
L 381.223439 336.929582 
L 384.279299 336.772841 
L 387.335159 336.741656 
L 390.391019 336.27116 
L 393.446878 336.084689 
L 402.614458 335.876902 
L 405.670318 335.592226 
L 408.726177 335.420336 
L 411.782037 335.365047 
L 420.949617 334.833784 
L 430.117196 334.443774 
L 436.228916 333.807268 
L 439.284775 333.683214 
L 442.340635 333.234913 
L 445.396495 333.140628 
L 448.452355 332.916866 
L 451.508215 331.88665 
L 454.564074 331.88665 
L 457.619934 331.697835 
L 460.675794 331.643492 
L 463.731654 331.341886 
L 466.787514 330.346954 
L 469.843373 330.262774 
L 472.899233 329.769335 
L 475.955093 329.469415 
L 485.122673 329.013108 
L 494.290252 327.362009 
L 497.346112 327.355015 
L 500.401972 327.055043 
L 506.513691 326.754845 
L 509.569551 326.478219 
L 512.625411 326.397481 
L 518.73713 325.100644 
L 521.79299 324.196186 
L 524.84885 322.127096 
L 530.96057 321.460783 
L 534.016429 320.089739 
L 537.072289 319.622743 
L 540.128149 314.905478 
L 543.184009 311.94348 
L 546.239869 310.828241 
L 549.295728 310.756228 
L 552.351588 307.84425 
L 555.407448 307.574656 
L 558.463308 306.785139 
L 561.519168 305.680609 
L 564.575027 304.457426 
L 567.630887 303.541388 
L 570.686747 302.813352 
L 573.742607 302.396148 
L 576.798467 299.722327 
L 582.910186 297.822208 
L 585.966046 297.117244 
L 589.021906 293.246618 
L 592.077766 290.552786 
L 595.133625 286.162761 
L 598.189485 286.079266 
L 601.245345 273.446368 
L 604.301205 272.561821 
L 607.357065 243.644233 
L 610.412924 210.008889 
L 613.468784 170.08877 
L 616.524644 140.970379 
L 619.580504 79.343347 
L 622.636364 66.96 
L 622.636364 66.96 
" clip-path="url(#pa83a9c98e0)" style="fill: none; stroke: #e377c2; stroke-width: 1.5; stroke-linecap: square"/>
   </g>
   <g id="patch_3">
    <path d="M 90 384.48 
L 90 51.84 
" style="fill: none; stroke: #000000; stroke-width: 0.8; stroke-linejoin: miter; stroke-linecap: square"/>
   </g>
   <g id="patch_4">
    <path d="M 648 384.48 
L 648 51.84 
" style="fill: none; stroke: #000000; stroke-width: 0.8; stroke-linejoin: miter; stroke-linecap: square"/>
   </g>
   <g id="patch_5">
    <path d="M 90 384.48 
L 648 384.48 
" style="fill: none; stroke: #000000; stroke-width: 0.8; stroke-linejoin: miter; stroke-linecap: square"/>
   </g>
   <g id="patch_6">
    <path d="M 90 51.84 
L 648 51.84 
" style="fill: none; stroke: #000000; stroke-width: 0.8; stroke-linejoin: miter; stroke-linecap: square"/>
   </g>
   <g id="text_16">
    <!-- k-Distance Graph -->
    <g transform="translate(320.8375 45.84) scale(0.1 -0.1)">
     <defs>
      <path id="DejaVuSansMono-Bold-6b" d="M 544 4863 
L 1459 4863 
L 1459 2309 
L 2559 3500 
L 3669 3500 
L 2344 2194 
L 3744 0 
L 2731 0 
L 1772 1638 
L 1459 1338 
L 1459 0 
L 544 0 
L 544 4863 
z
" transform="scale(0.015625)"/>
      <path id="DejaVuSansMono-Bold-2d" d="M 941 2297 
L 2913 2297 
L 2913 1388 
L 941 1388 
L 941 2297 
z
" transform="scale(0.015625)"/>
      <path id="DejaVuSansMono-Bold-44" d="M 1350 3834 
L 1350 831 
L 1600 831 
Q 2144 831 2375 1173 
Q 2606 1516 2606 2338 
Q 2606 3153 2375 3493 
Q 2144 3834 1600 3834 
L 1350 3834 
z
M 428 4666 
L 1416 4666 
Q 2559 4666 3062 4120 
Q 3566 3575 3566 2338 
Q 3566 1097 3062 548 
Q 2559 0 1416 0 
L 428 0 
L 428 4666 
z
" transform="scale(0.015625)"/>
      <path id="DejaVuSansMono-Bold-69" d="M 691 3500 
L 2503 3500 
L 2503 703 
L 3641 703 
L 3641 0 
L 447 0 
L 447 703 
L 1588 703 
L 1588 2797 
L 691 2797 
L 691 3500 
z
M 1588 5203 
L 2503 5203 
L 2503 4134 
L 1588 4134 
L 1588 5203 
z
" transform="scale(0.015625)"/>
      <path id="DejaVuSansMono-Bold-73" d="M 3097 3391 
L 3097 2591 
Q 2844 2753 2570 2836 
Q 2297 2919 2022 2919 
Q 1716 2919 1559 2830 
Q 1403 2741 1403 2566 
Q 1403 2316 2072 2159 
L 2106 2150 
L 2369 2088 
Q 2869 1969 3101 1705 
Q 3334 1441 3334 991 
Q 3334 450 2979 179 
Q 2625 -91 1913 -91 
Q 1597 -91 1265 -36 
Q 934 19 594 128 
L 594 928 
Q 897 756 1211 665 
Q 1525 575 1819 575 
Q 2141 575 2306 669 
Q 2472 763 2472 941 
Q 2472 1116 2355 1209 
Q 2238 1303 1797 1409 
L 1544 1466 
Q 1019 1584 778 1837 
Q 538 2091 538 2516 
Q 538 3022 903 3303 
Q 1269 3584 1931 3584 
Q 2228 3584 2523 3536 
Q 2819 3488 3097 3391 
z
" transform="scale(0.015625)"/>
      <path id="DejaVuSansMono-Bold-74" d="M 2156 4494 
L 2156 3500 
L 3353 3500 
L 3353 2797 
L 2156 2797 
L 2156 1141 
Q 2156 906 2270 804 
Q 2384 703 2650 703 
L 3353 703 
L 3353 0 
L 2584 0 
Q 1797 0 1519 251 
Q 1241 503 1241 1184 
L 1241 2797 
L 347 2797 
L 347 3500 
L 1241 3500 
L 1241 4494 
L 2156 4494 
z
" transform="scale(0.015625)"/>
      <path id="DejaVuSansMono-Bold-61" d="M 2188 1644 
Q 1675 1644 1472 1512 
Q 1269 1381 1269 1063 
Q 1269 825 1409 684 
Q 1550 544 1791 544 
Q 2153 544 2353 817 
Q 2553 1091 2553 1581 
L 2553 1644 
L 2188 1644 
z
M 3463 1997 
L 3463 0 
L 2553 0 
L 2553 391 
Q 2388 159 2128 34 
Q 1869 -91 1556 -91 
Q 959 -91 626 225 
Q 294 541 294 1106 
Q 294 1719 691 2011 
Q 1088 2303 1919 2303 
L 2553 2303 
L 2553 2456 
Q 2553 2678 2392 2792 
Q 2231 2906 1919 2906 
Q 1591 2906 1283 2823 
Q 975 2741 641 2559 
L 641 3341 
Q 944 3466 1256 3525 
Q 1569 3584 1919 3584 
Q 2772 3584 3117 3237 
Q 3463 2891 3463 1997 
z
" transform="scale(0.015625)"/>
      <path id="DejaVuSansMono-Bold-6e" d="M 3347 2272 
L 3347 0 
L 2438 0 
L 2438 2131 
Q 2438 2513 2330 2677 
Q 2222 2841 1978 2841 
Q 1731 2841 1589 2619 
Q 1447 2397 1447 2003 
L 1447 0 
L 538 0 
L 538 3500 
L 1447 3500 
L 1447 2975 
Q 1544 3266 1778 3425 
Q 2013 3584 2344 3584 
Q 2841 3584 3094 3254 
Q 3347 2925 3347 2272 
z
" transform="scale(0.015625)"/>
      <path id="DejaVuSansMono-Bold-63" d="M 3316 178 
Q 3084 44 2818 -23 
Q 2553 -91 2247 -91 
Q 1438 -91 981 396 
Q 525 884 525 1747 
Q 525 2613 984 3102 
Q 1444 3591 2253 3591 
Q 2534 3591 2795 3525 
Q 3056 3459 3316 3322 
L 3316 2484 
Q 3116 2656 2877 2748 
Q 2638 2841 2381 2841 
Q 1934 2841 1693 2556 
Q 1453 2272 1453 1747 
Q 1453 1222 1693 940 
Q 1934 659 2381 659 
Q 2647 659 2878 748 
Q 3109 838 3316 1019 
L 3316 178 
z
" transform="scale(0.015625)"/>
      <path id="DejaVuSansMono-Bold-65" d="M 3444 172 
Q 3125 41 2794 -25 
Q 2463 -91 2094 -91 
Q 1216 -91 752 379 
Q 288 850 288 1734 
Q 288 2591 734 3087 
Q 1181 3584 1953 3584 
Q 2731 3584 3161 3123 
Q 3591 2663 3591 1825 
L 3591 1453 
L 1219 1453 
Q 1222 1041 1462 837 
Q 1703 634 2181 634 
Q 2497 634 2803 725 
Q 3109 816 3444 1013 
L 3444 172 
z
M 2669 2141 
Q 2663 2503 2483 2689 
Q 2303 2875 1953 2875 
Q 1638 2875 1450 2683 
Q 1263 2491 1228 2138 
L 2669 2141 
z
" transform="scale(0.015625)"/>
      <path id="DejaVuSansMono-Bold-20" transform="scale(0.015625)"/>
      <path id="DejaVuSansMono-Bold-47" d="M 2725 844 
L 2725 1734 
L 2094 1734 
L 2094 2509 
L 3531 2509 
L 3531 372 
Q 3266 144 2945 26 
Q 2625 -91 2259 -91 
Q 1353 -91 859 539 
Q 366 1169 366 2328 
Q 366 3506 864 4128 
Q 1363 4750 2303 4750 
Q 2584 4750 2856 4670 
Q 3128 4591 3366 4441 
L 3366 3419 
Q 3172 3669 2920 3795 
Q 2669 3922 2369 3922 
Q 1844 3922 1584 3526 
Q 1325 3131 1325 2328 
Q 1325 1550 1575 1144 
Q 1825 738 2303 738 
Q 2447 738 2553 764 
Q 2659 791 2725 844 
z
" transform="scale(0.015625)"/>
      <path id="DejaVuSansMono-Bold-72" d="M 3597 2534 
Q 3447 2672 3245 2740 
Q 3044 2809 2803 2809 
Q 2513 2809 2295 2707 
Q 2078 2606 1959 2413 
Q 1884 2294 1854 2125 
Q 1825 1956 1825 1613 
L 1825 0 
L 909 0 
L 909 3500 
L 1825 3500 
L 1825 2956 
Q 1959 3256 2237 3420 
Q 2516 3584 2888 3584 
Q 3075 3584 3254 3539 
Q 3434 3494 3597 3406 
L 3597 2534 
z
" transform="scale(0.015625)"/>
      <path id="DejaVuSansMono-Bold-70" d="M 1381 494 
L 1381 -1331 
L 469 -1331 
L 469 3500 
L 1381 3500 
L 1381 2975 
Q 1525 3278 1759 3431 
Q 1994 3584 2309 3584 
Q 2909 3584 3240 3103 
Q 3572 2622 3572 1747 
Q 3572 859 3236 384 
Q 2900 -91 2278 -91 
Q 1997 -91 1773 54 
Q 1550 200 1381 494 
z
M 2656 1753 
Q 2656 2259 2487 2546 
Q 2319 2834 2022 2834 
Q 1725 2834 1553 2546 
Q 1381 2259 1381 1753 
Q 1381 1247 1553 959 
Q 1725 672 2022 672 
Q 2319 672 2487 959 
Q 2656 1247 2656 1753 
z
" transform="scale(0.015625)"/>
      <path id="DejaVuSansMono-Bold-68" d="M 3347 2272 
L 3347 0 
L 2438 0 
L 2438 2131 
Q 2438 2509 2330 2671 
Q 2222 2834 1978 2834 
Q 1728 2834 1587 2614 
Q 1447 2394 1447 2003 
L 1447 0 
L 538 0 
L 538 4863 
L 1447 4863 
L 1447 2975 
Q 1544 3266 1778 3425 
Q 2013 3584 2344 3584 
Q 2841 3584 3094 3254 
Q 3347 2925 3347 2272 
z
" transform="scale(0.015625)"/>
     </defs>
     <use xlink:href="#DejaVuSansMono-Bold-6b"/>
     <use xlink:href="#DejaVuSansMono-Bold-2d" transform="translate(60.205078 0)"/>
     <use xlink:href="#DejaVuSansMono-Bold-44" transform="translate(120.410156 0)"/>
     <use xlink:href="#DejaVuSansMono-Bold-69" transform="translate(180.615234 0)"/>
     <use xlink:href="#DejaVuSansMono-Bold-73" transform="translate(240.820312 0)"/>
     <use xlink:href="#DejaVuSansMono-Bold-74" transform="translate(301.025391 0)"/>
     <use xlink:href="#DejaVuSansMono-Bold-61" transform="translate(361.230469 0)"/>
     <use xlink:href="#DejaVuSansMono-Bold-6e" transform="translate(421.435547 0)"/>
     <use xlink:href="#DejaVuSansMono-Bold-63" transform="translate(481.640625 0)"/>
     <use xlink:href="#DejaVuSansMono-Bold-65" transform="translate(541.845703 0)"/>
     <use xlink:href="#DejaVuSansMono-Bold-20" transform="translate(602.050781 0)"/>
     <use xlink:href="#DejaVuSansMono-Bold-47" transform="translate(662.255859 0)"/>
     <use xlink:href="#DejaVuSansMono-Bold-72" transform="translate(722.460938 0)"/>
     <use xlink:href="#DejaVuSansMono-Bold-61" transform="translate(782.666016 0)"/>
     <use xlink:href="#DejaVuSansMono-Bold-70" transform="translate(842.871094 0)"/>
     <use xlink:href="#DejaVuSansMono-Bold-68" transform="translate(903.076172 0)"/>
    </g>
   </g>
   <g id="legend_1">
    <g id="patch_7">
     <path d="M 97 162.586875 
L 283.4875 162.586875 
Q 285.4875 162.586875 285.4875 160.586875 
L 285.4875 58.84 
Q 285.4875 56.84 283.4875 56.84 
L 97 56.84 
Q 95 56.84 95 58.84 
L 95 160.586875 
Q 95 162.586875 97 162.586875 
z
" style="fill: #ffffff; opacity: 0.8; stroke: #cccccc; stroke-linejoin: miter"/>
    </g>
    <g id="line2d_34">
     <path d="M 99 64.938437 
L 109 64.938437 
L 119 64.938437 
" style="fill: none; stroke: #1f77b4; stroke-width: 1.5; stroke-linecap: square"/>
    </g>
    <g id="text_17">
     <!-- 1th Nearest Neighbor Distance -->
     <g transform="translate(127 68.438437) scale(0.1 -0.1)">
      <use xlink:href="#DejaVuSans-31"/>
      <use xlink:href="#DejaVuSans-74" transform="translate(63.623047 0)"/>
      <use xlink:href="#DejaVuSans-68" transform="translate(102.832031 0)"/>
      <use xlink:href="#DejaVuSans-20" transform="translate(166.210938 0)"/>
      <use xlink:href="#DejaVuSans-4e" transform="translate(197.998047 0)"/>
      <use xlink:href="#DejaVuSans-65" transform="translate(272.802734 0)"/>
      <use xlink:href="#DejaVuSans-61" transform="translate(334.326172 0)"/>
      <use xlink:href="#DejaVuSans-72" transform="translate(395.605469 0)"/>
      <use xlink:href="#DejaVuSans-65" transform="translate(434.46875 0)"/>
      <use xlink:href="#DejaVuSans-73" transform="translate(495.992188 0)"/>
      <use xlink:href="#DejaVuSans-74" transform="translate(548.091797 0)"/>
      <use xlink:href="#DejaVuSans-20" transform="translate(587.300781 0)"/>
      <use xlink:href="#DejaVuSans-4e" transform="translate(619.087891 0)"/>
      <use xlink:href="#DejaVuSans-65" transform="translate(693.892578 0)"/>
      <use xlink:href="#DejaVuSans-69" transform="translate(755.416016 0)"/>
      <use xlink:href="#DejaVuSans-67" transform="translate(783.199219 0)"/>
      <use xlink:href="#DejaVuSans-68" transform="translate(846.675781 0)"/>
      <use xlink:href="#DejaVuSans-62" transform="translate(910.054688 0)"/>
      <use xlink:href="#DejaVuSans-6f" transform="translate(973.53125 0)"/>
      <use xlink:href="#DejaVuSans-72" transform="translate(1034.712891 0)"/>
      <use xlink:href="#DejaVuSans-20" transform="translate(1075.826172 0)"/>
      <use xlink:href="#DejaVuSans-44" transform="translate(1107.613281 0)"/>
      <use xlink:href="#DejaVuSans-69" transform="translate(1184.615234 0)"/>
      <use xlink:href="#DejaVuSans-73" transform="translate(1212.398438 0)"/>
      <use xlink:href="#DejaVuSans-74" transform="translate(1264.498047 0)"/>
      <use xlink:href="#DejaVuSans-61" transform="translate(1303.707031 0)"/>
      <use xlink:href="#DejaVuSans-6e" transform="translate(1364.986328 0)"/>
      <use xlink:href="#DejaVuSans-63" transform="translate(1428.365234 0)"/>
      <use xlink:href="#DejaVuSans-65" transform="translate(1483.345703 0)"/>
     </g>
    </g>
    <g id="line2d_35">
     <path d="M 99 79.616562 
L 109 79.616562 
L 119 79.616562 
" style="fill: none; stroke: #ff7f0e; stroke-width: 1.5; stroke-linecap: square"/>
    </g>
    <g id="text_18">
     <!-- 2th Nearest Neighbor Distance -->
     <g transform="translate(127 83.116562) scale(0.1 -0.1)">
      <use xlink:href="#DejaVuSans-32"/>
      <use xlink:href="#DejaVuSans-74" transform="translate(63.623047 0)"/>
      <use xlink:href="#DejaVuSans-68" transform="translate(102.832031 0)"/>
      <use xlink:href="#DejaVuSans-20" transform="translate(166.210938 0)"/>
      <use xlink:href="#DejaVuSans-4e" transform="translate(197.998047 0)"/>
      <use xlink:href="#DejaVuSans-65" transform="translate(272.802734 0)"/>
      <use xlink:href="#DejaVuSans-61" transform="translate(334.326172 0)"/>
      <use xlink:href="#DejaVuSans-72" transform="translate(395.605469 0)"/>
      <use xlink:href="#DejaVuSans-65" transform="translate(434.46875 0)"/>
      <use xlink:href="#DejaVuSans-73" transform="translate(495.992188 0)"/>
      <use xlink:href="#DejaVuSans-74" transform="translate(548.091797 0)"/>
      <use xlink:href="#DejaVuSans-20" transform="translate(587.300781 0)"/>
      <use xlink:href="#DejaVuSans-4e" transform="translate(619.087891 0)"/>
      <use xlink:href="#DejaVuSans-65" transform="translate(693.892578 0)"/>
      <use xlink:href="#DejaVuSans-69" transform="translate(755.416016 0)"/>
      <use xlink:href="#DejaVuSans-67" transform="translate(783.199219 0)"/>
      <use xlink:href="#DejaVuSans-68" transform="translate(846.675781 0)"/>
      <use xlink:href="#DejaVuSans-62" transform="translate(910.054688 0)"/>
      <use xlink:href="#DejaVuSans-6f" transform="translate(973.53125 0)"/>
      <use xlink:href="#DejaVuSans-72" transform="translate(1034.712891 0)"/>
      <use xlink:href="#DejaVuSans-20" transform="translate(1075.826172 0)"/>
      <use xlink:href="#DejaVuSans-44" transform="translate(1107.613281 0)"/>
      <use xlink:href="#DejaVuSans-69" transform="translate(1184.615234 0)"/>
      <use xlink:href="#DejaVuSans-73" transform="translate(1212.398438 0)"/>
      <use xlink:href="#DejaVuSans-74" transform="translate(1264.498047 0)"/>
      <use xlink:href="#DejaVuSans-61" transform="translate(1303.707031 0)"/>
      <use xlink:href="#DejaVuSans-6e" transform="translate(1364.986328 0)"/>
      <use xlink:href="#DejaVuSans-63" transform="translate(1428.365234 0)"/>
      <use xlink:href="#DejaVuSans-65" transform="translate(1483.345703 0)"/>
     </g>
    </g>
    <g id="line2d_36">
     <path d="M 99 94.294687 
L 109 94.294687 
L 119 94.294687 
" style="fill: none; stroke: #2ca02c; stroke-width: 1.5; stroke-linecap: square"/>
    </g>
    <g id="text_19">
     <!-- 3th Nearest Neighbor Distance -->
     <g transform="translate(127 97.794687) scale(0.1 -0.1)">
      <use xlink:href="#DejaVuSans-33"/>
      <use xlink:href="#DejaVuSans-74" transform="translate(63.623047 0)"/>
      <use xlink:href="#DejaVuSans-68" transform="translate(102.832031 0)"/>
      <use xlink:href="#DejaVuSans-20" transform="translate(166.210938 0)"/>
      <use xlink:href="#DejaVuSans-4e" transform="translate(197.998047 0)"/>
      <use xlink:href="#DejaVuSans-65" transform="translate(272.802734 0)"/>
      <use xlink:href="#DejaVuSans-61" transform="translate(334.326172 0)"/>
      <use xlink:href="#DejaVuSans-72" transform="translate(395.605469 0)"/>
      <use xlink:href="#DejaVuSans-65" transform="translate(434.46875 0)"/>
      <use xlink:href="#DejaVuSans-73" transform="translate(495.992188 0)"/>
      <use xlink:href="#DejaVuSans-74" transform="translate(548.091797 0)"/>
      <use xlink:href="#DejaVuSans-20" transform="translate(587.300781 0)"/>
      <use xlink:href="#DejaVuSans-4e" transform="translate(619.087891 0)"/>
      <use xlink:href="#DejaVuSans-65" transform="translate(693.892578 0)"/>
      <use xlink:href="#DejaVuSans-69" transform="translate(755.416016 0)"/>
      <use xlink:href="#DejaVuSans-67" transform="translate(783.199219 0)"/>
      <use xlink:href="#DejaVuSans-68" transform="translate(846.675781 0)"/>
      <use xlink:href="#DejaVuSans-62" transform="translate(910.054688 0)"/>
      <use xlink:href="#DejaVuSans-6f" transform="translate(973.53125 0)"/>
      <use xlink:href="#DejaVuSans-72" transform="translate(1034.712891 0)"/>
      <use xlink:href="#DejaVuSans-20" transform="translate(1075.826172 0)"/>
      <use xlink:href="#DejaVuSans-44" transform="translate(1107.613281 0)"/>
      <use xlink:href="#DejaVuSans-69" transform="translate(1184.615234 0)"/>
      <use xlink:href="#DejaVuSans-73" transform="translate(1212.398438 0)"/>
      <use xlink:href="#DejaVuSans-74" transform="translate(1264.498047 0)"/>
      <use xlink:href="#DejaVuSans-61" transform="translate(1303.707031 0)"/>
      <use xlink:href="#DejaVuSans-6e" transform="translate(1364.986328 0)"/>
      <use xlink:href="#DejaVuSans-63" transform="translate(1428.365234 0)"/>
      <use xlink:href="#DejaVuSans-65" transform="translate(1483.345703 0)"/>
     </g>
    </g>
    <g id="line2d_37">
     <path d="M 99 108.972812 
L 109 108.972812 
L 119 108.972812 
" style="fill: none; stroke: #d62728; stroke-width: 1.5; stroke-linecap: square"/>
    </g>
    <g id="text_20">
     <!-- 4th Nearest Neighbor Distance -->
     <g transform="translate(127 112.472812) scale(0.1 -0.1)">
      <use xlink:href="#DejaVuSans-34"/>
      <use xlink:href="#DejaVuSans-74" transform="translate(63.623047 0)"/>
      <use xlink:href="#DejaVuSans-68" transform="translate(102.832031 0)"/>
      <use xlink:href="#DejaVuSans-20" transform="translate(166.210938 0)"/>
      <use xlink:href="#DejaVuSans-4e" transform="translate(197.998047 0)"/>
      <use xlink:href="#DejaVuSans-65" transform="translate(272.802734 0)"/>
      <use xlink:href="#DejaVuSans-61" transform="translate(334.326172 0)"/>
      <use xlink:href="#DejaVuSans-72" transform="translate(395.605469 0)"/>
      <use xlink:href="#DejaVuSans-65" transform="translate(434.46875 0)"/>
      <use xlink:href="#DejaVuSans-73" transform="translate(495.992188 0)"/>
      <use xlink:href="#DejaVuSans-74" transform="translate(548.091797 0)"/>
      <use xlink:href="#DejaVuSans-20" transform="translate(587.300781 0)"/>
      <use xlink:href="#DejaVuSans-4e" transform="translate(619.087891 0)"/>
      <use xlink:href="#DejaVuSans-65" transform="translate(693.892578 0)"/>
      <use xlink:href="#DejaVuSans-69" transform="translate(755.416016 0)"/>
      <use xlink:href="#DejaVuSans-67" transform="translate(783.199219 0)"/>
      <use xlink:href="#DejaVuSans-68" transform="translate(846.675781 0)"/>
      <use xlink:href="#DejaVuSans-62" transform="translate(910.054688 0)"/>
      <use xlink:href="#DejaVuSans-6f" transform="translate(973.53125 0)"/>
      <use xlink:href="#DejaVuSans-72" transform="translate(1034.712891 0)"/>
      <use xlink:href="#DejaVuSans-20" transform="translate(1075.826172 0)"/>
      <use xlink:href="#DejaVuSans-44" transform="translate(1107.613281 0)"/>
      <use xlink:href="#DejaVuSans-69" transform="translate(1184.615234 0)"/>
      <use xlink:href="#DejaVuSans-73" transform="translate(1212.398438 0)"/>
      <use xlink:href="#DejaVuSans-74" transform="translate(1264.498047 0)"/>
      <use xlink:href="#DejaVuSans-61" transform="translate(1303.707031 0)"/>
      <use xlink:href="#DejaVuSans-6e" transform="translate(1364.986328 0)"/>
      <use xlink:href="#DejaVuSans-63" transform="translate(1428.365234 0)"/>
      <use xlink:href="#DejaVuSans-65" transform="translate(1483.345703 0)"/>
     </g>
    </g>
    <g id="line2d_38">
     <path d="M 99 123.650937 
L 109 123.650937 
L 119 123.650937 
" style="fill: none; stroke: #9467bd; stroke-width: 1.5; stroke-linecap: square"/>
    </g>
    <g id="text_21">
     <!-- 5th Nearest Neighbor Distance -->
     <g transform="translate(127 127.150937) scale(0.1 -0.1)">
      <use xlink:href="#DejaVuSans-35"/>
      <use xlink:href="#DejaVuSans-74" transform="translate(63.623047 0)"/>
      <use xlink:href="#DejaVuSans-68" transform="translate(102.832031 0)"/>
      <use xlink:href="#DejaVuSans-20" transform="translate(166.210938 0)"/>
      <use xlink:href="#DejaVuSans-4e" transform="translate(197.998047 0)"/>
      <use xlink:href="#DejaVuSans-65" transform="translate(272.802734 0)"/>
      <use xlink:href="#DejaVuSans-61" transform="translate(334.326172 0)"/>
      <use xlink:href="#DejaVuSans-72" transform="translate(395.605469 0)"/>
      <use xlink:href="#DejaVuSans-65" transform="translate(434.46875 0)"/>
      <use xlink:href="#DejaVuSans-73" transform="translate(495.992188 0)"/>
      <use xlink:href="#DejaVuSans-74" transform="translate(548.091797 0)"/>
      <use xlink:href="#DejaVuSans-20" transform="translate(587.300781 0)"/>
      <use xlink:href="#DejaVuSans-4e" transform="translate(619.087891 0)"/>
      <use xlink:href="#DejaVuSans-65" transform="translate(693.892578 0)"/>
      <use xlink:href="#DejaVuSans-69" transform="translate(755.416016 0)"/>
      <use xlink:href="#DejaVuSans-67" transform="translate(783.199219 0)"/>
      <use xlink:href="#DejaVuSans-68" transform="translate(846.675781 0)"/>
      <use xlink:href="#DejaVuSans-62" transform="translate(910.054688 0)"/>
      <use xlink:href="#DejaVuSans-6f" transform="translate(973.53125 0)"/>
      <use xlink:href="#DejaVuSans-72" transform="translate(1034.712891 0)"/>
      <use xlink:href="#DejaVuSans-20" transform="translate(1075.826172 0)"/>
      <use xlink:href="#DejaVuSans-44" transform="translate(1107.613281 0)"/>
      <use xlink:href="#DejaVuSans-69" transform="translate(1184.615234 0)"/>
      <use xlink:href="#DejaVuSans-73" transform="translate(1212.398438 0)"/>
      <use xlink:href="#DejaVuSans-74" transform="translate(1264.498047 0)"/>
      <use xlink:href="#DejaVuSans-61" transform="translate(1303.707031 0)"/>
      <use xlink:href="#DejaVuSans-6e" transform="translate(1364.986328 0)"/>
      <use xlink:href="#DejaVuSans-63" transform="translate(1428.365234 0)"/>
      <use xlink:href="#DejaVuSans-65" transform="translate(1483.345703 0)"/>
     </g>
    </g>
    <g id="line2d_39">
     <path d="M 99 138.329062 
L 109 138.329062 
L 119 138.329062 
" style="fill: none; stroke: #8c564b; stroke-width: 1.5; stroke-linecap: square"/>
    </g>
    <g id="text_22">
     <!-- 6th Nearest Neighbor Distance -->
     <g transform="translate(127 141.829062) scale(0.1 -0.1)">
      <defs>
       <path id="DejaVuSans-36" d="M 2113 2584 
Q 1688 2584 1439 2293 
Q 1191 2003 1191 1497 
Q 1191 994 1439 701 
Q 1688 409 2113 409 
Q 2538 409 2786 701 
Q 3034 994 3034 1497 
Q 3034 2003 2786 2293 
Q 2538 2584 2113 2584 
z
M 3366 4563 
L 3366 3988 
Q 3128 4100 2886 4159 
Q 2644 4219 2406 4219 
Q 1781 4219 1451 3797 
Q 1122 3375 1075 2522 
Q 1259 2794 1537 2939 
Q 1816 3084 2150 3084 
Q 2853 3084 3261 2657 
Q 3669 2231 3669 1497 
Q 3669 778 3244 343 
Q 2819 -91 2113 -91 
Q 1303 -91 875 529 
Q 447 1150 447 2328 
Q 447 3434 972 4092 
Q 1497 4750 2381 4750 
Q 2619 4750 2861 4703 
Q 3103 4656 3366 4563 
z
" transform="scale(0.015625)"/>
      </defs>
      <use xlink:href="#DejaVuSans-36"/>
      <use xlink:href="#DejaVuSans-74" transform="translate(63.623047 0)"/>
      <use xlink:href="#DejaVuSans-68" transform="translate(102.832031 0)"/>
      <use xlink:href="#DejaVuSans-20" transform="translate(166.210938 0)"/>
      <use xlink:href="#DejaVuSans-4e" transform="translate(197.998047 0)"/>
      <use xlink:href="#DejaVuSans-65" transform="translate(272.802734 0)"/>
      <use xlink:href="#DejaVuSans-61" transform="translate(334.326172 0)"/>
      <use xlink:href="#DejaVuSans-72" transform="translate(395.605469 0)"/>
      <use xlink:href="#DejaVuSans-65" transform="translate(434.46875 0)"/>
      <use xlink:href="#DejaVuSans-73" transform="translate(495.992188 0)"/>
      <use xlink:href="#DejaVuSans-74" transform="translate(548.091797 0)"/>
      <use xlink:href="#DejaVuSans-20" transform="translate(587.300781 0)"/>
      <use xlink:href="#DejaVuSans-4e" transform="translate(619.087891 0)"/>
      <use xlink:href="#DejaVuSans-65" transform="translate(693.892578 0)"/>
      <use xlink:href="#DejaVuSans-69" transform="translate(755.416016 0)"/>
      <use xlink:href="#DejaVuSans-67" transform="translate(783.199219 0)"/>
      <use xlink:href="#DejaVuSans-68" transform="translate(846.675781 0)"/>
      <use xlink:href="#DejaVuSans-62" transform="translate(910.054688 0)"/>
      <use xlink:href="#DejaVuSans-6f" transform="translate(973.53125 0)"/>
      <use xlink:href="#DejaVuSans-72" transform="translate(1034.712891 0)"/>
      <use xlink:href="#DejaVuSans-20" transform="translate(1075.826172 0)"/>
      <use xlink:href="#DejaVuSans-44" transform="translate(1107.613281 0)"/>
      <use xlink:href="#DejaVuSans-69" transform="translate(1184.615234 0)"/>
      <use xlink:href="#DejaVuSans-73" transform="translate(1212.398438 0)"/>
      <use xlink:href="#DejaVuSans-74" transform="translate(1264.498047 0)"/>
      <use xlink:href="#DejaVuSans-61" transform="translate(1303.707031 0)"/>
      <use xlink:href="#DejaVuSans-6e" transform="translate(1364.986328 0)"/>
      <use xlink:href="#DejaVuSans-63" transform="translate(1428.365234 0)"/>
      <use xlink:href="#DejaVuSans-65" transform="translate(1483.345703 0)"/>
     </g>
    </g>
    <g id="line2d_40">
     <path d="M 99 153.007187 
L 109 153.007187 
L 119 153.007187 
" style="fill: none; stroke: #e377c2; stroke-width: 1.5; stroke-linecap: square"/>
    </g>
    <g id="text_23">
     <!-- 7th Nearest Neighbor Distance -->
     <g transform="translate(127 156.507187) scale(0.1 -0.1)">
      <use xlink:href="#DejaVuSans-37"/>
      <use xlink:href="#DejaVuSans-74" transform="translate(63.623047 0)"/>
      <use xlink:href="#DejaVuSans-68" transform="translate(102.832031 0)"/>
      <use xlink:href="#DejaVuSans-20" transform="translate(166.210938 0)"/>
      <use xlink:href="#DejaVuSans-4e" transform="translate(197.998047 0)"/>
      <use xlink:href="#DejaVuSans-65" transform="translate(272.802734 0)"/>
      <use xlink:href="#DejaVuSans-61" transform="translate(334.326172 0)"/>
      <use xlink:href="#DejaVuSans-72" transform="translate(395.605469 0)"/>
      <use xlink:href="#DejaVuSans-65" transform="translate(434.46875 0)"/>
      <use xlink:href="#DejaVuSans-73" transform="translate(495.992188 0)"/>
      <use xlink:href="#DejaVuSans-74" transform="translate(548.091797 0)"/>
      <use xlink:href="#DejaVuSans-20" transform="translate(587.300781 0)"/>
      <use xlink:href="#DejaVuSans-4e" transform="translate(619.087891 0)"/>
      <use xlink:href="#DejaVuSans-65" transform="translate(693.892578 0)"/>
      <use xlink:href="#DejaVuSans-69" transform="translate(755.416016 0)"/>
      <use xlink:href="#DejaVuSans-67" transform="translate(783.199219 0)"/>
      <use xlink:href="#DejaVuSans-68" transform="translate(846.675781 0)"/>
      <use xlink:href="#DejaVuSans-62" transform="translate(910.054688 0)"/>
      <use xlink:href="#DejaVuSans-6f" transform="translate(973.53125 0)"/>
      <use xlink:href="#DejaVuSans-72" transform="translate(1034.712891 0)"/>
      <use xlink:href="#DejaVuSans-20" transform="translate(1075.826172 0)"/>
      <use xlink:href="#DejaVuSans-44" transform="translate(1107.613281 0)"/>
      <use xlink:href="#DejaVuSans-69" transform="translate(1184.615234 0)"/>
      <use xlink:href="#DejaVuSans-73" transform="translate(1212.398438 0)"/>
      <use xlink:href="#DejaVuSans-74" transform="translate(1264.498047 0)"/>
      <use xlink:href="#DejaVuSans-61" transform="translate(1303.707031 0)"/>
      <use xlink:href="#DejaVuSans-6e" transform="translate(1364.986328 0)"/>
      <use xlink:href="#DejaVuSans-63" transform="translate(1428.365234 0)"/>
      <use xlink:href="#DejaVuSans-65" transform="translate(1483.345703 0)"/>
     </g>
    </g>
   </g>
  </g>
 </g>
 <defs>
  <clipPath id="pa83a9c98e0">
   <rect x="90" y="51.84" width="558" height="332.64"/>
  </clipPath>
 </defs>
</svg>
