<?xml version="1.0" encoding="utf-8" standalone="no"?>
<!DOCTYPE svg PUBLIC "-//W3C//DTD SVG 1.1//EN"
  "http://www.w3.org/Graphics/SVG/1.1/DTD/svg11.dtd">
<svg xmlns:xlink="http://www.w3.org/1999/xlink" width="720pt" height="432pt" viewBox="0 0 720 432" xmlns="http://www.w3.org/2000/svg" version="1.1">
 <metadata>
  <rdf:RDF xmlns:dc="http://purl.org/dc/elements/1.1/" xmlns:cc="http://creativecommons.org/ns#" xmlns:rdf="http://www.w3.org/1999/02/22-rdf-syntax-ns#">
   <cc:Work>
    <dc:type rdf:resource="http://purl.org/dc/dcmitype/StillImage"/>
    <dc:date>2025-12-06T12:18:42.839582</dc:date>
    <dc:format>image/svg+xml</dc:format>
    <dc:creator>
     <cc:Agent>
      <dc:title>Matplotlib v3.10.7, https://matplotlib.org/</dc:title>
     </cc:Agent>
    </dc:creator>
   </cc:Work>
  </rdf:RDF>
 </metadata>
 <defs>
  <style type="text/css">*{stroke-linejoin: round; stroke-linecap: butt}</style>
 </defs>
 <g id="figure_1">
  <g id="patch_1">
   <path d="M 0 432 
L 720 432 
L 720 0 
L 0 0 
z
" style="fill: #ffffff"/>
  </g>
  <g id="axes_1">
   <g id="patch_2">
    <path d="M 90 384.48 
L 648 384.48 
L 648 51.84 
L 90 51.84 
z
" style="fill: #ffffff"/>
   </g>
   <g id="matplotlib.axis_1">
    <g id="xtick_1">
     <g id="line2d_1">
      <path d="M 115.363636 384.48 
L 115.363636 51.84 
" clip-path="url(#p2fbb866726)" style="fill: none; stroke-dasharray: 2.96,1.28; stroke-dashoffset: 0; stroke: #b0b0b0; stroke-opacity: 0.7; stroke-width: 0.8"/>
     </g>
     <g id="line2d_2">
      <defs>
       <path id="m60e9624f48" d="M 0 0 
L 0 3.5 
" style="stroke: #000000; stroke-width: 0.8"/>
      </defs>
      <g>
       <use xlink:href="#m60e9624f48" x="115.363636" y="384.48" style="stroke: #000000; stroke-width: 0.8"/>
      </g>
     </g>
     <g id="text_1">
      <!-- 0 -->
      <g transform="translate(112.182386 399.078438) scale(0.1 -0.1)">
       <defs>
        <path id="DejaVuSans-30" d="M 2034 4250 
Q 1547 4250 1301 3770 
Q 1056 3291 1056 2328 
Q 1056 1369 1301 889 
Q 1547 409 2034 409 
Q 2525 409 2770 889 
Q 3016 1369 3016 2328 
Q 3016 3291 2770 3770 
Q 2525 4250 2034 4250 
z
M 2034 4750 
Q 2819 4750 3233 4129 
Q 3647 3509 3647 2328 
Q 3647 1150 3233 529 
Q 2819 -91 2034 -91 
Q 1250 -91 836 529 
Q 422 1150 422 2328 
Q 422 3509 836 4129 
Q 1250 4750 2034 4750 
z
" transform="scale(0.015625)"/>
       </defs>
       <use xlink:href="#DejaVuSans-30"/>
      </g>
     </g>
    </g>
    <g id="xtick_2">
     <g id="line2d_3">
      <path d="M 216.818182 384.48 
L 216.818182 51.84 
" clip-path="url(#p2fbb866726)" style="fill: none; stroke-dasharray: 2.96,1.28; stroke-dashoffset: 0; stroke: #b0b0b0; stroke-opacity: 0.7; stroke-width: 0.8"/>
     </g>
     <g id="line2d_4">
      <g>
       <use xlink:href="#m60e9624f48" x="216.818182" y="384.48" style="stroke: #000000; stroke-width: 0.8"/>
      </g>
     </g>
     <g id="text_2">
      <!-- 20000 -->
      <g transform="translate(200.911932 399.078438) scale(0.1 -0.1)">
       <defs>
        <path id="DejaVuSans-32" d="M 1228 531 
L 3431 531 
L 3431 0 
L 469 0 
L 469 531 
Q 828 903 1448 1529 
Q 2069 2156 2228 2338 
Q 2531 2678 2651 2914 
Q 2772 3150 2772 3378 
Q 2772 3750 2511 3984 
Q 2250 4219 1831 4219 
Q 1534 4219 1204 4116 
Q 875 4013 500 3803 
L 500 4441 
Q 881 4594 1212 4672 
Q 1544 4750 1819 4750 
Q 2544 4750 2975 4387 
Q 3406 4025 3406 3419 
Q 3406 3131 3298 2873 
Q 3191 2616 2906 2266 
Q 2828 2175 2409 1742 
Q 1991 1309 1228 531 
z
" transform="scale(0.015625)"/>
       </defs>
       <use xlink:href="#DejaVuSans-32"/>
       <use xlink:href="#DejaVuSans-30" transform="translate(63.623047 0)"/>
       <use xlink:href="#DejaVuSans-30" transform="translate(127.246094 0)"/>
       <use xlink:href="#DejaVuSans-30" transform="translate(190.869141 0)"/>
       <use xlink:href="#DejaVuSans-30" transform="translate(254.492188 0)"/>
      </g>
     </g>
    </g>
    <g id="xtick_3">
     <g id="line2d_5">
      <path d="M 318.272727 384.48 
L 318.272727 51.84 
" clip-path="url(#p2fbb866726)" style="fill: none; stroke-dasharray: 2.96,1.28; stroke-dashoffset: 0; stroke: #b0b0b0; stroke-opacity: 0.7; stroke-width: 0.8"/>
     </g>
     <g id="line2d_6">
      <g>
       <use xlink:href="#m60e9624f48" x="318.272727" y="384.48" style="stroke: #000000; stroke-width: 0.8"/>
      </g>
     </g>
     <g id="text_3">
      <!-- 40000 -->
      <g transform="translate(302.366477 399.078438) scale(0.1 -0.1)">
       <defs>
        <path id="DejaVuSans-34" d="M 2419 4116 
L 825 1625 
L 2419 1625 
L 2419 4116 
z
M 2253 4666 
L 3047 4666 
L 3047 1625 
L 3713 1625 
L 3713 1100 
L 3047 1100 
L 3047 0 
L 2419 0 
L 2419 1100 
L 313 1100 
L 313 1709 
L 2253 4666 
z
" transform="scale(0.015625)"/>
       </defs>
       <use xlink:href="#DejaVuSans-34"/>
       <use xlink:href="#DejaVuSans-30" transform="translate(63.623047 0)"/>
       <use xlink:href="#DejaVuSans-30" transform="translate(127.246094 0)"/>
       <use xlink:href="#DejaVuSans-30" transform="translate(190.869141 0)"/>
       <use xlink:href="#DejaVuSans-30" transform="translate(254.492188 0)"/>
      </g>
     </g>
    </g>
    <g id="xtick_4">
     <g id="line2d_7">
      <path d="M 419.727273 384.48 
L 419.727273 51.84 
" clip-path="url(#p2fbb866726)" style="fill: none; stroke-dasharray: 2.96,1.28; stroke-dashoffset: 0; stroke: #b0b0b0; stroke-opacity: 0.7; stroke-width: 0.8"/>
     </g>
     <g id="line2d_8">
      <g>
       <use xlink:href="#m60e9624f48" x="419.727273" y="384.48" style="stroke: #000000; stroke-width: 0.8"/>
      </g>
     </g>
     <g id="text_4">
      <!-- 60000 -->
      <g transform="translate(403.821023 399.078438) scale(0.1 -0.1)">
       <defs>
        <path id="DejaVuSans-36" d="M 2113 2584 
Q 1688 2584 1439 2293 
Q 1191 2003 1191 1497 
Q 1191 994 1439 701 
Q 1688 409 2113 409 
Q 2538 409 2786 701 
Q 3034 994 3034 1497 
Q 3034 2003 2786 2293 
Q 2538 2584 2113 2584 
z
M 3366 4563 
L 3366 3988 
Q 3128 4100 2886 4159 
Q 2644 4219 2406 4219 
Q 1781 4219 1451 3797 
Q 1122 3375 1075 2522 
Q 1259 2794 1537 2939 
Q 1816 3084 2150 3084 
Q 2853 3084 3261 2657 
Q 3669 2231 3669 1497 
Q 3669 778 3244 343 
Q 2819 -91 2113 -91 
Q 1303 -91 875 529 
Q 447 1150 447 2328 
Q 447 3434 972 4092 
Q 1497 4750 2381 4750 
Q 2619 4750 2861 4703 
Q 3103 4656 3366 4563 
z
" transform="scale(0.015625)"/>
       </defs>
       <use xlink:href="#DejaVuSans-36"/>
       <use xlink:href="#DejaVuSans-30" transform="translate(63.623047 0)"/>
       <use xlink:href="#DejaVuSans-30" transform="translate(127.246094 0)"/>
       <use xlink:href="#DejaVuSans-30" transform="translate(190.869141 0)"/>
       <use xlink:href="#DejaVuSans-30" transform="translate(254.492188 0)"/>
      </g>
     </g>
    </g>
    <g id="xtick_5">
     <g id="line2d_9">
      <path d="M 521.181818 384.48 
L 521.181818 51.84 
" clip-path="url(#p2fbb866726)" style="fill: none; stroke-dasharray: 2.96,1.28; stroke-dashoffset: 0; stroke: #b0b0b0; stroke-opacity: 0.7; stroke-width: 0.8"/>
     </g>
     <g id="line2d_10">
      <g>
       <use xlink:href="#m60e9624f48" x="521.181818" y="384.48" style="stroke: #000000; stroke-width: 0.8"/>
      </g>
     </g>
     <g id="text_5">
      <!-- 80000 -->
      <g transform="translate(505.275568 399.078438) scale(0.1 -0.1)">
       <defs>
        <path id="DejaVuSans-38" d="M 2034 2216 
Q 1584 2216 1326 1975 
Q 1069 1734 1069 1313 
Q 1069 891 1326 650 
Q 1584 409 2034 409 
Q 2484 409 2743 651 
Q 3003 894 3003 1313 
Q 3003 1734 2745 1975 
Q 2488 2216 2034 2216 
z
M 1403 2484 
Q 997 2584 770 2862 
Q 544 3141 544 3541 
Q 544 4100 942 4425 
Q 1341 4750 2034 4750 
Q 2731 4750 3128 4425 
Q 3525 4100 3525 3541 
Q 3525 3141 3298 2862 
Q 3072 2584 2669 2484 
Q 3125 2378 3379 2068 
Q 3634 1759 3634 1313 
Q 3634 634 3220 271 
Q 2806 -91 2034 -91 
Q 1263 -91 848 271 
Q 434 634 434 1313 
Q 434 1759 690 2068 
Q 947 2378 1403 2484 
z
M 1172 3481 
Q 1172 3119 1398 2916 
Q 1625 2713 2034 2713 
Q 2441 2713 2670 2916 
Q 2900 3119 2900 3481 
Q 2900 3844 2670 4047 
Q 2441 4250 2034 4250 
Q 1625 4250 1398 4047 
Q 1172 3844 1172 3481 
z
" transform="scale(0.015625)"/>
       </defs>
       <use xlink:href="#DejaVuSans-38"/>
       <use xlink:href="#DejaVuSans-30" transform="translate(63.623047 0)"/>
       <use xlink:href="#DejaVuSans-30" transform="translate(127.246094 0)"/>
       <use xlink:href="#DejaVuSans-30" transform="translate(190.869141 0)"/>
       <use xlink:href="#DejaVuSans-30" transform="translate(254.492188 0)"/>
      </g>
     </g>
    </g>
    <g id="xtick_6">
     <g id="line2d_11">
      <path d="M 622.636364 384.48 
L 622.636364 51.84 
" clip-path="url(#p2fbb866726)" style="fill: none; stroke-dasharray: 2.96,1.28; stroke-dashoffset: 0; stroke: #b0b0b0; stroke-opacity: 0.7; stroke-width: 0.8"/>
     </g>
     <g id="line2d_12">
      <g>
       <use xlink:href="#m60e9624f48" x="622.636364" y="384.48" style="stroke: #000000; stroke-width: 0.8"/>
      </g>
     </g>
     <g id="text_6">
      <!-- 100000 -->
      <g transform="translate(603.548864 399.078438) scale(0.1 -0.1)">
       <defs>
        <path id="DejaVuSans-31" d="M 794 531 
L 1825 531 
L 1825 4091 
L 703 3866 
L 703 4441 
L 1819 4666 
L 2450 4666 
L 2450 531 
L 3481 531 
L 3481 0 
L 794 0 
L 794 531 
z
" transform="scale(0.015625)"/>
       </defs>
       <use xlink:href="#DejaVuSans-31"/>
       <use xlink:href="#DejaVuSans-30" transform="translate(63.623047 0)"/>
       <use xlink:href="#DejaVuSans-30" transform="translate(127.246094 0)"/>
       <use xlink:href="#DejaVuSans-30" transform="translate(190.869141 0)"/>
       <use xlink:href="#DejaVuSans-30" transform="translate(254.492188 0)"/>
       <use xlink:href="#DejaVuSans-30" transform="translate(318.115234 0)"/>
      </g>
     </g>
    </g>
    <g id="text_7">
     <!-- Episode -->
     <g transform="translate(349.3625 412.756563) scale(0.1 -0.1)">
      <defs>
       <path id="DejaVuSans-45" d="M 628 4666 
L 3578 4666 
L 3578 4134 
L 1259 4134 
L 1259 2753 
L 3481 2753 
L 3481 2222 
L 1259 2222 
L 1259 531 
L 3634 531 
L 3634 0 
L 628 0 
L 628 4666 
z
" transform="scale(0.015625)"/>
       <path id="DejaVuSans-70" d="M 1159 525 
L 1159 -1331 
L 581 -1331 
L 581 3500 
L 1159 3500 
L 1159 2969 
Q 1341 3281 1617 3432 
Q 1894 3584 2278 3584 
Q 2916 3584 3314 3078 
Q 3713 2572 3713 1747 
Q 3713 922 3314 415 
Q 2916 -91 2278 -91 
Q 1894 -91 1617 61 
Q 1341 213 1159 525 
z
M 3116 1747 
Q 3116 2381 2855 2742 
Q 2594 3103 2138 3103 
Q 1681 3103 1420 2742 
Q 1159 2381 1159 1747 
Q 1159 1113 1420 752 
Q 1681 391 2138 391 
Q 2594 391 2855 752 
Q 3116 1113 3116 1747 
z
" transform="scale(0.015625)"/>
       <path id="DejaVuSans-69" d="M 603 3500 
L 1178 3500 
L 1178 0 
L 603 0 
L 603 3500 
z
M 603 4863 
L 1178 4863 
L 1178 4134 
L 603 4134 
L 603 4863 
z
" transform="scale(0.015625)"/>
       <path id="DejaVuSans-73" d="M 2834 3397 
L 2834 2853 
Q 2591 2978 2328 3040 
Q 2066 3103 1784 3103 
Q 1356 3103 1142 2972 
Q 928 2841 928 2578 
Q 928 2378 1081 2264 
Q 1234 2150 1697 2047 
L 1894 2003 
Q 2506 1872 2764 1633 
Q 3022 1394 3022 966 
Q 3022 478 2636 193 
Q 2250 -91 1575 -91 
Q 1294 -91 989 -36 
Q 684 19 347 128 
L 347 722 
Q 666 556 975 473 
Q 1284 391 1588 391 
Q 1994 391 2212 530 
Q 2431 669 2431 922 
Q 2431 1156 2273 1281 
Q 2116 1406 1581 1522 
L 1381 1569 
Q 847 1681 609 1914 
Q 372 2147 372 2553 
Q 372 3047 722 3315 
Q 1072 3584 1716 3584 
Q 2034 3584 2315 3537 
Q 2597 3491 2834 3397 
z
" transform="scale(0.015625)"/>
       <path id="DejaVuSans-6f" d="M 1959 3097 
Q 1497 3097 1228 2736 
Q 959 2375 959 1747 
Q 959 1119 1226 758 
Q 1494 397 1959 397 
Q 2419 397 2687 759 
Q 2956 1122 2956 1747 
Q 2956 2369 2687 2733 
Q 2419 3097 1959 3097 
z
M 1959 3584 
Q 2709 3584 3137 3096 
Q 3566 2609 3566 1747 
Q 3566 888 3137 398 
Q 2709 -91 1959 -91 
Q 1206 -91 779 398 
Q 353 888 353 1747 
Q 353 2609 779 3096 
Q 1206 3584 1959 3584 
z
" transform="scale(0.015625)"/>
       <path id="DejaVuSans-64" d="M 2906 2969 
L 2906 4863 
L 3481 4863 
L 3481 0 
L 2906 0 
L 2906 525 
Q 2725 213 2448 61 
Q 2172 -91 1784 -91 
Q 1150 -91 751 415 
Q 353 922 353 1747 
Q 353 2572 751 3078 
Q 1150 3584 1784 3584 
Q 2172 3584 2448 3432 
Q 2725 3281 2906 2969 
z
M 947 1747 
Q 947 1113 1208 752 
Q 1469 391 1925 391 
Q 2381 391 2643 752 
Q 2906 1113 2906 1747 
Q 2906 2381 2643 2742 
Q 2381 3103 1925 3103 
Q 1469 3103 1208 2742 
Q 947 2381 947 1747 
z
" transform="scale(0.015625)"/>
       <path id="DejaVuSans-65" d="M 3597 1894 
L 3597 1613 
L 953 1613 
Q 991 1019 1311 708 
Q 1631 397 2203 397 
Q 2534 397 2845 478 
Q 3156 559 3463 722 
L 3463 178 
Q 3153 47 2828 -22 
Q 2503 -91 2169 -91 
Q 1331 -91 842 396 
Q 353 884 353 1716 
Q 353 2575 817 3079 
Q 1281 3584 2069 3584 
Q 2775 3584 3186 3129 
Q 3597 2675 3597 1894 
z
M 3022 2063 
Q 3016 2534 2758 2815 
Q 2500 3097 2075 3097 
Q 1594 3097 1305 2825 
Q 1016 2553 972 2059 
L 3022 2063 
z
" transform="scale(0.015625)"/>
      </defs>
      <use xlink:href="#DejaVuSans-45"/>
      <use xlink:href="#DejaVuSans-70" transform="translate(63.183594 0)"/>
      <use xlink:href="#DejaVuSans-69" transform="translate(126.660156 0)"/>
      <use xlink:href="#DejaVuSans-73" transform="translate(154.443359 0)"/>
      <use xlink:href="#DejaVuSans-6f" transform="translate(206.542969 0)"/>
      <use xlink:href="#DejaVuSans-64" transform="translate(267.724609 0)"/>
      <use xlink:href="#DejaVuSans-65" transform="translate(331.201172 0)"/>
     </g>
    </g>
   </g>
   <g id="matplotlib.axis_2">
    <g id="ytick_1">
     <g id="line2d_13">
      <path d="M 90 350.845714 
L 648 350.845714 
" clip-path="url(#p2fbb866726)" style="fill: none; stroke-dasharray: 2.96,1.28; stroke-dashoffset: 0; stroke: #b0b0b0; stroke-opacity: 0.7; stroke-width: 0.8"/>
     </g>
     <g id="line2d_14">
      <defs>
       <path id="m2675518e19" d="M 0 0 
L -3.5 0 
" style="stroke: #000000; stroke-width: 0.8"/>
      </defs>
      <g>
       <use xlink:href="#m2675518e19" x="90" y="350.845714" style="stroke: #000000; stroke-width: 0.8"/>
      </g>
     </g>
     <g id="text_8">
      <!-- −2.4 -->
      <g transform="translate(58.717187 354.644933) scale(0.1 -0.1)">
       <defs>
        <path id="DejaVuSans-2212" d="M 678 2272 
L 4684 2272 
L 4684 1741 
L 678 1741 
L 678 2272 
z
" transform="scale(0.015625)"/>
        <path id="DejaVuSans-2e" d="M 684 794 
L 1344 794 
L 1344 0 
L 684 0 
L 684 794 
z
" transform="scale(0.015625)"/>
       </defs>
       <use xlink:href="#DejaVuSans-2212"/>
       <use xlink:href="#DejaVuSans-32" transform="translate(83.789062 0)"/>
       <use xlink:href="#DejaVuSans-2e" transform="translate(147.412109 0)"/>
       <use xlink:href="#DejaVuSans-34" transform="translate(179.199219 0)"/>
      </g>
     </g>
    </g>
    <g id="ytick_2">
     <g id="line2d_15">
      <path d="M 90 309.702857 
L 648 309.702857 
" clip-path="url(#p2fbb866726)" style="fill: none; stroke-dasharray: 2.96,1.28; stroke-dashoffset: 0; stroke: #b0b0b0; stroke-opacity: 0.7; stroke-width: 0.8"/>
     </g>
     <g id="line2d_16">
      <g>
       <use xlink:href="#m2675518e19" x="90" y="309.702857" style="stroke: #000000; stroke-width: 0.8"/>
      </g>
     </g>
     <g id="text_9">
      <!-- −2.2 -->
      <g transform="translate(58.717187 313.502076) scale(0.1 -0.1)">
       <use xlink:href="#DejaVuSans-2212"/>
       <use xlink:href="#DejaVuSans-32" transform="translate(83.789062 0)"/>
       <use xlink:href="#DejaVuSans-2e" transform="translate(147.412109 0)"/>
       <use xlink:href="#DejaVuSans-32" transform="translate(179.199219 0)"/>
      </g>
     </g>
    </g>
    <g id="ytick_3">
     <g id="line2d_17">
      <path d="M 90 268.56 
L 648 268.56 
" clip-path="url(#p2fbb866726)" style="fill: none; stroke-dasharray: 2.96,1.28; stroke-dashoffset: 0; stroke: #b0b0b0; stroke-opacity: 0.7; stroke-width: 0.8"/>
     </g>
     <g id="line2d_18">
      <g>
       <use xlink:href="#m2675518e19" x="90" y="268.56" style="stroke: #000000; stroke-width: 0.8"/>
      </g>
     </g>
     <g id="text_10">
      <!-- −2.0 -->
      <g transform="translate(58.717187 272.359219) scale(0.1 -0.1)">
       <use xlink:href="#DejaVuSans-2212"/>
       <use xlink:href="#DejaVuSans-32" transform="translate(83.789062 0)"/>
       <use xlink:href="#DejaVuSans-2e" transform="translate(147.412109 0)"/>
       <use xlink:href="#DejaVuSans-30" transform="translate(179.199219 0)"/>
      </g>
     </g>
    </g>
    <g id="ytick_4">
     <g id="line2d_19">
      <path d="M 90 227.417143 
L 648 227.417143 
" clip-path="url(#p2fbb866726)" style="fill: none; stroke-dasharray: 2.96,1.28; stroke-dashoffset: 0; stroke: #b0b0b0; stroke-opacity: 0.7; stroke-width: 0.8"/>
     </g>
     <g id="line2d_20">
      <g>
       <use xlink:href="#m2675518e19" x="90" y="227.417143" style="stroke: #000000; stroke-width: 0.8"/>
      </g>
     </g>
     <g id="text_11">
      <!-- −1.8 -->
      <g transform="translate(58.717187 231.216362) scale(0.1 -0.1)">
       <use xlink:href="#DejaVuSans-2212"/>
       <use xlink:href="#DejaVuSans-31" transform="translate(83.789062 0)"/>
       <use xlink:href="#DejaVuSans-2e" transform="translate(147.412109 0)"/>
       <use xlink:href="#DejaVuSans-38" transform="translate(179.199219 0)"/>
      </g>
     </g>
    </g>
    <g id="ytick_5">
     <g id="line2d_21">
      <path d="M 90 186.274286 
L 648 186.274286 
" clip-path="url(#p2fbb866726)" style="fill: none; stroke-dasharray: 2.96,1.28; stroke-dashoffset: 0; stroke: #b0b0b0; stroke-opacity: 0.7; stroke-width: 0.8"/>
     </g>
     <g id="line2d_22">
      <g>
       <use xlink:href="#m2675518e19" x="90" y="186.274286" style="stroke: #000000; stroke-width: 0.8"/>
      </g>
     </g>
     <g id="text_12">
      <!-- −1.6 -->
      <g transform="translate(58.717187 190.073504) scale(0.1 -0.1)">
       <use xlink:href="#DejaVuSans-2212"/>
       <use xlink:href="#DejaVuSans-31" transform="translate(83.789062 0)"/>
       <use xlink:href="#DejaVuSans-2e" transform="translate(147.412109 0)"/>
       <use xlink:href="#DejaVuSans-36" transform="translate(179.199219 0)"/>
      </g>
     </g>
    </g>
    <g id="ytick_6">
     <g id="line2d_23">
      <path d="M 90 145.131429 
L 648 145.131429 
" clip-path="url(#p2fbb866726)" style="fill: none; stroke-dasharray: 2.96,1.28; stroke-dashoffset: 0; stroke: #b0b0b0; stroke-opacity: 0.7; stroke-width: 0.8"/>
     </g>
     <g id="line2d_24">
      <g>
       <use xlink:href="#m2675518e19" x="90" y="145.131429" style="stroke: #000000; stroke-width: 0.8"/>
      </g>
     </g>
     <g id="text_13">
      <!-- −1.4 -->
      <g transform="translate(58.717187 148.930647) scale(0.1 -0.1)">
       <use xlink:href="#DejaVuSans-2212"/>
       <use xlink:href="#DejaVuSans-31" transform="translate(83.789062 0)"/>
       <use xlink:href="#DejaVuSans-2e" transform="translate(147.412109 0)"/>
       <use xlink:href="#DejaVuSans-34" transform="translate(179.199219 0)"/>
      </g>
     </g>
    </g>
    <g id="ytick_7">
     <g id="line2d_25">
      <path d="M 90 103.988571 
L 648 103.988571 
" clip-path="url(#p2fbb866726)" style="fill: none; stroke-dasharray: 2.96,1.28; stroke-dashoffset: 0; stroke: #b0b0b0; stroke-opacity: 0.7; stroke-width: 0.8"/>
     </g>
     <g id="line2d_26">
      <g>
       <use xlink:href="#m2675518e19" x="90" y="103.988571" style="stroke: #000000; stroke-width: 0.8"/>
      </g>
     </g>
     <g id="text_14">
      <!-- −1.2 -->
      <g transform="translate(58.717187 107.78779) scale(0.1 -0.1)">
       <use xlink:href="#DejaVuSans-2212"/>
       <use xlink:href="#DejaVuSans-31" transform="translate(83.789062 0)"/>
       <use xlink:href="#DejaVuSans-2e" transform="translate(147.412109 0)"/>
       <use xlink:href="#DejaVuSans-32" transform="translate(179.199219 0)"/>
      </g>
     </g>
    </g>
    <g id="ytick_8">
     <g id="line2d_27">
      <path d="M 90 62.845714 
L 648 62.845714 
" clip-path="url(#p2fbb866726)" style="fill: none; stroke-dasharray: 2.96,1.28; stroke-dashoffset: 0; stroke: #b0b0b0; stroke-opacity: 0.7; stroke-width: 0.8"/>
     </g>
     <g id="line2d_28">
      <g>
       <use xlink:href="#m2675518e19" x="90" y="62.845714" style="stroke: #000000; stroke-width: 0.8"/>
      </g>
     </g>
     <g id="text_15">
      <!-- −1.0 -->
      <g transform="translate(58.717187 66.644933) scale(0.1 -0.1)">
       <use xlink:href="#DejaVuSans-2212"/>
       <use xlink:href="#DejaVuSans-31" transform="translate(83.789062 0)"/>
       <use xlink:href="#DejaVuSans-2e" transform="translate(147.412109 0)"/>
       <use xlink:href="#DejaVuSans-30" transform="translate(179.199219 0)"/>
      </g>
     </g>
    </g>
    <g id="text_16">
     <!-- Cumulative Reward (Max=-1.02) -->
     <g transform="translate(52.6375 299.862344) rotate(-90) scale(0.1 -0.1)">
      <defs>
       <path id="DejaVuSans-43" d="M 4122 4306 
L 4122 3641 
Q 3803 3938 3442 4084 
Q 3081 4231 2675 4231 
Q 1875 4231 1450 3742 
Q 1025 3253 1025 2328 
Q 1025 1406 1450 917 
Q 1875 428 2675 428 
Q 3081 428 3442 575 
Q 3803 722 4122 1019 
L 4122 359 
Q 3791 134 3420 21 
Q 3050 -91 2638 -91 
Q 1578 -91 968 557 
Q 359 1206 359 2328 
Q 359 3453 968 4101 
Q 1578 4750 2638 4750 
Q 3056 4750 3426 4639 
Q 3797 4528 4122 4306 
z
" transform="scale(0.015625)"/>
       <path id="DejaVuSans-75" d="M 544 1381 
L 544 3500 
L 1119 3500 
L 1119 1403 
Q 1119 906 1312 657 
Q 1506 409 1894 409 
Q 2359 409 2629 706 
Q 2900 1003 2900 1516 
L 2900 3500 
L 3475 3500 
L 3475 0 
L 2900 0 
L 2900 538 
Q 2691 219 2414 64 
Q 2138 -91 1772 -91 
Q 1169 -91 856 284 
Q 544 659 544 1381 
z
M 1991 3584 
L 1991 3584 
z
" transform="scale(0.015625)"/>
       <path id="DejaVuSans-6d" d="M 3328 2828 
Q 3544 3216 3844 3400 
Q 4144 3584 4550 3584 
Q 5097 3584 5394 3201 
Q 5691 2819 5691 2113 
L 5691 0 
L 5113 0 
L 5113 2094 
Q 5113 2597 4934 2840 
Q 4756 3084 4391 3084 
Q 3944 3084 3684 2787 
Q 3425 2491 3425 1978 
L 3425 0 
L 2847 0 
L 2847 2094 
Q 2847 2600 2669 2842 
Q 2491 3084 2119 3084 
Q 1678 3084 1418 2786 
Q 1159 2488 1159 1978 
L 1159 0 
L 581 0 
L 581 3500 
L 1159 3500 
L 1159 2956 
Q 1356 3278 1631 3431 
Q 1906 3584 2284 3584 
Q 2666 3584 2933 3390 
Q 3200 3197 3328 2828 
z
" transform="scale(0.015625)"/>
       <path id="DejaVuSans-6c" d="M 603 4863 
L 1178 4863 
L 1178 0 
L 603 0 
L 603 4863 
z
" transform="scale(0.015625)"/>
       <path id="DejaVuSans-61" d="M 2194 1759 
Q 1497 1759 1228 1600 
Q 959 1441 959 1056 
Q 959 750 1161 570 
Q 1363 391 1709 391 
Q 2188 391 2477 730 
Q 2766 1069 2766 1631 
L 2766 1759 
L 2194 1759 
z
M 3341 1997 
L 3341 0 
L 2766 0 
L 2766 531 
Q 2569 213 2275 61 
Q 1981 -91 1556 -91 
Q 1019 -91 701 211 
Q 384 513 384 1019 
Q 384 1609 779 1909 
Q 1175 2209 1959 2209 
L 2766 2209 
L 2766 2266 
Q 2766 2663 2505 2880 
Q 2244 3097 1772 3097 
Q 1472 3097 1187 3025 
Q 903 2953 641 2809 
L 641 3341 
Q 956 3463 1253 3523 
Q 1550 3584 1831 3584 
Q 2591 3584 2966 3190 
Q 3341 2797 3341 1997 
z
" transform="scale(0.015625)"/>
       <path id="DejaVuSans-74" d="M 1172 4494 
L 1172 3500 
L 2356 3500 
L 2356 3053 
L 1172 3053 
L 1172 1153 
Q 1172 725 1289 603 
Q 1406 481 1766 481 
L 2356 481 
L 2356 0 
L 1766 0 
Q 1100 0 847 248 
Q 594 497 594 1153 
L 594 3053 
L 172 3053 
L 172 3500 
L 594 3500 
L 594 4494 
L 1172 4494 
z
" transform="scale(0.015625)"/>
       <path id="DejaVuSans-76" d="M 191 3500 
L 800 3500 
L 1894 563 
L 2988 3500 
L 3597 3500 
L 2284 0 
L 1503 0 
L 191 3500 
z
" transform="scale(0.015625)"/>
       <path id="DejaVuSans-20" transform="scale(0.015625)"/>
       <path id="DejaVuSans-52" d="M 2841 2188 
Q 3044 2119 3236 1894 
Q 3428 1669 3622 1275 
L 4263 0 
L 3584 0 
L 2988 1197 
Q 2756 1666 2539 1819 
Q 2322 1972 1947 1972 
L 1259 1972 
L 1259 0 
L 628 0 
L 628 4666 
L 2053 4666 
Q 2853 4666 3247 4331 
Q 3641 3997 3641 3322 
Q 3641 2881 3436 2590 
Q 3231 2300 2841 2188 
z
M 1259 4147 
L 1259 2491 
L 2053 2491 
Q 2509 2491 2742 2702 
Q 2975 2913 2975 3322 
Q 2975 3731 2742 3939 
Q 2509 4147 2053 4147 
L 1259 4147 
z
" transform="scale(0.015625)"/>
       <path id="DejaVuSans-77" d="M 269 3500 
L 844 3500 
L 1563 769 
L 2278 3500 
L 2956 3500 
L 3675 769 
L 4391 3500 
L 4966 3500 
L 4050 0 
L 3372 0 
L 2619 2869 
L 1863 0 
L 1184 0 
L 269 3500 
z
" transform="scale(0.015625)"/>
       <path id="DejaVuSans-72" d="M 2631 2963 
Q 2534 3019 2420 3045 
Q 2306 3072 2169 3072 
Q 1681 3072 1420 2755 
Q 1159 2438 1159 1844 
L 1159 0 
L 581 0 
L 581 3500 
L 1159 3500 
L 1159 2956 
Q 1341 3275 1631 3429 
Q 1922 3584 2338 3584 
Q 2397 3584 2469 3576 
Q 2541 3569 2628 3553 
L 2631 2963 
z
" transform="scale(0.015625)"/>
       <path id="DejaVuSans-28" d="M 1984 4856 
Q 1566 4138 1362 3434 
Q 1159 2731 1159 2009 
Q 1159 1288 1364 580 
Q 1569 -128 1984 -844 
L 1484 -844 
Q 1016 -109 783 600 
Q 550 1309 550 2009 
Q 550 2706 781 3412 
Q 1013 4119 1484 4856 
L 1984 4856 
z
" transform="scale(0.015625)"/>
       <path id="DejaVuSans-4d" d="M 628 4666 
L 1569 4666 
L 2759 1491 
L 3956 4666 
L 4897 4666 
L 4897 0 
L 4281 0 
L 4281 4097 
L 3078 897 
L 2444 897 
L 1241 4097 
L 1241 0 
L 628 0 
L 628 4666 
z
" transform="scale(0.015625)"/>
       <path id="DejaVuSans-78" d="M 3513 3500 
L 2247 1797 
L 3578 0 
L 2900 0 
L 1881 1375 
L 863 0 
L 184 0 
L 1544 1831 
L 300 3500 
L 978 3500 
L 1906 2253 
L 2834 3500 
L 3513 3500 
z
" transform="scale(0.015625)"/>
       <path id="DejaVuSans-3d" d="M 678 2906 
L 4684 2906 
L 4684 2381 
L 678 2381 
L 678 2906 
z
M 678 1631 
L 4684 1631 
L 4684 1100 
L 678 1100 
L 678 1631 
z
" transform="scale(0.015625)"/>
       <path id="DejaVuSans-2d" d="M 313 2009 
L 1997 2009 
L 1997 1497 
L 313 1497 
L 313 2009 
z
" transform="scale(0.015625)"/>
       <path id="DejaVuSans-29" d="M 513 4856 
L 1013 4856 
Q 1481 4119 1714 3412 
Q 1947 2706 1947 2009 
Q 1947 1309 1714 600 
Q 1481 -109 1013 -844 
L 513 -844 
Q 928 -128 1133 580 
Q 1338 1288 1338 2009 
Q 1338 2731 1133 3434 
Q 928 4138 513 4856 
z
" transform="scale(0.015625)"/>
      </defs>
      <use xlink:href="#DejaVuSans-43"/>
      <use xlink:href="#DejaVuSans-75" transform="translate(69.824219 0)"/>
      <use xlink:href="#DejaVuSans-6d" transform="translate(133.203125 0)"/>
      <use xlink:href="#DejaVuSans-75" transform="translate(230.615234 0)"/>
      <use xlink:href="#DejaVuSans-6c" transform="translate(293.994141 0)"/>
      <use xlink:href="#DejaVuSans-61" transform="translate(321.777344 0)"/>
      <use xlink:href="#DejaVuSans-74" transform="translate(383.056641 0)"/>
      <use xlink:href="#DejaVuSans-69" transform="translate(422.265625 0)"/>
      <use xlink:href="#DejaVuSans-76" transform="translate(450.048828 0)"/>
      <use xlink:href="#DejaVuSans-65" transform="translate(509.228516 0)"/>
      <use xlink:href="#DejaVuSans-20" transform="translate(570.751953 0)"/>
      <use xlink:href="#DejaVuSans-52" transform="translate(602.539062 0)"/>
      <use xlink:href="#DejaVuSans-65" transform="translate(667.521484 0)"/>
      <use xlink:href="#DejaVuSans-77" transform="translate(729.044922 0)"/>
      <use xlink:href="#DejaVuSans-61" transform="translate(810.832031 0)"/>
      <use xlink:href="#DejaVuSans-72" transform="translate(872.111328 0)"/>
      <use xlink:href="#DejaVuSans-64" transform="translate(911.474609 0)"/>
      <use xlink:href="#DejaVuSans-20" transform="translate(974.951172 0)"/>
      <use xlink:href="#DejaVuSans-28" transform="translate(1006.738281 0)"/>
      <use xlink:href="#DejaVuSans-4d" transform="translate(1045.751953 0)"/>
      <use xlink:href="#DejaVuSans-61" transform="translate(1132.03125 0)"/>
      <use xlink:href="#DejaVuSans-78" transform="translate(1193.310547 0)"/>
      <use xlink:href="#DejaVuSans-3d" transform="translate(1252.490234 0)"/>
      <use xlink:href="#DejaVuSans-2d" transform="translate(1336.279297 0)"/>
      <use xlink:href="#DejaVuSans-31" transform="translate(1372.363281 0)"/>
      <use xlink:href="#DejaVuSans-2e" transform="translate(1435.986328 0)"/>
      <use xlink:href="#DejaVuSans-30" transform="translate(1467.773438 0)"/>
      <use xlink:href="#DejaVuSans-32" transform="translate(1531.396484 0)"/>
      <use xlink:href="#DejaVuSans-29" transform="translate(1595.019531 0)"/>
     </g>
    </g>
   </g>
   <g id="line2d_29">
    <path d="M 115.363636 71.074286 
L 115.378855 126.617143 
L 115.434655 66.96 
L 115.470164 73.131429 
L 115.5006 66.96 
L 115.536109 112.217143 
L 115.5564 89.588571 
L 115.632491 169.817143 
L 115.642636 66.96 
L 115.662927 97.817143 
L 115.693364 71.074286 
L 115.708582 108.102857 
L 115.7238 75.188571 
L 115.728873 210.96 
L 115.764382 66.96 
L 115.830327 99.874286 
L 115.886127 71.074286 
L 115.850618 120.445714 
L 115.921636 89.588571 
L 115.926709 171.874286 
L 115.992655 69.017143 
L 116.028164 124.56 
L 116.129618 66.96 
L 116.0586 134.845714 
L 116.139764 77.245714 
L 116.144836 75.188571 
L 116.149909 103.988571 
L 116.154982 81.36 
L 116.215855 157.474286 
L 116.251364 66.96 
L 116.266582 89.588571 
L 116.302091 66.96 
L 116.322382 141.017143 
L 116.378182 71.074286 
L 116.383255 167.76 
L 116.444127 66.96 
L 116.484709 73.131429 
L 116.545582 192.445714 
L 116.520218 66.96 
L 116.601382 81.36 
L 116.611527 66.96 
L 116.631818 110.16 
L 116.687618 182.16 
L 116.677473 71.074286 
L 116.702836 130.731429 
L 116.789073 186.274286 
L 116.814436 66.96 
L 116.824582 190.388571 
L 116.926036 188.331429 
L 117.032564 66.96 
L 117.022418 208.902857 
L 117.037636 87.531429 
L 117.047782 91.645714 
L 117.052855 69.017143 
L 117.068073 213.017143 
L 117.139091 66.96 
L 117.164455 106.045714 
L 117.1746 77.245714 
L 117.189818 122.502857 
L 117.194891 95.76 
L 117.215182 276.788571 
L 117.276055 71.074286 
L 117.301418 112.217143 
L 117.331855 66.96 
L 117.362291 200.674286 
L 117.413018 97.817143 
L 117.519545 71.074286 
L 117.463745 171.874286 
L 117.524618 75.188571 
L 117.590564 66.96 
L 117.656509 241.817143 
L 117.707236 69.017143 
L 117.768109 108.102857 
L 117.828982 194.502857 
L 117.798545 66.96 
L 117.874636 69.017143 
L 117.971018 262.388571 
L 117.884782 66.96 
L 117.996382 175.988571 
L 118.077545 79.302857 
L 118.021745 206.845714 
L 118.107982 163.645714 
L 118.209436 69.017143 
L 118.138418 322.045714 
L 118.224655 120.445714 
L 118.229727 225.36 
L 118.244945 75.188571 
L 118.331182 153.36 
L 118.361618 71.074286 
L 118.417418 361.131429 
L 118.442782 91.645714 
L 118.529018 324.102857 
L 118.508727 73.131429 
L 118.549309 186.274286 
L 118.600036 66.96 
L 118.615255 278.845714 
L 118.660909 120.445714 
L 118.696418 66.96 
L 118.742073 295.302857 
L 118.757291 71.074286 
L 118.787727 66.96 
L 118.873964 305.588571 
L 118.970345 66.96 
L 118.950055 344.674286 
L 118.990636 196.56 
L 119.041364 291.188571 
L 119.031218 66.96 
L 119.046436 163.645714 
L 119.051509 79.302857 
L 119.112382 291.188571 
L 119.147891 147.188571 
L 119.218909 348.788571 
L 119.203691 66.96 
L 119.254418 221.245714 
L 119.310218 79.302857 
L 119.355873 301.474286 
L 119.360945 165.702857 
L 119.457327 357.017143 
L 119.396455 75.188571 
L 119.4624 348.788571 
L 119.502982 71.074286 
L 119.574 134.845714 
L 119.6298 83.417143 
L 119.599364 264.445714 
L 119.645018 208.902857 
L 119.650091 328.217143 
L 119.710964 69.017143 
L 119.746473 319.988571 
L 119.787055 69.017143 
L 119.771836 340.56 
L 119.858073 130.731429 
L 119.868218 83.417143 
L 119.903727 235.645714 
L 119.934164 165.702857 
L 120.0204 342.617143 
L 119.974745 66.96 
L 120.050836 289.131429 
L 120.121855 66.96 
L 120.157364 165.702857 
L 120.208091 363.188571 
L 120.177655 71.074286 
L 120.263891 145.131429 
L 120.294327 301.474286 
L 120.345055 93.702857 
L 120.360273 159.531429 
L 120.365345 69.017143 
L 120.370418 340.56 
L 120.456655 208.902857 
L 120.461727 365.245714 
L 120.482018 83.417143 
L 120.563182 206.845714 
L 120.598691 361.131429 
L 120.669709 116.331429 
L 120.705218 332.331429 
L 120.781309 280.902857 
L 120.892909 69.017143 
L 120.958855 336.445714 
L 121.004509 175.988571 
L 121.050164 97.817143 
L 121.0248 198.617143 
L 121.085673 165.702857 
L 121.1364 359.074286 
L 121.146545 163.645714 
L 121.1922 237.702857 
L 121.222636 95.76 
L 121.232782 311.76 
L 121.3038 165.702857 
L 121.308873 165.702857 
L 121.344382 83.417143 
L 121.369745 361.131429 
L 121.4154 165.702857 
L 121.430618 165.702857 
L 121.435691 159.531429 
L 121.445836 235.645714 
L 121.455982 165.702857 
L 121.506709 357.017143 
L 121.562509 280.902857 
L 121.5828 134.845714 
L 121.613236 301.474286 
L 121.674109 188.331429 
L 121.689327 69.017143 
L 121.719764 299.417143 
L 121.760345 165.702857 
L 121.795855 357.017143 
L 121.846582 112.217143 
L 121.866873 165.702857 
L 121.912527 227.417143 
L 121.953109 108.102857 
L 121.9734 165.702857 
L 122.008909 165.702857 
L 122.039345 81.36 
L 122.095145 165.702857 
L 122.100218 361.131429 
L 122.176309 149.245714 
L 122.201673 233.588571 
L 122.247327 69.017143 
L 122.282836 260.331429 
L 122.313273 165.702857 
L 122.343709 165.702857 
L 122.409655 258.274286 
L 122.379218 71.074286 
L 122.450236 165.702857 
L 122.455309 165.702857 
L 122.541545 81.36 
L 122.566909 285.017143 
L 122.673436 73.131429 
L 122.678509 165.702857 
L 122.683582 165.702857 
L 122.779964 87.531429 
L 122.703873 299.417143 
L 122.790109 165.702857 
L 122.795182 165.702857 
L 122.800255 348.788571 
L 122.901709 165.702857 
L 122.922 369.36 
L 122.987945 124.56 
L 123.008236 165.702857 
L 123.048818 165.702857 
L 123.135055 91.645714 
L 123.069109 322.045714 
L 123.155345 165.702857 
L 123.261873 165.702857 
L 123.272018 315.874286 
L 123.343036 81.36 
L 123.3684 165.702857 
L 123.4242 165.702857 
L 123.474927 274.731429 
L 123.490145 138.96 
L 123.530727 165.702857 
L 123.545945 165.702857 
L 123.551018 346.731429 
L 123.652473 165.702857 
L 123.753927 165.702857 
L 123.784364 112.217143 
L 123.809727 278.845714 
L 123.860455 165.702857 
L 123.972055 332.331429 
L 124.083655 165.702857 
L 124.114091 165.702857 
L 124.154673 247.988571 
L 124.169891 157.474286 
L 124.220618 165.702857 
L 124.225691 165.702857 
L 124.317 280.902857 
L 124.332218 165.702857 
L 124.382945 165.702857 
L 124.388018 180.102857 
L 124.393091 134.845714 
L 124.479327 165.702857 
L 124.4844 87.531429 
L 124.570636 367.302857 
L 124.585855 165.702857 
L 124.631509 165.702857 
L 124.636582 256.217143 
L 124.738036 155.417143 
L 124.839491 237.702857 
L 124.849636 165.702857 
L 124.910509 165.702857 
L 124.915582 157.474286 
L 125.017036 165.702857 
L 125.072836 165.702857 
L 125.103273 303.531429 
L 125.169218 101.931429 
L 125.179364 165.702857 
L 125.184436 165.702857 
L 125.189509 130.731429 
L 125.219945 268.56 
L 125.290964 165.702857 
L 125.646055 165.702857 
L 125.651127 93.702857 
L 125.706927 167.76 
L 125.752582 165.702857 
L 125.772873 165.702857 
L 125.777945 235.645714 
L 125.8794 165.702857 
L 125.9352 165.702857 
L 125.940273 171.874286 
L 126.041727 165.702857 
L 126.249709 165.702857 
L 126.254782 357.017143 
L 126.356236 165.702857 
L 126.361309 157.474286 
L 126.442473 165.702857 
L 126.447545 225.36 
L 126.549 165.702857 
L 126.640309 165.702857 
L 126.645382 278.845714 
L 126.655527 97.817143 
L 126.746836 165.702857 
L 126.919309 165.702857 
L 126.924382 243.874286 
L 127.025836 165.702857 
L 127.142509 165.702857 
L 127.147582 204.788571 
L 127.249036 165.702857 
L 127.314982 165.702857 
L 127.320055 106.045714 
L 127.421509 165.702857 
L 127.979509 165.702857 
L 128.075891 336.445714 
L 128.091109 264.445714 
L 128.202709 165.702857 
L 128.212855 165.702857 
L 128.217927 315.874286 
L 128.319382 165.702857 
L 128.791145 165.702857 
L 128.796218 332.331429 
L 128.897673 165.702857 
L 134.741455 165.702857 
L 134.746527 217.131429 
L 134.847982 165.702857 
L 138.216273 165.702857 
L 138.221345 233.588571 
L 138.3228 165.702857 
L 154.139564 165.702857 
L 154.144636 264.445714 
L 154.246091 165.702857 
L 163.640782 165.702857 
L 163.645855 219.188571 
L 163.747309 165.702857 
L 184.433891 165.702857 
L 184.438964 153.36 
L 184.540418 165.702857 
L 185.443364 165.702857 
L 185.448436 141.017143 
L 185.549891 165.702857 
L 225.715745 165.702857 
L 225.720818 173.931429 
L 225.822273 165.702857 
L 231.879109 165.702857 
L 231.884182 276.788571 
L 231.985636 165.702857 
L 249.861927 165.702857 
L 249.867 112.217143 
L 249.968455 165.702857 
L 269.031764 165.702857 
L 269.036836 120.445714 
L 269.138291 165.702857 
L 283.306418 165.702857 
L 283.311491 75.188571 
L 283.412945 165.702857 
L 299.052164 165.702857 
L 299.057236 305.588571 
L 299.158691 165.702857 
L 301.116764 165.702857 
L 301.121836 315.874286 
L 301.223291 165.702857 
L 333.034364 165.702857 
L 333.039436 128.674286 
L 333.140891 165.702857 
L 338.690455 165.702857 
L 338.695527 342.617143 
L 338.796982 165.702857 
L 366.524509 165.702857 
L 366.529582 280.902857 
L 366.631036 165.702857 
L 371.881309 165.702857 
L 371.886382 186.274286 
L 371.987836 165.702857 
L 404.367055 165.702857 
L 404.372127 285.017143 
L 404.473582 165.702857 
L 412.513855 165.702857 
L 412.518927 75.188571 
L 412.620382 165.702857 
L 432.378655 165.702857 
L 432.383727 301.474286 
L 432.485182 165.702857 
L 435.3462 165.702857 
L 435.351273 223.302857 
L 435.452727 165.702857 
L 465.498491 165.702857 
L 465.503564 206.845714 
L 465.605018 165.702857 
L 473.016273 165.702857 
L 473.021345 293.245714 
L 473.1228 165.702857 
L 510.468218 165.702857 
L 510.473291 305.588571 
L 510.574745 165.702857 
L 510.650836 165.702857 
L 510.655909 235.645714 
L 510.757364 165.702857 
L 534.218727 165.702857 
L 534.2238 145.131429 
L 534.325255 165.702857 
L 541.295182 165.702857 
L 541.300255 186.274286 
L 541.401709 165.702857 
L 562.448455 165.702857 
L 562.453527 252.102857 
L 562.554982 165.702857 
L 568.728491 165.702857 
L 568.733564 247.988571 
L 568.835018 165.702857 
L 589.095491 165.702857 
L 589.100564 326.16 
L 589.202018 165.702857 
L 604.268018 165.702857 
L 604.273091 295.302857 
L 604.374545 165.702857 
L 622.631291 165.702857 
L 622.631291 165.702857 
" clip-path="url(#p2fbb866726)" style="fill: none; stroke: #1f77b4; stroke-opacity: 0.3; stroke-width: 1.5; stroke-linecap: square"/>
   </g>
   <g id="line2d_30">
    <path d="M 115.870909 85.536 
L 115.875982 85.577143 
L 115.886127 85.268571 
L 115.906418 84.630857 
L 115.977436 87.017143 
L 116.063673 89.012571 
L 116.124545 88.806857 
L 116.149909 87.428571 
L 116.205709 89.218286 
L 116.231073 90.370286 
L 116.256436 88.642286 
L 116.317309 89.403429 
L 116.322382 89.403429 
L 116.433982 91.830857 
L 116.444127 91.008 
L 116.489782 89.732571 
L 116.510073 91.357714 
L 116.525291 91.110857 
L 116.657182 94.998857 
L 116.667327 94.937143 
L 116.687618 94.237714 
L 116.763709 96.171429 
L 116.768782 96.006857 
L 116.778927 95.636571 
L 116.809364 98.166857 
L 116.829655 99.010286 
L 116.819509 97.714286 
L 116.890527 98.084571 
L 116.8956 97.179429 
L 116.931109 99.318857 
L 116.991982 99.195429 
L 117.0072 98.989714 
L 117.057927 98.022857 
L 117.073145 100.244571 
L 117.113727 99.668571 
L 117.1188 99.648 
L 117.123873 99.833143 
L 117.199964 98.886857 
L 117.276055 102.548571 
L 117.336927 100.861714 
L 117.377509 103.042286 
L 117.519545 109.275429 
L 117.529691 107.712 
L 117.534764 106.683429 
L 117.626073 109.604571 
L 117.631145 109.584 
L 117.636218 109.44 
L 117.651436 111.085714 
L 117.707236 115.940571 
L 117.773182 113.821714 
L 117.859418 117.092571 
L 117.884782 114.891429 
L 117.910145 112.196571 
L 117.991309 114.109714 
L 118.143491 125.033143 
L 118.158709 123.84 
L 118.214509 119.931429 
L 118.270309 122.153143 
L 118.3464 120.630857 
L 118.478291 131.924571 
L 118.483364 130.073143 
L 118.554382 136.121143 
L 118.579745 133.940571 
L 118.696418 138.774857 
L 118.706564 138.589714 
L 118.711636 138.301714 
L 118.747145 142.169143 
L 118.889182 161.979429 
L 118.944982 158.256 
L 118.950055 157.392 
L 118.990636 162.390857 
L 119.041364 159.017143 
L 119.163109 165.312 
L 119.061655 158.544 
L 119.168182 164.530286 
L 119.173255 164.201143 
L 119.218909 167.904 
L 119.2392 172.717714 
L 119.315291 167.122286 
L 119.325436 168.006857 
L 119.335582 168.932571 
L 119.340655 167.328 
L 119.416745 164.900571 
L 119.376164 168.356571 
L 119.447182 165.147429 
L 119.563855 172.902857 
L 119.568927 172.820571 
L 119.634873 168.768 
L 119.675455 172.758857 
L 119.721109 174.630857 
L 119.7414 169.056 
L 119.781982 172.573714 
L 119.787055 172.8 
L 119.802273 170.043429 
L 119.832709 170.146286 
L 119.837782 169.2 
L 119.858073 175.906286 
L 119.924018 173.314286 
L 119.929091 173.293714 
L 119.989964 167.821714 
L 119.954455 175.68 
L 120.045764 171.277714 
L 120.152291 177.099429 
L 120.162436 174.178286 
L 120.309545 185.821714 
L 120.192873 172.985143 
L 120.314618 185.492571 
L 120.324764 185.780571 
L 120.350127 183.353143 
L 120.370418 178.498286 
L 120.446509 184.525714 
L 120.456655 183.805714 
L 120.608836 190.470857 
L 120.624055 189.956571 
L 120.629127 188.804571 
L 120.710291 195.284571 
L 120.832036 188.804571 
L 120.872618 191.931429 
L 120.877691 192.898286 
L 120.953782 188.249143 
L 120.969 189.524571 
L 121.090745 179.979429 
L 121.095818 181.008 
L 121.100891 179.856 
L 121.182055 184.752 
L 121.1922 183.682286 
L 121.197273 184.402286 
L 121.263218 179.958857 
L 121.268291 179.958857 
L 121.329164 175.515429 
L 121.379891 179.712 
L 121.384964 179.712 
L 121.455982 178.251429 
L 121.405255 180.72 
L 121.501636 179.300571 
L 121.598018 188.578286 
L 121.643673 186.685714 
L 121.765418 178.045714 
L 121.775564 180.329143 
L 121.836436 188.578286 
L 121.897309 185.842286 
L 121.912527 185.904 
L 121.953109 187.323429 
L 122.013982 184.052571 
L 122.090073 175.494857 
L 122.1408 177.161143 
L 122.150945 177.078857 
L 122.227036 182.509714 
L 122.272691 180.267429 
L 122.409655 169.92 
L 122.414727 170.845714 
L 122.4198 170.845714 
L 122.445164 170.064 
L 122.485745 173.252571 
L 122.511109 173.252571 
L 122.521255 173.252571 
L 122.607491 178.662857 
L 122.546618 172.614857 
L 122.673436 174.939429 
L 122.800255 170.722286 
L 122.932145 179.341714 
L 122.942291 179.341714 
L 122.967655 180.905143 
L 122.993018 178.745143 
L 123.053891 179.588571 
L 123.175636 174.733714 
L 123.307527 180.411429 
L 123.343036 178.662857 
L 123.474927 168.726857 
L 123.500291 170.187429 
L 123.510436 170.187429 
L 123.576382 173.129143 
L 123.616964 170.228571 
L 123.627109 170.228571 
L 123.748855 171.894857 
L 123.759 171.894857 
L 123.809727 167.904 
L 123.875673 171.401143 
L 123.936545 171.401143 
L 123.972055 170.969143 
L 123.977127 172.635429 
L 124.048145 171.113143 
L 124.058291 171.113143 
L 124.119164 169.302857 
L 124.169891 170.619429 
L 124.230764 170.537143 
L 124.235836 171.051429 
L 124.251055 171.051429 
L 124.266273 171.051429 
L 124.337291 172.882286 
L 124.377873 171.092571 
L 124.388018 171.092571 
L 124.393091 171.236571 
L 124.398164 170.928 
L 124.479327 170.928 
L 124.550345 167.821714 
L 124.575709 171.030857 
L 124.585855 171.030857 
L 124.626436 171.030857 
L 124.636582 170.290286 
L 124.641655 171.195429 
L 124.738036 170.845714 
L 124.839491 168.500571 
L 124.859782 169.220571 
L 124.895291 169.220571 
L 124.900364 169.076571 
L 124.905436 169.385143 
L 124.991673 169.302857 
L 125.057618 170.742857 
L 125.082982 168.500571 
L 125.093127 168.500571 
L 125.103273 168.500571 
L 125.143855 169.878857 
L 125.194582 167.595429 
L 125.2098 167.595429 
L 125.214873 167.595429 
L 125.341691 169.097143 
L 125.346764 169.097143 
L 125.422855 168.377143 
L 125.458364 168.459429 
L 125.585182 168.459429 
L 125.676491 165.394286 
L 125.706927 166.381714 
L 125.722145 166.402286 
L 125.727218 166.032 
L 125.777945 165.003429 
L 125.838818 165.702857 
L 126.1584 165.764571 
L 126.285218 168.377143 
L 126.401891 167.595429 
L 126.447545 167.595429 
L 126.559145 168.130286 
L 126.645382 168.130286 
L 126.655527 169.261714 
L 126.756982 169.014857 
L 126.762055 169.014857 
L 126.868582 167.101714 
L 126.873655 167.184 
L 126.924382 167.184 
L 126.954818 167.965714 
L 127.035982 167.369143 
L 127.147582 167.369143 
L 127.152655 167.76 
L 127.157727 166.628571 
L 127.249036 166.875429 
L 127.320055 166.875429 
L 127.4418 165.497143 
L 127.654855 165.497143 
L 127.766455 165.106286 
L 127.827327 165.106286 
L 127.938927 165.702857 
L 127.984582 165.702857 
L 128.1114 169.755429 
L 128.217927 169.755429 
L 128.329527 171.257143 
L 128.491855 171.257143 
L 128.618673 167.204571 
L 128.7252 167.204571 
L 128.796218 165.702857 
L 128.801291 167.369143 
L 128.831727 167.369143 
L 129.303491 167.369143 
L 129.415091 165.702857 
L 134.746527 165.702857 
L 134.858127 166.217143 
L 135.2538 166.217143 
L 135.3654 165.702857 
L 138.221345 165.702857 
L 138.332945 166.381714 
L 138.728618 166.381714 
L 138.840218 165.702857 
L 154.144636 165.702857 
L 154.256236 166.690286 
L 154.651909 166.690286 
L 154.763509 165.702857 
L 163.645855 165.702857 
L 163.757455 166.237714 
L 164.153127 166.237714 
L 164.264727 165.702857 
L 184.438964 165.702857 
L 184.550564 165.579429 
L 184.946236 165.579429 
L 185.057836 165.702857 
L 185.448436 165.702857 
L 185.560036 165.456 
L 185.955709 165.456 
L 186.067309 165.702857 
L 231.884182 165.702857 
L 231.995782 166.813714 
L 232.391455 166.813714 
L 232.503055 165.702857 
L 249.867 165.702857 
L 249.9786 165.168 
L 250.374273 165.168 
L 250.485873 165.702857 
L 269.036836 165.702857 
L 269.148436 165.250286 
L 269.544109 165.250286 
L 269.655709 165.702857 
L 283.311491 165.702857 
L 283.423091 164.797714 
L 283.818764 164.797714 
L 283.930364 165.702857 
L 299.057236 165.702857 
L 299.168836 167.101714 
L 299.564509 167.101714 
L 299.676109 165.702857 
L 301.121836 165.702857 
L 301.233436 167.204571 
L 301.629109 167.204571 
L 301.740709 165.702857 
L 333.039436 165.702857 
L 333.151036 165.332571 
L 333.546709 165.332571 
L 333.658309 165.702857 
L 338.695527 165.702857 
L 338.807127 167.472 
L 339.2028 167.472 
L 339.3144 165.702857 
L 366.529582 165.702857 
L 366.641182 166.854857 
L 367.036855 166.854857 
L 367.148455 165.702857 
L 371.886382 165.702857 
L 371.997982 165.908571 
L 372.393655 165.908571 
L 372.505255 165.702857 
L 404.372127 165.702857 
L 404.483727 166.896 
L 404.8794 166.896 
L 404.991 165.702857 
L 412.518927 165.702857 
L 412.630527 164.797714 
L 413.0262 164.797714 
L 413.1378 165.702857 
L 432.383727 165.702857 
L 432.495327 167.060571 
L 432.891 167.060571 
L 433.0026 165.702857 
L 435.351273 165.702857 
L 435.462873 166.278857 
L 435.858545 166.278857 
L 435.970145 165.702857 
L 465.503564 165.702857 
L 465.615164 166.114286 
L 466.010836 166.114286 
L 466.122436 165.702857 
L 473.021345 165.702857 
L 473.132945 166.978286 
L 473.528618 166.978286 
L 473.640218 165.702857 
L 510.473291 165.702857 
L 510.584891 167.101714 
L 510.655909 167.101714 
L 510.767509 167.801143 
L 510.980564 167.801143 
L 511.092164 166.402286 
L 511.163182 166.402286 
L 511.274782 165.702857 
L 534.2238 165.702857 
L 534.3354 165.497143 
L 534.731073 165.497143 
L 534.842673 165.702857 
L 541.300255 165.702857 
L 541.411855 165.908571 
L 541.807527 165.908571 
L 541.919127 165.702857 
L 562.453527 165.702857 
L 562.565127 166.566857 
L 562.9608 166.566857 
L 563.0724 165.702857 
L 568.733564 165.702857 
L 568.845164 166.525714 
L 569.240836 166.525714 
L 569.352436 165.702857 
L 589.100564 165.702857 
L 589.212164 167.307429 
L 589.607836 167.307429 
L 589.719436 165.702857 
L 604.273091 165.702857 
L 604.384691 166.998857 
L 604.780364 166.998857 
L 604.891964 165.702857 
L 622.636364 165.702857 
L 622.636364 165.702857 
" clip-path="url(#p2fbb866726)" style="fill: none; stroke: #0000ff; stroke-width: 2; stroke-linecap: square"/>
   </g>
   <g id="patch_3">
    <path d="M 90 384.48 
L 90 51.84 
" style="fill: none; stroke: #000000; stroke-width: 0.8; stroke-linejoin: miter; stroke-linecap: square"/>
   </g>
   <g id="patch_4">
    <path d="M 648 384.48 
L 648 51.84 
" style="fill: none; stroke: #000000; stroke-width: 0.8; stroke-linejoin: miter; stroke-linecap: square"/>
   </g>
   <g id="patch_5">
    <path d="M 90 384.48 
L 648 384.48 
" style="fill: none; stroke: #000000; stroke-width: 0.8; stroke-linejoin: miter; stroke-linecap: square"/>
   </g>
   <g id="patch_6">
    <path d="M 90 51.84 
L 648 51.84 
" style="fill: none; stroke: #000000; stroke-width: 0.8; stroke-linejoin: miter; stroke-linecap: square"/>
   </g>
   <g id="text_17">
    <!-- Markov_Chain_Monte_Carlo Average Reward per Episode -->
    <g transform="translate(198.55125 45.84) scale(0.12 -0.12)">
     <defs>
      <path id="DejaVuSans-6b" d="M 581 4863 
L 1159 4863 
L 1159 1991 
L 2875 3500 
L 3609 3500 
L 1753 1863 
L 3688 0 
L 2938 0 
L 1159 1709 
L 1159 0 
L 581 0 
L 581 4863 
z
" transform="scale(0.015625)"/>
      <path id="DejaVuSans-5f" d="M 3263 -1063 
L 3263 -1509 
L -63 -1509 
L -63 -1063 
L 3263 -1063 
z
" transform="scale(0.015625)"/>
      <path id="DejaVuSans-68" d="M 3513 2113 
L 3513 0 
L 2938 0 
L 2938 2094 
Q 2938 2591 2744 2837 
Q 2550 3084 2163 3084 
Q 1697 3084 1428 2787 
Q 1159 2491 1159 1978 
L 1159 0 
L 581 0 
L 581 4863 
L 1159 4863 
L 1159 2956 
Q 1366 3272 1645 3428 
Q 1925 3584 2291 3584 
Q 2894 3584 3203 3211 
Q 3513 2838 3513 2113 
z
" transform="scale(0.015625)"/>
      <path id="DejaVuSans-6e" d="M 3513 2113 
L 3513 0 
L 2938 0 
L 2938 2094 
Q 2938 2591 2744 2837 
Q 2550 3084 2163 3084 
Q 1697 3084 1428 2787 
Q 1159 2491 1159 1978 
L 1159 0 
L 581 0 
L 581 3500 
L 1159 3500 
L 1159 2956 
Q 1366 3272 1645 3428 
Q 1925 3584 2291 3584 
Q 2894 3584 3203 3211 
Q 3513 2838 3513 2113 
z
" transform="scale(0.015625)"/>
      <path id="DejaVuSans-41" d="M 2188 4044 
L 1331 1722 
L 3047 1722 
L 2188 4044 
z
M 1831 4666 
L 2547 4666 
L 4325 0 
L 3669 0 
L 3244 1197 
L 1141 1197 
L 716 0 
L 50 0 
L 1831 4666 
z
" transform="scale(0.015625)"/>
      <path id="DejaVuSans-67" d="M 2906 1791 
Q 2906 2416 2648 2759 
Q 2391 3103 1925 3103 
Q 1463 3103 1205 2759 
Q 947 2416 947 1791 
Q 947 1169 1205 825 
Q 1463 481 1925 481 
Q 2391 481 2648 825 
Q 2906 1169 2906 1791 
z
M 3481 434 
Q 3481 -459 3084 -895 
Q 2688 -1331 1869 -1331 
Q 1566 -1331 1297 -1286 
Q 1028 -1241 775 -1147 
L 775 -588 
Q 1028 -725 1275 -790 
Q 1522 -856 1778 -856 
Q 2344 -856 2625 -561 
Q 2906 -266 2906 331 
L 2906 616 
Q 2728 306 2450 153 
Q 2172 0 1784 0 
Q 1141 0 747 490 
Q 353 981 353 1791 
Q 353 2603 747 3093 
Q 1141 3584 1784 3584 
Q 2172 3584 2450 3431 
Q 2728 3278 2906 2969 
L 2906 3500 
L 3481 3500 
L 3481 434 
z
" transform="scale(0.015625)"/>
     </defs>
     <use xlink:href="#DejaVuSans-4d"/>
     <use xlink:href="#DejaVuSans-61" transform="translate(86.279297 0)"/>
     <use xlink:href="#DejaVuSans-72" transform="translate(147.558594 0)"/>
     <use xlink:href="#DejaVuSans-6b" transform="translate(188.671875 0)"/>
     <use xlink:href="#DejaVuSans-6f" transform="translate(242.957031 0)"/>
     <use xlink:href="#DejaVuSans-76" transform="translate(304.138672 0)"/>
     <use xlink:href="#DejaVuSans-5f" transform="translate(363.318359 0)"/>
     <use xlink:href="#DejaVuSans-43" transform="translate(413.318359 0)"/>
     <use xlink:href="#DejaVuSans-68" transform="translate(483.142578 0)"/>
     <use xlink:href="#DejaVuSans-61" transform="translate(546.521484 0)"/>
     <use xlink:href="#DejaVuSans-69" transform="translate(607.800781 0)"/>
     <use xlink:href="#DejaVuSans-6e" transform="translate(635.583984 0)"/>
     <use xlink:href="#DejaVuSans-5f" transform="translate(698.962891 0)"/>
     <use xlink:href="#DejaVuSans-4d" transform="translate(748.962891 0)"/>
     <use xlink:href="#DejaVuSans-6f" transform="translate(835.242188 0)"/>
     <use xlink:href="#DejaVuSans-6e" transform="translate(896.423828 0)"/>
     <use xlink:href="#DejaVuSans-74" transform="translate(959.802734 0)"/>
     <use xlink:href="#DejaVuSans-65" transform="translate(999.011719 0)"/>
     <use xlink:href="#DejaVuSans-5f" transform="translate(1060.535156 0)"/>
     <use xlink:href="#DejaVuSans-43" transform="translate(1110.535156 0)"/>
     <use xlink:href="#DejaVuSans-61" transform="translate(1180.359375 0)"/>
     <use xlink:href="#DejaVuSans-72" transform="translate(1241.638672 0)"/>
     <use xlink:href="#DejaVuSans-6c" transform="translate(1282.751953 0)"/>
     <use xlink:href="#DejaVuSans-6f" transform="translate(1310.535156 0)"/>
     <use xlink:href="#DejaVuSans-20" transform="translate(1371.716797 0)"/>
     <use xlink:href="#DejaVuSans-41" transform="translate(1403.503906 0)"/>
     <use xlink:href="#DejaVuSans-76" transform="translate(1466.037109 0)"/>
     <use xlink:href="#DejaVuSans-65" transform="translate(1525.216797 0)"/>
     <use xlink:href="#DejaVuSans-72" transform="translate(1586.740234 0)"/>
     <use xlink:href="#DejaVuSans-61" transform="translate(1627.853516 0)"/>
     <use xlink:href="#DejaVuSans-67" transform="translate(1689.132812 0)"/>
     <use xlink:href="#DejaVuSans-65" transform="translate(1752.609375 0)"/>
     <use xlink:href="#DejaVuSans-20" transform="translate(1814.132812 0)"/>
     <use xlink:href="#DejaVuSans-52" transform="translate(1845.919922 0)"/>
     <use xlink:href="#DejaVuSans-65" transform="translate(1910.902344 0)"/>
     <use xlink:href="#DejaVuSans-77" transform="translate(1972.425781 0)"/>
     <use xlink:href="#DejaVuSans-61" transform="translate(2054.212891 0)"/>
     <use xlink:href="#DejaVuSans-72" transform="translate(2115.492188 0)"/>
     <use xlink:href="#DejaVuSans-64" transform="translate(2154.855469 0)"/>
     <use xlink:href="#DejaVuSans-20" transform="translate(2218.332031 0)"/>
     <use xlink:href="#DejaVuSans-70" transform="translate(2250.119141 0)"/>
     <use xlink:href="#DejaVuSans-65" transform="translate(2313.595703 0)"/>
     <use xlink:href="#DejaVuSans-72" transform="translate(2375.119141 0)"/>
     <use xlink:href="#DejaVuSans-20" transform="translate(2416.232422 0)"/>
     <use xlink:href="#DejaVuSans-45" transform="translate(2448.019531 0)"/>
     <use xlink:href="#DejaVuSans-70" transform="translate(2511.203125 0)"/>
     <use xlink:href="#DejaVuSans-69" transform="translate(2574.679688 0)"/>
     <use xlink:href="#DejaVuSans-73" transform="translate(2602.462891 0)"/>
     <use xlink:href="#DejaVuSans-6f" transform="translate(2654.5625 0)"/>
     <use xlink:href="#DejaVuSans-64" transform="translate(2715.744141 0)"/>
     <use xlink:href="#DejaVuSans-65" transform="translate(2779.220703 0)"/>
    </g>
   </g>
   <g id="legend_1">
    <g id="patch_7">
     <path d="M 458.34375 89.19625 
L 641 89.19625 
Q 643 89.19625 643 87.19625 
L 643 58.84 
Q 643 56.84 641 56.84 
L 458.34375 56.84 
Q 456.34375 56.84 456.34375 58.84 
L 456.34375 87.19625 
Q 456.34375 89.19625 458.34375 89.19625 
z
" style="fill: #ffffff; opacity: 0.8; stroke: #cccccc; stroke-linejoin: miter"/>
    </g>
    <g id="line2d_31">
     <path d="M 460.34375 64.938437 
L 470.34375 64.938437 
L 480.34375 64.938437 
" style="fill: none; stroke: #1f77b4; stroke-opacity: 0.3; stroke-width: 1.5; stroke-linecap: square"/>
    </g>
    <g id="text_18">
     <!-- Raw Rewards -->
     <g transform="translate(488.34375 68.438437) scale(0.1 -0.1)">
      <use xlink:href="#DejaVuSans-52"/>
      <use xlink:href="#DejaVuSans-61" transform="translate(67.232422 0)"/>
      <use xlink:href="#DejaVuSans-77" transform="translate(128.511719 0)"/>
      <use xlink:href="#DejaVuSans-20" transform="translate(210.298828 0)"/>
      <use xlink:href="#DejaVuSans-52" transform="translate(242.085938 0)"/>
      <use xlink:href="#DejaVuSans-65" transform="translate(307.068359 0)"/>
      <use xlink:href="#DejaVuSans-77" transform="translate(368.591797 0)"/>
      <use xlink:href="#DejaVuSans-61" transform="translate(450.378906 0)"/>
      <use xlink:href="#DejaVuSans-72" transform="translate(511.658203 0)"/>
      <use xlink:href="#DejaVuSans-64" transform="translate(551.021484 0)"/>
      <use xlink:href="#DejaVuSans-73" transform="translate(614.498047 0)"/>
     </g>
    </g>
    <g id="line2d_32">
     <path d="M 460.34375 79.616562 
L 470.34375 79.616562 
L 480.34375 79.616562 
" style="fill: none; stroke: #0000ff; stroke-width: 2; stroke-linecap: square"/>
    </g>
    <g id="text_19">
     <!-- Smoothed Avg (Window=100) -->
     <g transform="translate(488.34375 83.116562) scale(0.1 -0.1)">
      <defs>
       <path id="DejaVuSans-53" d="M 3425 4513 
L 3425 3897 
Q 3066 4069 2747 4153 
Q 2428 4238 2131 4238 
Q 1616 4238 1336 4038 
Q 1056 3838 1056 3469 
Q 1056 3159 1242 3001 
Q 1428 2844 1947 2747 
L 2328 2669 
Q 3034 2534 3370 2195 
Q 3706 1856 3706 1288 
Q 3706 609 3251 259 
Q 2797 -91 1919 -91 
Q 1588 -91 1214 -16 
Q 841 59 441 206 
L 441 856 
Q 825 641 1194 531 
Q 1563 422 1919 422 
Q 2459 422 2753 634 
Q 3047 847 3047 1241 
Q 3047 1584 2836 1778 
Q 2625 1972 2144 2069 
L 1759 2144 
Q 1053 2284 737 2584 
Q 422 2884 422 3419 
Q 422 4038 858 4394 
Q 1294 4750 2059 4750 
Q 2388 4750 2728 4690 
Q 3069 4631 3425 4513 
z
" transform="scale(0.015625)"/>
       <path id="DejaVuSans-57" d="M 213 4666 
L 850 4666 
L 1831 722 
L 2809 4666 
L 3519 4666 
L 4500 722 
L 5478 4666 
L 6119 4666 
L 4947 0 
L 4153 0 
L 3169 4050 
L 2175 0 
L 1381 0 
L 213 4666 
z
" transform="scale(0.015625)"/>
      </defs>
      <use xlink:href="#DejaVuSans-53"/>
      <use xlink:href="#DejaVuSans-6d" transform="translate(63.476562 0)"/>
      <use xlink:href="#DejaVuSans-6f" transform="translate(160.888672 0)"/>
      <use xlink:href="#DejaVuSans-6f" transform="translate(222.070312 0)"/>
      <use xlink:href="#DejaVuSans-74" transform="translate(283.251953 0)"/>
      <use xlink:href="#DejaVuSans-68" transform="translate(322.460938 0)"/>
      <use xlink:href="#DejaVuSans-65" transform="translate(385.839844 0)"/>
      <use xlink:href="#DejaVuSans-64" transform="translate(447.363281 0)"/>
      <use xlink:href="#DejaVuSans-20" transform="translate(510.839844 0)"/>
      <use xlink:href="#DejaVuSans-41" transform="translate(542.626953 0)"/>
      <use xlink:href="#DejaVuSans-76" transform="translate(605.160156 0)"/>
      <use xlink:href="#DejaVuSans-67" transform="translate(664.339844 0)"/>
      <use xlink:href="#DejaVuSans-20" transform="translate(727.816406 0)"/>
      <use xlink:href="#DejaVuSans-28" transform="translate(759.603516 0)"/>
      <use xlink:href="#DejaVuSans-57" transform="translate(798.617188 0)"/>
      <use xlink:href="#DejaVuSans-69" transform="translate(895.244141 0)"/>
      <use xlink:href="#DejaVuSans-6e" transform="translate(923.027344 0)"/>
      <use xlink:href="#DejaVuSans-64" transform="translate(986.40625 0)"/>
      <use xlink:href="#DejaVuSans-6f" transform="translate(1049.882812 0)"/>
      <use xlink:href="#DejaVuSans-77" transform="translate(1111.064453 0)"/>
      <use xlink:href="#DejaVuSans-3d" transform="translate(1192.851562 0)"/>
      <use xlink:href="#DejaVuSans-31" transform="translate(1276.640625 0)"/>
      <use xlink:href="#DejaVuSans-30" transform="translate(1340.263672 0)"/>
      <use xlink:href="#DejaVuSans-30" transform="translate(1403.886719 0)"/>
      <use xlink:href="#DejaVuSans-29" transform="translate(1467.509766 0)"/>
     </g>
    </g>
   </g>
  </g>
 </g>
 <defs>
  <clipPath id="p2fbb866726">
   <rect x="90" y="51.84" width="558" height="332.64"/>
  </clipPath>
 </defs>
</svg>
