<?xml version="1.0" encoding="utf-8" standalone="no"?>
<!DOCTYPE svg PUBLIC "-//W3C//DTD SVG 1.1//EN"
  "http://www.w3.org/Graphics/SVG/1.1/DTD/svg11.dtd">
<svg xmlns:xlink="http://www.w3.org/1999/xlink" width="720pt" height="288pt" viewBox="0 0 720 288" xmlns="http://www.w3.org/2000/svg" version="1.1">
 <metadata>
  <rdf:RDF xmlns:dc="http://purl.org/dc/elements/1.1/" xmlns:cc="http://creativecommons.org/ns#" xmlns:rdf="http://www.w3.org/1999/02/22-rdf-syntax-ns#">
   <cc:Work>
    <dc:type rdf:resource="http://purl.org/dc/dcmitype/StillImage"/>
    <dc:date>2025-12-06T12:18:49.494142</dc:date>
    <dc:format>image/svg+xml</dc:format>
    <dc:creator>
     <cc:Agent>
      <dc:title>Matplotlib v3.10.7, https://matplotlib.org/</dc:title>
     </cc:Agent>
    </dc:creator>
   </cc:Work>
  </rdf:RDF>
 </metadata>
 <defs>
  <style type="text/css">*{stroke-linejoin: round; stroke-linecap: butt}</style>
 </defs>
 <g id="figure_1">
  <g id="patch_1">
   <path d="M 0 288 
L 720 288 
L 720 0 
L 0 0 
z
" style="fill: #ffffff"/>
  </g>
  <g id="axes_1">
   <g id="patch_2">
    <path d="M 90 256.32 
L 648 256.32 
L 648 34.56 
L 90 34.56 
z
" style="fill: #ffffff"/>
   </g>
   <g id="matplotlib.axis_1">
    <g id="xtick_1">
     <g id="line2d_1">
      <path d="M 115.363636 256.32 
L 115.363636 34.56 
" clip-path="url(#pbe2df567fd)" style="fill: none; stroke: #b0b0b0; stroke-width: 0.8; stroke-linecap: square"/>
     </g>
     <g id="line2d_2">
      <defs>
       <path id="m0b885874f7" d="M 0 0 
L 0 3.5 
" style="stroke: #000000; stroke-width: 0.8"/>
      </defs>
      <g>
       <use xlink:href="#m0b885874f7" x="115.363636" y="256.32" style="stroke: #000000; stroke-width: 0.8"/>
      </g>
     </g>
     <g id="text_1">
      <!-- 0 -->
      <g transform="translate(112.182386 270.918437) scale(0.1 -0.1)">
       <defs>
        <path id="DejaVuSans-30" d="M 2034 4250 
Q 1547 4250 1301 3770 
Q 1056 3291 1056 2328 
Q 1056 1369 1301 889 
Q 1547 409 2034 409 
Q 2525 409 2770 889 
Q 3016 1369 3016 2328 
Q 3016 3291 2770 3770 
Q 2525 4250 2034 4250 
z
M 2034 4750 
Q 2819 4750 3233 4129 
Q 3647 3509 3647 2328 
Q 3647 1150 3233 529 
Q 2819 -91 2034 -91 
Q 1250 -91 836 529 
Q 422 1150 422 2328 
Q 422 3509 836 4129 
Q 1250 4750 2034 4750 
z
" transform="scale(0.015625)"/>
       </defs>
       <use xlink:href="#DejaVuSans-30"/>
      </g>
     </g>
    </g>
    <g id="xtick_2">
     <g id="line2d_3">
      <path d="M 216.828328 256.32 
L 216.828328 34.56 
" clip-path="url(#pbe2df567fd)" style="fill: none; stroke: #b0b0b0; stroke-width: 0.8; stroke-linecap: square"/>
     </g>
     <g id="line2d_4">
      <g>
       <use xlink:href="#m0b885874f7" x="216.828328" y="256.32" style="stroke: #000000; stroke-width: 0.8"/>
      </g>
     </g>
     <g id="text_2">
      <!-- 2000 -->
      <g transform="translate(204.103328 270.918437) scale(0.1 -0.1)">
       <defs>
        <path id="DejaVuSans-32" d="M 1228 531 
L 3431 531 
L 3431 0 
L 469 0 
L 469 531 
Q 828 903 1448 1529 
Q 2069 2156 2228 2338 
Q 2531 2678 2651 2914 
Q 2772 3150 2772 3378 
Q 2772 3750 2511 3984 
Q 2250 4219 1831 4219 
Q 1534 4219 1204 4116 
Q 875 4013 500 3803 
L 500 4441 
Q 881 4594 1212 4672 
Q 1544 4750 1819 4750 
Q 2544 4750 2975 4387 
Q 3406 4025 3406 3419 
Q 3406 3131 3298 2873 
Q 3191 2616 2906 2266 
Q 2828 2175 2409 1742 
Q 1991 1309 1228 531 
z
" transform="scale(0.015625)"/>
       </defs>
       <use xlink:href="#DejaVuSans-32"/>
       <use xlink:href="#DejaVuSans-30" transform="translate(63.623047 0)"/>
       <use xlink:href="#DejaVuSans-30" transform="translate(127.246094 0)"/>
       <use xlink:href="#DejaVuSans-30" transform="translate(190.869141 0)"/>
      </g>
     </g>
    </g>
    <g id="xtick_3">
     <g id="line2d_5">
      <path d="M 318.29302 256.32 
L 318.29302 34.56 
" clip-path="url(#pbe2df567fd)" style="fill: none; stroke: #b0b0b0; stroke-width: 0.8; stroke-linecap: square"/>
     </g>
     <g id="line2d_6">
      <g>
       <use xlink:href="#m0b885874f7" x="318.29302" y="256.32" style="stroke: #000000; stroke-width: 0.8"/>
      </g>
     </g>
     <g id="text_3">
      <!-- 4000 -->
      <g transform="translate(305.56802 270.918437) scale(0.1 -0.1)">
       <defs>
        <path id="DejaVuSans-34" d="M 2419 4116 
L 825 1625 
L 2419 1625 
L 2419 4116 
z
M 2253 4666 
L 3047 4666 
L 3047 1625 
L 3713 1625 
L 3713 1100 
L 3047 1100 
L 3047 0 
L 2419 0 
L 2419 1100 
L 313 1100 
L 313 1709 
L 2253 4666 
z
" transform="scale(0.015625)"/>
       </defs>
       <use xlink:href="#DejaVuSans-34"/>
       <use xlink:href="#DejaVuSans-30" transform="translate(63.623047 0)"/>
       <use xlink:href="#DejaVuSans-30" transform="translate(127.246094 0)"/>
       <use xlink:href="#DejaVuSans-30" transform="translate(190.869141 0)"/>
      </g>
     </g>
    </g>
    <g id="xtick_4">
     <g id="line2d_7">
      <path d="M 419.757712 256.32 
L 419.757712 34.56 
" clip-path="url(#pbe2df567fd)" style="fill: none; stroke: #b0b0b0; stroke-width: 0.8; stroke-linecap: square"/>
     </g>
     <g id="line2d_8">
      <g>
       <use xlink:href="#m0b885874f7" x="419.757712" y="256.32" style="stroke: #000000; stroke-width: 0.8"/>
      </g>
     </g>
     <g id="text_4">
      <!-- 6000 -->
      <g transform="translate(407.032712 270.918437) scale(0.1 -0.1)">
       <defs>
        <path id="DejaVuSans-36" d="M 2113 2584 
Q 1688 2584 1439 2293 
Q 1191 2003 1191 1497 
Q 1191 994 1439 701 
Q 1688 409 2113 409 
Q 2538 409 2786 701 
Q 3034 994 3034 1497 
Q 3034 2003 2786 2293 
Q 2538 2584 2113 2584 
z
M 3366 4563 
L 3366 3988 
Q 3128 4100 2886 4159 
Q 2644 4219 2406 4219 
Q 1781 4219 1451 3797 
Q 1122 3375 1075 2522 
Q 1259 2794 1537 2939 
Q 1816 3084 2150 3084 
Q 2853 3084 3261 2657 
Q 3669 2231 3669 1497 
Q 3669 778 3244 343 
Q 2819 -91 2113 -91 
Q 1303 -91 875 529 
Q 447 1150 447 2328 
Q 447 3434 972 4092 
Q 1497 4750 2381 4750 
Q 2619 4750 2861 4703 
Q 3103 4656 3366 4563 
z
" transform="scale(0.015625)"/>
       </defs>
       <use xlink:href="#DejaVuSans-36"/>
       <use xlink:href="#DejaVuSans-30" transform="translate(63.623047 0)"/>
       <use xlink:href="#DejaVuSans-30" transform="translate(127.246094 0)"/>
       <use xlink:href="#DejaVuSans-30" transform="translate(190.869141 0)"/>
      </g>
     </g>
    </g>
    <g id="xtick_5">
     <g id="line2d_9">
      <path d="M 521.222404 256.32 
L 521.222404 34.56 
" clip-path="url(#pbe2df567fd)" style="fill: none; stroke: #b0b0b0; stroke-width: 0.8; stroke-linecap: square"/>
     </g>
     <g id="line2d_10">
      <g>
       <use xlink:href="#m0b885874f7" x="521.222404" y="256.32" style="stroke: #000000; stroke-width: 0.8"/>
      </g>
     </g>
     <g id="text_5">
      <!-- 8000 -->
      <g transform="translate(508.497404 270.918437) scale(0.1 -0.1)">
       <defs>
        <path id="DejaVuSans-38" d="M 2034 2216 
Q 1584 2216 1326 1975 
Q 1069 1734 1069 1313 
Q 1069 891 1326 650 
Q 1584 409 2034 409 
Q 2484 409 2743 651 
Q 3003 894 3003 1313 
Q 3003 1734 2745 1975 
Q 2488 2216 2034 2216 
z
M 1403 2484 
Q 997 2584 770 2862 
Q 544 3141 544 3541 
Q 544 4100 942 4425 
Q 1341 4750 2034 4750 
Q 2731 4750 3128 4425 
Q 3525 4100 3525 3541 
Q 3525 3141 3298 2862 
Q 3072 2584 2669 2484 
Q 3125 2378 3379 2068 
Q 3634 1759 3634 1313 
Q 3634 634 3220 271 
Q 2806 -91 2034 -91 
Q 1263 -91 848 271 
Q 434 634 434 1313 
Q 434 1759 690 2068 
Q 947 2378 1403 2484 
z
M 1172 3481 
Q 1172 3119 1398 2916 
Q 1625 2713 2034 2713 
Q 2441 2713 2670 2916 
Q 2900 3119 2900 3481 
Q 2900 3844 2670 4047 
Q 2441 4250 2034 4250 
Q 1625 4250 1398 4047 
Q 1172 3844 1172 3481 
z
" transform="scale(0.015625)"/>
       </defs>
       <use xlink:href="#DejaVuSans-38"/>
       <use xlink:href="#DejaVuSans-30" transform="translate(63.623047 0)"/>
       <use xlink:href="#DejaVuSans-30" transform="translate(127.246094 0)"/>
       <use xlink:href="#DejaVuSans-30" transform="translate(190.869141 0)"/>
      </g>
     </g>
    </g>
    <g id="xtick_6">
     <g id="line2d_11">
      <path d="M 622.687096 256.32 
L 622.687096 34.56 
" clip-path="url(#pbe2df567fd)" style="fill: none; stroke: #b0b0b0; stroke-width: 0.8; stroke-linecap: square"/>
     </g>
     <g id="line2d_12">
      <g>
       <use xlink:href="#m0b885874f7" x="622.687096" y="256.32" style="stroke: #000000; stroke-width: 0.8"/>
      </g>
     </g>
     <g id="text_6">
      <!-- 10000 -->
      <g transform="translate(606.780846 270.918437) scale(0.1 -0.1)">
       <defs>
        <path id="DejaVuSans-31" d="M 794 531 
L 1825 531 
L 1825 4091 
L 703 3866 
L 703 4441 
L 1819 4666 
L 2450 4666 
L 2450 531 
L 3481 531 
L 3481 0 
L 794 0 
L 794 531 
z
" transform="scale(0.015625)"/>
       </defs>
       <use xlink:href="#DejaVuSans-31"/>
       <use xlink:href="#DejaVuSans-30" transform="translate(63.623047 0)"/>
       <use xlink:href="#DejaVuSans-30" transform="translate(127.246094 0)"/>
       <use xlink:href="#DejaVuSans-30" transform="translate(190.869141 0)"/>
       <use xlink:href="#DejaVuSans-30" transform="translate(254.492188 0)"/>
      </g>
     </g>
    </g>
    <g id="text_7">
     <!-- Iterations -->
     <g transform="translate(335.661406 287.635938) scale(0.14 -0.14)">
      <defs>
       <path id="DejaVuSans-49" d="M 628 4666 
L 1259 4666 
L 1259 0 
L 628 0 
L 628 4666 
z
" transform="scale(0.015625)"/>
       <path id="DejaVuSans-74" d="M 1172 4494 
L 1172 3500 
L 2356 3500 
L 2356 3053 
L 1172 3053 
L 1172 1153 
Q 1172 725 1289 603 
Q 1406 481 1766 481 
L 2356 481 
L 2356 0 
L 1766 0 
Q 1100 0 847 248 
Q 594 497 594 1153 
L 594 3053 
L 172 3053 
L 172 3500 
L 594 3500 
L 594 4494 
L 1172 4494 
z
" transform="scale(0.015625)"/>
       <path id="DejaVuSans-65" d="M 3597 1894 
L 3597 1613 
L 953 1613 
Q 991 1019 1311 708 
Q 1631 397 2203 397 
Q 2534 397 2845 478 
Q 3156 559 3463 722 
L 3463 178 
Q 3153 47 2828 -22 
Q 2503 -91 2169 -91 
Q 1331 -91 842 396 
Q 353 884 353 1716 
Q 353 2575 817 3079 
Q 1281 3584 2069 3584 
Q 2775 3584 3186 3129 
Q 3597 2675 3597 1894 
z
M 3022 2063 
Q 3016 2534 2758 2815 
Q 2500 3097 2075 3097 
Q 1594 3097 1305 2825 
Q 1016 2553 972 2059 
L 3022 2063 
z
" transform="scale(0.015625)"/>
       <path id="DejaVuSans-72" d="M 2631 2963 
Q 2534 3019 2420 3045 
Q 2306 3072 2169 3072 
Q 1681 3072 1420 2755 
Q 1159 2438 1159 1844 
L 1159 0 
L 581 0 
L 581 3500 
L 1159 3500 
L 1159 2956 
Q 1341 3275 1631 3429 
Q 1922 3584 2338 3584 
Q 2397 3584 2469 3576 
Q 2541 3569 2628 3553 
L 2631 2963 
z
" transform="scale(0.015625)"/>
       <path id="DejaVuSans-61" d="M 2194 1759 
Q 1497 1759 1228 1600 
Q 959 1441 959 1056 
Q 959 750 1161 570 
Q 1363 391 1709 391 
Q 2188 391 2477 730 
Q 2766 1069 2766 1631 
L 2766 1759 
L 2194 1759 
z
M 3341 1997 
L 3341 0 
L 2766 0 
L 2766 531 
Q 2569 213 2275 61 
Q 1981 -91 1556 -91 
Q 1019 -91 701 211 
Q 384 513 384 1019 
Q 384 1609 779 1909 
Q 1175 2209 1959 2209 
L 2766 2209 
L 2766 2266 
Q 2766 2663 2505 2880 
Q 2244 3097 1772 3097 
Q 1472 3097 1187 3025 
Q 903 2953 641 2809 
L 641 3341 
Q 956 3463 1253 3523 
Q 1550 3584 1831 3584 
Q 2591 3584 2966 3190 
Q 3341 2797 3341 1997 
z
" transform="scale(0.015625)"/>
       <path id="DejaVuSans-69" d="M 603 3500 
L 1178 3500 
L 1178 0 
L 603 0 
L 603 3500 
z
M 603 4863 
L 1178 4863 
L 1178 4134 
L 603 4134 
L 603 4863 
z
" transform="scale(0.015625)"/>
       <path id="DejaVuSans-6f" d="M 1959 3097 
Q 1497 3097 1228 2736 
Q 959 2375 959 1747 
Q 959 1119 1226 758 
Q 1494 397 1959 397 
Q 2419 397 2687 759 
Q 2956 1122 2956 1747 
Q 2956 2369 2687 2733 
Q 2419 3097 1959 3097 
z
M 1959 3584 
Q 2709 3584 3137 3096 
Q 3566 2609 3566 1747 
Q 3566 888 3137 398 
Q 2709 -91 1959 -91 
Q 1206 -91 779 398 
Q 353 888 353 1747 
Q 353 2609 779 3096 
Q 1206 3584 1959 3584 
z
" transform="scale(0.015625)"/>
       <path id="DejaVuSans-6e" d="M 3513 2113 
L 3513 0 
L 2938 0 
L 2938 2094 
Q 2938 2591 2744 2837 
Q 2550 3084 2163 3084 
Q 1697 3084 1428 2787 
Q 1159 2491 1159 1978 
L 1159 0 
L 581 0 
L 581 3500 
L 1159 3500 
L 1159 2956 
Q 1366 3272 1645 3428 
Q 1925 3584 2291 3584 
Q 2894 3584 3203 3211 
Q 3513 2838 3513 2113 
z
" transform="scale(0.015625)"/>
       <path id="DejaVuSans-73" d="M 2834 3397 
L 2834 2853 
Q 2591 2978 2328 3040 
Q 2066 3103 1784 3103 
Q 1356 3103 1142 2972 
Q 928 2841 928 2578 
Q 928 2378 1081 2264 
Q 1234 2150 1697 2047 
L 1894 2003 
Q 2506 1872 2764 1633 
Q 3022 1394 3022 966 
Q 3022 478 2636 193 
Q 2250 -91 1575 -91 
Q 1294 -91 989 -36 
Q 684 19 347 128 
L 347 722 
Q 666 556 975 473 
Q 1284 391 1588 391 
Q 1994 391 2212 530 
Q 2431 669 2431 922 
Q 2431 1156 2273 1281 
Q 2116 1406 1581 1522 
L 1381 1569 
Q 847 1681 609 1914 
Q 372 2147 372 2553 
Q 372 3047 722 3315 
Q 1072 3584 1716 3584 
Q 2034 3584 2315 3537 
Q 2597 3491 2834 3397 
z
" transform="scale(0.015625)"/>
      </defs>
      <use xlink:href="#DejaVuSans-49"/>
      <use xlink:href="#DejaVuSans-74" transform="translate(29.492188 0)"/>
      <use xlink:href="#DejaVuSans-65" transform="translate(68.701172 0)"/>
      <use xlink:href="#DejaVuSans-72" transform="translate(130.224609 0)"/>
      <use xlink:href="#DejaVuSans-61" transform="translate(171.337891 0)"/>
      <use xlink:href="#DejaVuSans-74" transform="translate(232.617188 0)"/>
      <use xlink:href="#DejaVuSans-69" transform="translate(271.826172 0)"/>
      <use xlink:href="#DejaVuSans-6f" transform="translate(299.609375 0)"/>
      <use xlink:href="#DejaVuSans-6e" transform="translate(360.791016 0)"/>
      <use xlink:href="#DejaVuSans-73" transform="translate(424.169922 0)"/>
     </g>
    </g>
   </g>
   <g id="matplotlib.axis_2">
    <g id="ytick_1">
     <g id="line2d_13">
      <path d="M 90 218.432787 
L 648 218.432787 
" clip-path="url(#pbe2df567fd)" style="fill: none; stroke: #b0b0b0; stroke-width: 0.8; stroke-linecap: square"/>
     </g>
     <g id="line2d_14">
      <defs>
       <path id="m29c4bbc427" d="M 0 0 
L -3.5 0 
" style="stroke: #000000; stroke-width: 0.8"/>
      </defs>
      <g>
       <use xlink:href="#m29c4bbc427" x="90" y="218.432787" style="stroke: #000000; stroke-width: 0.8"/>
      </g>
     </g>
     <g id="text_8">
      <!-- −0.08 -->
      <g transform="translate(52.354687 222.232006) scale(0.1 -0.1)">
       <defs>
        <path id="DejaVuSans-2212" d="M 678 2272 
L 4684 2272 
L 4684 1741 
L 678 1741 
L 678 2272 
z
" transform="scale(0.015625)"/>
        <path id="DejaVuSans-2e" d="M 684 794 
L 1344 794 
L 1344 0 
L 684 0 
L 684 794 
z
" transform="scale(0.015625)"/>
       </defs>
       <use xlink:href="#DejaVuSans-2212"/>
       <use xlink:href="#DejaVuSans-30" transform="translate(83.789062 0)"/>
       <use xlink:href="#DejaVuSans-2e" transform="translate(147.412109 0)"/>
       <use xlink:href="#DejaVuSans-30" transform="translate(179.199219 0)"/>
       <use xlink:href="#DejaVuSans-38" transform="translate(242.822266 0)"/>
      </g>
     </g>
    </g>
    <g id="ytick_2">
     <g id="line2d_15">
      <path d="M 90 174.98459 
L 648 174.98459 
" clip-path="url(#pbe2df567fd)" style="fill: none; stroke: #b0b0b0; stroke-width: 0.8; stroke-linecap: square"/>
     </g>
     <g id="line2d_16">
      <g>
       <use xlink:href="#m29c4bbc427" x="90" y="174.98459" style="stroke: #000000; stroke-width: 0.8"/>
      </g>
     </g>
     <g id="text_9">
      <!-- −0.06 -->
      <g transform="translate(52.354687 178.783809) scale(0.1 -0.1)">
       <use xlink:href="#DejaVuSans-2212"/>
       <use xlink:href="#DejaVuSans-30" transform="translate(83.789062 0)"/>
       <use xlink:href="#DejaVuSans-2e" transform="translate(147.412109 0)"/>
       <use xlink:href="#DejaVuSans-30" transform="translate(179.199219 0)"/>
       <use xlink:href="#DejaVuSans-36" transform="translate(242.822266 0)"/>
      </g>
     </g>
    </g>
    <g id="ytick_3">
     <g id="line2d_17">
      <path d="M 90 131.536394 
L 648 131.536394 
" clip-path="url(#pbe2df567fd)" style="fill: none; stroke: #b0b0b0; stroke-width: 0.8; stroke-linecap: square"/>
     </g>
     <g id="line2d_18">
      <g>
       <use xlink:href="#m29c4bbc427" x="90" y="131.536394" style="stroke: #000000; stroke-width: 0.8"/>
      </g>
     </g>
     <g id="text_10">
      <!-- −0.04 -->
      <g transform="translate(52.354687 135.335612) scale(0.1 -0.1)">
       <use xlink:href="#DejaVuSans-2212"/>
       <use xlink:href="#DejaVuSans-30" transform="translate(83.789062 0)"/>
       <use xlink:href="#DejaVuSans-2e" transform="translate(147.412109 0)"/>
       <use xlink:href="#DejaVuSans-30" transform="translate(179.199219 0)"/>
       <use xlink:href="#DejaVuSans-34" transform="translate(242.822266 0)"/>
      </g>
     </g>
    </g>
    <g id="ytick_4">
     <g id="line2d_19">
      <path d="M 90 88.088197 
L 648 88.088197 
" clip-path="url(#pbe2df567fd)" style="fill: none; stroke: #b0b0b0; stroke-width: 0.8; stroke-linecap: square"/>
     </g>
     <g id="line2d_20">
      <g>
       <use xlink:href="#m29c4bbc427" x="90" y="88.088197" style="stroke: #000000; stroke-width: 0.8"/>
      </g>
     </g>
     <g id="text_11">
      <!-- −0.02 -->
      <g transform="translate(52.354687 91.887416) scale(0.1 -0.1)">
       <use xlink:href="#DejaVuSans-2212"/>
       <use xlink:href="#DejaVuSans-30" transform="translate(83.789062 0)"/>
       <use xlink:href="#DejaVuSans-2e" transform="translate(147.412109 0)"/>
       <use xlink:href="#DejaVuSans-30" transform="translate(179.199219 0)"/>
       <use xlink:href="#DejaVuSans-32" transform="translate(242.822266 0)"/>
      </g>
     </g>
    </g>
    <g id="ytick_5">
     <g id="line2d_21">
      <path d="M 90 44.64 
L 648 44.64 
" clip-path="url(#pbe2df567fd)" style="fill: none; stroke: #b0b0b0; stroke-width: 0.8; stroke-linecap: square"/>
     </g>
     <g id="line2d_22">
      <g>
       <use xlink:href="#m29c4bbc427" x="90" y="44.64" style="stroke: #000000; stroke-width: 0.8"/>
      </g>
     </g>
     <g id="text_12">
      <!-- 0.00 -->
      <g transform="translate(60.734375 48.439219) scale(0.1 -0.1)">
       <use xlink:href="#DejaVuSans-30"/>
       <use xlink:href="#DejaVuSans-2e" transform="translate(63.623047 0)"/>
       <use xlink:href="#DejaVuSans-30" transform="translate(95.410156 0)"/>
       <use xlink:href="#DejaVuSans-30" transform="translate(159.033203 0)"/>
      </g>
     </g>
    </g>
    <g id="text_13">
     <!-- Q-Value$(s_0, a_0)$ -->
     <g transform="translate(45.443125 196.89) rotate(-90) scale(0.14 -0.14)">
      <defs>
       <path id="DejaVuSans-51" d="M 2522 4238 
Q 1834 4238 1429 3725 
Q 1025 3213 1025 2328 
Q 1025 1447 1429 934 
Q 1834 422 2522 422 
Q 3209 422 3611 934 
Q 4013 1447 4013 2328 
Q 4013 3213 3611 3725 
Q 3209 4238 2522 4238 
z
M 3406 84 
L 4238 -825 
L 3475 -825 
L 2784 -78 
Q 2681 -84 2626 -87 
Q 2572 -91 2522 -91 
Q 1538 -91 948 567 
Q 359 1225 359 2328 
Q 359 3434 948 4092 
Q 1538 4750 2522 4750 
Q 3503 4750 4090 4092 
Q 4678 3434 4678 2328 
Q 4678 1516 4351 937 
Q 4025 359 3406 84 
z
" transform="scale(0.015625)"/>
       <path id="DejaVuSans-2d" d="M 313 2009 
L 1997 2009 
L 1997 1497 
L 313 1497 
L 313 2009 
z
" transform="scale(0.015625)"/>
       <path id="DejaVuSans-56" d="M 1831 0 
L 50 4666 
L 709 4666 
L 2188 738 
L 3669 4666 
L 4325 4666 
L 2547 0 
L 1831 0 
z
" transform="scale(0.015625)"/>
       <path id="DejaVuSans-6c" d="M 603 4863 
L 1178 4863 
L 1178 0 
L 603 0 
L 603 4863 
z
" transform="scale(0.015625)"/>
       <path id="DejaVuSans-75" d="M 544 1381 
L 544 3500 
L 1119 3500 
L 1119 1403 
Q 1119 906 1312 657 
Q 1506 409 1894 409 
Q 2359 409 2629 706 
Q 2900 1003 2900 1516 
L 2900 3500 
L 3475 3500 
L 3475 0 
L 2900 0 
L 2900 538 
Q 2691 219 2414 64 
Q 2138 -91 1772 -91 
Q 1169 -91 856 284 
Q 544 659 544 1381 
z
M 1991 3584 
L 1991 3584 
z
" transform="scale(0.015625)"/>
       <path id="DejaVuSans-28" d="M 1984 4856 
Q 1566 4138 1362 3434 
Q 1159 2731 1159 2009 
Q 1159 1288 1364 580 
Q 1569 -128 1984 -844 
L 1484 -844 
Q 1016 -109 783 600 
Q 550 1309 550 2009 
Q 550 2706 781 3412 
Q 1013 4119 1484 4856 
L 1984 4856 
z
" transform="scale(0.015625)"/>
       <path id="DejaVuSans-Oblique-73" d="M 3200 3397 
L 3091 2853 
Q 2863 2978 2609 3040 
Q 2356 3103 2088 3103 
Q 1634 3103 1373 2948 
Q 1113 2794 1113 2528 
Q 1113 2219 1719 2053 
Q 1766 2041 1788 2034 
L 1972 1978 
Q 2547 1819 2739 1644 
Q 2931 1469 2931 1166 
Q 2931 609 2489 259 
Q 2047 -91 1331 -91 
Q 1053 -91 747 -37 
Q 441 16 72 128 
L 184 722 
Q 500 559 806 475 
Q 1113 391 1394 391 
Q 1816 391 2080 572 
Q 2344 753 2344 1031 
Q 2344 1331 1650 1516 
L 1591 1531 
L 1394 1581 
Q 956 1697 753 1886 
Q 550 2075 550 2369 
Q 550 2928 970 3256 
Q 1391 3584 2113 3584 
Q 2397 3584 2667 3537 
Q 2938 3491 3200 3397 
z
" transform="scale(0.015625)"/>
       <path id="DejaVuSans-2c" d="M 750 794 
L 1409 794 
L 1409 256 
L 897 -744 
L 494 -744 
L 750 256 
L 750 794 
z
" transform="scale(0.015625)"/>
       <path id="DejaVuSans-Oblique-61" d="M 3438 1997 
L 3047 0 
L 2472 0 
L 2578 531 
Q 2325 219 2001 64 
Q 1678 -91 1281 -91 
Q 834 -91 548 182 
Q 263 456 263 884 
Q 263 1497 752 1853 
Q 1241 2209 2100 2209 
L 2900 2209 
L 2931 2363 
Q 2938 2388 2941 2417 
Q 2944 2447 2944 2509 
Q 2944 2788 2717 2942 
Q 2491 3097 2081 3097 
Q 1800 3097 1504 3025 
Q 1209 2953 897 2809 
L 997 3341 
Q 1322 3463 1633 3523 
Q 1944 3584 2234 3584 
Q 2853 3584 3176 3315 
Q 3500 3047 3500 2534 
Q 3500 2431 3484 2292 
Q 3469 2153 3438 1997 
z
M 2816 1759 
L 2241 1759 
Q 1534 1759 1195 1570 
Q 856 1381 856 984 
Q 856 709 1029 553 
Q 1203 397 1509 397 
Q 1978 397 2328 733 
Q 2678 1069 2791 1631 
L 2816 1759 
z
" transform="scale(0.015625)"/>
       <path id="DejaVuSans-29" d="M 513 4856 
L 1013 4856 
Q 1481 4119 1714 3412 
Q 1947 2706 1947 2009 
Q 1947 1309 1714 600 
Q 1481 -109 1013 -844 
L 513 -844 
Q 928 -128 1133 580 
Q 1338 1288 1338 2009 
Q 1338 2731 1133 3434 
Q 928 4138 513 4856 
z
" transform="scale(0.015625)"/>
      </defs>
      <use xlink:href="#DejaVuSans-51" transform="translate(0 0.015625)"/>
      <use xlink:href="#DejaVuSans-2d" transform="translate(78.710938 0.015625)"/>
      <use xlink:href="#DejaVuSans-56" transform="translate(114.794922 0.015625)"/>
      <use xlink:href="#DejaVuSans-61" transform="translate(183.203125 0.015625)"/>
      <use xlink:href="#DejaVuSans-6c" transform="translate(244.482422 0.015625)"/>
      <use xlink:href="#DejaVuSans-75" transform="translate(272.265625 0.015625)"/>
      <use xlink:href="#DejaVuSans-65" transform="translate(335.644531 0.015625)"/>
      <use xlink:href="#DejaVuSans-28" transform="translate(397.167969 0.015625)"/>
      <use xlink:href="#DejaVuSans-Oblique-73" transform="translate(436.181641 0.015625)"/>
      <use xlink:href="#DejaVuSans-30" transform="translate(488.28125 -16.390625) scale(0.7)"/>
      <use xlink:href="#DejaVuSans-2c" transform="translate(535.551758 0.015625)"/>
      <use xlink:href="#DejaVuSans-Oblique-61" transform="translate(586.821289 0.015625)"/>
      <use xlink:href="#DejaVuSans-30" transform="translate(648.100586 -16.390625) scale(0.7)"/>
      <use xlink:href="#DejaVuSans-29" transform="translate(695.371094 0.015625)"/>
     </g>
    </g>
   </g>
   <g id="line2d_23">
    <path d="M 115.363636 44.64 
L 115.566566 50.527231 
L 115.617298 50.527231 
L 116.175354 70.467308 
L 116.327551 70.467308 
L 116.784142 82.056153 
L 116.834874 82.056153 
L 117.240733 93.848753 
L 117.443663 95.885961 
L 117.494395 95.885961 
L 117.646592 96.728133 
L 117.748057 96.728133 
L 118.052451 100.601062 
L 118.103183 100.601062 
L 118.25538 100.912159 
L 118.306112 100.912159 
L 118.559774 102.060986 
L 118.610507 102.060986 
L 118.762704 102.539592 
L 118.813436 102.539592 
L 119.016365 104.685383 
L 119.168562 105.618076 
L 119.219295 106.062909 
L 119.371492 108.865144 
L 119.422224 108.865144 
L 119.574421 109.65783 
L 119.625153 109.65783 
L 119.77735 109.971215 
L 120.233942 109.971215 
L 120.589068 111.735194 
L 120.6398 111.735194 
L 120.893462 112.703339 
L 120.994927 112.703339 
L 121.248588 113.715293 
L 121.350053 113.715293 
L 121.50225 114.533333 
L 121.958841 114.533333 
L 122.111038 115.801781 
L 122.313968 117.430408 
L 122.415432 117.430408 
L 122.567629 118.417313 
L 122.669094 118.417313 
L 122.821291 118.922677 
L 122.872024 118.922677 
L 123.074953 121.386176 
L 123.176418 121.386176 
L 123.633009 123.548813 
L 123.835938 123.548813 
L 124.038868 124.14119 
L 124.0896 124.410135 
L 124.241797 125.48964 
L 124.546191 126.372441 
L 124.799853 126.372441 
L 125.002782 126.867024 
L 125.053514 126.867024 
L 125.205711 127.573825 
L 125.256444 127.573825 
L 125.560838 128.554744 
L 125.61157 128.554744 
L 125.8145 128.982552 
L 125.915964 128.982552 
L 126.068161 129.399675 
L 126.118894 129.399675 
L 126.47402 130.47375 
L 126.626217 130.47375 
L 126.778414 130.674135 
L 126.879879 130.674135 
L 127.032076 131.276471 
L 127.33647 132.072638 
L 127.488667 132.072638 
L 127.640864 132.508463 
L 127.691596 132.508463 
L 127.843793 132.724534 
L 127.894526 132.724534 
L 128.046723 133.352688 
L 128.148188 133.352688 
L 128.401849 133.956732 
L 128.452582 133.956732 
L 128.85844 135.205262 
L 128.909173 135.205262 
L 129.06137 136.079161 
L 129.467229 136.164459 
L 129.670158 136.389108 
L 129.771623 136.389108 
L 129.92382 136.522988 
L 130.126749 136.522988 
L 130.278946 137.282275 
L 130.380411 137.282275 
L 130.532608 137.444339 
L 130.58334 137.444339 
L 131.090664 138.972786 
L 131.192128 138.972786 
L 131.44579 139.409518 
L 132.206775 139.409518 
L 132.409705 140.184235 
L 132.612634 140.184235 
L 132.815563 140.709111 
L 133.018493 140.709111 
L 133.17069 142.074883 
L 133.272154 142.074883 
L 133.475084 143.037179 
L 133.525816 143.037179 
L 133.83021 143.799129 
L 134.03314 143.799129 
L 134.236069 144.125915 
L 134.388266 144.125915 
L 134.641928 144.780771 
L 134.794125 144.780771 
L 135.047787 145.212064 
L 135.098519 145.212064 
L 135.301448 145.481762 
L 135.352181 145.481762 
L 135.605842 145.889533 
L 135.707307 145.889533 
L 135.859504 146.034538 
L 135.910236 146.034538 
L 136.214631 146.733292 
L 136.41756 146.733292 
L 136.569757 147.109237 
L 137.127813 147.109237 
L 137.584404 148.335812 
L 137.990263 149.13428 
L 138.14246 149.13428 
L 138.294657 149.26345 
L 138.396121 149.26345 
L 138.649783 149.665322 
L 138.80198 149.665322 
L 138.954177 149.802198 
L 139.157107 149.802198 
L 139.461501 150.38691 
L 139.613698 150.38691 
L 139.765895 150.543667 
L 139.816627 150.543667 
L 140.070289 151.009648 
L 140.121021 151.009648 
L 140.273218 151.151416 
L 140.374683 151.151416 
L 140.628345 151.585457 
L 140.882006 151.585457 
L 141.034203 151.769262 
L 141.135668 151.769262 
L 141.287865 151.969278 
L 141.693724 151.969278 
L 141.845921 152.446439 
L 141.998118 152.668684 
L 142.201047 152.668684 
L 142.353244 152.891791 
L 142.809836 152.891791 
L 143.063497 153.814265 
L 143.621553 153.814265 
L 143.77375 154.279082 
L 143.976679 154.68785 
L 144.027412 154.68785 
L 144.179609 154.878779 
L 144.230341 154.878779 
L 144.382538 155.064221 
L 144.433271 155.064221 
L 144.686932 155.605554 
L 144.839129 155.605554 
L 144.991326 156.127118 
L 145.042059 156.127118 
L 145.194256 156.448262 
L 145.752312 156.448262 
L 145.955241 157.299606 
L 146.259635 157.299606 
L 146.462564 157.727649 
L 146.614761 157.727649 
L 146.766959 157.953071 
L 146.868423 157.953071 
L 147.071353 158.421268 
L 147.22355 158.421268 
L 147.426479 158.867145 
L 147.527944 158.867145 
L 147.680141 159.085283 
L 147.730873 159.085283 
L 147.88307 159.296667 
L 148.086 159.296667 
L 148.238197 159.523043 
L 148.441126 159.523043 
L 148.593323 159.767269 
L 148.846985 159.767269 
L 148.999182 160.024164 
L 149.100646 160.024164 
L 149.303576 160.524005 
L 149.506505 160.524005 
L 149.658702 160.762369 
L 150.064561 160.762369 
L 150.26749 161.298912 
L 150.47042 161.298912 
L 150.622617 161.820467 
L 150.724081 161.820467 
L 150.977743 162.497565 
L 151.079208 162.497565 
L 151.231405 162.706372 
L 151.33287 162.706372 
L 151.535799 163.122354 
L 151.687996 163.122354 
L 151.840193 163.324472 
L 152.043122 163.324472 
L 152.19532 164.065488 
L 152.246052 164.065488 
L 152.398249 164.223564 
L 153.768022 164.223564 
L 153.920219 164.533568 
L 154.123149 164.533568 
L 154.275346 164.853177 
L 154.630472 164.853177 
L 154.833402 165.518865 
L 155.492922 165.518865 
L 155.645119 165.884956 
L 155.797316 165.884956 
L 155.949513 166.237306 
L 156.456837 166.237306 
L 156.609034 166.624616 
L 156.710498 166.624616 
L 156.862695 166.994716 
L 157.522216 166.994716 
L 157.674413 167.407439 
L 157.775878 167.407439 
L 157.928075 167.805121 
L 158.131004 167.805121 
L 158.283201 168.193643 
L 158.638327 168.193643 
L 158.841257 169.260923 
L 159.044186 169.260923 
L 159.247116 170.367283 
L 159.855904 170.367283 
L 160.008101 170.917231 
L 160.667621 170.917231 
L 160.870551 171.506208 
L 161.124212 171.506208 
L 161.276409 171.793127 
L 161.327142 171.793127 
L 161.580804 172.748297 
L 161.986662 172.748297 
L 162.189592 173.20081 
L 162.544718 173.20081 
L 162.747647 173.676327 
L 162.950577 173.676327 
L 163.102774 173.904323 
L 163.204239 173.904323 
L 163.407168 174.535494 
L 163.66083 174.535494 
L 163.914491 175.1338 
L 164.269618 175.1338 
L 164.421815 175.34331 
L 164.52328 175.34331 
L 164.776941 175.939895 
L 164.878406 175.939895 
L 165.030603 176.122159 
L 165.334997 176.122159 
L 165.537927 176.532808 
L 166.654038 176.532808 
L 166.806235 176.803232 
L 166.856968 176.803232 
L 167.009165 177.064998 
L 167.161362 177.064998 
L 167.364291 177.558759 
L 167.465756 177.558759 
L 167.617953 178.008576 
L 168.125276 178.008576 
L 168.277473 178.254665 
L 168.784797 178.254665 
L 168.936994 178.530866 
L 169.190655 178.530866 
L 169.444317 179.303537 
L 169.697979 179.303537 
L 169.850176 179.547146 
L 170.15457 179.547146 
L 170.357499 180.034283 
L 170.864823 180.034283 
L 171.01702 180.294927 
L 171.422879 180.294927 
L 171.575076 180.571963 
L 172.234596 180.571963 
L 172.437526 181.159072 
L 173.198511 181.159072 
L 173.350708 181.473374 
L 173.655102 181.473374 
L 173.807299 181.790195 
L 175.024875 181.790195 
L 175.177072 182.194707 
L 175.98879 182.194707 
L 176.140987 182.627921 
L 177.358563 182.627921 
L 177.662957 184.683703 
L 178.728336 184.683703 
L 178.880534 185.083579 
L 179.590786 185.083579 
L 179.742983 185.509213 
L 179.945913 185.509213 
L 180.09811 185.912132 
L 182.228868 185.912132 
L 182.381065 186.436541 
L 184.664021 186.436541 
L 184.86695 187.691354 
L 185.577203 187.691354 
L 185.780133 188.812777 
L 186.135259 188.812777 
L 186.338188 189.788442 
L 188.570412 189.788442 
L 188.722609 190.367767 
L 188.97627 190.367767 
L 189.1792 191.414986 
L 189.229932 191.414986 
L 189.382129 191.876392 
L 191.462155 191.876392 
L 191.614352 192.982105 
L 191.715817 192.982105 
L 191.868014 193.46696 
L 192.679732 193.46696 
L 192.831929 193.966768 
L 193.237787 193.966768 
L 193.389984 195.298024 
L 193.592914 195.298024 
L 193.745111 195.677957 
L 194.81049 195.677957 
L 194.962687 196.104585 
L 196.484658 196.104585 
L 196.636855 196.604598 
L 196.687587 196.604598 
L 196.839784 197.065438 
L 198.108093 197.065438 
L 198.311022 198.036841 
L 201.862286 198.036841 
L 202.014483 198.675283 
L 202.572539 198.675283 
L 202.724736 199.291 
L 203.181327 199.291 
L 203.333524 199.883517 
L 203.688651 199.883517 
L 203.840848 200.442793 
L 204.043777 200.442793 
L 204.195974 200.968377 
L 205.312086 200.968377 
L 205.464283 201.514014 
L 206.783324 201.514014 
L 206.935521 202.094843 
L 207.189183 202.094843 
L 207.34138 202.640943 
L 207.493577 202.640943 
L 207.645774 203.15176 
L 208.0009 203.15176 
L 208.153097 203.639874 
L 210.436053 203.639874 
L 210.58825 204.222285 
L 210.689714 204.222285 
L 210.841911 204.761138 
L 211.197038 204.761138 
L 211.349235 205.274282 
L 212.820473 205.274282 
L 212.97267 205.830361 
L 213.936585 205.830361 
L 214.088782 206.390868 
L 214.849767 206.390868 
L 215.001964 206.945769 
L 215.154161 206.945769 
L 215.306358 207.927152 
L 215.712217 207.927152 
L 215.864414 208.372366 
L 216.371737 208.372366 
L 216.523934 208.802397 
L 217.690778 208.802397 
L 217.842975 209.256092 
L 218.350299 209.256092 
L 218.502496 209.7027 
L 220.582522 209.7027 
L 220.785451 211.103431 
L 222.611816 211.103431 
L 222.764013 211.5781 
L 223.169872 211.5781 
L 223.322069 212.033935 
L 224.996236 212.033935 
L 225.148433 212.532405 
L 225.909418 212.532405 
L 226.061615 213.025891 
L 226.771868 213.025891 
L 226.924065 213.514442 
L 227.279192 213.514442 
L 227.482121 214.396166 
L 227.634318 214.396166 
L 227.786515 214.789783 
L 227.989444 214.789783 
L 228.141641 215.159994 
L 228.801162 215.159994 
L 228.953359 215.531289 
L 229.663612 215.531289 
L 229.815809 215.912691 
L 232.048032 215.912691 
L 232.200229 216.789398 
L 232.85975 216.789398 
L 233.011947 217.206027 
L 234.178791 217.206027 
L 234.330988 217.651631 
L 235.091973 217.651631 
L 235.24417 218.093925 
L 235.90369 218.093925 
L 236.055887 218.531795 
L 236.816873 218.531795 
L 236.96907 218.965287 
L 237.730055 218.965287 
L 237.882252 219.394444 
L 238.592505 219.394444 
L 238.744702 219.819309 
L 239.505687 219.819309 
L 239.657884 220.239926 
L 240.418869 220.239926 
L 240.571066 220.656337 
L 240.824728 220.656337 
L 240.976925 221.047751 
L 242.042304 221.047751 
L 242.194501 221.456084 
L 242.955486 221.456084 
L 243.107683 221.860333 
L 243.767204 221.860333 
L 243.919401 222.260539 
L 244.629654 222.260539 
L 244.781851 222.656744 
L 245.542836 222.656744 
L 245.695033 223.048986 
L 245.796498 223.048986 
L 245.948695 223.414043 
L 247.115539 223.414043 
L 247.267736 223.798713 
L 248.028721 223.798713 
L 248.180918 224.179536 
L 248.282383 224.179536 
L 248.43458 224.535461 
L 248.485312 224.535461 
L 248.637509 224.86452 
L 249.195565 224.86452 
L 249.347762 225.191146 
L 251.072662 225.191146 
L 251.224859 225.555449 
L 251.985844 225.555449 
L 252.138041 225.918705 
L 252.696097 225.918705 
L 252.848294 226.272673 
L 253.710744 226.272673 
L 253.913673 226.952694 
L 254.06587 226.952694 
L 254.218067 227.256596 
L 256.196629 227.256596 
L 256.348826 227.60284 
L 256.501023 227.60284 
L 256.65322 227.923671 
L 257.51567 227.923671 
L 257.667867 228.249542 
L 258.885443 228.249542 
L 259.03764 228.585856 
L 259.747893 228.585856 
L 259.90009 228.918808 
L 260.610343 228.918808 
L 260.76254 229.248429 
L 261.523525 229.248429 
L 261.675722 229.574755 
L 262.335243 229.574755 
L 262.538172 230.193375 
L 262.842566 230.193375 
L 262.994763 230.476505 
L 264.668931 230.476505 
L 264.821128 230.79055 
L 265.480648 230.79055 
L 265.632845 231.101454 
L 266.343098 231.101454 
L 266.495295 231.40856 
L 267.25628 231.40856 
L 267.408477 231.713285 
L 268.11873 231.713285 
L 268.270927 232.014962 
L 268.930448 232.014962 
L 269.082645 232.313622 
L 269.691433 232.313622 
L 269.84363 232.609295 
L 270.50315 232.609295 
L 270.655347 232.902012 
L 271.213403 232.902012 
L 271.416333 233.453198 
L 272.786106 233.453198 
L 272.938303 233.737476 
L 273.597823 233.737476 
L 273.75002 234.018911 
L 274.358809 234.018911 
L 274.511006 234.297532 
L 275.221258 234.297532 
L 275.373456 234.573366 
L 275.931511 234.573366 
L 276.083708 234.846443 
L 276.692497 234.846443 
L 276.844694 235.116788 
L 277.402749 235.116788 
L 277.554946 235.38443 
L 278.214467 235.38443 
L 278.366664 235.649395 
L 278.569593 235.649395 
L 278.72179 235.898778 
L 279.736437 235.898778 
L 279.888634 236.1586 
L 280.64962 236.1586 
L 280.801817 236.415824 
L 281.30914 236.415824 
L 281.461337 236.670476 
L 282.070125 236.670476 
L 282.222322 236.922581 
L 282.780378 236.922581 
L 282.932575 237.172165 
L 283.490631 237.172165 
L 283.642828 237.419253 
L 284.099419 237.419253 
L 284.251616 237.658047 
L 284.353081 237.658047 
L 284.505278 237.881519 
L 285.672122 237.881519 
L 285.824319 238.121514 
L 286.483839 238.121514 
L 286.636036 238.359108 
L 287.14336 238.359108 
L 287.295557 238.594327 
L 287.853613 238.594327 
L 288.00581 238.827194 
L 288.614598 238.827194 
L 288.817527 239.268312 
L 289.933639 239.268312 
L 290.085836 239.69836 
L 291.303412 239.69836 
L 291.455609 239.920186 
L 292.013665 239.920186 
L 292.165862 240.139794 
L 292.673186 240.139794 
L 292.825383 240.357206 
L 293.434171 240.357206 
L 293.586368 240.572444 
L 294.144424 240.572444 
L 294.296621 240.785529 
L 294.854676 240.785529 
L 295.006873 240.996484 
L 295.057606 240.996484 
L 295.209803 241.193522 
L 296.02152 241.193522 
L 296.173717 241.395022 
L 296.88397 241.395022 
L 297.036167 241.599882 
L 297.543491 241.599882 
L 297.695688 241.802693 
L 297.847885 241.802693 
L 298.000082 241.994275 
L 298.913264 241.994275 
L 299.065461 242.193142 
L 299.623517 242.193142 
L 299.775714 242.39002 
L 300.283037 242.39002 
L 300.435234 242.58493 
L 300.99329 242.58493 
L 301.145487 242.77789 
L 301.652811 242.77789 
L 301.805008 242.968921 
L 302.464528 242.968921 
L 302.667458 243.332949 
L 303.732837 243.332949 
L 303.885034 243.51843 
L 304.392357 243.51843 
L 304.544554 243.702055 
L 305.051878 243.702055 
L 305.204075 243.883845 
L 305.812863 243.883845 
L 305.96506 244.063816 
L 306.421651 244.063816 
L 306.573848 244.241988 
L 307.131904 244.241988 
L 307.284101 244.418378 
L 307.740692 244.418378 
L 307.892889 244.593004 
L 308.450945 244.593004 
L 308.603142 244.765884 
L 309.110466 244.765884 
L 309.262663 244.937035 
L 309.769986 244.937035 
L 309.922183 245.106474 
L 310.429507 245.106474 
L 310.581704 245.274219 
L 311.139759 245.274219 
L 311.291956 245.440287 
L 311.79928 245.440287 
L 311.951477 245.604694 
L 312.509533 245.604694 
L 312.66173 245.767457 
L 312.915392 245.767457 
L 313.067589 245.922425 
L 313.930038 245.922425 
L 314.082235 246.08201 
L 314.843221 246.08201 
L 314.995418 246.24 
L 317.785697 246.24 
L 317.937894 246.044356 
L 325.141887 246.044356 
L 325.294084 243.324003 
L 332.142951 243.324003 
L 332.295148 240.819124 
L 343.15187 240.819124 
L 343.304067 238.564674 
L 364.814581 238.564674 
L 364.966778 236.535669 
L 374.098601 236.535669 
L 374.250798 234.709565 
L 389.064643 234.709565 
L 389.21684 233.066071 
L 392.615907 233.066071 
L 392.768104 231.586927 
L 407.784878 231.586927 
L 407.937076 230.255697 
L 429.041731 230.255697 
L 429.193928 229.05759 
L 431.121758 229.05759 
L 431.273955 227.979294 
L 432.643728 227.979294 
L 432.795925 227.008827 
L 444.058506 227.008827 
L 444.210703 226.135407 
L 452.378611 226.135407 
L 452.530808 225.349329 
L 470.591523 225.349329 
L 470.74372 224.641859 
L 511.989117 224.641859 
L 512.141314 224.005136 
L 553.843303 224.005136 
L 553.9955 223.432085 
L 554.147697 223.432085 
L 554.299894 222.916339 
L 581.746093 222.916339 
L 581.89829 222.452168 
L 622.636364 222.452168 
L 622.636364 222.452168 
" clip-path="url(#pbe2df567fd)" style="fill: none; stroke: #0000ff; stroke-width: 2; stroke-linecap: square"/>
   </g>
   <g id="patch_3">
    <path d="M 90 256.32 
L 90 34.56 
" style="fill: none; stroke: #000000; stroke-width: 0.8; stroke-linejoin: miter; stroke-linecap: square"/>
   </g>
   <g id="patch_4">
    <path d="M 648 256.32 
L 648 34.56 
" style="fill: none; stroke: #000000; stroke-width: 0.8; stroke-linejoin: miter; stroke-linecap: square"/>
   </g>
   <g id="patch_5">
    <path d="M 90 256.32 
L 648 256.32 
" style="fill: none; stroke: #000000; stroke-width: 0.8; stroke-linejoin: miter; stroke-linecap: square"/>
   </g>
   <g id="patch_6">
    <path d="M 90 34.56 
L 648 34.56 
" style="fill: none; stroke: #000000; stroke-width: 0.8; stroke-linejoin: miter; stroke-linecap: square"/>
   </g>
   <g id="text_14">
    <!-- Q_learning Q-Value Convergence -->
    <g transform="translate(270.244687 28.56) scale(0.12 -0.12)">
     <defs>
      <path id="DejaVuSans-5f" d="M 3263 -1063 
L 3263 -1509 
L -63 -1509 
L -63 -1063 
L 3263 -1063 
z
" transform="scale(0.015625)"/>
      <path id="DejaVuSans-67" d="M 2906 1791 
Q 2906 2416 2648 2759 
Q 2391 3103 1925 3103 
Q 1463 3103 1205 2759 
Q 947 2416 947 1791 
Q 947 1169 1205 825 
Q 1463 481 1925 481 
Q 2391 481 2648 825 
Q 2906 1169 2906 1791 
z
M 3481 434 
Q 3481 -459 3084 -895 
Q 2688 -1331 1869 -1331 
Q 1566 -1331 1297 -1286 
Q 1028 -1241 775 -1147 
L 775 -588 
Q 1028 -725 1275 -790 
Q 1522 -856 1778 -856 
Q 2344 -856 2625 -561 
Q 2906 -266 2906 331 
L 2906 616 
Q 2728 306 2450 153 
Q 2172 0 1784 0 
Q 1141 0 747 490 
Q 353 981 353 1791 
Q 353 2603 747 3093 
Q 1141 3584 1784 3584 
Q 2172 3584 2450 3431 
Q 2728 3278 2906 2969 
L 2906 3500 
L 3481 3500 
L 3481 434 
z
" transform="scale(0.015625)"/>
      <path id="DejaVuSans-20" transform="scale(0.015625)"/>
      <path id="DejaVuSans-43" d="M 4122 4306 
L 4122 3641 
Q 3803 3938 3442 4084 
Q 3081 4231 2675 4231 
Q 1875 4231 1450 3742 
Q 1025 3253 1025 2328 
Q 1025 1406 1450 917 
Q 1875 428 2675 428 
Q 3081 428 3442 575 
Q 3803 722 4122 1019 
L 4122 359 
Q 3791 134 3420 21 
Q 3050 -91 2638 -91 
Q 1578 -91 968 557 
Q 359 1206 359 2328 
Q 359 3453 968 4101 
Q 1578 4750 2638 4750 
Q 3056 4750 3426 4639 
Q 3797 4528 4122 4306 
z
" transform="scale(0.015625)"/>
      <path id="DejaVuSans-76" d="M 191 3500 
L 800 3500 
L 1894 563 
L 2988 3500 
L 3597 3500 
L 2284 0 
L 1503 0 
L 191 3500 
z
" transform="scale(0.015625)"/>
      <path id="DejaVuSans-63" d="M 3122 3366 
L 3122 2828 
Q 2878 2963 2633 3030 
Q 2388 3097 2138 3097 
Q 1578 3097 1268 2742 
Q 959 2388 959 1747 
Q 959 1106 1268 751 
Q 1578 397 2138 397 
Q 2388 397 2633 464 
Q 2878 531 3122 666 
L 3122 134 
Q 2881 22 2623 -34 
Q 2366 -91 2075 -91 
Q 1284 -91 818 406 
Q 353 903 353 1747 
Q 353 2603 823 3093 
Q 1294 3584 2113 3584 
Q 2378 3584 2631 3529 
Q 2884 3475 3122 3366 
z
" transform="scale(0.015625)"/>
     </defs>
     <use xlink:href="#DejaVuSans-51"/>
     <use xlink:href="#DejaVuSans-5f" transform="translate(78.710938 0)"/>
     <use xlink:href="#DejaVuSans-6c" transform="translate(128.710938 0)"/>
     <use xlink:href="#DejaVuSans-65" transform="translate(156.494141 0)"/>
     <use xlink:href="#DejaVuSans-61" transform="translate(218.017578 0)"/>
     <use xlink:href="#DejaVuSans-72" transform="translate(279.296875 0)"/>
     <use xlink:href="#DejaVuSans-6e" transform="translate(318.660156 0)"/>
     <use xlink:href="#DejaVuSans-69" transform="translate(382.039062 0)"/>
     <use xlink:href="#DejaVuSans-6e" transform="translate(409.822266 0)"/>
     <use xlink:href="#DejaVuSans-67" transform="translate(473.201172 0)"/>
     <use xlink:href="#DejaVuSans-20" transform="translate(536.677734 0)"/>
     <use xlink:href="#DejaVuSans-51" transform="translate(568.464844 0)"/>
     <use xlink:href="#DejaVuSans-2d" transform="translate(649.925781 0)"/>
     <use xlink:href="#DejaVuSans-56" transform="translate(680.134766 0)"/>
     <use xlink:href="#DejaVuSans-61" transform="translate(740.792969 0)"/>
     <use xlink:href="#DejaVuSans-6c" transform="translate(802.072266 0)"/>
     <use xlink:href="#DejaVuSans-75" transform="translate(829.855469 0)"/>
     <use xlink:href="#DejaVuSans-65" transform="translate(893.234375 0)"/>
     <use xlink:href="#DejaVuSans-20" transform="translate(954.757812 0)"/>
     <use xlink:href="#DejaVuSans-43" transform="translate(986.544922 0)"/>
     <use xlink:href="#DejaVuSans-6f" transform="translate(1056.369141 0)"/>
     <use xlink:href="#DejaVuSans-6e" transform="translate(1117.550781 0)"/>
     <use xlink:href="#DejaVuSans-76" transform="translate(1180.929688 0)"/>
     <use xlink:href="#DejaVuSans-65" transform="translate(1240.109375 0)"/>
     <use xlink:href="#DejaVuSans-72" transform="translate(1301.632812 0)"/>
     <use xlink:href="#DejaVuSans-67" transform="translate(1340.996094 0)"/>
     <use xlink:href="#DejaVuSans-65" transform="translate(1404.472656 0)"/>
     <use xlink:href="#DejaVuSans-6e" transform="translate(1465.996094 0)"/>
     <use xlink:href="#DejaVuSans-63" transform="translate(1529.375 0)"/>
     <use xlink:href="#DejaVuSans-65" transform="translate(1584.355469 0)"/>
    </g>
   </g>
  </g>
 </g>
 <defs>
  <clipPath id="pbe2df567fd">
   <rect x="90" y="34.56" width="558" height="221.76"/>
  </clipPath>
 </defs>
</svg>
