<?xml version="1.0" encoding="utf-8" standalone="no"?>
<!DOCTYPE svg PUBLIC "-//W3C//DTD SVG 1.1//EN"
  "http://www.w3.org/Graphics/SVG/1.1/DTD/svg11.dtd">
<svg xmlns:xlink="http://www.w3.org/1999/xlink" width="720pt" height="432pt" viewBox="0 0 720 432" xmlns="http://www.w3.org/2000/svg" version="1.1">
 <metadata>
  <rdf:RDF xmlns:dc="http://purl.org/dc/elements/1.1/" xmlns:cc="http://creativecommons.org/ns#" xmlns:rdf="http://www.w3.org/1999/02/22-rdf-syntax-ns#">
   <cc:Work>
    <dc:type rdf:resource="http://purl.org/dc/dcmitype/StillImage"/>
    <dc:date>2025-12-06T08:19:03.124255</dc:date>
    <dc:format>image/svg+xml</dc:format>
    <dc:creator>
     <cc:Agent>
      <dc:title>Matplotlib v3.10.7, https://matplotlib.org/</dc:title>
     </cc:Agent>
    </dc:creator>
   </cc:Work>
  </rdf:RDF>
 </metadata>
 <defs>
  <style type="text/css">*{stroke-linejoin: round; stroke-linecap: butt}</style>
 </defs>
 <g id="figure_1">
  <g id="patch_1">
   <path d="M 0 432 
L 720 432 
L 720 0 
L 0 0 
z
" style="fill: #ffffff"/>
  </g>
  <g id="axes_1">
   <g id="patch_2">
    <path d="M 90 384.48 
L 648 384.48 
L 648 51.84 
L 90 51.84 
z
" style="fill: #ffffff"/>
   </g>
   <g id="matplotlib.axis_1">
    <g id="xtick_1">
     <g id="line2d_1">
      <path d="M 115.363636 384.48 
L 115.363636 51.84 
" clip-path="url(#p9b5be8e385)" style="fill: none; stroke-dasharray: 2.96,1.28; stroke-dashoffset: 0; stroke: #b0b0b0; stroke-opacity: 0.7; stroke-width: 0.8"/>
     </g>
     <g id="line2d_2">
      <defs>
       <path id="me9cd77e178" d="M 0 0 
L 0 3.5 
" style="stroke: #000000; stroke-width: 0.8"/>
      </defs>
      <g>
       <use xlink:href="#me9cd77e178" x="115.363636" y="384.48" style="stroke: #000000; stroke-width: 0.8"/>
      </g>
     </g>
     <g id="text_1">
      <!-- 0 -->
      <g transform="translate(112.182386 399.078438) scale(0.1 -0.1)">
       <defs>
        <path id="DejaVuSans-30" d="M 2034 4250 
Q 1547 4250 1301 3770 
Q 1056 3291 1056 2328 
Q 1056 1369 1301 889 
Q 1547 409 2034 409 
Q 2525 409 2770 889 
Q 3016 1369 3016 2328 
Q 3016 3291 2770 3770 
Q 2525 4250 2034 4250 
z
M 2034 4750 
Q 2819 4750 3233 4129 
Q 3647 3509 3647 2328 
Q 3647 1150 3233 529 
Q 2819 -91 2034 -91 
Q 1250 -91 836 529 
Q 422 1150 422 2328 
Q 422 3509 836 4129 
Q 1250 4750 2034 4750 
z
" transform="scale(0.015625)"/>
       </defs>
       <use xlink:href="#DejaVuSans-30"/>
      </g>
     </g>
    </g>
    <g id="xtick_2">
     <g id="line2d_3">
      <path d="M 183 384.48 
L 183 51.84 
" clip-path="url(#p9b5be8e385)" style="fill: none; stroke-dasharray: 2.96,1.28; stroke-dashoffset: 0; stroke: #b0b0b0; stroke-opacity: 0.7; stroke-width: 0.8"/>
     </g>
     <g id="line2d_4">
      <g>
       <use xlink:href="#me9cd77e178" x="183" y="384.48" style="stroke: #000000; stroke-width: 0.8"/>
      </g>
     </g>
     <g id="text_2">
      <!-- 200 -->
      <g transform="translate(173.45625 399.078438) scale(0.1 -0.1)">
       <defs>
        <path id="DejaVuSans-32" d="M 1228 531 
L 3431 531 
L 3431 0 
L 469 0 
L 469 531 
Q 828 903 1448 1529 
Q 2069 2156 2228 2338 
Q 2531 2678 2651 2914 
Q 2772 3150 2772 3378 
Q 2772 3750 2511 3984 
Q 2250 4219 1831 4219 
Q 1534 4219 1204 4116 
Q 875 4013 500 3803 
L 500 4441 
Q 881 4594 1212 4672 
Q 1544 4750 1819 4750 
Q 2544 4750 2975 4387 
Q 3406 4025 3406 3419 
Q 3406 3131 3298 2873 
Q 3191 2616 2906 2266 
Q 2828 2175 2409 1742 
Q 1991 1309 1228 531 
z
" transform="scale(0.015625)"/>
       </defs>
       <use xlink:href="#DejaVuSans-32"/>
       <use xlink:href="#DejaVuSans-30" transform="translate(63.623047 0)"/>
       <use xlink:href="#DejaVuSans-30" transform="translate(127.246094 0)"/>
      </g>
     </g>
    </g>
    <g id="xtick_3">
     <g id="line2d_5">
      <path d="M 250.636364 384.48 
L 250.636364 51.84 
" clip-path="url(#p9b5be8e385)" style="fill: none; stroke-dasharray: 2.96,1.28; stroke-dashoffset: 0; stroke: #b0b0b0; stroke-opacity: 0.7; stroke-width: 0.8"/>
     </g>
     <g id="line2d_6">
      <g>
       <use xlink:href="#me9cd77e178" x="250.636364" y="384.48" style="stroke: #000000; stroke-width: 0.8"/>
      </g>
     </g>
     <g id="text_3">
      <!-- 400 -->
      <g transform="translate(241.092614 399.078438) scale(0.1 -0.1)">
       <defs>
        <path id="DejaVuSans-34" d="M 2419 4116 
L 825 1625 
L 2419 1625 
L 2419 4116 
z
M 2253 4666 
L 3047 4666 
L 3047 1625 
L 3713 1625 
L 3713 1100 
L 3047 1100 
L 3047 0 
L 2419 0 
L 2419 1100 
L 313 1100 
L 313 1709 
L 2253 4666 
z
" transform="scale(0.015625)"/>
       </defs>
       <use xlink:href="#DejaVuSans-34"/>
       <use xlink:href="#DejaVuSans-30" transform="translate(63.623047 0)"/>
       <use xlink:href="#DejaVuSans-30" transform="translate(127.246094 0)"/>
      </g>
     </g>
    </g>
    <g id="xtick_4">
     <g id="line2d_7">
      <path d="M 318.272727 384.48 
L 318.272727 51.84 
" clip-path="url(#p9b5be8e385)" style="fill: none; stroke-dasharray: 2.96,1.28; stroke-dashoffset: 0; stroke: #b0b0b0; stroke-opacity: 0.7; stroke-width: 0.8"/>
     </g>
     <g id="line2d_8">
      <g>
       <use xlink:href="#me9cd77e178" x="318.272727" y="384.48" style="stroke: #000000; stroke-width: 0.8"/>
      </g>
     </g>
     <g id="text_4">
      <!-- 600 -->
      <g transform="translate(308.728977 399.078438) scale(0.1 -0.1)">
       <defs>
        <path id="DejaVuSans-36" d="M 2113 2584 
Q 1688 2584 1439 2293 
Q 1191 2003 1191 1497 
Q 1191 994 1439 701 
Q 1688 409 2113 409 
Q 2538 409 2786 701 
Q 3034 994 3034 1497 
Q 3034 2003 2786 2293 
Q 2538 2584 2113 2584 
z
M 3366 4563 
L 3366 3988 
Q 3128 4100 2886 4159 
Q 2644 4219 2406 4219 
Q 1781 4219 1451 3797 
Q 1122 3375 1075 2522 
Q 1259 2794 1537 2939 
Q 1816 3084 2150 3084 
Q 2853 3084 3261 2657 
Q 3669 2231 3669 1497 
Q 3669 778 3244 343 
Q 2819 -91 2113 -91 
Q 1303 -91 875 529 
Q 447 1150 447 2328 
Q 447 3434 972 4092 
Q 1497 4750 2381 4750 
Q 2619 4750 2861 4703 
Q 3103 4656 3366 4563 
z
" transform="scale(0.015625)"/>
       </defs>
       <use xlink:href="#DejaVuSans-36"/>
       <use xlink:href="#DejaVuSans-30" transform="translate(63.623047 0)"/>
       <use xlink:href="#DejaVuSans-30" transform="translate(127.246094 0)"/>
      </g>
     </g>
    </g>
    <g id="xtick_5">
     <g id="line2d_9">
      <path d="M 385.909091 384.48 
L 385.909091 51.84 
" clip-path="url(#p9b5be8e385)" style="fill: none; stroke-dasharray: 2.96,1.28; stroke-dashoffset: 0; stroke: #b0b0b0; stroke-opacity: 0.7; stroke-width: 0.8"/>
     </g>
     <g id="line2d_10">
      <g>
       <use xlink:href="#me9cd77e178" x="385.909091" y="384.48" style="stroke: #000000; stroke-width: 0.8"/>
      </g>
     </g>
     <g id="text_5">
      <!-- 800 -->
      <g transform="translate(376.365341 399.078438) scale(0.1 -0.1)">
       <defs>
        <path id="DejaVuSans-38" d="M 2034 2216 
Q 1584 2216 1326 1975 
Q 1069 1734 1069 1313 
Q 1069 891 1326 650 
Q 1584 409 2034 409 
Q 2484 409 2743 651 
Q 3003 894 3003 1313 
Q 3003 1734 2745 1975 
Q 2488 2216 2034 2216 
z
M 1403 2484 
Q 997 2584 770 2862 
Q 544 3141 544 3541 
Q 544 4100 942 4425 
Q 1341 4750 2034 4750 
Q 2731 4750 3128 4425 
Q 3525 4100 3525 3541 
Q 3525 3141 3298 2862 
Q 3072 2584 2669 2484 
Q 3125 2378 3379 2068 
Q 3634 1759 3634 1313 
Q 3634 634 3220 271 
Q 2806 -91 2034 -91 
Q 1263 -91 848 271 
Q 434 634 434 1313 
Q 434 1759 690 2068 
Q 947 2378 1403 2484 
z
M 1172 3481 
Q 1172 3119 1398 2916 
Q 1625 2713 2034 2713 
Q 2441 2713 2670 2916 
Q 2900 3119 2900 3481 
Q 2900 3844 2670 4047 
Q 2441 4250 2034 4250 
Q 1625 4250 1398 4047 
Q 1172 3844 1172 3481 
z
" transform="scale(0.015625)"/>
       </defs>
       <use xlink:href="#DejaVuSans-38"/>
       <use xlink:href="#DejaVuSans-30" transform="translate(63.623047 0)"/>
       <use xlink:href="#DejaVuSans-30" transform="translate(127.246094 0)"/>
      </g>
     </g>
    </g>
    <g id="xtick_6">
     <g id="line2d_11">
      <path d="M 453.545455 384.48 
L 453.545455 51.84 
" clip-path="url(#p9b5be8e385)" style="fill: none; stroke-dasharray: 2.96,1.28; stroke-dashoffset: 0; stroke: #b0b0b0; stroke-opacity: 0.7; stroke-width: 0.8"/>
     </g>
     <g id="line2d_12">
      <g>
       <use xlink:href="#me9cd77e178" x="453.545455" y="384.48" style="stroke: #000000; stroke-width: 0.8"/>
      </g>
     </g>
     <g id="text_6">
      <!-- 1000 -->
      <g transform="translate(440.820455 399.078438) scale(0.1 -0.1)">
       <defs>
        <path id="DejaVuSans-31" d="M 794 531 
L 1825 531 
L 1825 4091 
L 703 3866 
L 703 4441 
L 1819 4666 
L 2450 4666 
L 2450 531 
L 3481 531 
L 3481 0 
L 794 0 
L 794 531 
z
" transform="scale(0.015625)"/>
       </defs>
       <use xlink:href="#DejaVuSans-31"/>
       <use xlink:href="#DejaVuSans-30" transform="translate(63.623047 0)"/>
       <use xlink:href="#DejaVuSans-30" transform="translate(127.246094 0)"/>
       <use xlink:href="#DejaVuSans-30" transform="translate(190.869141 0)"/>
      </g>
     </g>
    </g>
    <g id="xtick_7">
     <g id="line2d_13">
      <path d="M 521.181818 384.48 
L 521.181818 51.84 
" clip-path="url(#p9b5be8e385)" style="fill: none; stroke-dasharray: 2.96,1.28; stroke-dashoffset: 0; stroke: #b0b0b0; stroke-opacity: 0.7; stroke-width: 0.8"/>
     </g>
     <g id="line2d_14">
      <g>
       <use xlink:href="#me9cd77e178" x="521.181818" y="384.48" style="stroke: #000000; stroke-width: 0.8"/>
      </g>
     </g>
     <g id="text_7">
      <!-- 1200 -->
      <g transform="translate(508.456818 399.078438) scale(0.1 -0.1)">
       <use xlink:href="#DejaVuSans-31"/>
       <use xlink:href="#DejaVuSans-32" transform="translate(63.623047 0)"/>
       <use xlink:href="#DejaVuSans-30" transform="translate(127.246094 0)"/>
       <use xlink:href="#DejaVuSans-30" transform="translate(190.869141 0)"/>
      </g>
     </g>
    </g>
    <g id="xtick_8">
     <g id="line2d_15">
      <path d="M 588.818182 384.48 
L 588.818182 51.84 
" clip-path="url(#p9b5be8e385)" style="fill: none; stroke-dasharray: 2.96,1.28; stroke-dashoffset: 0; stroke: #b0b0b0; stroke-opacity: 0.7; stroke-width: 0.8"/>
     </g>
     <g id="line2d_16">
      <g>
       <use xlink:href="#me9cd77e178" x="588.818182" y="384.48" style="stroke: #000000; stroke-width: 0.8"/>
      </g>
     </g>
     <g id="text_8">
      <!-- 1400 -->
      <g transform="translate(576.093182 399.078438) scale(0.1 -0.1)">
       <use xlink:href="#DejaVuSans-31"/>
       <use xlink:href="#DejaVuSans-34" transform="translate(63.623047 0)"/>
       <use xlink:href="#DejaVuSans-30" transform="translate(127.246094 0)"/>
       <use xlink:href="#DejaVuSans-30" transform="translate(190.869141 0)"/>
      </g>
     </g>
    </g>
    <g id="text_9">
     <!-- Episode -->
     <g transform="translate(349.3625 412.756563) scale(0.1 -0.1)">
      <defs>
       <path id="DejaVuSans-45" d="M 628 4666 
L 3578 4666 
L 3578 4134 
L 1259 4134 
L 1259 2753 
L 3481 2753 
L 3481 2222 
L 1259 2222 
L 1259 531 
L 3634 531 
L 3634 0 
L 628 0 
L 628 4666 
z
" transform="scale(0.015625)"/>
       <path id="DejaVuSans-70" d="M 1159 525 
L 1159 -1331 
L 581 -1331 
L 581 3500 
L 1159 3500 
L 1159 2969 
Q 1341 3281 1617 3432 
Q 1894 3584 2278 3584 
Q 2916 3584 3314 3078 
Q 3713 2572 3713 1747 
Q 3713 922 3314 415 
Q 2916 -91 2278 -91 
Q 1894 -91 1617 61 
Q 1341 213 1159 525 
z
M 3116 1747 
Q 3116 2381 2855 2742 
Q 2594 3103 2138 3103 
Q 1681 3103 1420 2742 
Q 1159 2381 1159 1747 
Q 1159 1113 1420 752 
Q 1681 391 2138 391 
Q 2594 391 2855 752 
Q 3116 1113 3116 1747 
z
" transform="scale(0.015625)"/>
       <path id="DejaVuSans-69" d="M 603 3500 
L 1178 3500 
L 1178 0 
L 603 0 
L 603 3500 
z
M 603 4863 
L 1178 4863 
L 1178 4134 
L 603 4134 
L 603 4863 
z
" transform="scale(0.015625)"/>
       <path id="DejaVuSans-73" d="M 2834 3397 
L 2834 2853 
Q 2591 2978 2328 3040 
Q 2066 3103 1784 3103 
Q 1356 3103 1142 2972 
Q 928 2841 928 2578 
Q 928 2378 1081 2264 
Q 1234 2150 1697 2047 
L 1894 2003 
Q 2506 1872 2764 1633 
Q 3022 1394 3022 966 
Q 3022 478 2636 193 
Q 2250 -91 1575 -91 
Q 1294 -91 989 -36 
Q 684 19 347 128 
L 347 722 
Q 666 556 975 473 
Q 1284 391 1588 391 
Q 1994 391 2212 530 
Q 2431 669 2431 922 
Q 2431 1156 2273 1281 
Q 2116 1406 1581 1522 
L 1381 1569 
Q 847 1681 609 1914 
Q 372 2147 372 2553 
Q 372 3047 722 3315 
Q 1072 3584 1716 3584 
Q 2034 3584 2315 3537 
Q 2597 3491 2834 3397 
z
" transform="scale(0.015625)"/>
       <path id="DejaVuSans-6f" d="M 1959 3097 
Q 1497 3097 1228 2736 
Q 959 2375 959 1747 
Q 959 1119 1226 758 
Q 1494 397 1959 397 
Q 2419 397 2687 759 
Q 2956 1122 2956 1747 
Q 2956 2369 2687 2733 
Q 2419 3097 1959 3097 
z
M 1959 3584 
Q 2709 3584 3137 3096 
Q 3566 2609 3566 1747 
Q 3566 888 3137 398 
Q 2709 -91 1959 -91 
Q 1206 -91 779 398 
Q 353 888 353 1747 
Q 353 2609 779 3096 
Q 1206 3584 1959 3584 
z
" transform="scale(0.015625)"/>
       <path id="DejaVuSans-64" d="M 2906 2969 
L 2906 4863 
L 3481 4863 
L 3481 0 
L 2906 0 
L 2906 525 
Q 2725 213 2448 61 
Q 2172 -91 1784 -91 
Q 1150 -91 751 415 
Q 353 922 353 1747 
Q 353 2572 751 3078 
Q 1150 3584 1784 3584 
Q 2172 3584 2448 3432 
Q 2725 3281 2906 2969 
z
M 947 1747 
Q 947 1113 1208 752 
Q 1469 391 1925 391 
Q 2381 391 2643 752 
Q 2906 1113 2906 1747 
Q 2906 2381 2643 2742 
Q 2381 3103 1925 3103 
Q 1469 3103 1208 2742 
Q 947 2381 947 1747 
z
" transform="scale(0.015625)"/>
       <path id="DejaVuSans-65" d="M 3597 1894 
L 3597 1613 
L 953 1613 
Q 991 1019 1311 708 
Q 1631 397 2203 397 
Q 2534 397 2845 478 
Q 3156 559 3463 722 
L 3463 178 
Q 3153 47 2828 -22 
Q 2503 -91 2169 -91 
Q 1331 -91 842 396 
Q 353 884 353 1716 
Q 353 2575 817 3079 
Q 1281 3584 2069 3584 
Q 2775 3584 3186 3129 
Q 3597 2675 3597 1894 
z
M 3022 2063 
Q 3016 2534 2758 2815 
Q 2500 3097 2075 3097 
Q 1594 3097 1305 2825 
Q 1016 2553 972 2059 
L 3022 2063 
z
" transform="scale(0.015625)"/>
      </defs>
      <use xlink:href="#DejaVuSans-45"/>
      <use xlink:href="#DejaVuSans-70" transform="translate(63.183594 0)"/>
      <use xlink:href="#DejaVuSans-69" transform="translate(126.660156 0)"/>
      <use xlink:href="#DejaVuSans-73" transform="translate(154.443359 0)"/>
      <use xlink:href="#DejaVuSans-6f" transform="translate(206.542969 0)"/>
      <use xlink:href="#DejaVuSans-64" transform="translate(267.724609 0)"/>
      <use xlink:href="#DejaVuSans-65" transform="translate(331.201172 0)"/>
     </g>
    </g>
   </g>
   <g id="matplotlib.axis_2">
    <g id="ytick_1">
     <g id="line2d_17">
      <path d="M 90 369.36 
L 648 369.36 
" clip-path="url(#p9b5be8e385)" style="fill: none; stroke-dasharray: 2.96,1.28; stroke-dashoffset: 0; stroke: #b0b0b0; stroke-opacity: 0.7; stroke-width: 0.8"/>
     </g>
     <g id="line2d_18">
      <defs>
       <path id="m3438af489d" d="M 0 0 
L -3.5 0 
" style="stroke: #000000; stroke-width: 0.8"/>
      </defs>
      <g>
       <use xlink:href="#m3438af489d" x="90" y="369.36" style="stroke: #000000; stroke-width: 0.8"/>
      </g>
     </g>
     <g id="text_10">
      <!-- −1.00 -->
      <g transform="translate(52.354687 373.159219) scale(0.1 -0.1)">
       <defs>
        <path id="DejaVuSans-2212" d="M 678 2272 
L 4684 2272 
L 4684 1741 
L 678 1741 
L 678 2272 
z
" transform="scale(0.015625)"/>
        <path id="DejaVuSans-2e" d="M 684 794 
L 1344 794 
L 1344 0 
L 684 0 
L 684 794 
z
" transform="scale(0.015625)"/>
       </defs>
       <use xlink:href="#DejaVuSans-2212"/>
       <use xlink:href="#DejaVuSans-31" transform="translate(83.789062 0)"/>
       <use xlink:href="#DejaVuSans-2e" transform="translate(147.412109 0)"/>
       <use xlink:href="#DejaVuSans-30" transform="translate(179.199219 0)"/>
       <use xlink:href="#DejaVuSans-30" transform="translate(242.822266 0)"/>
      </g>
     </g>
    </g>
    <g id="ytick_2">
     <g id="line2d_19">
      <path d="M 90 331.56 
L 648 331.56 
" clip-path="url(#p9b5be8e385)" style="fill: none; stroke-dasharray: 2.96,1.28; stroke-dashoffset: 0; stroke: #b0b0b0; stroke-opacity: 0.7; stroke-width: 0.8"/>
     </g>
     <g id="line2d_20">
      <g>
       <use xlink:href="#m3438af489d" x="90" y="331.56" style="stroke: #000000; stroke-width: 0.8"/>
      </g>
     </g>
     <g id="text_11">
      <!-- −0.75 -->
      <g transform="translate(52.354687 335.359219) scale(0.1 -0.1)">
       <defs>
        <path id="DejaVuSans-37" d="M 525 4666 
L 3525 4666 
L 3525 4397 
L 1831 0 
L 1172 0 
L 2766 4134 
L 525 4134 
L 525 4666 
z
" transform="scale(0.015625)"/>
        <path id="DejaVuSans-35" d="M 691 4666 
L 3169 4666 
L 3169 4134 
L 1269 4134 
L 1269 2991 
Q 1406 3038 1543 3061 
Q 1681 3084 1819 3084 
Q 2600 3084 3056 2656 
Q 3513 2228 3513 1497 
Q 3513 744 3044 326 
Q 2575 -91 1722 -91 
Q 1428 -91 1123 -41 
Q 819 9 494 109 
L 494 744 
Q 775 591 1075 516 
Q 1375 441 1709 441 
Q 2250 441 2565 725 
Q 2881 1009 2881 1497 
Q 2881 1984 2565 2268 
Q 2250 2553 1709 2553 
Q 1456 2553 1204 2497 
Q 953 2441 691 2322 
L 691 4666 
z
" transform="scale(0.015625)"/>
       </defs>
       <use xlink:href="#DejaVuSans-2212"/>
       <use xlink:href="#DejaVuSans-30" transform="translate(83.789062 0)"/>
       <use xlink:href="#DejaVuSans-2e" transform="translate(147.412109 0)"/>
       <use xlink:href="#DejaVuSans-37" transform="translate(179.199219 0)"/>
       <use xlink:href="#DejaVuSans-35" transform="translate(242.822266 0)"/>
      </g>
     </g>
    </g>
    <g id="ytick_3">
     <g id="line2d_21">
      <path d="M 90 293.76 
L 648 293.76 
" clip-path="url(#p9b5be8e385)" style="fill: none; stroke-dasharray: 2.96,1.28; stroke-dashoffset: 0; stroke: #b0b0b0; stroke-opacity: 0.7; stroke-width: 0.8"/>
     </g>
     <g id="line2d_22">
      <g>
       <use xlink:href="#m3438af489d" x="90" y="293.76" style="stroke: #000000; stroke-width: 0.8"/>
      </g>
     </g>
     <g id="text_12">
      <!-- −0.50 -->
      <g transform="translate(52.354687 297.559219) scale(0.1 -0.1)">
       <use xlink:href="#DejaVuSans-2212"/>
       <use xlink:href="#DejaVuSans-30" transform="translate(83.789062 0)"/>
       <use xlink:href="#DejaVuSans-2e" transform="translate(147.412109 0)"/>
       <use xlink:href="#DejaVuSans-35" transform="translate(179.199219 0)"/>
       <use xlink:href="#DejaVuSans-30" transform="translate(242.822266 0)"/>
      </g>
     </g>
    </g>
    <g id="ytick_4">
     <g id="line2d_23">
      <path d="M 90 255.96 
L 648 255.96 
" clip-path="url(#p9b5be8e385)" style="fill: none; stroke-dasharray: 2.96,1.28; stroke-dashoffset: 0; stroke: #b0b0b0; stroke-opacity: 0.7; stroke-width: 0.8"/>
     </g>
     <g id="line2d_24">
      <g>
       <use xlink:href="#m3438af489d" x="90" y="255.96" style="stroke: #000000; stroke-width: 0.8"/>
      </g>
     </g>
     <g id="text_13">
      <!-- −0.25 -->
      <g transform="translate(52.354687 259.759219) scale(0.1 -0.1)">
       <use xlink:href="#DejaVuSans-2212"/>
       <use xlink:href="#DejaVuSans-30" transform="translate(83.789062 0)"/>
       <use xlink:href="#DejaVuSans-2e" transform="translate(147.412109 0)"/>
       <use xlink:href="#DejaVuSans-32" transform="translate(179.199219 0)"/>
       <use xlink:href="#DejaVuSans-35" transform="translate(242.822266 0)"/>
      </g>
     </g>
    </g>
    <g id="ytick_5">
     <g id="line2d_25">
      <path d="M 90 218.16 
L 648 218.16 
" clip-path="url(#p9b5be8e385)" style="fill: none; stroke-dasharray: 2.96,1.28; stroke-dashoffset: 0; stroke: #b0b0b0; stroke-opacity: 0.7; stroke-width: 0.8"/>
     </g>
     <g id="line2d_26">
      <g>
       <use xlink:href="#m3438af489d" x="90" y="218.16" style="stroke: #000000; stroke-width: 0.8"/>
      </g>
     </g>
     <g id="text_14">
      <!-- 0.00 -->
      <g transform="translate(60.734375 221.959219) scale(0.1 -0.1)">
       <use xlink:href="#DejaVuSans-30"/>
       <use xlink:href="#DejaVuSans-2e" transform="translate(63.623047 0)"/>
       <use xlink:href="#DejaVuSans-30" transform="translate(95.410156 0)"/>
       <use xlink:href="#DejaVuSans-30" transform="translate(159.033203 0)"/>
      </g>
     </g>
    </g>
    <g id="ytick_6">
     <g id="line2d_27">
      <path d="M 90 180.36 
L 648 180.36 
" clip-path="url(#p9b5be8e385)" style="fill: none; stroke-dasharray: 2.96,1.28; stroke-dashoffset: 0; stroke: #b0b0b0; stroke-opacity: 0.7; stroke-width: 0.8"/>
     </g>
     <g id="line2d_28">
      <g>
       <use xlink:href="#m3438af489d" x="90" y="180.36" style="stroke: #000000; stroke-width: 0.8"/>
      </g>
     </g>
     <g id="text_15">
      <!-- 0.25 -->
      <g transform="translate(60.734375 184.159219) scale(0.1 -0.1)">
       <use xlink:href="#DejaVuSans-30"/>
       <use xlink:href="#DejaVuSans-2e" transform="translate(63.623047 0)"/>
       <use xlink:href="#DejaVuSans-32" transform="translate(95.410156 0)"/>
       <use xlink:href="#DejaVuSans-35" transform="translate(159.033203 0)"/>
      </g>
     </g>
    </g>
    <g id="ytick_7">
     <g id="line2d_29">
      <path d="M 90 142.56 
L 648 142.56 
" clip-path="url(#p9b5be8e385)" style="fill: none; stroke-dasharray: 2.96,1.28; stroke-dashoffset: 0; stroke: #b0b0b0; stroke-opacity: 0.7; stroke-width: 0.8"/>
     </g>
     <g id="line2d_30">
      <g>
       <use xlink:href="#m3438af489d" x="90" y="142.56" style="stroke: #000000; stroke-width: 0.8"/>
      </g>
     </g>
     <g id="text_16">
      <!-- 0.50 -->
      <g transform="translate(60.734375 146.359219) scale(0.1 -0.1)">
       <use xlink:href="#DejaVuSans-30"/>
       <use xlink:href="#DejaVuSans-2e" transform="translate(63.623047 0)"/>
       <use xlink:href="#DejaVuSans-35" transform="translate(95.410156 0)"/>
       <use xlink:href="#DejaVuSans-30" transform="translate(159.033203 0)"/>
      </g>
     </g>
    </g>
    <g id="ytick_8">
     <g id="line2d_31">
      <path d="M 90 104.76 
L 648 104.76 
" clip-path="url(#p9b5be8e385)" style="fill: none; stroke-dasharray: 2.96,1.28; stroke-dashoffset: 0; stroke: #b0b0b0; stroke-opacity: 0.7; stroke-width: 0.8"/>
     </g>
     <g id="line2d_32">
      <g>
       <use xlink:href="#m3438af489d" x="90" y="104.76" style="stroke: #000000; stroke-width: 0.8"/>
      </g>
     </g>
     <g id="text_17">
      <!-- 0.75 -->
      <g transform="translate(60.734375 108.559219) scale(0.1 -0.1)">
       <use xlink:href="#DejaVuSans-30"/>
       <use xlink:href="#DejaVuSans-2e" transform="translate(63.623047 0)"/>
       <use xlink:href="#DejaVuSans-37" transform="translate(95.410156 0)"/>
       <use xlink:href="#DejaVuSans-35" transform="translate(159.033203 0)"/>
      </g>
     </g>
    </g>
    <g id="ytick_9">
     <g id="line2d_33">
      <path d="M 90 66.96 
L 648 66.96 
" clip-path="url(#p9b5be8e385)" style="fill: none; stroke-dasharray: 2.96,1.28; stroke-dashoffset: 0; stroke: #b0b0b0; stroke-opacity: 0.7; stroke-width: 0.8"/>
     </g>
     <g id="line2d_34">
      <g>
       <use xlink:href="#m3438af489d" x="90" y="66.96" style="stroke: #000000; stroke-width: 0.8"/>
      </g>
     </g>
     <g id="text_18">
      <!-- 1.00 -->
      <g transform="translate(60.734375 70.759219) scale(0.1 -0.1)">
       <use xlink:href="#DejaVuSans-31"/>
       <use xlink:href="#DejaVuSans-2e" transform="translate(63.623047 0)"/>
       <use xlink:href="#DejaVuSans-30" transform="translate(95.410156 0)"/>
       <use xlink:href="#DejaVuSans-30" transform="translate(159.033203 0)"/>
      </g>
     </g>
    </g>
    <g id="text_19">
     <!-- Cumulative Reward (Max=1.00) -->
     <g transform="translate(46.275 298.058437) rotate(-90) scale(0.1 -0.1)">
      <defs>
       <path id="DejaVuSans-43" d="M 4122 4306 
L 4122 3641 
Q 3803 3938 3442 4084 
Q 3081 4231 2675 4231 
Q 1875 4231 1450 3742 
Q 1025 3253 1025 2328 
Q 1025 1406 1450 917 
Q 1875 428 2675 428 
Q 3081 428 3442 575 
Q 3803 722 4122 1019 
L 4122 359 
Q 3791 134 3420 21 
Q 3050 -91 2638 -91 
Q 1578 -91 968 557 
Q 359 1206 359 2328 
Q 359 3453 968 4101 
Q 1578 4750 2638 4750 
Q 3056 4750 3426 4639 
Q 3797 4528 4122 4306 
z
" transform="scale(0.015625)"/>
       <path id="DejaVuSans-75" d="M 544 1381 
L 544 3500 
L 1119 3500 
L 1119 1403 
Q 1119 906 1312 657 
Q 1506 409 1894 409 
Q 2359 409 2629 706 
Q 2900 1003 2900 1516 
L 2900 3500 
L 3475 3500 
L 3475 0 
L 2900 0 
L 2900 538 
Q 2691 219 2414 64 
Q 2138 -91 1772 -91 
Q 1169 -91 856 284 
Q 544 659 544 1381 
z
M 1991 3584 
L 1991 3584 
z
" transform="scale(0.015625)"/>
       <path id="DejaVuSans-6d" d="M 3328 2828 
Q 3544 3216 3844 3400 
Q 4144 3584 4550 3584 
Q 5097 3584 5394 3201 
Q 5691 2819 5691 2113 
L 5691 0 
L 5113 0 
L 5113 2094 
Q 5113 2597 4934 2840 
Q 4756 3084 4391 3084 
Q 3944 3084 3684 2787 
Q 3425 2491 3425 1978 
L 3425 0 
L 2847 0 
L 2847 2094 
Q 2847 2600 2669 2842 
Q 2491 3084 2119 3084 
Q 1678 3084 1418 2786 
Q 1159 2488 1159 1978 
L 1159 0 
L 581 0 
L 581 3500 
L 1159 3500 
L 1159 2956 
Q 1356 3278 1631 3431 
Q 1906 3584 2284 3584 
Q 2666 3584 2933 3390 
Q 3200 3197 3328 2828 
z
" transform="scale(0.015625)"/>
       <path id="DejaVuSans-6c" d="M 603 4863 
L 1178 4863 
L 1178 0 
L 603 0 
L 603 4863 
z
" transform="scale(0.015625)"/>
       <path id="DejaVuSans-61" d="M 2194 1759 
Q 1497 1759 1228 1600 
Q 959 1441 959 1056 
Q 959 750 1161 570 
Q 1363 391 1709 391 
Q 2188 391 2477 730 
Q 2766 1069 2766 1631 
L 2766 1759 
L 2194 1759 
z
M 3341 1997 
L 3341 0 
L 2766 0 
L 2766 531 
Q 2569 213 2275 61 
Q 1981 -91 1556 -91 
Q 1019 -91 701 211 
Q 384 513 384 1019 
Q 384 1609 779 1909 
Q 1175 2209 1959 2209 
L 2766 2209 
L 2766 2266 
Q 2766 2663 2505 2880 
Q 2244 3097 1772 3097 
Q 1472 3097 1187 3025 
Q 903 2953 641 2809 
L 641 3341 
Q 956 3463 1253 3523 
Q 1550 3584 1831 3584 
Q 2591 3584 2966 3190 
Q 3341 2797 3341 1997 
z
" transform="scale(0.015625)"/>
       <path id="DejaVuSans-74" d="M 1172 4494 
L 1172 3500 
L 2356 3500 
L 2356 3053 
L 1172 3053 
L 1172 1153 
Q 1172 725 1289 603 
Q 1406 481 1766 481 
L 2356 481 
L 2356 0 
L 1766 0 
Q 1100 0 847 248 
Q 594 497 594 1153 
L 594 3053 
L 172 3053 
L 172 3500 
L 594 3500 
L 594 4494 
L 1172 4494 
z
" transform="scale(0.015625)"/>
       <path id="DejaVuSans-76" d="M 191 3500 
L 800 3500 
L 1894 563 
L 2988 3500 
L 3597 3500 
L 2284 0 
L 1503 0 
L 191 3500 
z
" transform="scale(0.015625)"/>
       <path id="DejaVuSans-20" transform="scale(0.015625)"/>
       <path id="DejaVuSans-52" d="M 2841 2188 
Q 3044 2119 3236 1894 
Q 3428 1669 3622 1275 
L 4263 0 
L 3584 0 
L 2988 1197 
Q 2756 1666 2539 1819 
Q 2322 1972 1947 1972 
L 1259 1972 
L 1259 0 
L 628 0 
L 628 4666 
L 2053 4666 
Q 2853 4666 3247 4331 
Q 3641 3997 3641 3322 
Q 3641 2881 3436 2590 
Q 3231 2300 2841 2188 
z
M 1259 4147 
L 1259 2491 
L 2053 2491 
Q 2509 2491 2742 2702 
Q 2975 2913 2975 3322 
Q 2975 3731 2742 3939 
Q 2509 4147 2053 4147 
L 1259 4147 
z
" transform="scale(0.015625)"/>
       <path id="DejaVuSans-77" d="M 269 3500 
L 844 3500 
L 1563 769 
L 2278 3500 
L 2956 3500 
L 3675 769 
L 4391 3500 
L 4966 3500 
L 4050 0 
L 3372 0 
L 2619 2869 
L 1863 0 
L 1184 0 
L 269 3500 
z
" transform="scale(0.015625)"/>
       <path id="DejaVuSans-72" d="M 2631 2963 
Q 2534 3019 2420 3045 
Q 2306 3072 2169 3072 
Q 1681 3072 1420 2755 
Q 1159 2438 1159 1844 
L 1159 0 
L 581 0 
L 581 3500 
L 1159 3500 
L 1159 2956 
Q 1341 3275 1631 3429 
Q 1922 3584 2338 3584 
Q 2397 3584 2469 3576 
Q 2541 3569 2628 3553 
L 2631 2963 
z
" transform="scale(0.015625)"/>
       <path id="DejaVuSans-28" d="M 1984 4856 
Q 1566 4138 1362 3434 
Q 1159 2731 1159 2009 
Q 1159 1288 1364 580 
Q 1569 -128 1984 -844 
L 1484 -844 
Q 1016 -109 783 600 
Q 550 1309 550 2009 
Q 550 2706 781 3412 
Q 1013 4119 1484 4856 
L 1984 4856 
z
" transform="scale(0.015625)"/>
       <path id="DejaVuSans-4d" d="M 628 4666 
L 1569 4666 
L 2759 1491 
L 3956 4666 
L 4897 4666 
L 4897 0 
L 4281 0 
L 4281 4097 
L 3078 897 
L 2444 897 
L 1241 4097 
L 1241 0 
L 628 0 
L 628 4666 
z
" transform="scale(0.015625)"/>
       <path id="DejaVuSans-78" d="M 3513 3500 
L 2247 1797 
L 3578 0 
L 2900 0 
L 1881 1375 
L 863 0 
L 184 0 
L 1544 1831 
L 300 3500 
L 978 3500 
L 1906 2253 
L 2834 3500 
L 3513 3500 
z
" transform="scale(0.015625)"/>
       <path id="DejaVuSans-3d" d="M 678 2906 
L 4684 2906 
L 4684 2381 
L 678 2381 
L 678 2906 
z
M 678 1631 
L 4684 1631 
L 4684 1100 
L 678 1100 
L 678 1631 
z
" transform="scale(0.015625)"/>
       <path id="DejaVuSans-29" d="M 513 4856 
L 1013 4856 
Q 1481 4119 1714 3412 
Q 1947 2706 1947 2009 
Q 1947 1309 1714 600 
Q 1481 -109 1013 -844 
L 513 -844 
Q 928 -128 1133 580 
Q 1338 1288 1338 2009 
Q 1338 2731 1133 3434 
Q 928 4138 513 4856 
z
" transform="scale(0.015625)"/>
      </defs>
      <use xlink:href="#DejaVuSans-43"/>
      <use xlink:href="#DejaVuSans-75" transform="translate(69.824219 0)"/>
      <use xlink:href="#DejaVuSans-6d" transform="translate(133.203125 0)"/>
      <use xlink:href="#DejaVuSans-75" transform="translate(230.615234 0)"/>
      <use xlink:href="#DejaVuSans-6c" transform="translate(293.994141 0)"/>
      <use xlink:href="#DejaVuSans-61" transform="translate(321.777344 0)"/>
      <use xlink:href="#DejaVuSans-74" transform="translate(383.056641 0)"/>
      <use xlink:href="#DejaVuSans-69" transform="translate(422.265625 0)"/>
      <use xlink:href="#DejaVuSans-76" transform="translate(450.048828 0)"/>
      <use xlink:href="#DejaVuSans-65" transform="translate(509.228516 0)"/>
      <use xlink:href="#DejaVuSans-20" transform="translate(570.751953 0)"/>
      <use xlink:href="#DejaVuSans-52" transform="translate(602.539062 0)"/>
      <use xlink:href="#DejaVuSans-65" transform="translate(667.521484 0)"/>
      <use xlink:href="#DejaVuSans-77" transform="translate(729.044922 0)"/>
      <use xlink:href="#DejaVuSans-61" transform="translate(810.832031 0)"/>
      <use xlink:href="#DejaVuSans-72" transform="translate(872.111328 0)"/>
      <use xlink:href="#DejaVuSans-64" transform="translate(911.474609 0)"/>
      <use xlink:href="#DejaVuSans-20" transform="translate(974.951172 0)"/>
      <use xlink:href="#DejaVuSans-28" transform="translate(1006.738281 0)"/>
      <use xlink:href="#DejaVuSans-4d" transform="translate(1045.751953 0)"/>
      <use xlink:href="#DejaVuSans-61" transform="translate(1132.03125 0)"/>
      <use xlink:href="#DejaVuSans-78" transform="translate(1193.310547 0)"/>
      <use xlink:href="#DejaVuSans-3d" transform="translate(1252.490234 0)"/>
      <use xlink:href="#DejaVuSans-31" transform="translate(1336.279297 0)"/>
      <use xlink:href="#DejaVuSans-2e" transform="translate(1399.902344 0)"/>
      <use xlink:href="#DejaVuSans-30" transform="translate(1431.689453 0)"/>
      <use xlink:href="#DejaVuSans-30" transform="translate(1495.3125 0)"/>
      <use xlink:href="#DejaVuSans-29" transform="translate(1558.935547 0)"/>
     </g>
    </g>
   </g>
   <g id="line2d_35">
    <path d="M 115.363636 369.36 
L 349.723636 369.36 
L 350.4 66.96 
L 350.738182 369.36 
L 388.276364 369.36 
L 388.614545 66.96 
L 388.952727 369.36 
L 392.334545 369.36 
L 392.672727 66.96 
L 393.010909 369.36 
L 399.436364 369.36 
L 399.774545 66.96 
L 400.112727 369.36 
L 401.127273 369.36 
L 401.465455 66.96 
L 401.803636 369.36 
L 407.214545 369.36 
L 407.552727 66.96 
L 407.890909 369.36 
L 408.229091 369.36 
L 408.567273 66.96 
L 408.905455 66.96 
L 409.243636 369.36 
L 410.934545 369.36 
L 411.272727 66.96 
L 411.610909 369.36 
L 423.785455 369.36 
L 424.123636 66.96 
L 424.461818 369.36 
L 432.24 369.36 
L 432.578182 66.96 
L 433.254545 66.96 
L 433.592727 369.36 
L 436.636364 369.36 
L 436.974545 66.96 
L 437.312727 369.36 
L 440.018182 369.36 
L 440.356364 66.96 
L 440.694545 369.36 
L 442.723636 369.36 
L 443.061818 66.96 
L 443.4 369.36 
L 444.414545 369.36 
L 444.752727 66.96 
L 445.090909 66.96 
L 445.429091 369.36 
L 445.767273 369.36 
L 446.105455 66.96 
L 446.443636 369.36 
L 446.781818 369.36 
L 447.12 66.96 
L 447.458182 369.36 
L 447.796364 66.96 
L 448.134545 369.36 
L 448.810909 369.36 
L 449.149091 66.96 
L 449.487273 66.96 
L 449.825455 369.36 
L 451.178182 369.36 
L 451.516364 66.96 
L 451.854545 369.36 
L 452.192727 369.36 
L 452.530909 66.96 
L 452.869091 369.36 
L 453.207273 66.96 
L 453.545455 369.36 
L 455.236364 369.36 
L 455.574545 66.96 
L 455.912727 66.96 
L 456.250909 369.36 
L 456.589091 66.96 
L 456.927273 369.36 
L 457.265455 66.96 
L 457.603636 369.36 
L 457.941818 369.36 
L 458.28 66.96 
L 458.618182 369.36 
L 459.970909 369.36 
L 460.309091 66.96 
L 460.647273 369.36 
L 460.985455 66.96 
L 461.323636 66.96 
L 461.661818 369.36 
L 462 66.96 
L 462.338182 369.36 
L 462.676364 66.96 
L 463.014545 369.36 
L 463.352727 66.96 
L 463.690909 369.36 
L 464.367273 369.36 
L 464.705455 66.96 
L 465.043636 66.96 
L 465.381818 369.36 
L 465.72 66.96 
L 466.058182 369.36 
L 466.396364 66.96 
L 466.734545 369.36 
L 467.410909 369.36 
L 467.749091 66.96 
L 468.087273 66.96 
L 468.425455 369.36 
L 468.763636 369.36 
L 469.101818 66.96 
L 469.44 369.36 
L 471.130909 369.36 
L 471.469091 66.96 
L 471.807273 66.96 
L 472.145455 369.36 
L 472.483636 369.36 
L 472.821818 66.96 
L 473.16 66.96 
L 473.498182 369.36 
L 473.836364 369.36 
L 474.174545 66.96 
L 474.512727 369.36 
L 474.850909 66.96 
L 475.189091 369.36 
L 475.865455 369.36 
L 476.203636 66.96 
L 476.541818 66.96 
L 476.88 369.36 
L 477.556364 369.36 
L 477.894545 66.96 
L 478.232727 369.36 
L 478.570909 66.96 
L 478.909091 369.36 
L 479.247273 66.96 
L 479.585455 369.36 
L 479.923636 369.36 
L 480.261818 66.96 
L 480.6 369.36 
L 480.938182 66.96 
L 481.276364 369.36 
L 481.614545 369.36 
L 481.952727 66.96 
L 482.290909 66.96 
L 482.629091 369.36 
L 482.967273 66.96 
L 483.305455 66.96 
L 483.643636 369.36 
L 485.334545 369.36 
L 485.672727 66.96 
L 486.010909 369.36 
L 486.687273 369.36 
L 487.025455 66.96 
L 488.378182 66.96 
L 488.716364 369.36 
L 489.054545 369.36 
L 489.392727 66.96 
L 489.730909 369.36 
L 490.407273 369.36 
L 490.745455 66.96 
L 491.083636 369.36 
L 491.421818 66.96 
L 491.76 66.96 
L 492.098182 369.36 
L 492.436364 66.96 
L 492.774545 66.96 
L 493.112727 369.36 
L 493.450909 66.96 
L 493.789091 369.36 
L 494.127273 369.36 
L 494.465455 66.96 
L 494.803636 66.96 
L 495.141818 369.36 
L 495.48 369.36 
L 495.818182 66.96 
L 496.156364 369.36 
L 496.832727 369.36 
L 497.170909 66.96 
L 497.847273 66.96 
L 498.185455 369.36 
L 498.523636 66.96 
L 498.861818 66.96 
L 499.2 369.36 
L 499.876364 369.36 
L 500.214545 66.96 
L 500.552727 66.96 
L 500.890909 369.36 
L 501.229091 66.96 
L 501.567273 369.36 
L 502.581818 369.36 
L 502.92 66.96 
L 503.258182 369.36 
L 503.596364 66.96 
L 503.934545 369.36 
L 504.610909 369.36 
L 504.949091 66.96 
L 505.287273 369.36 
L 505.625455 66.96 
L 506.64 66.96 
L 506.978182 369.36 
L 507.316364 66.96 
L 507.654545 369.36 
L 507.992727 66.96 
L 508.669091 66.96 
L 509.007273 369.36 
L 509.345455 66.96 
L 510.021818 66.96 
L 510.36 369.36 
L 510.698182 66.96 
L 511.036364 66.96 
L 511.374545 369.36 
L 511.712727 369.36 
L 512.050909 66.96 
L 512.389091 66.96 
L 512.727273 369.36 
L 513.065455 66.96 
L 513.741818 66.96 
L 514.08 369.36 
L 514.418182 66.96 
L 514.756364 369.36 
L 515.770909 369.36 
L 516.109091 66.96 
L 516.447273 369.36 
L 516.785455 66.96 
L 517.123636 66.96 
L 517.461818 369.36 
L 518.138182 369.36 
L 518.476364 66.96 
L 518.814545 369.36 
L 519.490909 369.36 
L 519.829091 66.96 
L 520.167273 369.36 
L 520.505455 66.96 
L 520.843636 369.36 
L 521.181818 66.96 
L 521.52 66.96 
L 521.858182 369.36 
L 522.872727 369.36 
L 523.210909 66.96 
L 523.549091 369.36 
L 523.887273 66.96 
L 524.225455 369.36 
L 524.563636 66.96 
L 525.24 66.96 
L 525.578182 369.36 
L 525.916364 66.96 
L 526.254545 369.36 
L 526.592727 369.36 
L 526.930909 66.96 
L 527.269091 66.96 
L 527.607273 369.36 
L 527.945455 66.96 
L 528.283636 369.36 
L 528.621818 369.36 
L 528.96 66.96 
L 529.298182 369.36 
L 529.636364 66.96 
L 530.650909 66.96 
L 530.989091 369.36 
L 531.327273 66.96 
L 531.665455 369.36 
L 532.003636 66.96 
L 532.68 66.96 
L 533.018182 369.36 
L 533.356364 369.36 
L 533.694545 66.96 
L 534.370909 66.96 
L 534.709091 369.36 
L 535.047273 66.96 
L 535.385455 369.36 
L 536.061818 369.36 
L 536.4 66.96 
L 536.738182 369.36 
L 537.076364 369.36 
L 537.414545 66.96 
L 537.752727 369.36 
L 538.429091 369.36 
L 538.767273 66.96 
L 539.105455 369.36 
L 539.443636 66.96 
L 539.781818 369.36 
L 540.12 369.36 
L 540.458182 66.96 
L 542.149091 66.96 
L 542.487273 369.36 
L 542.825455 66.96 
L 543.163636 66.96 
L 543.501818 369.36 
L 543.84 66.96 
L 544.178182 66.96 
L 544.516364 369.36 
L 544.854545 66.96 
L 546.207273 66.96 
L 546.545455 369.36 
L 546.883636 369.36 
L 547.221818 66.96 
L 547.56 369.36 
L 548.236364 369.36 
L 548.574545 66.96 
L 548.912727 369.36 
L 549.250909 66.96 
L 549.589091 369.36 
L 549.927273 66.96 
L 550.265455 369.36 
L 551.618182 369.36 
L 551.956364 66.96 
L 552.294545 369.36 
L 552.632727 369.36 
L 552.970909 66.96 
L 553.309091 369.36 
L 553.647273 66.96 
L 553.985455 369.36 
L 555 369.36 
L 555.338182 66.96 
L 557.367273 66.96 
L 557.705455 369.36 
L 558.043636 369.36 
L 558.381818 66.96 
L 558.72 369.36 
L 559.058182 369.36 
L 559.396364 66.96 
L 561.425455 66.96 
L 561.763636 369.36 
L 562.101818 369.36 
L 562.44 66.96 
L 562.778182 369.36 
L 563.116364 369.36 
L 563.454545 66.96 
L 563.792727 66.96 
L 564.130909 369.36 
L 564.469091 66.96 
L 564.807273 369.36 
L 565.145455 369.36 
L 565.483636 66.96 
L 568.865455 66.96 
L 569.203636 369.36 
L 569.541818 66.96 
L 571.909091 66.96 
L 572.247273 369.36 
L 572.585455 369.36 
L 572.923636 66.96 
L 573.261818 66.96 
L 573.6 369.36 
L 573.938182 66.96 
L 574.614545 66.96 
L 574.952727 369.36 
L 575.290909 66.96 
L 575.629091 369.36 
L 575.967273 66.96 
L 576.305455 66.96 
L 576.643636 369.36 
L 576.981818 369.36 
L 577.32 66.96 
L 577.658182 66.96 
L 577.996364 369.36 
L 578.334545 66.96 
L 579.349091 66.96 
L 579.687273 369.36 
L 581.04 369.36 
L 581.378182 66.96 
L 583.407273 66.96 
L 583.745455 369.36 
L 584.083636 66.96 
L 584.421818 369.36 
L 585.098182 369.36 
L 585.436364 66.96 
L 585.774545 369.36 
L 586.112727 66.96 
L 586.789091 66.96 
L 587.127273 369.36 
L 589.494545 369.36 
L 589.832727 66.96 
L 590.170909 369.36 
L 591.185455 369.36 
L 591.523636 66.96 
L 591.861818 369.36 
L 592.2 66.96 
L 592.538182 369.36 
L 592.876364 66.96 
L 593.890909 66.96 
L 594.229091 369.36 
L 594.567273 66.96 
L 594.905455 66.96 
L 595.243636 369.36 
L 595.581818 66.96 
L 597.272727 66.96 
L 597.610909 369.36 
L 597.949091 66.96 
L 598.287273 369.36 
L 598.625455 66.96 
L 599.301818 66.96 
L 599.64 369.36 
L 599.978182 369.36 
L 600.316364 66.96 
L 602.683636 66.96 
L 603.021818 369.36 
L 604.036364 369.36 
L 604.374545 66.96 
L 604.712727 369.36 
L 605.050909 66.96 
L 605.727273 66.96 
L 606.065455 369.36 
L 606.403636 66.96 
L 606.741818 369.36 
L 607.08 66.96 
L 608.432727 66.96 
L 608.770909 369.36 
L 609.109091 66.96 
L 609.447273 66.96 
L 609.785455 369.36 
L 610.123636 66.96 
L 610.461818 66.96 
L 610.8 369.36 
L 611.138182 66.96 
L 611.476364 66.96 
L 611.814545 369.36 
L 612.490909 369.36 
L 612.829091 66.96 
L 613.167273 369.36 
L 613.505455 66.96 
L 614.858182 66.96 
L 615.196364 369.36 
L 616.210909 369.36 
L 616.549091 66.96 
L 617.563636 66.96 
L 617.901818 369.36 
L 618.24 66.96 
L 618.578182 66.96 
L 618.916364 369.36 
L 619.254545 369.36 
L 619.592727 66.96 
L 619.930909 66.96 
L 620.269091 369.36 
L 621.283636 369.36 
L 621.621818 66.96 
L 621.96 66.96 
L 622.298182 369.36 
L 622.298182 369.36 
" clip-path="url(#p9b5be8e385)" style="fill: none; stroke: #1f77b4; stroke-opacity: 0.3; stroke-width: 1.5; stroke-linecap: square"/>
   </g>
   <g id="line2d_36">
    <path d="M 149.181818 369.36 
L 350.061818 369.36 
L 350.4 367.848 
L 350.738182 364.824 
L 383.88 364.824 
L 384.218182 366.336 
L 384.556364 369.36 
L 388.614545 369.36 
L 388.952727 366.336 
L 392.672727 366.336 
L 393.010909 363.312 
L 399.774545 363.312 
L 400.112727 360.288 
L 401.465455 360.288 
L 401.803636 357.264 
L 407.552727 357.264 
L 407.890909 354.24 
L 408.567273 354.24 
L 409.243636 348.192 
L 411.272727 348.192 
L 411.610909 345.168 
L 422.432727 345.168 
L 422.770909 348.192 
L 424.123636 348.192 
L 424.461818 345.168 
L 426.490909 345.168 
L 426.829091 348.192 
L 432.578182 348.192 
L 433.592727 339.12 
L 433.930909 342.144 
L 435.283636 342.144 
L 435.621818 345.168 
L 436.974545 345.168 
L 437.312727 342.144 
L 440.356364 342.144 
L 440.694545 339.12 
L 441.370909 339.12 
L 441.709091 342.144 
L 442.385455 342.144 
L 443.061818 348.192 
L 443.4 345.168 
L 444.752727 345.168 
L 445.090909 342.144 
L 446.105455 342.144 
L 446.443636 339.12 
L 447.12 339.12 
L 447.458182 336.096 
L 447.796364 336.096 
L 448.134545 333.072 
L 449.149091 333.072 
L 449.825455 327.024 
L 451.516364 327.024 
L 451.854545 324 
L 452.530909 324 
L 452.869091 320.976 
L 453.207273 320.976 
L 453.545455 317.952 
L 455.574545 317.952 
L 456.250909 311.904 
L 456.589091 311.904 
L 456.927273 308.88 
L 457.265455 308.88 
L 457.603636 305.856 
L 457.941818 305.856 
L 458.28 308.88 
L 458.618182 305.856 
L 460.309091 305.856 
L 460.647273 302.832 
L 460.985455 302.832 
L 461.661818 296.784 
L 462 296.784 
L 462.338182 293.76 
L 462.676364 293.76 
L 463.014545 290.736 
L 463.352727 290.736 
L 463.690909 287.712 
L 464.705455 287.712 
L 465.381818 281.664 
L 465.72 281.664 
L 466.058182 278.64 
L 466.734545 278.64 
L 467.410909 284.688 
L 467.749091 284.688 
L 468.425455 278.64 
L 469.101818 278.64 
L 469.44 275.616 
L 470.792727 275.616 
L 471.130909 278.64 
L 471.469091 278.64 
L 472.145455 272.592 
L 472.821818 272.592 
L 473.498182 266.544 
L 474.850909 266.544 
L 475.189091 263.52 
L 476.203636 263.52 
L 476.88 257.472 
L 477.218182 260.496 
L 477.894545 260.496 
L 478.232727 257.472 
L 478.909091 257.472 
L 479.247273 260.496 
L 479.585455 257.472 
L 479.923636 257.472 
L 480.261818 260.496 
L 480.6 257.472 
L 481.614545 257.472 
L 481.952727 260.496 
L 482.629091 254.448 
L 485.334545 254.448 
L 485.672727 257.472 
L 486.010909 254.448 
L 486.349091 254.448 
L 486.687273 257.472 
L 487.363636 257.472 
L 488.716364 245.376 
L 489.730909 245.376 
L 490.069091 248.4 
L 490.407273 248.4 
L 490.745455 251.424 
L 491.083636 248.4 
L 491.421818 251.424 
L 492.098182 245.376 
L 492.436364 248.4 
L 493.112727 242.352 
L 493.450909 242.352 
L 493.789091 239.328 
L 494.127273 239.328 
L 494.465455 242.352 
L 494.803636 239.328 
L 495.141818 239.328 
L 495.48 242.352 
L 496.494545 242.352 
L 496.832727 245.376 
L 497.509091 245.376 
L 498.185455 239.328 
L 499.538182 239.328 
L 499.876364 242.352 
L 500.552727 242.352 
L 500.890909 239.328 
L 501.229091 239.328 
L 501.567273 236.304 
L 502.243636 242.352 
L 503.596364 242.352 
L 503.934545 239.328 
L 504.949091 239.328 
L 505.287273 236.304 
L 505.625455 239.328 
L 505.963636 239.328 
L 506.64 233.28 
L 506.978182 233.28 
L 507.316364 236.304 
L 507.654545 233.28 
L 508.330909 233.28 
L 508.669091 230.256 
L 509.345455 230.256 
L 510.021818 224.208 
L 510.36 224.208 
L 510.698182 227.232 
L 511.374545 221.184 
L 511.712727 221.184 
L 512.050909 224.208 
L 512.389091 221.184 
L 513.403636 221.184 
L 514.08 215.136 
L 514.418182 218.16 
L 514.756364 215.136 
L 515.094545 218.16 
L 515.770909 218.16 
L 516.109091 221.184 
L 518.476364 221.184 
L 518.814545 218.16 
L 519.490909 218.16 
L 519.829091 221.184 
L 520.167273 218.16 
L 520.505455 218.16 
L 520.843636 215.136 
L 521.181818 218.16 
L 521.858182 218.16 
L 522.534545 224.208 
L 523.887273 224.208 
L 524.225455 221.184 
L 524.901818 221.184 
L 525.24 218.16 
L 525.578182 218.16 
L 525.916364 221.184 
L 526.254545 218.16 
L 526.930909 224.208 
L 527.269091 221.184 
L 527.945455 221.184 
L 528.283636 218.16 
L 528.96 224.208 
L 529.298182 221.184 
L 529.974545 221.184 
L 530.989091 212.112 
L 531.327273 215.136 
L 531.665455 215.136 
L 532.003636 218.16 
L 532.341818 215.136 
L 533.694545 215.136 
L 534.032727 212.112 
L 536.4 212.112 
L 536.738182 209.088 
L 537.076364 212.112 
L 539.781818 212.112 
L 540.458182 218.16 
L 540.796364 218.16 
L 541.134545 215.136 
L 541.472727 215.136 
L 541.810909 212.112 
L 542.487273 212.112 
L 542.825455 215.136 
L 543.163636 212.112 
L 543.501818 212.112 
L 543.84 215.136 
L 544.178182 215.136 
L 544.516364 212.112 
L 544.854545 215.136 
L 545.192727 215.136 
L 545.869091 209.088 
L 546.883636 209.088 
L 547.221818 212.112 
L 547.56 212.112 
L 547.898182 215.136 
L 548.236364 215.136 
L 548.574545 218.16 
L 548.912727 215.136 
L 549.250909 215.136 
L 549.589091 212.112 
L 550.603636 212.112 
L 551.28 218.16 
L 551.956364 218.16 
L 552.294545 215.136 
L 552.632727 218.16 
L 552.970909 218.16 
L 553.309091 215.136 
L 554.323636 215.136 
L 554.661818 218.16 
L 555 218.16 
L 555.338182 221.184 
L 555.676364 221.184 
L 557.029091 209.088 
L 557.367273 209.088 
L 557.705455 206.064 
L 558.043636 209.088 
L 558.72 209.088 
L 559.396364 215.136 
L 559.734545 212.112 
L 560.072727 212.112 
L 560.749091 206.064 
L 561.425455 206.064 
L 561.763636 203.04 
L 562.101818 206.064 
L 562.44 206.064 
L 562.778182 203.04 
L 563.116364 206.064 
L 564.130909 206.064 
L 564.469091 209.088 
L 565.145455 209.088 
L 565.483636 212.112 
L 565.821818 209.088 
L 566.836364 209.088 
L 567.512727 203.04 
L 568.527273 203.04 
L 568.865455 200.016 
L 569.541818 200.016 
L 570.218182 193.968 
L 570.556364 193.968 
L 571.232727 187.92 
L 571.570909 187.92 
L 572.247273 181.872 
L 572.585455 181.872 
L 572.923636 184.896 
L 573.261818 181.872 
L 573.938182 181.872 
L 574.276364 178.848 
L 574.952727 178.848 
L 575.290909 181.872 
L 575.629091 181.872 
L 575.967273 184.896 
L 576.305455 184.896 
L 576.643636 181.872 
L 577.32 187.92 
L 577.658182 184.896 
L 577.996364 184.896 
L 578.334545 187.92 
L 578.672727 184.896 
L 579.687273 184.896 
L 580.363636 190.944 
L 581.04 190.944 
L 581.378182 193.968 
L 582.392727 184.896 
L 582.730909 184.896 
L 583.069091 181.872 
L 583.407273 181.872 
L 583.745455 178.848 
L 584.083636 181.872 
L 584.421818 178.848 
L 585.436364 178.848 
L 585.774545 175.824 
L 586.112727 178.848 
L 586.789091 172.8 
L 587.465455 172.8 
L 587.803636 175.824 
L 589.156364 175.824 
L 589.832727 181.872 
L 590.170909 181.872 
L 591.523636 193.968 
L 591.861818 190.944 
L 592.876364 190.944 
L 593.214545 187.92 
L 594.229091 187.92 
L 594.567273 190.944 
L 595.243636 190.944 
L 595.581818 193.968 
L 596.258182 187.92 
L 596.596364 187.92 
L 597.272727 181.872 
L 597.610909 181.872 
L 597.949091 184.896 
L 598.287273 181.872 
L 598.625455 184.896 
L 599.301818 178.848 
L 599.64 178.848 
L 600.316364 184.896 
L 603.36 184.896 
L 604.374545 193.968 
L 604.712727 193.968 
L 605.050909 196.992 
L 606.403636 196.992 
L 606.741818 193.968 
L 607.08 196.992 
L 607.418182 196.992 
L 607.756364 193.968 
L 609.447273 193.968 
L 609.785455 190.944 
L 610.123636 193.968 
L 610.461818 193.968 
L 610.8 190.944 
L 612.152727 190.944 
L 612.829091 196.992 
L 613.167273 196.992 
L 613.505455 200.016 
L 615.196364 184.896 
L 616.549091 196.992 
L 617.563636 196.992 
L 617.901818 193.968 
L 618.24 196.992 
L 618.916364 190.944 
L 619.254545 190.944 
L 619.592727 193.968 
L 619.930909 190.944 
L 620.269091 190.944 
L 620.945455 196.992 
L 621.621818 196.992 
L 622.298182 190.944 
L 622.636364 190.944 
L 622.636364 190.944 
" clip-path="url(#p9b5be8e385)" style="fill: none; stroke: #0000ff; stroke-width: 2; stroke-linecap: square"/>
   </g>
   <g id="patch_3">
    <path d="M 90 384.48 
L 90 51.84 
" style="fill: none; stroke: #000000; stroke-width: 0.8; stroke-linejoin: miter; stroke-linecap: square"/>
   </g>
   <g id="patch_4">
    <path d="M 648 384.48 
L 648 51.84 
" style="fill: none; stroke: #000000; stroke-width: 0.8; stroke-linejoin: miter; stroke-linecap: square"/>
   </g>
   <g id="patch_5">
    <path d="M 90 384.48 
L 648 384.48 
" style="fill: none; stroke: #000000; stroke-width: 0.8; stroke-linejoin: miter; stroke-linecap: square"/>
   </g>
   <g id="patch_6">
    <path d="M 90 51.84 
L 648 51.84 
" style="fill: none; stroke: #000000; stroke-width: 0.8; stroke-linejoin: miter; stroke-linecap: square"/>
   </g>
   <g id="text_20">
    <!-- DQN Performance on Frozen Lake -->
    <g transform="translate(268.4175 45.84) scale(0.12 -0.12)">
     <defs>
      <path id="DejaVuSans-44" d="M 1259 4147 
L 1259 519 
L 2022 519 
Q 2988 519 3436 956 
Q 3884 1394 3884 2338 
Q 3884 3275 3436 3711 
Q 2988 4147 2022 4147 
L 1259 4147 
z
M 628 4666 
L 1925 4666 
Q 3281 4666 3915 4102 
Q 4550 3538 4550 2338 
Q 4550 1131 3912 565 
Q 3275 0 1925 0 
L 628 0 
L 628 4666 
z
" transform="scale(0.015625)"/>
      <path id="DejaVuSans-51" d="M 2522 4238 
Q 1834 4238 1429 3725 
Q 1025 3213 1025 2328 
Q 1025 1447 1429 934 
Q 1834 422 2522 422 
Q 3209 422 3611 934 
Q 4013 1447 4013 2328 
Q 4013 3213 3611 3725 
Q 3209 4238 2522 4238 
z
M 3406 84 
L 4238 -825 
L 3475 -825 
L 2784 -78 
Q 2681 -84 2626 -87 
Q 2572 -91 2522 -91 
Q 1538 -91 948 567 
Q 359 1225 359 2328 
Q 359 3434 948 4092 
Q 1538 4750 2522 4750 
Q 3503 4750 4090 4092 
Q 4678 3434 4678 2328 
Q 4678 1516 4351 937 
Q 4025 359 3406 84 
z
" transform="scale(0.015625)"/>
      <path id="DejaVuSans-4e" d="M 628 4666 
L 1478 4666 
L 3547 763 
L 3547 4666 
L 4159 4666 
L 4159 0 
L 3309 0 
L 1241 3903 
L 1241 0 
L 628 0 
L 628 4666 
z
" transform="scale(0.015625)"/>
      <path id="DejaVuSans-50" d="M 1259 4147 
L 1259 2394 
L 2053 2394 
Q 2494 2394 2734 2622 
Q 2975 2850 2975 3272 
Q 2975 3691 2734 3919 
Q 2494 4147 2053 4147 
L 1259 4147 
z
M 628 4666 
L 2053 4666 
Q 2838 4666 3239 4311 
Q 3641 3956 3641 3272 
Q 3641 2581 3239 2228 
Q 2838 1875 2053 1875 
L 1259 1875 
L 1259 0 
L 628 0 
L 628 4666 
z
" transform="scale(0.015625)"/>
      <path id="DejaVuSans-66" d="M 2375 4863 
L 2375 4384 
L 1825 4384 
Q 1516 4384 1395 4259 
Q 1275 4134 1275 3809 
L 1275 3500 
L 2222 3500 
L 2222 3053 
L 1275 3053 
L 1275 0 
L 697 0 
L 697 3053 
L 147 3053 
L 147 3500 
L 697 3500 
L 697 3744 
Q 697 4328 969 4595 
Q 1241 4863 1831 4863 
L 2375 4863 
z
" transform="scale(0.015625)"/>
      <path id="DejaVuSans-6e" d="M 3513 2113 
L 3513 0 
L 2938 0 
L 2938 2094 
Q 2938 2591 2744 2837 
Q 2550 3084 2163 3084 
Q 1697 3084 1428 2787 
Q 1159 2491 1159 1978 
L 1159 0 
L 581 0 
L 581 3500 
L 1159 3500 
L 1159 2956 
Q 1366 3272 1645 3428 
Q 1925 3584 2291 3584 
Q 2894 3584 3203 3211 
Q 3513 2838 3513 2113 
z
" transform="scale(0.015625)"/>
      <path id="DejaVuSans-63" d="M 3122 3366 
L 3122 2828 
Q 2878 2963 2633 3030 
Q 2388 3097 2138 3097 
Q 1578 3097 1268 2742 
Q 959 2388 959 1747 
Q 959 1106 1268 751 
Q 1578 397 2138 397 
Q 2388 397 2633 464 
Q 2878 531 3122 666 
L 3122 134 
Q 2881 22 2623 -34 
Q 2366 -91 2075 -91 
Q 1284 -91 818 406 
Q 353 903 353 1747 
Q 353 2603 823 3093 
Q 1294 3584 2113 3584 
Q 2378 3584 2631 3529 
Q 2884 3475 3122 3366 
z
" transform="scale(0.015625)"/>
      <path id="DejaVuSans-46" d="M 628 4666 
L 3309 4666 
L 3309 4134 
L 1259 4134 
L 1259 2759 
L 3109 2759 
L 3109 2228 
L 1259 2228 
L 1259 0 
L 628 0 
L 628 4666 
z
" transform="scale(0.015625)"/>
      <path id="DejaVuSans-7a" d="M 353 3500 
L 3084 3500 
L 3084 2975 
L 922 459 
L 3084 459 
L 3084 0 
L 275 0 
L 275 525 
L 2438 3041 
L 353 3041 
L 353 3500 
z
" transform="scale(0.015625)"/>
      <path id="DejaVuSans-4c" d="M 628 4666 
L 1259 4666 
L 1259 531 
L 3531 531 
L 3531 0 
L 628 0 
L 628 4666 
z
" transform="scale(0.015625)"/>
      <path id="DejaVuSans-6b" d="M 581 4863 
L 1159 4863 
L 1159 1991 
L 2875 3500 
L 3609 3500 
L 1753 1863 
L 3688 0 
L 2938 0 
L 1159 1709 
L 1159 0 
L 581 0 
L 581 4863 
z
" transform="scale(0.015625)"/>
     </defs>
     <use xlink:href="#DejaVuSans-44"/>
     <use xlink:href="#DejaVuSans-51" transform="translate(77.001953 0)"/>
     <use xlink:href="#DejaVuSans-4e" transform="translate(155.712891 0)"/>
     <use xlink:href="#DejaVuSans-20" transform="translate(230.517578 0)"/>
     <use xlink:href="#DejaVuSans-50" transform="translate(262.304688 0)"/>
     <use xlink:href="#DejaVuSans-65" transform="translate(318.982422 0)"/>
     <use xlink:href="#DejaVuSans-72" transform="translate(380.505859 0)"/>
     <use xlink:href="#DejaVuSans-66" transform="translate(421.619141 0)"/>
     <use xlink:href="#DejaVuSans-6f" transform="translate(456.824219 0)"/>
     <use xlink:href="#DejaVuSans-72" transform="translate(518.005859 0)"/>
     <use xlink:href="#DejaVuSans-6d" transform="translate(557.369141 0)"/>
     <use xlink:href="#DejaVuSans-61" transform="translate(654.78125 0)"/>
     <use xlink:href="#DejaVuSans-6e" transform="translate(716.060547 0)"/>
     <use xlink:href="#DejaVuSans-63" transform="translate(779.439453 0)"/>
     <use xlink:href="#DejaVuSans-65" transform="translate(834.419922 0)"/>
     <use xlink:href="#DejaVuSans-20" transform="translate(895.943359 0)"/>
     <use xlink:href="#DejaVuSans-6f" transform="translate(927.730469 0)"/>
     <use xlink:href="#DejaVuSans-6e" transform="translate(988.912109 0)"/>
     <use xlink:href="#DejaVuSans-20" transform="translate(1052.291016 0)"/>
     <use xlink:href="#DejaVuSans-46" transform="translate(1084.078125 0)"/>
     <use xlink:href="#DejaVuSans-72" transform="translate(1134.347656 0)"/>
     <use xlink:href="#DejaVuSans-6f" transform="translate(1173.210938 0)"/>
     <use xlink:href="#DejaVuSans-7a" transform="translate(1234.392578 0)"/>
     <use xlink:href="#DejaVuSans-65" transform="translate(1286.882812 0)"/>
     <use xlink:href="#DejaVuSans-6e" transform="translate(1348.40625 0)"/>
     <use xlink:href="#DejaVuSans-20" transform="translate(1411.785156 0)"/>
     <use xlink:href="#DejaVuSans-4c" transform="translate(1443.572266 0)"/>
     <use xlink:href="#DejaVuSans-61" transform="translate(1499.285156 0)"/>
     <use xlink:href="#DejaVuSans-6b" transform="translate(1560.564453 0)"/>
     <use xlink:href="#DejaVuSans-65" transform="translate(1614.849609 0)"/>
    </g>
   </g>
   <g id="legend_1">
    <g id="patch_7">
     <path d="M 97 89.19625 
L 279.65625 89.19625 
Q 281.65625 89.19625 281.65625 87.19625 
L 281.65625 58.84 
Q 281.65625 56.84 279.65625 56.84 
L 97 56.84 
Q 95 56.84 95 58.84 
L 95 87.19625 
Q 95 89.19625 97 89.19625 
z
" style="fill: #ffffff; opacity: 0.8; stroke: #cccccc; stroke-linejoin: miter"/>
    </g>
    <g id="line2d_37">
     <path d="M 99 64.938437 
L 109 64.938437 
L 119 64.938437 
" style="fill: none; stroke: #1f77b4; stroke-opacity: 0.3; stroke-width: 1.5; stroke-linecap: square"/>
    </g>
    <g id="text_21">
     <!-- Raw Rewards -->
     <g transform="translate(127 68.438437) scale(0.1 -0.1)">
      <use xlink:href="#DejaVuSans-52"/>
      <use xlink:href="#DejaVuSans-61" transform="translate(67.232422 0)"/>
      <use xlink:href="#DejaVuSans-77" transform="translate(128.511719 0)"/>
      <use xlink:href="#DejaVuSans-20" transform="translate(210.298828 0)"/>
      <use xlink:href="#DejaVuSans-52" transform="translate(242.085938 0)"/>
      <use xlink:href="#DejaVuSans-65" transform="translate(307.068359 0)"/>
      <use xlink:href="#DejaVuSans-77" transform="translate(368.591797 0)"/>
      <use xlink:href="#DejaVuSans-61" transform="translate(450.378906 0)"/>
      <use xlink:href="#DejaVuSans-72" transform="translate(511.658203 0)"/>
      <use xlink:href="#DejaVuSans-64" transform="translate(551.021484 0)"/>
      <use xlink:href="#DejaVuSans-73" transform="translate(614.498047 0)"/>
     </g>
    </g>
    <g id="line2d_38">
     <path d="M 99 79.616562 
L 109 79.616562 
L 119 79.616562 
" style="fill: none; stroke: #0000ff; stroke-width: 2; stroke-linecap: square"/>
    </g>
    <g id="text_22">
     <!-- Smoothed Avg (Window=100) -->
     <g transform="translate(127 83.116562) scale(0.1 -0.1)">
      <defs>
       <path id="DejaVuSans-53" d="M 3425 4513 
L 3425 3897 
Q 3066 4069 2747 4153 
Q 2428 4238 2131 4238 
Q 1616 4238 1336 4038 
Q 1056 3838 1056 3469 
Q 1056 3159 1242 3001 
Q 1428 2844 1947 2747 
L 2328 2669 
Q 3034 2534 3370 2195 
Q 3706 1856 3706 1288 
Q 3706 609 3251 259 
Q 2797 -91 1919 -91 
Q 1588 -91 1214 -16 
Q 841 59 441 206 
L 441 856 
Q 825 641 1194 531 
Q 1563 422 1919 422 
Q 2459 422 2753 634 
Q 3047 847 3047 1241 
Q 3047 1584 2836 1778 
Q 2625 1972 2144 2069 
L 1759 2144 
Q 1053 2284 737 2584 
Q 422 2884 422 3419 
Q 422 4038 858 4394 
Q 1294 4750 2059 4750 
Q 2388 4750 2728 4690 
Q 3069 4631 3425 4513 
z
" transform="scale(0.015625)"/>
       <path id="DejaVuSans-68" d="M 3513 2113 
L 3513 0 
L 2938 0 
L 2938 2094 
Q 2938 2591 2744 2837 
Q 2550 3084 2163 3084 
Q 1697 3084 1428 2787 
Q 1159 2491 1159 1978 
L 1159 0 
L 581 0 
L 581 4863 
L 1159 4863 
L 1159 2956 
Q 1366 3272 1645 3428 
Q 1925 3584 2291 3584 
Q 2894 3584 3203 3211 
Q 3513 2838 3513 2113 
z
" transform="scale(0.015625)"/>
       <path id="DejaVuSans-41" d="M 2188 4044 
L 1331 1722 
L 3047 1722 
L 2188 4044 
z
M 1831 4666 
L 2547 4666 
L 4325 0 
L 3669 0 
L 3244 1197 
L 1141 1197 
L 716 0 
L 50 0 
L 1831 4666 
z
" transform="scale(0.015625)"/>
       <path id="DejaVuSans-67" d="M 2906 1791 
Q 2906 2416 2648 2759 
Q 2391 3103 1925 3103 
Q 1463 3103 1205 2759 
Q 947 2416 947 1791 
Q 947 1169 1205 825 
Q 1463 481 1925 481 
Q 2391 481 2648 825 
Q 2906 1169 2906 1791 
z
M 3481 434 
Q 3481 -459 3084 -895 
Q 2688 -1331 1869 -1331 
Q 1566 -1331 1297 -1286 
Q 1028 -1241 775 -1147 
L 775 -588 
Q 1028 -725 1275 -790 
Q 1522 -856 1778 -856 
Q 2344 -856 2625 -561 
Q 2906 -266 2906 331 
L 2906 616 
Q 2728 306 2450 153 
Q 2172 0 1784 0 
Q 1141 0 747 490 
Q 353 981 353 1791 
Q 353 2603 747 3093 
Q 1141 3584 1784 3584 
Q 2172 3584 2450 3431 
Q 2728 3278 2906 2969 
L 2906 3500 
L 3481 3500 
L 3481 434 
z
" transform="scale(0.015625)"/>
       <path id="DejaVuSans-57" d="M 213 4666 
L 850 4666 
L 1831 722 
L 2809 4666 
L 3519 4666 
L 4500 722 
L 5478 4666 
L 6119 4666 
L 4947 0 
L 4153 0 
L 3169 4050 
L 2175 0 
L 1381 0 
L 213 4666 
z
" transform="scale(0.015625)"/>
      </defs>
      <use xlink:href="#DejaVuSans-53"/>
      <use xlink:href="#DejaVuSans-6d" transform="translate(63.476562 0)"/>
      <use xlink:href="#DejaVuSans-6f" transform="translate(160.888672 0)"/>
      <use xlink:href="#DejaVuSans-6f" transform="translate(222.070312 0)"/>
      <use xlink:href="#DejaVuSans-74" transform="translate(283.251953 0)"/>
      <use xlink:href="#DejaVuSans-68" transform="translate(322.460938 0)"/>
      <use xlink:href="#DejaVuSans-65" transform="translate(385.839844 0)"/>
      <use xlink:href="#DejaVuSans-64" transform="translate(447.363281 0)"/>
      <use xlink:href="#DejaVuSans-20" transform="translate(510.839844 0)"/>
      <use xlink:href="#DejaVuSans-41" transform="translate(542.626953 0)"/>
      <use xlink:href="#DejaVuSans-76" transform="translate(605.160156 0)"/>
      <use xlink:href="#DejaVuSans-67" transform="translate(664.339844 0)"/>
      <use xlink:href="#DejaVuSans-20" transform="translate(727.816406 0)"/>
      <use xlink:href="#DejaVuSans-28" transform="translate(759.603516 0)"/>
      <use xlink:href="#DejaVuSans-57" transform="translate(798.617188 0)"/>
      <use xlink:href="#DejaVuSans-69" transform="translate(895.244141 0)"/>
      <use xlink:href="#DejaVuSans-6e" transform="translate(923.027344 0)"/>
      <use xlink:href="#DejaVuSans-64" transform="translate(986.40625 0)"/>
      <use xlink:href="#DejaVuSans-6f" transform="translate(1049.882812 0)"/>
      <use xlink:href="#DejaVuSans-77" transform="translate(1111.064453 0)"/>
      <use xlink:href="#DejaVuSans-3d" transform="translate(1192.851562 0)"/>
      <use xlink:href="#DejaVuSans-31" transform="translate(1276.640625 0)"/>
      <use xlink:href="#DejaVuSans-30" transform="translate(1340.263672 0)"/>
      <use xlink:href="#DejaVuSans-30" transform="translate(1403.886719 0)"/>
      <use xlink:href="#DejaVuSans-29" transform="translate(1467.509766 0)"/>
     </g>
    </g>
   </g>
  </g>
 </g>
 <defs>
  <clipPath id="p9b5be8e385">
   <rect x="90" y="51.84" width="558" height="332.64"/>
  </clipPath>
 </defs>
</svg>
