<?xml version="1.0" encoding="utf-8" standalone="no"?>
<!DOCTYPE svg PUBLIC "-//W3C//DTD SVG 1.1//EN"
  "http://www.w3.org/Graphics/SVG/1.1/DTD/svg11.dtd">
<svg xmlns:xlink="http://www.w3.org/1999/xlink" width="720pt" height="288pt" viewBox="0 0 720 288" xmlns="http://www.w3.org/2000/svg" version="1.1">
 <metadata>
  <rdf:RDF xmlns:dc="http://purl.org/dc/elements/1.1/" xmlns:cc="http://creativecommons.org/ns#" xmlns:rdf="http://www.w3.org/1999/02/22-rdf-syntax-ns#">
   <cc:Work>
    <dc:type rdf:resource="http://purl.org/dc/dcmitype/StillImage"/>
    <dc:date>2025-12-06T08:16:37.062790</dc:date>
    <dc:format>image/svg+xml</dc:format>
    <dc:creator>
     <cc:Agent>
      <dc:title>Matplotlib v3.10.7, https://matplotlib.org/</dc:title>
     </cc:Agent>
    </dc:creator>
   </cc:Work>
  </rdf:RDF>
 </metadata>
 <defs>
  <style type="text/css">*{stroke-linejoin: round; stroke-linecap: butt}</style>
 </defs>
 <g id="figure_1">
  <g id="patch_1">
   <path d="M 0 288 
L 720 288 
L 720 0 
L 0 0 
z
" style="fill: #ffffff"/>
  </g>
  <g id="axes_1">
   <g id="patch_2">
    <path d="M 90 256.32 
L 648 256.32 
L 648 34.56 
L 90 34.56 
z
" style="fill: #ffffff"/>
   </g>
   <g id="matplotlib.axis_1">
    <g id="xtick_1">
     <g id="line2d_1">
      <path d="M 115.363636 256.32 
L 115.363636 34.56 
" clip-path="url(#p95bf6ddd7c)" style="fill: none; stroke: #b0b0b0; stroke-width: 0.8; stroke-linecap: square"/>
     </g>
     <g id="line2d_2">
      <defs>
       <path id="mf08f880be9" d="M 0 0 
L 0 3.5 
" style="stroke: #000000; stroke-width: 0.8"/>
      </defs>
      <g>
       <use xlink:href="#mf08f880be9" x="115.363636" y="256.32" style="stroke: #000000; stroke-width: 0.8"/>
      </g>
     </g>
     <g id="text_1">
      <!-- 0 -->
      <g transform="translate(112.182386 270.918437) scale(0.1 -0.1)">
       <defs>
        <path id="DejaVuSans-30" d="M 2034 4250 
Q 1547 4250 1301 3770 
Q 1056 3291 1056 2328 
Q 1056 1369 1301 889 
Q 1547 409 2034 409 
Q 2525 409 2770 889 
Q 3016 1369 3016 2328 
Q 3016 3291 2770 3770 
Q 2525 4250 2034 4250 
z
M 2034 4750 
Q 2819 4750 3233 4129 
Q 3647 3509 3647 2328 
Q 3647 1150 3233 529 
Q 2819 -91 2034 -91 
Q 1250 -91 836 529 
Q 422 1150 422 2328 
Q 422 3509 836 4129 
Q 1250 4750 2034 4750 
z
" transform="scale(0.015625)"/>
       </defs>
       <use xlink:href="#DejaVuSans-30"/>
      </g>
     </g>
    </g>
    <g id="xtick_2">
     <g id="line2d_3">
      <path d="M 216.828328 256.32 
L 216.828328 34.56 
" clip-path="url(#p95bf6ddd7c)" style="fill: none; stroke: #b0b0b0; stroke-width: 0.8; stroke-linecap: square"/>
     </g>
     <g id="line2d_4">
      <g>
       <use xlink:href="#mf08f880be9" x="216.828328" y="256.32" style="stroke: #000000; stroke-width: 0.8"/>
      </g>
     </g>
     <g id="text_2">
      <!-- 2000 -->
      <g transform="translate(204.103328 270.918437) scale(0.1 -0.1)">
       <defs>
        <path id="DejaVuSans-32" d="M 1228 531 
L 3431 531 
L 3431 0 
L 469 0 
L 469 531 
Q 828 903 1448 1529 
Q 2069 2156 2228 2338 
Q 2531 2678 2651 2914 
Q 2772 3150 2772 3378 
Q 2772 3750 2511 3984 
Q 2250 4219 1831 4219 
Q 1534 4219 1204 4116 
Q 875 4013 500 3803 
L 500 4441 
Q 881 4594 1212 4672 
Q 1544 4750 1819 4750 
Q 2544 4750 2975 4387 
Q 3406 4025 3406 3419 
Q 3406 3131 3298 2873 
Q 3191 2616 2906 2266 
Q 2828 2175 2409 1742 
Q 1991 1309 1228 531 
z
" transform="scale(0.015625)"/>
       </defs>
       <use xlink:href="#DejaVuSans-32"/>
       <use xlink:href="#DejaVuSans-30" transform="translate(63.623047 0)"/>
       <use xlink:href="#DejaVuSans-30" transform="translate(127.246094 0)"/>
       <use xlink:href="#DejaVuSans-30" transform="translate(190.869141 0)"/>
      </g>
     </g>
    </g>
    <g id="xtick_3">
     <g id="line2d_5">
      <path d="M 318.29302 256.32 
L 318.29302 34.56 
" clip-path="url(#p95bf6ddd7c)" style="fill: none; stroke: #b0b0b0; stroke-width: 0.8; stroke-linecap: square"/>
     </g>
     <g id="line2d_6">
      <g>
       <use xlink:href="#mf08f880be9" x="318.29302" y="256.32" style="stroke: #000000; stroke-width: 0.8"/>
      </g>
     </g>
     <g id="text_3">
      <!-- 4000 -->
      <g transform="translate(305.56802 270.918437) scale(0.1 -0.1)">
       <defs>
        <path id="DejaVuSans-34" d="M 2419 4116 
L 825 1625 
L 2419 1625 
L 2419 4116 
z
M 2253 4666 
L 3047 4666 
L 3047 1625 
L 3713 1625 
L 3713 1100 
L 3047 1100 
L 3047 0 
L 2419 0 
L 2419 1100 
L 313 1100 
L 313 1709 
L 2253 4666 
z
" transform="scale(0.015625)"/>
       </defs>
       <use xlink:href="#DejaVuSans-34"/>
       <use xlink:href="#DejaVuSans-30" transform="translate(63.623047 0)"/>
       <use xlink:href="#DejaVuSans-30" transform="translate(127.246094 0)"/>
       <use xlink:href="#DejaVuSans-30" transform="translate(190.869141 0)"/>
      </g>
     </g>
    </g>
    <g id="xtick_4">
     <g id="line2d_7">
      <path d="M 419.757712 256.32 
L 419.757712 34.56 
" clip-path="url(#p95bf6ddd7c)" style="fill: none; stroke: #b0b0b0; stroke-width: 0.8; stroke-linecap: square"/>
     </g>
     <g id="line2d_8">
      <g>
       <use xlink:href="#mf08f880be9" x="419.757712" y="256.32" style="stroke: #000000; stroke-width: 0.8"/>
      </g>
     </g>
     <g id="text_4">
      <!-- 6000 -->
      <g transform="translate(407.032712 270.918437) scale(0.1 -0.1)">
       <defs>
        <path id="DejaVuSans-36" d="M 2113 2584 
Q 1688 2584 1439 2293 
Q 1191 2003 1191 1497 
Q 1191 994 1439 701 
Q 1688 409 2113 409 
Q 2538 409 2786 701 
Q 3034 994 3034 1497 
Q 3034 2003 2786 2293 
Q 2538 2584 2113 2584 
z
M 3366 4563 
L 3366 3988 
Q 3128 4100 2886 4159 
Q 2644 4219 2406 4219 
Q 1781 4219 1451 3797 
Q 1122 3375 1075 2522 
Q 1259 2794 1537 2939 
Q 1816 3084 2150 3084 
Q 2853 3084 3261 2657 
Q 3669 2231 3669 1497 
Q 3669 778 3244 343 
Q 2819 -91 2113 -91 
Q 1303 -91 875 529 
Q 447 1150 447 2328 
Q 447 3434 972 4092 
Q 1497 4750 2381 4750 
Q 2619 4750 2861 4703 
Q 3103 4656 3366 4563 
z
" transform="scale(0.015625)"/>
       </defs>
       <use xlink:href="#DejaVuSans-36"/>
       <use xlink:href="#DejaVuSans-30" transform="translate(63.623047 0)"/>
       <use xlink:href="#DejaVuSans-30" transform="translate(127.246094 0)"/>
       <use xlink:href="#DejaVuSans-30" transform="translate(190.869141 0)"/>
      </g>
     </g>
    </g>
    <g id="xtick_5">
     <g id="line2d_9">
      <path d="M 521.222404 256.32 
L 521.222404 34.56 
" clip-path="url(#p95bf6ddd7c)" style="fill: none; stroke: #b0b0b0; stroke-width: 0.8; stroke-linecap: square"/>
     </g>
     <g id="line2d_10">
      <g>
       <use xlink:href="#mf08f880be9" x="521.222404" y="256.32" style="stroke: #000000; stroke-width: 0.8"/>
      </g>
     </g>
     <g id="text_5">
      <!-- 8000 -->
      <g transform="translate(508.497404 270.918437) scale(0.1 -0.1)">
       <defs>
        <path id="DejaVuSans-38" d="M 2034 2216 
Q 1584 2216 1326 1975 
Q 1069 1734 1069 1313 
Q 1069 891 1326 650 
Q 1584 409 2034 409 
Q 2484 409 2743 651 
Q 3003 894 3003 1313 
Q 3003 1734 2745 1975 
Q 2488 2216 2034 2216 
z
M 1403 2484 
Q 997 2584 770 2862 
Q 544 3141 544 3541 
Q 544 4100 942 4425 
Q 1341 4750 2034 4750 
Q 2731 4750 3128 4425 
Q 3525 4100 3525 3541 
Q 3525 3141 3298 2862 
Q 3072 2584 2669 2484 
Q 3125 2378 3379 2068 
Q 3634 1759 3634 1313 
Q 3634 634 3220 271 
Q 2806 -91 2034 -91 
Q 1263 -91 848 271 
Q 434 634 434 1313 
Q 434 1759 690 2068 
Q 947 2378 1403 2484 
z
M 1172 3481 
Q 1172 3119 1398 2916 
Q 1625 2713 2034 2713 
Q 2441 2713 2670 2916 
Q 2900 3119 2900 3481 
Q 2900 3844 2670 4047 
Q 2441 4250 2034 4250 
Q 1625 4250 1398 4047 
Q 1172 3844 1172 3481 
z
" transform="scale(0.015625)"/>
       </defs>
       <use xlink:href="#DejaVuSans-38"/>
       <use xlink:href="#DejaVuSans-30" transform="translate(63.623047 0)"/>
       <use xlink:href="#DejaVuSans-30" transform="translate(127.246094 0)"/>
       <use xlink:href="#DejaVuSans-30" transform="translate(190.869141 0)"/>
      </g>
     </g>
    </g>
    <g id="xtick_6">
     <g id="line2d_11">
      <path d="M 622.687096 256.32 
L 622.687096 34.56 
" clip-path="url(#p95bf6ddd7c)" style="fill: none; stroke: #b0b0b0; stroke-width: 0.8; stroke-linecap: square"/>
     </g>
     <g id="line2d_12">
      <g>
       <use xlink:href="#mf08f880be9" x="622.687096" y="256.32" style="stroke: #000000; stroke-width: 0.8"/>
      </g>
     </g>
     <g id="text_6">
      <!-- 10000 -->
      <g transform="translate(606.780846 270.918437) scale(0.1 -0.1)">
       <defs>
        <path id="DejaVuSans-31" d="M 794 531 
L 1825 531 
L 1825 4091 
L 703 3866 
L 703 4441 
L 1819 4666 
L 2450 4666 
L 2450 531 
L 3481 531 
L 3481 0 
L 794 0 
L 794 531 
z
" transform="scale(0.015625)"/>
       </defs>
       <use xlink:href="#DejaVuSans-31"/>
       <use xlink:href="#DejaVuSans-30" transform="translate(63.623047 0)"/>
       <use xlink:href="#DejaVuSans-30" transform="translate(127.246094 0)"/>
       <use xlink:href="#DejaVuSans-30" transform="translate(190.869141 0)"/>
       <use xlink:href="#DejaVuSans-30" transform="translate(254.492188 0)"/>
      </g>
     </g>
    </g>
    <g id="text_7">
     <!-- Iterations -->
     <g transform="translate(335.661406 287.635938) scale(0.14 -0.14)">
      <defs>
       <path id="DejaVuSans-49" d="M 628 4666 
L 1259 4666 
L 1259 0 
L 628 0 
L 628 4666 
z
" transform="scale(0.015625)"/>
       <path id="DejaVuSans-74" d="M 1172 4494 
L 1172 3500 
L 2356 3500 
L 2356 3053 
L 1172 3053 
L 1172 1153 
Q 1172 725 1289 603 
Q 1406 481 1766 481 
L 2356 481 
L 2356 0 
L 1766 0 
Q 1100 0 847 248 
Q 594 497 594 1153 
L 594 3053 
L 172 3053 
L 172 3500 
L 594 3500 
L 594 4494 
L 1172 4494 
z
" transform="scale(0.015625)"/>
       <path id="DejaVuSans-65" d="M 3597 1894 
L 3597 1613 
L 953 1613 
Q 991 1019 1311 708 
Q 1631 397 2203 397 
Q 2534 397 2845 478 
Q 3156 559 3463 722 
L 3463 178 
Q 3153 47 2828 -22 
Q 2503 -91 2169 -91 
Q 1331 -91 842 396 
Q 353 884 353 1716 
Q 353 2575 817 3079 
Q 1281 3584 2069 3584 
Q 2775 3584 3186 3129 
Q 3597 2675 3597 1894 
z
M 3022 2063 
Q 3016 2534 2758 2815 
Q 2500 3097 2075 3097 
Q 1594 3097 1305 2825 
Q 1016 2553 972 2059 
L 3022 2063 
z
" transform="scale(0.015625)"/>
       <path id="DejaVuSans-72" d="M 2631 2963 
Q 2534 3019 2420 3045 
Q 2306 3072 2169 3072 
Q 1681 3072 1420 2755 
Q 1159 2438 1159 1844 
L 1159 0 
L 581 0 
L 581 3500 
L 1159 3500 
L 1159 2956 
Q 1341 3275 1631 3429 
Q 1922 3584 2338 3584 
Q 2397 3584 2469 3576 
Q 2541 3569 2628 3553 
L 2631 2963 
z
" transform="scale(0.015625)"/>
       <path id="DejaVuSans-61" d="M 2194 1759 
Q 1497 1759 1228 1600 
Q 959 1441 959 1056 
Q 959 750 1161 570 
Q 1363 391 1709 391 
Q 2188 391 2477 730 
Q 2766 1069 2766 1631 
L 2766 1759 
L 2194 1759 
z
M 3341 1997 
L 3341 0 
L 2766 0 
L 2766 531 
Q 2569 213 2275 61 
Q 1981 -91 1556 -91 
Q 1019 -91 701 211 
Q 384 513 384 1019 
Q 384 1609 779 1909 
Q 1175 2209 1959 2209 
L 2766 2209 
L 2766 2266 
Q 2766 2663 2505 2880 
Q 2244 3097 1772 3097 
Q 1472 3097 1187 3025 
Q 903 2953 641 2809 
L 641 3341 
Q 956 3463 1253 3523 
Q 1550 3584 1831 3584 
Q 2591 3584 2966 3190 
Q 3341 2797 3341 1997 
z
" transform="scale(0.015625)"/>
       <path id="DejaVuSans-69" d="M 603 3500 
L 1178 3500 
L 1178 0 
L 603 0 
L 603 3500 
z
M 603 4863 
L 1178 4863 
L 1178 4134 
L 603 4134 
L 603 4863 
z
" transform="scale(0.015625)"/>
       <path id="DejaVuSans-6f" d="M 1959 3097 
Q 1497 3097 1228 2736 
Q 959 2375 959 1747 
Q 959 1119 1226 758 
Q 1494 397 1959 397 
Q 2419 397 2687 759 
Q 2956 1122 2956 1747 
Q 2956 2369 2687 2733 
Q 2419 3097 1959 3097 
z
M 1959 3584 
Q 2709 3584 3137 3096 
Q 3566 2609 3566 1747 
Q 3566 888 3137 398 
Q 2709 -91 1959 -91 
Q 1206 -91 779 398 
Q 353 888 353 1747 
Q 353 2609 779 3096 
Q 1206 3584 1959 3584 
z
" transform="scale(0.015625)"/>
       <path id="DejaVuSans-6e" d="M 3513 2113 
L 3513 0 
L 2938 0 
L 2938 2094 
Q 2938 2591 2744 2837 
Q 2550 3084 2163 3084 
Q 1697 3084 1428 2787 
Q 1159 2491 1159 1978 
L 1159 0 
L 581 0 
L 581 3500 
L 1159 3500 
L 1159 2956 
Q 1366 3272 1645 3428 
Q 1925 3584 2291 3584 
Q 2894 3584 3203 3211 
Q 3513 2838 3513 2113 
z
" transform="scale(0.015625)"/>
       <path id="DejaVuSans-73" d="M 2834 3397 
L 2834 2853 
Q 2591 2978 2328 3040 
Q 2066 3103 1784 3103 
Q 1356 3103 1142 2972 
Q 928 2841 928 2578 
Q 928 2378 1081 2264 
Q 1234 2150 1697 2047 
L 1894 2003 
Q 2506 1872 2764 1633 
Q 3022 1394 3022 966 
Q 3022 478 2636 193 
Q 2250 -91 1575 -91 
Q 1294 -91 989 -36 
Q 684 19 347 128 
L 347 722 
Q 666 556 975 473 
Q 1284 391 1588 391 
Q 1994 391 2212 530 
Q 2431 669 2431 922 
Q 2431 1156 2273 1281 
Q 2116 1406 1581 1522 
L 1381 1569 
Q 847 1681 609 1914 
Q 372 2147 372 2553 
Q 372 3047 722 3315 
Q 1072 3584 1716 3584 
Q 2034 3584 2315 3537 
Q 2597 3491 2834 3397 
z
" transform="scale(0.015625)"/>
      </defs>
      <use xlink:href="#DejaVuSans-49"/>
      <use xlink:href="#DejaVuSans-74" transform="translate(29.492188 0)"/>
      <use xlink:href="#DejaVuSans-65" transform="translate(68.701172 0)"/>
      <use xlink:href="#DejaVuSans-72" transform="translate(130.224609 0)"/>
      <use xlink:href="#DejaVuSans-61" transform="translate(171.337891 0)"/>
      <use xlink:href="#DejaVuSans-74" transform="translate(232.617188 0)"/>
      <use xlink:href="#DejaVuSans-69" transform="translate(271.826172 0)"/>
      <use xlink:href="#DejaVuSans-6f" transform="translate(299.609375 0)"/>
      <use xlink:href="#DejaVuSans-6e" transform="translate(360.791016 0)"/>
      <use xlink:href="#DejaVuSans-73" transform="translate(424.169922 0)"/>
     </g>
    </g>
   </g>
   <g id="matplotlib.axis_2">
    <g id="ytick_1">
     <g id="line2d_13">
      <path d="M 90 224.921753 
L 648 224.921753 
" clip-path="url(#p95bf6ddd7c)" style="fill: none; stroke: #b0b0b0; stroke-width: 0.8; stroke-linecap: square"/>
     </g>
     <g id="line2d_14">
      <defs>
       <path id="mf907f59f92" d="M 0 0 
L -3.5 0 
" style="stroke: #000000; stroke-width: 0.8"/>
      </defs>
      <g>
       <use xlink:href="#mf907f59f92" x="90" y="224.921753" style="stroke: #000000; stroke-width: 0.8"/>
      </g>
     </g>
     <g id="text_8">
      <!-- −0.25 -->
      <g transform="translate(52.354687 228.720972) scale(0.1 -0.1)">
       <defs>
        <path id="DejaVuSans-2212" d="M 678 2272 
L 4684 2272 
L 4684 1741 
L 678 1741 
L 678 2272 
z
" transform="scale(0.015625)"/>
        <path id="DejaVuSans-2e" d="M 684 794 
L 1344 794 
L 1344 0 
L 684 0 
L 684 794 
z
" transform="scale(0.015625)"/>
        <path id="DejaVuSans-35" d="M 691 4666 
L 3169 4666 
L 3169 4134 
L 1269 4134 
L 1269 2991 
Q 1406 3038 1543 3061 
Q 1681 3084 1819 3084 
Q 2600 3084 3056 2656 
Q 3513 2228 3513 1497 
Q 3513 744 3044 326 
Q 2575 -91 1722 -91 
Q 1428 -91 1123 -41 
Q 819 9 494 109 
L 494 744 
Q 775 591 1075 516 
Q 1375 441 1709 441 
Q 2250 441 2565 725 
Q 2881 1009 2881 1497 
Q 2881 1984 2565 2268 
Q 2250 2553 1709 2553 
Q 1456 2553 1204 2497 
Q 953 2441 691 2322 
L 691 4666 
z
" transform="scale(0.015625)"/>
       </defs>
       <use xlink:href="#DejaVuSans-2212"/>
       <use xlink:href="#DejaVuSans-30" transform="translate(83.789062 0)"/>
       <use xlink:href="#DejaVuSans-2e" transform="translate(147.412109 0)"/>
       <use xlink:href="#DejaVuSans-32" transform="translate(179.199219 0)"/>
       <use xlink:href="#DejaVuSans-35" transform="translate(242.822266 0)"/>
      </g>
     </g>
    </g>
    <g id="ytick_2">
     <g id="line2d_15">
      <path d="M 90 188.865403 
L 648 188.865403 
" clip-path="url(#p95bf6ddd7c)" style="fill: none; stroke: #b0b0b0; stroke-width: 0.8; stroke-linecap: square"/>
     </g>
     <g id="line2d_16">
      <g>
       <use xlink:href="#mf907f59f92" x="90" y="188.865403" style="stroke: #000000; stroke-width: 0.8"/>
      </g>
     </g>
     <g id="text_9">
      <!-- −0.20 -->
      <g transform="translate(52.354687 192.664622) scale(0.1 -0.1)">
       <use xlink:href="#DejaVuSans-2212"/>
       <use xlink:href="#DejaVuSans-30" transform="translate(83.789062 0)"/>
       <use xlink:href="#DejaVuSans-2e" transform="translate(147.412109 0)"/>
       <use xlink:href="#DejaVuSans-32" transform="translate(179.199219 0)"/>
       <use xlink:href="#DejaVuSans-30" transform="translate(242.822266 0)"/>
      </g>
     </g>
    </g>
    <g id="ytick_3">
     <g id="line2d_17">
      <path d="M 90 152.809052 
L 648 152.809052 
" clip-path="url(#p95bf6ddd7c)" style="fill: none; stroke: #b0b0b0; stroke-width: 0.8; stroke-linecap: square"/>
     </g>
     <g id="line2d_18">
      <g>
       <use xlink:href="#mf907f59f92" x="90" y="152.809052" style="stroke: #000000; stroke-width: 0.8"/>
      </g>
     </g>
     <g id="text_10">
      <!-- −0.15 -->
      <g transform="translate(52.354687 156.608271) scale(0.1 -0.1)">
       <use xlink:href="#DejaVuSans-2212"/>
       <use xlink:href="#DejaVuSans-30" transform="translate(83.789062 0)"/>
       <use xlink:href="#DejaVuSans-2e" transform="translate(147.412109 0)"/>
       <use xlink:href="#DejaVuSans-31" transform="translate(179.199219 0)"/>
       <use xlink:href="#DejaVuSans-35" transform="translate(242.822266 0)"/>
      </g>
     </g>
    </g>
    <g id="ytick_4">
     <g id="line2d_19">
      <path d="M 90 116.752701 
L 648 116.752701 
" clip-path="url(#p95bf6ddd7c)" style="fill: none; stroke: #b0b0b0; stroke-width: 0.8; stroke-linecap: square"/>
     </g>
     <g id="line2d_20">
      <g>
       <use xlink:href="#mf907f59f92" x="90" y="116.752701" style="stroke: #000000; stroke-width: 0.8"/>
      </g>
     </g>
     <g id="text_11">
      <!-- −0.10 -->
      <g transform="translate(52.354687 120.55192) scale(0.1 -0.1)">
       <use xlink:href="#DejaVuSans-2212"/>
       <use xlink:href="#DejaVuSans-30" transform="translate(83.789062 0)"/>
       <use xlink:href="#DejaVuSans-2e" transform="translate(147.412109 0)"/>
       <use xlink:href="#DejaVuSans-31" transform="translate(179.199219 0)"/>
       <use xlink:href="#DejaVuSans-30" transform="translate(242.822266 0)"/>
      </g>
     </g>
    </g>
    <g id="ytick_5">
     <g id="line2d_21">
      <path d="M 90 80.696351 
L 648 80.696351 
" clip-path="url(#p95bf6ddd7c)" style="fill: none; stroke: #b0b0b0; stroke-width: 0.8; stroke-linecap: square"/>
     </g>
     <g id="line2d_22">
      <g>
       <use xlink:href="#mf907f59f92" x="90" y="80.696351" style="stroke: #000000; stroke-width: 0.8"/>
      </g>
     </g>
     <g id="text_12">
      <!-- −0.05 -->
      <g transform="translate(52.354687 84.495569) scale(0.1 -0.1)">
       <use xlink:href="#DejaVuSans-2212"/>
       <use xlink:href="#DejaVuSans-30" transform="translate(83.789062 0)"/>
       <use xlink:href="#DejaVuSans-2e" transform="translate(147.412109 0)"/>
       <use xlink:href="#DejaVuSans-30" transform="translate(179.199219 0)"/>
       <use xlink:href="#DejaVuSans-35" transform="translate(242.822266 0)"/>
      </g>
     </g>
    </g>
    <g id="ytick_6">
     <g id="line2d_23">
      <path d="M 90 44.64 
L 648 44.64 
" clip-path="url(#p95bf6ddd7c)" style="fill: none; stroke: #b0b0b0; stroke-width: 0.8; stroke-linecap: square"/>
     </g>
     <g id="line2d_24">
      <g>
       <use xlink:href="#mf907f59f92" x="90" y="44.64" style="stroke: #000000; stroke-width: 0.8"/>
      </g>
     </g>
     <g id="text_13">
      <!-- 0.00 -->
      <g transform="translate(60.734375 48.439219) scale(0.1 -0.1)">
       <use xlink:href="#DejaVuSans-30"/>
       <use xlink:href="#DejaVuSans-2e" transform="translate(63.623047 0)"/>
       <use xlink:href="#DejaVuSans-30" transform="translate(95.410156 0)"/>
       <use xlink:href="#DejaVuSans-30" transform="translate(159.033203 0)"/>
      </g>
     </g>
    </g>
    <g id="text_14">
     <!-- Q-Value$(s_0, a_0)$ -->
     <g transform="translate(45.443125 196.89) rotate(-90) scale(0.14 -0.14)">
      <defs>
       <path id="DejaVuSans-51" d="M 2522 4238 
Q 1834 4238 1429 3725 
Q 1025 3213 1025 2328 
Q 1025 1447 1429 934 
Q 1834 422 2522 422 
Q 3209 422 3611 934 
Q 4013 1447 4013 2328 
Q 4013 3213 3611 3725 
Q 3209 4238 2522 4238 
z
M 3406 84 
L 4238 -825 
L 3475 -825 
L 2784 -78 
Q 2681 -84 2626 -87 
Q 2572 -91 2522 -91 
Q 1538 -91 948 567 
Q 359 1225 359 2328 
Q 359 3434 948 4092 
Q 1538 4750 2522 4750 
Q 3503 4750 4090 4092 
Q 4678 3434 4678 2328 
Q 4678 1516 4351 937 
Q 4025 359 3406 84 
z
" transform="scale(0.015625)"/>
       <path id="DejaVuSans-2d" d="M 313 2009 
L 1997 2009 
L 1997 1497 
L 313 1497 
L 313 2009 
z
" transform="scale(0.015625)"/>
       <path id="DejaVuSans-56" d="M 1831 0 
L 50 4666 
L 709 4666 
L 2188 738 
L 3669 4666 
L 4325 4666 
L 2547 0 
L 1831 0 
z
" transform="scale(0.015625)"/>
       <path id="DejaVuSans-6c" d="M 603 4863 
L 1178 4863 
L 1178 0 
L 603 0 
L 603 4863 
z
" transform="scale(0.015625)"/>
       <path id="DejaVuSans-75" d="M 544 1381 
L 544 3500 
L 1119 3500 
L 1119 1403 
Q 1119 906 1312 657 
Q 1506 409 1894 409 
Q 2359 409 2629 706 
Q 2900 1003 2900 1516 
L 2900 3500 
L 3475 3500 
L 3475 0 
L 2900 0 
L 2900 538 
Q 2691 219 2414 64 
Q 2138 -91 1772 -91 
Q 1169 -91 856 284 
Q 544 659 544 1381 
z
M 1991 3584 
L 1991 3584 
z
" transform="scale(0.015625)"/>
       <path id="DejaVuSans-28" d="M 1984 4856 
Q 1566 4138 1362 3434 
Q 1159 2731 1159 2009 
Q 1159 1288 1364 580 
Q 1569 -128 1984 -844 
L 1484 -844 
Q 1016 -109 783 600 
Q 550 1309 550 2009 
Q 550 2706 781 3412 
Q 1013 4119 1484 4856 
L 1984 4856 
z
" transform="scale(0.015625)"/>
       <path id="DejaVuSans-Oblique-73" d="M 3200 3397 
L 3091 2853 
Q 2863 2978 2609 3040 
Q 2356 3103 2088 3103 
Q 1634 3103 1373 2948 
Q 1113 2794 1113 2528 
Q 1113 2219 1719 2053 
Q 1766 2041 1788 2034 
L 1972 1978 
Q 2547 1819 2739 1644 
Q 2931 1469 2931 1166 
Q 2931 609 2489 259 
Q 2047 -91 1331 -91 
Q 1053 -91 747 -37 
Q 441 16 72 128 
L 184 722 
Q 500 559 806 475 
Q 1113 391 1394 391 
Q 1816 391 2080 572 
Q 2344 753 2344 1031 
Q 2344 1331 1650 1516 
L 1591 1531 
L 1394 1581 
Q 956 1697 753 1886 
Q 550 2075 550 2369 
Q 550 2928 970 3256 
Q 1391 3584 2113 3584 
Q 2397 3584 2667 3537 
Q 2938 3491 3200 3397 
z
" transform="scale(0.015625)"/>
       <path id="DejaVuSans-2c" d="M 750 794 
L 1409 794 
L 1409 256 
L 897 -744 
L 494 -744 
L 750 256 
L 750 794 
z
" transform="scale(0.015625)"/>
       <path id="DejaVuSans-Oblique-61" d="M 3438 1997 
L 3047 0 
L 2472 0 
L 2578 531 
Q 2325 219 2001 64 
Q 1678 -91 1281 -91 
Q 834 -91 548 182 
Q 263 456 263 884 
Q 263 1497 752 1853 
Q 1241 2209 2100 2209 
L 2900 2209 
L 2931 2363 
Q 2938 2388 2941 2417 
Q 2944 2447 2944 2509 
Q 2944 2788 2717 2942 
Q 2491 3097 2081 3097 
Q 1800 3097 1504 3025 
Q 1209 2953 897 2809 
L 997 3341 
Q 1322 3463 1633 3523 
Q 1944 3584 2234 3584 
Q 2853 3584 3176 3315 
Q 3500 3047 3500 2534 
Q 3500 2431 3484 2292 
Q 3469 2153 3438 1997 
z
M 2816 1759 
L 2241 1759 
Q 1534 1759 1195 1570 
Q 856 1381 856 984 
Q 856 709 1029 553 
Q 1203 397 1509 397 
Q 1978 397 2328 733 
Q 2678 1069 2791 1631 
L 2816 1759 
z
" transform="scale(0.015625)"/>
       <path id="DejaVuSans-29" d="M 513 4856 
L 1013 4856 
Q 1481 4119 1714 3412 
Q 1947 2706 1947 2009 
Q 1947 1309 1714 600 
Q 1481 -109 1013 -844 
L 513 -844 
Q 928 -128 1133 580 
Q 1338 1288 1338 2009 
Q 1338 2731 1133 3434 
Q 928 4138 513 4856 
z
" transform="scale(0.015625)"/>
      </defs>
      <use xlink:href="#DejaVuSans-51" transform="translate(0 0.015625)"/>
      <use xlink:href="#DejaVuSans-2d" transform="translate(78.710938 0.015625)"/>
      <use xlink:href="#DejaVuSans-56" transform="translate(114.794922 0.015625)"/>
      <use xlink:href="#DejaVuSans-61" transform="translate(183.203125 0.015625)"/>
      <use xlink:href="#DejaVuSans-6c" transform="translate(244.482422 0.015625)"/>
      <use xlink:href="#DejaVuSans-75" transform="translate(272.265625 0.015625)"/>
      <use xlink:href="#DejaVuSans-65" transform="translate(335.644531 0.015625)"/>
      <use xlink:href="#DejaVuSans-28" transform="translate(397.167969 0.015625)"/>
      <use xlink:href="#DejaVuSans-Oblique-73" transform="translate(436.181641 0.015625)"/>
      <use xlink:href="#DejaVuSans-30" transform="translate(488.28125 -16.390625) scale(0.7)"/>
      <use xlink:href="#DejaVuSans-2c" transform="translate(535.551758 0.015625)"/>
      <use xlink:href="#DejaVuSans-Oblique-61" transform="translate(586.821289 0.015625)"/>
      <use xlink:href="#DejaVuSans-30" transform="translate(648.100586 -16.390625) scale(0.7)"/>
      <use xlink:href="#DejaVuSans-29" transform="translate(695.371094 0.015625)"/>
     </g>
    </g>
   </g>
   <g id="line2d_25">
    <path d="M 115.363636 44.64 
L 115.566566 45.599142 
L 115.769495 46.796219 
L 115.820227 46.796219 
L 115.972425 47.378175 
L 116.023157 47.378175 
L 116.175354 47.72035 
L 116.226086 47.72035 
L 116.479748 50.01218 
L 116.682677 50.01218 
L 116.885607 52.206991 
L 117.037804 52.206991 
L 117.291466 54.30526 
L 117.494395 54.30526 
L 117.697324 56.937209 
L 117.748057 56.937209 
L 118.052451 59.415358 
L 118.407577 59.415358 
L 118.610507 62.169125 
L 118.965633 65.340457 
L 119.067098 65.340457 
L 119.320759 67.093841 
L 119.574421 67.093841 
L 119.98028 71.152884 
L 120.031012 71.152884 
L 120.335406 73.090987 
L 120.436871 73.090987 
L 120.487603 73.445773 
L 120.6398 76.117162 
L 120.791997 76.117162 
L 120.944194 79.003896 
L 121.147124 80.145335 
L 121.248588 80.145335 
L 121.451518 80.610853 
L 121.552983 80.610853 
L 121.70518 81.223896 
L 121.806644 81.223896 
L 123.024221 91.126371 
L 123.328615 91.126371 
L 123.531544 92.155118 
L 123.734473 92.155118 
L 123.937403 94.823905 
L 123.988135 94.823905 
L 124.140332 95.053101 
L 124.191065 95.053101 
L 124.343262 97.58996 
L 124.444726 97.58996 
L 124.647656 99.680263 
L 124.901317 99.680263 
L 125.357909 103.732083 
L 125.459373 103.732083 
L 125.61157 104.788025 
L 125.662303 104.788025 
L 125.8145 105.253578 
L 125.865232 105.253578 
L 126.017429 107.603075 
L 126.169626 108.189126 
L 126.220358 108.189126 
L 126.47402 110.197328 
L 126.524752 110.197328 
L 126.67695 110.964756 
L 127.032076 113.632301 
L 127.184273 115.762738 
L 127.33647 116.62991 
L 127.640864 116.62991 
L 127.843793 117.441467 
L 127.894526 117.441467 
L 128.401849 122.312234 
L 128.604779 122.312234 
L 128.756976 123.166314 
L 129.010637 124.803739 
L 129.213567 125.33684 
L 129.264299 125.33684 
L 129.467229 127.058494 
L 129.72089 130.233904 
L 129.771623 130.233904 
L 130.025284 131.879675 
L 130.076017 131.879675 
L 130.228214 133.232722 
L 130.532608 133.232722 
L 131.192128 139.62015 
L 131.344325 139.62015 
L 131.496522 140.050871 
L 131.547255 140.050871 
L 131.699452 141.222468 
L 131.800916 141.222468 
L 131.902381 141.030018 
L 132.612634 147.222362 
L 132.714099 147.222362 
L 132.866296 147.645481 
L 132.917028 147.645481 
L 133.221422 149.731668 
L 133.322887 149.731668 
L 133.475084 151.236749 
L 133.576549 151.236749 
L 133.880943 154.907828 
L 133.931675 154.863623 
L 134.083872 155.686054 
L 134.185337 155.686054 
L 134.337534 157.32698 
L 134.388266 157.32698 
L 134.540463 158.635282 
L 134.591195 158.635282 
L 134.89559 160.741211 
L 135.098519 160.741211 
L 135.250716 161.612764 
L 135.402913 161.840705 
L 135.453645 161.840705 
L 135.55511 162.895363 
L 135.707307 163.891449 
L 135.758039 163.891449 
L 136.062434 166.204357 
L 136.113166 166.204357 
L 136.265363 166.992951 
L 136.316095 167.019072 
L 136.468292 167.545707 
L 136.569757 167.545707 
L 136.721954 168.330092 
L 136.874151 170.622433 
L 137.026348 170.622433 
L 137.178545 171.77056 
L 137.330742 171.901242 
L 137.381475 171.901242 
L 137.533672 173.311206 
L 137.736601 173.311206 
L 137.93953 176.608269 
L 138.040995 176.608269 
L 138.193192 177.072231 
L 138.446854 177.146525 
L 138.700516 178.248553 
L 138.751248 178.248553 
L 138.903445 178.640646 
L 138.954177 178.640646 
L 139.157107 179.932739 
L 139.207839 179.771522 
L 139.258571 179.771522 
L 139.562965 181.745433 
L 139.715162 181.745433 
L 139.867359 184.778502 
L 140.019557 185.172015 
L 140.374683 185.172015 
L 140.577612 186.472741 
L 140.679077 186.472741 
L 140.831274 187.711201 
L 140.882006 187.711201 
L 141.034203 188.217144 
L 141.338597 188.217144 
L 141.440062 188.981011 
L 141.541527 191.51174 
L 141.592259 191.271939 
L 141.744456 191.271939 
L 141.947386 191.602834 
L 142.04885 191.602834 
L 142.201047 192.848123 
L 142.25178 192.848123 
L 142.454709 194.718672 
L 142.556174 194.718672 
L 142.708371 195.303368 
L 142.759103 195.303368 
L 142.9113 197.512355 
L 143.11423 197.512355 
L 143.266427 198.145985 
L 143.367891 198.145985 
L 143.520088 198.960623 
L 143.672285 198.960623 
L 143.824482 199.840353 
L 143.976679 199.840353 
L 144.179609 200.95647 
L 144.230341 200.95647 
L 144.484003 202.989656 
L 144.534735 202.989656 
L 144.788397 204.427451 
L 144.889862 204.427451 
L 145.042059 205.794749 
L 145.244988 206.526717 
L 145.447918 206.548131 
L 145.650847 208.18242 
L 145.853776 209.149283 
L 145.904509 209.149283 
L 146.15817 210.640561 
L 146.3611 210.726002 
L 146.513297 212.706292 
L 146.564029 212.625898 
L 146.716226 212.66158 
L 146.868423 213.142573 
L 146.919156 213.122544 
L 147.071353 215.09202 
L 147.122085 215.09202 
L 147.274282 215.860517 
L 147.325014 215.860517 
L 147.477211 215.995735 
L 147.629408 216.082933 
L 147.680141 216.082933 
L 147.832338 217.068046 
L 147.88307 217.068046 
L 147.984535 217.544632 
L 148.136732 216.885717 
L 148.288929 217.362485 
L 148.339661 217.362485 
L 148.491858 218.01552 
L 148.542591 217.929817 
L 148.694788 219.379215 
L 149.100646 219.455917 
L 149.252843 221.337322 
L 149.506505 221.337322 
L 149.709435 221.792776 
L 149.861632 221.792776 
L 149.963096 220.155602 
L 150.064561 218.591294 
L 150.521152 223.605476 
L 150.622617 223.076862 
L 150.825546 223.076862 
L 150.977743 223.208846 
L 151.028476 223.208846 
L 151.180673 225.362283 
L 151.586531 225.362283 
L 151.738728 225.654692 
L 151.941658 225.654692 
L 152.093855 226.769543 
L 152.19532 226.769543 
L 152.246052 226.923535 
L 152.296784 226.754952 
L 152.702643 226.754952 
L 152.753375 226.927312 
L 152.804108 226.714418 
L 152.905572 226.714418 
L 153.057769 227.449555 
L 153.159234 227.449555 
L 153.260699 227.634747 
L 153.311431 226.986989 
L 153.362163 227.453656 
L 153.565093 227.435813 
L 153.615825 227.532397 
L 153.818755 228.948596 
L 153.869487 227.554566 
L 153.920219 227.614091 
L 154.072416 229.04085 
L 154.224613 231.432388 
L 154.57974 231.432388 
L 154.681204 232.408195 
L 154.782669 232.869441 
L 154.833402 232.80645 
L 154.934866 232.80645 
L 155.087063 234.348699 
L 155.188528 235.02552 
L 155.44219 236.400031 
L 155.645119 237.138376 
L 155.695851 237.138376 
L 155.746584 237.343062 
L 155.949513 235.909206 
L 156.152443 239.019223 
L 156.355372 239.019223 
L 156.507569 239.408957 
L 156.659766 239.408957 
L 156.761231 239.897223 
L 156.913428 241.5748 
L 157.065625 241.761101 
L 157.370019 241.761101 
L 157.522216 242.599534 
L 157.674413 242.599534 
L 157.725145 243.050589 
L 157.82661 242.972442 
L 158.131004 242.957411 
L 158.283201 243.459451 
L 158.587595 243.459451 
L 158.739792 243.733763 
L 159.399313 243.733763 
L 159.55151 243.845091 
L 159.602242 243.845091 
L 159.652974 243.990798 
L 159.805171 243.58778 
L 160.769086 243.5925 
L 160.921283 243.866679 
L 162.240324 243.832423 
L 162.392521 244.282245 
L 162.544718 244.427515 
L 163.001309 244.427515 
L 163.153506 244.876742 
L 163.407168 244.876742 
L 163.559365 245.021418 
L 163.711562 245.021418 
L 163.863759 245.470051 
L 164.015956 245.470051 
L 164.168153 245.065553 
L 164.472547 245.065553 
L 164.624744 245.774133 
L 165.132068 245.774133 
L 165.284265 245.346702 
L 165.690124 245.346702 
L 165.842321 245.730108 
L 165.994518 245.277576 
L 166.146715 245.277576 
L 166.298912 245.933162 
L 167.161362 245.933162 
L 167.313559 245.505571 
L 167.465756 245.505571 
L 167.617953 245.777837 
L 167.973079 245.777837 
L 168.125276 246.225714 
L 168.835529 246.225714 
L 168.987726 245.859157 
L 169.139923 245.859157 
L 169.29212 246.24 
L 169.444317 245.834732 
L 169.748711 245.834732 
L 169.900908 245.323116 
L 170.560429 245.323116 
L 170.712626 244.918765 
L 171.169217 244.918765 
L 171.270682 244.467045 
L 171.422879 244.916233 
L 172.843384 244.916233 
L 172.995581 244.464515 
L 173.198511 244.464515 
L 173.350708 244.09972 
L 174.010228 244.09972 
L 174.162425 243.620881 
L 174.365355 243.620881 
L 174.416087 243.895031 
L 174.568284 243.385355 
L 174.619016 243.385355 
L 174.771213 242.876188 
L 174.872678 242.876188 
L 175.024875 243.10377 
L 175.177072 242.701638 
L 175.430734 242.701638 
L 175.532199 242.960703 
L 175.684396 242.51094 
L 176.800507 242.592449 
L 176.952704 242.978609 
L 177.003437 242.978609 
L 177.155634 243.429285 
L 178.271745 243.429285 
L 178.423942 244.025183 
L 178.576139 243.622131 
L 178.626872 243.622131 
L 178.829801 242.833324 
L 179.083463 242.833324 
L 179.23566 242.324709 
L 181.264954 242.406403 
L 181.417151 241.898215 
L 181.518615 241.898215 
L 181.670813 241.49729 
L 181.721545 241.49729 
L 181.873742 240.790493 
L 182.381065 240.790493 
L 182.685459 239.123332 
L 183.294248 239.123332 
L 183.497177 239.590545 
L 183.649374 239.590545 
L 183.801571 239.144153 
L 184.562556 239.144153 
L 184.714753 239.375467 
L 186.693315 239.460111 
L 186.845512 238.954869 
L 187.251371 238.954869 
L 187.403568 238.450133 
L 187.4543 238.450133 
L 187.606497 237.945901 
L 187.860159 237.945901 
L 188.012356 237.442174 
L 189.229932 237.442174 
L 189.382129 237.045704 
L 189.787988 237.045704 
L 189.940185 237.198211 
L 191.969479 237.198211 
L 192.121676 237.350566 
L 192.628999 237.350566 
L 192.781196 237.806869 
L 194.506096 237.84 
L 194.658293 237.395358 
L 196.078799 237.395358 
L 196.230996 236.892181 
L 196.991981 236.892181 
L 197.19491 237.35908 
L 198.361754 237.370029 
L 198.513951 236.866877 
L 198.564684 236.866877 
L 198.716881 236.364229 
L 198.869078 236.645636 
L 199.224204 236.645636 
L 199.376401 236.202189 
L 199.985189 236.290006 
L 200.137386 235.846914 
L 205.971606 235.846914 
L 206.123803 234.875201 
L 207.239915 234.875201 
L 207.392112 234.519995 
L 208.0009 234.519995 
L 208.153097 234.914228 
L 210.38532 234.914228 
L 210.537517 234.413532 
L 211.602897 234.413532 
L 211.755094 234.872773 
L 212.465347 234.872773 
L 212.617544 234.431099 
L 215.915146 234.431099 
L 216.118075 233.431174 
L 216.625399 233.431174 
L 216.777596 232.931961 
L 218.299566 232.931961 
L 218.502496 231.993954 
L 219.872269 231.993954 
L 220.024466 231.602933 
L 220.227395 231.602933 
L 220.379593 231.105548 
L 221.546436 231.105548 
L 221.698633 230.255316 
L 223.271336 230.255316 
L 223.423533 229.818259 
L 225.757221 229.818259 
L 225.909418 229.32266 
L 226.010883 229.32266 
L 226.16308 228.827555 
L 226.315277 228.827555 
L 226.467474 228.391926 
L 226.771868 228.391926 
L 226.924065 228.553087 
L 229.054824 228.553087 
L 229.207021 228.752411 
L 229.460682 228.752411 
L 229.612879 228.257877 
L 229.815809 228.257877 
L 229.968006 228.54739 
L 231.946567 228.54739 
L 232.098764 228.053061 
L 232.453891 228.053061 
L 232.606088 227.559227 
L 233.772932 227.559227 
L 233.925129 227.065886 
L 234.990508 227.065886 
L 235.142705 226.573039 
L 237.070534 226.573039 
L 237.222731 226.080684 
L 238.947631 226.080684 
L 239.099828 225.588822 
L 241.73791 225.588822 
L 241.890107 225.097451 
L 242.651092 225.097451 
L 242.803289 225.969195 
L 246.05016 225.969195 
L 246.202357 225.477444 
L 247.470665 225.477444 
L 247.622862 224.986186 
L 247.724327 224.986186 
L 247.876524 224.579542 
L 248.180918 224.579542 
L 248.333115 224.872734 
L 253.000491 224.872734 
L 253.152688 224.38208 
L 254.218067 224.38208 
L 254.370264 223.891916 
L 254.573194 223.891916 
L 254.725391 223.402243 
L 259.950822 223.402243 
L 260.103019 222.913059 
L 261.371328 222.913059 
L 261.523525 222.455406 
L 263.857213 222.455406 
L 264.00941 222.02615 
L 267.509942 222.02615 
L 267.662139 221.538342 
L 269.133377 221.538342 
L 269.336306 220.623111 
L 270.553883 220.623111 
L 270.70608 220.195686 
L 276.895426 220.195686 
L 277.047623 219.709709 
L 287.650683 219.709709 
L 287.80288 219.224218 
L 288.969724 219.224218 
L 289.121921 218.739212 
L 292.77465 218.739212 
L 292.926847 218.254691 
L 297.847885 218.254691 
L 298.000082 217.770655 
L 300.841093 217.770655 
L 300.99329 217.287103 
L 306.269454 217.287103 
L 306.421651 216.910788 
L 312.560265 216.910788 
L 312.712462 216.428096 
L 314.640291 216.428096 
L 314.792488 215.945886 
L 320.67744 215.945886 
L 320.829638 215.464159 
L 363.191146 215.464159 
L 363.343343 214.982913 
L 366.387284 214.982913 
L 366.539481 214.502148 
L 368.518043 214.502148 
L 368.67024 214.021865 
L 370.851731 214.021865 
L 371.003928 213.542061 
L 376.584486 213.542061 
L 376.736683 213.062738 
L 407.683414 213.062738 
L 407.835611 212.583893 
L 413.314704 212.583893 
L 413.466901 212.105528 
L 422.547991 212.105528 
L 422.700188 211.627641 
L 431.375419 211.627641 
L 431.527616 211.150232 
L 442.282874 211.150232 
L 442.435071 210.6733 
L 468.105638 210.6733 
L 468.257835 210.196845 
L 478.404304 210.196845 
L 478.556501 209.720867 
L 482.259962 209.720867 
L 482.412159 209.245364 
L 498.545045 209.245364 
L 498.697242 208.770338 
L 506.611488 208.770338 
L 506.763685 208.295786 
L 539.688978 208.295786 
L 539.841175 208.716243 
L 544.102692 208.716243 
L 544.254889 208.241745 
L 612.033303 208.241745 
L 612.1855 207.767722 
L 622.636364 207.767722 
L 622.636364 207.767722 
" clip-path="url(#p95bf6ddd7c)" style="fill: none; stroke: #0000ff; stroke-width: 2; stroke-linecap: square"/>
   </g>
   <g id="patch_3">
    <path d="M 90 256.32 
L 90 34.56 
" style="fill: none; stroke: #000000; stroke-width: 0.8; stroke-linejoin: miter; stroke-linecap: square"/>
   </g>
   <g id="patch_4">
    <path d="M 648 256.32 
L 648 34.56 
" style="fill: none; stroke: #000000; stroke-width: 0.8; stroke-linejoin: miter; stroke-linecap: square"/>
   </g>
   <g id="patch_5">
    <path d="M 90 256.32 
L 648 256.32 
" style="fill: none; stroke: #000000; stroke-width: 0.8; stroke-linejoin: miter; stroke-linecap: square"/>
   </g>
   <g id="patch_6">
    <path d="M 90 34.56 
L 648 34.56 
" style="fill: none; stroke: #000000; stroke-width: 0.8; stroke-linejoin: miter; stroke-linecap: square"/>
   </g>
   <g id="text_15">
    <!-- Markov_Chain_Monte_Carlo Q-Value Convergence -->
    <g transform="translate(220.141875 28.56) scale(0.12 -0.12)">
     <defs>
      <path id="DejaVuSans-4d" d="M 628 4666 
L 1569 4666 
L 2759 1491 
L 3956 4666 
L 4897 4666 
L 4897 0 
L 4281 0 
L 4281 4097 
L 3078 897 
L 2444 897 
L 1241 4097 
L 1241 0 
L 628 0 
L 628 4666 
z
" transform="scale(0.015625)"/>
      <path id="DejaVuSans-6b" d="M 581 4863 
L 1159 4863 
L 1159 1991 
L 2875 3500 
L 3609 3500 
L 1753 1863 
L 3688 0 
L 2938 0 
L 1159 1709 
L 1159 0 
L 581 0 
L 581 4863 
z
" transform="scale(0.015625)"/>
      <path id="DejaVuSans-76" d="M 191 3500 
L 800 3500 
L 1894 563 
L 2988 3500 
L 3597 3500 
L 2284 0 
L 1503 0 
L 191 3500 
z
" transform="scale(0.015625)"/>
      <path id="DejaVuSans-5f" d="M 3263 -1063 
L 3263 -1509 
L -63 -1509 
L -63 -1063 
L 3263 -1063 
z
" transform="scale(0.015625)"/>
      <path id="DejaVuSans-43" d="M 4122 4306 
L 4122 3641 
Q 3803 3938 3442 4084 
Q 3081 4231 2675 4231 
Q 1875 4231 1450 3742 
Q 1025 3253 1025 2328 
Q 1025 1406 1450 917 
Q 1875 428 2675 428 
Q 3081 428 3442 575 
Q 3803 722 4122 1019 
L 4122 359 
Q 3791 134 3420 21 
Q 3050 -91 2638 -91 
Q 1578 -91 968 557 
Q 359 1206 359 2328 
Q 359 3453 968 4101 
Q 1578 4750 2638 4750 
Q 3056 4750 3426 4639 
Q 3797 4528 4122 4306 
z
" transform="scale(0.015625)"/>
      <path id="DejaVuSans-68" d="M 3513 2113 
L 3513 0 
L 2938 0 
L 2938 2094 
Q 2938 2591 2744 2837 
Q 2550 3084 2163 3084 
Q 1697 3084 1428 2787 
Q 1159 2491 1159 1978 
L 1159 0 
L 581 0 
L 581 4863 
L 1159 4863 
L 1159 2956 
Q 1366 3272 1645 3428 
Q 1925 3584 2291 3584 
Q 2894 3584 3203 3211 
Q 3513 2838 3513 2113 
z
" transform="scale(0.015625)"/>
      <path id="DejaVuSans-20" transform="scale(0.015625)"/>
      <path id="DejaVuSans-67" d="M 2906 1791 
Q 2906 2416 2648 2759 
Q 2391 3103 1925 3103 
Q 1463 3103 1205 2759 
Q 947 2416 947 1791 
Q 947 1169 1205 825 
Q 1463 481 1925 481 
Q 2391 481 2648 825 
Q 2906 1169 2906 1791 
z
M 3481 434 
Q 3481 -459 3084 -895 
Q 2688 -1331 1869 -1331 
Q 1566 -1331 1297 -1286 
Q 1028 -1241 775 -1147 
L 775 -588 
Q 1028 -725 1275 -790 
Q 1522 -856 1778 -856 
Q 2344 -856 2625 -561 
Q 2906 -266 2906 331 
L 2906 616 
Q 2728 306 2450 153 
Q 2172 0 1784 0 
Q 1141 0 747 490 
Q 353 981 353 1791 
Q 353 2603 747 3093 
Q 1141 3584 1784 3584 
Q 2172 3584 2450 3431 
Q 2728 3278 2906 2969 
L 2906 3500 
L 3481 3500 
L 3481 434 
z
" transform="scale(0.015625)"/>
      <path id="DejaVuSans-63" d="M 3122 3366 
L 3122 2828 
Q 2878 2963 2633 3030 
Q 2388 3097 2138 3097 
Q 1578 3097 1268 2742 
Q 959 2388 959 1747 
Q 959 1106 1268 751 
Q 1578 397 2138 397 
Q 2388 397 2633 464 
Q 2878 531 3122 666 
L 3122 134 
Q 2881 22 2623 -34 
Q 2366 -91 2075 -91 
Q 1284 -91 818 406 
Q 353 903 353 1747 
Q 353 2603 823 3093 
Q 1294 3584 2113 3584 
Q 2378 3584 2631 3529 
Q 2884 3475 3122 3366 
z
" transform="scale(0.015625)"/>
     </defs>
     <use xlink:href="#DejaVuSans-4d"/>
     <use xlink:href="#DejaVuSans-61" transform="translate(86.279297 0)"/>
     <use xlink:href="#DejaVuSans-72" transform="translate(147.558594 0)"/>
     <use xlink:href="#DejaVuSans-6b" transform="translate(188.671875 0)"/>
     <use xlink:href="#DejaVuSans-6f" transform="translate(242.957031 0)"/>
     <use xlink:href="#DejaVuSans-76" transform="translate(304.138672 0)"/>
     <use xlink:href="#DejaVuSans-5f" transform="translate(363.318359 0)"/>
     <use xlink:href="#DejaVuSans-43" transform="translate(413.318359 0)"/>
     <use xlink:href="#DejaVuSans-68" transform="translate(483.142578 0)"/>
     <use xlink:href="#DejaVuSans-61" transform="translate(546.521484 0)"/>
     <use xlink:href="#DejaVuSans-69" transform="translate(607.800781 0)"/>
     <use xlink:href="#DejaVuSans-6e" transform="translate(635.583984 0)"/>
     <use xlink:href="#DejaVuSans-5f" transform="translate(698.962891 0)"/>
     <use xlink:href="#DejaVuSans-4d" transform="translate(748.962891 0)"/>
     <use xlink:href="#DejaVuSans-6f" transform="translate(835.242188 0)"/>
     <use xlink:href="#DejaVuSans-6e" transform="translate(896.423828 0)"/>
     <use xlink:href="#DejaVuSans-74" transform="translate(959.802734 0)"/>
     <use xlink:href="#DejaVuSans-65" transform="translate(999.011719 0)"/>
     <use xlink:href="#DejaVuSans-5f" transform="translate(1060.535156 0)"/>
     <use xlink:href="#DejaVuSans-43" transform="translate(1110.535156 0)"/>
     <use xlink:href="#DejaVuSans-61" transform="translate(1180.359375 0)"/>
     <use xlink:href="#DejaVuSans-72" transform="translate(1241.638672 0)"/>
     <use xlink:href="#DejaVuSans-6c" transform="translate(1282.751953 0)"/>
     <use xlink:href="#DejaVuSans-6f" transform="translate(1310.535156 0)"/>
     <use xlink:href="#DejaVuSans-20" transform="translate(1371.716797 0)"/>
     <use xlink:href="#DejaVuSans-51" transform="translate(1403.503906 0)"/>
     <use xlink:href="#DejaVuSans-2d" transform="translate(1484.964844 0)"/>
     <use xlink:href="#DejaVuSans-56" transform="translate(1515.173828 0)"/>
     <use xlink:href="#DejaVuSans-61" transform="translate(1575.832031 0)"/>
     <use xlink:href="#DejaVuSans-6c" transform="translate(1637.111328 0)"/>
     <use xlink:href="#DejaVuSans-75" transform="translate(1664.894531 0)"/>
     <use xlink:href="#DejaVuSans-65" transform="translate(1728.273438 0)"/>
     <use xlink:href="#DejaVuSans-20" transform="translate(1789.796875 0)"/>
     <use xlink:href="#DejaVuSans-43" transform="translate(1821.583984 0)"/>
     <use xlink:href="#DejaVuSans-6f" transform="translate(1891.408203 0)"/>
     <use xlink:href="#DejaVuSans-6e" transform="translate(1952.589844 0)"/>
     <use xlink:href="#DejaVuSans-76" transform="translate(2015.96875 0)"/>
     <use xlink:href="#DejaVuSans-65" transform="translate(2075.148438 0)"/>
     <use xlink:href="#DejaVuSans-72" transform="translate(2136.671875 0)"/>
     <use xlink:href="#DejaVuSans-67" transform="translate(2176.035156 0)"/>
     <use xlink:href="#DejaVuSans-65" transform="translate(2239.511719 0)"/>
     <use xlink:href="#DejaVuSans-6e" transform="translate(2301.035156 0)"/>
     <use xlink:href="#DejaVuSans-63" transform="translate(2364.414062 0)"/>
     <use xlink:href="#DejaVuSans-65" transform="translate(2419.394531 0)"/>
    </g>
   </g>
  </g>
 </g>
 <defs>
  <clipPath id="p95bf6ddd7c">
   <rect x="90" y="34.56" width="558" height="221.76"/>
  </clipPath>
 </defs>
</svg>
