<?xml version="1.0" encoding="utf-8" standalone="no"?>
<!DOCTYPE svg PUBLIC "-//W3C//DTD SVG 1.1//EN"
  "http://www.w3.org/Graphics/SVG/1.1/DTD/svg11.dtd">
<svg xmlns:xlink="http://www.w3.org/1999/xlink" width="720pt" height="432pt" viewBox="0 0 720 432" xmlns="http://www.w3.org/2000/svg" version="1.1">
 <metadata>
  <rdf:RDF xmlns:dc="http://purl.org/dc/elements/1.1/" xmlns:cc="http://creativecommons.org/ns#" xmlns:rdf="http://www.w3.org/1999/02/22-rdf-syntax-ns#">
   <cc:Work>
    <dc:type rdf:resource="http://purl.org/dc/dcmitype/StillImage"/>
    <dc:date>2025-12-06T08:16:37.498663</dc:date>
    <dc:format>image/svg+xml</dc:format>
    <dc:creator>
     <cc:Agent>
      <dc:title>Matplotlib v3.10.7, https://matplotlib.org/</dc:title>
     </cc:Agent>
    </dc:creator>
   </cc:Work>
  </rdf:RDF>
 </metadata>
 <defs>
  <style type="text/css">*{stroke-linejoin: round; stroke-linecap: butt}</style>
 </defs>
 <g id="figure_1">
  <g id="patch_1">
   <path d="M 0 432 
L 720 432 
L 720 0 
L 0 0 
z
" style="fill: #ffffff"/>
  </g>
  <g id="axes_1">
   <g id="patch_2">
    <path d="M 90 384.48 
L 648 384.48 
L 648 51.84 
L 90 51.84 
z
" style="fill: #ffffff"/>
   </g>
   <g id="matplotlib.axis_1">
    <g id="xtick_1">
     <g id="line2d_1">
      <path d="M 115.363636 384.48 
L 115.363636 51.84 
" clip-path="url(#pf0bde413d4)" style="fill: none; stroke-dasharray: 2.96,1.28; stroke-dashoffset: 0; stroke: #b0b0b0; stroke-opacity: 0.7; stroke-width: 0.8"/>
     </g>
     <g id="line2d_2">
      <defs>
       <path id="m9a01cba790" d="M 0 0 
L 0 3.5 
" style="stroke: #000000; stroke-width: 0.8"/>
      </defs>
      <g>
       <use xlink:href="#m9a01cba790" x="115.363636" y="384.48" style="stroke: #000000; stroke-width: 0.8"/>
      </g>
     </g>
     <g id="text_1">
      <!-- 0 -->
      <g transform="translate(112.182386 399.078438) scale(0.1 -0.1)">
       <defs>
        <path id="DejaVuSans-30" d="M 2034 4250 
Q 1547 4250 1301 3770 
Q 1056 3291 1056 2328 
Q 1056 1369 1301 889 
Q 1547 409 2034 409 
Q 2525 409 2770 889 
Q 3016 1369 3016 2328 
Q 3016 3291 2770 3770 
Q 2525 4250 2034 4250 
z
M 2034 4750 
Q 2819 4750 3233 4129 
Q 3647 3509 3647 2328 
Q 3647 1150 3233 529 
Q 2819 -91 2034 -91 
Q 1250 -91 836 529 
Q 422 1150 422 2328 
Q 422 3509 836 4129 
Q 1250 4750 2034 4750 
z
" transform="scale(0.015625)"/>
       </defs>
       <use xlink:href="#DejaVuSans-30"/>
      </g>
     </g>
    </g>
    <g id="xtick_2">
     <g id="line2d_3">
      <path d="M 216.818182 384.48 
L 216.818182 51.84 
" clip-path="url(#pf0bde413d4)" style="fill: none; stroke-dasharray: 2.96,1.28; stroke-dashoffset: 0; stroke: #b0b0b0; stroke-opacity: 0.7; stroke-width: 0.8"/>
     </g>
     <g id="line2d_4">
      <g>
       <use xlink:href="#m9a01cba790" x="216.818182" y="384.48" style="stroke: #000000; stroke-width: 0.8"/>
      </g>
     </g>
     <g id="text_2">
      <!-- 2000 -->
      <g transform="translate(204.093182 399.078438) scale(0.1 -0.1)">
       <defs>
        <path id="DejaVuSans-32" d="M 1228 531 
L 3431 531 
L 3431 0 
L 469 0 
L 469 531 
Q 828 903 1448 1529 
Q 2069 2156 2228 2338 
Q 2531 2678 2651 2914 
Q 2772 3150 2772 3378 
Q 2772 3750 2511 3984 
Q 2250 4219 1831 4219 
Q 1534 4219 1204 4116 
Q 875 4013 500 3803 
L 500 4441 
Q 881 4594 1212 4672 
Q 1544 4750 1819 4750 
Q 2544 4750 2975 4387 
Q 3406 4025 3406 3419 
Q 3406 3131 3298 2873 
Q 3191 2616 2906 2266 
Q 2828 2175 2409 1742 
Q 1991 1309 1228 531 
z
" transform="scale(0.015625)"/>
       </defs>
       <use xlink:href="#DejaVuSans-32"/>
       <use xlink:href="#DejaVuSans-30" transform="translate(63.623047 0)"/>
       <use xlink:href="#DejaVuSans-30" transform="translate(127.246094 0)"/>
       <use xlink:href="#DejaVuSans-30" transform="translate(190.869141 0)"/>
      </g>
     </g>
    </g>
    <g id="xtick_3">
     <g id="line2d_5">
      <path d="M 318.272727 384.48 
L 318.272727 51.84 
" clip-path="url(#pf0bde413d4)" style="fill: none; stroke-dasharray: 2.96,1.28; stroke-dashoffset: 0; stroke: #b0b0b0; stroke-opacity: 0.7; stroke-width: 0.8"/>
     </g>
     <g id="line2d_6">
      <g>
       <use xlink:href="#m9a01cba790" x="318.272727" y="384.48" style="stroke: #000000; stroke-width: 0.8"/>
      </g>
     </g>
     <g id="text_3">
      <!-- 4000 -->
      <g transform="translate(305.547727 399.078438) scale(0.1 -0.1)">
       <defs>
        <path id="DejaVuSans-34" d="M 2419 4116 
L 825 1625 
L 2419 1625 
L 2419 4116 
z
M 2253 4666 
L 3047 4666 
L 3047 1625 
L 3713 1625 
L 3713 1100 
L 3047 1100 
L 3047 0 
L 2419 0 
L 2419 1100 
L 313 1100 
L 313 1709 
L 2253 4666 
z
" transform="scale(0.015625)"/>
       </defs>
       <use xlink:href="#DejaVuSans-34"/>
       <use xlink:href="#DejaVuSans-30" transform="translate(63.623047 0)"/>
       <use xlink:href="#DejaVuSans-30" transform="translate(127.246094 0)"/>
       <use xlink:href="#DejaVuSans-30" transform="translate(190.869141 0)"/>
      </g>
     </g>
    </g>
    <g id="xtick_4">
     <g id="line2d_7">
      <path d="M 419.727273 384.48 
L 419.727273 51.84 
" clip-path="url(#pf0bde413d4)" style="fill: none; stroke-dasharray: 2.96,1.28; stroke-dashoffset: 0; stroke: #b0b0b0; stroke-opacity: 0.7; stroke-width: 0.8"/>
     </g>
     <g id="line2d_8">
      <g>
       <use xlink:href="#m9a01cba790" x="419.727273" y="384.48" style="stroke: #000000; stroke-width: 0.8"/>
      </g>
     </g>
     <g id="text_4">
      <!-- 6000 -->
      <g transform="translate(407.002273 399.078438) scale(0.1 -0.1)">
       <defs>
        <path id="DejaVuSans-36" d="M 2113 2584 
Q 1688 2584 1439 2293 
Q 1191 2003 1191 1497 
Q 1191 994 1439 701 
Q 1688 409 2113 409 
Q 2538 409 2786 701 
Q 3034 994 3034 1497 
Q 3034 2003 2786 2293 
Q 2538 2584 2113 2584 
z
M 3366 4563 
L 3366 3988 
Q 3128 4100 2886 4159 
Q 2644 4219 2406 4219 
Q 1781 4219 1451 3797 
Q 1122 3375 1075 2522 
Q 1259 2794 1537 2939 
Q 1816 3084 2150 3084 
Q 2853 3084 3261 2657 
Q 3669 2231 3669 1497 
Q 3669 778 3244 343 
Q 2819 -91 2113 -91 
Q 1303 -91 875 529 
Q 447 1150 447 2328 
Q 447 3434 972 4092 
Q 1497 4750 2381 4750 
Q 2619 4750 2861 4703 
Q 3103 4656 3366 4563 
z
" transform="scale(0.015625)"/>
       </defs>
       <use xlink:href="#DejaVuSans-36"/>
       <use xlink:href="#DejaVuSans-30" transform="translate(63.623047 0)"/>
       <use xlink:href="#DejaVuSans-30" transform="translate(127.246094 0)"/>
       <use xlink:href="#DejaVuSans-30" transform="translate(190.869141 0)"/>
      </g>
     </g>
    </g>
    <g id="xtick_5">
     <g id="line2d_9">
      <path d="M 521.181818 384.48 
L 521.181818 51.84 
" clip-path="url(#pf0bde413d4)" style="fill: none; stroke-dasharray: 2.96,1.28; stroke-dashoffset: 0; stroke: #b0b0b0; stroke-opacity: 0.7; stroke-width: 0.8"/>
     </g>
     <g id="line2d_10">
      <g>
       <use xlink:href="#m9a01cba790" x="521.181818" y="384.48" style="stroke: #000000; stroke-width: 0.8"/>
      </g>
     </g>
     <g id="text_5">
      <!-- 8000 -->
      <g transform="translate(508.456818 399.078438) scale(0.1 -0.1)">
       <defs>
        <path id="DejaVuSans-38" d="M 2034 2216 
Q 1584 2216 1326 1975 
Q 1069 1734 1069 1313 
Q 1069 891 1326 650 
Q 1584 409 2034 409 
Q 2484 409 2743 651 
Q 3003 894 3003 1313 
Q 3003 1734 2745 1975 
Q 2488 2216 2034 2216 
z
M 1403 2484 
Q 997 2584 770 2862 
Q 544 3141 544 3541 
Q 544 4100 942 4425 
Q 1341 4750 2034 4750 
Q 2731 4750 3128 4425 
Q 3525 4100 3525 3541 
Q 3525 3141 3298 2862 
Q 3072 2584 2669 2484 
Q 3125 2378 3379 2068 
Q 3634 1759 3634 1313 
Q 3634 634 3220 271 
Q 2806 -91 2034 -91 
Q 1263 -91 848 271 
Q 434 634 434 1313 
Q 434 1759 690 2068 
Q 947 2378 1403 2484 
z
M 1172 3481 
Q 1172 3119 1398 2916 
Q 1625 2713 2034 2713 
Q 2441 2713 2670 2916 
Q 2900 3119 2900 3481 
Q 2900 3844 2670 4047 
Q 2441 4250 2034 4250 
Q 1625 4250 1398 4047 
Q 1172 3844 1172 3481 
z
" transform="scale(0.015625)"/>
       </defs>
       <use xlink:href="#DejaVuSans-38"/>
       <use xlink:href="#DejaVuSans-30" transform="translate(63.623047 0)"/>
       <use xlink:href="#DejaVuSans-30" transform="translate(127.246094 0)"/>
       <use xlink:href="#DejaVuSans-30" transform="translate(190.869141 0)"/>
      </g>
     </g>
    </g>
    <g id="xtick_6">
     <g id="line2d_11">
      <path d="M 622.636364 384.48 
L 622.636364 51.84 
" clip-path="url(#pf0bde413d4)" style="fill: none; stroke-dasharray: 2.96,1.28; stroke-dashoffset: 0; stroke: #b0b0b0; stroke-opacity: 0.7; stroke-width: 0.8"/>
     </g>
     <g id="line2d_12">
      <g>
       <use xlink:href="#m9a01cba790" x="622.636364" y="384.48" style="stroke: #000000; stroke-width: 0.8"/>
      </g>
     </g>
     <g id="text_6">
      <!-- 10000 -->
      <g transform="translate(606.730114 399.078438) scale(0.1 -0.1)">
       <defs>
        <path id="DejaVuSans-31" d="M 794 531 
L 1825 531 
L 1825 4091 
L 703 3866 
L 703 4441 
L 1819 4666 
L 2450 4666 
L 2450 531 
L 3481 531 
L 3481 0 
L 794 0 
L 794 531 
z
" transform="scale(0.015625)"/>
       </defs>
       <use xlink:href="#DejaVuSans-31"/>
       <use xlink:href="#DejaVuSans-30" transform="translate(63.623047 0)"/>
       <use xlink:href="#DejaVuSans-30" transform="translate(127.246094 0)"/>
       <use xlink:href="#DejaVuSans-30" transform="translate(190.869141 0)"/>
       <use xlink:href="#DejaVuSans-30" transform="translate(254.492188 0)"/>
      </g>
     </g>
    </g>
    <g id="text_7">
     <!-- Episode -->
     <g transform="translate(349.3625 412.756563) scale(0.1 -0.1)">
      <defs>
       <path id="DejaVuSans-45" d="M 628 4666 
L 3578 4666 
L 3578 4134 
L 1259 4134 
L 1259 2753 
L 3481 2753 
L 3481 2222 
L 1259 2222 
L 1259 531 
L 3634 531 
L 3634 0 
L 628 0 
L 628 4666 
z
" transform="scale(0.015625)"/>
       <path id="DejaVuSans-70" d="M 1159 525 
L 1159 -1331 
L 581 -1331 
L 581 3500 
L 1159 3500 
L 1159 2969 
Q 1341 3281 1617 3432 
Q 1894 3584 2278 3584 
Q 2916 3584 3314 3078 
Q 3713 2572 3713 1747 
Q 3713 922 3314 415 
Q 2916 -91 2278 -91 
Q 1894 -91 1617 61 
Q 1341 213 1159 525 
z
M 3116 1747 
Q 3116 2381 2855 2742 
Q 2594 3103 2138 3103 
Q 1681 3103 1420 2742 
Q 1159 2381 1159 1747 
Q 1159 1113 1420 752 
Q 1681 391 2138 391 
Q 2594 391 2855 752 
Q 3116 1113 3116 1747 
z
" transform="scale(0.015625)"/>
       <path id="DejaVuSans-69" d="M 603 3500 
L 1178 3500 
L 1178 0 
L 603 0 
L 603 3500 
z
M 603 4863 
L 1178 4863 
L 1178 4134 
L 603 4134 
L 603 4863 
z
" transform="scale(0.015625)"/>
       <path id="DejaVuSans-73" d="M 2834 3397 
L 2834 2853 
Q 2591 2978 2328 3040 
Q 2066 3103 1784 3103 
Q 1356 3103 1142 2972 
Q 928 2841 928 2578 
Q 928 2378 1081 2264 
Q 1234 2150 1697 2047 
L 1894 2003 
Q 2506 1872 2764 1633 
Q 3022 1394 3022 966 
Q 3022 478 2636 193 
Q 2250 -91 1575 -91 
Q 1294 -91 989 -36 
Q 684 19 347 128 
L 347 722 
Q 666 556 975 473 
Q 1284 391 1588 391 
Q 1994 391 2212 530 
Q 2431 669 2431 922 
Q 2431 1156 2273 1281 
Q 2116 1406 1581 1522 
L 1381 1569 
Q 847 1681 609 1914 
Q 372 2147 372 2553 
Q 372 3047 722 3315 
Q 1072 3584 1716 3584 
Q 2034 3584 2315 3537 
Q 2597 3491 2834 3397 
z
" transform="scale(0.015625)"/>
       <path id="DejaVuSans-6f" d="M 1959 3097 
Q 1497 3097 1228 2736 
Q 959 2375 959 1747 
Q 959 1119 1226 758 
Q 1494 397 1959 397 
Q 2419 397 2687 759 
Q 2956 1122 2956 1747 
Q 2956 2369 2687 2733 
Q 2419 3097 1959 3097 
z
M 1959 3584 
Q 2709 3584 3137 3096 
Q 3566 2609 3566 1747 
Q 3566 888 3137 398 
Q 2709 -91 1959 -91 
Q 1206 -91 779 398 
Q 353 888 353 1747 
Q 353 2609 779 3096 
Q 1206 3584 1959 3584 
z
" transform="scale(0.015625)"/>
       <path id="DejaVuSans-64" d="M 2906 2969 
L 2906 4863 
L 3481 4863 
L 3481 0 
L 2906 0 
L 2906 525 
Q 2725 213 2448 61 
Q 2172 -91 1784 -91 
Q 1150 -91 751 415 
Q 353 922 353 1747 
Q 353 2572 751 3078 
Q 1150 3584 1784 3584 
Q 2172 3584 2448 3432 
Q 2725 3281 2906 2969 
z
M 947 1747 
Q 947 1113 1208 752 
Q 1469 391 1925 391 
Q 2381 391 2643 752 
Q 2906 1113 2906 1747 
Q 2906 2381 2643 2742 
Q 2381 3103 1925 3103 
Q 1469 3103 1208 2742 
Q 947 2381 947 1747 
z
" transform="scale(0.015625)"/>
       <path id="DejaVuSans-65" d="M 3597 1894 
L 3597 1613 
L 953 1613 
Q 991 1019 1311 708 
Q 1631 397 2203 397 
Q 2534 397 2845 478 
Q 3156 559 3463 722 
L 3463 178 
Q 3153 47 2828 -22 
Q 2503 -91 2169 -91 
Q 1331 -91 842 396 
Q 353 884 353 1716 
Q 353 2575 817 3079 
Q 1281 3584 2069 3584 
Q 2775 3584 3186 3129 
Q 3597 2675 3597 1894 
z
M 3022 2063 
Q 3016 2534 2758 2815 
Q 2500 3097 2075 3097 
Q 1594 3097 1305 2825 
Q 1016 2553 972 2059 
L 3022 2063 
z
" transform="scale(0.015625)"/>
      </defs>
      <use xlink:href="#DejaVuSans-45"/>
      <use xlink:href="#DejaVuSans-70" transform="translate(63.183594 0)"/>
      <use xlink:href="#DejaVuSans-69" transform="translate(126.660156 0)"/>
      <use xlink:href="#DejaVuSans-73" transform="translate(154.443359 0)"/>
      <use xlink:href="#DejaVuSans-6f" transform="translate(206.542969 0)"/>
      <use xlink:href="#DejaVuSans-64" transform="translate(267.724609 0)"/>
      <use xlink:href="#DejaVuSans-65" transform="translate(331.201172 0)"/>
     </g>
    </g>
   </g>
   <g id="matplotlib.axis_2">
    <g id="ytick_1">
     <g id="line2d_13">
      <path d="M 90 369.36 
L 648 369.36 
" clip-path="url(#pf0bde413d4)" style="fill: none; stroke-dasharray: 2.96,1.28; stroke-dashoffset: 0; stroke: #b0b0b0; stroke-opacity: 0.7; stroke-width: 0.8"/>
     </g>
     <g id="line2d_14">
      <defs>
       <path id="m35bb22ad1b" d="M 0 0 
L -3.5 0 
" style="stroke: #000000; stroke-width: 0.8"/>
      </defs>
      <g>
       <use xlink:href="#m35bb22ad1b" x="90" y="369.36" style="stroke: #000000; stroke-width: 0.8"/>
      </g>
     </g>
     <g id="text_8">
      <!-- −1.00 -->
      <g transform="translate(52.354687 373.159219) scale(0.1 -0.1)">
       <defs>
        <path id="DejaVuSans-2212" d="M 678 2272 
L 4684 2272 
L 4684 1741 
L 678 1741 
L 678 2272 
z
" transform="scale(0.015625)"/>
        <path id="DejaVuSans-2e" d="M 684 794 
L 1344 794 
L 1344 0 
L 684 0 
L 684 794 
z
" transform="scale(0.015625)"/>
       </defs>
       <use xlink:href="#DejaVuSans-2212"/>
       <use xlink:href="#DejaVuSans-31" transform="translate(83.789062 0)"/>
       <use xlink:href="#DejaVuSans-2e" transform="translate(147.412109 0)"/>
       <use xlink:href="#DejaVuSans-30" transform="translate(179.199219 0)"/>
       <use xlink:href="#DejaVuSans-30" transform="translate(242.822266 0)"/>
      </g>
     </g>
    </g>
    <g id="ytick_2">
     <g id="line2d_15">
      <path d="M 90 331.56 
L 648 331.56 
" clip-path="url(#pf0bde413d4)" style="fill: none; stroke-dasharray: 2.96,1.28; stroke-dashoffset: 0; stroke: #b0b0b0; stroke-opacity: 0.7; stroke-width: 0.8"/>
     </g>
     <g id="line2d_16">
      <g>
       <use xlink:href="#m35bb22ad1b" x="90" y="331.56" style="stroke: #000000; stroke-width: 0.8"/>
      </g>
     </g>
     <g id="text_9">
      <!-- −0.75 -->
      <g transform="translate(52.354687 335.359219) scale(0.1 -0.1)">
       <defs>
        <path id="DejaVuSans-37" d="M 525 4666 
L 3525 4666 
L 3525 4397 
L 1831 0 
L 1172 0 
L 2766 4134 
L 525 4134 
L 525 4666 
z
" transform="scale(0.015625)"/>
        <path id="DejaVuSans-35" d="M 691 4666 
L 3169 4666 
L 3169 4134 
L 1269 4134 
L 1269 2991 
Q 1406 3038 1543 3061 
Q 1681 3084 1819 3084 
Q 2600 3084 3056 2656 
Q 3513 2228 3513 1497 
Q 3513 744 3044 326 
Q 2575 -91 1722 -91 
Q 1428 -91 1123 -41 
Q 819 9 494 109 
L 494 744 
Q 775 591 1075 516 
Q 1375 441 1709 441 
Q 2250 441 2565 725 
Q 2881 1009 2881 1497 
Q 2881 1984 2565 2268 
Q 2250 2553 1709 2553 
Q 1456 2553 1204 2497 
Q 953 2441 691 2322 
L 691 4666 
z
" transform="scale(0.015625)"/>
       </defs>
       <use xlink:href="#DejaVuSans-2212"/>
       <use xlink:href="#DejaVuSans-30" transform="translate(83.789062 0)"/>
       <use xlink:href="#DejaVuSans-2e" transform="translate(147.412109 0)"/>
       <use xlink:href="#DejaVuSans-37" transform="translate(179.199219 0)"/>
       <use xlink:href="#DejaVuSans-35" transform="translate(242.822266 0)"/>
      </g>
     </g>
    </g>
    <g id="ytick_3">
     <g id="line2d_17">
      <path d="M 90 293.76 
L 648 293.76 
" clip-path="url(#pf0bde413d4)" style="fill: none; stroke-dasharray: 2.96,1.28; stroke-dashoffset: 0; stroke: #b0b0b0; stroke-opacity: 0.7; stroke-width: 0.8"/>
     </g>
     <g id="line2d_18">
      <g>
       <use xlink:href="#m35bb22ad1b" x="90" y="293.76" style="stroke: #000000; stroke-width: 0.8"/>
      </g>
     </g>
     <g id="text_10">
      <!-- −0.50 -->
      <g transform="translate(52.354687 297.559219) scale(0.1 -0.1)">
       <use xlink:href="#DejaVuSans-2212"/>
       <use xlink:href="#DejaVuSans-30" transform="translate(83.789062 0)"/>
       <use xlink:href="#DejaVuSans-2e" transform="translate(147.412109 0)"/>
       <use xlink:href="#DejaVuSans-35" transform="translate(179.199219 0)"/>
       <use xlink:href="#DejaVuSans-30" transform="translate(242.822266 0)"/>
      </g>
     </g>
    </g>
    <g id="ytick_4">
     <g id="line2d_19">
      <path d="M 90 255.96 
L 648 255.96 
" clip-path="url(#pf0bde413d4)" style="fill: none; stroke-dasharray: 2.96,1.28; stroke-dashoffset: 0; stroke: #b0b0b0; stroke-opacity: 0.7; stroke-width: 0.8"/>
     </g>
     <g id="line2d_20">
      <g>
       <use xlink:href="#m35bb22ad1b" x="90" y="255.96" style="stroke: #000000; stroke-width: 0.8"/>
      </g>
     </g>
     <g id="text_11">
      <!-- −0.25 -->
      <g transform="translate(52.354687 259.759219) scale(0.1 -0.1)">
       <use xlink:href="#DejaVuSans-2212"/>
       <use xlink:href="#DejaVuSans-30" transform="translate(83.789062 0)"/>
       <use xlink:href="#DejaVuSans-2e" transform="translate(147.412109 0)"/>
       <use xlink:href="#DejaVuSans-32" transform="translate(179.199219 0)"/>
       <use xlink:href="#DejaVuSans-35" transform="translate(242.822266 0)"/>
      </g>
     </g>
    </g>
    <g id="ytick_5">
     <g id="line2d_21">
      <path d="M 90 218.16 
L 648 218.16 
" clip-path="url(#pf0bde413d4)" style="fill: none; stroke-dasharray: 2.96,1.28; stroke-dashoffset: 0; stroke: #b0b0b0; stroke-opacity: 0.7; stroke-width: 0.8"/>
     </g>
     <g id="line2d_22">
      <g>
       <use xlink:href="#m35bb22ad1b" x="90" y="218.16" style="stroke: #000000; stroke-width: 0.8"/>
      </g>
     </g>
     <g id="text_12">
      <!-- 0.00 -->
      <g transform="translate(60.734375 221.959219) scale(0.1 -0.1)">
       <use xlink:href="#DejaVuSans-30"/>
       <use xlink:href="#DejaVuSans-2e" transform="translate(63.623047 0)"/>
       <use xlink:href="#DejaVuSans-30" transform="translate(95.410156 0)"/>
       <use xlink:href="#DejaVuSans-30" transform="translate(159.033203 0)"/>
      </g>
     </g>
    </g>
    <g id="ytick_6">
     <g id="line2d_23">
      <path d="M 90 180.36 
L 648 180.36 
" clip-path="url(#pf0bde413d4)" style="fill: none; stroke-dasharray: 2.96,1.28; stroke-dashoffset: 0; stroke: #b0b0b0; stroke-opacity: 0.7; stroke-width: 0.8"/>
     </g>
     <g id="line2d_24">
      <g>
       <use xlink:href="#m35bb22ad1b" x="90" y="180.36" style="stroke: #000000; stroke-width: 0.8"/>
      </g>
     </g>
     <g id="text_13">
      <!-- 0.25 -->
      <g transform="translate(60.734375 184.159219) scale(0.1 -0.1)">
       <use xlink:href="#DejaVuSans-30"/>
       <use xlink:href="#DejaVuSans-2e" transform="translate(63.623047 0)"/>
       <use xlink:href="#DejaVuSans-32" transform="translate(95.410156 0)"/>
       <use xlink:href="#DejaVuSans-35" transform="translate(159.033203 0)"/>
      </g>
     </g>
    </g>
    <g id="ytick_7">
     <g id="line2d_25">
      <path d="M 90 142.56 
L 648 142.56 
" clip-path="url(#pf0bde413d4)" style="fill: none; stroke-dasharray: 2.96,1.28; stroke-dashoffset: 0; stroke: #b0b0b0; stroke-opacity: 0.7; stroke-width: 0.8"/>
     </g>
     <g id="line2d_26">
      <g>
       <use xlink:href="#m35bb22ad1b" x="90" y="142.56" style="stroke: #000000; stroke-width: 0.8"/>
      </g>
     </g>
     <g id="text_14">
      <!-- 0.50 -->
      <g transform="translate(60.734375 146.359219) scale(0.1 -0.1)">
       <use xlink:href="#DejaVuSans-30"/>
       <use xlink:href="#DejaVuSans-2e" transform="translate(63.623047 0)"/>
       <use xlink:href="#DejaVuSans-35" transform="translate(95.410156 0)"/>
       <use xlink:href="#DejaVuSans-30" transform="translate(159.033203 0)"/>
      </g>
     </g>
    </g>
    <g id="ytick_8">
     <g id="line2d_27">
      <path d="M 90 104.76 
L 648 104.76 
" clip-path="url(#pf0bde413d4)" style="fill: none; stroke-dasharray: 2.96,1.28; stroke-dashoffset: 0; stroke: #b0b0b0; stroke-opacity: 0.7; stroke-width: 0.8"/>
     </g>
     <g id="line2d_28">
      <g>
       <use xlink:href="#m35bb22ad1b" x="90" y="104.76" style="stroke: #000000; stroke-width: 0.8"/>
      </g>
     </g>
     <g id="text_15">
      <!-- 0.75 -->
      <g transform="translate(60.734375 108.559219) scale(0.1 -0.1)">
       <use xlink:href="#DejaVuSans-30"/>
       <use xlink:href="#DejaVuSans-2e" transform="translate(63.623047 0)"/>
       <use xlink:href="#DejaVuSans-37" transform="translate(95.410156 0)"/>
       <use xlink:href="#DejaVuSans-35" transform="translate(159.033203 0)"/>
      </g>
     </g>
    </g>
    <g id="ytick_9">
     <g id="line2d_29">
      <path d="M 90 66.96 
L 648 66.96 
" clip-path="url(#pf0bde413d4)" style="fill: none; stroke-dasharray: 2.96,1.28; stroke-dashoffset: 0; stroke: #b0b0b0; stroke-opacity: 0.7; stroke-width: 0.8"/>
     </g>
     <g id="line2d_30">
      <g>
       <use xlink:href="#m35bb22ad1b" x="90" y="66.96" style="stroke: #000000; stroke-width: 0.8"/>
      </g>
     </g>
     <g id="text_16">
      <!-- 1.00 -->
      <g transform="translate(60.734375 70.759219) scale(0.1 -0.1)">
       <use xlink:href="#DejaVuSans-31"/>
       <use xlink:href="#DejaVuSans-2e" transform="translate(63.623047 0)"/>
       <use xlink:href="#DejaVuSans-30" transform="translate(95.410156 0)"/>
       <use xlink:href="#DejaVuSans-30" transform="translate(159.033203 0)"/>
      </g>
     </g>
    </g>
    <g id="text_17">
     <!-- Cumulative Reward (Max=1.00) -->
     <g transform="translate(46.275 298.058437) rotate(-90) scale(0.1 -0.1)">
      <defs>
       <path id="DejaVuSans-43" d="M 4122 4306 
L 4122 3641 
Q 3803 3938 3442 4084 
Q 3081 4231 2675 4231 
Q 1875 4231 1450 3742 
Q 1025 3253 1025 2328 
Q 1025 1406 1450 917 
Q 1875 428 2675 428 
Q 3081 428 3442 575 
Q 3803 722 4122 1019 
L 4122 359 
Q 3791 134 3420 21 
Q 3050 -91 2638 -91 
Q 1578 -91 968 557 
Q 359 1206 359 2328 
Q 359 3453 968 4101 
Q 1578 4750 2638 4750 
Q 3056 4750 3426 4639 
Q 3797 4528 4122 4306 
z
" transform="scale(0.015625)"/>
       <path id="DejaVuSans-75" d="M 544 1381 
L 544 3500 
L 1119 3500 
L 1119 1403 
Q 1119 906 1312 657 
Q 1506 409 1894 409 
Q 2359 409 2629 706 
Q 2900 1003 2900 1516 
L 2900 3500 
L 3475 3500 
L 3475 0 
L 2900 0 
L 2900 538 
Q 2691 219 2414 64 
Q 2138 -91 1772 -91 
Q 1169 -91 856 284 
Q 544 659 544 1381 
z
M 1991 3584 
L 1991 3584 
z
" transform="scale(0.015625)"/>
       <path id="DejaVuSans-6d" d="M 3328 2828 
Q 3544 3216 3844 3400 
Q 4144 3584 4550 3584 
Q 5097 3584 5394 3201 
Q 5691 2819 5691 2113 
L 5691 0 
L 5113 0 
L 5113 2094 
Q 5113 2597 4934 2840 
Q 4756 3084 4391 3084 
Q 3944 3084 3684 2787 
Q 3425 2491 3425 1978 
L 3425 0 
L 2847 0 
L 2847 2094 
Q 2847 2600 2669 2842 
Q 2491 3084 2119 3084 
Q 1678 3084 1418 2786 
Q 1159 2488 1159 1978 
L 1159 0 
L 581 0 
L 581 3500 
L 1159 3500 
L 1159 2956 
Q 1356 3278 1631 3431 
Q 1906 3584 2284 3584 
Q 2666 3584 2933 3390 
Q 3200 3197 3328 2828 
z
" transform="scale(0.015625)"/>
       <path id="DejaVuSans-6c" d="M 603 4863 
L 1178 4863 
L 1178 0 
L 603 0 
L 603 4863 
z
" transform="scale(0.015625)"/>
       <path id="DejaVuSans-61" d="M 2194 1759 
Q 1497 1759 1228 1600 
Q 959 1441 959 1056 
Q 959 750 1161 570 
Q 1363 391 1709 391 
Q 2188 391 2477 730 
Q 2766 1069 2766 1631 
L 2766 1759 
L 2194 1759 
z
M 3341 1997 
L 3341 0 
L 2766 0 
L 2766 531 
Q 2569 213 2275 61 
Q 1981 -91 1556 -91 
Q 1019 -91 701 211 
Q 384 513 384 1019 
Q 384 1609 779 1909 
Q 1175 2209 1959 2209 
L 2766 2209 
L 2766 2266 
Q 2766 2663 2505 2880 
Q 2244 3097 1772 3097 
Q 1472 3097 1187 3025 
Q 903 2953 641 2809 
L 641 3341 
Q 956 3463 1253 3523 
Q 1550 3584 1831 3584 
Q 2591 3584 2966 3190 
Q 3341 2797 3341 1997 
z
" transform="scale(0.015625)"/>
       <path id="DejaVuSans-74" d="M 1172 4494 
L 1172 3500 
L 2356 3500 
L 2356 3053 
L 1172 3053 
L 1172 1153 
Q 1172 725 1289 603 
Q 1406 481 1766 481 
L 2356 481 
L 2356 0 
L 1766 0 
Q 1100 0 847 248 
Q 594 497 594 1153 
L 594 3053 
L 172 3053 
L 172 3500 
L 594 3500 
L 594 4494 
L 1172 4494 
z
" transform="scale(0.015625)"/>
       <path id="DejaVuSans-76" d="M 191 3500 
L 800 3500 
L 1894 563 
L 2988 3500 
L 3597 3500 
L 2284 0 
L 1503 0 
L 191 3500 
z
" transform="scale(0.015625)"/>
       <path id="DejaVuSans-20" transform="scale(0.015625)"/>
       <path id="DejaVuSans-52" d="M 2841 2188 
Q 3044 2119 3236 1894 
Q 3428 1669 3622 1275 
L 4263 0 
L 3584 0 
L 2988 1197 
Q 2756 1666 2539 1819 
Q 2322 1972 1947 1972 
L 1259 1972 
L 1259 0 
L 628 0 
L 628 4666 
L 2053 4666 
Q 2853 4666 3247 4331 
Q 3641 3997 3641 3322 
Q 3641 2881 3436 2590 
Q 3231 2300 2841 2188 
z
M 1259 4147 
L 1259 2491 
L 2053 2491 
Q 2509 2491 2742 2702 
Q 2975 2913 2975 3322 
Q 2975 3731 2742 3939 
Q 2509 4147 2053 4147 
L 1259 4147 
z
" transform="scale(0.015625)"/>
       <path id="DejaVuSans-77" d="M 269 3500 
L 844 3500 
L 1563 769 
L 2278 3500 
L 2956 3500 
L 3675 769 
L 4391 3500 
L 4966 3500 
L 4050 0 
L 3372 0 
L 2619 2869 
L 1863 0 
L 1184 0 
L 269 3500 
z
" transform="scale(0.015625)"/>
       <path id="DejaVuSans-72" d="M 2631 2963 
Q 2534 3019 2420 3045 
Q 2306 3072 2169 3072 
Q 1681 3072 1420 2755 
Q 1159 2438 1159 1844 
L 1159 0 
L 581 0 
L 581 3500 
L 1159 3500 
L 1159 2956 
Q 1341 3275 1631 3429 
Q 1922 3584 2338 3584 
Q 2397 3584 2469 3576 
Q 2541 3569 2628 3553 
L 2631 2963 
z
" transform="scale(0.015625)"/>
       <path id="DejaVuSans-28" d="M 1984 4856 
Q 1566 4138 1362 3434 
Q 1159 2731 1159 2009 
Q 1159 1288 1364 580 
Q 1569 -128 1984 -844 
L 1484 -844 
Q 1016 -109 783 600 
Q 550 1309 550 2009 
Q 550 2706 781 3412 
Q 1013 4119 1484 4856 
L 1984 4856 
z
" transform="scale(0.015625)"/>
       <path id="DejaVuSans-4d" d="M 628 4666 
L 1569 4666 
L 2759 1491 
L 3956 4666 
L 4897 4666 
L 4897 0 
L 4281 0 
L 4281 4097 
L 3078 897 
L 2444 897 
L 1241 4097 
L 1241 0 
L 628 0 
L 628 4666 
z
" transform="scale(0.015625)"/>
       <path id="DejaVuSans-78" d="M 3513 3500 
L 2247 1797 
L 3578 0 
L 2900 0 
L 1881 1375 
L 863 0 
L 184 0 
L 1544 1831 
L 300 3500 
L 978 3500 
L 1906 2253 
L 2834 3500 
L 3513 3500 
z
" transform="scale(0.015625)"/>
       <path id="DejaVuSans-3d" d="M 678 2906 
L 4684 2906 
L 4684 2381 
L 678 2381 
L 678 2906 
z
M 678 1631 
L 4684 1631 
L 4684 1100 
L 678 1100 
L 678 1631 
z
" transform="scale(0.015625)"/>
       <path id="DejaVuSans-29" d="M 513 4856 
L 1013 4856 
Q 1481 4119 1714 3412 
Q 1947 2706 1947 2009 
Q 1947 1309 1714 600 
Q 1481 -109 1013 -844 
L 513 -844 
Q 928 -128 1133 580 
Q 1338 1288 1338 2009 
Q 1338 2731 1133 3434 
Q 928 4138 513 4856 
z
" transform="scale(0.015625)"/>
      </defs>
      <use xlink:href="#DejaVuSans-43"/>
      <use xlink:href="#DejaVuSans-75" transform="translate(69.824219 0)"/>
      <use xlink:href="#DejaVuSans-6d" transform="translate(133.203125 0)"/>
      <use xlink:href="#DejaVuSans-75" transform="translate(230.615234 0)"/>
      <use xlink:href="#DejaVuSans-6c" transform="translate(293.994141 0)"/>
      <use xlink:href="#DejaVuSans-61" transform="translate(321.777344 0)"/>
      <use xlink:href="#DejaVuSans-74" transform="translate(383.056641 0)"/>
      <use xlink:href="#DejaVuSans-69" transform="translate(422.265625 0)"/>
      <use xlink:href="#DejaVuSans-76" transform="translate(450.048828 0)"/>
      <use xlink:href="#DejaVuSans-65" transform="translate(509.228516 0)"/>
      <use xlink:href="#DejaVuSans-20" transform="translate(570.751953 0)"/>
      <use xlink:href="#DejaVuSans-52" transform="translate(602.539062 0)"/>
      <use xlink:href="#DejaVuSans-65" transform="translate(667.521484 0)"/>
      <use xlink:href="#DejaVuSans-77" transform="translate(729.044922 0)"/>
      <use xlink:href="#DejaVuSans-61" transform="translate(810.832031 0)"/>
      <use xlink:href="#DejaVuSans-72" transform="translate(872.111328 0)"/>
      <use xlink:href="#DejaVuSans-64" transform="translate(911.474609 0)"/>
      <use xlink:href="#DejaVuSans-20" transform="translate(974.951172 0)"/>
      <use xlink:href="#DejaVuSans-28" transform="translate(1006.738281 0)"/>
      <use xlink:href="#DejaVuSans-4d" transform="translate(1045.751953 0)"/>
      <use xlink:href="#DejaVuSans-61" transform="translate(1132.03125 0)"/>
      <use xlink:href="#DejaVuSans-78" transform="translate(1193.310547 0)"/>
      <use xlink:href="#DejaVuSans-3d" transform="translate(1252.490234 0)"/>
      <use xlink:href="#DejaVuSans-31" transform="translate(1336.279297 0)"/>
      <use xlink:href="#DejaVuSans-2e" transform="translate(1399.902344 0)"/>
      <use xlink:href="#DejaVuSans-30" transform="translate(1431.689453 0)"/>
      <use xlink:href="#DejaVuSans-30" transform="translate(1495.3125 0)"/>
      <use xlink:href="#DejaVuSans-29" transform="translate(1558.935547 0)"/>
     </g>
    </g>
   </g>
   <g id="line2d_31">
    <path d="M 115.363636 369.36 
L 147.778364 369.36 
L 147.829091 66.96 
L 147.879818 369.36 
L 147.930545 369.36 
L 147.981273 66.96 
L 148.032 369.36 
L 148.640727 369.36 
L 148.691455 66.96 
L 148.742182 369.36 
L 149.858182 369.36 
L 149.959636 66.96 
L 150.111818 369.36 
L 150.466909 369.36 
L 150.517636 66.96 
L 150.568364 369.36 
L 150.720545 369.36 
L 150.771273 66.96 
L 150.822 369.36 
L 151.177091 369.36 
L 151.227818 66.96 
L 151.278545 369.36 
L 151.329273 369.36 
L 151.38 66.96 
L 151.430727 369.36 
L 151.481455 369.36 
L 151.532182 66.96 
L 151.582909 369.36 
L 152.039455 369.36 
L 152.090182 66.96 
L 152.140909 369.36 
L 153.206182 369.36 
L 153.256909 66.96 
L 153.307636 369.36 
L 154.17 369.36 
L 154.220727 66.96 
L 154.271455 369.36 
L 155.844 369.36 
L 155.894727 66.96 
L 155.945455 369.36 
L 157.112182 369.36 
L 157.162909 66.96 
L 157.213636 369.36 
L 157.365818 369.36 
L 157.416545 66.96 
L 157.467273 369.36 
L 157.873091 369.36 
L 157.974545 66.96 
L 158.126727 369.36 
L 158.228182 369.36 
L 158.380364 66.96 
L 158.481818 66.96 
L 158.634 369.36 
L 158.684727 369.36 
L 158.786182 66.96 
L 158.887636 369.36 
L 158.989091 66.96 
L 159.090545 369.36 
L 159.192 66.96 
L 159.293455 369.36 
L 159.344182 66.96 
L 159.394909 369.36 
L 159.496364 369.36 
L 159.648545 66.96 
L 159.699273 66.96 
L 159.851455 369.36 
L 159.952909 369.36 
L 160.003636 66.96 
L 160.054364 369.36 
L 160.257273 369.36 
L 160.308 66.96 
L 160.358727 369.36 
L 160.764545 369.36 
L 160.815273 66.96 
L 160.866 369.36 
L 161.068909 369.36 
L 161.221091 66.96 
L 161.322545 369.36 
L 161.424 66.96 
L 161.576182 369.36 
L 161.779091 369.36 
L 161.931273 66.96 
L 161.982 66.96 
L 162.083455 369.36 
L 162.184909 66.96 
L 162.337091 369.36 
L 162.54 369.36 
L 162.590727 66.96 
L 162.641455 369.36 
L 162.742909 369.36 
L 162.895091 66.96 
L 163.047273 369.36 
L 163.300909 369.36 
L 163.453091 66.96 
L 163.554545 66.96 
L 163.706727 369.36 
L 163.858909 66.96 
L 163.960364 369.36 
L 164.011091 66.96 
L 164.061818 369.36 
L 164.163273 369.36 
L 164.214 66.96 
L 164.264727 369.36 
L 164.315455 369.36 
L 164.416909 66.96 
L 164.569091 369.36 
L 164.619818 66.96 
L 164.670545 369.36 
L 164.924182 369.36 
L 164.974909 66.96 
L 165.025636 369.36 
L 165.076364 369.36 
L 165.177818 66.96 
L 165.33 369.36 
L 165.431455 369.36 
L 165.482182 66.96 
L 165.532909 369.36 
L 165.583636 369.36 
L 165.634364 66.96 
L 165.685091 369.36 
L 165.786545 369.36 
L 165.888 66.96 
L 165.938727 369.36 
L 165.989455 66.96 
L 166.040182 66.96 
L 166.192364 369.36 
L 166.243091 369.36 
L 166.395273 66.96 
L 166.547455 369.36 
L 166.598182 369.36 
L 166.750364 66.96 
L 166.902545 369.36 
L 167.004 66.96 
L 167.105455 369.36 
L 167.257636 66.96 
L 167.359091 66.96 
L 167.511273 369.36 
L 167.866364 369.36 
L 167.917091 66.96 
L 167.967818 369.36 
L 168.069273 369.36 
L 168.12 66.96 
L 168.170727 369.36 
L 168.322909 369.36 
L 168.373636 66.96 
L 168.424364 369.36 
L 168.525818 369.36 
L 168.576545 66.96 
L 168.627273 369.36 
L 168.779455 369.36 
L 168.931636 66.96 
L 169.083818 369.36 
L 169.134545 369.36 
L 169.286727 66.96 
L 169.388182 369.36 
L 169.540364 66.96 
L 169.641818 66.96 
L 169.794 369.36 
L 169.895455 66.96 
L 169.946182 369.36 
L 169.996909 66.96 
L 170.149091 66.96 
L 170.199818 369.36 
L 170.250545 66.96 
L 170.554909 66.96 
L 170.605636 369.36 
L 170.656364 66.96 
L 170.859273 66.96 
L 171.011455 369.36 
L 171.163636 66.96 
L 171.214364 66.96 
L 171.366545 369.36 
L 171.670909 369.36 
L 171.772364 66.96 
L 171.873818 369.36 
L 172.026 66.96 
L 172.076727 66.96 
L 172.178182 369.36 
L 172.279636 66.96 
L 172.330364 369.36 
L 172.381091 66.96 
L 172.431818 66.96 
L 172.482545 369.36 
L 172.533273 66.96 
L 172.584 66.96 
L 172.736182 369.36 
L 172.786909 369.36 
L 172.888364 66.96 
L 173.040545 369.36 
L 173.192727 66.96 
L 173.294182 66.96 
L 173.344909 369.36 
L 173.395636 66.96 
L 173.446364 66.96 
L 173.598545 369.36 
L 173.750727 66.96 
L 173.801455 369.36 
L 173.852182 66.96 
L 173.902909 66.96 
L 173.953636 369.36 
L 174.004364 66.96 
L 174.055091 66.96 
L 174.156545 369.36 
L 174.308727 66.96 
L 174.460909 369.36 
L 174.613091 66.96 
L 174.663818 369.36 
L 174.714545 66.96 
L 174.765273 66.96 
L 174.917455 369.36 
L 175.018909 66.96 
L 175.171091 369.36 
L 175.323273 66.96 
L 175.374 66.96 
L 175.424727 369.36 
L 175.475455 66.96 
L 175.526182 66.96 
L 175.576909 369.36 
L 175.627636 66.96 
L 175.678364 66.96 
L 175.729091 369.36 
L 175.779818 66.96 
L 175.881273 66.96 
L 176.033455 369.36 
L 176.084182 369.36 
L 176.185636 66.96 
L 176.287091 369.36 
L 176.439273 66.96 
L 176.591455 369.36 
L 176.692909 369.36 
L 176.845091 66.96 
L 176.895818 66.96 
L 176.997273 369.36 
L 177.048 66.96 
L 177.098727 369.36 
L 177.250909 369.36 
L 177.403091 66.96 
L 177.504545 66.96 
L 177.555273 369.36 
L 177.606 66.96 
L 177.656727 66.96 
L 177.808909 369.36 
L 177.910364 369.36 
L 178.062545 66.96 
L 178.214727 66.96 
L 178.316182 369.36 
L 178.468364 66.96 
L 178.519091 66.96 
L 178.569818 369.36 
L 178.620545 66.96 
L 178.671273 66.96 
L 178.823455 369.36 
L 178.975636 66.96 
L 179.127818 369.36 
L 179.28 66.96 
L 179.432182 369.36 
L 179.584364 66.96 
L 179.685818 66.96 
L 179.787273 369.36 
L 179.939455 66.96 
L 180.091636 66.96 
L 180.142364 369.36 
L 180.193091 66.96 
L 180.243818 66.96 
L 180.345273 369.36 
L 180.497455 66.96 
L 180.548182 66.96 
L 180.700364 369.36 
L 180.852545 66.96 
L 181.055455 66.96 
L 181.207636 369.36 
L 181.359818 66.96 
L 181.410545 369.36 
L 181.461273 66.96 
L 181.512 66.96 
L 181.562727 369.36 
L 181.613455 66.96 
L 181.816364 66.96 
L 181.867091 369.36 
L 181.917818 66.96 
L 182.07 66.96 
L 182.171455 369.36 
L 182.272909 66.96 
L 182.425091 369.36 
L 182.526545 66.96 
L 182.678727 369.36 
L 182.830909 66.96 
L 182.881636 369.36 
L 182.932364 66.96 
L 182.983091 66.96 
L 183.135273 369.36 
L 183.186 66.96 
L 183.236727 369.36 
L 183.541091 369.36 
L 183.642545 66.96 
L 183.693273 369.36 
L 183.744 66.96 
L 184.048364 66.96 
L 184.149818 369.36 
L 184.302 66.96 
L 184.454182 369.36 
L 184.504909 66.96 
L 184.555636 369.36 
L 184.657091 369.36 
L 184.809273 66.96 
L 184.961455 66.96 
L 185.062909 369.36 
L 185.164364 66.96 
L 185.265818 369.36 
L 185.316545 66.96 
L 185.367273 369.36 
L 185.519455 369.36 
L 185.620909 66.96 
L 185.773091 369.36 
L 185.874545 369.36 
L 186.026727 66.96 
L 186.128182 369.36 
L 186.280364 66.96 
L 186.331091 66.96 
L 186.483273 369.36 
L 186.584727 369.36 
L 186.736909 66.96 
L 186.787636 66.96 
L 186.838364 369.36 
L 186.889091 66.96 
L 186.990545 66.96 
L 187.041273 369.36 
L 187.092 66.96 
L 187.142727 66.96 
L 187.294909 369.36 
L 187.345636 369.36 
L 187.447091 66.96 
L 187.599273 369.36 
L 187.700727 369.36 
L 187.852909 66.96 
L 187.903636 66.96 
L 188.005091 369.36 
L 188.055818 66.96 
L 188.106545 369.36 
L 188.157273 369.36 
L 188.309455 66.96 
L 188.512364 66.96 
L 188.563091 369.36 
L 188.613818 66.96 
L 188.816727 66.96 
L 188.918182 369.36 
L 189.070364 66.96 
L 189.121091 369.36 
L 189.171818 66.96 
L 189.324 66.96 
L 189.425455 369.36 
L 189.577636 66.96 
L 189.729818 369.36 
L 189.831273 369.36 
L 189.882 66.96 
L 189.932727 369.36 
L 189.983455 369.36 
L 190.034182 66.96 
L 190.084909 369.36 
L 190.135636 369.36 
L 190.287818 66.96 
L 190.389273 369.36 
L 190.541455 66.96 
L 190.642909 66.96 
L 190.744364 369.36 
L 190.845818 66.96 
L 190.896545 369.36 
L 190.947273 66.96 
L 191.251636 66.96 
L 191.302364 369.36 
L 191.353091 66.96 
L 191.454545 66.96 
L 191.505273 369.36 
L 191.556 66.96 
L 191.911091 66.96 
L 192.063273 369.36 
L 192.215455 66.96 
L 192.266182 66.96 
L 192.418364 369.36 
L 192.621273 369.36 
L 192.773455 66.96 
L 192.874909 66.96 
L 192.976364 369.36 
L 193.128545 66.96 
L 193.23 66.96 
L 193.382182 369.36 
L 193.534364 369.36 
L 193.686545 66.96 
L 193.838727 369.36 
L 193.889455 369.36 
L 193.990909 66.96 
L 194.041636 369.36 
L 194.092364 66.96 
L 194.143091 66.96 
L 194.193818 369.36 
L 194.244545 66.96 
L 194.295273 66.96 
L 194.447455 369.36 
L 194.599636 66.96 
L 194.701091 369.36 
L 194.853273 66.96 
L 195.005455 369.36 
L 195.157636 66.96 
L 195.664909 66.96 
L 195.817091 369.36 
L 195.969273 66.96 
L 196.121455 66.96 
L 196.222909 369.36 
L 196.375091 66.96 
L 196.476545 66.96 
L 196.527273 369.36 
L 196.578 66.96 
L 196.628727 66.96 
L 196.679455 369.36 
L 196.730182 66.96 
L 196.780909 66.96 
L 196.831636 369.36 
L 196.882364 66.96 
L 196.933091 66.96 
L 197.034545 369.36 
L 197.186727 66.96 
L 197.288182 66.96 
L 197.338909 369.36 
L 197.389636 66.96 
L 197.744727 66.96 
L 197.896909 369.36 
L 198.049091 66.96 
L 198.353455 66.96 
L 198.505636 369.36 
L 198.607091 66.96 
L 198.759273 369.36 
L 198.911455 66.96 
L 198.962182 369.36 
L 199.012909 66.96 
L 199.114364 66.96 
L 199.266545 369.36 
L 199.418727 66.96 
L 199.570909 66.96 
L 199.621636 369.36 
L 199.672364 66.96 
L 199.723091 66.96 
L 199.875273 369.36 
L 199.926 369.36 
L 200.027455 66.96 
L 200.078182 369.36 
L 200.128909 66.96 
L 200.230364 66.96 
L 200.281091 369.36 
L 200.331818 66.96 
L 200.686909 66.96 
L 200.737636 369.36 
L 200.788364 66.96 
L 200.889818 66.96 
L 200.940545 369.36 
L 200.991273 66.96 
L 201.955091 66.96 
L 202.005818 369.36 
L 202.056545 66.96 
L 202.158 66.96 
L 202.259455 369.36 
L 202.411636 66.96 
L 202.462364 66.96 
L 202.513091 369.36 
L 202.563818 66.96 
L 202.614545 66.96 
L 202.766727 369.36 
L 202.868182 66.96 
L 202.918909 369.36 
L 202.969636 66.96 
L 203.172545 66.96 
L 203.223273 369.36 
L 203.274 66.96 
L 203.426182 66.96 
L 203.578364 369.36 
L 203.730545 66.96 
L 203.882727 66.96 
L 204.034909 369.36 
L 204.187091 369.36 
L 204.288545 66.96 
L 204.339273 369.36 
L 204.39 66.96 
L 204.440727 66.96 
L 204.491455 369.36 
L 204.542182 66.96 
L 204.897273 66.96 
L 205.049455 369.36 
L 205.201636 66.96 
L 205.404545 66.96 
L 205.455273 369.36 
L 205.506 66.96 
L 205.861091 66.96 
L 206.013273 369.36 
L 206.165455 66.96 
L 206.216182 66.96 
L 206.266909 369.36 
L 206.317636 66.96 
L 206.520545 66.96 
L 206.571273 369.36 
L 206.622 66.96 
L 206.672727 66.96 
L 206.723455 369.36 
L 206.774182 66.96 
L 206.977091 66.96 
L 207.027818 369.36 
L 207.078545 66.96 
L 207.433636 66.96 
L 207.585818 369.36 
L 207.636545 66.96 
L 207.687273 369.36 
L 207.738 369.36 
L 207.890182 66.96 
L 207.940909 66.96 
L 208.093091 369.36 
L 208.245273 66.96 
L 208.854 66.96 
L 208.904727 369.36 
L 208.955455 66.96 
L 209.056909 66.96 
L 209.107636 369.36 
L 209.158364 66.96 
L 209.614909 66.96 
L 209.665636 369.36 
L 209.716364 66.96 
L 210.172909 66.96 
L 210.325091 369.36 
L 210.426545 66.96 
L 210.528 369.36 
L 210.680182 66.96 
L 210.933818 66.96 
L 210.984545 369.36 
L 211.035273 66.96 
L 211.288909 66.96 
L 211.441091 369.36 
L 211.491818 66.96 
L 211.542545 369.36 
L 211.593273 369.36 
L 211.644 66.96 
L 211.694727 369.36 
L 211.745455 369.36 
L 211.897636 66.96 
L 212.100545 66.96 
L 212.151273 369.36 
L 212.202 66.96 
L 212.658545 66.96 
L 212.709273 369.36 
L 212.76 66.96 
L 212.861455 66.96 
L 212.962909 369.36 
L 213.115091 66.96 
L 213.216545 66.96 
L 213.267273 369.36 
L 213.318 66.96 
L 213.419455 66.96 
L 213.571636 369.36 
L 213.723818 66.96 
L 214.129636 66.96 
L 214.281818 369.36 
L 214.332545 369.36 
L 214.484727 66.96 
L 214.687636 66.96 
L 214.738364 369.36 
L 214.789091 66.96 
L 215.296364 66.96 
L 215.448545 369.36 
L 215.499273 369.36 
L 215.651455 66.96 
L 215.803636 66.96 
L 215.854364 369.36 
L 215.905091 66.96 
L 216.716727 66.96 
L 216.868909 369.36 
L 217.021091 66.96 
L 217.274727 66.96 
L 217.325455 369.36 
L 217.376182 66.96 
L 217.477636 66.96 
L 217.528364 369.36 
L 217.579091 66.96 
L 217.629818 66.96 
L 217.782 369.36 
L 217.934182 66.96 
L 217.984909 66.96 
L 218.035636 369.36 
L 218.086364 66.96 
L 218.137091 66.96 
L 218.238545 369.36 
L 218.390727 66.96 
L 218.492182 66.96 
L 218.542909 369.36 
L 218.593636 66.96 
L 218.898 66.96 
L 218.999455 369.36 
L 219.151636 66.96 
L 219.456 66.96 
L 219.557455 369.36 
L 219.709636 66.96 
L 220.014 66.96 
L 220.166182 369.36 
L 220.267636 66.96 
L 220.318364 369.36 
L 220.369091 66.96 
L 220.724182 66.96 
L 220.825636 369.36 
L 220.977818 66.96 
L 221.079273 66.96 
L 221.13 369.36 
L 221.180727 66.96 
L 221.231455 66.96 
L 221.332909 369.36 
L 221.485091 66.96 
L 221.789455 66.96 
L 221.840182 369.36 
L 221.890909 66.96 
L 222.144545 66.96 
L 222.195273 369.36 
L 222.246 66.96 
L 222.398182 66.96 
L 222.448909 369.36 
L 222.499636 66.96 
L 222.601091 66.96 
L 222.702545 369.36 
L 222.854727 66.96 
L 223.159091 66.96 
L 223.209818 369.36 
L 223.260545 66.96 
L 223.412727 66.96 
L 223.463455 369.36 
L 223.514182 66.96 
L 223.818545 66.96 
L 223.869273 369.36 
L 223.92 66.96 
L 224.224364 66.96 
L 224.376545 369.36 
L 224.528727 66.96 
L 224.731636 66.96 
L 224.833091 369.36 
L 224.985273 66.96 
L 226.050545 66.96 
L 226.202727 369.36 
L 226.354909 66.96 
L 226.608545 66.96 
L 226.760727 369.36 
L 226.912909 66.96 
L 227.065091 66.96 
L 227.115818 369.36 
L 227.166545 66.96 
L 227.623091 66.96 
L 227.673818 369.36 
L 227.724545 66.96 
L 227.775273 66.96 
L 227.876727 369.36 
L 228.028909 66.96 
L 228.181091 66.96 
L 228.231818 369.36 
L 228.282545 66.96 
L 228.586909 66.96 
L 228.739091 369.36 
L 228.891273 66.96 
L 228.992727 66.96 
L 229.043455 369.36 
L 229.094182 66.96 
L 229.5 66.96 
L 229.550727 369.36 
L 229.601455 66.96 
L 229.753636 66.96 
L 229.855091 369.36 
L 230.007273 66.96 
L 230.108727 66.96 
L 230.210182 369.36 
L 230.362364 66.96 
L 230.717455 66.96 
L 230.768182 369.36 
L 230.818909 66.96 
L 230.920364 66.96 
L 231.021818 369.36 
L 231.174 66.96 
L 231.224727 369.36 
L 231.275455 66.96 
L 231.326182 66.96 
L 231.478364 369.36 
L 231.630545 66.96 
L 231.681273 369.36 
L 231.732 66.96 
L 232.239273 66.96 
L 232.29 369.36 
L 232.340727 66.96 
L 232.543636 66.96 
L 232.594364 369.36 
L 232.645091 66.96 
L 232.848 66.96 
L 232.898727 369.36 
L 232.949455 66.96 
L 234.014727 66.96 
L 234.065455 369.36 
L 234.116182 66.96 
L 234.623455 66.96 
L 234.674182 369.36 
L 234.724909 66.96 
L 234.775636 66.96 
L 234.826364 369.36 
L 234.877091 66.96 
L 235.08 66.96 
L 235.130727 369.36 
L 235.181455 66.96 
L 235.333636 66.96 
L 235.384364 369.36 
L 235.435091 66.96 
L 235.942364 66.96 
L 235.993091 369.36 
L 236.043818 66.96 
L 236.246727 66.96 
L 236.398909 369.36 
L 236.551091 66.96 
L 237.210545 66.96 
L 237.261273 369.36 
L 237.312 66.96 
L 237.616364 66.96 
L 237.667091 369.36 
L 237.717818 66.96 
L 237.768545 66.96 
L 237.819273 369.36 
L 237.87 66.96 
L 238.326545 66.96 
L 238.377273 369.36 
L 238.428 66.96 
L 238.529455 66.96 
L 238.580182 369.36 
L 238.630909 66.96 
L 238.681636 66.96 
L 238.833818 369.36 
L 238.884545 369.36 
L 239.036727 66.96 
L 240.051273 66.96 
L 240.102 369.36 
L 240.152727 66.96 
L 240.457091 66.96 
L 240.507818 369.36 
L 240.558545 218.16 
L 240.609273 66.96 
L 240.66 369.36 
L 240.710727 66.96 
L 241.218 66.96 
L 241.268727 369.36 
L 241.319455 66.96 
L 241.471636 66.96 
L 241.522364 369.36 
L 241.573091 66.96 
L 241.725273 66.96 
L 241.776 369.36 
L 241.826727 66.96 
L 242.181818 66.96 
L 242.232545 369.36 
L 242.283273 66.96 
L 242.587636 66.96 
L 242.638364 369.36 
L 242.689091 66.96 
L 242.739818 66.96 
L 242.790545 369.36 
L 242.841273 66.96 
L 243.602182 66.96 
L 243.703636 369.36 
L 243.805091 66.96 
L 243.957273 369.36 
L 244.109455 66.96 
L 244.210909 66.96 
L 244.261636 369.36 
L 244.312364 66.96 
L 244.363091 66.96 
L 244.515273 369.36 
L 244.667455 66.96 
L 245.580545 66.96 
L 245.631273 369.36 
L 245.682 66.96 
L 245.732727 66.96 
L 245.783455 369.36 
L 245.834182 66.96 
L 246.595091 66.96 
L 246.747273 369.36 
L 246.848727 66.96 
L 246.899455 369.36 
L 246.950182 66.96 
L 247.000909 66.96 
L 247.051636 369.36 
L 247.102364 66.96 
L 247.305273 66.96 
L 247.356 369.36 
L 247.406727 66.96 
L 247.609636 66.96 
L 247.761818 369.36 
L 247.914 66.96 
L 247.964727 369.36 
L 248.015455 66.96 
L 248.116909 66.96 
L 248.167636 369.36 
L 248.218364 66.96 
L 248.269091 66.96 
L 248.319818 369.36 
L 248.370545 66.96 
L 248.928545 66.96 
L 249.03 369.36 
L 249.182182 66.96 
L 250.399636 66.96 
L 250.450364 369.36 
L 250.501091 66.96 
L 250.602545 66.96 
L 250.653273 369.36 
L 250.704 66.96 
L 250.906909 66.96 
L 251.008364 369.36 
L 251.160545 66.96 
L 251.211273 66.96 
L 251.262 369.36 
L 251.312727 66.96 
L 251.515636 66.96 
L 251.566364 369.36 
L 251.617091 66.96 
L 252.733091 66.96 
L 252.783818 369.36 
L 252.834545 66.96 
L 252.986727 66.96 
L 253.138909 369.36 
L 253.189636 369.36 
L 253.341818 66.96 
L 254.001273 66.96 
L 254.052 369.36 
L 254.102727 66.96 
L 254.914364 66.96 
L 255.066545 369.36 
L 255.218727 66.96 
L 255.523091 66.96 
L 255.573818 369.36 
L 255.624545 66.96 
L 256.233273 66.96 
L 256.284 369.36 
L 256.334727 66.96 
L 257.095636 66.96 
L 257.146364 369.36 
L 257.197091 66.96 
L 258.414545 66.96 
L 258.465273 369.36 
L 258.516 66.96 
L 258.871091 66.96 
L 258.972545 369.36 
L 259.124727 66.96 
L 259.327636 66.96 
L 259.378364 369.36 
L 259.429091 66.96 
L 259.479818 66.96 
L 259.530545 369.36 
L 259.581273 66.96 
L 259.936364 66.96 
L 259.987091 369.36 
L 260.037818 66.96 
L 260.139273 66.96 
L 260.19 369.36 
L 260.240727 66.96 
L 260.291455 66.96 
L 260.342182 369.36 
L 260.392909 66.96 
L 261.103091 66.96 
L 261.204545 369.36 
L 261.356727 66.96 
L 261.407455 369.36 
L 261.458182 66.96 
L 262.777091 66.96 
L 262.827818 369.36 
L 262.878545 66.96 
L 263.335091 66.96 
L 263.385818 369.36 
L 263.436545 66.96 
L 263.487273 66.96 
L 263.538 369.36 
L 263.588727 66.96 
L 264.197455 66.96 
L 264.248182 369.36 
L 264.298909 66.96 
L 264.958364 66.96 
L 265.009091 369.36 
L 265.059818 66.96 
L 265.313455 66.96 
L 265.364182 369.36 
L 265.414909 66.96 
L 265.922182 66.96 
L 265.972909 369.36 
L 266.023636 66.96 
L 266.175818 66.96 
L 266.226545 369.36 
L 266.277273 66.96 
L 267.038182 66.96 
L 267.088909 369.36 
L 267.139636 66.96 
L 267.849818 66.96 
L 267.900545 369.36 
L 267.951273 66.96 
L 268.002 66.96 
L 268.052727 369.36 
L 268.103455 66.96 
L 268.154182 66.96 
L 268.204909 369.36 
L 268.255636 66.96 
L 268.610727 66.96 
L 268.661455 369.36 
L 268.712182 66.96 
L 269.270182 66.96 
L 269.320909 369.36 
L 269.371636 66.96 
L 269.676 66.96 
L 269.726727 369.36 
L 269.777455 66.96 
L 270.081818 66.96 
L 270.132545 369.36 
L 270.183273 66.96 
L 271.502182 66.96 
L 271.552909 369.36 
L 271.603636 66.96 
L 271.654364 66.96 
L 271.705091 369.36 
L 271.755818 66.96 
L 272.871818 66.96 
L 272.922545 369.36 
L 272.973273 66.96 
L 273.024 66.96 
L 273.074727 369.36 
L 273.125455 66.96 
L 273.480545 66.96 
L 273.582 369.36 
L 273.734182 66.96 
L 273.987818 66.96 
L 274.038545 369.36 
L 274.089273 66.96 
L 274.14 66.96 
L 274.190727 369.36 
L 274.241455 66.96 
L 275.205273 66.96 
L 275.357455 369.36 
L 275.509636 66.96 
L 276.372 66.96 
L 276.422727 369.36 
L 276.473455 66.96 
L 276.524182 66.96 
L 276.574909 369.36 
L 276.625636 66.96 
L 277.234364 66.96 
L 277.285091 369.36 
L 277.335818 66.96 
L 279.517091 66.96 
L 279.567818 369.36 
L 279.618545 66.96 
L 280.633091 66.96 
L 280.683818 369.36 
L 280.734545 66.96 
L 282.053455 66.96 
L 282.104182 369.36 
L 282.154909 66.96 
L 282.915818 66.96 
L 282.966545 369.36 
L 283.017273 66.96 
L 283.524545 66.96 
L 283.575273 369.36 
L 283.626 66.96 
L 285.452182 66.96 
L 285.502909 369.36 
L 285.553636 66.96 
L 285.604364 66.96 
L 285.655091 369.36 
L 285.705818 66.96 
L 286.060909 66.96 
L 286.111636 369.36 
L 286.162364 66.96 
L 286.872545 66.96 
L 286.923273 369.36 
L 286.974 66.96 
L 288.191455 66.96 
L 288.242182 369.36 
L 288.292909 66.96 
L 288.343636 66.96 
L 288.394364 369.36 
L 288.445091 66.96 
L 289.764 66.96 
L 289.865455 369.36 
L 290.017636 66.96 
L 291.894545 66.96 
L 291.945273 369.36 
L 291.996 66.96 
L 293.517818 66.96 
L 293.568545 369.36 
L 293.619273 66.96 
L 294.887455 66.96 
L 294.938182 369.36 
L 294.988909 66.96 
L 295.394727 66.96 
L 295.445455 369.36 
L 295.496182 66.96 
L 296.155636 66.96 
L 296.206364 369.36 
L 296.257091 66.96 
L 298.996364 66.96 
L 299.047091 369.36 
L 299.097818 66.96 
L 299.199273 66.96 
L 299.25 369.36 
L 299.300727 66.96 
L 300.163091 66.96 
L 300.213818 369.36 
L 300.264545 66.96 
L 302.953091 66.96 
L 303.003818 369.36 
L 303.054545 66.96 
L 303.612545 66.96 
L 303.663273 369.36 
L 303.714 66.96 
L 303.916909 66.96 
L 303.967636 369.36 
L 304.018364 66.96 
L 304.728545 66.96 
L 304.779273 369.36 
L 304.83 66.96 
L 304.931455 66.96 
L 304.982182 369.36 
L 305.032909 66.96 
L 306.148909 66.96 
L 306.199636 369.36 
L 306.250364 66.96 
L 308.380909 66.96 
L 308.431636 369.36 
L 308.482364 66.96 
L 309.446182 66.96 
L 309.496909 369.36 
L 309.547636 66.96 
L 310.207091 66.96 
L 310.257818 369.36 
L 310.308545 66.96 
L 310.968 66.96 
L 311.018727 369.36 
L 311.069455 66.96 
L 311.576727 66.96 
L 311.627455 369.36 
L 311.678182 66.96 
L 315.685636 66.96 
L 315.736364 369.36 
L 315.787091 66.96 
L 316.142182 66.96 
L 316.294364 369.36 
L 316.446545 66.96 
L 317.613273 66.96 
L 317.714727 369.36 
L 317.866909 66.96 
L 317.968364 66.96 
L 318.019091 369.36 
L 318.069818 66.96 
L 320.961273 66.96 
L 321.012 369.36 
L 321.062727 66.96 
L 321.113455 66.96 
L 321.164182 369.36 
L 321.214909 66.96 
L 321.468545 66.96 
L 321.620727 369.36 
L 321.671455 369.36 
L 321.823636 66.96 
L 324.715091 66.96 
L 324.765818 369.36 
L 324.816545 66.96 
L 325.425273 66.96 
L 325.526727 369.36 
L 325.678909 66.96 
L 329.94 66.96 
L 329.990727 369.36 
L 330.041455 66.96 
L 330.599455 66.96 
L 330.650182 369.36 
L 330.700909 66.96 
L 333.085091 66.96 
L 333.135818 369.36 
L 333.186545 66.96 
L 341.049273 66.96 
L 341.1 369.36 
L 341.150727 66.96 
L 342.875455 66.96 
L 342.926182 369.36 
L 342.976909 66.96 
L 347.035091 66.96 
L 347.085818 369.36 
L 347.136545 66.96 
L 347.491636 66.96 
L 347.542364 369.36 
L 347.593091 66.96 
L 347.948182 66.96 
L 347.998909 369.36 
L 348.049636 66.96 
L 348.912 66.96 
L 348.962727 369.36 
L 349.013455 66.96 
L 351.803455 66.96 
L 351.854182 369.36 
L 351.904909 66.96 
L 352.513636 66.96 
L 352.564364 369.36 
L 352.615091 66.96 
L 352.868727 66.96 
L 352.919455 369.36 
L 352.970182 66.96 
L 353.071636 66.96 
L 353.122364 369.36 
L 353.173091 66.96 
L 356.571818 66.96 
L 356.622545 369.36 
L 356.673273 66.96 
L 358.956 66.96 
L 359.006727 369.36 
L 359.057455 66.96 
L 361.289455 66.96 
L 361.340182 369.36 
L 361.390909 66.96 
L 362.811273 66.96 
L 362.862 369.36 
L 362.912727 66.96 
L 363.825818 66.96 
L 363.876545 369.36 
L 363.927273 66.96 
L 365.043273 66.96 
L 365.094 369.36 
L 365.144727 66.96 
L 369.710182 66.96 
L 369.760909 369.36 
L 369.811636 66.96 
L 371.181273 66.96 
L 371.232 369.36 
L 371.282727 66.96 
L 374.884364 66.96 
L 374.935091 369.36 
L 374.985818 66.96 
L 379.957091 66.96 
L 380.007818 369.36 
L 380.058545 66.96 
L 381.732545 66.96 
L 381.783273 369.36 
L 381.834 66.96 
L 385.232727 66.96 
L 385.283455 369.36 
L 385.334182 66.96 
L 391.624364 66.96 
L 391.675091 369.36 
L 391.725818 66.96 
L 392.791091 66.96 
L 392.841818 369.36 
L 392.892545 66.96 
L 394.059273 66.96 
L 394.11 369.36 
L 394.160727 66.96 
L 395.124545 66.96 
L 395.175273 369.36 
L 395.226 66.96 
L 396.9 66.96 
L 396.950727 369.36 
L 397.001455 66.96 
L 399.69 66.96 
L 399.740727 369.36 
L 399.791455 66.96 
L 405.980182 66.96 
L 406.030909 369.36 
L 406.081636 66.96 
L 415.263273 66.96 
L 415.314 369.36 
L 415.364727 66.96 
L 415.669091 66.96 
L 415.719818 369.36 
L 415.770545 66.96 
L 417.495273 66.96 
L 417.546 369.36 
L 417.596727 66.96 
L 418.256182 66.96 
L 418.306909 369.36 
L 418.357636 66.96 
L 419.980909 66.96 
L 420.031636 369.36 
L 420.082364 66.96 
L 424.242 66.96 
L 424.292727 369.36 
L 424.343455 66.96 
L 424.546364 66.96 
L 424.597091 369.36 
L 424.647818 66.96 
L 431.597455 66.96 
L 431.648182 369.36 
L 431.698909 66.96 
L 439.663091 66.96 
L 439.713818 369.36 
L 439.764545 66.96 
L 440.018182 66.96 
L 440.068909 369.36 
L 440.119636 66.96 
L 441.083455 66.96 
L 441.134182 369.36 
L 441.184909 66.96 
L 446.663455 66.96 
L 446.714182 369.36 
L 446.764909 66.96 
L 447.170727 66.96 
L 447.221455 369.36 
L 447.272182 66.96 
L 447.779455 66.96 
L 447.830182 369.36 
L 447.880909 66.96 
L 450.417273 66.96 
L 450.468 369.36 
L 450.518727 66.96 
L 457.975636 66.96 
L 458.026364 369.36 
L 458.077091 66.96 
L 462.642545 66.96 
L 462.744 369.36 
L 462.896182 66.96 
L 463.961455 66.96 
L 464.012182 369.36 
L 464.062909 66.96 
L 465.128182 66.96 
L 465.178909 369.36 
L 465.229636 66.96 
L 474.309818 66.96 
L 474.360545 369.36 
L 474.411273 66.96 
L 475.425818 66.96 
L 475.476545 369.36 
L 475.527273 66.96 
L 483.542182 66.96 
L 483.592909 369.36 
L 483.643636 66.96 
L 485.926364 66.96 
L 485.977091 369.36 
L 486.027818 66.96 
L 491.861455 66.96 
L 491.912182 369.36 
L 491.962909 66.96 
L 493.078909 66.96 
L 493.129636 369.36 
L 493.180364 66.96 
L 494.55 66.96 
L 494.600727 369.36 
L 494.651455 66.96 
L 504.238909 66.96 
L 504.289636 369.36 
L 504.340364 66.96 
L 505.050545 66.96 
L 505.101273 369.36 
L 505.152 66.96 
L 506.673818 66.96 
L 506.724545 369.36 
L 506.775273 66.96 
L 509.311636 66.96 
L 509.362364 369.36 
L 509.413091 66.96 
L 513.724909 66.96 
L 513.775636 369.36 
L 513.826364 66.96 
L 514.232182 66.96 
L 514.282909 369.36 
L 514.333636 66.96 
L 517.072909 66.96 
L 517.123636 369.36 
L 517.174364 66.96 
L 523.109455 66.96 
L 523.160182 369.36 
L 523.210909 66.96 
L 538.327636 66.96 
L 538.378364 369.36 
L 538.429091 66.96 
L 539.595818 66.96 
L 539.646545 369.36 
L 539.697273 66.96 
L 542.284364 66.96 
L 542.335091 369.36 
L 542.385818 66.96 
L 554.864727 66.96 
L 554.915455 369.36 
L 554.966182 66.96 
L 555.777818 66.96 
L 555.828545 369.36 
L 555.879273 66.96 
L 556.234364 66.96 
L 556.285091 369.36 
L 556.335818 66.96 
L 559.988182 66.96 
L 560.038909 369.36 
L 560.089636 66.96 
L 565.720364 66.96 
L 565.771091 369.36 
L 565.821818 66.96 
L 566.227636 66.96 
L 566.278364 369.36 
L 566.329091 66.96 
L 568.053818 66.96 
L 568.104545 369.36 
L 568.155273 66.96 
L 570.894545 66.96 
L 570.945273 369.36 
L 570.996 66.96 
L 576.829636 66.96 
L 576.880364 369.36 
L 576.931091 66.96 
L 577.134 66.96 
L 577.184727 369.36 
L 577.235455 66.96 
L 578.909455 66.96 
L 578.960182 369.36 
L 579.010909 66.96 
L 582.612545 66.96 
L 582.663273 369.36 
L 582.714 66.96 
L 584.590909 66.96 
L 584.641636 369.36 
L 584.692364 66.96 
L 589.257818 66.96 
L 589.308545 369.36 
L 589.359273 66.96 
L 589.663636 66.96 
L 589.714364 369.36 
L 589.765091 66.96 
L 595.953818 66.96 
L 596.004545 369.36 
L 596.055273 66.96 
L 596.106 66.96 
L 596.156727 369.36 
L 596.207455 66.96 
L 597.729273 66.96 
L 597.830727 369.36 
L 597.982909 66.96 
L 598.591636 66.96 
L 598.642364 369.36 
L 598.693091 66.96 
L 602.091818 66.96 
L 602.142545 369.36 
L 602.193273 66.96 
L 605.845636 66.96 
L 605.896364 369.36 
L 605.947091 66.96 
L 606.708 66.96 
L 606.758727 369.36 
L 606.809455 66.96 
L 612.592364 66.96 
L 612.643091 369.36 
L 612.693818 66.96 
L 612.998182 66.96 
L 613.048909 369.36 
L 613.099636 66.96 
L 613.606909 66.96 
L 613.657636 369.36 
L 613.708364 66.96 
L 614.418545 66.96 
L 614.469273 369.36 
L 614.52 66.96 
L 616.143273 66.96 
L 616.194 369.36 
L 616.244727 66.96 
L 618.831818 66.96 
L 618.882545 369.36 
L 618.933273 66.96 
L 621.317455 66.96 
L 621.368182 369.36 
L 621.418909 66.96 
L 622.585636 66.96 
L 622.585636 66.96 
" clip-path="url(#pf0bde413d4)" style="fill: none; stroke: #1f77b4; stroke-opacity: 0.3; stroke-width: 1.5; stroke-linecap: square"/>
   </g>
   <g id="line2d_32">
    <path d="M 120.436364 369.36 
L 147.829091 369.36 
L 148.032 363.312 
L 148.691455 363.312 
L 148.843636 360.288 
L 149.908909 360.288 
L 150.111818 354.24 
L 150.517636 354.24 
L 150.669818 351.216 
L 150.771273 351.216 
L 150.923455 348.192 
L 151.227818 348.192 
L 151.430727 342.144 
L 151.532182 342.144 
L 151.684364 339.12 
L 152.090182 339.12 
L 152.242364 336.096 
L 152.901818 336.096 
L 153.104727 342.144 
L 153.256909 342.144 
L 153.409091 339.12 
L 153.764182 339.12 
L 153.916364 342.144 
L 154.220727 342.144 
L 154.372909 339.12 
L 154.981636 339.12 
L 155.184545 345.168 
L 155.590364 345.168 
L 155.742545 348.192 
L 155.844 348.192 
L 155.894727 351.216 
L 155.945455 348.192 
L 156.300545 348.192 
L 156.503455 354.24 
L 156.604909 354.24 
L 156.757091 357.264 
L 157.416545 357.264 
L 157.568727 354.24 
L 157.923818 354.24 
L 158.177455 345.168 
L 158.278909 345.168 
L 158.583273 333.072 
L 158.735455 333.072 
L 159.039818 320.976 
L 159.141273 320.976 
L 159.293455 314.928 
L 159.344182 317.952 
L 159.394909 314.928 
L 159.547091 314.928 
L 159.851455 302.832 
L 160.003636 302.832 
L 160.155818 299.808 
L 160.308 299.808 
L 160.460182 296.784 
L 160.815273 296.784 
L 160.967455 293.76 
L 161.119636 296.784 
L 161.322545 290.736 
L 161.373273 290.736 
L 161.576182 284.688 
L 161.829818 284.688 
L 162.235636 266.544 
L 162.387818 269.568 
L 162.489273 269.568 
L 162.590727 272.592 
L 162.742909 269.568 
L 162.793636 269.568 
L 162.996545 260.496 
L 163.250182 269.568 
L 163.402364 269.568 
L 163.554545 272.592 
L 163.757455 272.592 
L 163.909636 269.568 
L 164.061818 269.568 
L 164.214 272.592 
L 164.264727 272.592 
L 164.366182 275.616 
L 164.569091 269.568 
L 164.721273 269.568 
L 164.974909 278.64 
L 165.076364 275.616 
L 165.127091 278.64 
L 165.177818 275.616 
L 165.33 272.592 
L 165.380727 272.592 
L 165.482182 275.616 
L 165.685091 269.568 
L 165.837273 269.568 
L 166.090909 260.496 
L 166.192364 260.496 
L 166.344545 263.52 
L 166.395273 263.52 
L 166.446 260.496 
L 166.496727 263.52 
L 166.648909 266.544 
L 166.902545 257.472 
L 167.105455 263.52 
L 167.156182 263.52 
L 167.206909 260.496 
L 167.257636 263.52 
L 167.308364 263.52 
L 167.511273 257.472 
L 167.663455 257.472 
L 167.815636 260.496 
L 167.866364 260.496 
L 168.069273 266.544 
L 168.12 266.544 
L 168.272182 263.52 
L 168.373636 263.52 
L 168.424364 260.496 
L 168.475091 263.52 
L 168.525818 263.52 
L 168.728727 269.568 
L 169.083818 269.568 
L 169.185273 272.592 
L 169.337455 269.568 
L 169.489636 269.568 
L 169.540364 272.592 
L 169.591091 269.568 
L 169.641818 269.568 
L 169.794 266.544 
L 169.844727 266.544 
L 170.199818 251.424 
L 170.301273 254.448 
L 170.707091 236.304 
L 170.757818 236.304 
L 170.91 227.232 
L 170.960727 230.256 
L 171.163636 236.304 
L 171.366545 230.256 
L 171.569455 236.304 
L 171.823091 236.304 
L 171.924545 239.328 
L 172.127455 233.28 
L 172.279636 233.28 
L 172.330364 230.256 
L 172.381091 233.28 
L 172.533273 233.28 
L 172.736182 227.232 
L 172.837636 227.232 
L 172.989818 221.184 
L 173.091273 224.208 
L 173.344909 215.136 
L 173.395636 215.136 
L 173.547818 212.112 
L 173.750727 212.112 
L 173.953636 206.064 
L 174.055091 209.088 
L 174.258 203.04 
L 174.308727 203.04 
L 174.460909 200.016 
L 174.663818 200.016 
L 174.765273 203.04 
L 174.816 200.016 
L 174.866727 203.04 
L 174.917455 203.04 
L 175.018909 206.064 
L 175.069636 203.04 
L 175.120364 206.064 
L 175.272545 212.112 
L 175.424727 209.088 
L 175.627636 215.136 
L 175.678364 215.136 
L 175.729091 212.112 
L 175.779818 215.136 
L 175.932 215.136 
L 176.084182 218.16 
L 176.185636 218.16 
L 176.236364 215.136 
L 176.287091 218.16 
L 176.337818 221.184 
L 176.388545 218.16 
L 176.642182 209.088 
L 176.743636 209.088 
L 176.794364 206.064 
L 176.845091 209.088 
L 176.895818 209.088 
L 176.997273 206.064 
L 177.250909 215.136 
L 177.352364 215.136 
L 177.403091 218.16 
L 177.453818 215.136 
L 177.758182 215.136 
L 177.910364 212.112 
L 178.062545 215.136 
L 178.265455 206.064 
L 178.417636 212.112 
L 178.569818 209.088 
L 178.620545 209.088 
L 178.823455 203.04 
L 178.874182 206.064 
L 178.924909 203.04 
L 179.127818 203.04 
L 179.178545 206.064 
L 179.229273 203.04 
L 179.330727 200.016 
L 179.482909 203.04 
L 179.533636 203.04 
L 179.736545 196.992 
L 179.787273 196.992 
L 179.888727 200.016 
L 180.142364 190.944 
L 180.193091 190.944 
L 180.294545 184.896 
L 180.345273 187.92 
L 180.497455 193.968 
L 180.598909 190.944 
L 180.751091 193.968 
L 180.801818 193.968 
L 180.954 190.944 
L 181.004727 190.944 
L 181.207636 181.872 
L 181.309091 184.896 
L 181.410545 178.848 
L 181.461273 181.872 
L 181.664182 181.872 
L 181.917818 172.8 
L 182.019273 172.8 
L 182.120727 166.752 
L 182.171455 169.776 
L 182.222182 169.776 
L 182.425091 163.728 
L 182.577273 163.728 
L 182.780182 169.776 
L 182.932364 169.776 
L 183.135273 163.728 
L 183.388909 172.8 
L 183.439636 172.8 
L 183.642545 181.872 
L 183.693273 178.848 
L 183.744 181.872 
L 183.794727 181.872 
L 183.997636 175.824 
L 184.149818 175.824 
L 184.302 178.848 
L 184.352727 178.848 
L 184.504909 184.896 
L 184.555636 181.872 
L 184.606364 184.896 
L 184.809273 190.944 
L 185.012182 184.896 
L 185.215091 190.944 
L 185.265818 190.944 
L 185.418 193.968 
L 185.468727 193.968 
L 185.620909 196.992 
L 185.722364 196.992 
L 185.976 206.064 
L 186.077455 206.064 
L 186.178909 212.112 
L 186.229636 209.088 
L 186.280364 209.088 
L 186.381818 206.064 
L 186.635455 218.16 
L 186.787636 215.136 
L 186.838364 215.136 
L 186.939818 218.16 
L 187.041273 215.136 
L 187.193455 218.16 
L 187.244182 218.16 
L 187.294909 215.136 
L 187.345636 218.16 
L 187.396364 221.184 
L 187.447091 218.16 
L 187.599273 218.16 
L 187.751455 221.184 
L 187.954364 215.136 
L 188.005091 215.136 
L 188.208 221.184 
L 188.664545 200.016 
L 188.766 200.016 
L 188.867455 196.992 
L 189.070364 203.04 
L 189.121091 203.04 
L 189.171818 206.064 
L 189.222545 203.04 
L 189.374727 196.992 
L 189.476182 200.016 
L 189.628364 196.992 
L 189.679091 196.992 
L 189.780545 193.968 
L 190.084909 206.064 
L 190.287818 206.064 
L 190.389273 203.04 
L 190.44 206.064 
L 190.490727 203.04 
L 190.541455 203.04 
L 190.693636 196.992 
L 190.795091 200.016 
L 191.048727 190.944 
L 191.150182 190.944 
L 191.302364 184.896 
L 191.454545 187.92 
L 191.758909 175.824 
L 191.911091 175.824 
L 191.961818 172.8 
L 192.012545 175.824 
L 192.063273 175.824 
L 192.114 178.848 
L 192.164727 175.824 
L 192.266182 175.824 
L 192.316909 172.8 
L 192.367636 175.824 
L 192.469091 175.824 
L 192.672 184.896 
L 192.925636 175.824 
L 193.027091 181.872 
L 193.077818 178.848 
L 193.280727 169.776 
L 193.635818 184.896 
L 193.737273 181.872 
L 193.940182 190.944 
L 194.041636 184.896 
L 194.092364 187.92 
L 194.346 187.92 
L 194.498182 190.944 
L 194.650364 184.896 
L 194.802545 187.92 
L 195.005455 181.872 
L 195.056182 181.872 
L 195.259091 175.824 
L 195.411273 175.824 
L 195.664909 166.752 
L 195.715636 166.752 
L 195.867818 169.776 
L 195.969273 169.776 
L 196.121455 166.752 
L 196.172182 166.752 
L 196.375091 175.824 
L 196.527273 172.8 
L 196.578 175.824 
L 196.628727 172.8 
L 196.679455 172.8 
L 196.882364 178.848 
L 196.983818 178.848 
L 197.136 181.872 
L 197.288182 178.848 
L 197.338909 178.848 
L 197.389636 181.872 
L 197.440364 178.848 
L 197.795455 160.704 
L 197.998364 166.752 
L 198.049091 166.752 
L 198.201273 163.728 
L 198.353455 163.728 
L 198.404182 160.704 
L 198.454909 163.728 
L 198.556364 163.728 
L 198.657818 157.68 
L 198.708545 160.704 
L 198.81 166.752 
L 198.860727 163.728 
L 198.911455 163.728 
L 199.063636 160.704 
L 199.114364 160.704 
L 199.165091 157.68 
L 199.215818 160.704 
L 199.418727 160.704 
L 199.621636 154.656 
L 199.723091 157.68 
L 199.875273 154.656 
L 199.976727 160.704 
L 200.027455 157.68 
L 200.179636 157.68 
L 200.281091 154.656 
L 200.433273 157.68 
L 200.737636 157.68 
L 200.788364 160.704 
L 200.839091 157.68 
L 200.940545 151.632 
L 200.991273 154.656 
L 201.244909 154.656 
L 201.498545 145.584 
L 201.6 145.584 
L 201.802909 139.536 
L 201.904364 139.536 
L 202.005818 136.512 
L 202.056545 139.536 
L 202.107273 136.512 
L 202.208727 133.488 
L 202.411636 139.536 
L 202.513091 136.512 
L 202.817455 148.608 
L 202.868182 148.608 
L 203.020364 145.584 
L 203.071091 145.584 
L 203.223273 142.56 
L 203.375455 145.584 
L 203.527636 145.584 
L 203.679818 142.56 
L 203.730545 145.584 
L 203.781273 142.56 
L 203.933455 136.512 
L 204.237818 151.632 
L 204.39 148.608 
L 204.491455 148.608 
L 204.643636 151.632 
L 204.694364 151.632 
L 204.897273 145.584 
L 204.998727 145.584 
L 205.049455 142.56 
L 205.100182 145.584 
L 205.150909 145.584 
L 205.303091 142.56 
L 205.353818 142.56 
L 205.455273 139.536 
L 205.607455 142.56 
L 205.810364 142.56 
L 205.911818 139.536 
L 206.064 142.56 
L 206.266909 142.56 
L 206.419091 145.584 
L 206.571273 145.584 
L 206.774182 151.632 
L 207.027818 151.632 
L 207.078545 154.656 
L 207.129273 151.632 
L 207.281455 151.632 
L 207.484364 145.584 
L 207.636545 148.608 
L 207.687273 148.608 
L 207.788727 151.632 
L 207.991636 145.584 
L 208.093091 145.584 
L 208.245273 148.608 
L 208.296 148.608 
L 208.448182 145.584 
L 208.549636 145.584 
L 208.803273 136.512 
L 208.904727 136.512 
L 209.006182 139.536 
L 209.361273 124.416 
L 209.412 124.416 
L 209.614909 118.368 
L 209.665636 118.368 
L 209.817818 121.392 
L 210.020727 121.392 
L 210.223636 115.344 
L 210.426545 121.392 
L 210.477273 121.392 
L 210.680182 127.44 
L 211.086 127.44 
L 211.238182 124.416 
L 211.441091 124.416 
L 211.644 133.488 
L 211.694727 130.464 
L 211.745455 133.488 
L 211.796182 136.512 
L 211.846909 133.488 
L 212.100545 133.488 
L 212.151273 130.464 
L 212.202 133.488 
L 212.557091 133.488 
L 212.709273 127.44 
L 212.76 130.464 
L 212.810727 127.44 
L 212.912182 124.416 
L 213.064364 130.464 
L 213.267273 124.416 
L 213.419455 127.44 
L 213.470182 127.44 
L 213.723818 136.512 
L 213.977455 136.512 
L 214.129636 133.488 
L 214.281818 133.488 
L 214.535455 142.56 
L 215.296364 142.56 
L 215.448545 139.536 
L 215.55 145.584 
L 215.600727 142.56 
L 215.702182 142.56 
L 215.854364 139.536 
L 216.006545 142.56 
L 216.057273 142.56 
L 216.209455 139.536 
L 216.412364 139.536 
L 216.716727 127.44 
L 216.818182 127.44 
L 216.868909 124.416 
L 216.919636 127.44 
L 217.224 127.44 
L 217.325455 124.416 
L 217.477636 127.44 
L 217.528364 127.44 
L 217.731273 133.488 
L 217.984909 133.488 
L 218.137091 130.464 
L 218.187818 130.464 
L 218.34 136.512 
L 218.492182 133.488 
L 218.593636 133.488 
L 218.796545 127.44 
L 218.948727 127.44 
L 219.151636 133.488 
L 219.253091 133.488 
L 219.506727 124.416 
L 219.557455 124.416 
L 219.709636 127.44 
L 219.811091 127.44 
L 219.963273 124.416 
L 220.064727 124.416 
L 220.267636 130.464 
L 220.318364 130.464 
L 220.419818 133.488 
L 220.724182 121.392 
L 220.774909 121.392 
L 220.927091 127.44 
L 221.079273 124.416 
L 221.13 124.416 
L 221.383636 133.488 
L 221.941636 133.488 
L 222.093818 130.464 
L 222.195273 130.464 
L 222.347455 133.488 
L 222.398182 133.488 
L 222.448909 130.464 
L 222.499636 133.488 
L 222.601091 133.488 
L 222.651818 130.464 
L 222.702545 133.488 
L 222.753273 136.512 
L 222.804 133.488 
L 222.854727 133.488 
L 223.006909 130.464 
L 223.108364 130.464 
L 223.209818 127.44 
L 223.260545 130.464 
L 223.311273 127.44 
L 223.463455 124.416 
L 223.615636 127.44 
L 223.767818 124.416 
L 223.869273 124.416 
L 224.021455 127.44 
L 224.224364 121.392 
L 224.275091 121.392 
L 224.478 127.44 
L 224.579455 127.44 
L 224.782364 121.392 
L 224.985273 127.44 
L 225.137455 127.44 
L 225.340364 121.392 
L 225.391091 121.392 
L 225.543273 118.368 
L 225.847636 118.368 
L 226.050545 112.32 
L 226.101273 112.32 
L 226.253455 115.344 
L 226.354909 115.344 
L 226.557818 109.296 
L 226.659273 109.296 
L 226.862182 115.344 
L 226.912909 115.344 
L 227.065091 112.32 
L 227.115818 112.32 
L 227.268 115.344 
L 227.420182 112.32 
L 227.521636 112.32 
L 227.673818 109.296 
L 227.724545 112.32 
L 227.775273 109.296 
L 227.826 106.272 
L 227.876727 109.296 
L 228.079636 115.344 
L 228.231818 115.344 
L 228.282545 118.368 
L 228.333273 115.344 
L 228.536182 115.344 
L 228.637636 112.32 
L 228.840545 118.368 
L 228.942 118.368 
L 229.043455 115.344 
L 229.195636 118.368 
L 229.347818 118.368 
L 229.550727 112.32 
L 229.702909 115.344 
L 229.804364 115.344 
L 229.905818 118.368 
L 230.058 115.344 
L 230.159455 115.344 
L 230.362364 121.392 
L 230.768182 121.392 
L 230.920364 124.416 
L 230.971091 124.416 
L 231.174 130.464 
L 231.326182 127.44 
L 231.376909 127.44 
L 231.630545 136.512 
L 231.681273 136.512 
L 231.732 139.536 
L 231.782727 136.512 
L 231.833455 136.512 
L 231.985636 133.488 
L 232.188545 133.488 
L 232.29 130.464 
L 232.442182 133.488 
L 232.594364 133.488 
L 232.746545 136.512 
L 232.898727 133.488 
L 232.949455 133.488 
L 233.152364 127.44 
L 233.304545 127.44 
L 233.456727 124.416 
L 233.710364 124.416 
L 233.913273 118.368 
L 234.065455 118.368 
L 234.116182 121.392 
L 234.166909 118.368 
L 234.623455 118.368 
L 234.674182 115.344 
L 234.724909 118.368 
L 234.826364 118.368 
L 234.877091 121.392 
L 234.927818 118.368 
L 235.08 115.344 
L 235.130727 115.344 
L 235.232182 118.368 
L 235.384364 112.32 
L 235.536545 115.344 
L 235.840909 115.344 
L 235.993091 112.32 
L 236.043818 115.344 
L 236.094545 112.32 
L 236.246727 109.296 
L 236.348182 109.296 
L 236.449636 115.344 
L 236.500364 112.32 
L 236.703273 106.272 
L 236.754 106.272 
L 236.906182 103.248 
L 237.261273 103.248 
L 237.362727 106.272 
L 237.514909 103.248 
L 237.819273 103.248 
L 237.971455 106.272 
L 238.123636 103.248 
L 238.377273 103.248 
L 238.529455 106.272 
L 238.580182 106.272 
L 238.935273 121.392 
L 239.138182 121.392 
L 239.290364 118.368 
L 239.746909 118.368 
L 239.949818 112.32 
L 240.102 112.32 
L 240.203455 115.344 
L 240.355636 112.32 
L 240.457091 112.32 
L 240.507818 109.296 
L 240.558545 112.32 
L 240.812182 116.856 
L 241.065818 116.856 
L 241.218 113.832 
L 241.268727 113.832 
L 241.370182 116.856 
L 241.522364 107.784 
L 241.573091 110.808 
L 241.776 110.808 
L 241.928182 113.832 
L 242.232545 113.832 
L 242.334 116.856 
L 242.486182 113.832 
L 242.638364 113.832 
L 242.739818 116.856 
L 242.790545 113.832 
L 242.841273 116.856 
L 242.892 116.856 
L 243.044182 113.832 
L 243.45 113.832 
L 243.602182 110.808 
L 243.703636 110.808 
L 243.805091 113.832 
L 244.008 107.784 
L 244.261636 107.784 
L 244.464545 113.832 
L 244.515273 113.832 
L 244.667455 116.856 
L 245.174727 116.856 
L 245.326909 113.832 
L 245.580545 113.832 
L 245.631273 110.808 
L 245.682 112.32 
L 245.732727 112.32 
L 245.783455 109.296 
L 245.834182 112.32 
L 246.341455 112.32 
L 246.493636 109.296 
L 246.595091 109.296 
L 246.645818 106.272 
L 246.696545 109.296 
L 246.747273 109.296 
L 246.848727 112.32 
L 246.899455 109.296 
L 246.950182 112.32 
L 247.051636 112.32 
L 247.203818 115.344 
L 247.305273 115.344 
L 247.356 112.32 
L 247.406727 115.344 
L 247.660364 115.344 
L 247.812545 118.368 
L 247.863273 118.368 
L 247.964727 115.344 
L 248.116909 118.368 
L 248.167636 118.368 
L 248.370545 124.416 
L 248.725636 124.416 
L 248.979273 115.344 
L 249.131455 118.368 
L 249.334364 118.368 
L 249.537273 112.32 
L 249.588 112.32 
L 249.740182 109.296 
L 250.450364 109.296 
L 250.602545 112.32 
L 250.653273 112.32 
L 250.704 115.344 
L 250.754727 112.32 
L 250.856182 112.32 
L 250.957636 109.296 
L 251.160545 115.344 
L 251.262 115.344 
L 251.414182 118.368 
L 251.566364 118.368 
L 251.718545 121.392 
L 251.921455 115.344 
L 251.972182 115.344 
L 252.175091 109.296 
L 252.428727 109.296 
L 252.580909 106.272 
L 252.733091 106.272 
L 252.885273 103.248 
L 253.138909 103.248 
L 253.240364 109.296 
L 253.291091 106.272 
L 253.392545 106.272 
L 253.544727 103.248 
L 254.102727 103.248 
L 254.254909 100.224 
L 254.965091 100.224 
L 255.168 106.272 
L 255.523091 106.272 
L 255.573818 103.248 
L 255.624545 106.272 
L 255.726 106.272 
L 255.878182 103.248 
L 256.030364 103.248 
L 256.233273 97.2 
L 256.284 97.2 
L 256.334727 100.224 
L 256.385455 97.2 
L 256.639091 97.2 
L 256.791273 94.176 
L 257.146364 94.176 
L 257.298545 97.2 
L 257.856545 97.2 
L 258.008727 94.176 
L 258.110182 94.176 
L 258.363818 85.104 
L 258.465273 85.104 
L 258.617455 88.128 
L 258.921818 88.128 
L 259.124727 94.176 
L 259.276909 91.152 
L 259.378364 91.152 
L 259.581273 97.2 
L 259.987091 97.2 
L 260.037818 100.224 
L 260.088545 97.2 
L 260.139273 97.2 
L 260.19 94.176 
L 260.240727 97.2 
L 260.342182 97.2 
L 260.494364 100.224 
L 260.646545 100.224 
L 260.798727 97.2 
L 261.153818 97.2 
L 261.356727 103.248 
L 261.407455 100.224 
L 261.458182 103.248 
L 262.219091 103.248 
L 262.371273 100.224 
L 262.827818 100.224 
L 262.98 103.248 
L 263.385818 103.248 
L 263.538 106.272 
L 263.994545 106.272 
L 264.197455 100.224 
L 264.248182 100.224 
L 264.400364 103.248 
L 264.451091 103.248 
L 264.654 97.2 
L 265.009091 97.2 
L 265.059818 100.224 
L 265.110545 97.2 
L 265.262727 97.2 
L 265.364182 94.176 
L 265.414909 97.2 
L 265.465636 94.176 
L 265.972909 94.176 
L 266.125091 97.2 
L 266.277273 97.2 
L 266.429455 94.176 
L 266.480182 94.176 
L 266.632364 91.152 
L 267.088909 91.152 
L 267.241091 94.176 
L 268.052727 94.176 
L 268.255636 100.224 
L 268.458545 100.224 
L 268.661455 94.176 
L 268.813636 97.2 
L 269.726727 97.2 
L 269.878909 100.224 
L 270.081818 100.224 
L 270.132545 97.2 
L 270.183273 100.224 
L 270.436909 100.224 
L 270.589091 97.2 
L 271.045636 97.2 
L 271.197818 94.176 
L 271.299273 94.176 
L 271.451455 91.152 
L 271.552909 91.152 
L 271.755818 97.2 
L 272.161636 97.2 
L 272.313818 94.176 
L 272.922545 94.176 
L 272.973273 97.2 
L 273.024 94.176 
L 273.074727 94.176 
L 273.125455 97.2 
L 273.176182 94.176 
L 273.277636 94.176 
L 273.429818 91.152 
L 273.531273 91.152 
L 273.734182 97.2 
L 273.886364 94.176 
L 274.038545 94.176 
L 274.241455 100.224 
L 274.393636 100.224 
L 274.545818 97.2 
L 274.799455 97.2 
L 274.951636 94.176 
L 275.205273 94.176 
L 275.256 91.152 
L 275.306727 94.176 
L 275.357455 94.176 
L 275.509636 97.2 
L 276.422727 97.2 
L 276.625636 103.248 
L 276.828545 97.2 
L 277.285091 97.2 
L 277.437273 100.224 
L 277.995273 100.224 
L 278.198182 94.176 
L 278.604 94.176 
L 278.806909 88.128 
L 279.111273 88.128 
L 279.314182 82.08 
L 279.567818 82.08 
L 279.72 85.104 
L 280.328727 85.104 
L 280.531636 79.056 
L 280.683818 79.056 
L 280.836 82.08 
L 281.495455 82.08 
L 281.698364 76.032 
L 282.104182 76.032 
L 282.256364 79.056 
L 282.357818 79.056 
L 282.51 76.032 
L 282.966545 76.032 
L 283.118727 79.056 
L 283.575273 79.056 
L 283.727455 82.08 
L 284.640545 82.08 
L 284.792727 79.056 
L 285.502909 79.056 
L 285.705818 85.104 
L 285.756545 85.104 
L 285.908727 82.08 
L 286.111636 82.08 
L 286.263818 85.104 
L 286.923273 85.104 
L 287.075455 88.128 
L 287.176909 88.128 
L 287.329091 85.104 
L 288.039273 85.104 
L 288.191455 82.08 
L 288.242182 82.08 
L 288.445091 88.128 
L 288.648 88.128 
L 288.800182 85.104 
L 289.814727 85.104 
L 290.017636 91.152 
L 290.575636 91.152 
L 290.778545 85.104 
L 291.184364 85.104 
L 291.336545 82.08 
L 291.945273 82.08 
L 291.996 85.104 
L 292.046727 82.08 
L 293.314909 82.08 
L 293.517818 76.032 
L 293.568545 76.032 
L 293.720727 79.056 
L 294.887455 79.056 
L 295.039636 76.032 
L 295.445455 76.032 
L 295.597636 79.056 
L 296.206364 79.056 
L 296.358545 82.08 
L 297.018 82.08 
L 297.170182 79.056 
L 298.641273 79.056 
L 298.793455 76.032 
L 299.047091 76.032 
L 299.199273 79.056 
L 299.25 79.056 
L 299.402182 82.08 
L 300.010909 82.08 
L 300.163091 79.056 
L 300.213818 79.056 
L 300.366 82.08 
L 300.518182 82.08 
L 300.670364 79.056 
L 301.279091 79.056 
L 301.431273 76.032 
L 303.003818 76.032 
L 303.156 79.056 
L 303.663273 79.056 
L 303.815455 82.08 
L 303.967636 82.08 
L 304.119818 85.104 
L 304.272 82.08 
L 304.322727 82.08 
L 304.474909 79.056 
L 304.779273 79.056 
L 304.931455 82.08 
L 304.982182 82.08 
L 305.134364 85.104 
L 305.286545 85.104 
L 305.438727 82.08 
L 306.199636 82.08 
L 306.351818 85.104 
L 308.076545 85.104 
L 308.228727 82.08 
L 308.431636 82.08 
L 308.583818 85.104 
L 308.736 85.104 
L 308.888182 82.08 
L 309.040364 82.08 
L 309.192545 79.056 
L 309.496909 79.056 
L 309.649091 82.08 
L 309.852 82.08 
L 310.004182 79.056 
L 310.054909 79.056 
L 310.207091 76.032 
L 310.257818 76.032 
L 310.41 79.056 
L 311.018727 79.056 
L 311.170909 82.08 
L 311.272364 82.08 
L 311.424545 79.056 
L 311.627455 79.056 
L 311.779636 82.08 
L 313.504364 82.08 
L 313.656545 79.056 
L 314.569636 79.056 
L 314.721818 76.032 
L 315.330545 76.032 
L 315.482727 73.008 
L 315.736364 73.008 
L 315.888545 76.032 
L 316.091455 76.032 
L 316.192909 73.008 
L 316.395818 79.056 
L 316.700182 79.056 
L 316.852364 76.032 
L 317.664 76.032 
L 317.866909 82.08 
L 318.019091 82.08 
L 318.171273 85.104 
L 320.809091 85.104 
L 320.961273 82.08 
L 321.012 82.08 
L 321.214909 88.128 
L 321.265636 88.128 
L 321.468545 82.08 
L 321.519273 82.08 
L 321.772909 91.152 
L 322.736727 91.152 
L 322.939636 85.104 
L 323.091818 85.104 
L 323.244 82.08 
L 324.765818 82.08 
L 324.918 85.104 
L 325.476 85.104 
L 325.678909 91.152 
L 326.084727 91.152 
L 326.287636 85.104 
L 326.592 85.104 
L 326.845636 76.032 
L 329.838545 76.032 
L 329.990727 73.008 
L 330.142909 76.032 
L 330.548727 76.032 
L 330.650182 69.984 
L 330.700909 73.008 
L 333.135818 73.008 
L 333.288 76.032 
L 335.063455 76.032 
L 335.215636 73.008 
L 335.722909 73.008 
L 335.875091 69.984 
L 338.208545 69.984 
L 338.360727 66.96 
L 341.1 66.96 
L 341.252182 69.984 
L 342.926182 69.984 
L 343.078364 73.008 
L 346.172727 73.008 
L 346.324909 69.984 
L 347.085818 69.984 
L 347.238 73.008 
L 347.542364 73.008 
L 347.694545 76.032 
L 348.962727 76.032 
L 349.114909 79.056 
L 351.854182 79.056 
L 352.006364 82.08 
L 352.158545 82.08 
L 352.310727 79.056 
L 352.564364 79.056 
L 352.615091 82.08 
L 352.665818 79.056 
L 352.919455 79.056 
L 353.071636 82.08 
L 353.122364 79.056 
L 353.173091 82.08 
L 354.035455 82.08 
L 354.187636 79.056 
L 356.622545 79.056 
L 356.774727 82.08 
L 356.926909 82.08 
L 357.079091 79.056 
L 357.637091 79.056 
L 357.789273 76.032 
L 357.992182 76.032 
L 358.144364 73.008 
L 358.195091 73.008 
L 358.347273 69.984 
L 359.006727 69.984 
L 359.158909 73.008 
L 361.340182 73.008 
L 361.492364 76.032 
L 361.695273 76.032 
L 361.847455 73.008 
L 362.862 73.008 
L 363.014182 76.032 
L 363.876545 76.032 
L 364.028727 79.056 
L 364.079455 79.056 
L 364.231636 76.032 
L 365.094 76.032 
L 365.246182 79.056 
L 366.412909 79.056 
L 366.565091 76.032 
L 367.934727 76.032 
L 368.086909 73.008 
L 368.949273 73.008 
L 369.101455 69.984 
L 369.760909 69.984 
L 369.913091 73.008 
L 370.166727 73.008 
L 370.318909 69.984 
L 371.232 69.984 
L 371.384182 73.008 
L 374.833636 73.008 
L 374.935091 69.984 
L 375.087273 73.008 
L 376.304727 73.008 
L 376.456909 69.984 
L 381.783273 69.984 
L 381.935455 73.008 
L 385.080545 73.008 
L 385.232727 69.984 
L 385.283455 69.984 
L 385.435636 73.008 
L 386.856 73.008 
L 387.008182 69.984 
L 390.356182 69.984 
L 390.508364 66.96 
L 391.675091 66.96 
L 391.827273 69.984 
L 392.841818 69.984 
L 392.994 73.008 
L 394.11 73.008 
L 394.262182 76.032 
L 395.175273 76.032 
L 395.327455 79.056 
L 396.747818 79.056 
L 396.9 76.032 
L 396.950727 76.032 
L 397.102909 79.056 
L 397.914545 79.056 
L 398.066727 76.032 
L 399.182727 76.032 
L 399.334909 73.008 
L 399.740727 73.008 
L 399.892909 76.032 
L 400.248 76.032 
L 400.400182 73.008 
L 402.023455 73.008 
L 402.175636 69.984 
L 404.813455 69.984 
L 404.965636 66.96 
L 406.030909 66.96 
L 406.183091 69.984 
L 411.103636 69.984 
L 411.255818 66.96 
L 415.314 66.96 
L 415.466182 69.984 
L 415.719818 69.984 
L 415.872 73.008 
L 417.546 73.008 
L 417.698182 76.032 
L 418.306909 76.032 
L 418.459091 79.056 
L 420.031636 79.056 
L 420.183818 82.08 
L 420.386727 82.08 
L 420.538909 79.056 
L 420.792545 79.056 
L 420.944727 76.032 
L 422.618727 76.032 
L 422.770909 73.008 
L 423.379636 73.008 
L 423.531818 69.984 
L 424.292727 69.984 
L 424.444909 73.008 
L 424.597091 73.008 
L 424.749273 76.032 
L 425.104364 76.032 
L 425.256545 73.008 
L 429.365455 73.008 
L 429.517636 69.984 
L 429.669818 69.984 
L 429.822 66.96 
L 431.648182 66.96 
L 431.800364 69.984 
L 436.720909 69.984 
L 436.873091 66.96 
L 439.713818 66.96 
L 439.866 69.984 
L 440.068909 69.984 
L 440.221091 73.008 
L 441.134182 73.008 
L 441.286364 76.032 
L 444.786545 76.032 
L 444.938727 73.008 
L 445.141636 73.008 
L 445.293818 69.984 
L 446.206909 69.984 
L 446.359091 66.96 
L 446.714182 66.96 
L 446.866364 69.984 
L 447.221455 69.984 
L 447.373636 73.008 
L 447.830182 73.008 
L 447.982364 76.032 
L 450.468 76.032 
L 450.620182 79.056 
L 451.786909 79.056 
L 451.939091 76.032 
L 452.294182 76.032 
L 452.446364 73.008 
L 452.902909 73.008 
L 453.055091 69.984 
L 455.540727 69.984 
L 455.692909 66.96 
L 458.026364 66.96 
L 458.178545 69.984 
L 462.693273 69.984 
L 462.896182 76.032 
L 463.099091 76.032 
L 463.251273 73.008 
L 464.012182 73.008 
L 464.164364 76.032 
L 465.178909 76.032 
L 465.331091 79.056 
L 467.766 79.056 
L 467.968909 73.008 
L 469.084909 73.008 
L 469.237091 69.984 
L 470.251636 69.984 
L 470.403818 66.96 
L 474.360545 66.96 
L 474.512727 69.984 
L 475.476545 69.984 
L 475.628727 73.008 
L 479.433273 73.008 
L 479.585455 69.984 
L 480.549273 69.984 
L 480.701455 66.96 
L 483.592909 66.96 
L 483.745091 69.984 
L 485.977091 69.984 
L 486.129273 73.008 
L 488.665636 73.008 
L 488.817818 69.984 
L 491.049818 69.984 
L 491.202 66.96 
L 491.912182 66.96 
L 492.064364 69.984 
L 493.129636 69.984 
L 493.281818 73.008 
L 494.600727 73.008 
L 494.752909 76.032 
L 496.984909 76.032 
L 497.137091 73.008 
L 498.202364 73.008 
L 498.354545 69.984 
L 499.673455 69.984 
L 499.825636 66.96 
L 504.289636 66.96 
L 504.441818 69.984 
L 505.101273 69.984 
L 505.253455 73.008 
L 506.724545 73.008 
L 506.876727 76.032 
L 510.174 76.032 
L 510.326182 73.008 
L 511.797273 73.008 
L 511.949455 69.984 
L 513.775636 69.984 
L 513.927818 73.008 
L 514.282909 73.008 
L 514.435091 76.032 
L 514.587273 73.008 
L 517.123636 73.008 
L 517.275818 76.032 
L 518.848364 76.032 
L 519.000545 73.008 
L 519.355636 73.008 
L 519.507818 69.984 
L 522.196364 69.984 
L 522.348545 66.96 
L 523.160182 66.96 
L 523.312364 69.984 
L 528.232909 69.984 
L 528.385091 66.96 
L 538.378364 66.96 
L 538.530545 69.984 
L 539.646545 69.984 
L 539.798727 73.008 
L 542.335091 73.008 
L 542.487273 76.032 
L 543.451091 76.032 
L 543.603273 73.008 
L 544.719273 73.008 
L 544.871455 69.984 
L 547.407818 69.984 
L 547.56 66.96 
L 554.915455 66.96 
L 555.067636 69.984 
L 555.828545 69.984 
L 555.980727 73.008 
L 556.285091 73.008 
L 556.437273 76.032 
L 559.988182 76.032 
L 560.038909 73.008 
L 560.089636 76.032 
L 560.901273 76.032 
L 561.053455 73.008 
L 561.357818 73.008 
L 561.51 69.984 
L 565.111636 69.984 
L 565.263818 66.96 
L 565.771091 66.96 
L 565.923273 69.984 
L 566.278364 69.984 
L 566.430545 73.008 
L 568.104545 73.008 
L 568.256727 76.032 
L 570.843818 76.032 
L 570.945273 73.008 
L 571.097455 76.032 
L 571.351091 76.032 
L 571.503273 73.008 
L 573.177273 73.008 
L 573.329455 69.984 
L 576.018 69.984 
L 576.170182 66.96 
L 576.880364 66.96 
L 577.032545 69.984 
L 577.184727 69.984 
L 577.336909 73.008 
L 578.960182 73.008 
L 579.112364 76.032 
L 581.953091 76.032 
L 582.105273 73.008 
L 582.257455 73.008 
L 582.409636 69.984 
L 582.663273 69.984 
L 582.815455 73.008 
L 584.032909 73.008 
L 584.185091 69.984 
L 584.641636 69.984 
L 584.793818 73.008 
L 587.736 73.008 
L 587.888182 69.984 
L 589.308545 69.984 
L 589.460727 73.008 
L 594.381273 73.008 
L 594.533455 69.984 
L 594.787091 69.984 
L 594.939273 66.96 
L 596.004545 66.96 
L 596.207455 73.008 
L 597.78 73.008 
L 597.982909 79.056 
L 598.642364 79.056 
L 598.794545 82.08 
L 601.077273 82.08 
L 601.280182 76.032 
L 602.142545 76.032 
L 602.294727 79.056 
L 602.852727 79.056 
L 603.055636 73.008 
L 603.715091 73.008 
L 603.867273 69.984 
L 605.896364 69.984 
L 606.048545 73.008 
L 606.758727 73.008 
L 606.910909 76.032 
L 607.215273 76.032 
L 607.367455 73.008 
L 610.969091 73.008 
L 611.121273 69.984 
L 611.831455 69.984 
L 611.983636 66.96 
L 612.643091 66.96 
L 612.795273 69.984 
L 613.048909 69.984 
L 613.201091 73.008 
L 613.657636 73.008 
L 613.809818 76.032 
L 614.469273 76.032 
L 614.621455 79.056 
L 616.194 79.056 
L 616.346182 82.08 
L 617.715818 82.08 
L 617.868 79.056 
L 618.121636 79.056 
L 618.273818 76.032 
L 618.730364 76.032 
L 618.882545 73.008 
L 619.034727 76.032 
L 619.542 76.032 
L 619.694182 73.008 
L 621.266727 73.008 
L 621.368182 69.984 
L 621.520364 73.008 
L 622.636364 73.008 
L 622.636364 73.008 
" clip-path="url(#pf0bde413d4)" style="fill: none; stroke: #0000ff; stroke-width: 2; stroke-linecap: square"/>
   </g>
   <g id="patch_3">
    <path d="M 90 384.48 
L 90 51.84 
" style="fill: none; stroke: #000000; stroke-width: 0.8; stroke-linejoin: miter; stroke-linecap: square"/>
   </g>
   <g id="patch_4">
    <path d="M 648 384.48 
L 648 51.84 
" style="fill: none; stroke: #000000; stroke-width: 0.8; stroke-linejoin: miter; stroke-linecap: square"/>
   </g>
   <g id="patch_5">
    <path d="M 90 384.48 
L 648 384.48 
" style="fill: none; stroke: #000000; stroke-width: 0.8; stroke-linejoin: miter; stroke-linecap: square"/>
   </g>
   <g id="patch_6">
    <path d="M 90 51.84 
L 648 51.84 
" style="fill: none; stroke: #000000; stroke-width: 0.8; stroke-linejoin: miter; stroke-linecap: square"/>
   </g>
   <g id="text_18">
    <!-- Markov_Chain_Monte_Carlo Performance on Frozen Lake -->
    <g transform="translate(199.945312 45.84) scale(0.12 -0.12)">
     <defs>
      <path id="DejaVuSans-6b" d="M 581 4863 
L 1159 4863 
L 1159 1991 
L 2875 3500 
L 3609 3500 
L 1753 1863 
L 3688 0 
L 2938 0 
L 1159 1709 
L 1159 0 
L 581 0 
L 581 4863 
z
" transform="scale(0.015625)"/>
      <path id="DejaVuSans-5f" d="M 3263 -1063 
L 3263 -1509 
L -63 -1509 
L -63 -1063 
L 3263 -1063 
z
" transform="scale(0.015625)"/>
      <path id="DejaVuSans-68" d="M 3513 2113 
L 3513 0 
L 2938 0 
L 2938 2094 
Q 2938 2591 2744 2837 
Q 2550 3084 2163 3084 
Q 1697 3084 1428 2787 
Q 1159 2491 1159 1978 
L 1159 0 
L 581 0 
L 581 4863 
L 1159 4863 
L 1159 2956 
Q 1366 3272 1645 3428 
Q 1925 3584 2291 3584 
Q 2894 3584 3203 3211 
Q 3513 2838 3513 2113 
z
" transform="scale(0.015625)"/>
      <path id="DejaVuSans-6e" d="M 3513 2113 
L 3513 0 
L 2938 0 
L 2938 2094 
Q 2938 2591 2744 2837 
Q 2550 3084 2163 3084 
Q 1697 3084 1428 2787 
Q 1159 2491 1159 1978 
L 1159 0 
L 581 0 
L 581 3500 
L 1159 3500 
L 1159 2956 
Q 1366 3272 1645 3428 
Q 1925 3584 2291 3584 
Q 2894 3584 3203 3211 
Q 3513 2838 3513 2113 
z
" transform="scale(0.015625)"/>
      <path id="DejaVuSans-50" d="M 1259 4147 
L 1259 2394 
L 2053 2394 
Q 2494 2394 2734 2622 
Q 2975 2850 2975 3272 
Q 2975 3691 2734 3919 
Q 2494 4147 2053 4147 
L 1259 4147 
z
M 628 4666 
L 2053 4666 
Q 2838 4666 3239 4311 
Q 3641 3956 3641 3272 
Q 3641 2581 3239 2228 
Q 2838 1875 2053 1875 
L 1259 1875 
L 1259 0 
L 628 0 
L 628 4666 
z
" transform="scale(0.015625)"/>
      <path id="DejaVuSans-66" d="M 2375 4863 
L 2375 4384 
L 1825 4384 
Q 1516 4384 1395 4259 
Q 1275 4134 1275 3809 
L 1275 3500 
L 2222 3500 
L 2222 3053 
L 1275 3053 
L 1275 0 
L 697 0 
L 697 3053 
L 147 3053 
L 147 3500 
L 697 3500 
L 697 3744 
Q 697 4328 969 4595 
Q 1241 4863 1831 4863 
L 2375 4863 
z
" transform="scale(0.015625)"/>
      <path id="DejaVuSans-63" d="M 3122 3366 
L 3122 2828 
Q 2878 2963 2633 3030 
Q 2388 3097 2138 3097 
Q 1578 3097 1268 2742 
Q 959 2388 959 1747 
Q 959 1106 1268 751 
Q 1578 397 2138 397 
Q 2388 397 2633 464 
Q 2878 531 3122 666 
L 3122 134 
Q 2881 22 2623 -34 
Q 2366 -91 2075 -91 
Q 1284 -91 818 406 
Q 353 903 353 1747 
Q 353 2603 823 3093 
Q 1294 3584 2113 3584 
Q 2378 3584 2631 3529 
Q 2884 3475 3122 3366 
z
" transform="scale(0.015625)"/>
      <path id="DejaVuSans-46" d="M 628 4666 
L 3309 4666 
L 3309 4134 
L 1259 4134 
L 1259 2759 
L 3109 2759 
L 3109 2228 
L 1259 2228 
L 1259 0 
L 628 0 
L 628 4666 
z
" transform="scale(0.015625)"/>
      <path id="DejaVuSans-7a" d="M 353 3500 
L 3084 3500 
L 3084 2975 
L 922 459 
L 3084 459 
L 3084 0 
L 275 0 
L 275 525 
L 2438 3041 
L 353 3041 
L 353 3500 
z
" transform="scale(0.015625)"/>
      <path id="DejaVuSans-4c" d="M 628 4666 
L 1259 4666 
L 1259 531 
L 3531 531 
L 3531 0 
L 628 0 
L 628 4666 
z
" transform="scale(0.015625)"/>
     </defs>
     <use xlink:href="#DejaVuSans-4d"/>
     <use xlink:href="#DejaVuSans-61" transform="translate(86.279297 0)"/>
     <use xlink:href="#DejaVuSans-72" transform="translate(147.558594 0)"/>
     <use xlink:href="#DejaVuSans-6b" transform="translate(188.671875 0)"/>
     <use xlink:href="#DejaVuSans-6f" transform="translate(242.957031 0)"/>
     <use xlink:href="#DejaVuSans-76" transform="translate(304.138672 0)"/>
     <use xlink:href="#DejaVuSans-5f" transform="translate(363.318359 0)"/>
     <use xlink:href="#DejaVuSans-43" transform="translate(413.318359 0)"/>
     <use xlink:href="#DejaVuSans-68" transform="translate(483.142578 0)"/>
     <use xlink:href="#DejaVuSans-61" transform="translate(546.521484 0)"/>
     <use xlink:href="#DejaVuSans-69" transform="translate(607.800781 0)"/>
     <use xlink:href="#DejaVuSans-6e" transform="translate(635.583984 0)"/>
     <use xlink:href="#DejaVuSans-5f" transform="translate(698.962891 0)"/>
     <use xlink:href="#DejaVuSans-4d" transform="translate(748.962891 0)"/>
     <use xlink:href="#DejaVuSans-6f" transform="translate(835.242188 0)"/>
     <use xlink:href="#DejaVuSans-6e" transform="translate(896.423828 0)"/>
     <use xlink:href="#DejaVuSans-74" transform="translate(959.802734 0)"/>
     <use xlink:href="#DejaVuSans-65" transform="translate(999.011719 0)"/>
     <use xlink:href="#DejaVuSans-5f" transform="translate(1060.535156 0)"/>
     <use xlink:href="#DejaVuSans-43" transform="translate(1110.535156 0)"/>
     <use xlink:href="#DejaVuSans-61" transform="translate(1180.359375 0)"/>
     <use xlink:href="#DejaVuSans-72" transform="translate(1241.638672 0)"/>
     <use xlink:href="#DejaVuSans-6c" transform="translate(1282.751953 0)"/>
     <use xlink:href="#DejaVuSans-6f" transform="translate(1310.535156 0)"/>
     <use xlink:href="#DejaVuSans-20" transform="translate(1371.716797 0)"/>
     <use xlink:href="#DejaVuSans-50" transform="translate(1403.503906 0)"/>
     <use xlink:href="#DejaVuSans-65" transform="translate(1460.181641 0)"/>
     <use xlink:href="#DejaVuSans-72" transform="translate(1521.705078 0)"/>
     <use xlink:href="#DejaVuSans-66" transform="translate(1562.818359 0)"/>
     <use xlink:href="#DejaVuSans-6f" transform="translate(1598.023438 0)"/>
     <use xlink:href="#DejaVuSans-72" transform="translate(1659.205078 0)"/>
     <use xlink:href="#DejaVuSans-6d" transform="translate(1698.568359 0)"/>
     <use xlink:href="#DejaVuSans-61" transform="translate(1795.980469 0)"/>
     <use xlink:href="#DejaVuSans-6e" transform="translate(1857.259766 0)"/>
     <use xlink:href="#DejaVuSans-63" transform="translate(1920.638672 0)"/>
     <use xlink:href="#DejaVuSans-65" transform="translate(1975.619141 0)"/>
     <use xlink:href="#DejaVuSans-20" transform="translate(2037.142578 0)"/>
     <use xlink:href="#DejaVuSans-6f" transform="translate(2068.929688 0)"/>
     <use xlink:href="#DejaVuSans-6e" transform="translate(2130.111328 0)"/>
     <use xlink:href="#DejaVuSans-20" transform="translate(2193.490234 0)"/>
     <use xlink:href="#DejaVuSans-46" transform="translate(2225.277344 0)"/>
     <use xlink:href="#DejaVuSans-72" transform="translate(2275.546875 0)"/>
     <use xlink:href="#DejaVuSans-6f" transform="translate(2314.410156 0)"/>
     <use xlink:href="#DejaVuSans-7a" transform="translate(2375.591797 0)"/>
     <use xlink:href="#DejaVuSans-65" transform="translate(2428.082031 0)"/>
     <use xlink:href="#DejaVuSans-6e" transform="translate(2489.605469 0)"/>
     <use xlink:href="#DejaVuSans-20" transform="translate(2552.984375 0)"/>
     <use xlink:href="#DejaVuSans-4c" transform="translate(2584.771484 0)"/>
     <use xlink:href="#DejaVuSans-61" transform="translate(2640.484375 0)"/>
     <use xlink:href="#DejaVuSans-6b" transform="translate(2701.763672 0)"/>
     <use xlink:href="#DejaVuSans-65" transform="translate(2756.048828 0)"/>
    </g>
   </g>
   <g id="legend_1">
    <g id="patch_7">
     <path d="M 458.34375 234.338125 
L 641 234.338125 
Q 643 234.338125 643 232.338125 
L 643 203.981875 
Q 643 201.981875 641 201.981875 
L 458.34375 201.981875 
Q 456.34375 201.981875 456.34375 203.981875 
L 456.34375 232.338125 
Q 456.34375 234.338125 458.34375 234.338125 
z
" style="fill: #ffffff; opacity: 0.8; stroke: #cccccc; stroke-linejoin: miter"/>
    </g>
    <g id="line2d_33">
     <path d="M 460.34375 210.080312 
L 470.34375 210.080312 
L 480.34375 210.080312 
" style="fill: none; stroke: #1f77b4; stroke-opacity: 0.3; stroke-width: 1.5; stroke-linecap: square"/>
    </g>
    <g id="text_19">
     <!-- Raw Rewards -->
     <g transform="translate(488.34375 213.580312) scale(0.1 -0.1)">
      <use xlink:href="#DejaVuSans-52"/>
      <use xlink:href="#DejaVuSans-61" transform="translate(67.232422 0)"/>
      <use xlink:href="#DejaVuSans-77" transform="translate(128.511719 0)"/>
      <use xlink:href="#DejaVuSans-20" transform="translate(210.298828 0)"/>
      <use xlink:href="#DejaVuSans-52" transform="translate(242.085938 0)"/>
      <use xlink:href="#DejaVuSans-65" transform="translate(307.068359 0)"/>
      <use xlink:href="#DejaVuSans-77" transform="translate(368.591797 0)"/>
      <use xlink:href="#DejaVuSans-61" transform="translate(450.378906 0)"/>
      <use xlink:href="#DejaVuSans-72" transform="translate(511.658203 0)"/>
      <use xlink:href="#DejaVuSans-64" transform="translate(551.021484 0)"/>
      <use xlink:href="#DejaVuSans-73" transform="translate(614.498047 0)"/>
     </g>
    </g>
    <g id="line2d_34">
     <path d="M 460.34375 224.758437 
L 470.34375 224.758437 
L 480.34375 224.758437 
" style="fill: none; stroke: #0000ff; stroke-width: 2; stroke-linecap: square"/>
    </g>
    <g id="text_20">
     <!-- Smoothed Avg (Window=100) -->
     <g transform="translate(488.34375 228.258437) scale(0.1 -0.1)">
      <defs>
       <path id="DejaVuSans-53" d="M 3425 4513 
L 3425 3897 
Q 3066 4069 2747 4153 
Q 2428 4238 2131 4238 
Q 1616 4238 1336 4038 
Q 1056 3838 1056 3469 
Q 1056 3159 1242 3001 
Q 1428 2844 1947 2747 
L 2328 2669 
Q 3034 2534 3370 2195 
Q 3706 1856 3706 1288 
Q 3706 609 3251 259 
Q 2797 -91 1919 -91 
Q 1588 -91 1214 -16 
Q 841 59 441 206 
L 441 856 
Q 825 641 1194 531 
Q 1563 422 1919 422 
Q 2459 422 2753 634 
Q 3047 847 3047 1241 
Q 3047 1584 2836 1778 
Q 2625 1972 2144 2069 
L 1759 2144 
Q 1053 2284 737 2584 
Q 422 2884 422 3419 
Q 422 4038 858 4394 
Q 1294 4750 2059 4750 
Q 2388 4750 2728 4690 
Q 3069 4631 3425 4513 
z
" transform="scale(0.015625)"/>
       <path id="DejaVuSans-41" d="M 2188 4044 
L 1331 1722 
L 3047 1722 
L 2188 4044 
z
M 1831 4666 
L 2547 4666 
L 4325 0 
L 3669 0 
L 3244 1197 
L 1141 1197 
L 716 0 
L 50 0 
L 1831 4666 
z
" transform="scale(0.015625)"/>
       <path id="DejaVuSans-67" d="M 2906 1791 
Q 2906 2416 2648 2759 
Q 2391 3103 1925 3103 
Q 1463 3103 1205 2759 
Q 947 2416 947 1791 
Q 947 1169 1205 825 
Q 1463 481 1925 481 
Q 2391 481 2648 825 
Q 2906 1169 2906 1791 
z
M 3481 434 
Q 3481 -459 3084 -895 
Q 2688 -1331 1869 -1331 
Q 1566 -1331 1297 -1286 
Q 1028 -1241 775 -1147 
L 775 -588 
Q 1028 -725 1275 -790 
Q 1522 -856 1778 -856 
Q 2344 -856 2625 -561 
Q 2906 -266 2906 331 
L 2906 616 
Q 2728 306 2450 153 
Q 2172 0 1784 0 
Q 1141 0 747 490 
Q 353 981 353 1791 
Q 353 2603 747 3093 
Q 1141 3584 1784 3584 
Q 2172 3584 2450 3431 
Q 2728 3278 2906 2969 
L 2906 3500 
L 3481 3500 
L 3481 434 
z
" transform="scale(0.015625)"/>
       <path id="DejaVuSans-57" d="M 213 4666 
L 850 4666 
L 1831 722 
L 2809 4666 
L 3519 4666 
L 4500 722 
L 5478 4666 
L 6119 4666 
L 4947 0 
L 4153 0 
L 3169 4050 
L 2175 0 
L 1381 0 
L 213 4666 
z
" transform="scale(0.015625)"/>
      </defs>
      <use xlink:href="#DejaVuSans-53"/>
      <use xlink:href="#DejaVuSans-6d" transform="translate(63.476562 0)"/>
      <use xlink:href="#DejaVuSans-6f" transform="translate(160.888672 0)"/>
      <use xlink:href="#DejaVuSans-6f" transform="translate(222.070312 0)"/>
      <use xlink:href="#DejaVuSans-74" transform="translate(283.251953 0)"/>
      <use xlink:href="#DejaVuSans-68" transform="translate(322.460938 0)"/>
      <use xlink:href="#DejaVuSans-65" transform="translate(385.839844 0)"/>
      <use xlink:href="#DejaVuSans-64" transform="translate(447.363281 0)"/>
      <use xlink:href="#DejaVuSans-20" transform="translate(510.839844 0)"/>
      <use xlink:href="#DejaVuSans-41" transform="translate(542.626953 0)"/>
      <use xlink:href="#DejaVuSans-76" transform="translate(605.160156 0)"/>
      <use xlink:href="#DejaVuSans-67" transform="translate(664.339844 0)"/>
      <use xlink:href="#DejaVuSans-20" transform="translate(727.816406 0)"/>
      <use xlink:href="#DejaVuSans-28" transform="translate(759.603516 0)"/>
      <use xlink:href="#DejaVuSans-57" transform="translate(798.617188 0)"/>
      <use xlink:href="#DejaVuSans-69" transform="translate(895.244141 0)"/>
      <use xlink:href="#DejaVuSans-6e" transform="translate(923.027344 0)"/>
      <use xlink:href="#DejaVuSans-64" transform="translate(986.40625 0)"/>
      <use xlink:href="#DejaVuSans-6f" transform="translate(1049.882812 0)"/>
      <use xlink:href="#DejaVuSans-77" transform="translate(1111.064453 0)"/>
      <use xlink:href="#DejaVuSans-3d" transform="translate(1192.851562 0)"/>
      <use xlink:href="#DejaVuSans-31" transform="translate(1276.640625 0)"/>
      <use xlink:href="#DejaVuSans-30" transform="translate(1340.263672 0)"/>
      <use xlink:href="#DejaVuSans-30" transform="translate(1403.886719 0)"/>
      <use xlink:href="#DejaVuSans-29" transform="translate(1467.509766 0)"/>
     </g>
    </g>
   </g>
  </g>
 </g>
 <defs>
  <clipPath id="pf0bde413d4">
   <rect x="90" y="51.84" width="558" height="332.64"/>
  </clipPath>
 </defs>
</svg>
