<?xml version="1.0" encoding="utf-8" standalone="no"?>
<!DOCTYPE svg PUBLIC "-//W3C//DTD SVG 1.1//EN"
  "http://www.w3.org/Graphics/SVG/1.1/DTD/svg11.dtd">
<svg xmlns:xlink="http://www.w3.org/1999/xlink" width="720pt" height="288pt" viewBox="0 0 720 288" xmlns="http://www.w3.org/2000/svg" version="1.1">
 <metadata>
  <rdf:RDF xmlns:dc="http://purl.org/dc/elements/1.1/" xmlns:cc="http://creativecommons.org/ns#" xmlns:rdf="http://www.w3.org/1999/02/22-rdf-syntax-ns#">
   <cc:Work>
    <dc:type rdf:resource="http://purl.org/dc/dcmitype/StillImage"/>
    <dc:date>2025-12-06T13:35:17.698069</dc:date>
    <dc:format>image/svg+xml</dc:format>
    <dc:creator>
     <cc:Agent>
      <dc:title>Matplotlib v3.10.7, https://matplotlib.org/</dc:title>
     </cc:Agent>
    </dc:creator>
   </cc:Work>
  </rdf:RDF>
 </metadata>
 <defs>
  <style type="text/css">*{stroke-linejoin: round; stroke-linecap: butt}</style>
 </defs>
 <g id="figure_1">
  <g id="patch_1">
   <path d="M 0 288 
L 720 288 
L 720 0 
L 0 0 
z
" style="fill: #ffffff"/>
  </g>
  <g id="axes_1">
   <g id="patch_2">
    <path d="M 90 256.32 
L 648 256.32 
L 648 34.56 
L 90 34.56 
z
" style="fill: #ffffff"/>
   </g>
   <g id="matplotlib.axis_1">
    <g id="xtick_1">
     <g id="line2d_1">
      <path d="M 115.363636 256.32 
L 115.363636 34.56 
" clip-path="url(#p06315e4c73)" style="fill: none; stroke: #b0b0b0; stroke-width: 0.8; stroke-linecap: square"/>
     </g>
     <g id="line2d_2">
      <defs>
       <path id="mc8a6827607" d="M 0 0 
L 0 3.5 
" style="stroke: #000000; stroke-width: 0.8"/>
      </defs>
      <g>
       <use xlink:href="#mc8a6827607" x="115.363636" y="256.32" style="stroke: #000000; stroke-width: 0.8"/>
      </g>
     </g>
     <g id="text_1">
      <!-- 0 -->
      <g transform="translate(112.182386 270.918437) scale(0.1 -0.1)">
       <defs>
        <path id="DejaVuSans-30" d="M 2034 4250 
Q 1547 4250 1301 3770 
Q 1056 3291 1056 2328 
Q 1056 1369 1301 889 
Q 1547 409 2034 409 
Q 2525 409 2770 889 
Q 3016 1369 3016 2328 
Q 3016 3291 2770 3770 
Q 2525 4250 2034 4250 
z
M 2034 4750 
Q 2819 4750 3233 4129 
Q 3647 3509 3647 2328 
Q 3647 1150 3233 529 
Q 2819 -91 2034 -91 
Q 1250 -91 836 529 
Q 422 1150 422 2328 
Q 422 3509 836 4129 
Q 1250 4750 2034 4750 
z
" transform="scale(0.015625)"/>
       </defs>
       <use xlink:href="#DejaVuSans-30"/>
      </g>
     </g>
    </g>
    <g id="xtick_2">
     <g id="line2d_3">
      <path d="M 216.828328 256.32 
L 216.828328 34.56 
" clip-path="url(#p06315e4c73)" style="fill: none; stroke: #b0b0b0; stroke-width: 0.8; stroke-linecap: square"/>
     </g>
     <g id="line2d_4">
      <g>
       <use xlink:href="#mc8a6827607" x="216.828328" y="256.32" style="stroke: #000000; stroke-width: 0.8"/>
      </g>
     </g>
     <g id="text_2">
      <!-- 2000 -->
      <g transform="translate(204.103328 270.918437) scale(0.1 -0.1)">
       <defs>
        <path id="DejaVuSans-32" d="M 1228 531 
L 3431 531 
L 3431 0 
L 469 0 
L 469 531 
Q 828 903 1448 1529 
Q 2069 2156 2228 2338 
Q 2531 2678 2651 2914 
Q 2772 3150 2772 3378 
Q 2772 3750 2511 3984 
Q 2250 4219 1831 4219 
Q 1534 4219 1204 4116 
Q 875 4013 500 3803 
L 500 4441 
Q 881 4594 1212 4672 
Q 1544 4750 1819 4750 
Q 2544 4750 2975 4387 
Q 3406 4025 3406 3419 
Q 3406 3131 3298 2873 
Q 3191 2616 2906 2266 
Q 2828 2175 2409 1742 
Q 1991 1309 1228 531 
z
" transform="scale(0.015625)"/>
       </defs>
       <use xlink:href="#DejaVuSans-32"/>
       <use xlink:href="#DejaVuSans-30" transform="translate(63.623047 0)"/>
       <use xlink:href="#DejaVuSans-30" transform="translate(127.246094 0)"/>
       <use xlink:href="#DejaVuSans-30" transform="translate(190.869141 0)"/>
      </g>
     </g>
    </g>
    <g id="xtick_3">
     <g id="line2d_5">
      <path d="M 318.29302 256.32 
L 318.29302 34.56 
" clip-path="url(#p06315e4c73)" style="fill: none; stroke: #b0b0b0; stroke-width: 0.8; stroke-linecap: square"/>
     </g>
     <g id="line2d_6">
      <g>
       <use xlink:href="#mc8a6827607" x="318.29302" y="256.32" style="stroke: #000000; stroke-width: 0.8"/>
      </g>
     </g>
     <g id="text_3">
      <!-- 4000 -->
      <g transform="translate(305.56802 270.918437) scale(0.1 -0.1)">
       <defs>
        <path id="DejaVuSans-34" d="M 2419 4116 
L 825 1625 
L 2419 1625 
L 2419 4116 
z
M 2253 4666 
L 3047 4666 
L 3047 1625 
L 3713 1625 
L 3713 1100 
L 3047 1100 
L 3047 0 
L 2419 0 
L 2419 1100 
L 313 1100 
L 313 1709 
L 2253 4666 
z
" transform="scale(0.015625)"/>
       </defs>
       <use xlink:href="#DejaVuSans-34"/>
       <use xlink:href="#DejaVuSans-30" transform="translate(63.623047 0)"/>
       <use xlink:href="#DejaVuSans-30" transform="translate(127.246094 0)"/>
       <use xlink:href="#DejaVuSans-30" transform="translate(190.869141 0)"/>
      </g>
     </g>
    </g>
    <g id="xtick_4">
     <g id="line2d_7">
      <path d="M 419.757712 256.32 
L 419.757712 34.56 
" clip-path="url(#p06315e4c73)" style="fill: none; stroke: #b0b0b0; stroke-width: 0.8; stroke-linecap: square"/>
     </g>
     <g id="line2d_8">
      <g>
       <use xlink:href="#mc8a6827607" x="419.757712" y="256.32" style="stroke: #000000; stroke-width: 0.8"/>
      </g>
     </g>
     <g id="text_4">
      <!-- 6000 -->
      <g transform="translate(407.032712 270.918437) scale(0.1 -0.1)">
       <defs>
        <path id="DejaVuSans-36" d="M 2113 2584 
Q 1688 2584 1439 2293 
Q 1191 2003 1191 1497 
Q 1191 994 1439 701 
Q 1688 409 2113 409 
Q 2538 409 2786 701 
Q 3034 994 3034 1497 
Q 3034 2003 2786 2293 
Q 2538 2584 2113 2584 
z
M 3366 4563 
L 3366 3988 
Q 3128 4100 2886 4159 
Q 2644 4219 2406 4219 
Q 1781 4219 1451 3797 
Q 1122 3375 1075 2522 
Q 1259 2794 1537 2939 
Q 1816 3084 2150 3084 
Q 2853 3084 3261 2657 
Q 3669 2231 3669 1497 
Q 3669 778 3244 343 
Q 2819 -91 2113 -91 
Q 1303 -91 875 529 
Q 447 1150 447 2328 
Q 447 3434 972 4092 
Q 1497 4750 2381 4750 
Q 2619 4750 2861 4703 
Q 3103 4656 3366 4563 
z
" transform="scale(0.015625)"/>
       </defs>
       <use xlink:href="#DejaVuSans-36"/>
       <use xlink:href="#DejaVuSans-30" transform="translate(63.623047 0)"/>
       <use xlink:href="#DejaVuSans-30" transform="translate(127.246094 0)"/>
       <use xlink:href="#DejaVuSans-30" transform="translate(190.869141 0)"/>
      </g>
     </g>
    </g>
    <g id="xtick_5">
     <g id="line2d_9">
      <path d="M 521.222404 256.32 
L 521.222404 34.56 
" clip-path="url(#p06315e4c73)" style="fill: none; stroke: #b0b0b0; stroke-width: 0.8; stroke-linecap: square"/>
     </g>
     <g id="line2d_10">
      <g>
       <use xlink:href="#mc8a6827607" x="521.222404" y="256.32" style="stroke: #000000; stroke-width: 0.8"/>
      </g>
     </g>
     <g id="text_5">
      <!-- 8000 -->
      <g transform="translate(508.497404 270.918437) scale(0.1 -0.1)">
       <defs>
        <path id="DejaVuSans-38" d="M 2034 2216 
Q 1584 2216 1326 1975 
Q 1069 1734 1069 1313 
Q 1069 891 1326 650 
Q 1584 409 2034 409 
Q 2484 409 2743 651 
Q 3003 894 3003 1313 
Q 3003 1734 2745 1975 
Q 2488 2216 2034 2216 
z
M 1403 2484 
Q 997 2584 770 2862 
Q 544 3141 544 3541 
Q 544 4100 942 4425 
Q 1341 4750 2034 4750 
Q 2731 4750 3128 4425 
Q 3525 4100 3525 3541 
Q 3525 3141 3298 2862 
Q 3072 2584 2669 2484 
Q 3125 2378 3379 2068 
Q 3634 1759 3634 1313 
Q 3634 634 3220 271 
Q 2806 -91 2034 -91 
Q 1263 -91 848 271 
Q 434 634 434 1313 
Q 434 1759 690 2068 
Q 947 2378 1403 2484 
z
M 1172 3481 
Q 1172 3119 1398 2916 
Q 1625 2713 2034 2713 
Q 2441 2713 2670 2916 
Q 2900 3119 2900 3481 
Q 2900 3844 2670 4047 
Q 2441 4250 2034 4250 
Q 1625 4250 1398 4047 
Q 1172 3844 1172 3481 
z
" transform="scale(0.015625)"/>
       </defs>
       <use xlink:href="#DejaVuSans-38"/>
       <use xlink:href="#DejaVuSans-30" transform="translate(63.623047 0)"/>
       <use xlink:href="#DejaVuSans-30" transform="translate(127.246094 0)"/>
       <use xlink:href="#DejaVuSans-30" transform="translate(190.869141 0)"/>
      </g>
     </g>
    </g>
    <g id="xtick_6">
     <g id="line2d_11">
      <path d="M 622.687096 256.32 
L 622.687096 34.56 
" clip-path="url(#p06315e4c73)" style="fill: none; stroke: #b0b0b0; stroke-width: 0.8; stroke-linecap: square"/>
     </g>
     <g id="line2d_12">
      <g>
       <use xlink:href="#mc8a6827607" x="622.687096" y="256.32" style="stroke: #000000; stroke-width: 0.8"/>
      </g>
     </g>
     <g id="text_6">
      <!-- 10000 -->
      <g transform="translate(606.780846 270.918437) scale(0.1 -0.1)">
       <defs>
        <path id="DejaVuSans-31" d="M 794 531 
L 1825 531 
L 1825 4091 
L 703 3866 
L 703 4441 
L 1819 4666 
L 2450 4666 
L 2450 531 
L 3481 531 
L 3481 0 
L 794 0 
L 794 531 
z
" transform="scale(0.015625)"/>
       </defs>
       <use xlink:href="#DejaVuSans-31"/>
       <use xlink:href="#DejaVuSans-30" transform="translate(63.623047 0)"/>
       <use xlink:href="#DejaVuSans-30" transform="translate(127.246094 0)"/>
       <use xlink:href="#DejaVuSans-30" transform="translate(190.869141 0)"/>
       <use xlink:href="#DejaVuSans-30" transform="translate(254.492188 0)"/>
      </g>
     </g>
    </g>
    <g id="text_7">
     <!-- Iterations -->
     <g transform="translate(335.661406 287.635938) scale(0.14 -0.14)">
      <defs>
       <path id="DejaVuSans-49" d="M 628 4666 
L 1259 4666 
L 1259 0 
L 628 0 
L 628 4666 
z
" transform="scale(0.015625)"/>
       <path id="DejaVuSans-74" d="M 1172 4494 
L 1172 3500 
L 2356 3500 
L 2356 3053 
L 1172 3053 
L 1172 1153 
Q 1172 725 1289 603 
Q 1406 481 1766 481 
L 2356 481 
L 2356 0 
L 1766 0 
Q 1100 0 847 248 
Q 594 497 594 1153 
L 594 3053 
L 172 3053 
L 172 3500 
L 594 3500 
L 594 4494 
L 1172 4494 
z
" transform="scale(0.015625)"/>
       <path id="DejaVuSans-65" d="M 3597 1894 
L 3597 1613 
L 953 1613 
Q 991 1019 1311 708 
Q 1631 397 2203 397 
Q 2534 397 2845 478 
Q 3156 559 3463 722 
L 3463 178 
Q 3153 47 2828 -22 
Q 2503 -91 2169 -91 
Q 1331 -91 842 396 
Q 353 884 353 1716 
Q 353 2575 817 3079 
Q 1281 3584 2069 3584 
Q 2775 3584 3186 3129 
Q 3597 2675 3597 1894 
z
M 3022 2063 
Q 3016 2534 2758 2815 
Q 2500 3097 2075 3097 
Q 1594 3097 1305 2825 
Q 1016 2553 972 2059 
L 3022 2063 
z
" transform="scale(0.015625)"/>
       <path id="DejaVuSans-72" d="M 2631 2963 
Q 2534 3019 2420 3045 
Q 2306 3072 2169 3072 
Q 1681 3072 1420 2755 
Q 1159 2438 1159 1844 
L 1159 0 
L 581 0 
L 581 3500 
L 1159 3500 
L 1159 2956 
Q 1341 3275 1631 3429 
Q 1922 3584 2338 3584 
Q 2397 3584 2469 3576 
Q 2541 3569 2628 3553 
L 2631 2963 
z
" transform="scale(0.015625)"/>
       <path id="DejaVuSans-61" d="M 2194 1759 
Q 1497 1759 1228 1600 
Q 959 1441 959 1056 
Q 959 750 1161 570 
Q 1363 391 1709 391 
Q 2188 391 2477 730 
Q 2766 1069 2766 1631 
L 2766 1759 
L 2194 1759 
z
M 3341 1997 
L 3341 0 
L 2766 0 
L 2766 531 
Q 2569 213 2275 61 
Q 1981 -91 1556 -91 
Q 1019 -91 701 211 
Q 384 513 384 1019 
Q 384 1609 779 1909 
Q 1175 2209 1959 2209 
L 2766 2209 
L 2766 2266 
Q 2766 2663 2505 2880 
Q 2244 3097 1772 3097 
Q 1472 3097 1187 3025 
Q 903 2953 641 2809 
L 641 3341 
Q 956 3463 1253 3523 
Q 1550 3584 1831 3584 
Q 2591 3584 2966 3190 
Q 3341 2797 3341 1997 
z
" transform="scale(0.015625)"/>
       <path id="DejaVuSans-69" d="M 603 3500 
L 1178 3500 
L 1178 0 
L 603 0 
L 603 3500 
z
M 603 4863 
L 1178 4863 
L 1178 4134 
L 603 4134 
L 603 4863 
z
" transform="scale(0.015625)"/>
       <path id="DejaVuSans-6f" d="M 1959 3097 
Q 1497 3097 1228 2736 
Q 959 2375 959 1747 
Q 959 1119 1226 758 
Q 1494 397 1959 397 
Q 2419 397 2687 759 
Q 2956 1122 2956 1747 
Q 2956 2369 2687 2733 
Q 2419 3097 1959 3097 
z
M 1959 3584 
Q 2709 3584 3137 3096 
Q 3566 2609 3566 1747 
Q 3566 888 3137 398 
Q 2709 -91 1959 -91 
Q 1206 -91 779 398 
Q 353 888 353 1747 
Q 353 2609 779 3096 
Q 1206 3584 1959 3584 
z
" transform="scale(0.015625)"/>
       <path id="DejaVuSans-6e" d="M 3513 2113 
L 3513 0 
L 2938 0 
L 2938 2094 
Q 2938 2591 2744 2837 
Q 2550 3084 2163 3084 
Q 1697 3084 1428 2787 
Q 1159 2491 1159 1978 
L 1159 0 
L 581 0 
L 581 3500 
L 1159 3500 
L 1159 2956 
Q 1366 3272 1645 3428 
Q 1925 3584 2291 3584 
Q 2894 3584 3203 3211 
Q 3513 2838 3513 2113 
z
" transform="scale(0.015625)"/>
       <path id="DejaVuSans-73" d="M 2834 3397 
L 2834 2853 
Q 2591 2978 2328 3040 
Q 2066 3103 1784 3103 
Q 1356 3103 1142 2972 
Q 928 2841 928 2578 
Q 928 2378 1081 2264 
Q 1234 2150 1697 2047 
L 1894 2003 
Q 2506 1872 2764 1633 
Q 3022 1394 3022 966 
Q 3022 478 2636 193 
Q 2250 -91 1575 -91 
Q 1294 -91 989 -36 
Q 684 19 347 128 
L 347 722 
Q 666 556 975 473 
Q 1284 391 1588 391 
Q 1994 391 2212 530 
Q 2431 669 2431 922 
Q 2431 1156 2273 1281 
Q 2116 1406 1581 1522 
L 1381 1569 
Q 847 1681 609 1914 
Q 372 2147 372 2553 
Q 372 3047 722 3315 
Q 1072 3584 1716 3584 
Q 2034 3584 2315 3537 
Q 2597 3491 2834 3397 
z
" transform="scale(0.015625)"/>
      </defs>
      <use xlink:href="#DejaVuSans-49"/>
      <use xlink:href="#DejaVuSans-74" transform="translate(29.492188 0)"/>
      <use xlink:href="#DejaVuSans-65" transform="translate(68.701172 0)"/>
      <use xlink:href="#DejaVuSans-72" transform="translate(130.224609 0)"/>
      <use xlink:href="#DejaVuSans-61" transform="translate(171.337891 0)"/>
      <use xlink:href="#DejaVuSans-74" transform="translate(232.617188 0)"/>
      <use xlink:href="#DejaVuSans-69" transform="translate(271.826172 0)"/>
      <use xlink:href="#DejaVuSans-6f" transform="translate(299.609375 0)"/>
      <use xlink:href="#DejaVuSans-6e" transform="translate(360.791016 0)"/>
      <use xlink:href="#DejaVuSans-73" transform="translate(424.169922 0)"/>
     </g>
    </g>
   </g>
   <g id="matplotlib.axis_2">
    <g id="ytick_1">
     <g id="line2d_13">
      <path d="M 90 248.024896 
L 648 248.024896 
" clip-path="url(#p06315e4c73)" style="fill: none; stroke: #b0b0b0; stroke-width: 0.8; stroke-linecap: square"/>
     </g>
     <g id="line2d_14">
      <defs>
       <path id="m6b434d387a" d="M 0 0 
L -3.5 0 
" style="stroke: #000000; stroke-width: 0.8"/>
      </defs>
      <g>
       <use xlink:href="#m6b434d387a" x="90" y="248.024896" style="stroke: #000000; stroke-width: 0.8"/>
      </g>
     </g>
     <g id="text_8">
      <!-- −0.10 -->
      <g transform="translate(52.354687 251.824115) scale(0.1 -0.1)">
       <defs>
        <path id="DejaVuSans-2212" d="M 678 2272 
L 4684 2272 
L 4684 1741 
L 678 1741 
L 678 2272 
z
" transform="scale(0.015625)"/>
        <path id="DejaVuSans-2e" d="M 684 794 
L 1344 794 
L 1344 0 
L 684 0 
L 684 794 
z
" transform="scale(0.015625)"/>
       </defs>
       <use xlink:href="#DejaVuSans-2212"/>
       <use xlink:href="#DejaVuSans-30" transform="translate(83.789062 0)"/>
       <use xlink:href="#DejaVuSans-2e" transform="translate(147.412109 0)"/>
       <use xlink:href="#DejaVuSans-31" transform="translate(179.199219 0)"/>
       <use xlink:href="#DejaVuSans-30" transform="translate(242.822266 0)"/>
      </g>
     </g>
    </g>
    <g id="ytick_2">
     <g id="line2d_15">
      <path d="M 90 207.347917 
L 648 207.347917 
" clip-path="url(#p06315e4c73)" style="fill: none; stroke: #b0b0b0; stroke-width: 0.8; stroke-linecap: square"/>
     </g>
     <g id="line2d_16">
      <g>
       <use xlink:href="#m6b434d387a" x="90" y="207.347917" style="stroke: #000000; stroke-width: 0.8"/>
      </g>
     </g>
     <g id="text_9">
      <!-- −0.08 -->
      <g transform="translate(52.354687 211.147136) scale(0.1 -0.1)">
       <use xlink:href="#DejaVuSans-2212"/>
       <use xlink:href="#DejaVuSans-30" transform="translate(83.789062 0)"/>
       <use xlink:href="#DejaVuSans-2e" transform="translate(147.412109 0)"/>
       <use xlink:href="#DejaVuSans-30" transform="translate(179.199219 0)"/>
       <use xlink:href="#DejaVuSans-38" transform="translate(242.822266 0)"/>
      </g>
     </g>
    </g>
    <g id="ytick_3">
     <g id="line2d_17">
      <path d="M 90 166.670938 
L 648 166.670938 
" clip-path="url(#p06315e4c73)" style="fill: none; stroke: #b0b0b0; stroke-width: 0.8; stroke-linecap: square"/>
     </g>
     <g id="line2d_18">
      <g>
       <use xlink:href="#m6b434d387a" x="90" y="166.670938" style="stroke: #000000; stroke-width: 0.8"/>
      </g>
     </g>
     <g id="text_10">
      <!-- −0.06 -->
      <g transform="translate(52.354687 170.470157) scale(0.1 -0.1)">
       <use xlink:href="#DejaVuSans-2212"/>
       <use xlink:href="#DejaVuSans-30" transform="translate(83.789062 0)"/>
       <use xlink:href="#DejaVuSans-2e" transform="translate(147.412109 0)"/>
       <use xlink:href="#DejaVuSans-30" transform="translate(179.199219 0)"/>
       <use xlink:href="#DejaVuSans-36" transform="translate(242.822266 0)"/>
      </g>
     </g>
    </g>
    <g id="ytick_4">
     <g id="line2d_19">
      <path d="M 90 125.993959 
L 648 125.993959 
" clip-path="url(#p06315e4c73)" style="fill: none; stroke: #b0b0b0; stroke-width: 0.8; stroke-linecap: square"/>
     </g>
     <g id="line2d_20">
      <g>
       <use xlink:href="#m6b434d387a" x="90" y="125.993959" style="stroke: #000000; stroke-width: 0.8"/>
      </g>
     </g>
     <g id="text_11">
      <!-- −0.04 -->
      <g transform="translate(52.354687 129.793177) scale(0.1 -0.1)">
       <use xlink:href="#DejaVuSans-2212"/>
       <use xlink:href="#DejaVuSans-30" transform="translate(83.789062 0)"/>
       <use xlink:href="#DejaVuSans-2e" transform="translate(147.412109 0)"/>
       <use xlink:href="#DejaVuSans-30" transform="translate(179.199219 0)"/>
       <use xlink:href="#DejaVuSans-34" transform="translate(242.822266 0)"/>
      </g>
     </g>
    </g>
    <g id="ytick_5">
     <g id="line2d_21">
      <path d="M 90 85.316979 
L 648 85.316979 
" clip-path="url(#p06315e4c73)" style="fill: none; stroke: #b0b0b0; stroke-width: 0.8; stroke-linecap: square"/>
     </g>
     <g id="line2d_22">
      <g>
       <use xlink:href="#m6b434d387a" x="90" y="85.316979" style="stroke: #000000; stroke-width: 0.8"/>
      </g>
     </g>
     <g id="text_12">
      <!-- −0.02 -->
      <g transform="translate(52.354687 89.116198) scale(0.1 -0.1)">
       <use xlink:href="#DejaVuSans-2212"/>
       <use xlink:href="#DejaVuSans-30" transform="translate(83.789062 0)"/>
       <use xlink:href="#DejaVuSans-2e" transform="translate(147.412109 0)"/>
       <use xlink:href="#DejaVuSans-30" transform="translate(179.199219 0)"/>
       <use xlink:href="#DejaVuSans-32" transform="translate(242.822266 0)"/>
      </g>
     </g>
    </g>
    <g id="ytick_6">
     <g id="line2d_23">
      <path d="M 90 44.64 
L 648 44.64 
" clip-path="url(#p06315e4c73)" style="fill: none; stroke: #b0b0b0; stroke-width: 0.8; stroke-linecap: square"/>
     </g>
     <g id="line2d_24">
      <g>
       <use xlink:href="#m6b434d387a" x="90" y="44.64" style="stroke: #000000; stroke-width: 0.8"/>
      </g>
     </g>
     <g id="text_13">
      <!-- 0.00 -->
      <g transform="translate(60.734375 48.439219) scale(0.1 -0.1)">
       <use xlink:href="#DejaVuSans-30"/>
       <use xlink:href="#DejaVuSans-2e" transform="translate(63.623047 0)"/>
       <use xlink:href="#DejaVuSans-30" transform="translate(95.410156 0)"/>
       <use xlink:href="#DejaVuSans-30" transform="translate(159.033203 0)"/>
      </g>
     </g>
    </g>
    <g id="text_14">
     <!-- Q-Value$(s_0, a_0)$ -->
     <g transform="translate(45.443125 196.89) rotate(-90) scale(0.14 -0.14)">
      <defs>
       <path id="DejaVuSans-51" d="M 2522 4238 
Q 1834 4238 1429 3725 
Q 1025 3213 1025 2328 
Q 1025 1447 1429 934 
Q 1834 422 2522 422 
Q 3209 422 3611 934 
Q 4013 1447 4013 2328 
Q 4013 3213 3611 3725 
Q 3209 4238 2522 4238 
z
M 3406 84 
L 4238 -825 
L 3475 -825 
L 2784 -78 
Q 2681 -84 2626 -87 
Q 2572 -91 2522 -91 
Q 1538 -91 948 567 
Q 359 1225 359 2328 
Q 359 3434 948 4092 
Q 1538 4750 2522 4750 
Q 3503 4750 4090 4092 
Q 4678 3434 4678 2328 
Q 4678 1516 4351 937 
Q 4025 359 3406 84 
z
" transform="scale(0.015625)"/>
       <path id="DejaVuSans-2d" d="M 313 2009 
L 1997 2009 
L 1997 1497 
L 313 1497 
L 313 2009 
z
" transform="scale(0.015625)"/>
       <path id="DejaVuSans-56" d="M 1831 0 
L 50 4666 
L 709 4666 
L 2188 738 
L 3669 4666 
L 4325 4666 
L 2547 0 
L 1831 0 
z
" transform="scale(0.015625)"/>
       <path id="DejaVuSans-6c" d="M 603 4863 
L 1178 4863 
L 1178 0 
L 603 0 
L 603 4863 
z
" transform="scale(0.015625)"/>
       <path id="DejaVuSans-75" d="M 544 1381 
L 544 3500 
L 1119 3500 
L 1119 1403 
Q 1119 906 1312 657 
Q 1506 409 1894 409 
Q 2359 409 2629 706 
Q 2900 1003 2900 1516 
L 2900 3500 
L 3475 3500 
L 3475 0 
L 2900 0 
L 2900 538 
Q 2691 219 2414 64 
Q 2138 -91 1772 -91 
Q 1169 -91 856 284 
Q 544 659 544 1381 
z
M 1991 3584 
L 1991 3584 
z
" transform="scale(0.015625)"/>
       <path id="DejaVuSans-28" d="M 1984 4856 
Q 1566 4138 1362 3434 
Q 1159 2731 1159 2009 
Q 1159 1288 1364 580 
Q 1569 -128 1984 -844 
L 1484 -844 
Q 1016 -109 783 600 
Q 550 1309 550 2009 
Q 550 2706 781 3412 
Q 1013 4119 1484 4856 
L 1984 4856 
z
" transform="scale(0.015625)"/>
       <path id="DejaVuSans-Oblique-73" d="M 3200 3397 
L 3091 2853 
Q 2863 2978 2609 3040 
Q 2356 3103 2088 3103 
Q 1634 3103 1373 2948 
Q 1113 2794 1113 2528 
Q 1113 2219 1719 2053 
Q 1766 2041 1788 2034 
L 1972 1978 
Q 2547 1819 2739 1644 
Q 2931 1469 2931 1166 
Q 2931 609 2489 259 
Q 2047 -91 1331 -91 
Q 1053 -91 747 -37 
Q 441 16 72 128 
L 184 722 
Q 500 559 806 475 
Q 1113 391 1394 391 
Q 1816 391 2080 572 
Q 2344 753 2344 1031 
Q 2344 1331 1650 1516 
L 1591 1531 
L 1394 1581 
Q 956 1697 753 1886 
Q 550 2075 550 2369 
Q 550 2928 970 3256 
Q 1391 3584 2113 3584 
Q 2397 3584 2667 3537 
Q 2938 3491 3200 3397 
z
" transform="scale(0.015625)"/>
       <path id="DejaVuSans-2c" d="M 750 794 
L 1409 794 
L 1409 256 
L 897 -744 
L 494 -744 
L 750 256 
L 750 794 
z
" transform="scale(0.015625)"/>
       <path id="DejaVuSans-Oblique-61" d="M 3438 1997 
L 3047 0 
L 2472 0 
L 2578 531 
Q 2325 219 2001 64 
Q 1678 -91 1281 -91 
Q 834 -91 548 182 
Q 263 456 263 884 
Q 263 1497 752 1853 
Q 1241 2209 2100 2209 
L 2900 2209 
L 2931 2363 
Q 2938 2388 2941 2417 
Q 2944 2447 2944 2509 
Q 2944 2788 2717 2942 
Q 2491 3097 2081 3097 
Q 1800 3097 1504 3025 
Q 1209 2953 897 2809 
L 997 3341 
Q 1322 3463 1633 3523 
Q 1944 3584 2234 3584 
Q 2853 3584 3176 3315 
Q 3500 3047 3500 2534 
Q 3500 2431 3484 2292 
Q 3469 2153 3438 1997 
z
M 2816 1759 
L 2241 1759 
Q 1534 1759 1195 1570 
Q 856 1381 856 984 
Q 856 709 1029 553 
Q 1203 397 1509 397 
Q 1978 397 2328 733 
Q 2678 1069 2791 1631 
L 2816 1759 
z
" transform="scale(0.015625)"/>
       <path id="DejaVuSans-29" d="M 513 4856 
L 1013 4856 
Q 1481 4119 1714 3412 
Q 1947 2706 1947 2009 
Q 1947 1309 1714 600 
Q 1481 -109 1013 -844 
L 513 -844 
Q 928 -128 1133 580 
Q 1338 1288 1338 2009 
Q 1338 2731 1133 3434 
Q 928 4138 513 4856 
z
" transform="scale(0.015625)"/>
      </defs>
      <use xlink:href="#DejaVuSans-51" transform="translate(0 0.015625)"/>
      <use xlink:href="#DejaVuSans-2d" transform="translate(78.710938 0.015625)"/>
      <use xlink:href="#DejaVuSans-56" transform="translate(114.794922 0.015625)"/>
      <use xlink:href="#DejaVuSans-61" transform="translate(183.203125 0.015625)"/>
      <use xlink:href="#DejaVuSans-6c" transform="translate(244.482422 0.015625)"/>
      <use xlink:href="#DejaVuSans-75" transform="translate(272.265625 0.015625)"/>
      <use xlink:href="#DejaVuSans-65" transform="translate(335.644531 0.015625)"/>
      <use xlink:href="#DejaVuSans-28" transform="translate(397.167969 0.015625)"/>
      <use xlink:href="#DejaVuSans-Oblique-73" transform="translate(436.181641 0.015625)"/>
      <use xlink:href="#DejaVuSans-30" transform="translate(488.28125 -16.390625) scale(0.7)"/>
      <use xlink:href="#DejaVuSans-2c" transform="translate(535.551758 0.015625)"/>
      <use xlink:href="#DejaVuSans-Oblique-61" transform="translate(586.821289 0.015625)"/>
      <use xlink:href="#DejaVuSans-30" transform="translate(648.100586 -16.390625) scale(0.7)"/>
      <use xlink:href="#DejaVuSans-29" transform="translate(695.371094 0.015625)"/>
     </g>
    </g>
   </g>
   <g id="line2d_25">
    <path d="M 115.363636 44.64 
L 115.66803 53.629612 
L 115.87096 53.629612 
L 116.124622 59.403347 
L 116.276819 59.403347 
L 116.581213 66.725412 
L 116.631945 66.725412 
L 116.987071 74.955023 
L 117.037804 74.955023 
L 117.240733 77.349188 
L 117.39293 77.349188 
L 117.545127 79.648982 
L 117.697324 80.672594 
L 117.849521 80.672594 
L 118.052451 85.996019 
L 118.103183 85.996019 
L 118.25538 89.061641 
L 118.407577 90.007546 
L 118.661239 91.644448 
L 118.762704 91.644448 
L 119.016365 93.694963 
L 119.625153 100.344657 
L 119.77735 100.344657 
L 119.929548 100.852716 
L 120.284674 100.852716 
L 120.436871 102.766258 
L 120.589068 103.440206 
L 120.690533 103.440206 
L 121.248588 109.817791 
L 121.451518 111.094846 
L 121.654447 111.094846 
L 121.806644 111.792416 
L 121.857377 111.792416 
L 122.009574 112.130364 
L 122.060306 112.130364 
L 122.212503 112.954621 
L 122.263235 112.954621 
L 122.415432 114.016649 
L 122.922756 114.016649 
L 123.074953 115.785663 
L 123.125685 115.785663 
L 123.328615 116.355341 
L 123.480812 116.355341 
L 123.734473 117.592459 
L 123.835938 117.592459 
L 124.191065 119.032725 
L 124.444726 119.869063 
L 124.74912 119.869063 
L 125.104247 121.696013 
L 125.256444 121.696013 
L 125.459373 122.415866 
L 125.61157 122.415866 
L 125.763767 122.839942 
L 125.865232 122.839942 
L 126.068161 124.34222 
L 126.169626 124.34222 
L 126.321823 124.691378 
L 126.372555 124.691378 
L 126.423288 125.050003 
L 126.575485 126.259234 
L 126.778414 126.862039 
L 126.981344 126.862039 
L 127.133541 127.277765 
L 127.387202 127.277765 
L 127.590132 128.523954 
L 127.691596 128.523954 
L 127.843793 128.921669 
L 128.148188 128.921669 
L 128.351117 129.714436 
L 128.503314 129.714436 
L 128.655511 130.118799 
L 128.959905 130.118799 
L 129.112102 130.916335 
L 129.162834 130.916335 
L 129.416496 132.256976 
L 129.568693 132.256976 
L 129.771623 133.450426 
L 129.974552 133.795947 
L 130.076017 133.795947 
L 130.228214 133.978153 
L 130.329678 133.978153 
L 130.481875 134.168689 
L 130.837002 134.168689 
L 130.989199 134.381539 
L 131.090664 134.381539 
L 131.242861 134.603759 
L 131.750184 134.603759 
L 132.003846 135.476192 
L 132.409705 135.476192 
L 132.612634 136.062234 
L 132.764831 136.062234 
L 132.917028 136.612668 
L 132.96776 136.612668 
L 133.119957 136.871633 
L 133.17069 136.871633 
L 133.525816 138.315861 
L 133.83021 138.315861 
L 133.982407 138.669489 
L 134.083872 138.669489 
L 134.489731 139.722805 
L 135.250716 139.824673 
L 135.453645 140.115907 
L 135.504378 140.115907 
L 135.758039 140.643669 
L 135.859504 140.643669 
L 136.163898 141.101157 
L 136.265363 141.209769 
L 136.519025 141.529032 
L 136.924883 141.637847 
L 137.178545 142.045122 
L 137.28001 142.045122 
L 137.432207 142.315999 
L 137.787333 142.315999 
L 138.14246 143.24292 
L 138.649783 143.24292 
L 138.80198 143.472172 
L 139.207839 143.472172 
L 139.360036 143.742733 
L 139.613698 143.742733 
L 139.765895 144.517053 
L 140.171754 144.517053 
L 140.476148 145.632737 
L 140.679077 145.632737 
L 140.831274 146.028431 
L 141.287865 146.028431 
L 141.592259 147.186605 
L 141.693724 147.186605 
L 141.896653 147.638368 
L 142.099583 147.638368 
L 142.25178 147.858521 
L 142.302512 147.858521 
L 142.505441 148.318626 
L 142.708371 148.318626 
L 142.860568 148.548838 
L 143.266427 148.548838 
L 143.469356 149.071227 
L 143.672285 149.071227 
L 143.824482 149.55313 
L 143.925947 149.55313 
L 144.128877 150.001034 
L 144.230341 150.001034 
L 144.382538 150.576215 
L 144.433271 150.576215 
L 144.6362 150.918751 
L 144.686932 150.918751 
L 144.940594 151.387455 
L 144.991326 151.387455 
L 145.143523 151.687863 
L 145.346453 151.687863 
L 145.650847 152.467592 
L 145.752312 152.467592 
L 145.904509 152.642267 
L 146.310367 152.642267 
L 146.513297 153.077775 
L 146.766959 153.077775 
L 146.919156 153.315524 
L 147.22355 153.315524 
L 147.426479 153.783217 
L 147.477211 153.783217 
L 147.680141 154.201499 
L 148.390394 154.201499 
L 148.593323 154.696982 
L 148.694788 154.696982 
L 148.846985 154.934917 
L 149.202111 154.934917 
L 149.455773 155.638362 
L 149.557238 155.638362 
L 149.760167 156.032863 
L 149.861632 156.032863 
L 150.115293 156.57146 
L 150.216758 156.57146 
L 150.368955 156.732816 
L 150.47042 156.732816 
L 150.622617 156.897411 
L 150.673349 156.897411 
L 150.876279 157.228365 
L 151.535799 157.228365 
L 151.738728 157.625037 
L 151.789461 157.625037 
L 151.941658 157.816371 
L 152.347517 157.816371 
L 152.550446 158.232526 
L 152.601178 158.232526 
L 152.753375 158.427532 
L 152.956305 158.427532 
L 153.159234 158.809338 
L 153.463628 158.809338 
L 153.615825 159.188509 
L 153.818755 159.188509 
L 154.021684 159.566743 
L 154.326078 159.566743 
L 154.57974 160.261283 
L 155.087063 160.261283 
L 155.289993 160.628414 
L 156.000245 160.628414 
L 156.152443 160.865338 
L 156.406104 160.865338 
L 156.609034 161.34803 
L 156.913428 161.34803 
L 157.065625 161.601708 
L 158.029539 161.601708 
L 158.232469 162.262058 
L 158.283201 162.262058 
L 158.435398 162.567293 
L 159.094919 162.567293 
L 159.247116 162.947859 
L 159.602242 162.947859 
L 159.754439 163.34563 
L 159.805171 163.34563 
L 159.957368 163.716258 
L 160.058833 163.716258 
L 160.21103 164.070755 
L 160.972015 164.070755 
L 161.124212 164.455115 
L 161.479339 164.455115 
L 161.631536 164.841942 
L 161.682268 164.841942 
L 161.834465 165.202916 
L 163.102774 165.202916 
L 163.254971 165.669756 
L 163.305703 165.669756 
L 163.508633 166.516112 
L 163.711562 166.516112 
L 163.863759 166.915503 
L 164.117421 166.915503 
L 164.32035 167.683832 
L 164.574012 167.683832 
L 164.726209 168.042008 
L 165.030603 168.042008 
L 165.1828 169.006619 
L 165.690124 169.006619 
L 165.893053 169.648408 
L 166.501841 169.648408 
L 166.654038 169.999555 
L 166.9077 169.999555 
L 167.059897 170.350347 
L 167.262826 170.350347 
L 167.465756 171.015353 
L 167.820882 171.015353 
L 168.023811 171.659661 
L 169.038458 171.659661 
L 169.190655 172.039344 
L 169.444317 172.039344 
L 169.596514 172.423172 
L 170.560429 172.423172 
L 170.712626 172.851361 
L 171.778005 172.851361 
L 171.980934 173.730887 
L 172.995581 173.730887 
L 173.147778 174.20572 
L 173.299975 174.20572 
L 173.452172 175.05505 
L 173.908764 175.05505 
L 174.060961 175.457198 
L 174.466819 175.457198 
L 174.619016 175.870878 
L 174.669749 175.870878 
L 174.872678 176.620541 
L 176.242452 176.620541 
L 176.445381 177.461192 
L 178.779069 177.461192 
L 178.931266 177.988559 
L 182.076671 177.988559 
L 182.228868 178.688923 
L 182.330333 178.688923 
L 182.533262 180.492079 
L 182.685459 180.492079 
L 182.837656 180.996094 
L 184.055233 180.996094 
L 184.20743 181.536143 
L 185.526471 181.536143 
L 185.678668 182.122889 
L 185.93233 182.122889 
L 186.084527 182.680804 
L 186.338188 182.680804 
L 186.490385 183.21311 
L 187.200638 183.21311 
L 187.352835 183.746608 
L 187.860159 183.746608 
L 188.012356 184.273031 
L 188.925538 184.273031 
L 189.128467 185.307602 
L 189.432861 185.307602 
L 189.585059 185.781622 
L 190.092382 185.781622 
L 190.244579 186.26195 
L 190.346044 186.26195 
L 190.548973 187.476027 
L 190.802635 187.476027 
L 190.954832 187.828937 
L 193.136323 187.828937 
L 193.28852 188.300235 
L 193.339252 188.300235 
L 193.491449 188.739148 
L 193.998773 188.739148 
L 194.15097 189.17495 
L 194.404631 189.17495 
L 194.556828 189.594516 
L 195.01342 189.594516 
L 195.165617 190.009064 
L 195.317814 190.009064 
L 195.470011 190.4029 
L 195.520743 190.4029 
L 195.67294 191.086248 
L 196.53539 191.086248 
L 196.738319 191.732283 
L 198.108093 191.732283 
L 198.26029 192.095328 
L 199.325669 192.095328 
L 199.477866 192.491715 
L 200.086654 192.491715 
L 200.238851 192.886142 
L 200.391048 192.886142 
L 200.543245 193.253356 
L 202.978398 193.253356 
L 203.130595 193.711497 
L 204.246706 193.711497 
L 204.398904 194.181021 
L 204.500368 194.181021 
L 204.652565 194.615043 
L 204.855495 194.615043 
L 205.058424 195.395924 
L 206.123803 195.395924 
L 206.276 195.78901 
L 206.47893 195.78901 
L 206.631127 196.160614 
L 207.290647 196.160614 
L 207.442844 196.533265 
L 207.645774 196.533265 
L 207.797971 196.887732 
L 210.38532 196.887732 
L 210.537517 197.360821 
L 210.943376 197.360821 
L 211.095573 197.819727 
L 212.617544 197.819727 
L 212.769741 198.316641 
L 213.733655 198.316641 
L 213.885852 198.813723 
L 214.646837 198.813723 
L 214.849767 199.756635 
L 215.56002 199.756635 
L 215.712217 200.20646 
L 216.980525 200.20646 
L 217.132722 200.684644 
L 217.792243 200.684644 
L 217.94444 201.158046 
L 218.654693 201.158046 
L 218.80689 201.626715 
L 219.517143 201.626715 
L 219.66934 202.090697 
L 220.430325 202.090697 
L 220.582522 202.550039 
L 221.343507 202.550039 
L 221.495704 203.004787 
L 222.358154 203.004787 
L 222.510351 203.860687 
L 222.966942 203.860687 
L 223.119139 204.255283 
L 223.423533 204.255283 
L 223.57573 204.631504 
L 225.807954 204.631504 
L 225.960151 205.458658 
L 226.619671 205.458658 
L 226.771868 205.843349 
L 227.279192 205.843349 
L 227.482121 206.560503 
L 230.069471 206.560503 
L 230.221668 206.966171 
L 231.287047 206.966171 
L 231.439244 207.376758 
L 232.250961 207.376758 
L 232.403158 207.78324 
L 232.961214 207.78324 
L 233.164144 208.543801 
L 233.316341 208.543801 
L 233.468538 208.880947 
L 234.533917 208.880947 
L 234.686114 209.227969 
L 236.411014 209.227969 
L 236.563211 209.615939 
L 237.273464 209.615939 
L 237.476393 210.352387 
L 237.62859 210.671526 
L 239.759349 210.671526 
L 239.911546 211.045059 
L 240.672531 211.045059 
L 240.824728 211.414858 
L 241.636445 211.414858 
L 241.788643 211.780958 
L 242.093037 211.780958 
L 242.245234 212.437627 
L 242.803289 212.437627 
L 242.955486 212.742221 
L 245.086245 212.742221 
L 245.238442 213.095048 
L 245.796498 213.095048 
L 245.948695 213.438773 
L 246.811145 213.438773 
L 246.963342 213.782163 
L 247.775059 213.782163 
L 247.927256 214.12459 
L 248.688242 214.12459 
L 248.891171 214.7731 
L 250.413141 214.7731 
L 250.565338 215.104014 
L 251.427788 215.104014 
L 251.579985 215.433223 
L 252.391703 215.433223 
L 252.5439 215.75914 
L 253.355617 215.75914 
L 253.558547 216.375315 
L 255.029785 216.375315 
L 255.181982 216.691811 
L 255.892235 216.691811 
L 256.044432 217.005142 
L 256.754685 217.005142 
L 256.906882 217.315339 
L 257.566402 217.315339 
L 257.718599 217.622435 
L 258.428852 217.622435 
L 258.581049 218.200533 
L 260.001555 218.200533 
L 260.153752 218.498777 
L 260.864005 218.498777 
L 261.016202 218.794038 
L 261.726454 218.794038 
L 261.878652 219.086347 
L 262.588904 219.086347 
L 262.741101 219.375732 
L 263.502087 219.375732 
L 263.654284 219.662224 
L 264.364536 219.662224 
L 264.516733 219.94585 
L 265.277719 219.94585 
L 265.429916 220.226641 
L 266.190901 220.226641 
L 266.343098 220.504623 
L 267.053351 220.504623 
L 267.205548 220.779826 
L 267.814336 220.779826 
L 267.966533 221.052277 
L 268.11873 221.052277 
L 268.270927 221.306679 
L 269.082645 221.306679 
L 269.234842 221.563225 
L 270.300221 221.563225 
L 270.452418 221.827842 
L 271.3656 221.827842 
L 271.517797 222.089812 
L 272.22805 222.089812 
L 272.380247 222.349163 
L 273.0905 222.349163 
L 273.242697 222.60592 
L 274.003682 222.60592 
L 274.206612 223.091817 
L 275.880779 223.091817 
L 276.032976 223.341148 
L 276.540299 223.341148 
L 276.692497 223.582974 
L 277.605679 223.582974 
L 277.757876 223.827393 
L 278.011538 223.827393 
L 278.163735 224.056858 
L 279.533508 224.056858 
L 279.685705 224.296538 
L 280.44669 224.296538 
L 280.598887 224.533822 
L 281.359872 224.533822 
L 281.512069 224.768733 
L 282.222322 224.768733 
L 282.374519 225.001294 
L 283.186237 225.001294 
L 283.338434 225.23153 
L 284.099419 225.23153 
L 284.251616 225.459464 
L 285.063334 225.459464 
L 285.215531 225.685118 
L 285.976516 225.685118 
L 286.128713 225.908516 
L 286.889698 225.908516 
L 287.041895 226.12968 
L 287.80288 226.12968 
L 287.955077 226.348632 
L 288.766795 226.348632 
L 288.918992 226.565395 
L 289.679977 226.565395 
L 289.832174 226.77999 
L 289.933639 226.77999 
L 290.085836 226.978494 
L 291.557074 226.978494 
L 291.709271 227.188958 
L 292.571721 227.188958 
L 292.723918 227.397318 
L 293.535635 227.397318 
L 293.687832 227.603594 
L 294.49955 227.603594 
L 294.651747 227.807807 
L 295.463465 227.807807 
L 295.615662 228.009977 
L 296.427379 228.009977 
L 296.579576 228.210127 
L 297.442026 228.210127 
L 297.594223 228.408274 
L 298.405941 228.408274 
L 298.558138 228.604441 
L 299.26839 228.604441 
L 299.420588 228.796533 
L 300.33377 228.796533 
L 300.485967 228.988817 
L 301.348417 228.988817 
L 301.500614 229.179178 
L 302.312331 229.179178 
L 302.464528 229.367635 
L 303.326978 229.367635 
L 303.479175 229.554208 
L 304.087963 229.554208 
L 304.24016 229.735485 
L 305.254807 229.735485 
L 305.407004 229.918379 
L 306.218722 229.918379 
L 306.370919 230.099444 
L 307.131904 230.099444 
L 307.284101 230.278699 
L 308.146551 230.278699 
L 308.298748 230.456161 
L 309.059733 230.456161 
L 309.21193 230.631848 
L 310.07438 230.631848 
L 310.226577 230.805779 
L 310.632436 230.805779 
L 310.784633 230.97229 
L 311.951477 230.97229 
L 312.103674 231.142816 
L 312.915392 231.142816 
L 313.067589 231.311637 
L 313.727109 231.311637 
L 313.879306 231.475728 
L 314.843221 231.475728 
L 314.995418 231.64122 
L 315.857868 231.64122 
L 316.010065 231.805057 
L 316.821782 231.805057 
L 316.973979 231.967255 
L 317.785697 231.967255 
L 317.937894 232.127831 
L 318.800344 232.127831 
L 318.952541 232.286802 
L 319.713526 232.286802 
L 319.865723 232.444183 
L 320.88037 232.444183 
L 321.032567 232.59999 
L 321.844284 232.59999 
L 321.996481 232.754239 
L 322.909664 232.754239 
L 323.061861 232.906946 
L 323.924311 232.906946 
L 324.076508 233.058125 
L 324.938958 233.058125 
L 325.091155 233.207793 
L 326.004337 233.207793 
L 326.156534 233.355964 
L 327.018984 233.355964 
L 327.171181 233.502653 
L 328.033631 233.502653 
L 328.185828 233.647876 
L 328.997545 233.647876 
L 329.149742 233.791646 
L 330.062924 233.791646 
L 330.265854 234.064028 
L 331.077571 234.064028 
L 331.229768 234.192402 
L 332.903936 234.192402 
L 333.056133 234.330727 
L 333.918583 234.330727 
L 334.07078 234.467669 
L 334.172244 234.467669 
L 334.324442 234.593214 
L 335.744947 234.593214 
L 335.897144 234.724027 
L 337.063988 234.724027 
L 337.216185 234.857036 
L 337.571312 234.857036 
L 337.723509 234.983043 
L 339.093282 234.983043 
L 339.245479 235.113462 
L 340.158661 235.113462 
L 340.310858 235.242576 
L 341.173308 235.242576 
L 341.325505 235.370399 
L 342.28942 235.370399 
L 342.441617 235.496944 
L 343.354799 235.496944 
L 343.506996 235.622224 
L 344.470911 235.622224 
L 344.623108 235.746251 
L 345.485558 235.746251 
L 345.637755 235.869037 
L 346.601669 235.869037 
L 346.753866 235.990596 
L 347.616316 235.990596 
L 347.768513 236.110939 
L 348.732428 236.110939 
L 348.884625 236.230078 
L 349.797807 236.230078 
L 349.950004 236.348026 
L 350.913919 236.348026 
L 351.066116 236.464795 
L 351.979298 236.464795 
L 352.131495 236.580396 
L 353.09541 236.580396 
L 353.247607 236.694841 
L 354.211521 236.694841 
L 354.363718 236.808142 
L 355.2769 236.808142 
L 355.429097 236.920309 
L 357.407659 237.031355 
L 357.559856 237.141291 
L 359.690615 237.250127 
L 359.842812 237.357874 
L 361.872105 237.464545 
L 362.024302 237.570148 
L 363.444808 237.672133 
L 363.597005 237.770941 
L 366.184355 237.87348 
L 366.336552 237.974994 
L 368.365846 238.075493 
L 368.518043 238.174987 
L 370.598069 238.273486 
L 370.750266 238.371 
L 371.967842 238.467539 
L 372.120039 238.557 
L 374.961051 238.651679 
L 375.113248 238.745412 
L 377.142542 238.835688 
L 377.294739 238.92758 
L 379.425497 239.018553 
L 379.577694 239.108617 
L 381.65772 239.19778 
L 381.809917 239.286051 
L 383.889944 239.373439 
L 384.092873 239.538663 
L 386.223631 239.623525 
L 386.375828 239.701513 
L 389.318305 239.784747 
L 389.470502 239.867148 
L 391.60126 239.948726 
L 391.753457 240.029487 
L 393.934948 240.109442 
L 394.087145 240.188596 
L 396.268636 240.266959 
L 396.420833 240.344538 
L 398.551592 240.421342 
L 398.703789 240.497378 
L 400.936012 240.572653 
L 401.088209 240.647175 
L 403.320432 240.720952 
L 403.472629 240.793992 
L 405.755585 240.866301 
L 405.907782 240.937887 
L 408.24147 241.008757 
L 408.393667 241.078918 
L 410.778087 241.148378 
L 410.930284 241.217143 
L 413.263972 241.282916 
L 413.416169 241.350335 
L 415.800589 241.417081 
L 415.952786 241.483159 
L 418.387939 241.548577 
L 418.540136 241.61334 
L 420.924556 241.677455 
L 421.076753 241.74093 
L 423.461173 241.803769 
L 423.61337 241.865981 
L 426.048523 241.92757 
L 426.20072 241.988543 
L 428.686605 242.048907 
L 428.838802 242.108666 
L 431.273955 242.167829 
L 431.426152 242.226399 
L 433.861304 242.284384 
L 434.013501 242.34179 
L 437.66623 242.450938 
L 437.818427 242.506678 
L 441.724818 242.61649 
L 441.927747 242.670574 
L 445.834138 242.777125 
L 446.037067 242.829603 
L 449.689796 242.929693 
L 449.892726 242.980645 
L 453.900581 243.081025 
L 454.10351 243.130464 
L 456.69086 243.227863 
L 456.893789 243.271721 
L 462.068489 243.366309 
L 462.271418 243.412895 
L 466.330006 243.504133 
L 466.532935 243.54934 
L 470.54079 243.638404 
L 470.74372 243.682269 
L 474.903772 243.768687 
L 475.106702 243.811249 
L 479.165289 243.895101 
L 479.368219 243.936399 
L 483.477539 244.01776 
L 483.680468 244.057831 
L 487.941985 244.136776 
L 488.144914 244.175657 
L 492.355699 244.252016 
L 492.558629 244.289745 
L 498.392848 244.400682 
L 498.595778 244.436925 
L 504.531462 244.543467 
L 504.734392 244.578281 
L 510.771541 244.680649 
L 510.97447 244.714091 
L 515.540381 244.811773 
L 515.794043 244.841326 
L 523.150233 244.935881 
L 523.403895 244.966772 
L 529.491776 245.055366 
L 529.745438 245.085061 
L 537.659684 245.196133 
L 537.913346 245.22442 
L 545.979789 245.33477 
L 546.233451 245.361671 
L 554.756485 245.466613 
L 555.010146 245.492196 
L 563.73611 245.591994 
L 564.040504 245.616323 
L 571.904018 245.709508 
L 572.208412 245.731747 
L 581.949022 245.822106 
L 582.253416 245.844134 
L 593.313068 245.950009 
L 593.617462 245.970758 
L 604.727846 246.071431 
L 605.082972 246.090655 
L 616.802144 246.185452 
L 617.15727 246.203759 
L 622.636364 246.24 
L 622.636364 246.24 
" clip-path="url(#p06315e4c73)" style="fill: none; stroke: #0000ff; stroke-width: 2; stroke-linecap: square"/>
   </g>
   <g id="patch_3">
    <path d="M 90 256.32 
L 90 34.56 
" style="fill: none; stroke: #000000; stroke-width: 0.8; stroke-linejoin: miter; stroke-linecap: square"/>
   </g>
   <g id="patch_4">
    <path d="M 648 256.32 
L 648 34.56 
" style="fill: none; stroke: #000000; stroke-width: 0.8; stroke-linejoin: miter; stroke-linecap: square"/>
   </g>
   <g id="patch_5">
    <path d="M 90 256.32 
L 648 256.32 
" style="fill: none; stroke: #000000; stroke-width: 0.8; stroke-linejoin: miter; stroke-linecap: square"/>
   </g>
   <g id="patch_6">
    <path d="M 90 34.56 
L 648 34.56 
" style="fill: none; stroke: #000000; stroke-width: 0.8; stroke-linejoin: miter; stroke-linecap: square"/>
   </g>
   <g id="text_15">
    <!-- Q_learning Q-Value Convergence -->
    <g transform="translate(270.244687 28.56) scale(0.12 -0.12)">
     <defs>
      <path id="DejaVuSans-5f" d="M 3263 -1063 
L 3263 -1509 
L -63 -1509 
L -63 -1063 
L 3263 -1063 
z
" transform="scale(0.015625)"/>
      <path id="DejaVuSans-67" d="M 2906 1791 
Q 2906 2416 2648 2759 
Q 2391 3103 1925 3103 
Q 1463 3103 1205 2759 
Q 947 2416 947 1791 
Q 947 1169 1205 825 
Q 1463 481 1925 481 
Q 2391 481 2648 825 
Q 2906 1169 2906 1791 
z
M 3481 434 
Q 3481 -459 3084 -895 
Q 2688 -1331 1869 -1331 
Q 1566 -1331 1297 -1286 
Q 1028 -1241 775 -1147 
L 775 -588 
Q 1028 -725 1275 -790 
Q 1522 -856 1778 -856 
Q 2344 -856 2625 -561 
Q 2906 -266 2906 331 
L 2906 616 
Q 2728 306 2450 153 
Q 2172 0 1784 0 
Q 1141 0 747 490 
Q 353 981 353 1791 
Q 353 2603 747 3093 
Q 1141 3584 1784 3584 
Q 2172 3584 2450 3431 
Q 2728 3278 2906 2969 
L 2906 3500 
L 3481 3500 
L 3481 434 
z
" transform="scale(0.015625)"/>
      <path id="DejaVuSans-20" transform="scale(0.015625)"/>
      <path id="DejaVuSans-43" d="M 4122 4306 
L 4122 3641 
Q 3803 3938 3442 4084 
Q 3081 4231 2675 4231 
Q 1875 4231 1450 3742 
Q 1025 3253 1025 2328 
Q 1025 1406 1450 917 
Q 1875 428 2675 428 
Q 3081 428 3442 575 
Q 3803 722 4122 1019 
L 4122 359 
Q 3791 134 3420 21 
Q 3050 -91 2638 -91 
Q 1578 -91 968 557 
Q 359 1206 359 2328 
Q 359 3453 968 4101 
Q 1578 4750 2638 4750 
Q 3056 4750 3426 4639 
Q 3797 4528 4122 4306 
z
" transform="scale(0.015625)"/>
      <path id="DejaVuSans-76" d="M 191 3500 
L 800 3500 
L 1894 563 
L 2988 3500 
L 3597 3500 
L 2284 0 
L 1503 0 
L 191 3500 
z
" transform="scale(0.015625)"/>
      <path id="DejaVuSans-63" d="M 3122 3366 
L 3122 2828 
Q 2878 2963 2633 3030 
Q 2388 3097 2138 3097 
Q 1578 3097 1268 2742 
Q 959 2388 959 1747 
Q 959 1106 1268 751 
Q 1578 397 2138 397 
Q 2388 397 2633 464 
Q 2878 531 3122 666 
L 3122 134 
Q 2881 22 2623 -34 
Q 2366 -91 2075 -91 
Q 1284 -91 818 406 
Q 353 903 353 1747 
Q 353 2603 823 3093 
Q 1294 3584 2113 3584 
Q 2378 3584 2631 3529 
Q 2884 3475 3122 3366 
z
" transform="scale(0.015625)"/>
     </defs>
     <use xlink:href="#DejaVuSans-51"/>
     <use xlink:href="#DejaVuSans-5f" transform="translate(78.710938 0)"/>
     <use xlink:href="#DejaVuSans-6c" transform="translate(128.710938 0)"/>
     <use xlink:href="#DejaVuSans-65" transform="translate(156.494141 0)"/>
     <use xlink:href="#DejaVuSans-61" transform="translate(218.017578 0)"/>
     <use xlink:href="#DejaVuSans-72" transform="translate(279.296875 0)"/>
     <use xlink:href="#DejaVuSans-6e" transform="translate(318.660156 0)"/>
     <use xlink:href="#DejaVuSans-69" transform="translate(382.039062 0)"/>
     <use xlink:href="#DejaVuSans-6e" transform="translate(409.822266 0)"/>
     <use xlink:href="#DejaVuSans-67" transform="translate(473.201172 0)"/>
     <use xlink:href="#DejaVuSans-20" transform="translate(536.677734 0)"/>
     <use xlink:href="#DejaVuSans-51" transform="translate(568.464844 0)"/>
     <use xlink:href="#DejaVuSans-2d" transform="translate(649.925781 0)"/>
     <use xlink:href="#DejaVuSans-56" transform="translate(680.134766 0)"/>
     <use xlink:href="#DejaVuSans-61" transform="translate(740.792969 0)"/>
     <use xlink:href="#DejaVuSans-6c" transform="translate(802.072266 0)"/>
     <use xlink:href="#DejaVuSans-75" transform="translate(829.855469 0)"/>
     <use xlink:href="#DejaVuSans-65" transform="translate(893.234375 0)"/>
     <use xlink:href="#DejaVuSans-20" transform="translate(954.757812 0)"/>
     <use xlink:href="#DejaVuSans-43" transform="translate(986.544922 0)"/>
     <use xlink:href="#DejaVuSans-6f" transform="translate(1056.369141 0)"/>
     <use xlink:href="#DejaVuSans-6e" transform="translate(1117.550781 0)"/>
     <use xlink:href="#DejaVuSans-76" transform="translate(1180.929688 0)"/>
     <use xlink:href="#DejaVuSans-65" transform="translate(1240.109375 0)"/>
     <use xlink:href="#DejaVuSans-72" transform="translate(1301.632812 0)"/>
     <use xlink:href="#DejaVuSans-67" transform="translate(1340.996094 0)"/>
     <use xlink:href="#DejaVuSans-65" transform="translate(1404.472656 0)"/>
     <use xlink:href="#DejaVuSans-6e" transform="translate(1465.996094 0)"/>
     <use xlink:href="#DejaVuSans-63" transform="translate(1529.375 0)"/>
     <use xlink:href="#DejaVuSans-65" transform="translate(1584.355469 0)"/>
    </g>
   </g>
  </g>
 </g>
 <defs>
  <clipPath id="p06315e4c73">
   <rect x="90" y="34.56" width="558" height="221.76"/>
  </clipPath>
 </defs>
</svg>
