<?xml version="1.0" encoding="utf-8" standalone="no"?>
<!DOCTYPE svg PUBLIC "-//W3C//DTD SVG 1.1//EN"
  "http://www.w3.org/Graphics/SVG/1.1/DTD/svg11.dtd">
<svg xmlns:xlink="http://www.w3.org/1999/xlink" width="720pt" height="432pt" viewBox="0 0 720 432" xmlns="http://www.w3.org/2000/svg" version="1.1">
 <metadata>
  <rdf:RDF xmlns:dc="http://purl.org/dc/elements/1.1/" xmlns:cc="http://creativecommons.org/ns#" xmlns:rdf="http://www.w3.org/1999/02/22-rdf-syntax-ns#">
   <cc:Work>
    <dc:type rdf:resource="http://purl.org/dc/dcmitype/StillImage"/>
    <dc:date>2025-12-06T11:58:45.054252</dc:date>
    <dc:format>image/svg+xml</dc:format>
    <dc:creator>
     <cc:Agent>
      <dc:title>Matplotlib v3.10.7, https://matplotlib.org/</dc:title>
     </cc:Agent>
    </dc:creator>
   </cc:Work>
  </rdf:RDF>
 </metadata>
 <defs>
  <style type="text/css">*{stroke-linejoin: round; stroke-linecap: butt}</style>
 </defs>
 <g id="figure_1">
  <g id="patch_1">
   <path d="M 0 432 
L 720 432 
L 720 0 
L 0 0 
z
" style="fill: #ffffff"/>
  </g>
  <g id="axes_1">
   <g id="patch_2">
    <path d="M 90 384.48 
L 648 384.48 
L 648 51.84 
L 90 51.84 
z
" style="fill: #ffffff"/>
   </g>
   <g id="matplotlib.axis_1">
    <g id="xtick_1">
     <g id="line2d_1">
      <path d="M 115.363636 384.48 
L 115.363636 51.84 
" clip-path="url(#p5f78c5b22f)" style="fill: none; stroke-dasharray: 2.96,1.28; stroke-dashoffset: 0; stroke: #b0b0b0; stroke-opacity: 0.7; stroke-width: 0.8"/>
     </g>
     <g id="line2d_2">
      <defs>
       <path id="m637674ab40" d="M 0 0 
L 0 3.5 
" style="stroke: #000000; stroke-width: 0.8"/>
      </defs>
      <g>
       <use xlink:href="#m637674ab40" x="115.363636" y="384.48" style="stroke: #000000; stroke-width: 0.8"/>
      </g>
     </g>
     <g id="text_1">
      <!-- 0 -->
      <g transform="translate(112.182386 399.078438) scale(0.1 -0.1)">
       <defs>
        <path id="DejaVuSans-30" d="M 2034 4250 
Q 1547 4250 1301 3770 
Q 1056 3291 1056 2328 
Q 1056 1369 1301 889 
Q 1547 409 2034 409 
Q 2525 409 2770 889 
Q 3016 1369 3016 2328 
Q 3016 3291 2770 3770 
Q 2525 4250 2034 4250 
z
M 2034 4750 
Q 2819 4750 3233 4129 
Q 3647 3509 3647 2328 
Q 3647 1150 3233 529 
Q 2819 -91 2034 -91 
Q 1250 -91 836 529 
Q 422 1150 422 2328 
Q 422 3509 836 4129 
Q 1250 4750 2034 4750 
z
" transform="scale(0.015625)"/>
       </defs>
       <use xlink:href="#DejaVuSans-30"/>
      </g>
     </g>
    </g>
    <g id="xtick_2">
     <g id="line2d_3">
      <path d="M 183 384.48 
L 183 51.84 
" clip-path="url(#p5f78c5b22f)" style="fill: none; stroke-dasharray: 2.96,1.28; stroke-dashoffset: 0; stroke: #b0b0b0; stroke-opacity: 0.7; stroke-width: 0.8"/>
     </g>
     <g id="line2d_4">
      <g>
       <use xlink:href="#m637674ab40" x="183" y="384.48" style="stroke: #000000; stroke-width: 0.8"/>
      </g>
     </g>
     <g id="text_2">
      <!-- 200 -->
      <g transform="translate(173.45625 399.078438) scale(0.1 -0.1)">
       <defs>
        <path id="DejaVuSans-32" d="M 1228 531 
L 3431 531 
L 3431 0 
L 469 0 
L 469 531 
Q 828 903 1448 1529 
Q 2069 2156 2228 2338 
Q 2531 2678 2651 2914 
Q 2772 3150 2772 3378 
Q 2772 3750 2511 3984 
Q 2250 4219 1831 4219 
Q 1534 4219 1204 4116 
Q 875 4013 500 3803 
L 500 4441 
Q 881 4594 1212 4672 
Q 1544 4750 1819 4750 
Q 2544 4750 2975 4387 
Q 3406 4025 3406 3419 
Q 3406 3131 3298 2873 
Q 3191 2616 2906 2266 
Q 2828 2175 2409 1742 
Q 1991 1309 1228 531 
z
" transform="scale(0.015625)"/>
       </defs>
       <use xlink:href="#DejaVuSans-32"/>
       <use xlink:href="#DejaVuSans-30" transform="translate(63.623047 0)"/>
       <use xlink:href="#DejaVuSans-30" transform="translate(127.246094 0)"/>
      </g>
     </g>
    </g>
    <g id="xtick_3">
     <g id="line2d_5">
      <path d="M 250.636364 384.48 
L 250.636364 51.84 
" clip-path="url(#p5f78c5b22f)" style="fill: none; stroke-dasharray: 2.96,1.28; stroke-dashoffset: 0; stroke: #b0b0b0; stroke-opacity: 0.7; stroke-width: 0.8"/>
     </g>
     <g id="line2d_6">
      <g>
       <use xlink:href="#m637674ab40" x="250.636364" y="384.48" style="stroke: #000000; stroke-width: 0.8"/>
      </g>
     </g>
     <g id="text_3">
      <!-- 400 -->
      <g transform="translate(241.092614 399.078438) scale(0.1 -0.1)">
       <defs>
        <path id="DejaVuSans-34" d="M 2419 4116 
L 825 1625 
L 2419 1625 
L 2419 4116 
z
M 2253 4666 
L 3047 4666 
L 3047 1625 
L 3713 1625 
L 3713 1100 
L 3047 1100 
L 3047 0 
L 2419 0 
L 2419 1100 
L 313 1100 
L 313 1709 
L 2253 4666 
z
" transform="scale(0.015625)"/>
       </defs>
       <use xlink:href="#DejaVuSans-34"/>
       <use xlink:href="#DejaVuSans-30" transform="translate(63.623047 0)"/>
       <use xlink:href="#DejaVuSans-30" transform="translate(127.246094 0)"/>
      </g>
     </g>
    </g>
    <g id="xtick_4">
     <g id="line2d_7">
      <path d="M 318.272727 384.48 
L 318.272727 51.84 
" clip-path="url(#p5f78c5b22f)" style="fill: none; stroke-dasharray: 2.96,1.28; stroke-dashoffset: 0; stroke: #b0b0b0; stroke-opacity: 0.7; stroke-width: 0.8"/>
     </g>
     <g id="line2d_8">
      <g>
       <use xlink:href="#m637674ab40" x="318.272727" y="384.48" style="stroke: #000000; stroke-width: 0.8"/>
      </g>
     </g>
     <g id="text_4">
      <!-- 600 -->
      <g transform="translate(308.728977 399.078438) scale(0.1 -0.1)">
       <defs>
        <path id="DejaVuSans-36" d="M 2113 2584 
Q 1688 2584 1439 2293 
Q 1191 2003 1191 1497 
Q 1191 994 1439 701 
Q 1688 409 2113 409 
Q 2538 409 2786 701 
Q 3034 994 3034 1497 
Q 3034 2003 2786 2293 
Q 2538 2584 2113 2584 
z
M 3366 4563 
L 3366 3988 
Q 3128 4100 2886 4159 
Q 2644 4219 2406 4219 
Q 1781 4219 1451 3797 
Q 1122 3375 1075 2522 
Q 1259 2794 1537 2939 
Q 1816 3084 2150 3084 
Q 2853 3084 3261 2657 
Q 3669 2231 3669 1497 
Q 3669 778 3244 343 
Q 2819 -91 2113 -91 
Q 1303 -91 875 529 
Q 447 1150 447 2328 
Q 447 3434 972 4092 
Q 1497 4750 2381 4750 
Q 2619 4750 2861 4703 
Q 3103 4656 3366 4563 
z
" transform="scale(0.015625)"/>
       </defs>
       <use xlink:href="#DejaVuSans-36"/>
       <use xlink:href="#DejaVuSans-30" transform="translate(63.623047 0)"/>
       <use xlink:href="#DejaVuSans-30" transform="translate(127.246094 0)"/>
      </g>
     </g>
    </g>
    <g id="xtick_5">
     <g id="line2d_9">
      <path d="M 385.909091 384.48 
L 385.909091 51.84 
" clip-path="url(#p5f78c5b22f)" style="fill: none; stroke-dasharray: 2.96,1.28; stroke-dashoffset: 0; stroke: #b0b0b0; stroke-opacity: 0.7; stroke-width: 0.8"/>
     </g>
     <g id="line2d_10">
      <g>
       <use xlink:href="#m637674ab40" x="385.909091" y="384.48" style="stroke: #000000; stroke-width: 0.8"/>
      </g>
     </g>
     <g id="text_5">
      <!-- 800 -->
      <g transform="translate(376.365341 399.078438) scale(0.1 -0.1)">
       <defs>
        <path id="DejaVuSans-38" d="M 2034 2216 
Q 1584 2216 1326 1975 
Q 1069 1734 1069 1313 
Q 1069 891 1326 650 
Q 1584 409 2034 409 
Q 2484 409 2743 651 
Q 3003 894 3003 1313 
Q 3003 1734 2745 1975 
Q 2488 2216 2034 2216 
z
M 1403 2484 
Q 997 2584 770 2862 
Q 544 3141 544 3541 
Q 544 4100 942 4425 
Q 1341 4750 2034 4750 
Q 2731 4750 3128 4425 
Q 3525 4100 3525 3541 
Q 3525 3141 3298 2862 
Q 3072 2584 2669 2484 
Q 3125 2378 3379 2068 
Q 3634 1759 3634 1313 
Q 3634 634 3220 271 
Q 2806 -91 2034 -91 
Q 1263 -91 848 271 
Q 434 634 434 1313 
Q 434 1759 690 2068 
Q 947 2378 1403 2484 
z
M 1172 3481 
Q 1172 3119 1398 2916 
Q 1625 2713 2034 2713 
Q 2441 2713 2670 2916 
Q 2900 3119 2900 3481 
Q 2900 3844 2670 4047 
Q 2441 4250 2034 4250 
Q 1625 4250 1398 4047 
Q 1172 3844 1172 3481 
z
" transform="scale(0.015625)"/>
       </defs>
       <use xlink:href="#DejaVuSans-38"/>
       <use xlink:href="#DejaVuSans-30" transform="translate(63.623047 0)"/>
       <use xlink:href="#DejaVuSans-30" transform="translate(127.246094 0)"/>
      </g>
     </g>
    </g>
    <g id="xtick_6">
     <g id="line2d_11">
      <path d="M 453.545455 384.48 
L 453.545455 51.84 
" clip-path="url(#p5f78c5b22f)" style="fill: none; stroke-dasharray: 2.96,1.28; stroke-dashoffset: 0; stroke: #b0b0b0; stroke-opacity: 0.7; stroke-width: 0.8"/>
     </g>
     <g id="line2d_12">
      <g>
       <use xlink:href="#m637674ab40" x="453.545455" y="384.48" style="stroke: #000000; stroke-width: 0.8"/>
      </g>
     </g>
     <g id="text_6">
      <!-- 1000 -->
      <g transform="translate(440.820455 399.078438) scale(0.1 -0.1)">
       <defs>
        <path id="DejaVuSans-31" d="M 794 531 
L 1825 531 
L 1825 4091 
L 703 3866 
L 703 4441 
L 1819 4666 
L 2450 4666 
L 2450 531 
L 3481 531 
L 3481 0 
L 794 0 
L 794 531 
z
" transform="scale(0.015625)"/>
       </defs>
       <use xlink:href="#DejaVuSans-31"/>
       <use xlink:href="#DejaVuSans-30" transform="translate(63.623047 0)"/>
       <use xlink:href="#DejaVuSans-30" transform="translate(127.246094 0)"/>
       <use xlink:href="#DejaVuSans-30" transform="translate(190.869141 0)"/>
      </g>
     </g>
    </g>
    <g id="xtick_7">
     <g id="line2d_13">
      <path d="M 521.181818 384.48 
L 521.181818 51.84 
" clip-path="url(#p5f78c5b22f)" style="fill: none; stroke-dasharray: 2.96,1.28; stroke-dashoffset: 0; stroke: #b0b0b0; stroke-opacity: 0.7; stroke-width: 0.8"/>
     </g>
     <g id="line2d_14">
      <g>
       <use xlink:href="#m637674ab40" x="521.181818" y="384.48" style="stroke: #000000; stroke-width: 0.8"/>
      </g>
     </g>
     <g id="text_7">
      <!-- 1200 -->
      <g transform="translate(508.456818 399.078438) scale(0.1 -0.1)">
       <use xlink:href="#DejaVuSans-31"/>
       <use xlink:href="#DejaVuSans-32" transform="translate(63.623047 0)"/>
       <use xlink:href="#DejaVuSans-30" transform="translate(127.246094 0)"/>
       <use xlink:href="#DejaVuSans-30" transform="translate(190.869141 0)"/>
      </g>
     </g>
    </g>
    <g id="xtick_8">
     <g id="line2d_15">
      <path d="M 588.818182 384.48 
L 588.818182 51.84 
" clip-path="url(#p5f78c5b22f)" style="fill: none; stroke-dasharray: 2.96,1.28; stroke-dashoffset: 0; stroke: #b0b0b0; stroke-opacity: 0.7; stroke-width: 0.8"/>
     </g>
     <g id="line2d_16">
      <g>
       <use xlink:href="#m637674ab40" x="588.818182" y="384.48" style="stroke: #000000; stroke-width: 0.8"/>
      </g>
     </g>
     <g id="text_8">
      <!-- 1400 -->
      <g transform="translate(576.093182 399.078438) scale(0.1 -0.1)">
       <use xlink:href="#DejaVuSans-31"/>
       <use xlink:href="#DejaVuSans-34" transform="translate(63.623047 0)"/>
       <use xlink:href="#DejaVuSans-30" transform="translate(127.246094 0)"/>
       <use xlink:href="#DejaVuSans-30" transform="translate(190.869141 0)"/>
      </g>
     </g>
    </g>
    <g id="text_9">
     <!-- Episode -->
     <g transform="translate(349.3625 412.756563) scale(0.1 -0.1)">
      <defs>
       <path id="DejaVuSans-45" d="M 628 4666 
L 3578 4666 
L 3578 4134 
L 1259 4134 
L 1259 2753 
L 3481 2753 
L 3481 2222 
L 1259 2222 
L 1259 531 
L 3634 531 
L 3634 0 
L 628 0 
L 628 4666 
z
" transform="scale(0.015625)"/>
       <path id="DejaVuSans-70" d="M 1159 525 
L 1159 -1331 
L 581 -1331 
L 581 3500 
L 1159 3500 
L 1159 2969 
Q 1341 3281 1617 3432 
Q 1894 3584 2278 3584 
Q 2916 3584 3314 3078 
Q 3713 2572 3713 1747 
Q 3713 922 3314 415 
Q 2916 -91 2278 -91 
Q 1894 -91 1617 61 
Q 1341 213 1159 525 
z
M 3116 1747 
Q 3116 2381 2855 2742 
Q 2594 3103 2138 3103 
Q 1681 3103 1420 2742 
Q 1159 2381 1159 1747 
Q 1159 1113 1420 752 
Q 1681 391 2138 391 
Q 2594 391 2855 752 
Q 3116 1113 3116 1747 
z
" transform="scale(0.015625)"/>
       <path id="DejaVuSans-69" d="M 603 3500 
L 1178 3500 
L 1178 0 
L 603 0 
L 603 3500 
z
M 603 4863 
L 1178 4863 
L 1178 4134 
L 603 4134 
L 603 4863 
z
" transform="scale(0.015625)"/>
       <path id="DejaVuSans-73" d="M 2834 3397 
L 2834 2853 
Q 2591 2978 2328 3040 
Q 2066 3103 1784 3103 
Q 1356 3103 1142 2972 
Q 928 2841 928 2578 
Q 928 2378 1081 2264 
Q 1234 2150 1697 2047 
L 1894 2003 
Q 2506 1872 2764 1633 
Q 3022 1394 3022 966 
Q 3022 478 2636 193 
Q 2250 -91 1575 -91 
Q 1294 -91 989 -36 
Q 684 19 347 128 
L 347 722 
Q 666 556 975 473 
Q 1284 391 1588 391 
Q 1994 391 2212 530 
Q 2431 669 2431 922 
Q 2431 1156 2273 1281 
Q 2116 1406 1581 1522 
L 1381 1569 
Q 847 1681 609 1914 
Q 372 2147 372 2553 
Q 372 3047 722 3315 
Q 1072 3584 1716 3584 
Q 2034 3584 2315 3537 
Q 2597 3491 2834 3397 
z
" transform="scale(0.015625)"/>
       <path id="DejaVuSans-6f" d="M 1959 3097 
Q 1497 3097 1228 2736 
Q 959 2375 959 1747 
Q 959 1119 1226 758 
Q 1494 397 1959 397 
Q 2419 397 2687 759 
Q 2956 1122 2956 1747 
Q 2956 2369 2687 2733 
Q 2419 3097 1959 3097 
z
M 1959 3584 
Q 2709 3584 3137 3096 
Q 3566 2609 3566 1747 
Q 3566 888 3137 398 
Q 2709 -91 1959 -91 
Q 1206 -91 779 398 
Q 353 888 353 1747 
Q 353 2609 779 3096 
Q 1206 3584 1959 3584 
z
" transform="scale(0.015625)"/>
       <path id="DejaVuSans-64" d="M 2906 2969 
L 2906 4863 
L 3481 4863 
L 3481 0 
L 2906 0 
L 2906 525 
Q 2725 213 2448 61 
Q 2172 -91 1784 -91 
Q 1150 -91 751 415 
Q 353 922 353 1747 
Q 353 2572 751 3078 
Q 1150 3584 1784 3584 
Q 2172 3584 2448 3432 
Q 2725 3281 2906 2969 
z
M 947 1747 
Q 947 1113 1208 752 
Q 1469 391 1925 391 
Q 2381 391 2643 752 
Q 2906 1113 2906 1747 
Q 2906 2381 2643 2742 
Q 2381 3103 1925 3103 
Q 1469 3103 1208 2742 
Q 947 2381 947 1747 
z
" transform="scale(0.015625)"/>
       <path id="DejaVuSans-65" d="M 3597 1894 
L 3597 1613 
L 953 1613 
Q 991 1019 1311 708 
Q 1631 397 2203 397 
Q 2534 397 2845 478 
Q 3156 559 3463 722 
L 3463 178 
Q 3153 47 2828 -22 
Q 2503 -91 2169 -91 
Q 1331 -91 842 396 
Q 353 884 353 1716 
Q 353 2575 817 3079 
Q 1281 3584 2069 3584 
Q 2775 3584 3186 3129 
Q 3597 2675 3597 1894 
z
M 3022 2063 
Q 3016 2534 2758 2815 
Q 2500 3097 2075 3097 
Q 1594 3097 1305 2825 
Q 1016 2553 972 2059 
L 3022 2063 
z
" transform="scale(0.015625)"/>
      </defs>
      <use xlink:href="#DejaVuSans-45"/>
      <use xlink:href="#DejaVuSans-70" transform="translate(63.183594 0)"/>
      <use xlink:href="#DejaVuSans-69" transform="translate(126.660156 0)"/>
      <use xlink:href="#DejaVuSans-73" transform="translate(154.443359 0)"/>
      <use xlink:href="#DejaVuSans-6f" transform="translate(206.542969 0)"/>
      <use xlink:href="#DejaVuSans-64" transform="translate(267.724609 0)"/>
      <use xlink:href="#DejaVuSans-65" transform="translate(331.201172 0)"/>
     </g>
    </g>
   </g>
   <g id="matplotlib.axis_2">
    <g id="ytick_1">
     <g id="line2d_17">
      <path d="M 90 343.357452 
L 648 343.357452 
" clip-path="url(#p5f78c5b22f)" style="fill: none; stroke-dasharray: 2.96,1.28; stroke-dashoffset: 0; stroke: #b0b0b0; stroke-opacity: 0.7; stroke-width: 0.8"/>
     </g>
     <g id="line2d_18">
      <defs>
       <path id="m3ba3ad4277" d="M 0 0 
L -3.5 0 
" style="stroke: #000000; stroke-width: 0.8"/>
      </defs>
      <g>
       <use xlink:href="#m3ba3ad4277" x="90" y="343.357452" style="stroke: #000000; stroke-width: 0.8"/>
      </g>
     </g>
     <g id="text_10">
      <!-- −2.0 -->
      <g transform="translate(58.717187 347.156671) scale(0.1 -0.1)">
       <defs>
        <path id="DejaVuSans-2212" d="M 678 2272 
L 4684 2272 
L 4684 1741 
L 678 1741 
L 678 2272 
z
" transform="scale(0.015625)"/>
        <path id="DejaVuSans-2e" d="M 684 794 
L 1344 794 
L 1344 0 
L 684 0 
L 684 794 
z
" transform="scale(0.015625)"/>
       </defs>
       <use xlink:href="#DejaVuSans-2212"/>
       <use xlink:href="#DejaVuSans-32" transform="translate(83.789062 0)"/>
       <use xlink:href="#DejaVuSans-2e" transform="translate(147.412109 0)"/>
       <use xlink:href="#DejaVuSans-30" transform="translate(179.199219 0)"/>
      </g>
     </g>
    </g>
    <g id="ytick_2">
     <g id="line2d_19">
      <path d="M 90 295.204586 
L 648 295.204586 
" clip-path="url(#p5f78c5b22f)" style="fill: none; stroke-dasharray: 2.96,1.28; stroke-dashoffset: 0; stroke: #b0b0b0; stroke-opacity: 0.7; stroke-width: 0.8"/>
     </g>
     <g id="line2d_20">
      <g>
       <use xlink:href="#m3ba3ad4277" x="90" y="295.204586" style="stroke: #000000; stroke-width: 0.8"/>
      </g>
     </g>
     <g id="text_11">
      <!-- −1.5 -->
      <g transform="translate(58.717187 299.003805) scale(0.1 -0.1)">
       <defs>
        <path id="DejaVuSans-35" d="M 691 4666 
L 3169 4666 
L 3169 4134 
L 1269 4134 
L 1269 2991 
Q 1406 3038 1543 3061 
Q 1681 3084 1819 3084 
Q 2600 3084 3056 2656 
Q 3513 2228 3513 1497 
Q 3513 744 3044 326 
Q 2575 -91 1722 -91 
Q 1428 -91 1123 -41 
Q 819 9 494 109 
L 494 744 
Q 775 591 1075 516 
Q 1375 441 1709 441 
Q 2250 441 2565 725 
Q 2881 1009 2881 1497 
Q 2881 1984 2565 2268 
Q 2250 2553 1709 2553 
Q 1456 2553 1204 2497 
Q 953 2441 691 2322 
L 691 4666 
z
" transform="scale(0.015625)"/>
       </defs>
       <use xlink:href="#DejaVuSans-2212"/>
       <use xlink:href="#DejaVuSans-31" transform="translate(83.789062 0)"/>
       <use xlink:href="#DejaVuSans-2e" transform="translate(147.412109 0)"/>
       <use xlink:href="#DejaVuSans-35" transform="translate(179.199219 0)"/>
      </g>
     </g>
    </g>
    <g id="ytick_3">
     <g id="line2d_21">
      <path d="M 90 247.05172 
L 648 247.05172 
" clip-path="url(#p5f78c5b22f)" style="fill: none; stroke-dasharray: 2.96,1.28; stroke-dashoffset: 0; stroke: #b0b0b0; stroke-opacity: 0.7; stroke-width: 0.8"/>
     </g>
     <g id="line2d_22">
      <g>
       <use xlink:href="#m3ba3ad4277" x="90" y="247.05172" style="stroke: #000000; stroke-width: 0.8"/>
      </g>
     </g>
     <g id="text_12">
      <!-- −1.0 -->
      <g transform="translate(58.717187 250.850938) scale(0.1 -0.1)">
       <use xlink:href="#DejaVuSans-2212"/>
       <use xlink:href="#DejaVuSans-31" transform="translate(83.789062 0)"/>
       <use xlink:href="#DejaVuSans-2e" transform="translate(147.412109 0)"/>
       <use xlink:href="#DejaVuSans-30" transform="translate(179.199219 0)"/>
      </g>
     </g>
    </g>
    <g id="ytick_4">
     <g id="line2d_23">
      <path d="M 90 198.898854 
L 648 198.898854 
" clip-path="url(#p5f78c5b22f)" style="fill: none; stroke-dasharray: 2.96,1.28; stroke-dashoffset: 0; stroke: #b0b0b0; stroke-opacity: 0.7; stroke-width: 0.8"/>
     </g>
     <g id="line2d_24">
      <g>
       <use xlink:href="#m3ba3ad4277" x="90" y="198.898854" style="stroke: #000000; stroke-width: 0.8"/>
      </g>
     </g>
     <g id="text_13">
      <!-- −0.5 -->
      <g transform="translate(58.717187 202.698072) scale(0.1 -0.1)">
       <use xlink:href="#DejaVuSans-2212"/>
       <use xlink:href="#DejaVuSans-30" transform="translate(83.789062 0)"/>
       <use xlink:href="#DejaVuSans-2e" transform="translate(147.412109 0)"/>
       <use xlink:href="#DejaVuSans-35" transform="translate(179.199219 0)"/>
      </g>
     </g>
    </g>
    <g id="ytick_5">
     <g id="line2d_25">
      <path d="M 90 150.745987 
L 648 150.745987 
" clip-path="url(#p5f78c5b22f)" style="fill: none; stroke-dasharray: 2.96,1.28; stroke-dashoffset: 0; stroke: #b0b0b0; stroke-opacity: 0.7; stroke-width: 0.8"/>
     </g>
     <g id="line2d_26">
      <g>
       <use xlink:href="#m3ba3ad4277" x="90" y="150.745987" style="stroke: #000000; stroke-width: 0.8"/>
      </g>
     </g>
     <g id="text_14">
      <!-- 0.0 -->
      <g transform="translate(67.096875 154.545206) scale(0.1 -0.1)">
       <use xlink:href="#DejaVuSans-30"/>
       <use xlink:href="#DejaVuSans-2e" transform="translate(63.623047 0)"/>
       <use xlink:href="#DejaVuSans-30" transform="translate(95.410156 0)"/>
      </g>
     </g>
    </g>
    <g id="ytick_6">
     <g id="line2d_27">
      <path d="M 90 102.593121 
L 648 102.593121 
" clip-path="url(#p5f78c5b22f)" style="fill: none; stroke-dasharray: 2.96,1.28; stroke-dashoffset: 0; stroke: #b0b0b0; stroke-opacity: 0.7; stroke-width: 0.8"/>
     </g>
     <g id="line2d_28">
      <g>
       <use xlink:href="#m3ba3ad4277" x="90" y="102.593121" style="stroke: #000000; stroke-width: 0.8"/>
      </g>
     </g>
     <g id="text_15">
      <!-- 0.5 -->
      <g transform="translate(67.096875 106.39234) scale(0.1 -0.1)">
       <use xlink:href="#DejaVuSans-30"/>
       <use xlink:href="#DejaVuSans-2e" transform="translate(63.623047 0)"/>
       <use xlink:href="#DejaVuSans-35" transform="translate(95.410156 0)"/>
      </g>
     </g>
    </g>
    <g id="ytick_7">
     <g id="line2d_29">
      <path d="M 90 54.440255 
L 648 54.440255 
" clip-path="url(#p5f78c5b22f)" style="fill: none; stroke-dasharray: 2.96,1.28; stroke-dashoffset: 0; stroke: #b0b0b0; stroke-opacity: 0.7; stroke-width: 0.8"/>
     </g>
     <g id="line2d_30">
      <g>
       <use xlink:href="#m3ba3ad4277" x="90" y="54.440255" style="stroke: #000000; stroke-width: 0.8"/>
      </g>
     </g>
     <g id="text_16">
      <!-- 1.0 -->
      <g transform="translate(67.096875 58.239474) scale(0.1 -0.1)">
       <use xlink:href="#DejaVuSans-31"/>
       <use xlink:href="#DejaVuSans-2e" transform="translate(63.623047 0)"/>
       <use xlink:href="#DejaVuSans-30" transform="translate(95.410156 0)"/>
      </g>
     </g>
    </g>
    <g id="text_17">
     <!-- Cumulative Reward (Max=0.87) -->
     <g transform="translate(52.6375 298.058437) rotate(-90) scale(0.1 -0.1)">
      <defs>
       <path id="DejaVuSans-43" d="M 4122 4306 
L 4122 3641 
Q 3803 3938 3442 4084 
Q 3081 4231 2675 4231 
Q 1875 4231 1450 3742 
Q 1025 3253 1025 2328 
Q 1025 1406 1450 917 
Q 1875 428 2675 428 
Q 3081 428 3442 575 
Q 3803 722 4122 1019 
L 4122 359 
Q 3791 134 3420 21 
Q 3050 -91 2638 -91 
Q 1578 -91 968 557 
Q 359 1206 359 2328 
Q 359 3453 968 4101 
Q 1578 4750 2638 4750 
Q 3056 4750 3426 4639 
Q 3797 4528 4122 4306 
z
" transform="scale(0.015625)"/>
       <path id="DejaVuSans-75" d="M 544 1381 
L 544 3500 
L 1119 3500 
L 1119 1403 
Q 1119 906 1312 657 
Q 1506 409 1894 409 
Q 2359 409 2629 706 
Q 2900 1003 2900 1516 
L 2900 3500 
L 3475 3500 
L 3475 0 
L 2900 0 
L 2900 538 
Q 2691 219 2414 64 
Q 2138 -91 1772 -91 
Q 1169 -91 856 284 
Q 544 659 544 1381 
z
M 1991 3584 
L 1991 3584 
z
" transform="scale(0.015625)"/>
       <path id="DejaVuSans-6d" d="M 3328 2828 
Q 3544 3216 3844 3400 
Q 4144 3584 4550 3584 
Q 5097 3584 5394 3201 
Q 5691 2819 5691 2113 
L 5691 0 
L 5113 0 
L 5113 2094 
Q 5113 2597 4934 2840 
Q 4756 3084 4391 3084 
Q 3944 3084 3684 2787 
Q 3425 2491 3425 1978 
L 3425 0 
L 2847 0 
L 2847 2094 
Q 2847 2600 2669 2842 
Q 2491 3084 2119 3084 
Q 1678 3084 1418 2786 
Q 1159 2488 1159 1978 
L 1159 0 
L 581 0 
L 581 3500 
L 1159 3500 
L 1159 2956 
Q 1356 3278 1631 3431 
Q 1906 3584 2284 3584 
Q 2666 3584 2933 3390 
Q 3200 3197 3328 2828 
z
" transform="scale(0.015625)"/>
       <path id="DejaVuSans-6c" d="M 603 4863 
L 1178 4863 
L 1178 0 
L 603 0 
L 603 4863 
z
" transform="scale(0.015625)"/>
       <path id="DejaVuSans-61" d="M 2194 1759 
Q 1497 1759 1228 1600 
Q 959 1441 959 1056 
Q 959 750 1161 570 
Q 1363 391 1709 391 
Q 2188 391 2477 730 
Q 2766 1069 2766 1631 
L 2766 1759 
L 2194 1759 
z
M 3341 1997 
L 3341 0 
L 2766 0 
L 2766 531 
Q 2569 213 2275 61 
Q 1981 -91 1556 -91 
Q 1019 -91 701 211 
Q 384 513 384 1019 
Q 384 1609 779 1909 
Q 1175 2209 1959 2209 
L 2766 2209 
L 2766 2266 
Q 2766 2663 2505 2880 
Q 2244 3097 1772 3097 
Q 1472 3097 1187 3025 
Q 903 2953 641 2809 
L 641 3341 
Q 956 3463 1253 3523 
Q 1550 3584 1831 3584 
Q 2591 3584 2966 3190 
Q 3341 2797 3341 1997 
z
" transform="scale(0.015625)"/>
       <path id="DejaVuSans-74" d="M 1172 4494 
L 1172 3500 
L 2356 3500 
L 2356 3053 
L 1172 3053 
L 1172 1153 
Q 1172 725 1289 603 
Q 1406 481 1766 481 
L 2356 481 
L 2356 0 
L 1766 0 
Q 1100 0 847 248 
Q 594 497 594 1153 
L 594 3053 
L 172 3053 
L 172 3500 
L 594 3500 
L 594 4494 
L 1172 4494 
z
" transform="scale(0.015625)"/>
       <path id="DejaVuSans-76" d="M 191 3500 
L 800 3500 
L 1894 563 
L 2988 3500 
L 3597 3500 
L 2284 0 
L 1503 0 
L 191 3500 
z
" transform="scale(0.015625)"/>
       <path id="DejaVuSans-20" transform="scale(0.015625)"/>
       <path id="DejaVuSans-52" d="M 2841 2188 
Q 3044 2119 3236 1894 
Q 3428 1669 3622 1275 
L 4263 0 
L 3584 0 
L 2988 1197 
Q 2756 1666 2539 1819 
Q 2322 1972 1947 1972 
L 1259 1972 
L 1259 0 
L 628 0 
L 628 4666 
L 2053 4666 
Q 2853 4666 3247 4331 
Q 3641 3997 3641 3322 
Q 3641 2881 3436 2590 
Q 3231 2300 2841 2188 
z
M 1259 4147 
L 1259 2491 
L 2053 2491 
Q 2509 2491 2742 2702 
Q 2975 2913 2975 3322 
Q 2975 3731 2742 3939 
Q 2509 4147 2053 4147 
L 1259 4147 
z
" transform="scale(0.015625)"/>
       <path id="DejaVuSans-77" d="M 269 3500 
L 844 3500 
L 1563 769 
L 2278 3500 
L 2956 3500 
L 3675 769 
L 4391 3500 
L 4966 3500 
L 4050 0 
L 3372 0 
L 2619 2869 
L 1863 0 
L 1184 0 
L 269 3500 
z
" transform="scale(0.015625)"/>
       <path id="DejaVuSans-72" d="M 2631 2963 
Q 2534 3019 2420 3045 
Q 2306 3072 2169 3072 
Q 1681 3072 1420 2755 
Q 1159 2438 1159 1844 
L 1159 0 
L 581 0 
L 581 3500 
L 1159 3500 
L 1159 2956 
Q 1341 3275 1631 3429 
Q 1922 3584 2338 3584 
Q 2397 3584 2469 3576 
Q 2541 3569 2628 3553 
L 2631 2963 
z
" transform="scale(0.015625)"/>
       <path id="DejaVuSans-28" d="M 1984 4856 
Q 1566 4138 1362 3434 
Q 1159 2731 1159 2009 
Q 1159 1288 1364 580 
Q 1569 -128 1984 -844 
L 1484 -844 
Q 1016 -109 783 600 
Q 550 1309 550 2009 
Q 550 2706 781 3412 
Q 1013 4119 1484 4856 
L 1984 4856 
z
" transform="scale(0.015625)"/>
       <path id="DejaVuSans-4d" d="M 628 4666 
L 1569 4666 
L 2759 1491 
L 3956 4666 
L 4897 4666 
L 4897 0 
L 4281 0 
L 4281 4097 
L 3078 897 
L 2444 897 
L 1241 4097 
L 1241 0 
L 628 0 
L 628 4666 
z
" transform="scale(0.015625)"/>
       <path id="DejaVuSans-78" d="M 3513 3500 
L 2247 1797 
L 3578 0 
L 2900 0 
L 1881 1375 
L 863 0 
L 184 0 
L 1544 1831 
L 300 3500 
L 978 3500 
L 1906 2253 
L 2834 3500 
L 3513 3500 
z
" transform="scale(0.015625)"/>
       <path id="DejaVuSans-3d" d="M 678 2906 
L 4684 2906 
L 4684 2381 
L 678 2381 
L 678 2906 
z
M 678 1631 
L 4684 1631 
L 4684 1100 
L 678 1100 
L 678 1631 
z
" transform="scale(0.015625)"/>
       <path id="DejaVuSans-37" d="M 525 4666 
L 3525 4666 
L 3525 4397 
L 1831 0 
L 1172 0 
L 2766 4134 
L 525 4134 
L 525 4666 
z
" transform="scale(0.015625)"/>
       <path id="DejaVuSans-29" d="M 513 4856 
L 1013 4856 
Q 1481 4119 1714 3412 
Q 1947 2706 1947 2009 
Q 1947 1309 1714 600 
Q 1481 -109 1013 -844 
L 513 -844 
Q 928 -128 1133 580 
Q 1338 1288 1338 2009 
Q 1338 2731 1133 3434 
Q 928 4138 513 4856 
z
" transform="scale(0.015625)"/>
      </defs>
      <use xlink:href="#DejaVuSans-43"/>
      <use xlink:href="#DejaVuSans-75" transform="translate(69.824219 0)"/>
      <use xlink:href="#DejaVuSans-6d" transform="translate(133.203125 0)"/>
      <use xlink:href="#DejaVuSans-75" transform="translate(230.615234 0)"/>
      <use xlink:href="#DejaVuSans-6c" transform="translate(293.994141 0)"/>
      <use xlink:href="#DejaVuSans-61" transform="translate(321.777344 0)"/>
      <use xlink:href="#DejaVuSans-74" transform="translate(383.056641 0)"/>
      <use xlink:href="#DejaVuSans-69" transform="translate(422.265625 0)"/>
      <use xlink:href="#DejaVuSans-76" transform="translate(450.048828 0)"/>
      <use xlink:href="#DejaVuSans-65" transform="translate(509.228516 0)"/>
      <use xlink:href="#DejaVuSans-20" transform="translate(570.751953 0)"/>
      <use xlink:href="#DejaVuSans-52" transform="translate(602.539062 0)"/>
      <use xlink:href="#DejaVuSans-65" transform="translate(667.521484 0)"/>
      <use xlink:href="#DejaVuSans-77" transform="translate(729.044922 0)"/>
      <use xlink:href="#DejaVuSans-61" transform="translate(810.832031 0)"/>
      <use xlink:href="#DejaVuSans-72" transform="translate(872.111328 0)"/>
      <use xlink:href="#DejaVuSans-64" transform="translate(911.474609 0)"/>
      <use xlink:href="#DejaVuSans-20" transform="translate(974.951172 0)"/>
      <use xlink:href="#DejaVuSans-28" transform="translate(1006.738281 0)"/>
      <use xlink:href="#DejaVuSans-4d" transform="translate(1045.751953 0)"/>
      <use xlink:href="#DejaVuSans-61" transform="translate(1132.03125 0)"/>
      <use xlink:href="#DejaVuSans-78" transform="translate(1193.310547 0)"/>
      <use xlink:href="#DejaVuSans-3d" transform="translate(1252.490234 0)"/>
      <use xlink:href="#DejaVuSans-30" transform="translate(1336.279297 0)"/>
      <use xlink:href="#DejaVuSans-2e" transform="translate(1399.902344 0)"/>
      <use xlink:href="#DejaVuSans-38" transform="translate(1431.689453 0)"/>
      <use xlink:href="#DejaVuSans-37" transform="translate(1495.3125 0)"/>
      <use xlink:href="#DejaVuSans-29" transform="translate(1558.935547 0)"/>
     </g>
    </g>
   </g>
   <g id="line2d_31">
    <path d="M 115.363636 268.238981 
L 115.701818 283.647898 
L 116.04 260.534522 
L 116.378182 281.721783 
L 117.392727 258.608408 
L 117.730909 260.534522 
L 118.069091 270.165096 
L 118.407273 267.275924 
L 118.745455 276.906497 
L 119.083636 259.571465 
L 119.421818 257.64535 
L 119.76 268.238981 
L 120.098182 305.798217 
L 120.436364 317.354904 
L 120.774545 291.352357 
L 121.112727 301.945987 
L 121.450909 316.391847 
L 121.789091 254.756178 
L 122.127273 268.238981 
L 122.465455 262.460637 
L 122.803636 274.980382 
L 123.141818 261.49758 
L 123.48 282.684841 
L 123.818182 264.386752 
L 124.156364 281.721783 
L 124.494545 319.281019 
L 125.170909 255.719236 
L 125.509091 272.09121 
L 125.847273 268.238981 
L 126.185455 288.463185 
L 126.523636 269.202038 
L 126.861818 261.49758 
L 127.2 281.721783 
L 127.538182 282.684841 
L 127.876364 284.610955 
L 128.214545 262.460637 
L 128.890909 352.024968 
L 129.229091 261.49758 
L 129.567273 272.09121 
L 129.905455 268.238981 
L 130.243636 268.238981 
L 130.581818 298.093758 
L 130.92 252.830064 
L 131.258182 271.128153 
L 131.596364 281.721783 
L 131.934545 274.980382 
L 132.272727 262.460637 
L 132.949091 308.687389 
L 133.287273 262.460637 
L 133.625455 270.165096 
L 133.963636 257.64535 
L 134.301818 250.903949 
L 134.64 253.793121 
L 135.316364 263.423694 
L 135.654545 264.386752 
L 135.992727 300.019873 
L 136.330909 285.574013 
L 136.669091 265.349809 
L 137.345455 303.872102 
L 137.683636 253.793121 
L 138.021818 254.756178 
L 138.36 276.906497 
L 138.698182 252.830064 
L 139.036364 254.756178 
L 139.374545 252.830064 
L 139.712727 260.534522 
L 140.050909 306.761274 
L 140.389091 258.608408 
L 140.727273 275.943439 
L 141.065455 251.867006 
L 141.403636 280.758726 
L 142.08 272.09121 
L 142.418182 292.315414 
L 142.756364 266.312866 
L 143.094545 255.719236 
L 143.432727 304.835159 
L 143.770909 258.608408 
L 144.109091 264.386752 
L 144.447273 279.795669 
L 144.785455 268.238981 
L 145.123636 310.613503 
L 145.461818 257.64535 
L 145.8 266.312866 
L 146.138182 257.64535 
L 146.476364 292.315414 
L 146.814545 307.724331 
L 147.152727 267.275924 
L 147.490909 272.09121 
L 147.829091 270.165096 
L 148.167273 262.460637 
L 148.505455 274.980382 
L 148.843636 278.832611 
L 149.181818 266.312866 
L 149.52 295.204586 
L 149.858182 275.943439 
L 150.196364 277.869554 
L 150.534545 263.423694 
L 150.872727 276.906497 
L 151.210909 254.756178 
L 151.549091 256.682293 
L 151.887273 279.795669 
L 152.225455 265.349809 
L 152.563636 292.315414 
L 152.901818 277.869554 
L 153.24 254.756178 
L 153.578182 278.832611 
L 153.916364 288.463185 
L 154.254545 283.647898 
L 154.592727 263.423694 
L 154.930909 284.610955 
L 155.269091 264.386752 
L 155.607273 311.576561 
L 155.945455 261.49758 
L 156.283636 279.795669 
L 156.621818 277.869554 
L 156.96 264.386752 
L 157.298182 274.017325 
L 157.636364 309.650446 
L 157.974545 273.054268 
L 158.312727 269.202038 
L 158.650909 271.128153 
L 158.989091 267.275924 
L 159.665455 252.830064 
L 160.003636 267.275924 
L 160.341818 267.275924 
L 160.68 271.128153 
L 161.018182 298.093758 
L 161.356364 254.756178 
L 161.694545 291.352357 
L 162.370909 259.571465 
L 162.709091 320.244076 
L 163.047273 320.244076 
L 163.385455 278.832611 
L 163.723636 257.64535 
L 164.061818 254.756178 
L 164.738182 283.647898 
L 165.076364 275.943439 
L 165.414545 293.278471 
L 165.752727 253.793121 
L 166.090909 251.867006 
L 166.429091 264.386752 
L 166.767273 269.202038 
L 167.105455 269.202038 
L 167.443636 281.721783 
L 167.781818 314.465732 
L 168.12 267.275924 
L 168.458182 254.756178 
L 168.796364 274.980382 
L 169.134545 270.165096 
L 169.472727 261.49758 
L 169.810909 274.017325 
L 170.149091 260.534522 
L 170.487273 282.684841 
L 170.825455 257.64535 
L 171.163636 275.943439 
L 171.501818 287.500127 
L 171.84 258.608408 
L 172.178182 263.423694 
L 172.516364 274.017325 
L 172.854545 253.793121 
L 173.192727 287.500127 
L 173.530909 260.534522 
L 173.869091 326.985478 
L 174.207273 251.867006 
L 174.545455 263.423694 
L 174.883636 287.500127 
L 175.221818 266.312866 
L 175.56 254.756178 
L 175.898182 309.650446 
L 176.236364 265.349809 
L 176.574545 254.756178 
L 176.912727 275.943439 
L 177.250909 269.202038 
L 177.589091 337.579108 
L 177.927273 284.610955 
L 178.603636 263.423694 
L 178.941818 257.64535 
L 179.28 265.349809 
L 179.956364 255.719236 
L 180.294545 300.98293 
L 180.632727 269.202038 
L 180.970909 278.832611 
L 181.309091 265.349809 
L 181.647273 264.386752 
L 181.985455 294.241529 
L 182.661818 253.793121 
L 183.338182 296.167643 
L 183.676364 275.943439 
L 184.014545 263.423694 
L 184.352727 271.128153 
L 184.690909 348.172739 
L 185.029091 262.460637 
L 185.367273 253.793121 
L 185.705455 274.017325 
L 186.043636 254.756178 
L 186.381818 266.312866 
L 186.72 288.463185 
L 187.058182 257.64535 
L 187.396364 256.682293 
L 187.734545 266.312866 
L 188.072727 255.719236 
L 188.410909 278.832611 
L 188.749091 278.832611 
L 189.087273 269.202038 
L 189.763636 260.534522 
L 190.44 274.980382 
L 190.778182 253.793121 
L 191.116364 286.53707 
L 191.454545 292.315414 
L 192.130909 256.682293 
L 192.469091 304.835159 
L 192.807273 267.275924 
L 193.145455 263.423694 
L 193.821818 263.423694 
L 194.16 266.312866 
L 194.498182 279.795669 
L 194.836364 272.09121 
L 195.174545 286.53707 
L 195.512727 269.202038 
L 195.850909 272.09121 
L 196.189091 253.793121 
L 196.527273 255.719236 
L 196.865455 275.943439 
L 197.203636 277.869554 
L 197.541818 256.682293 
L 197.88 319.281019 
L 198.218182 282.684841 
L 198.556364 295.204586 
L 198.894545 261.49758 
L 199.232727 275.943439 
L 199.570909 274.017325 
L 200.247273 256.682293 
L 200.585455 287.500127 
L 200.923636 269.202038 
L 201.261818 279.795669 
L 201.6 254.756178 
L 201.938182 281.721783 
L 202.276364 261.49758 
L 202.614545 288.463185 
L 202.952727 259.571465 
L 203.290909 257.64535 
L 203.629091 262.460637 
L 203.967273 271.128153 
L 204.305455 263.423694 
L 204.981818 254.756178 
L 205.32 253.793121 
L 205.658182 258.608408 
L 205.996364 252.830064 
L 206.334545 271.128153 
L 206.672727 274.017325 
L 207.010909 267.275924 
L 207.349091 257.64535 
L 207.687273 268.238981 
L 208.025455 287.500127 
L 208.363636 296.167643 
L 208.701818 264.386752 
L 209.04 260.534522 
L 209.378182 264.386752 
L 209.716364 264.386752 
L 210.054545 275.943439 
L 210.392727 252.830064 
L 210.730909 257.64535 
L 211.069091 253.793121 
L 211.407273 252.830064 
L 211.745455 297.130701 
L 212.083636 264.386752 
L 212.421818 270.165096 
L 212.76 264.386752 
L 213.098182 274.017325 
L 213.436364 274.980382 
L 213.774545 272.09121 
L 214.112727 291.352357 
L 214.450909 270.165096 
L 214.789091 261.49758 
L 215.465455 254.756178 
L 215.803636 269.202038 
L 216.141818 258.608408 
L 216.48 266.312866 
L 216.818182 267.275924 
L 217.156364 260.534522 
L 217.494545 285.574013 
L 217.832727 283.647898 
L 218.170909 263.423694 
L 218.509091 259.571465 
L 218.847273 296.167643 
L 219.185455 260.534522 
L 219.861818 291.352357 
L 220.2 275.943439 
L 220.538182 252.830064 
L 220.876364 257.64535 
L 221.214545 270.165096 
L 221.552727 271.128153 
L 221.890909 263.423694 
L 222.229091 270.165096 
L 222.567273 280.758726 
L 222.905455 266.312866 
L 223.243636 256.682293 
L 223.581818 252.830064 
L 223.92 251.867006 
L 224.258182 270.165096 
L 224.596364 259.571465 
L 225.272727 268.238981 
L 225.610909 258.608408 
L 225.949091 283.647898 
L 226.625455 255.719236 
L 226.963636 262.460637 
L 227.301818 255.719236 
L 227.64 267.275924 
L 227.978182 253.793121 
L 228.316364 268.238981 
L 228.654545 268.238981 
L 228.992727 253.793121 
L 229.330909 269.202038 
L 229.669091 270.165096 
L 230.007273 257.64535 
L 230.345455 274.017325 
L 230.683636 276.906497 
L 231.021818 262.460637 
L 231.36 265.349809 
L 231.698182 262.460637 
L 232.036364 252.830064 
L 232.712727 260.534522 
L 233.050909 267.275924 
L 233.389091 263.423694 
L 233.727273 251.867006 
L 234.065455 254.756178 
L 234.741818 270.165096 
L 235.08 254.756178 
L 235.418182 261.49758 
L 235.756364 296.167643 
L 236.094545 261.49758 
L 236.770909 291.352357 
L 237.109091 278.832611 
L 237.447273 259.571465 
L 237.785455 264.386752 
L 238.123636 263.423694 
L 238.461818 295.204586 
L 238.8 256.682293 
L 239.138182 257.64535 
L 239.476364 252.830064 
L 239.814545 257.64535 
L 240.152727 260.534522 
L 240.490909 310.613503 
L 241.505455 251.867006 
L 241.843636 289.426242 
L 242.181818 273.054268 
L 242.52 284.610955 
L 242.858182 347.209682 
L 243.196364 272.09121 
L 243.534545 327.948535 
L 243.872727 340.46828 
L 244.210909 271.128153 
L 244.549091 255.719236 
L 244.887273 261.49758 
L 245.225455 256.682293 
L 245.563636 258.608408 
L 245.901818 261.49758 
L 246.24 292.315414 
L 246.578182 262.460637 
L 246.916364 262.460637 
L 247.254545 289.426242 
L 247.592727 278.832611 
L 247.930909 293.278471 
L 248.269091 346.246624 
L 248.607273 308.687389 
L 248.945455 309.650446 
L 249.283636 272.09121 
L 249.621818 260.534522 
L 249.96 261.49758 
L 250.298182 261.49758 
L 250.636364 369.36 
L 250.974545 252.830064 
L 251.312727 267.275924 
L 251.650909 252.830064 
L 251.989091 256.682293 
L 252.327273 273.054268 
L 252.665455 259.571465 
L 253.003636 277.869554 
L 253.341818 311.576561 
L 254.018182 255.719236 
L 254.694545 289.426242 
L 255.032727 256.682293 
L 255.370909 267.275924 
L 255.709091 262.460637 
L 256.047273 276.906497 
L 256.385455 273.054268 
L 256.723636 280.758726 
L 257.061818 259.571465 
L 257.738182 274.017325 
L 258.076364 265.349809 
L 258.414545 281.721783 
L 258.752727 264.386752 
L 259.090909 271.128153 
L 259.429091 273.054268 
L 259.767273 253.793121 
L 260.105455 266.312866 
L 260.443636 273.054268 
L 260.781818 304.835159 
L 261.12 272.09121 
L 261.458182 270.165096 
L 261.796364 264.386752 
L 262.134545 254.756178 
L 262.472727 259.571465 
L 262.810909 267.275924 
L 263.149091 302.909045 
L 263.487273 261.49758 
L 263.825455 259.571465 
L 264.163636 256.682293 
L 264.501818 263.423694 
L 264.84 279.795669 
L 265.178182 261.49758 
L 265.516364 260.534522 
L 265.854545 271.128153 
L 266.530909 252.830064 
L 266.869091 281.721783 
L 267.207273 264.386752 
L 267.545455 259.571465 
L 267.883636 292.315414 
L 268.221818 264.386752 
L 268.56 260.534522 
L 268.898182 254.756178 
L 269.236364 256.682293 
L 269.574545 277.869554 
L 269.912727 278.832611 
L 270.250909 258.608408 
L 270.589091 257.64535 
L 270.927273 261.49758 
L 271.265455 259.571465 
L 271.603636 269.202038 
L 271.941818 262.460637 
L 272.28 260.534522 
L 272.618182 262.460637 
L 273.294545 258.608408 
L 273.632727 275.943439 
L 273.970909 250.903949 
L 274.309091 271.128153 
L 274.647273 261.49758 
L 274.985455 269.202038 
L 275.661818 253.793121 
L 276 252.830064 
L 276.338182 263.423694 
L 276.676364 279.795669 
L 277.014545 266.312866 
L 277.352727 265.349809 
L 277.690909 272.09121 
L 278.367273 257.64535 
L 278.705455 262.460637 
L 279.043636 263.423694 
L 279.381818 279.795669 
L 279.72 262.460637 
L 280.058182 258.608408 
L 280.396364 277.869554 
L 280.734545 269.202038 
L 281.072727 269.202038 
L 281.410909 265.349809 
L 281.749091 258.608408 
L 282.087273 261.49758 
L 282.425455 297.130701 
L 282.763636 76.590573 
L 283.101818 258.608408 
L 283.44 265.349809 
L 283.778182 260.534522 
L 284.116364 258.608408 
L 284.454545 260.534522 
L 284.792727 272.09121 
L 285.130909 279.795669 
L 285.469091 258.608408 
L 285.807273 254.756178 
L 286.145455 264.386752 
L 286.483636 289.426242 
L 286.821818 262.460637 
L 287.16 288.463185 
L 287.498182 280.758726 
L 288.174545 256.682293 
L 288.512727 262.460637 
L 288.850909 258.608408 
L 289.189091 271.128153 
L 289.527273 300.019873 
L 289.865455 254.756178 
L 290.203636 303.872102 
L 290.541818 267.275924 
L 290.88 268.238981 
L 291.218182 260.534522 
L 291.556364 287.500127 
L 292.232727 257.64535 
L 292.570909 263.423694 
L 292.909091 267.275924 
L 293.247273 250.903949 
L 293.585455 262.460637 
L 293.923636 74.664459 
L 294.261818 268.238981 
L 294.6 257.64535 
L 294.938182 267.275924 
L 295.276364 259.571465 
L 295.614545 68.886115 
L 295.952727 82.368917 
L 296.290909 263.423694 
L 296.629091 252.830064 
L 296.967273 256.682293 
L 297.305455 256.682293 
L 297.643636 260.534522 
L 297.981818 273.054268 
L 298.32 262.460637 
L 298.658182 260.534522 
L 298.996364 254.756178 
L 299.334545 250.903949 
L 299.672727 261.49758 
L 300.010909 257.64535 
L 300.349091 251.867006 
L 300.687273 78.516688 
L 301.025455 263.423694 
L 302.04 252.830064 
L 302.378182 261.49758 
L 302.716364 263.423694 
L 303.054545 260.534522 
L 303.392727 262.460637 
L 303.730909 255.719236 
L 304.069091 258.608408 
L 304.407273 256.682293 
L 304.745455 274.980382 
L 305.083636 262.460637 
L 305.421818 254.756178 
L 305.76 256.682293 
L 306.098182 274.980382 
L 306.436364 255.719236 
L 306.774545 77.553631 
L 307.112727 273.054268 
L 307.450909 260.534522 
L 307.789091 277.869554 
L 308.127273 256.682293 
L 308.465455 268.238981 
L 308.803636 270.165096 
L 309.141818 257.64535 
L 309.48 250.903949 
L 309.818182 254.756178 
L 310.494545 276.906497 
L 310.832727 260.534522 
L 311.170909 262.460637 
L 311.509091 255.719236 
L 311.847273 251.867006 
L 312.185455 276.906497 
L 312.523636 255.719236 
L 312.861818 76.590573 
L 313.2 253.793121 
L 313.538182 259.571465 
L 313.876364 263.423694 
L 314.214545 263.423694 
L 314.552727 268.238981 
L 314.890909 276.906497 
L 315.229091 256.682293 
L 315.567273 257.64535 
L 315.905455 267.275924 
L 316.243636 273.054268 
L 316.581818 83.331975 
L 316.92 257.64535 
L 317.258182 263.423694 
L 317.596364 252.830064 
L 317.934545 261.49758 
L 318.272727 253.793121 
L 318.610909 269.202038 
L 318.949091 261.49758 
L 319.287273 260.534522 
L 319.625455 81.40586 
L 319.963636 252.830064 
L 320.301818 256.682293 
L 320.64 255.719236 
L 320.978182 253.793121 
L 321.316364 254.756178 
L 321.654545 268.238981 
L 321.992727 254.756178 
L 322.330909 262.460637 
L 322.669091 260.534522 
L 323.007273 263.423694 
L 323.345455 256.682293 
L 323.683636 268.238981 
L 324.021818 81.40586 
L 324.36 259.571465 
L 324.698182 258.608408 
L 325.036364 273.054268 
L 325.374545 254.756178 
L 325.712727 94.888662 
L 326.050909 256.682293 
L 326.389091 78.516688 
L 326.727273 257.64535 
L 327.065455 72.738344 
L 327.403636 80.442803 
L 327.741818 273.054268 
L 328.08 255.719236 
L 328.756364 264.386752 
L 329.094545 262.460637 
L 329.432727 252.830064 
L 329.770909 257.64535 
L 330.109091 252.830064 
L 330.447273 79.479745 
L 330.785455 265.349809 
L 331.123636 253.793121 
L 331.461818 257.64535 
L 331.8 257.64535 
L 332.138182 260.534522 
L 332.476364 268.238981 
L 332.814545 256.682293 
L 333.152727 281.721783 
L 333.490909 68.886115 
L 333.829091 265.349809 
L 334.167273 266.312866 
L 334.505455 265.349809 
L 334.843636 275.943439 
L 335.181818 256.682293 
L 335.52 256.682293 
L 335.858182 281.721783 
L 336.196364 252.830064 
L 336.534545 265.349809 
L 336.872727 256.682293 
L 337.210909 269.202038 
L 337.887273 252.830064 
L 338.225455 257.64535 
L 338.563636 283.647898 
L 338.901818 266.312866 
L 339.24 256.682293 
L 339.578182 252.830064 
L 339.916364 265.349809 
L 340.254545 263.423694 
L 340.592727 256.682293 
L 340.930909 276.906497 
L 341.269091 255.719236 
L 341.607273 265.349809 
L 341.945455 265.349809 
L 342.283636 261.49758 
L 342.621818 272.09121 
L 342.96 264.386752 
L 343.298182 261.49758 
L 343.636364 256.682293 
L 343.974545 261.49758 
L 344.312727 259.571465 
L 344.650909 262.460637 
L 344.989091 86.221146 
L 345.327273 255.719236 
L 345.665455 254.756178 
L 346.003636 258.608408 
L 346.341818 252.830064 
L 347.018182 252.830064 
L 347.356364 254.756178 
L 347.694545 74.664459 
L 348.032727 255.719236 
L 348.370909 262.460637 
L 348.709091 263.423694 
L 349.047273 257.64535 
L 349.385455 72.738344 
L 349.723636 256.682293 
L 350.061818 267.275924 
L 350.4 256.682293 
L 350.738182 257.64535 
L 351.076364 261.49758 
L 351.414545 258.608408 
L 351.752727 256.682293 
L 352.090909 258.608408 
L 352.429091 266.312866 
L 352.767273 258.608408 
L 353.105455 70.812229 
L 353.443636 256.682293 
L 353.781818 252.830064 
L 354.12 264.386752 
L 354.458182 259.571465 
L 355.134545 265.349809 
L 355.472727 258.608408 
L 355.810909 260.534522 
L 356.149091 257.64535 
L 356.487273 270.165096 
L 356.825455 263.423694 
L 357.163636 72.738344 
L 357.501818 72.738344 
L 357.84 258.608408 
L 358.178182 255.719236 
L 358.516364 69.849172 
L 358.854545 252.830064 
L 359.192727 265.349809 
L 359.530909 264.386752 
L 359.869091 79.479745 
L 360.207273 265.349809 
L 360.545455 252.830064 
L 360.883636 262.460637 
L 361.221818 258.608408 
L 361.56 268.238981 
L 361.898182 254.756178 
L 362.236364 255.719236 
L 362.574545 75.627516 
L 362.912727 273.054268 
L 363.250909 258.608408 
L 363.589091 265.349809 
L 363.927273 258.608408 
L 364.265455 268.238981 
L 364.603636 264.386752 
L 364.941818 81.40586 
L 365.28 254.756178 
L 365.618182 257.64535 
L 365.956364 262.460637 
L 366.294545 253.793121 
L 366.632727 70.812229 
L 366.970909 257.64535 
L 367.309091 284.610955 
L 367.647273 261.49758 
L 367.985455 74.664459 
L 368.323636 260.534522 
L 368.661818 75.627516 
L 369 253.793121 
L 369.338182 263.423694 
L 369.676364 269.202038 
L 370.014545 258.608408 
L 370.352727 94.888662 
L 370.690909 252.830064 
L 371.029091 250.903949 
L 371.367273 254.756178 
L 371.705455 254.756178 
L 372.043636 71.775287 
L 372.381818 261.49758 
L 373.058182 265.349809 
L 373.396364 260.534522 
L 373.734545 265.349809 
L 374.072727 260.534522 
L 374.410909 258.608408 
L 374.749091 266.312866 
L 375.425455 252.830064 
L 375.763636 263.423694 
L 376.101818 266.312866 
L 376.44 262.460637 
L 376.778182 256.682293 
L 377.116364 261.49758 
L 377.454545 262.460637 
L 377.792727 260.534522 
L 378.469091 264.386752 
L 378.807273 257.64535 
L 379.145455 257.64535 
L 379.483636 264.386752 
L 379.821818 266.312866 
L 380.16 262.460637 
L 380.498182 250.903949 
L 380.836364 262.460637 
L 381.174545 263.423694 
L 381.512727 265.349809 
L 382.189091 253.793121 
L 382.527273 275.943439 
L 382.865455 68.886115 
L 383.203636 265.349809 
L 383.541818 250.903949 
L 383.88 258.608408 
L 384.218182 257.64535 
L 384.556364 254.756178 
L 384.894545 257.64535 
L 385.232727 256.682293 
L 385.570909 77.553631 
L 385.909091 259.571465 
L 386.247273 259.571465 
L 386.585455 277.869554 
L 386.923636 252.830064 
L 387.261818 266.312866 
L 387.6 252.830064 
L 387.938182 262.460637 
L 388.276364 73.701401 
L 388.614545 252.830064 
L 388.952727 267.275924 
L 389.290909 73.701401 
L 389.629091 258.608408 
L 389.967273 252.830064 
L 390.305455 263.423694 
L 390.643636 256.682293 
L 390.981818 262.460637 
L 391.32 75.627516 
L 391.658182 72.738344 
L 391.996364 74.664459 
L 392.334545 251.867006 
L 392.672727 73.701401 
L 393.010909 261.49758 
L 393.349091 254.756178 
L 393.687273 258.608408 
L 394.025455 257.64535 
L 394.363636 266.312866 
L 394.701818 259.571465 
L 395.04 268.238981 
L 395.378182 70.812229 
L 395.716364 74.664459 
L 396.054545 255.719236 
L 396.392727 258.608408 
L 396.730909 67.923057 
L 397.069091 261.49758 
L 397.407273 255.719236 
L 397.745455 256.682293 
L 398.083636 87.184204 
L 398.421818 72.738344 
L 398.76 253.793121 
L 399.098182 70.812229 
L 399.436364 254.756178 
L 399.774545 250.903949 
L 400.112727 261.49758 
L 400.450909 260.534522 
L 400.789091 260.534522 
L 401.127273 259.571465 
L 401.465455 255.719236 
L 401.803636 255.719236 
L 402.141818 80.442803 
L 402.48 83.331975 
L 402.818182 252.830064 
L 403.156364 258.608408 
L 403.494545 71.775287 
L 403.832727 259.571465 
L 404.170909 256.682293 
L 404.509091 252.830064 
L 404.847273 259.571465 
L 405.185455 257.64535 
L 405.523636 261.49758 
L 405.861818 267.275924 
L 406.2 263.423694 
L 406.538182 263.423694 
L 406.876364 257.64535 
L 407.214545 257.64535 
L 407.552727 256.682293 
L 407.890909 263.423694 
L 408.229091 253.793121 
L 408.567273 80.442803 
L 408.905455 257.64535 
L 409.243636 254.756178 
L 409.581818 67.923057 
L 409.92 263.423694 
L 410.258182 258.608408 
L 410.596364 255.719236 
L 410.934545 265.349809 
L 411.610909 254.756178 
L 411.949091 261.49758 
L 412.287273 263.423694 
L 412.625455 257.64535 
L 412.963636 255.719236 
L 413.301818 256.682293 
L 413.64 259.571465 
L 413.978182 265.349809 
L 414.316364 68.886115 
L 414.654545 259.571465 
L 414.992727 258.608408 
L 415.330909 258.608408 
L 415.669091 266.312866 
L 416.007273 254.756178 
L 416.683636 265.349809 
L 417.36 250.903949 
L 417.698182 261.49758 
L 418.036364 261.49758 
L 418.374545 254.756178 
L 418.712727 260.534522 
L 419.050909 254.756178 
L 419.389091 260.534522 
L 419.727273 257.64535 
L 420.065455 66.96 
L 420.403636 261.49758 
L 420.741818 79.479745 
L 421.08 265.349809 
L 421.418182 76.590573 
L 421.756364 76.590573 
L 422.094545 257.64535 
L 422.432727 70.812229 
L 422.770909 267.275924 
L 423.109091 261.49758 
L 423.447273 257.64535 
L 423.785455 256.682293 
L 424.123636 272.09121 
L 424.461818 258.608408 
L 424.8 69.849172 
L 425.138182 267.275924 
L 425.476364 263.423694 
L 425.814545 250.903949 
L 426.152727 75.627516 
L 426.490909 265.349809 
L 426.829091 74.664459 
L 427.167273 275.943439 
L 427.505455 260.534522 
L 427.843636 262.460637 
L 428.181818 78.516688 
L 428.52 260.534522 
L 428.858182 261.49758 
L 429.196364 254.756178 
L 429.534545 256.682293 
L 429.872727 76.590573 
L 430.210909 257.64535 
L 430.549091 253.793121 
L 430.887273 259.571465 
L 431.225455 256.682293 
L 431.563636 271.128153 
L 431.901818 258.608408 
L 432.24 71.775287 
L 432.578182 257.64535 
L 432.916364 261.49758 
L 433.254545 253.793121 
L 433.592727 264.386752 
L 433.930909 77.553631 
L 434.269091 257.64535 
L 434.945455 261.49758 
L 435.283636 261.49758 
L 435.621818 263.423694 
L 435.96 251.867006 
L 436.636364 274.017325 
L 436.974545 256.682293 
L 437.312727 69.849172 
L 437.650909 261.49758 
L 437.989091 252.830064 
L 438.327273 253.793121 
L 438.665455 71.775287 
L 439.003636 69.849172 
L 439.341818 253.793121 
L 439.68 72.738344 
L 440.018182 72.738344 
L 440.356364 267.275924 
L 440.694545 70.812229 
L 441.032727 264.386752 
L 441.370909 71.775287 
L 441.709091 261.49758 
L 442.047273 254.756178 
L 442.385455 70.812229 
L 442.723636 76.590573 
L 443.061818 253.793121 
L 443.4 74.664459 
L 443.738182 259.571465 
L 444.076364 69.849172 
L 444.414545 256.682293 
L 444.752727 263.423694 
L 445.090909 254.756178 
L 445.429091 257.64535 
L 445.767273 259.571465 
L 446.105455 66.96 
L 446.443636 258.608408 
L 446.781818 261.49758 
L 447.12 262.460637 
L 447.458182 252.830064 
L 447.796364 75.627516 
L 448.134545 254.756178 
L 448.472727 261.49758 
L 448.810909 71.775287 
L 449.149091 261.49758 
L 449.487273 266.312866 
L 449.825455 77.553631 
L 450.163636 259.571465 
L 450.501818 268.238981 
L 450.84 69.849172 
L 451.178182 73.701401 
L 451.516364 262.460637 
L 451.854545 74.664459 
L 452.192727 253.793121 
L 452.530909 258.608408 
L 452.869091 255.719236 
L 453.207273 259.571465 
L 453.545455 73.701401 
L 453.883636 259.571465 
L 454.221818 68.886115 
L 454.56 72.738344 
L 454.898182 258.608408 
L 455.236364 259.571465 
L 455.574545 66.96 
L 455.912727 253.793121 
L 456.250909 250.903949 
L 456.589091 258.608408 
L 456.927273 262.460637 
L 457.265455 259.571465 
L 457.603636 263.423694 
L 457.941818 264.386752 
L 458.28 261.49758 
L 458.956364 257.64535 
L 459.294545 253.793121 
L 459.632727 255.719236 
L 459.970909 268.238981 
L 460.309091 255.719236 
L 460.647273 252.830064 
L 460.985455 262.460637 
L 461.323636 258.608408 
L 461.661818 258.608408 
L 462 74.664459 
L 462.338182 75.627516 
L 462.676364 256.682293 
L 463.014545 258.608408 
L 463.352727 256.682293 
L 463.690909 261.49758 
L 464.367273 261.49758 
L 464.705455 259.571465 
L 465.043636 261.49758 
L 465.381818 75.627516 
L 465.72 255.719236 
L 466.396364 269.202038 
L 467.072727 256.682293 
L 467.410909 257.64535 
L 467.749091 69.849172 
L 468.087273 260.534522 
L 468.425455 77.553631 
L 468.763636 263.423694 
L 469.101818 256.682293 
L 469.44 74.664459 
L 469.778182 252.830064 
L 470.116364 68.886115 
L 470.454545 260.534522 
L 470.792727 256.682293 
L 471.130909 256.682293 
L 471.469091 68.886115 
L 471.807273 72.738344 
L 472.145455 257.64535 
L 472.483636 72.738344 
L 472.821818 265.349809 
L 473.16 262.460637 
L 473.498182 70.812229 
L 473.836364 70.812229 
L 474.174545 258.608408 
L 474.512727 257.64535 
L 474.850909 66.96 
L 475.189091 72.738344 
L 475.527273 75.627516 
L 475.865455 252.830064 
L 476.203636 78.516688 
L 476.541818 259.571465 
L 476.88 66.96 
L 477.218182 66.96 
L 477.556364 261.49758 
L 477.894545 259.571465 
L 478.232727 250.903949 
L 478.570909 261.49758 
L 478.909091 258.608408 
L 479.247273 68.886115 
L 479.585455 70.812229 
L 479.923636 259.571465 
L 480.261818 254.756178 
L 480.6 82.368917 
L 480.938182 68.886115 
L 481.276364 255.719236 
L 481.614545 66.96 
L 481.952727 259.571465 
L 482.290909 262.460637 
L 482.629091 262.460637 
L 482.967273 260.534522 
L 483.305455 78.516688 
L 483.643636 66.96 
L 483.981818 250.903949 
L 484.32 70.812229 
L 484.658182 255.719236 
L 484.996364 253.793121 
L 485.334545 252.830064 
L 485.672727 260.534522 
L 486.010909 71.775287 
L 486.349091 66.96 
L 486.687273 258.608408 
L 487.025455 253.793121 
L 487.363636 263.423694 
L 487.701818 70.812229 
L 488.04 259.571465 
L 488.378182 69.849172 
L 488.716364 71.775287 
L 489.054545 72.738344 
L 489.392727 70.812229 
L 489.730909 263.423694 
L 490.069091 254.756178 
L 490.407273 70.812229 
L 490.745455 72.738344 
L 491.083636 258.608408 
L 491.421818 250.903949 
L 491.76 76.590573 
L 492.098182 254.756178 
L 492.436364 250.903949 
L 492.774545 260.534522 
L 493.112727 260.534522 
L 493.450909 265.349809 
L 493.789091 260.534522 
L 494.127273 78.516688 
L 494.465455 255.719236 
L 494.803636 69.849172 
L 495.141818 252.830064 
L 495.48 259.571465 
L 495.818182 79.479745 
L 496.156364 75.627516 
L 496.494545 251.867006 
L 496.832727 72.738344 
L 497.170909 76.590573 
L 497.509091 256.682293 
L 497.847273 259.571465 
L 498.185455 66.96 
L 498.523636 77.553631 
L 498.861818 260.534522 
L 499.2 254.756178 
L 499.538182 254.756178 
L 499.876364 261.49758 
L 500.214545 260.534522 
L 500.552727 72.738344 
L 500.890909 260.534522 
L 501.229091 261.49758 
L 501.567273 250.903949 
L 501.905455 70.812229 
L 502.243636 265.349809 
L 502.581818 252.830064 
L 502.92 258.608408 
L 503.258182 257.64535 
L 503.596364 68.886115 
L 503.934545 258.608408 
L 504.272727 257.64535 
L 504.610909 259.571465 
L 504.949091 263.423694 
L 505.287273 263.423694 
L 505.625455 77.553631 
L 505.963636 74.664459 
L 506.301818 250.903949 
L 506.64 256.682293 
L 506.978182 254.756178 
L 507.316364 71.775287 
L 507.654545 265.349809 
L 507.992727 265.349809 
L 508.330909 67.923057 
L 508.669091 254.756178 
L 509.007273 75.627516 
L 509.345455 253.793121 
L 509.683636 252.830064 
L 510.021818 80.442803 
L 510.36 260.534522 
L 510.698182 253.793121 
L 511.036364 254.756178 
L 511.374545 258.608408 
L 511.712727 253.793121 
L 512.050909 257.64535 
L 512.389091 73.701401 
L 512.727273 78.516688 
L 513.065455 70.812229 
L 513.403636 252.830064 
L 513.741818 260.534522 
L 514.08 255.719236 
L 514.418182 264.386752 
L 514.756364 68.886115 
L 515.094545 255.719236 
L 515.432727 68.886115 
L 515.770909 260.534522 
L 516.109091 251.867006 
L 516.447273 68.886115 
L 516.785455 256.682293 
L 517.123636 66.96 
L 517.461818 254.756178 
L 517.8 70.812229 
L 518.138182 254.756178 
L 518.476364 251.867006 
L 518.814545 257.64535 
L 519.152727 254.756178 
L 519.490909 257.64535 
L 519.829091 69.849172 
L 520.167273 260.534522 
L 520.505455 252.830064 
L 520.843636 255.719236 
L 521.181818 70.812229 
L 521.52 257.64535 
L 521.858182 254.756178 
L 522.196364 263.423694 
L 522.534545 258.608408 
L 522.872727 262.460637 
L 523.549091 250.903949 
L 523.887273 257.64535 
L 524.225455 253.793121 
L 524.563636 257.64535 
L 524.901818 263.423694 
L 525.24 254.756178 
L 525.578182 262.460637 
L 525.916364 260.534522 
L 526.254545 256.682293 
L 526.592727 70.812229 
L 526.930909 257.64535 
L 527.269091 255.719236 
L 527.607273 72.738344 
L 527.945455 265.349809 
L 528.283636 258.608408 
L 528.621818 258.608408 
L 528.96 256.682293 
L 529.298182 68.886115 
L 529.636364 250.903949 
L 529.974545 256.682293 
L 530.312727 73.701401 
L 530.650909 75.627516 
L 530.989091 252.830064 
L 531.327273 68.886115 
L 531.665455 252.830064 
L 532.003636 252.830064 
L 532.341818 70.812229 
L 532.68 251.867006 
L 533.018182 254.756178 
L 533.356364 258.608408 
L 533.694545 256.682293 
L 534.032727 68.886115 
L 534.370909 253.793121 
L 534.709091 258.608408 
L 535.047273 73.701401 
L 535.385455 266.312866 
L 535.723636 250.903949 
L 536.061818 72.738344 
L 536.4 252.830064 
L 536.738182 264.386752 
L 537.076364 68.886115 
L 537.414545 256.682293 
L 537.752727 73.701401 
L 538.090909 258.608408 
L 538.429091 254.756178 
L 538.767273 260.534522 
L 539.105455 72.738344 
L 539.443636 71.775287 
L 539.781818 68.886115 
L 540.12 66.96 
L 540.458182 69.849172 
L 540.796364 254.756178 
L 541.472727 263.423694 
L 541.810909 258.608408 
L 542.149091 257.64535 
L 542.487273 68.886115 
L 542.825455 256.682293 
L 543.163636 274.980382 
L 543.84 257.64535 
L 544.178182 256.682293 
L 544.516364 69.849172 
L 544.854545 256.682293 
L 545.192727 73.701401 
L 545.530909 255.719236 
L 545.869091 72.738344 
L 546.207273 253.793121 
L 546.545455 258.608408 
L 546.883636 266.312866 
L 547.221818 255.719236 
L 547.898182 262.460637 
L 548.236364 250.903949 
L 548.574545 256.682293 
L 548.912727 69.849172 
L 549.250909 67.923057 
L 549.589091 68.886115 
L 549.927273 70.812229 
L 550.265455 68.886115 
L 550.603636 251.867006 
L 550.941818 66.96 
L 551.28 70.812229 
L 551.618182 254.756178 
L 551.956364 250.903949 
L 552.294545 253.793121 
L 552.632727 259.571465 
L 552.970909 66.96 
L 553.309091 261.49758 
L 553.985455 257.64535 
L 554.323636 260.534522 
L 554.661818 70.812229 
L 555 256.682293 
L 555.338182 257.64535 
L 555.676364 70.812229 
L 556.014545 72.738344 
L 556.352727 72.738344 
L 556.690909 256.682293 
L 557.029091 70.812229 
L 557.367273 262.460637 
L 557.705455 260.534522 
L 558.043636 66.96 
L 558.381818 253.793121 
L 558.72 265.349809 
L 559.058182 259.571465 
L 559.396364 260.534522 
L 559.734545 251.867006 
L 560.072727 257.64535 
L 560.410909 72.738344 
L 560.749091 258.608408 
L 561.425455 254.756178 
L 561.763636 72.738344 
L 562.101818 69.849172 
L 562.44 259.571465 
L 562.778182 66.96 
L 563.116364 260.534522 
L 563.454545 66.96 
L 563.792727 66.96 
L 564.130909 255.719236 
L 564.469091 66.96 
L 564.807273 78.516688 
L 565.145455 254.756178 
L 565.483636 67.923057 
L 565.821818 71.775287 
L 566.16 258.608408 
L 566.498182 68.886115 
L 566.836364 70.812229 
L 567.174545 265.349809 
L 567.512727 260.534522 
L 567.850909 252.830064 
L 568.189091 260.534522 
L 568.527273 263.423694 
L 568.865455 74.664459 
L 569.203636 68.886115 
L 569.541818 259.571465 
L 569.88 69.849172 
L 570.218182 71.775287 
L 570.556364 72.738344 
L 570.894545 261.49758 
L 571.232727 71.775287 
L 571.570909 75.627516 
L 571.909091 273.054268 
L 572.247273 252.830064 
L 572.585455 252.830064 
L 572.923636 67.923057 
L 573.261818 72.738344 
L 573.6 259.571465 
L 573.938182 255.719236 
L 574.276364 256.682293 
L 574.614545 259.571465 
L 574.952727 253.793121 
L 575.290909 254.756178 
L 575.629091 73.701401 
L 575.967273 259.571465 
L 576.305455 67.923057 
L 576.643636 73.701401 
L 576.981818 69.849172 
L 577.32 68.886115 
L 577.658182 66.96 
L 577.996364 69.849172 
L 578.334545 264.386752 
L 578.672727 259.571465 
L 579.010909 66.96 
L 579.349091 259.571465 
L 579.687273 74.664459 
L 580.025455 265.349809 
L 580.363636 250.903949 
L 580.701818 78.516688 
L 581.04 69.849172 
L 581.378182 73.701401 
L 581.716364 251.867006 
L 582.054545 265.349809 
L 582.730909 259.571465 
L 583.069091 259.571465 
L 583.407273 66.96 
L 583.745455 67.923057 
L 584.083636 257.64535 
L 584.421818 68.886115 
L 584.76 72.738344 
L 585.098182 258.608408 
L 585.436364 262.460637 
L 585.774545 68.886115 
L 586.112727 253.793121 
L 586.450909 256.682293 
L 586.789091 79.479745 
L 587.127273 253.793121 
L 587.465455 70.812229 
L 587.803636 254.756178 
L 588.141818 252.830064 
L 588.48 254.756178 
L 588.818182 258.608408 
L 589.156364 72.738344 
L 589.494545 68.886115 
L 589.832727 257.64535 
L 590.170909 258.608408 
L 590.509091 266.312866 
L 590.847273 256.682293 
L 591.185455 66.96 
L 591.523636 68.886115 
L 591.861818 75.627516 
L 592.2 68.886115 
L 592.538182 71.775287 
L 592.876364 68.886115 
L 593.214545 257.64535 
L 593.552727 66.96 
L 593.890909 85.258089 
L 594.229091 66.96 
L 594.567273 256.682293 
L 594.905455 70.812229 
L 595.243636 66.96 
L 595.581818 258.608408 
L 595.92 71.775287 
L 596.258182 253.793121 
L 596.596364 70.812229 
L 596.934545 255.719236 
L 597.272727 68.886115 
L 597.610909 263.423694 
L 597.949091 259.571465 
L 598.287273 68.886115 
L 598.625455 252.830064 
L 598.963636 71.775287 
L 599.301818 265.349809 
L 599.64 71.775287 
L 599.978182 74.664459 
L 600.316364 67.923057 
L 600.654545 257.64535 
L 600.992727 252.830064 
L 601.330909 70.812229 
L 601.669091 260.534522 
L 602.007273 262.460637 
L 602.345455 253.793121 
L 602.683636 251.867006 
L 603.021818 256.682293 
L 603.36 71.775287 
L 603.698182 252.830064 
L 604.036364 69.849172 
L 604.374545 257.64535 
L 604.712727 254.756178 
L 605.050909 260.534522 
L 605.389091 70.812229 
L 605.727273 73.701401 
L 606.065455 68.886115 
L 606.403636 257.64535 
L 606.741818 258.608408 
L 607.08 74.664459 
L 607.418182 67.923057 
L 607.756364 68.886115 
L 608.094545 66.96 
L 608.432727 268.238981 
L 608.770909 257.64535 
L 609.109091 71.775287 
L 609.447273 253.793121 
L 609.785455 68.886115 
L 610.123636 250.903949 
L 610.461818 260.534522 
L 610.8 258.608408 
L 611.138182 67.923057 
L 611.476364 69.849172 
L 611.814545 68.886115 
L 612.152727 257.64535 
L 612.490909 66.96 
L 612.829091 69.849172 
L 613.167273 74.664459 
L 613.505455 254.756178 
L 613.843636 256.682293 
L 614.181818 253.793121 
L 614.52 259.571465 
L 614.858182 268.238981 
L 615.196364 256.682293 
L 615.534545 255.719236 
L 615.872727 263.423694 
L 616.210909 68.886115 
L 616.549091 254.756178 
L 616.887273 70.812229 
L 617.225455 70.812229 
L 617.563636 258.608408 
L 617.901818 66.96 
L 618.24 74.664459 
L 618.578182 67.923057 
L 618.916364 71.775287 
L 619.254545 72.738344 
L 619.592727 262.460637 
L 619.930909 263.423694 
L 620.269091 252.830064 
L 620.607273 253.793121 
L 620.945455 68.886115 
L 621.283636 68.886115 
L 621.621818 254.756178 
L 621.96 66.96 
L 622.298182 261.49758 
L 622.298182 261.49758 
" clip-path="url(#p5f78c5b22f)" style="fill: none; stroke: #1f77b4; stroke-opacity: 0.3; stroke-width: 1.5; stroke-linecap: square"/>
   </g>
   <g id="line2d_32">
    <path d="M 149.181818 275.067057 
L 149.52 275.047796 
L 150.534545 275.27893 
L 150.872727 275.172994 
L 151.210909 275.27893 
L 151.887273 275.201885 
L 152.225455 275.298191 
L 152.563636 275.27893 
L 153.24 275.616 
L 153.578182 275.587108 
L 153.916364 275.693045 
L 154.254545 275.519694 
L 154.930909 274.903338 
L 155.269091 274.729987 
L 155.607273 274.209936 
L 155.945455 274.77814 
L 156.283636 274.710726 
L 156.621818 274.884076 
L 157.298182 274.94186 
L 157.636364 274.855185 
L 157.974545 275.307822 
L 158.312727 275.221146 
L 158.650909 274.720357 
L 158.989091 274.527745 
L 159.327273 274.643312 
L 160.003636 274.373656 
L 160.341818 274.161783 
L 160.68 274.142522 
L 161.356364 274.402548 
L 161.694545 274.123261 
L 162.370909 274.315873 
L 162.709091 273.76693 
L 163.047273 273.449121 
L 163.385455 274.036586 
L 163.723636 274.104 
L 164.4 273.863236 
L 164.738182 273.555057 
L 165.076364 273.863236 
L 165.752727 274.026955 
L 167.105455 273.063898 
L 167.781818 273.246879 
L 168.12 273.815083 
L 168.458182 273.978803 
L 168.796364 273.988433 
L 169.472727 274.219567 
L 169.810909 274.190675 
L 170.487273 273.680255 
L 170.825455 273.853605 
L 171.501818 273.304662 
L 171.84 273.641732 
L 172.178182 273.680255 
L 172.516364 273.545427 
L 172.854545 273.757299 
L 173.192727 273.747669 
L 173.530909 274.094369 
L 173.869091 274.094369 
L 174.207273 274.296611 
L 174.883636 274.104 
L 175.221818 274.460331 
L 175.898182 274.104 
L 176.236364 274.479592 
L 176.574545 274.209936 
L 176.912727 274.094369 
L 177.250909 274.296611 
L 177.589091 273.94028 
L 177.927273 274.729987 
L 178.265455 274.932229 
L 178.941818 274.826293 
L 179.28 274.296611 
L 179.618182 274.373656 
L 180.294545 274.296611 
L 180.632727 274.383287 
L 180.970909 273.998064 
L 181.309091 274.113631 
L 181.985455 273.988433 
L 182.323636 274.306242 
L 182.661818 274.306242 
L 183 274.055847 
L 183.676364 274.171414 
L 184.014545 274.171414 
L 184.352727 274.026955 
L 184.690909 274.104 
L 185.029091 274.816662 
L 185.705455 274.864815 
L 186.381818 274.701096 
L 186.72 274.44107 
L 187.396364 274.575898 
L 188.410909 273.853605 
L 188.749091 274.007694 
L 189.425455 273.998064 
L 189.763636 273.535796 
L 190.44 273.410599 
L 192.130909 273.246879 
L 192.469091 273.121682 
L 192.807273 273.458752 
L 193.483636 273.487643 
L 193.821818 273.59358 
L 194.498182 273.545427 
L 194.836364 273.632102 
L 195.174545 273.372076 
L 195.512727 273.689885 
L 195.850909 273.468382 
L 196.527273 273.381707 
L 197.203636 272.293452 
L 197.88 272.274191 
L 198.218182 272.919439 
L 198.894545 273.189096 
L 199.570909 272.871287 
L 200.247273 273.208357 
L 200.585455 273.131312 
L 200.923636 273.314293 
L 201.6 273.295032 
L 201.938182 272.697936 
L 202.952727 273.044637 
L 203.967273 272.784611 
L 204.305455 272.890548 
L 204.643636 272.697936 
L 204.981818 272.707567 
L 205.996364 272.158624 
L 206.672727 272.023796 
L 207.010909 272.226038 
L 207.349091 272.023796 
L 207.687273 271.994904 
L 208.025455 271.407439 
L 208.701818 272.09121 
L 209.04 271.860076 
L 209.378182 271.802293 
L 209.716364 271.898599 
L 210.054545 271.445962 
L 210.392727 271.551898 
L 210.730909 271.532637 
L 211.407273 271.195567 
L 211.745455 270.348076 
L 212.083636 270.473274 
L 212.421818 270.376968 
L 213.774545 270.74293 
L 214.112727 270.90665 
L 216.141818 270.222879 
L 216.48 270.059159 
L 216.818182 270.184357 
L 217.156364 270.088051 
L 217.494545 269.73172 
L 218.509091 269.953223 
L 218.847273 269.06721 
L 219.185455 269.40428 
L 219.861818 269.519847 
L 220.2 269.885809 
L 220.538182 269.982115 
L 220.876364 269.625783 
L 221.214545 269.625783 
L 221.890909 269.808764 
L 222.229091 269.885809 
L 222.905455 269.818395 
L 223.92 269.625783 
L 224.596364 269.413911 
L 224.934545 269.471694 
L 225.949091 268.836076 
L 226.287273 269.105732 
L 226.625455 268.739771 
L 227.301818 268.614573 
L 227.64 268.537529 
L 227.978182 268.576051 
L 229.669091 267.969325 
L 230.345455 267.988586 
L 230.683636 268.171567 
L 231.021818 268.181197 
L 231.36 268.027108 
L 231.698182 268.113783 
L 232.036364 267.54558 
L 232.712727 266.861809 
L 233.389091 266.765503 
L 235.756364 266.081732 
L 236.094545 266.226191 
L 236.432727 266.226191 
L 236.770909 266.091363 
L 237.447273 266.621045 
L 238.461818 266.524739 
L 238.8 266.890701 
L 240.152727 266.938854 
L 240.490909 266.832917 
L 241.167273 267.420382 
L 241.505455 267.516688 
L 241.843636 267.352968 
L 242.181818 267.372229 
L 242.52 267.141096 
L 242.858182 267.343338 
L 243.196364 268.210089 
L 243.534545 268.287134 
L 244.210909 269.568 
L 244.549091 269.750981 
L 245.225455 269.808764 
L 245.563636 269.847287 
L 245.901818 269.462064 
L 246.24 269.433172 
L 246.578182 269.654675 
L 247.592727 269.664306 
L 248.269091 269.750981 
L 248.607273 270.511796 
L 249.283636 271.503745 
L 249.621818 271.677096 
L 249.96 271.59042 
L 250.636364 271.571159 
L 250.974545 272.592 
L 251.650909 272.331975 
L 251.989091 272.023796 
L 252.327273 271.956382 
L 252.665455 272.09121 
L 253.003636 271.725248 
L 253.341818 271.898599 
L 253.68 272.226038 
L 254.356364 271.908229 
L 255.032727 272.447541 
L 255.709091 272.274191 
L 256.723636 272.25493 
L 258.076364 272.794242 
L 258.414545 272.746089 
L 258.752727 272.967592 
L 259.429091 273.006115 
L 259.767273 273.150573 
L 260.105455 272.852025 
L 260.443636 272.832764 
L 260.781818 273.006115 
L 261.12 273.42986 
L 261.458182 273.59358 
L 262.472727 273.59358 
L 262.810909 273.506904 
L 263.149091 273.641732 
L 263.487273 273.978803 
L 264.84 273.60321 
L 265.178182 273.776561 
L 265.854545 273.718777 
L 266.192727 273.901758 
L 266.530909 273.94028 
L 266.869091 273.863236 
L 267.207273 274.007694 
L 267.883636 274.094369 
L 268.221818 274.469962 
L 268.56 274.489223 
L 269.236364 274.392917 
L 269.574545 274.344764 
L 269.912727 274.161783 
L 270.250909 274.335134 
L 270.589091 274.171414 
L 270.927273 273.834344 
L 271.265455 273.660994 
L 272.28 273.699516 
L 272.618182 273.352815 
L 274.309091 273.583949 
L 274.985455 272.909809 
L 275.661818 273.035006 
L 276.338182 272.476433 
L 276.676364 272.264561 
L 277.014545 271.59042 
L 277.352727 271.532637 
L 278.029091 270.222879 
L 278.705455 270.184357 
L 279.381818 270.261401 
L 279.72 270.473274 
L 280.058182 270.482904 
L 280.396364 270.145834 
L 281.072727 270.367338 
L 282.087273 269.683567 
L 282.425455 268.836076 
L 282.763636 268.72051 
L 283.101818 266.389911 
L 283.44 266.255083 
L 284.116364 266.293605 
L 284.454545 266.264713 
L 284.792727 265.176459 
L 285.469091 265.494268 
L 286.145455 265.53279 
L 286.483636 265.446115 
L 286.821818 265.744662 
L 287.836364 265.36907 
L 288.174545 265.484637 
L 289.189091 265.051261 
L 289.527273 265.089783 
L 289.865455 265.465376 
L 290.203636 265.243873 
L 290.541818 265.552051 
L 290.88 265.417223 
L 291.218182 265.503898 
L 291.556364 265.436484 
L 292.232727 265.638726 
L 292.570909 265.397962 
L 293.247273 265.349809 
L 293.585455 265.128306 
L 293.923636 265.214981 
L 294.261818 263.298497 
L 294.6 263.250344 
L 294.938182 262.778446 
L 295.614545 262.624357 
L 296.290909 258.945478 
L 296.629091 258.984 
L 296.967273 258.839541 
L 297.305455 258.377274 
L 297.981818 258.338752 
L 298.32 258.502471 
L 298.658182 258.492841 
L 299.334545 258.232815 
L 300.349091 258.011312 
L 300.687273 258.001682 
L 301.025455 255.969631 
L 301.701818 255.96 
L 302.04 255.603669 
L 302.378182 255.488102 
L 303.730909 255.468841 
L 304.069091 255.237707 
L 304.745455 255.228076 
L 305.421818 255.391796 
L 306.098182 255.189554 
L 306.436364 255.334013 
L 306.774545 255.266599 
L 307.112727 253.43679 
L 307.450909 253.581248 
L 307.789091 253.427159 
L 308.127273 253.696815 
L 308.465455 253.552357 
L 309.141818 253.629401 
L 310.156364 253.571618 
L 310.832727 253.581248 
L 311.847273 253.330854 
L 312.185455 253.196025 
L 312.523636 253.388637 
L 312.861818 253.321223 
L 313.2 251.452892 
L 313.538182 251.192866 
L 315.905455 251.038777 
L 316.243636 251.096561 
L 316.581818 250.855796 
L 317.258182 250.91358 
L 318.949091 250.74986 
L 319.287273 250.566879 
L 319.625455 250.58614 
L 319.963636 248.852637 
L 320.301818 248.73707 
L 320.64 248.409631 
L 320.978182 248.342217 
L 321.654545 247.73549 
L 323.007273 247.745121 
L 323.345455 247.668076 
L 323.683636 247.234701 
L 324.021818 247.369529 
L 324.36 245.144866 
L 325.036364 244.971516 
L 325.374545 245.096713 
L 325.712727 244.769274 
L 326.050909 242.997248 
L 326.389091 242.987618 
L 326.727273 241.138548 
L 327.065455 241.042242 
L 327.741818 237.440408 
L 328.08 239.424306 
L 328.418182 239.299108 
L 329.432727 239.328 
L 330.109091 242.920204 
L 330.447273 242.814268 
L 330.785455 241.080764 
L 331.123636 241.167439 
L 331.8 241.109656 
L 332.138182 240.955567 
L 332.814545 241.01335 
L 333.152727 241.032611 
L 333.490909 241.34079 
L 333.829091 239.414675 
L 334.505455 239.636178 
L 334.843636 241.50451 
L 335.181818 241.629707 
L 335.858182 241.600815 
L 336.196364 241.889732 
L 336.872727 241.822318 
L 337.549091 241.85121 
L 337.887273 241.908994 
L 338.563636 241.860841 
L 339.24 241.986038 
L 339.916364 241.966777 
L 340.254545 241.870471 
L 340.592727 241.947516 
L 340.930909 243.738803 
L 341.607273 243.729172 
L 341.945455 243.603975 
L 342.283636 243.69065 
L 342.96 243.642497 
L 343.974545 243.835108 
L 344.312727 243.777325 
L 344.650909 243.603975 
L 344.989091 243.623236 
L 345.327273 241.860841 
L 346.003636 241.889732 
L 346.341818 241.706752 
L 346.68 241.67786 
L 347.018182 243.440255 
L 347.694545 243.382471 
L 348.032727 241.494879 
L 349.385455 241.234854 
L 349.723636 239.385783 
L 350.4 239.222064 
L 350.738182 240.955567 
L 353.105455 240.936306 
L 353.443636 239.039083 
L 353.781818 240.791847 
L 354.458182 240.868892 
L 355.134545 240.994089 
L 355.472727 241.100025 
L 355.810909 241.00372 
L 356.825455 241.109656 
L 357.163636 241.109656 
L 357.84 237.31521 
L 358.178182 239.087236 
L 358.516364 239.048713 
L 358.854545 237.161121 
L 359.192727 236.958879 
L 359.530909 237.064815 
L 359.869091 238.759796 
L 360.207273 236.987771 
L 360.545455 238.856102 
L 360.883636 238.807949 
L 361.56 242.486828 
L 362.574545 242.380892 
L 362.912727 240.493299 
L 363.927273 240.734064 
L 364.265455 240.791847 
L 364.603636 242.679439 
L 364.941818 242.669809 
L 365.28 240.945936 
L 366.632727 240.791847 
L 366.970909 238.933146 
L 367.309091 238.692382 
L 367.647273 240.849631 
L 367.985455 240.811108 
L 368.323636 238.894624 
L 368.661818 238.846471 
L 369 236.843312 
L 370.352727 236.81442 
L 370.690909 235.109809 
L 371.029091 235.071287 
L 371.705455 234.820892 
L 372.043636 234.840153 
L 372.381818 232.981452 
L 372.72 232.759949 
L 373.058182 232.731057 
L 374.072727 232.894777 
L 378.469091 232.61549 
L 378.807273 232.634752 
L 379.145455 234.348994 
L 379.821818 234.464561 
L 381.512727 234.801631 
L 381.850909 236.708484 
L 382.189091 236.747006 
L 382.527273 236.660331 
L 382.865455 236.785529 
L 383.203636 234.897936 
L 383.541818 236.824051 
L 385.232727 236.621809 
L 385.570909 236.602548 
L 385.909091 234.811261 
L 386.923636 234.946089 
L 387.261818 236.766268 
L 387.938182 236.862573 
L 388.276364 236.843312 
L 388.614545 234.984611 
L 388.952727 234.888306 
L 389.290909 234.907567 
L 389.629091 233.058497 
L 390.643636 232.923669 
L 390.981818 232.856255 
L 391.32 234.753478 
L 391.658182 234.782369 
L 392.334545 231.113121 
L 392.672727 232.933299 
L 393.010909 231.142013 
L 393.687273 231.007185 
L 394.025455 232.798471 
L 394.363636 232.721427 
L 394.701818 232.856255 
L 395.04 232.827363 
L 395.378182 232.923669 
L 396.054545 229.148484 
L 396.392727 229.148484 
L 396.730909 230.978293 
L 397.069091 228.926981 
L 397.407273 228.955873 
L 398.083636 228.840306 
L 398.76 225.113274 
L 399.098182 226.837146 
L 399.436364 224.997707 
L 400.450909 224.930293 
L 400.789091 226.827516 
L 401.127273 226.856408 
L 401.465455 226.606013 
L 401.803636 226.548229 
L 402.141818 228.358777 
L 402.48 226.55786 
L 403.156364 226.625274 
L 403.494545 226.577121 
L 403.832727 224.602854 
L 404.170909 224.612484 
L 404.509091 226.23042 
L 405.185455 226.317096 
L 405.861818 226.413401 
L 406.2 228.368408 
L 406.876364 228.387669 
L 407.890909 228.195057 
L 408.567273 228.175796 
L 408.905455 226.317096 
L 409.581818 226.326726 
L 409.92 224.37172 
L 412.625455 224.227261 
L 413.64 224.130955 
L 414.316364 224.092433 
L 414.654545 222.272255 
L 416.683636 222.041121 
L 417.021818 224.005758 
L 417.698182 223.928713 
L 419.389091 224.005758 
L 419.727273 225.835567 
L 420.065455 225.816306 
L 420.403636 223.890191 
L 420.741818 223.726471 
L 421.08 221.992968 
L 421.418182 221.983338 
L 422.094545 218.362242 
L 422.432727 220.201682 
L 422.770909 218.381503 
L 423.109091 218.381503 
L 423.447273 220.259465 
L 424.123636 220.288357 
L 424.8 220.394293 
L 425.138182 218.468178 
L 426.152727 224.053911 
L 426.490909 222.291516 
L 426.829091 224.208 
L 427.167273 222.339669 
L 427.505455 222.551541 
L 428.181818 222.618955 
L 428.52 220.740994 
L 429.196364 220.68321 
L 429.872727 224.342828 
L 430.210909 222.551541 
L 430.549091 222.541911 
L 430.887273 224.400611 
L 431.563636 224.390981 
L 431.901818 224.535439 
L 432.24 226.249682 
L 432.916364 226.278573 
L 433.254545 228.185427 
L 433.592727 228.175796 
L 433.930909 228.310624 
L 434.269091 226.471185 
L 435.283636 226.451924 
L 435.96 226.586752 
L 436.636364 230.08265 
L 436.974545 230.294522 
L 438.665455 230.246369 
L 439.341818 226.490446 
L 439.68 226.413401 
L 440.356364 222.561172 
L 440.694545 222.599694 
L 441.032727 220.731363 
L 441.370909 220.798777 
L 441.709091 218.949707 
L 442.723636 218.843771 
L 443.061818 217.033223 
L 444.076364 217.052484 
L 444.414545 215.164892 
L 446.105455 215.116739 
L 446.443636 213.152102 
L 447.796364 213.209885 
L 448.134545 211.312662 
L 448.472727 213.171363 
L 448.810909 213.190624 
L 449.149091 211.322293 
L 449.825455 211.351185 
L 450.163636 209.579159 
L 450.84 209.608051 
L 451.516364 205.958064 
L 451.854545 205.967694 
L 452.192727 204.099363 
L 453.545455 204.070471 
L 453.883636 202.231032 
L 454.221818 204.157146 
L 454.56 202.231032 
L 455.236364 202.096204 
L 455.574545 203.926013 
L 456.250909 203.791185 
L 456.589091 205.592102 
L 457.265455 205.515057 
L 458.618182 205.55358 
L 458.956364 207.450803 
L 459.632727 207.258191 
L 459.970909 207.306344 
L 460.309091 209.232459 
L 460.647273 209.136153 
L 460.985455 210.917809 
L 461.661818 210.76372 
L 462.338182 210.686675 
L 462.676364 208.837605 
L 463.352727 208.827975 
L 463.690909 208.827975 
L 464.029091 210.677045 
L 465.381818 210.840764 
L 465.72 208.885758 
L 466.058182 208.856866 
L 466.396364 210.76372 
L 467.072727 210.888917 
L 467.749091 210.850395 
L 468.425455 210.802242 
L 468.763636 208.982064 
L 469.44 208.953172 
L 469.778182 207.06558 
L 470.116364 207.07521 
L 470.454545 205.149096 
L 470.792727 205.014268 
L 471.130909 205.014268 
L 471.469091 206.882599 
L 472.145455 203.155567 
L 472.821818 203.20372 
L 473.16 205.158726 
L 473.836364 205.22614 
L 474.512727 205.120204 
L 474.850909 206.988535 
L 475.189091 205.014268 
L 475.527273 205.023898 
L 475.865455 203.165197 
L 476.541818 203.222981 
L 476.88 205.05279 
L 477.218182 203.184459 
L 477.894545 203.126675 
L 478.232727 205.023898 
L 478.909091 204.946854 
L 479.247273 204.985376 
L 479.923636 201.210191 
L 480.261818 203.136306 
L 480.6 203.097783 
L 481.276364 199.370752 
L 481.614545 199.399643 
L 481.952727 199.312968 
L 482.629091 199.370752 
L 482.967273 201.277605 
L 483.305455 201.267975 
L 483.643636 199.390013 
L 484.32 199.197401 
L 484.658182 197.223134 
L 485.334545 200.882752 
L 485.672727 200.786446 
L 486.010909 202.645146 
L 486.687273 198.908484 
L 487.363636 198.879592 
L 487.701818 200.776815 
L 488.04 198.889223 
L 488.378182 200.796076 
L 488.716364 200.767185 
L 489.392727 197.030522 
L 490.407273 197.203873 
L 491.083636 193.428688 
L 491.421818 193.419057 
L 491.76 193.29386 
L 492.098182 191.415898 
L 493.112727 191.290701 
L 493.789091 191.45442 
L 494.127273 191.377376 
L 494.465455 189.60535 
L 494.803636 189.634242 
L 495.141818 187.708127 
L 495.818182 187.659975 
L 496.494545 187.708127 
L 496.832727 187.659975 
L 497.509091 184.000357 
L 498.185455 183.932943 
L 498.861818 180.167389 
L 499.2 180.157758 
L 499.538182 181.949045 
L 500.552727 181.843108 
L 500.890909 179.945885 
L 501.567273 180.02293 
L 501.905455 181.833478 
L 502.243636 179.936255 
L 502.581818 181.814217 
L 502.92 181.70828 
L 503.258182 181.727541 
L 503.596364 183.55735 
L 503.934545 181.717911 
L 504.272727 183.615134 
L 504.949091 183.615134 
L 505.287273 183.682548 
L 505.625455 185.627924 
L 505.963636 185.676076 
L 506.301818 183.846268 
L 506.64 185.627924 
L 507.654545 185.473834 
L 507.992727 187.41921 
L 508.330909 187.486624 
L 508.669091 185.589401 
L 509.007273 187.467363 
L 509.345455 187.496255 
L 509.683636 189.277911 
L 510.698182 189.306803 
L 511.374545 193.053096 
L 512.389091 193.033834 
L 513.065455 189.354955 
L 513.403636 189.374217 
L 513.741818 191.194395 
L 514.418182 191.213656 
L 514.756364 193.033834 
L 516.447273 192.95679 
L 516.785455 191.021045 
L 517.461818 190.866955 
L 517.8 192.744917 
L 518.138182 190.944 
L 518.476364 192.783439 
L 519.152727 192.783439 
L 520.167273 192.754548 
L 520.505455 194.690293 
L 521.181818 194.651771 
L 521.52 192.725656 
L 521.858182 194.593987 
L 522.196364 194.545834 
L 523.549091 202.096204 
L 523.887273 201.971006 
L 524.225455 201.999898 
L 524.901818 205.678777 
L 525.578182 205.765452 
L 525.916364 207.624153 
L 526.592727 207.73972 
L 526.930909 205.842497 
L 527.607273 205.717299 
L 527.945455 203.839338 
L 528.283636 205.707669 
L 528.621818 205.736561 
L 528.96 207.624153 
L 529.298182 207.662675 
L 529.636364 205.755822 
L 530.312727 209.280611 
L 530.650909 207.498955 
L 530.989091 207.527847 
L 531.327273 209.290242 
L 531.665455 207.41228 
L 532.003636 207.344866 
L 532.341818 209.203567 
L 533.356364 209.049478 
L 534.032727 209.039847 
L 534.370909 207.123363 
L 534.709091 208.933911 
L 535.047273 208.91465 
L 535.385455 207.036688 
L 535.723636 207.190777 
L 536.061818 208.991694 
L 536.4 207.06558 
L 537.076364 207.123363 
L 537.414545 205.235771 
L 537.752727 207.113732 
L 538.090909 205.264662 
L 539.105455 205.197248 
L 539.443636 203.290395 
L 540.12 203.174828 
L 540.796364 199.467057 
L 541.134545 199.467057 
L 541.472727 201.345019 
L 542.149091 201.258344 
L 542.487273 203.155567 
L 542.825455 201.296866 
L 543.163636 203.107414 
L 543.84 203.454115 
L 544.178182 205.22614 
L 544.516364 205.187618 
L 544.854545 203.348178 
L 545.192727 203.367439 
L 545.530909 201.518369 
L 545.869091 201.537631 
L 546.207273 199.688561 
L 547.221818 205.245401 
L 548.236364 205.332076 
L 548.574545 205.197248 
L 548.912727 207.07521 
L 549.250909 205.21651 
L 549.589091 205.206879 
L 550.265455 201.479847 
L 551.28 201.431694 
L 551.618182 199.592255 
L 551.956364 201.431694 
L 552.632727 201.412433 
L 552.970909 201.431694 
L 553.309091 199.553732 
L 553.647273 199.592255 
L 553.985455 201.489478 
L 554.661818 201.537631 
L 555 199.688561 
L 555.338182 201.547261 
L 555.676364 201.547261 
L 556.690909 195.942268 
L 557.029091 195.884484 
L 557.367273 194.035414 
L 558.043636 194.179873 
L 558.381818 192.311541 
L 559.058182 192.29228 
L 559.734545 192.321172 
L 560.410909 192.244127 
L 561.425455 192.28265 
L 561.763636 194.102828 
L 562.44 190.289121 
L 562.778182 190.298752 
L 563.116364 188.401529 
L 563.454545 190.318013 
L 564.130909 186.58135 
L 564.469091 188.401529 
L 564.807273 188.314854 
L 565.145455 186.57172 
L 565.483636 188.43042 
L 566.16 184.770803 
L 566.498182 186.648764 
L 567.174545 182.979516 
L 567.850909 183.085452 
L 568.189091 184.924892 
L 569.203636 185.050089 
L 569.541818 183.075822 
L 569.88 183.162497 
L 570.218182 183.133605 
L 570.894545 179.406573 
L 571.232727 181.332688 
L 571.570909 179.483618 
L 571.909091 179.502879 
L 572.247273 179.647338 
L 573.6 179.51251 
L 574.614545 185.175287 
L 575.290909 185.165656 
L 575.629091 185.078981 
L 575.967273 183.229911 
L 576.643636 183.239541 
L 578.334545 173.608968 
L 578.672727 175.554344 
L 580.363636 175.689172 
L 580.701818 175.612127 
L 581.716364 170.016764 
L 582.054545 169.910828 
L 582.730909 170.11307 
L 583.407273 173.926777 
L 584.083636 173.878624 
L 584.421818 175.766217 
L 584.76 173.936408 
L 585.098182 173.994191 
L 585.436364 175.872153 
L 585.774545 175.949197 
L 586.112727 174.129019 
L 587.465455 174.14828 
L 587.803636 172.260688 
L 588.48 172.154752 
L 588.818182 173.994191 
L 589.156364 174.013452 
L 589.494545 172.164382 
L 589.832727 172.145121 
L 590.509091 175.852892 
L 590.847273 175.949197 
L 591.185455 177.807898 
L 591.861818 173.936408 
L 592.2 174.023083 
L 593.214545 168.331414 
L 593.552727 168.302522 
L 594.229091 164.72958 
L 594.905455 164.652535 
L 595.581818 160.915873 
L 595.92 162.774573 
L 596.934545 162.774573 
L 597.610909 162.745682 
L 597.949091 164.710318 
L 598.625455 164.768102 
L 598.963636 166.511236 
L 599.301818 164.681427 
L 599.64 166.655694 
L 599.978182 166.655694 
L 600.316364 164.816255 
L 600.654545 164.806624 
L 600.992727 166.674955 
L 601.330909 166.549758 
L 601.669091 164.652535 
L 602.345455 164.748841 
L 602.683636 164.652535 
L 603.36 168.302522 
L 603.698182 166.424561 
L 604.036364 168.254369 
L 604.374545 168.235108 
L 604.712727 170.084178 
L 605.050909 170.016764 
L 605.389091 171.904357 
L 605.727273 171.856204 
L 606.403636 168.023236 
L 606.741818 168.071389 
L 607.08 169.978242 
L 607.418182 169.997503 
L 608.432727 164.315465 
L 609.109091 164.440662 
L 609.447273 162.610854 
L 609.785455 164.411771 
L 610.123636 162.504917 
L 611.138182 168.09065 
L 612.490909 168.032866 
L 612.829091 166.106752 
L 613.167273 166.135643 
L 613.505455 164.286573 
L 613.843636 166.08749 
L 614.181818 166.000815 
L 614.52 166.029707 
L 615.534545 171.653962 
L 616.210909 171.673223 
L 616.549091 169.737478 
L 616.887273 169.689325 
L 617.225455 167.801732 
L 617.563636 167.840255 
L 617.901818 169.747108 
L 618.24 167.840255 
L 618.916364 167.849885 
L 619.592727 164.084331 
L 619.930909 166.020076 
L 620.269091 166.116382 
L 620.607273 166.07786 
L 620.945455 167.820994 
L 621.283636 165.971924 
L 621.96 165.952662 
L 622.298182 164.093962 
L 622.636364 164.161376 
L 622.636364 164.161376 
" clip-path="url(#p5f78c5b22f)" style="fill: none; stroke: #0000ff; stroke-width: 2; stroke-linecap: square"/>
   </g>
   <g id="patch_3">
    <path d="M 90 384.48 
L 90 51.84 
" style="fill: none; stroke: #000000; stroke-width: 0.8; stroke-linejoin: miter; stroke-linecap: square"/>
   </g>
   <g id="patch_4">
    <path d="M 648 384.48 
L 648 51.84 
" style="fill: none; stroke: #000000; stroke-width: 0.8; stroke-linejoin: miter; stroke-linecap: square"/>
   </g>
   <g id="patch_5">
    <path d="M 90 384.48 
L 648 384.48 
" style="fill: none; stroke: #000000; stroke-width: 0.8; stroke-linejoin: miter; stroke-linecap: square"/>
   </g>
   <g id="patch_6">
    <path d="M 90 51.84 
L 648 51.84 
" style="fill: none; stroke: #000000; stroke-width: 0.8; stroke-linejoin: miter; stroke-linecap: square"/>
   </g>
   <g id="text_18">
    <!-- DQN Average Reward per Episode -->
    <g transform="translate(267.023438 45.84) scale(0.12 -0.12)">
     <defs>
      <path id="DejaVuSans-44" d="M 1259 4147 
L 1259 519 
L 2022 519 
Q 2988 519 3436 956 
Q 3884 1394 3884 2338 
Q 3884 3275 3436 3711 
Q 2988 4147 2022 4147 
L 1259 4147 
z
M 628 4666 
L 1925 4666 
Q 3281 4666 3915 4102 
Q 4550 3538 4550 2338 
Q 4550 1131 3912 565 
Q 3275 0 1925 0 
L 628 0 
L 628 4666 
z
" transform="scale(0.015625)"/>
      <path id="DejaVuSans-51" d="M 2522 4238 
Q 1834 4238 1429 3725 
Q 1025 3213 1025 2328 
Q 1025 1447 1429 934 
Q 1834 422 2522 422 
Q 3209 422 3611 934 
Q 4013 1447 4013 2328 
Q 4013 3213 3611 3725 
Q 3209 4238 2522 4238 
z
M 3406 84 
L 4238 -825 
L 3475 -825 
L 2784 -78 
Q 2681 -84 2626 -87 
Q 2572 -91 2522 -91 
Q 1538 -91 948 567 
Q 359 1225 359 2328 
Q 359 3434 948 4092 
Q 1538 4750 2522 4750 
Q 3503 4750 4090 4092 
Q 4678 3434 4678 2328 
Q 4678 1516 4351 937 
Q 4025 359 3406 84 
z
" transform="scale(0.015625)"/>
      <path id="DejaVuSans-4e" d="M 628 4666 
L 1478 4666 
L 3547 763 
L 3547 4666 
L 4159 4666 
L 4159 0 
L 3309 0 
L 1241 3903 
L 1241 0 
L 628 0 
L 628 4666 
z
" transform="scale(0.015625)"/>
      <path id="DejaVuSans-41" d="M 2188 4044 
L 1331 1722 
L 3047 1722 
L 2188 4044 
z
M 1831 4666 
L 2547 4666 
L 4325 0 
L 3669 0 
L 3244 1197 
L 1141 1197 
L 716 0 
L 50 0 
L 1831 4666 
z
" transform="scale(0.015625)"/>
      <path id="DejaVuSans-67" d="M 2906 1791 
Q 2906 2416 2648 2759 
Q 2391 3103 1925 3103 
Q 1463 3103 1205 2759 
Q 947 2416 947 1791 
Q 947 1169 1205 825 
Q 1463 481 1925 481 
Q 2391 481 2648 825 
Q 2906 1169 2906 1791 
z
M 3481 434 
Q 3481 -459 3084 -895 
Q 2688 -1331 1869 -1331 
Q 1566 -1331 1297 -1286 
Q 1028 -1241 775 -1147 
L 775 -588 
Q 1028 -725 1275 -790 
Q 1522 -856 1778 -856 
Q 2344 -856 2625 -561 
Q 2906 -266 2906 331 
L 2906 616 
Q 2728 306 2450 153 
Q 2172 0 1784 0 
Q 1141 0 747 490 
Q 353 981 353 1791 
Q 353 2603 747 3093 
Q 1141 3584 1784 3584 
Q 2172 3584 2450 3431 
Q 2728 3278 2906 2969 
L 2906 3500 
L 3481 3500 
L 3481 434 
z
" transform="scale(0.015625)"/>
     </defs>
     <use xlink:href="#DejaVuSans-44"/>
     <use xlink:href="#DejaVuSans-51" transform="translate(77.001953 0)"/>
     <use xlink:href="#DejaVuSans-4e" transform="translate(155.712891 0)"/>
     <use xlink:href="#DejaVuSans-20" transform="translate(230.517578 0)"/>
     <use xlink:href="#DejaVuSans-41" transform="translate(262.304688 0)"/>
     <use xlink:href="#DejaVuSans-76" transform="translate(324.837891 0)"/>
     <use xlink:href="#DejaVuSans-65" transform="translate(384.017578 0)"/>
     <use xlink:href="#DejaVuSans-72" transform="translate(445.541016 0)"/>
     <use xlink:href="#DejaVuSans-61" transform="translate(486.654297 0)"/>
     <use xlink:href="#DejaVuSans-67" transform="translate(547.933594 0)"/>
     <use xlink:href="#DejaVuSans-65" transform="translate(611.410156 0)"/>
     <use xlink:href="#DejaVuSans-20" transform="translate(672.933594 0)"/>
     <use xlink:href="#DejaVuSans-52" transform="translate(704.720703 0)"/>
     <use xlink:href="#DejaVuSans-65" transform="translate(769.703125 0)"/>
     <use xlink:href="#DejaVuSans-77" transform="translate(831.226562 0)"/>
     <use xlink:href="#DejaVuSans-61" transform="translate(913.013672 0)"/>
     <use xlink:href="#DejaVuSans-72" transform="translate(974.292969 0)"/>
     <use xlink:href="#DejaVuSans-64" transform="translate(1013.65625 0)"/>
     <use xlink:href="#DejaVuSans-20" transform="translate(1077.132812 0)"/>
     <use xlink:href="#DejaVuSans-70" transform="translate(1108.919922 0)"/>
     <use xlink:href="#DejaVuSans-65" transform="translate(1172.396484 0)"/>
     <use xlink:href="#DejaVuSans-72" transform="translate(1233.919922 0)"/>
     <use xlink:href="#DejaVuSans-20" transform="translate(1275.033203 0)"/>
     <use xlink:href="#DejaVuSans-45" transform="translate(1306.820312 0)"/>
     <use xlink:href="#DejaVuSans-70" transform="translate(1370.003906 0)"/>
     <use xlink:href="#DejaVuSans-69" transform="translate(1433.480469 0)"/>
     <use xlink:href="#DejaVuSans-73" transform="translate(1461.263672 0)"/>
     <use xlink:href="#DejaVuSans-6f" transform="translate(1513.363281 0)"/>
     <use xlink:href="#DejaVuSans-64" transform="translate(1574.544922 0)"/>
     <use xlink:href="#DejaVuSans-65" transform="translate(1638.021484 0)"/>
    </g>
   </g>
   <g id="legend_1">
    <g id="patch_7">
     <path d="M 97 89.19625 
L 279.65625 89.19625 
Q 281.65625 89.19625 281.65625 87.19625 
L 281.65625 58.84 
Q 281.65625 56.84 279.65625 56.84 
L 97 56.84 
Q 95 56.84 95 58.84 
L 95 87.19625 
Q 95 89.19625 97 89.19625 
z
" style="fill: #ffffff; opacity: 0.8; stroke: #cccccc; stroke-linejoin: miter"/>
    </g>
    <g id="line2d_33">
     <path d="M 99 64.938437 
L 109 64.938437 
L 119 64.938437 
" style="fill: none; stroke: #1f77b4; stroke-opacity: 0.3; stroke-width: 1.5; stroke-linecap: square"/>
    </g>
    <g id="text_19">
     <!-- Raw Rewards -->
     <g transform="translate(127 68.438437) scale(0.1 -0.1)">
      <use xlink:href="#DejaVuSans-52"/>
      <use xlink:href="#DejaVuSans-61" transform="translate(67.232422 0)"/>
      <use xlink:href="#DejaVuSans-77" transform="translate(128.511719 0)"/>
      <use xlink:href="#DejaVuSans-20" transform="translate(210.298828 0)"/>
      <use xlink:href="#DejaVuSans-52" transform="translate(242.085938 0)"/>
      <use xlink:href="#DejaVuSans-65" transform="translate(307.068359 0)"/>
      <use xlink:href="#DejaVuSans-77" transform="translate(368.591797 0)"/>
      <use xlink:href="#DejaVuSans-61" transform="translate(450.378906 0)"/>
      <use xlink:href="#DejaVuSans-72" transform="translate(511.658203 0)"/>
      <use xlink:href="#DejaVuSans-64" transform="translate(551.021484 0)"/>
      <use xlink:href="#DejaVuSans-73" transform="translate(614.498047 0)"/>
     </g>
    </g>
    <g id="line2d_34">
     <path d="M 99 79.616562 
L 109 79.616562 
L 119 79.616562 
" style="fill: none; stroke: #0000ff; stroke-width: 2; stroke-linecap: square"/>
    </g>
    <g id="text_20">
     <!-- Smoothed Avg (Window=100) -->
     <g transform="translate(127 83.116562) scale(0.1 -0.1)">
      <defs>
       <path id="DejaVuSans-53" d="M 3425 4513 
L 3425 3897 
Q 3066 4069 2747 4153 
Q 2428 4238 2131 4238 
Q 1616 4238 1336 4038 
Q 1056 3838 1056 3469 
Q 1056 3159 1242 3001 
Q 1428 2844 1947 2747 
L 2328 2669 
Q 3034 2534 3370 2195 
Q 3706 1856 3706 1288 
Q 3706 609 3251 259 
Q 2797 -91 1919 -91 
Q 1588 -91 1214 -16 
Q 841 59 441 206 
L 441 856 
Q 825 641 1194 531 
Q 1563 422 1919 422 
Q 2459 422 2753 634 
Q 3047 847 3047 1241 
Q 3047 1584 2836 1778 
Q 2625 1972 2144 2069 
L 1759 2144 
Q 1053 2284 737 2584 
Q 422 2884 422 3419 
Q 422 4038 858 4394 
Q 1294 4750 2059 4750 
Q 2388 4750 2728 4690 
Q 3069 4631 3425 4513 
z
" transform="scale(0.015625)"/>
       <path id="DejaVuSans-68" d="M 3513 2113 
L 3513 0 
L 2938 0 
L 2938 2094 
Q 2938 2591 2744 2837 
Q 2550 3084 2163 3084 
Q 1697 3084 1428 2787 
Q 1159 2491 1159 1978 
L 1159 0 
L 581 0 
L 581 4863 
L 1159 4863 
L 1159 2956 
Q 1366 3272 1645 3428 
Q 1925 3584 2291 3584 
Q 2894 3584 3203 3211 
Q 3513 2838 3513 2113 
z
" transform="scale(0.015625)"/>
       <path id="DejaVuSans-57" d="M 213 4666 
L 850 4666 
L 1831 722 
L 2809 4666 
L 3519 4666 
L 4500 722 
L 5478 4666 
L 6119 4666 
L 4947 0 
L 4153 0 
L 3169 4050 
L 2175 0 
L 1381 0 
L 213 4666 
z
" transform="scale(0.015625)"/>
       <path id="DejaVuSans-6e" d="M 3513 2113 
L 3513 0 
L 2938 0 
L 2938 2094 
Q 2938 2591 2744 2837 
Q 2550 3084 2163 3084 
Q 1697 3084 1428 2787 
Q 1159 2491 1159 1978 
L 1159 0 
L 581 0 
L 581 3500 
L 1159 3500 
L 1159 2956 
Q 1366 3272 1645 3428 
Q 1925 3584 2291 3584 
Q 2894 3584 3203 3211 
Q 3513 2838 3513 2113 
z
" transform="scale(0.015625)"/>
      </defs>
      <use xlink:href="#DejaVuSans-53"/>
      <use xlink:href="#DejaVuSans-6d" transform="translate(63.476562 0)"/>
      <use xlink:href="#DejaVuSans-6f" transform="translate(160.888672 0)"/>
      <use xlink:href="#DejaVuSans-6f" transform="translate(222.070312 0)"/>
      <use xlink:href="#DejaVuSans-74" transform="translate(283.251953 0)"/>
      <use xlink:href="#DejaVuSans-68" transform="translate(322.460938 0)"/>
      <use xlink:href="#DejaVuSans-65" transform="translate(385.839844 0)"/>
      <use xlink:href="#DejaVuSans-64" transform="translate(447.363281 0)"/>
      <use xlink:href="#DejaVuSans-20" transform="translate(510.839844 0)"/>
      <use xlink:href="#DejaVuSans-41" transform="translate(542.626953 0)"/>
      <use xlink:href="#DejaVuSans-76" transform="translate(605.160156 0)"/>
      <use xlink:href="#DejaVuSans-67" transform="translate(664.339844 0)"/>
      <use xlink:href="#DejaVuSans-20" transform="translate(727.816406 0)"/>
      <use xlink:href="#DejaVuSans-28" transform="translate(759.603516 0)"/>
      <use xlink:href="#DejaVuSans-57" transform="translate(798.617188 0)"/>
      <use xlink:href="#DejaVuSans-69" transform="translate(895.244141 0)"/>
      <use xlink:href="#DejaVuSans-6e" transform="translate(923.027344 0)"/>
      <use xlink:href="#DejaVuSans-64" transform="translate(986.40625 0)"/>
      <use xlink:href="#DejaVuSans-6f" transform="translate(1049.882812 0)"/>
      <use xlink:href="#DejaVuSans-77" transform="translate(1111.064453 0)"/>
      <use xlink:href="#DejaVuSans-3d" transform="translate(1192.851562 0)"/>
      <use xlink:href="#DejaVuSans-31" transform="translate(1276.640625 0)"/>
      <use xlink:href="#DejaVuSans-30" transform="translate(1340.263672 0)"/>
      <use xlink:href="#DejaVuSans-30" transform="translate(1403.886719 0)"/>
      <use xlink:href="#DejaVuSans-29" transform="translate(1467.509766 0)"/>
     </g>
    </g>
   </g>
  </g>
 </g>
 <defs>
  <clipPath id="p5f78c5b22f">
   <rect x="90" y="51.84" width="558" height="332.64"/>
  </clipPath>
 </defs>
</svg>
