<?xml version="1.0" encoding="utf-8" standalone="no"?>
<!DOCTYPE svg PUBLIC "-//W3C//DTD SVG 1.1//EN"
  "http://www.w3.org/Graphics/SVG/1.1/DTD/svg11.dtd">
<svg xmlns:xlink="http://www.w3.org/1999/xlink" width="460.8pt" height="345.6pt" viewBox="0 0 460.8 345.6" xmlns="http://www.w3.org/2000/svg" version="1.1">
 <metadata>
  <rdf:RDF xmlns:dc="http://purl.org/dc/elements/1.1/" xmlns:cc="http://creativecommons.org/ns#" xmlns:rdf="http://www.w3.org/1999/02/22-rdf-syntax-ns#">
   <cc:Work>
    <dc:type rdf:resource="http://purl.org/dc/dcmitype/StillImage"/>
    <dc:date>2025-09-29T12:10:09.269026</dc:date>
    <dc:format>image/svg+xml</dc:format>
    <dc:creator>
     <cc:Agent>
      <dc:title>Matplotlib v3.10.6, https://matplotlib.org/</dc:title>
     </cc:Agent>
    </dc:creator>
   </cc:Work>
  </rdf:RDF>
 </metadata>
 <defs>
  <style type="text/css">*{stroke-linejoin: round; stroke-linecap: butt}</style>
 </defs>
 <g id="figure_1">
  <g id="patch_1">
   <path d="M 0 345.6 
L 460.8 345.6 
L 460.8 0 
L 0 0 
z
" style="fill: #ffffff"/>
  </g>
  <g id="axes_1">
   <g id="patch_2">
    <path d="M 57.6 307.584 
L 414.72 307.584 
L 414.72 41.472 
L 57.6 41.472 
z
" style="fill: #ffffff"/>
   </g>
   <g id="PathCollection_1">
    <defs>
     <path id="md2ea13036b" d="M 0 3 
C 0.795609 3 1.55874 2.683901 2.12132 2.12132 
C 2.683901 1.55874 3 0.795609 3 0 
C 3 -0.795609 2.683901 -1.55874 2.12132 -2.12132 
C 1.55874 -2.683901 0.795609 -3 0 -3 
C -0.795609 -3 -1.55874 -2.683901 -2.12132 -2.12132 
C -2.683901 -1.55874 -3 -0.795609 -3 0 
C -3 0.795609 -2.683901 1.55874 -2.12132 2.12132 
C -1.55874 2.683901 -0.795609 3 0 3 
z
" style="stroke: #1f77b4"/>
    </defs>
    <g clip-path="url(#p5254e3a9cb)">
     <use xlink:href="#md2ea13036b" x="94.306863" y="112.678009" style="fill: #1f77b4; stroke: #1f77b4"/>
     <use xlink:href="#md2ea13036b" x="83.298613" y="188.982674" style="fill: #1f77b4; stroke: #1f77b4"/>
     <use xlink:href="#md2ea13036b" x="139.831195" y="148.116962" style="fill: #1f77b4; stroke: #1f77b4"/>
     <use xlink:href="#md2ea13036b" x="111.187818" y="164.420684" style="fill: #1f77b4; stroke: #1f77b4"/>
     <use xlink:href="#md2ea13036b" x="89.57581" y="209.785249" style="fill: #1f77b4; stroke: #1f77b4"/>
     <use xlink:href="#md2ea13036b" x="137.266257" y="164.132123" style="fill: #1f77b4; stroke: #1f77b4"/>
     <use xlink:href="#md2ea13036b" x="120.132022" y="232.103674" style="fill: #1f77b4; stroke: #1f77b4"/>
     <use xlink:href="#md2ea13036b" x="140.955836" y="163.104123" style="fill: #1f77b4; stroke: #1f77b4"/>
     <use xlink:href="#md2ea13036b" x="101.415728" y="211.81059" style="fill: #1f77b4; stroke: #1f77b4"/>
     <use xlink:href="#md2ea13036b" x="74.3563" y="236.898303" style="fill: #1f77b4; stroke: #1f77b4"/>
     <use xlink:href="#md2ea13036b" x="86.757593" y="241.987805" style="fill: #1f77b4; stroke: #1f77b4"/>
     <use xlink:href="#md2ea13036b" x="246.537884" y="131.497626" style="fill: #1f77b4; stroke: #1f77b4"/>
     <use xlink:href="#md2ea13036b" x="87.197998" y="242.863409" style="fill: #1f77b4; stroke: #1f77b4"/>
     <use xlink:href="#md2ea13036b" x="137.748246" y="206.155688" style="fill: #1f77b4; stroke: #1f77b4"/>
     <use xlink:href="#md2ea13036b" x="85.434486" y="264.856481" style="fill: #1f77b4; stroke: #1f77b4"/>
     <use xlink:href="#md2ea13036b" x="80.495516" y="239.636931" style="fill: #1f77b4; stroke: #1f77b4"/>
     <use xlink:href="#md2ea13036b" x="99.132423" y="223.478392" style="fill: #1f77b4; stroke: #1f77b4"/>
     <use xlink:href="#md2ea13036b" x="75.783365" y="266.257897" style="fill: #1f77b4; stroke: #1f77b4"/>
     <use xlink:href="#md2ea13036b" x="100.345901" y="238.384394" style="fill: #1f77b4; stroke: #1f77b4"/>
     <use xlink:href="#md2ea13036b" x="112.465562" y="222.716409" style="fill: #1f77b4; stroke: #1f77b4"/>
     <use xlink:href="#md2ea13036b" x="95.800084" y="243.012199" style="fill: #1f77b4; stroke: #1f77b4"/>
     <use xlink:href="#md2ea13036b" x="361.950618" y="75.029758" style="fill: #1f77b4; stroke: #1f77b4"/>
     <use xlink:href="#md2ea13036b" x="82.587915" y="232.872871" style="fill: #1f77b4; stroke: #1f77b4"/>
     <use xlink:href="#md2ea13036b" x="98.389593" y="224.53615" style="fill: #1f77b4; stroke: #1f77b4"/>
     <use xlink:href="#md2ea13036b" x="84.00175" y="243.518083" style="fill: #1f77b4; stroke: #1f77b4"/>
     <use xlink:href="#md2ea13036b" x="336.906093" y="67.175476" style="fill: #1f77b4; stroke: #1f77b4"/>
     <use xlink:href="#md2ea13036b" x="221.285442" y="149.568787" style="fill: #1f77b4; stroke: #1f77b4"/>
     <use xlink:href="#md2ea13036b" x="185.920682" y="207.77073" style="fill: #1f77b4; stroke: #1f77b4"/>
     <use xlink:href="#md2ea13036b" x="227.863174" y="138.828891" style="fill: #1f77b4; stroke: #1f77b4"/>
     <use xlink:href="#md2ea13036b" x="398.487273" y="53.568" style="fill: #1f77b4; stroke: #1f77b4"/>
     <use xlink:href="#md2ea13036b" x="78.095022" y="282.316072" style="fill: #1f77b4; stroke: #1f77b4"/>
     <use xlink:href="#md2ea13036b" x="103.366366" y="217.240054" style="fill: #1f77b4; stroke: #1f77b4"/>
     <use xlink:href="#md2ea13036b" x="153.62175" y="161.895772" style="fill: #1f77b4; stroke: #1f77b4"/>
     <use xlink:href="#md2ea13036b" x="90.180659" y="254.636716" style="fill: #1f77b4; stroke: #1f77b4"/>
     <use xlink:href="#md2ea13036b" x="134.018975" y="212.316474" style="fill: #1f77b4; stroke: #1f77b4"/>
     <use xlink:href="#md2ea13036b" x="128.77002" y="230.173919" style="fill: #1f77b4; stroke: #1f77b4"/>
     <use xlink:href="#md2ea13036b" x="131.841519" y="234.194843" style="fill: #1f77b4; stroke: #1f77b4"/>
     <use xlink:href="#md2ea13036b" x="84.784273" y="240.719939" style="fill: #1f77b4; stroke: #1f77b4"/>
     <use xlink:href="#md2ea13036b" x="221.436654" y="180.084161" style="fill: #1f77b4; stroke: #1f77b4"/>
     <use xlink:href="#md2ea13036b" x="98.905605" y="221.741613" style="fill: #1f77b4; stroke: #1f77b4"/>
     <use xlink:href="#md2ea13036b" x="81.015308" y="266.295771" style="fill: #1f77b4; stroke: #1f77b4"/>
     <use xlink:href="#md2ea13036b" x="108.906404" y="236.042538" style="fill: #1f77b4; stroke: #1f77b4"/>
     <use xlink:href="#md2ea13036b" x="200.11573" y="222.751578" style="fill: #1f77b4; stroke: #1f77b4"/>
     <use xlink:href="#md2ea13036b" x="87.948389" y="249.306445" style="fill: #1f77b4; stroke: #1f77b4"/>
     <use xlink:href="#md2ea13036b" x="126.715424" y="210.610355" style="fill: #1f77b4; stroke: #1f77b4"/>
     <use xlink:href="#md2ea13036b" x="112.887066" y="261.879609" style="fill: #1f77b4; stroke: #1f77b4"/>
     <use xlink:href="#md2ea13036b" x="74.651163" y="225.021294" style="fill: #1f77b4; stroke: #1f77b4"/>
     <use xlink:href="#md2ea13036b" x="88.471961" y="254.686313" style="fill: #1f77b4; stroke: #1f77b4"/>
     <use xlink:href="#md2ea13036b" x="199.964518" y="199.135528" style="fill: #1f77b4; stroke: #1f77b4"/>
     <use xlink:href="#md2ea13036b" x="83.561344" y="262.135707" style="fill: #1f77b4; stroke: #1f77b4"/>
     <use xlink:href="#md2ea13036b" x="121.337939" y="210.442629" style="fill: #1f77b4; stroke: #1f77b4"/>
     <use xlink:href="#md2ea13036b" x="79.140277" y="254.72599" style="fill: #1f77b4; stroke: #1f77b4"/>
     <use xlink:href="#md2ea13036b" x="119.139691" y="232.642923" style="fill: #1f77b4; stroke: #1f77b4"/>
     <use xlink:href="#md2ea13036b" x="122.526845" y="226.244073" style="fill: #1f77b4; stroke: #1f77b4"/>
     <use xlink:href="#md2ea13036b" x="98.516233" y="258.479994" style="fill: #1f77b4; stroke: #1f77b4"/>
     <use xlink:href="#md2ea13036b" x="99.009563" y="284.1295" style="fill: #1f77b4; stroke: #1f77b4"/>
     <use xlink:href="#md2ea13036b" x="97.408604" y="248.990831" style="fill: #1f77b4; stroke: #1f77b4"/>
     <use xlink:href="#md2ea13036b" x="85.415584" y="229.796084" style="fill: #1f77b4; stroke: #1f77b4"/>
     <use xlink:href="#md2ea13036b" x="154.793645" y="235.583545" style="fill: #1f77b4; stroke: #1f77b4"/>
     <use xlink:href="#md2ea13036b" x="157.504124" y="222.492774" style="fill: #1f77b4; stroke: #1f77b4"/>
     <use xlink:href="#md2ea13036b" x="145.630184" y="224.699368" style="fill: #1f77b4; stroke: #1f77b4"/>
     <use xlink:href="#md2ea13036b" x="76.71332" y="278.012809" style="fill: #1f77b4; stroke: #1f77b4"/>
     <use xlink:href="#md2ea13036b" x="381.02226" y="109.639097" style="fill: #1f77b4; stroke: #1f77b4"/>
     <use xlink:href="#md2ea13036b" x="260.600622" y="162.617175" style="fill: #1f77b4; stroke: #1f77b4"/>
     <use xlink:href="#md2ea13036b" x="337.170714" y="117.529449" style="fill: #1f77b4; stroke: #1f77b4"/>
     <use xlink:href="#md2ea13036b" x="115.251647" y="227.262154" style="fill: #1f77b4; stroke: #1f77b4"/>
     <use xlink:href="#md2ea13036b" x="135.606703" y="219.516083" style="fill: #1f77b4; stroke: #1f77b4"/>
     <use xlink:href="#md2ea13036b" x="172.29268" y="201.199645" style="fill: #1f77b4; stroke: #1f77b4"/>
     <use xlink:href="#md2ea13036b" x="82.7637" y="262.141117" style="fill: #1f77b4; stroke: #1f77b4"/>
     <use xlink:href="#md2ea13036b" x="363.292626" y="82.018355" style="fill: #1f77b4; stroke: #1f77b4"/>
     <use xlink:href="#md2ea13036b" x="170.402527" y="211.078365" style="fill: #1f77b4; stroke: #1f77b4"/>
     <use xlink:href="#md2ea13036b" x="117.449895" y="235.010931" style="fill: #1f77b4; stroke: #1f77b4"/>
     <use xlink:href="#md2ea13036b" x="92.342994" y="259.786636" style="fill: #1f77b4; stroke: #1f77b4"/>
     <use xlink:href="#md2ea13036b" x="115.397189" y="241.186146" style="fill: #1f77b4; stroke: #1f77b4"/>
     <use xlink:href="#md2ea13036b" x="73.832727" y="295.488" style="fill: #1f77b4; stroke: #1f77b4"/>
     <use xlink:href="#md2ea13036b" x="102.581952" y="268.638439" style="fill: #1f77b4; stroke: #1f77b4"/>
     <use xlink:href="#md2ea13036b" x="121.307697" y="236.286012" style="fill: #1f77b4; stroke: #1f77b4"/>
     <use xlink:href="#md2ea13036b" x="74.014182" y="219.902034" style="fill: #1f77b4; stroke: #1f77b4"/>
     <use xlink:href="#md2ea13036b" x="173.010938" y="210.42279" style="fill: #1f77b4; stroke: #1f77b4"/>
     <use xlink:href="#md2ea13036b" x="75.359971" y="252.760165" style="fill: #1f77b4; stroke: #1f77b4"/>
     <use xlink:href="#md2ea13036b" x="87.107271" y="266.990483" style="fill: #1f77b4; stroke: #1f77b4"/>
     <use xlink:href="#md2ea13036b" x="76.885324" y="269.473193" style="fill: #1f77b4; stroke: #1f77b4"/>
     <use xlink:href="#md2ea13036b" x="98.949078" y="265.19527" style="fill: #1f77b4; stroke: #1f77b4"/>
     <use xlink:href="#md2ea13036b" x="163.459996" y="203.290813" style="fill: #1f77b4; stroke: #1f77b4"/>
     <use xlink:href="#md2ea13036b" x="101.977103" y="223.128511" style="fill: #1f77b4; stroke: #1f77b4"/>
     <use xlink:href="#md2ea13036b" x="139.804733" y="233.066748" style="fill: #1f77b4; stroke: #1f77b4"/>
     <use xlink:href="#md2ea13036b" x="152.336446" y="210.012492" style="fill: #1f77b4; stroke: #1f77b4"/>
     <use xlink:href="#md2ea13036b" x="92.263608" y="262.955853" style="fill: #1f77b4; stroke: #1f77b4"/>
     <use xlink:href="#md2ea13036b" x="83.160632" y="269.943999" style="fill: #1f77b4; stroke: #1f77b4"/>
     <use xlink:href="#md2ea13036b" x="74.447027" y="245.872564" style="fill: #1f77b4; stroke: #1f77b4"/>
     <use xlink:href="#md2ea13036b" x="86.700888" y="254.676393" style="fill: #1f77b4; stroke: #1f77b4"/>
     <use xlink:href="#md2ea13036b" x="123.160046" y="232.576193" style="fill: #1f77b4; stroke: #1f77b4"/>
     <use xlink:href="#md2ea13036b" x="89.781837" y="206.362189" style="fill: #1f77b4; stroke: #1f77b4"/>
     <use xlink:href="#md2ea13036b" x="79.096803" y="253.397706" style="fill: #1f77b4; stroke: #1f77b4"/>
     <use xlink:href="#md2ea13036b" x="135.57457" y="270.01127" style="fill: #1f77b4; stroke: #1f77b4"/>
     <use xlink:href="#md2ea13036b" x="231.983707" y="189.659892" style="fill: #1f77b4; stroke: #1f77b4"/>
     <use xlink:href="#md2ea13036b" x="81.582354" y="265.75039" style="fill: #1f77b4; stroke: #1f77b4"/>
    </g>
   </g>
   <g id="PathCollection_2">
    <defs>
     <path id="m8375f85916" d="M 0 3 
C 0.795609 3 1.55874 2.683901 2.12132 2.12132 
C 2.683901 1.55874 3 0.795609 3 0 
C 3 -0.795609 2.683901 -1.55874 2.12132 -2.12132 
C 1.55874 -2.683901 0.795609 -3 0 -3 
C -0.795609 -3 -1.55874 -2.683901 -2.12132 -2.12132 
C -2.683901 -1.55874 -3 -0.795609 -3 0 
C -3 0.795609 -2.683901 1.55874 -2.12132 2.12132 
C -1.55874 2.683901 -0.795609 3 0 3 
z
" style="stroke: #ff7f0e"/>
    </defs>
    <g clip-path="url(#p5254e3a9cb)">
     <use xlink:href="#m8375f85916" x="94.306863" y="112.678009" style="fill: #ff7f0e; stroke: #ff7f0e"/>
     <use xlink:href="#m8375f85916" x="83.298613" y="188.982674" style="fill: #ff7f0e; stroke: #ff7f0e"/>
     <use xlink:href="#m8375f85916" x="139.831195" y="148.116962" style="fill: #ff7f0e; stroke: #ff7f0e"/>
     <use xlink:href="#m8375f85916" x="111.187818" y="164.420684" style="fill: #ff7f0e; stroke: #ff7f0e"/>
     <use xlink:href="#m8375f85916" x="89.57581" y="209.785249" style="fill: #ff7f0e; stroke: #ff7f0e"/>
     <use xlink:href="#m8375f85916" x="137.266257" y="164.132123" style="fill: #ff7f0e; stroke: #ff7f0e"/>
     <use xlink:href="#m8375f85916" x="120.132022" y="232.103674" style="fill: #ff7f0e; stroke: #ff7f0e"/>
     <use xlink:href="#m8375f85916" x="140.955836" y="163.104123" style="fill: #ff7f0e; stroke: #ff7f0e"/>
     <use xlink:href="#m8375f85916" x="101.415728" y="211.81059" style="fill: #ff7f0e; stroke: #ff7f0e"/>
     <use xlink:href="#m8375f85916" x="74.3563" y="236.898303" style="fill: #ff7f0e; stroke: #ff7f0e"/>
     <use xlink:href="#m8375f85916" x="86.757593" y="241.987805" style="fill: #ff7f0e; stroke: #ff7f0e"/>
     <use xlink:href="#m8375f85916" x="246.537884" y="131.497626" style="fill: #ff7f0e; stroke: #ff7f0e"/>
     <use xlink:href="#m8375f85916" x="87.197998" y="242.863409" style="fill: #ff7f0e; stroke: #ff7f0e"/>
     <use xlink:href="#m8375f85916" x="137.748246" y="206.155688" style="fill: #ff7f0e; stroke: #ff7f0e"/>
     <use xlink:href="#m8375f85916" x="85.434486" y="264.856481" style="fill: #ff7f0e; stroke: #ff7f0e"/>
     <use xlink:href="#m8375f85916" x="80.495516" y="239.636931" style="fill: #ff7f0e; stroke: #ff7f0e"/>
     <use xlink:href="#m8375f85916" x="99.132423" y="223.478392" style="fill: #ff7f0e; stroke: #ff7f0e"/>
     <use xlink:href="#m8375f85916" x="75.783365" y="266.257897" style="fill: #ff7f0e; stroke: #ff7f0e"/>
     <use xlink:href="#m8375f85916" x="100.345901" y="238.384394" style="fill: #ff7f0e; stroke: #ff7f0e"/>
     <use xlink:href="#m8375f85916" x="112.465562" y="222.716409" style="fill: #ff7f0e; stroke: #ff7f0e"/>
     <use xlink:href="#m8375f85916" x="95.800084" y="243.012199" style="fill: #ff7f0e; stroke: #ff7f0e"/>
     <use xlink:href="#m8375f85916" x="361.950618" y="75.029758" style="fill: #ff7f0e; stroke: #ff7f0e"/>
     <use xlink:href="#m8375f85916" x="82.587915" y="232.872871" style="fill: #ff7f0e; stroke: #ff7f0e"/>
     <use xlink:href="#m8375f85916" x="98.389593" y="224.53615" style="fill: #ff7f0e; stroke: #ff7f0e"/>
     <use xlink:href="#m8375f85916" x="84.00175" y="243.518083" style="fill: #ff7f0e; stroke: #ff7f0e"/>
     <use xlink:href="#m8375f85916" x="336.906093" y="67.175476" style="fill: #ff7f0e; stroke: #ff7f0e"/>
     <use xlink:href="#m8375f85916" x="221.285442" y="149.568787" style="fill: #ff7f0e; stroke: #ff7f0e"/>
     <use xlink:href="#m8375f85916" x="185.920682" y="207.77073" style="fill: #ff7f0e; stroke: #ff7f0e"/>
     <use xlink:href="#m8375f85916" x="227.863174" y="138.828891" style="fill: #ff7f0e; stroke: #ff7f0e"/>
     <use xlink:href="#m8375f85916" x="398.487273" y="53.568" style="fill: #ff7f0e; stroke: #ff7f0e"/>
     <use xlink:href="#m8375f85916" x="78.095022" y="282.316072" style="fill: #ff7f0e; stroke: #ff7f0e"/>
     <use xlink:href="#m8375f85916" x="103.366366" y="217.240054" style="fill: #ff7f0e; stroke: #ff7f0e"/>
     <use xlink:href="#m8375f85916" x="153.62175" y="161.895772" style="fill: #ff7f0e; stroke: #ff7f0e"/>
     <use xlink:href="#m8375f85916" x="90.180659" y="254.636716" style="fill: #ff7f0e; stroke: #ff7f0e"/>
     <use xlink:href="#m8375f85916" x="134.018975" y="212.316474" style="fill: #ff7f0e; stroke: #ff7f0e"/>
     <use xlink:href="#m8375f85916" x="128.77002" y="230.173919" style="fill: #ff7f0e; stroke: #ff7f0e"/>
     <use xlink:href="#m8375f85916" x="131.841519" y="234.194843" style="fill: #ff7f0e; stroke: #ff7f0e"/>
     <use xlink:href="#m8375f85916" x="84.784273" y="240.719939" style="fill: #ff7f0e; stroke: #ff7f0e"/>
     <use xlink:href="#m8375f85916" x="221.436654" y="180.084161" style="fill: #ff7f0e; stroke: #ff7f0e"/>
     <use xlink:href="#m8375f85916" x="98.905605" y="221.741613" style="fill: #ff7f0e; stroke: #ff7f0e"/>
     <use xlink:href="#m8375f85916" x="81.015308" y="266.295771" style="fill: #ff7f0e; stroke: #ff7f0e"/>
     <use xlink:href="#m8375f85916" x="108.906404" y="236.042538" style="fill: #ff7f0e; stroke: #ff7f0e"/>
     <use xlink:href="#m8375f85916" x="200.11573" y="222.751578" style="fill: #ff7f0e; stroke: #ff7f0e"/>
     <use xlink:href="#m8375f85916" x="87.948389" y="249.306445" style="fill: #ff7f0e; stroke: #ff7f0e"/>
     <use xlink:href="#m8375f85916" x="126.715424" y="210.610355" style="fill: #ff7f0e; stroke: #ff7f0e"/>
     <use xlink:href="#m8375f85916" x="112.887066" y="261.879609" style="fill: #ff7f0e; stroke: #ff7f0e"/>
     <use xlink:href="#m8375f85916" x="74.651163" y="225.021294" style="fill: #ff7f0e; stroke: #ff7f0e"/>
     <use xlink:href="#m8375f85916" x="88.471961" y="254.686313" style="fill: #ff7f0e; stroke: #ff7f0e"/>
     <use xlink:href="#m8375f85916" x="199.964518" y="199.135528" style="fill: #ff7f0e; stroke: #ff7f0e"/>
     <use xlink:href="#m8375f85916" x="83.561344" y="262.135707" style="fill: #ff7f0e; stroke: #ff7f0e"/>
     <use xlink:href="#m8375f85916" x="121.337939" y="210.442629" style="fill: #ff7f0e; stroke: #ff7f0e"/>
     <use xlink:href="#m8375f85916" x="79.140277" y="254.72599" style="fill: #ff7f0e; stroke: #ff7f0e"/>
     <use xlink:href="#m8375f85916" x="119.139691" y="232.642923" style="fill: #ff7f0e; stroke: #ff7f0e"/>
     <use xlink:href="#m8375f85916" x="122.526845" y="226.244073" style="fill: #ff7f0e; stroke: #ff7f0e"/>
     <use xlink:href="#m8375f85916" x="98.516233" y="258.479994" style="fill: #ff7f0e; stroke: #ff7f0e"/>
     <use xlink:href="#m8375f85916" x="99.009563" y="284.1295" style="fill: #ff7f0e; stroke: #ff7f0e"/>
     <use xlink:href="#m8375f85916" x="97.408604" y="248.990831" style="fill: #ff7f0e; stroke: #ff7f0e"/>
     <use xlink:href="#m8375f85916" x="85.415584" y="229.796084" style="fill: #ff7f0e; stroke: #ff7f0e"/>
     <use xlink:href="#m8375f85916" x="154.793645" y="235.583545" style="fill: #ff7f0e; stroke: #ff7f0e"/>
     <use xlink:href="#m8375f85916" x="157.504124" y="222.492774" style="fill: #ff7f0e; stroke: #ff7f0e"/>
     <use xlink:href="#m8375f85916" x="145.630184" y="224.699368" style="fill: #ff7f0e; stroke: #ff7f0e"/>
     <use xlink:href="#m8375f85916" x="76.71332" y="278.012809" style="fill: #ff7f0e; stroke: #ff7f0e"/>
     <use xlink:href="#m8375f85916" x="381.02226" y="109.639097" style="fill: #ff7f0e; stroke: #ff7f0e"/>
     <use xlink:href="#m8375f85916" x="260.600622" y="162.617175" style="fill: #ff7f0e; stroke: #ff7f0e"/>
     <use xlink:href="#m8375f85916" x="337.170714" y="117.529449" style="fill: #ff7f0e; stroke: #ff7f0e"/>
     <use xlink:href="#m8375f85916" x="115.251647" y="227.262154" style="fill: #ff7f0e; stroke: #ff7f0e"/>
     <use xlink:href="#m8375f85916" x="135.606703" y="219.516083" style="fill: #ff7f0e; stroke: #ff7f0e"/>
     <use xlink:href="#m8375f85916" x="172.29268" y="201.199645" style="fill: #ff7f0e; stroke: #ff7f0e"/>
     <use xlink:href="#m8375f85916" x="82.7637" y="262.141117" style="fill: #ff7f0e; stroke: #ff7f0e"/>
     <use xlink:href="#m8375f85916" x="363.292626" y="82.018355" style="fill: #ff7f0e; stroke: #ff7f0e"/>
     <use xlink:href="#m8375f85916" x="170.402527" y="211.078365" style="fill: #ff7f0e; stroke: #ff7f0e"/>
     <use xlink:href="#m8375f85916" x="117.449895" y="235.010931" style="fill: #ff7f0e; stroke: #ff7f0e"/>
     <use xlink:href="#m8375f85916" x="92.342994" y="259.786636" style="fill: #ff7f0e; stroke: #ff7f0e"/>
     <use xlink:href="#m8375f85916" x="115.397189" y="241.186146" style="fill: #ff7f0e; stroke: #ff7f0e"/>
     <use xlink:href="#m8375f85916" x="73.832727" y="295.488" style="fill: #ff7f0e; stroke: #ff7f0e"/>
     <use xlink:href="#m8375f85916" x="102.581952" y="268.638439" style="fill: #ff7f0e; stroke: #ff7f0e"/>
     <use xlink:href="#m8375f85916" x="121.307697" y="236.286012" style="fill: #ff7f0e; stroke: #ff7f0e"/>
     <use xlink:href="#m8375f85916" x="74.014182" y="219.902034" style="fill: #ff7f0e; stroke: #ff7f0e"/>
     <use xlink:href="#m8375f85916" x="173.010938" y="210.42279" style="fill: #ff7f0e; stroke: #ff7f0e"/>
     <use xlink:href="#m8375f85916" x="75.359971" y="252.760165" style="fill: #ff7f0e; stroke: #ff7f0e"/>
     <use xlink:href="#m8375f85916" x="87.107271" y="266.990483" style="fill: #ff7f0e; stroke: #ff7f0e"/>
     <use xlink:href="#m8375f85916" x="76.885324" y="269.473193" style="fill: #ff7f0e; stroke: #ff7f0e"/>
     <use xlink:href="#m8375f85916" x="98.949078" y="265.19527" style="fill: #ff7f0e; stroke: #ff7f0e"/>
     <use xlink:href="#m8375f85916" x="163.459996" y="203.290813" style="fill: #ff7f0e; stroke: #ff7f0e"/>
     <use xlink:href="#m8375f85916" x="101.977103" y="223.128511" style="fill: #ff7f0e; stroke: #ff7f0e"/>
     <use xlink:href="#m8375f85916" x="139.804733" y="233.066748" style="fill: #ff7f0e; stroke: #ff7f0e"/>
     <use xlink:href="#m8375f85916" x="152.336446" y="210.012492" style="fill: #ff7f0e; stroke: #ff7f0e"/>
     <use xlink:href="#m8375f85916" x="92.263608" y="262.955853" style="fill: #ff7f0e; stroke: #ff7f0e"/>
     <use xlink:href="#m8375f85916" x="83.160632" y="269.943999" style="fill: #ff7f0e; stroke: #ff7f0e"/>
     <use xlink:href="#m8375f85916" x="74.447027" y="245.872564" style="fill: #ff7f0e; stroke: #ff7f0e"/>
     <use xlink:href="#m8375f85916" x="86.700888" y="254.676393" style="fill: #ff7f0e; stroke: #ff7f0e"/>
     <use xlink:href="#m8375f85916" x="123.160046" y="232.576193" style="fill: #ff7f0e; stroke: #ff7f0e"/>
     <use xlink:href="#m8375f85916" x="89.781837" y="206.362189" style="fill: #ff7f0e; stroke: #ff7f0e"/>
     <use xlink:href="#m8375f85916" x="79.096803" y="253.397706" style="fill: #ff7f0e; stroke: #ff7f0e"/>
     <use xlink:href="#m8375f85916" x="135.57457" y="270.01127" style="fill: #ff7f0e; stroke: #ff7f0e"/>
     <use xlink:href="#m8375f85916" x="231.983707" y="189.659892" style="fill: #ff7f0e; stroke: #ff7f0e"/>
     <use xlink:href="#m8375f85916" x="81.582354" y="265.75039" style="fill: #ff7f0e; stroke: #ff7f0e"/>
    </g>
   </g>
   <g id="PathCollection_3">
    <defs>
     <path id="m10f38a95a8" d="M 0 3 
C 0.795609 3 1.55874 2.683901 2.12132 2.12132 
C 2.683901 1.55874 3 0.795609 3 0 
C 3 -0.795609 2.683901 -1.55874 2.12132 -2.12132 
C 1.55874 -2.683901 0.795609 -3 0 -3 
C -0.795609 -3 -1.55874 -2.683901 -2.12132 -2.12132 
C -2.683901 -1.55874 -3 -0.795609 -3 0 
C -3 0.795609 -2.683901 1.55874 -2.12132 2.12132 
C -1.55874 2.683901 -0.795609 3 0 3 
z
" style="stroke: #2ca02c"/>
    </defs>
    <g clip-path="url(#p5254e3a9cb)">
     <use xlink:href="#m10f38a95a8" x="94.306863" y="112.678009" style="fill: #2ca02c; stroke: #2ca02c"/>
     <use xlink:href="#m10f38a95a8" x="83.298613" y="188.982674" style="fill: #2ca02c; stroke: #2ca02c"/>
     <use xlink:href="#m10f38a95a8" x="139.831195" y="148.116962" style="fill: #2ca02c; stroke: #2ca02c"/>
     <use xlink:href="#m10f38a95a8" x="111.187818" y="164.420684" style="fill: #2ca02c; stroke: #2ca02c"/>
     <use xlink:href="#m10f38a95a8" x="89.57581" y="209.785249" style="fill: #2ca02c; stroke: #2ca02c"/>
     <use xlink:href="#m10f38a95a8" x="137.266257" y="164.132123" style="fill: #2ca02c; stroke: #2ca02c"/>
     <use xlink:href="#m10f38a95a8" x="120.132022" y="232.103674" style="fill: #2ca02c; stroke: #2ca02c"/>
     <use xlink:href="#m10f38a95a8" x="140.955836" y="163.104123" style="fill: #2ca02c; stroke: #2ca02c"/>
     <use xlink:href="#m10f38a95a8" x="101.415728" y="211.81059" style="fill: #2ca02c; stroke: #2ca02c"/>
     <use xlink:href="#m10f38a95a8" x="74.3563" y="236.898303" style="fill: #2ca02c; stroke: #2ca02c"/>
     <use xlink:href="#m10f38a95a8" x="86.757593" y="241.987805" style="fill: #2ca02c; stroke: #2ca02c"/>
     <use xlink:href="#m10f38a95a8" x="246.537884" y="131.497626" style="fill: #2ca02c; stroke: #2ca02c"/>
     <use xlink:href="#m10f38a95a8" x="87.197998" y="242.863409" style="fill: #2ca02c; stroke: #2ca02c"/>
     <use xlink:href="#m10f38a95a8" x="137.748246" y="206.155688" style="fill: #2ca02c; stroke: #2ca02c"/>
     <use xlink:href="#m10f38a95a8" x="85.434486" y="264.856481" style="fill: #2ca02c; stroke: #2ca02c"/>
     <use xlink:href="#m10f38a95a8" x="80.495516" y="239.636931" style="fill: #2ca02c; stroke: #2ca02c"/>
     <use xlink:href="#m10f38a95a8" x="99.132423" y="223.478392" style="fill: #2ca02c; stroke: #2ca02c"/>
     <use xlink:href="#m10f38a95a8" x="75.783365" y="266.257897" style="fill: #2ca02c; stroke: #2ca02c"/>
     <use xlink:href="#m10f38a95a8" x="100.345901" y="238.384394" style="fill: #2ca02c; stroke: #2ca02c"/>
     <use xlink:href="#m10f38a95a8" x="112.465562" y="222.716409" style="fill: #2ca02c; stroke: #2ca02c"/>
     <use xlink:href="#m10f38a95a8" x="95.800084" y="243.012199" style="fill: #2ca02c; stroke: #2ca02c"/>
     <use xlink:href="#m10f38a95a8" x="361.950618" y="75.029758" style="fill: #2ca02c; stroke: #2ca02c"/>
     <use xlink:href="#m10f38a95a8" x="82.587915" y="232.872871" style="fill: #2ca02c; stroke: #2ca02c"/>
     <use xlink:href="#m10f38a95a8" x="98.389593" y="224.53615" style="fill: #2ca02c; stroke: #2ca02c"/>
     <use xlink:href="#m10f38a95a8" x="84.00175" y="243.518083" style="fill: #2ca02c; stroke: #2ca02c"/>
     <use xlink:href="#m10f38a95a8" x="336.906093" y="67.175476" style="fill: #2ca02c; stroke: #2ca02c"/>
     <use xlink:href="#m10f38a95a8" x="221.285442" y="149.568787" style="fill: #2ca02c; stroke: #2ca02c"/>
     <use xlink:href="#m10f38a95a8" x="185.920682" y="207.77073" style="fill: #2ca02c; stroke: #2ca02c"/>
     <use xlink:href="#m10f38a95a8" x="227.863174" y="138.828891" style="fill: #2ca02c; stroke: #2ca02c"/>
     <use xlink:href="#m10f38a95a8" x="398.487273" y="53.568" style="fill: #2ca02c; stroke: #2ca02c"/>
     <use xlink:href="#m10f38a95a8" x="78.095022" y="282.316072" style="fill: #2ca02c; stroke: #2ca02c"/>
     <use xlink:href="#m10f38a95a8" x="103.366366" y="217.240054" style="fill: #2ca02c; stroke: #2ca02c"/>
     <use xlink:href="#m10f38a95a8" x="153.62175" y="161.895772" style="fill: #2ca02c; stroke: #2ca02c"/>
     <use xlink:href="#m10f38a95a8" x="90.180659" y="254.636716" style="fill: #2ca02c; stroke: #2ca02c"/>
     <use xlink:href="#m10f38a95a8" x="134.018975" y="212.316474" style="fill: #2ca02c; stroke: #2ca02c"/>
     <use xlink:href="#m10f38a95a8" x="128.77002" y="230.173919" style="fill: #2ca02c; stroke: #2ca02c"/>
     <use xlink:href="#m10f38a95a8" x="131.841519" y="234.194843" style="fill: #2ca02c; stroke: #2ca02c"/>
     <use xlink:href="#m10f38a95a8" x="84.784273" y="240.719939" style="fill: #2ca02c; stroke: #2ca02c"/>
     <use xlink:href="#m10f38a95a8" x="221.436654" y="180.084161" style="fill: #2ca02c; stroke: #2ca02c"/>
     <use xlink:href="#m10f38a95a8" x="98.905605" y="221.741613" style="fill: #2ca02c; stroke: #2ca02c"/>
     <use xlink:href="#m10f38a95a8" x="81.015308" y="266.295771" style="fill: #2ca02c; stroke: #2ca02c"/>
     <use xlink:href="#m10f38a95a8" x="108.906404" y="236.042538" style="fill: #2ca02c; stroke: #2ca02c"/>
     <use xlink:href="#m10f38a95a8" x="200.11573" y="222.751578" style="fill: #2ca02c; stroke: #2ca02c"/>
     <use xlink:href="#m10f38a95a8" x="87.948389" y="249.306445" style="fill: #2ca02c; stroke: #2ca02c"/>
     <use xlink:href="#m10f38a95a8" x="126.715424" y="210.610355" style="fill: #2ca02c; stroke: #2ca02c"/>
     <use xlink:href="#m10f38a95a8" x="112.887066" y="261.879609" style="fill: #2ca02c; stroke: #2ca02c"/>
     <use xlink:href="#m10f38a95a8" x="74.651163" y="225.021294" style="fill: #2ca02c; stroke: #2ca02c"/>
     <use xlink:href="#m10f38a95a8" x="88.471961" y="254.686313" style="fill: #2ca02c; stroke: #2ca02c"/>
     <use xlink:href="#m10f38a95a8" x="199.964518" y="199.135528" style="fill: #2ca02c; stroke: #2ca02c"/>
     <use xlink:href="#m10f38a95a8" x="83.561344" y="262.135707" style="fill: #2ca02c; stroke: #2ca02c"/>
     <use xlink:href="#m10f38a95a8" x="121.337939" y="210.442629" style="fill: #2ca02c; stroke: #2ca02c"/>
     <use xlink:href="#m10f38a95a8" x="79.140277" y="254.72599" style="fill: #2ca02c; stroke: #2ca02c"/>
     <use xlink:href="#m10f38a95a8" x="119.139691" y="232.642923" style="fill: #2ca02c; stroke: #2ca02c"/>
     <use xlink:href="#m10f38a95a8" x="122.526845" y="226.244073" style="fill: #2ca02c; stroke: #2ca02c"/>
     <use xlink:href="#m10f38a95a8" x="98.516233" y="258.479994" style="fill: #2ca02c; stroke: #2ca02c"/>
     <use xlink:href="#m10f38a95a8" x="99.009563" y="284.1295" style="fill: #2ca02c; stroke: #2ca02c"/>
     <use xlink:href="#m10f38a95a8" x="97.408604" y="248.990831" style="fill: #2ca02c; stroke: #2ca02c"/>
     <use xlink:href="#m10f38a95a8" x="85.415584" y="229.796084" style="fill: #2ca02c; stroke: #2ca02c"/>
     <use xlink:href="#m10f38a95a8" x="154.793645" y="235.583545" style="fill: #2ca02c; stroke: #2ca02c"/>
     <use xlink:href="#m10f38a95a8" x="157.504124" y="222.492774" style="fill: #2ca02c; stroke: #2ca02c"/>
     <use xlink:href="#m10f38a95a8" x="145.630184" y="224.699368" style="fill: #2ca02c; stroke: #2ca02c"/>
     <use xlink:href="#m10f38a95a8" x="76.71332" y="278.012809" style="fill: #2ca02c; stroke: #2ca02c"/>
     <use xlink:href="#m10f38a95a8" x="381.02226" y="109.639097" style="fill: #2ca02c; stroke: #2ca02c"/>
     <use xlink:href="#m10f38a95a8" x="260.600622" y="162.617175" style="fill: #2ca02c; stroke: #2ca02c"/>
     <use xlink:href="#m10f38a95a8" x="337.170714" y="117.529449" style="fill: #2ca02c; stroke: #2ca02c"/>
     <use xlink:href="#m10f38a95a8" x="115.251647" y="227.262154" style="fill: #2ca02c; stroke: #2ca02c"/>
     <use xlink:href="#m10f38a95a8" x="135.606703" y="219.516083" style="fill: #2ca02c; stroke: #2ca02c"/>
     <use xlink:href="#m10f38a95a8" x="172.29268" y="201.199645" style="fill: #2ca02c; stroke: #2ca02c"/>
     <use xlink:href="#m10f38a95a8" x="82.7637" y="262.141117" style="fill: #2ca02c; stroke: #2ca02c"/>
     <use xlink:href="#m10f38a95a8" x="363.292626" y="82.018355" style="fill: #2ca02c; stroke: #2ca02c"/>
     <use xlink:href="#m10f38a95a8" x="170.402527" y="211.078365" style="fill: #2ca02c; stroke: #2ca02c"/>
     <use xlink:href="#m10f38a95a8" x="117.449895" y="235.010931" style="fill: #2ca02c; stroke: #2ca02c"/>
     <use xlink:href="#m10f38a95a8" x="92.342994" y="259.786636" style="fill: #2ca02c; stroke: #2ca02c"/>
     <use xlink:href="#m10f38a95a8" x="115.397189" y="241.186146" style="fill: #2ca02c; stroke: #2ca02c"/>
     <use xlink:href="#m10f38a95a8" x="73.832727" y="295.488" style="fill: #2ca02c; stroke: #2ca02c"/>
     <use xlink:href="#m10f38a95a8" x="102.581952" y="268.638439" style="fill: #2ca02c; stroke: #2ca02c"/>
     <use xlink:href="#m10f38a95a8" x="121.307697" y="236.286012" style="fill: #2ca02c; stroke: #2ca02c"/>
     <use xlink:href="#m10f38a95a8" x="74.014182" y="219.902034" style="fill: #2ca02c; stroke: #2ca02c"/>
     <use xlink:href="#m10f38a95a8" x="173.010938" y="210.42279" style="fill: #2ca02c; stroke: #2ca02c"/>
     <use xlink:href="#m10f38a95a8" x="75.359971" y="252.760165" style="fill: #2ca02c; stroke: #2ca02c"/>
     <use xlink:href="#m10f38a95a8" x="87.107271" y="266.990483" style="fill: #2ca02c; stroke: #2ca02c"/>
     <use xlink:href="#m10f38a95a8" x="76.885324" y="269.473193" style="fill: #2ca02c; stroke: #2ca02c"/>
     <use xlink:href="#m10f38a95a8" x="98.949078" y="265.19527" style="fill: #2ca02c; stroke: #2ca02c"/>
     <use xlink:href="#m10f38a95a8" x="163.459996" y="203.290813" style="fill: #2ca02c; stroke: #2ca02c"/>
     <use xlink:href="#m10f38a95a8" x="101.977103" y="223.128511" style="fill: #2ca02c; stroke: #2ca02c"/>
     <use xlink:href="#m10f38a95a8" x="139.804733" y="233.066748" style="fill: #2ca02c; stroke: #2ca02c"/>
     <use xlink:href="#m10f38a95a8" x="152.336446" y="210.012492" style="fill: #2ca02c; stroke: #2ca02c"/>
     <use xlink:href="#m10f38a95a8" x="92.263608" y="262.955853" style="fill: #2ca02c; stroke: #2ca02c"/>
     <use xlink:href="#m10f38a95a8" x="83.160632" y="269.943999" style="fill: #2ca02c; stroke: #2ca02c"/>
     <use xlink:href="#m10f38a95a8" x="74.447027" y="245.872564" style="fill: #2ca02c; stroke: #2ca02c"/>
     <use xlink:href="#m10f38a95a8" x="86.700888" y="254.676393" style="fill: #2ca02c; stroke: #2ca02c"/>
     <use xlink:href="#m10f38a95a8" x="123.160046" y="232.576193" style="fill: #2ca02c; stroke: #2ca02c"/>
     <use xlink:href="#m10f38a95a8" x="89.781837" y="206.362189" style="fill: #2ca02c; stroke: #2ca02c"/>
     <use xlink:href="#m10f38a95a8" x="79.096803" y="253.397706" style="fill: #2ca02c; stroke: #2ca02c"/>
     <use xlink:href="#m10f38a95a8" x="135.57457" y="270.01127" style="fill: #2ca02c; stroke: #2ca02c"/>
     <use xlink:href="#m10f38a95a8" x="231.983707" y="189.659892" style="fill: #2ca02c; stroke: #2ca02c"/>
     <use xlink:href="#m10f38a95a8" x="81.582354" y="265.75039" style="fill: #2ca02c; stroke: #2ca02c"/>
    </g>
   </g>
   <g id="matplotlib.axis_1">
    <g id="xtick_1">
     <g id="line2d_1">
      <defs>
       <path id="m7523075100" d="M 0 0 
L 0 3.5 
" style="stroke: #000000; stroke-width: 0.8"/>
      </defs>
      <g>
       <use xlink:href="#m7523075100" x="73.324276" y="307.584" style="stroke: #000000; stroke-width: 0.8"/>
      </g>
     </g>
     <g id="text_1">
      <!-- 5.0 -->
      <g transform="translate(65.372714 322.182437) scale(0.1 -0.1)">
       <defs>
        <path id="DejaVuSans-35" d="M 691 4666 
L 3169 4666 
L 3169 4134 
L 1269 4134 
L 1269 2991 
Q 1406 3038 1543 3061 
Q 1681 3084 1819 3084 
Q 2600 3084 3056 2656 
Q 3513 2228 3513 1497 
Q 3513 744 3044 326 
Q 2575 -91 1722 -91 
Q 1428 -91 1123 -41 
Q 819 9 494 109 
L 494 744 
Q 775 591 1075 516 
Q 1375 441 1709 441 
Q 2250 441 2565 725 
Q 2881 1009 2881 1497 
Q 2881 1984 2565 2268 
Q 2250 2553 1709 2553 
Q 1456 2553 1204 2497 
Q 953 2441 691 2322 
L 691 4666 
z
" transform="scale(0.015625)"/>
        <path id="DejaVuSans-2e" d="M 684 794 
L 1344 794 
L 1344 0 
L 684 0 
L 684 794 
z
" transform="scale(0.015625)"/>
        <path id="DejaVuSans-30" d="M 2034 4250 
Q 1547 4250 1301 3770 
Q 1056 3291 1056 2328 
Q 1056 1369 1301 889 
Q 1547 409 2034 409 
Q 2525 409 2770 889 
Q 3016 1369 3016 2328 
Q 3016 3291 2770 3770 
Q 2525 4250 2034 4250 
z
M 2034 4750 
Q 2819 4750 3233 4129 
Q 3647 3509 3647 2328 
Q 3647 1150 3233 529 
Q 2819 -91 2034 -91 
Q 1250 -91 836 529 
Q 422 1150 422 2328 
Q 422 3509 836 4129 
Q 1250 4750 2034 4750 
z
" transform="scale(0.015625)"/>
       </defs>
       <use xlink:href="#DejaVuSans-35"/>
       <use xlink:href="#DejaVuSans-2e" transform="translate(63.623047 0)"/>
       <use xlink:href="#DejaVuSans-30" transform="translate(95.410156 0)"/>
      </g>
     </g>
    </g>
    <g id="xtick_2">
     <g id="line2d_2">
      <g>
       <use xlink:href="#m7523075100" x="120.578098" y="307.584" style="stroke: #000000; stroke-width: 0.8"/>
      </g>
     </g>
     <g id="text_2">
      <!-- 7.5 -->
      <g transform="translate(112.626535 322.182437) scale(0.1 -0.1)">
       <defs>
        <path id="DejaVuSans-37" d="M 525 4666 
L 3525 4666 
L 3525 4397 
L 1831 0 
L 1172 0 
L 2766 4134 
L 525 4134 
L 525 4666 
z
" transform="scale(0.015625)"/>
       </defs>
       <use xlink:href="#DejaVuSans-37"/>
       <use xlink:href="#DejaVuSans-2e" transform="translate(63.623047 0)"/>
       <use xlink:href="#DejaVuSans-35" transform="translate(95.410156 0)"/>
      </g>
     </g>
    </g>
    <g id="xtick_3">
     <g id="line2d_3">
      <g>
       <use xlink:href="#m7523075100" x="167.831919" y="307.584" style="stroke: #000000; stroke-width: 0.8"/>
      </g>
     </g>
     <g id="text_3">
      <!-- 10.0 -->
      <g transform="translate(156.699107 322.182437) scale(0.1 -0.1)">
       <defs>
        <path id="DejaVuSans-31" d="M 794 531 
L 1825 531 
L 1825 4091 
L 703 3866 
L 703 4441 
L 1819 4666 
L 2450 4666 
L 2450 531 
L 3481 531 
L 3481 0 
L 794 0 
L 794 531 
z
" transform="scale(0.015625)"/>
       </defs>
       <use xlink:href="#DejaVuSans-31"/>
       <use xlink:href="#DejaVuSans-30" transform="translate(63.623047 0)"/>
       <use xlink:href="#DejaVuSans-2e" transform="translate(127.246094 0)"/>
       <use xlink:href="#DejaVuSans-30" transform="translate(159.033203 0)"/>
      </g>
     </g>
    </g>
    <g id="xtick_4">
     <g id="line2d_4">
      <g>
       <use xlink:href="#m7523075100" x="215.085741" y="307.584" style="stroke: #000000; stroke-width: 0.8"/>
      </g>
     </g>
     <g id="text_4">
      <!-- 12.5 -->
      <g transform="translate(203.952928 322.182437) scale(0.1 -0.1)">
       <defs>
        <path id="DejaVuSans-32" d="M 1228 531 
L 3431 531 
L 3431 0 
L 469 0 
L 469 531 
Q 828 903 1448 1529 
Q 2069 2156 2228 2338 
Q 2531 2678 2651 2914 
Q 2772 3150 2772 3378 
Q 2772 3750 2511 3984 
Q 2250 4219 1831 4219 
Q 1534 4219 1204 4116 
Q 875 4013 500 3803 
L 500 4441 
Q 881 4594 1212 4672 
Q 1544 4750 1819 4750 
Q 2544 4750 2975 4387 
Q 3406 4025 3406 3419 
Q 3406 3131 3298 2873 
Q 3191 2616 2906 2266 
Q 2828 2175 2409 1742 
Q 1991 1309 1228 531 
z
" transform="scale(0.015625)"/>
       </defs>
       <use xlink:href="#DejaVuSans-31"/>
       <use xlink:href="#DejaVuSans-32" transform="translate(63.623047 0)"/>
       <use xlink:href="#DejaVuSans-2e" transform="translate(127.246094 0)"/>
       <use xlink:href="#DejaVuSans-35" transform="translate(159.033203 0)"/>
      </g>
     </g>
    </g>
    <g id="xtick_5">
     <g id="line2d_5">
      <g>
       <use xlink:href="#m7523075100" x="262.339562" y="307.584" style="stroke: #000000; stroke-width: 0.8"/>
      </g>
     </g>
     <g id="text_5">
      <!-- 15.0 -->
      <g transform="translate(251.20675 322.182437) scale(0.1 -0.1)">
       <use xlink:href="#DejaVuSans-31"/>
       <use xlink:href="#DejaVuSans-35" transform="translate(63.623047 0)"/>
       <use xlink:href="#DejaVuSans-2e" transform="translate(127.246094 0)"/>
       <use xlink:href="#DejaVuSans-30" transform="translate(159.033203 0)"/>
      </g>
     </g>
    </g>
    <g id="xtick_6">
     <g id="line2d_6">
      <g>
       <use xlink:href="#m7523075100" x="309.593384" y="307.584" style="stroke: #000000; stroke-width: 0.8"/>
      </g>
     </g>
     <g id="text_6">
      <!-- 17.5 -->
      <g transform="translate(298.460571 322.182437) scale(0.1 -0.1)">
       <use xlink:href="#DejaVuSans-31"/>
       <use xlink:href="#DejaVuSans-37" transform="translate(63.623047 0)"/>
       <use xlink:href="#DejaVuSans-2e" transform="translate(127.246094 0)"/>
       <use xlink:href="#DejaVuSans-35" transform="translate(159.033203 0)"/>
      </g>
     </g>
    </g>
    <g id="xtick_7">
     <g id="line2d_7">
      <g>
       <use xlink:href="#m7523075100" x="356.847205" y="307.584" style="stroke: #000000; stroke-width: 0.8"/>
      </g>
     </g>
     <g id="text_7">
      <!-- 20.0 -->
      <g transform="translate(345.714393 322.182437) scale(0.1 -0.1)">
       <use xlink:href="#DejaVuSans-32"/>
       <use xlink:href="#DejaVuSans-30" transform="translate(63.623047 0)"/>
       <use xlink:href="#DejaVuSans-2e" transform="translate(127.246094 0)"/>
       <use xlink:href="#DejaVuSans-30" transform="translate(159.033203 0)"/>
      </g>
     </g>
    </g>
    <g id="xtick_8">
     <g id="line2d_8">
      <g>
       <use xlink:href="#m7523075100" x="404.101027" y="307.584" style="stroke: #000000; stroke-width: 0.8"/>
      </g>
     </g>
     <g id="text_8">
      <!-- 22.5 -->
      <g transform="translate(392.968214 322.182437) scale(0.1 -0.1)">
       <use xlink:href="#DejaVuSans-32"/>
       <use xlink:href="#DejaVuSans-32" transform="translate(63.623047 0)"/>
       <use xlink:href="#DejaVuSans-2e" transform="translate(127.246094 0)"/>
       <use xlink:href="#DejaVuSans-35" transform="translate(159.033203 0)"/>
      </g>
     </g>
    </g>
    <g id="text_9">
     <!-- Population of City in 10,000s -->
     <g transform="translate(164.26 335.860562) scale(0.1 -0.1)">
      <defs>
       <path id="DejaVuSans-50" d="M 1259 4147 
L 1259 2394 
L 2053 2394 
Q 2494 2394 2734 2622 
Q 2975 2850 2975 3272 
Q 2975 3691 2734 3919 
Q 2494 4147 2053 4147 
L 1259 4147 
z
M 628 4666 
L 2053 4666 
Q 2838 4666 3239 4311 
Q 3641 3956 3641 3272 
Q 3641 2581 3239 2228 
Q 2838 1875 2053 1875 
L 1259 1875 
L 1259 0 
L 628 0 
L 628 4666 
z
" transform="scale(0.015625)"/>
       <path id="DejaVuSans-6f" d="M 1959 3097 
Q 1497 3097 1228 2736 
Q 959 2375 959 1747 
Q 959 1119 1226 758 
Q 1494 397 1959 397 
Q 2419 397 2687 759 
Q 2956 1122 2956 1747 
Q 2956 2369 2687 2733 
Q 2419 3097 1959 3097 
z
M 1959 3584 
Q 2709 3584 3137 3096 
Q 3566 2609 3566 1747 
Q 3566 888 3137 398 
Q 2709 -91 1959 -91 
Q 1206 -91 779 398 
Q 353 888 353 1747 
Q 353 2609 779 3096 
Q 1206 3584 1959 3584 
z
" transform="scale(0.015625)"/>
       <path id="DejaVuSans-70" d="M 1159 525 
L 1159 -1331 
L 581 -1331 
L 581 3500 
L 1159 3500 
L 1159 2969 
Q 1341 3281 1617 3432 
Q 1894 3584 2278 3584 
Q 2916 3584 3314 3078 
Q 3713 2572 3713 1747 
Q 3713 922 3314 415 
Q 2916 -91 2278 -91 
Q 1894 -91 1617 61 
Q 1341 213 1159 525 
z
M 3116 1747 
Q 3116 2381 2855 2742 
Q 2594 3103 2138 3103 
Q 1681 3103 1420 2742 
Q 1159 2381 1159 1747 
Q 1159 1113 1420 752 
Q 1681 391 2138 391 
Q 2594 391 2855 752 
Q 3116 1113 3116 1747 
z
" transform="scale(0.015625)"/>
       <path id="DejaVuSans-75" d="M 544 1381 
L 544 3500 
L 1119 3500 
L 1119 1403 
Q 1119 906 1312 657 
Q 1506 409 1894 409 
Q 2359 409 2629 706 
Q 2900 1003 2900 1516 
L 2900 3500 
L 3475 3500 
L 3475 0 
L 2900 0 
L 2900 538 
Q 2691 219 2414 64 
Q 2138 -91 1772 -91 
Q 1169 -91 856 284 
Q 544 659 544 1381 
z
M 1991 3584 
L 1991 3584 
z
" transform="scale(0.015625)"/>
       <path id="DejaVuSans-6c" d="M 603 4863 
L 1178 4863 
L 1178 0 
L 603 0 
L 603 4863 
z
" transform="scale(0.015625)"/>
       <path id="DejaVuSans-61" d="M 2194 1759 
Q 1497 1759 1228 1600 
Q 959 1441 959 1056 
Q 959 750 1161 570 
Q 1363 391 1709 391 
Q 2188 391 2477 730 
Q 2766 1069 2766 1631 
L 2766 1759 
L 2194 1759 
z
M 3341 1997 
L 3341 0 
L 2766 0 
L 2766 531 
Q 2569 213 2275 61 
Q 1981 -91 1556 -91 
Q 1019 -91 701 211 
Q 384 513 384 1019 
Q 384 1609 779 1909 
Q 1175 2209 1959 2209 
L 2766 2209 
L 2766 2266 
Q 2766 2663 2505 2880 
Q 2244 3097 1772 3097 
Q 1472 3097 1187 3025 
Q 903 2953 641 2809 
L 641 3341 
Q 956 3463 1253 3523 
Q 1550 3584 1831 3584 
Q 2591 3584 2966 3190 
Q 3341 2797 3341 1997 
z
" transform="scale(0.015625)"/>
       <path id="DejaVuSans-74" d="M 1172 4494 
L 1172 3500 
L 2356 3500 
L 2356 3053 
L 1172 3053 
L 1172 1153 
Q 1172 725 1289 603 
Q 1406 481 1766 481 
L 2356 481 
L 2356 0 
L 1766 0 
Q 1100 0 847 248 
Q 594 497 594 1153 
L 594 3053 
L 172 3053 
L 172 3500 
L 594 3500 
L 594 4494 
L 1172 4494 
z
" transform="scale(0.015625)"/>
       <path id="DejaVuSans-69" d="M 603 3500 
L 1178 3500 
L 1178 0 
L 603 0 
L 603 3500 
z
M 603 4863 
L 1178 4863 
L 1178 4134 
L 603 4134 
L 603 4863 
z
" transform="scale(0.015625)"/>
       <path id="DejaVuSans-6e" d="M 3513 2113 
L 3513 0 
L 2938 0 
L 2938 2094 
Q 2938 2591 2744 2837 
Q 2550 3084 2163 3084 
Q 1697 3084 1428 2787 
Q 1159 2491 1159 1978 
L 1159 0 
L 581 0 
L 581 3500 
L 1159 3500 
L 1159 2956 
Q 1366 3272 1645 3428 
Q 1925 3584 2291 3584 
Q 2894 3584 3203 3211 
Q 3513 2838 3513 2113 
z
" transform="scale(0.015625)"/>
       <path id="DejaVuSans-20" transform="scale(0.015625)"/>
       <path id="DejaVuSans-66" d="M 2375 4863 
L 2375 4384 
L 1825 4384 
Q 1516 4384 1395 4259 
Q 1275 4134 1275 3809 
L 1275 3500 
L 2222 3500 
L 2222 3053 
L 1275 3053 
L 1275 0 
L 697 0 
L 697 3053 
L 147 3053 
L 147 3500 
L 697 3500 
L 697 3744 
Q 697 4328 969 4595 
Q 1241 4863 1831 4863 
L 2375 4863 
z
" transform="scale(0.015625)"/>
       <path id="DejaVuSans-43" d="M 4122 4306 
L 4122 3641 
Q 3803 3938 3442 4084 
Q 3081 4231 2675 4231 
Q 1875 4231 1450 3742 
Q 1025 3253 1025 2328 
Q 1025 1406 1450 917 
Q 1875 428 2675 428 
Q 3081 428 3442 575 
Q 3803 722 4122 1019 
L 4122 359 
Q 3791 134 3420 21 
Q 3050 -91 2638 -91 
Q 1578 -91 968 557 
Q 359 1206 359 2328 
Q 359 3453 968 4101 
Q 1578 4750 2638 4750 
Q 3056 4750 3426 4639 
Q 3797 4528 4122 4306 
z
" transform="scale(0.015625)"/>
       <path id="DejaVuSans-79" d="M 2059 -325 
Q 1816 -950 1584 -1140 
Q 1353 -1331 966 -1331 
L 506 -1331 
L 506 -850 
L 844 -850 
Q 1081 -850 1212 -737 
Q 1344 -625 1503 -206 
L 1606 56 
L 191 3500 
L 800 3500 
L 1894 763 
L 2988 3500 
L 3597 3500 
L 2059 -325 
z
" transform="scale(0.015625)"/>
       <path id="DejaVuSans-2c" d="M 750 794 
L 1409 794 
L 1409 256 
L 897 -744 
L 494 -744 
L 750 256 
L 750 794 
z
" transform="scale(0.015625)"/>
       <path id="DejaVuSans-73" d="M 2834 3397 
L 2834 2853 
Q 2591 2978 2328 3040 
Q 2066 3103 1784 3103 
Q 1356 3103 1142 2972 
Q 928 2841 928 2578 
Q 928 2378 1081 2264 
Q 1234 2150 1697 2047 
L 1894 2003 
Q 2506 1872 2764 1633 
Q 3022 1394 3022 966 
Q 3022 478 2636 193 
Q 2250 -91 1575 -91 
Q 1294 -91 989 -36 
Q 684 19 347 128 
L 347 722 
Q 666 556 975 473 
Q 1284 391 1588 391 
Q 1994 391 2212 530 
Q 2431 669 2431 922 
Q 2431 1156 2273 1281 
Q 2116 1406 1581 1522 
L 1381 1569 
Q 847 1681 609 1914 
Q 372 2147 372 2553 
Q 372 3047 722 3315 
Q 1072 3584 1716 3584 
Q 2034 3584 2315 3537 
Q 2597 3491 2834 3397 
z
" transform="scale(0.015625)"/>
      </defs>
      <use xlink:href="#DejaVuSans-50"/>
      <use xlink:href="#DejaVuSans-6f" transform="translate(56.677734 0)"/>
      <use xlink:href="#DejaVuSans-70" transform="translate(117.859375 0)"/>
      <use xlink:href="#DejaVuSans-75" transform="translate(181.335938 0)"/>
      <use xlink:href="#DejaVuSans-6c" transform="translate(244.714844 0)"/>
      <use xlink:href="#DejaVuSans-61" transform="translate(272.498047 0)"/>
      <use xlink:href="#DejaVuSans-74" transform="translate(333.777344 0)"/>
      <use xlink:href="#DejaVuSans-69" transform="translate(372.986328 0)"/>
      <use xlink:href="#DejaVuSans-6f" transform="translate(400.769531 0)"/>
      <use xlink:href="#DejaVuSans-6e" transform="translate(461.951172 0)"/>
      <use xlink:href="#DejaVuSans-20" transform="translate(525.330078 0)"/>
      <use xlink:href="#DejaVuSans-6f" transform="translate(557.117188 0)"/>
      <use xlink:href="#DejaVuSans-66" transform="translate(618.298828 0)"/>
      <use xlink:href="#DejaVuSans-20" transform="translate(653.503906 0)"/>
      <use xlink:href="#DejaVuSans-43" transform="translate(685.291016 0)"/>
      <use xlink:href="#DejaVuSans-69" transform="translate(755.115234 0)"/>
      <use xlink:href="#DejaVuSans-74" transform="translate(782.898438 0)"/>
      <use xlink:href="#DejaVuSans-79" transform="translate(822.107422 0)"/>
      <use xlink:href="#DejaVuSans-20" transform="translate(881.287109 0)"/>
      <use xlink:href="#DejaVuSans-69" transform="translate(913.074219 0)"/>
      <use xlink:href="#DejaVuSans-6e" transform="translate(940.857422 0)"/>
      <use xlink:href="#DejaVuSans-20" transform="translate(1004.236328 0)"/>
      <use xlink:href="#DejaVuSans-31" transform="translate(1036.023438 0)"/>
      <use xlink:href="#DejaVuSans-30" transform="translate(1099.646484 0)"/>
      <use xlink:href="#DejaVuSans-2c" transform="translate(1163.269531 0)"/>
      <use xlink:href="#DejaVuSans-30" transform="translate(1195.056641 0)"/>
      <use xlink:href="#DejaVuSans-30" transform="translate(1258.679688 0)"/>
      <use xlink:href="#DejaVuSans-30" transform="translate(1322.302734 0)"/>
      <use xlink:href="#DejaVuSans-73" transform="translate(1385.925781 0)"/>
     </g>
    </g>
   </g>
   <g id="matplotlib.axis_2">
    <g id="ytick_1">
     <g id="line2d_9">
      <defs>
       <path id="m1e09cb2ec8" d="M 0 0 
L -3.5 0 
" style="stroke: #000000; stroke-width: 0.8"/>
      </defs>
      <g>
       <use xlink:href="#m1e09cb2ec8" x="57.6" y="271.314666" style="stroke: #000000; stroke-width: 0.8"/>
      </g>
     </g>
     <g id="text_10">
      <!-- 0 -->
      <g transform="translate(44.2375 275.113885) scale(0.1 -0.1)">
       <use xlink:href="#DejaVuSans-30"/>
      </g>
     </g>
    </g>
    <g id="ytick_2">
     <g id="line2d_10">
      <g>
       <use xlink:href="#m1e09cb2ec8" x="57.6" y="226.22694" style="stroke: #000000; stroke-width: 0.8"/>
      </g>
     </g>
     <g id="text_11">
      <!-- 5 -->
      <g transform="translate(44.2375 230.026159) scale(0.1 -0.1)">
       <use xlink:href="#DejaVuSans-35"/>
      </g>
     </g>
    </g>
    <g id="ytick_3">
     <g id="line2d_11">
      <g>
       <use xlink:href="#m1e09cb2ec8" x="57.6" y="181.139213" style="stroke: #000000; stroke-width: 0.8"/>
      </g>
     </g>
     <g id="text_12">
      <!-- 10 -->
      <g transform="translate(37.875 184.938432) scale(0.1 -0.1)">
       <use xlink:href="#DejaVuSans-31"/>
       <use xlink:href="#DejaVuSans-30" transform="translate(63.623047 0)"/>
      </g>
     </g>
    </g>
    <g id="ytick_4">
     <g id="line2d_12">
      <g>
       <use xlink:href="#m1e09cb2ec8" x="57.6" y="136.051487" style="stroke: #000000; stroke-width: 0.8"/>
      </g>
     </g>
     <g id="text_13">
      <!-- 15 -->
      <g transform="translate(37.875 139.850706) scale(0.1 -0.1)">
       <use xlink:href="#DejaVuSans-31"/>
       <use xlink:href="#DejaVuSans-35" transform="translate(63.623047 0)"/>
      </g>
     </g>
    </g>
    <g id="ytick_5">
     <g id="line2d_13">
      <g>
       <use xlink:href="#m1e09cb2ec8" x="57.6" y="90.96376" style="stroke: #000000; stroke-width: 0.8"/>
      </g>
     </g>
     <g id="text_14">
      <!-- 20 -->
      <g transform="translate(37.875 94.762979) scale(0.1 -0.1)">
       <use xlink:href="#DejaVuSans-32"/>
       <use xlink:href="#DejaVuSans-30" transform="translate(63.623047 0)"/>
      </g>
     </g>
    </g>
    <g id="ytick_6">
     <g id="line2d_14">
      <g>
       <use xlink:href="#m1e09cb2ec8" x="57.6" y="45.876034" style="stroke: #000000; stroke-width: 0.8"/>
      </g>
     </g>
     <g id="text_15">
      <!-- 25 -->
      <g transform="translate(37.875 49.675253) scale(0.1 -0.1)">
       <use xlink:href="#DejaVuSans-32"/>
       <use xlink:href="#DejaVuSans-35" transform="translate(63.623047 0)"/>
      </g>
     </g>
    </g>
    <g id="text_16">
     <!-- Profit in $10,000s -->
     <g transform="translate(31.795312 218.58425) rotate(-90) scale(0.1 -0.1)">
      <defs>
       <path id="DejaVuSans-72" d="M 2631 2963 
Q 2534 3019 2420 3045 
Q 2306 3072 2169 3072 
Q 1681 3072 1420 2755 
Q 1159 2438 1159 1844 
L 1159 0 
L 581 0 
L 581 3500 
L 1159 3500 
L 1159 2956 
Q 1341 3275 1631 3429 
Q 1922 3584 2338 3584 
Q 2397 3584 2469 3576 
Q 2541 3569 2628 3553 
L 2631 2963 
z
" transform="scale(0.015625)"/>
       <path id="DejaVuSans-24" d="M 2163 -941 
L 1850 -941 
L 1847 0 
Q 1519 6 1191 76 
Q 863 147 531 288 
L 531 850 
Q 850 650 1176 548 
Q 1503 447 1850 444 
L 1850 1869 
Q 1159 1981 845 2250 
Q 531 2519 531 2988 
Q 531 3497 872 3790 
Q 1213 4084 1850 4128 
L 1850 4863 
L 2163 4863 
L 2163 4138 
Q 2453 4125 2725 4076 
Q 2997 4028 3256 3944 
L 3256 3397 
Q 2997 3528 2723 3600 
Q 2450 3672 2163 3684 
L 2163 2350 
Q 2872 2241 3206 1959 
Q 3541 1678 3541 1191 
Q 3541 663 3186 358 
Q 2831 53 2163 6 
L 2163 -941 
z
M 1850 2406 
L 1850 3688 
Q 1488 3647 1297 3481 
Q 1106 3316 1106 3041 
Q 1106 2772 1282 2622 
Q 1459 2472 1850 2406 
z
M 2163 1806 
L 2163 453 
Q 2559 506 2761 678 
Q 2963 850 2963 1131 
Q 2963 1406 2770 1568 
Q 2578 1731 2163 1806 
z
" transform="scale(0.015625)"/>
      </defs>
      <use xlink:href="#DejaVuSans-50"/>
      <use xlink:href="#DejaVuSans-72" transform="translate(58.552734 0)"/>
      <use xlink:href="#DejaVuSans-6f" transform="translate(97.416016 0)"/>
      <use xlink:href="#DejaVuSans-66" transform="translate(158.597656 0)"/>
      <use xlink:href="#DejaVuSans-69" transform="translate(193.802734 0)"/>
      <use xlink:href="#DejaVuSans-74" transform="translate(221.585938 0)"/>
      <use xlink:href="#DejaVuSans-20" transform="translate(260.794922 0)"/>
      <use xlink:href="#DejaVuSans-69" transform="translate(292.582031 0)"/>
      <use xlink:href="#DejaVuSans-6e" transform="translate(320.365234 0)"/>
      <use xlink:href="#DejaVuSans-20" transform="translate(383.744141 0)"/>
      <use xlink:href="#DejaVuSans-24" transform="translate(415.53125 0)"/>
      <use xlink:href="#DejaVuSans-31" transform="translate(479.154297 0)"/>
      <use xlink:href="#DejaVuSans-30" transform="translate(542.777344 0)"/>
      <use xlink:href="#DejaVuSans-2c" transform="translate(606.400391 0)"/>
      <use xlink:href="#DejaVuSans-30" transform="translate(638.1875 0)"/>
      <use xlink:href="#DejaVuSans-30" transform="translate(701.810547 0)"/>
      <use xlink:href="#DejaVuSans-30" transform="translate(765.433594 0)"/>
      <use xlink:href="#DejaVuSans-73" transform="translate(829.056641 0)"/>
     </g>
    </g>
   </g>
   <g id="line2d_15">
    <path d="M 94.306863 234.793162 
L 83.298613 238.224115 
L 139.831195 220.604548 
L 111.187818 229.531858 
L 89.57581 236.267694 
L 137.266257 221.403964 
L 120.132022 226.744209 
L 140.955836 220.25403 
L 101.415728 232.577535 
L 74.3563 241.011175 
L 86.757593 237.146051 
L 246.537884 187.347165 
L 87.197998 237.00879 
L 137.748246 221.253742 
L 85.434486 237.558425 
L 80.495516 239.097759 
L 99.132423 233.289175 
L 75.783365 240.5664 
L 100.345901 232.910969 
L 112.465562 229.133622 
L 95.800084 234.327769 
L 361.950618 151.376361 
L 82.587915 238.445619 
L 98.389593 233.520694 
L 84.00175 238.004968 
L 336.906093 159.182014 
L 221.285442 195.21762 
L 185.920682 206.23979 
L 227.863174 193.167531 
L 398.487273 139.988945 
L 78.095022 239.845923 
L 103.366366 231.969578 
L 153.62175 216.306431 
L 90.180659 236.079181 
L 134.018975 222.416048 
L 128.77002 224.051995 
L 131.841519 223.094698 
L 84.784273 237.761078 
L 221.436654 195.170491 
L 98.905605 233.359868 
L 81.015308 238.935755 
L 108.906404 230.242909 
L 200.11573 201.815605 
L 87.948389 236.774915 
L 126.715424 224.692353 
L 112.887066 229.002252 
L 74.651163 240.919274 
L 88.471961 236.611732 
L 199.964518 201.862734 
L 83.561344 238.142229 
L 121.337939 226.368359 
L 79.140277 239.520148 
L 119.139691 227.05349 
L 122.526845 225.997812 
L 98.516233 233.481224 
L 99.009563 233.327467 
L 97.408604 233.82644 
L 85.415584 237.564316 
L 154.793645 215.941186 
L 157.504124 215.096408 
L 145.630184 218.797171 
L 76.71332 240.27656 
L 381.02226 145.432283 
L 260.600622 182.964218 
L 337.170714 159.099539 
L 115.251647 228.26528 
L 135.606703 221.921199 
L 172.29268 210.487244 
L 82.7637 238.390832 
L 363.292626 150.958096 
L 170.402527 211.07635 
L 117.449895 227.58015 
L 92.342994 235.405243 
L 115.397189 228.219919 
L 73.832727 241.174357 
L 102.581952 232.214057 
L 121.307697 226.377785 
L 74.014182 241.117803 
L 173.010938 210.263383 
L 75.359971 240.69836 
L 87.107271 237.037067 
L 76.885324 240.222951 
L 98.949078 233.346318 
L 163.459996 213.240135 
L 101.977103 232.402571 
L 139.804733 220.612795 
L 152.336446 216.707023 
L 92.263608 235.429986 
L 83.160632 238.26712 
L 74.447027 240.982898 
L 86.700888 237.163724 
L 123.160046 225.800461 
L 89.781837 236.203482 
L 79.096803 239.533697 
L 135.57457 221.931214 
L 231.983707 191.883281 
L 81.582354 238.759023 
" clip-path="url(#p5254e3a9cb)" style="fill: none; stroke: #ff0000; stroke-width: 1.5; stroke-linecap: square"/>
   </g>
   <g id="line2d_16">
    <path d="M 94.306863 240.711155 
L 83.298613 246.976751 
L 139.831195 214.799947 
L 111.187818 231.102976 
L 89.57581 243.403942 
L 137.266257 216.259839 
L 120.132022 226.012179 
L 140.955836 214.159832 
L 101.415728 236.664983 
L 74.3563 252.066472 
L 86.757593 245.007994 
L 246.537884 154.065408 
L 87.197998 244.757328 
L 137.748246 215.985504 
L 85.434486 245.761071 
L 80.495516 248.572198 
L 99.132423 237.964578 
L 75.783365 251.254226 
L 100.345901 237.273899 
L 112.465562 230.375719 
L 95.800084 239.861255 
L 361.950618 88.375625 
L 82.587915 247.381261 
L 98.389593 238.387377 
L 84.00175 246.576545 
L 336.906093 102.630287 
L 221.285442 168.438409 
L 185.920682 188.567067 
L 227.863174 164.694544 
L 398.487273 67.579957 
L 78.095022 249.938493 
L 103.366366 235.554733 
L 153.62175 206.950739 
L 90.180659 243.059678 
L 134.018975 218.108104 
L 128.77002 221.095666 
L 131.841519 219.347453 
L 84.784273 246.131154 
L 221.436654 168.352343 
L 98.905605 238.093677 
L 81.015308 248.276346 
L 108.906404 232.401495 
L 200.11573 180.487632 
L 87.948389 244.330226 
L 126.715424 222.265086 
L 112.887066 230.135811 
L 74.651163 251.898644 
L 88.471961 244.032223 
L 199.964518 180.573698 
L 83.561344 246.827212 
L 121.337939 225.325804 
L 79.140277 249.343563 
L 119.139691 226.576986 
L 122.526845 224.649111 
L 98.516233 238.315297 
L 99.009563 238.034507 
L 97.408604 238.945729 
L 85.415584 245.771829 
L 154.793645 206.283728 
L 157.504124 204.740997 
L 145.630184 211.49932 
L 76.71332 250.72492 
L 381.02226 77.520566 
L 260.600622 146.061281 
L 337.170714 102.479671 
L 115.251647 228.789955 
L 135.606703 217.204412 
L 172.29268 196.323754 
L 82.7637 247.281209 
L 363.292626 87.611791 
L 170.402527 197.399578 
L 117.449895 227.538773 
L 92.342994 241.828936 
L 115.397189 228.707117 
L 73.832727 252.364475 
L 102.581952 236.0012 
L 121.307697 225.343017 
L 74.014182 252.261196 
L 173.010938 195.914941 
L 75.359971 251.49521 
L 87.107271 244.808967 
L 76.885324 250.627021 
L 98.949078 238.068933 
L 163.459996 201.351077 
L 101.977103 236.345464 
L 139.804733 214.815008 
L 152.336446 207.682299 
L 92.263608 241.874121 
L 83.160632 247.055287 
L 74.447027 252.014833 
L 86.700888 245.040269 
L 123.160046 224.28871 
L 89.781837 243.286677 
L 79.096803 249.368307 
L 135.57457 217.222701 
L 231.983707 162.349248 
L 81.582354 247.953599 
" clip-path="url(#p5254e3a9cb)" style="fill: none; stroke: #ff0000; stroke-width: 1.5; stroke-linecap: square"/>
   </g>
   <g id="line2d_17">
    <path d="M 94.306863 240.711156 
L 83.298613 246.976752 
L 139.831195 214.799947 
L 111.187818 231.102976 
L 89.57581 243.403942 
L 137.266257 216.259839 
L 120.132022 226.012179 
L 140.955836 214.159832 
L 101.415728 236.664983 
L 74.3563 252.066473 
L 86.757593 245.007995 
L 246.537884 154.065407 
L 87.197998 244.757328 
L 137.748246 215.985504 
L 85.434486 245.761071 
L 80.495516 248.572198 
L 99.132423 237.964578 
L 75.783365 251.254226 
L 100.345901 237.2739 
L 112.465562 230.375719 
L 95.800084 239.861255 
L 361.950618 88.375625 
L 82.587915 247.381261 
L 98.389593 238.387377 
L 84.00175 246.576545 
L 336.906093 102.630286 
L 221.285442 168.438409 
L 185.920682 188.567067 
L 227.863174 164.694543 
L 398.487273 67.579957 
L 78.095022 249.938494 
L 103.366366 235.554734 
L 153.62175 206.950739 
L 90.180659 243.059678 
L 134.018975 218.108104 
L 128.77002 221.095666 
L 131.841519 219.347453 
L 84.784273 246.131154 
L 221.436654 168.352343 
L 98.905605 238.093677 
L 81.015308 248.276346 
L 108.906404 232.401495 
L 200.11573 180.487632 
L 87.948389 244.330226 
L 126.715424 222.265086 
L 112.887066 230.135811 
L 74.651163 251.898644 
L 88.471961 244.032223 
L 199.964518 180.573698 
L 83.561344 246.827212 
L 121.337939 225.325804 
L 79.140277 249.343563 
L 119.139691 226.576987 
L 122.526845 224.649111 
L 98.516233 238.315297 
L 99.009563 238.034507 
L 97.408604 238.945729 
L 85.415584 245.771829 
L 154.793645 206.283728 
L 157.504124 204.740997 
L 145.630184 211.49932 
L 76.71332 250.724921 
L 381.02226 77.520566 
L 260.600622 146.061281 
L 337.170714 102.479671 
L 115.251647 228.789955 
L 135.606703 217.204412 
L 172.29268 196.323754 
L 82.7637 247.28121 
L 363.292626 87.61179 
L 170.402527 197.399578 
L 117.449895 227.538773 
L 92.342994 241.828936 
L 115.397189 228.707117 
L 73.832727 252.364476 
L 102.581952 236.0012 
L 121.307697 225.343017 
L 74.014182 252.261197 
L 173.010938 195.914941 
L 75.359971 251.49521 
L 87.107271 244.808967 
L 76.885324 250.627021 
L 98.949078 238.068933 
L 163.459996 201.351077 
L 101.977103 236.345464 
L 139.804733 214.815008 
L 152.336446 207.682299 
L 92.263608 241.874121 
L 83.160632 247.055287 
L 74.447027 252.014833 
L 86.700888 245.040269 
L 123.160046 224.28871 
L 89.781837 243.286677 
L 79.096803 249.368307 
L 135.57457 217.222701 
L 231.983707 162.349248 
L 81.582354 247.953599 
" clip-path="url(#p5254e3a9cb)" style="fill: none; stroke: #ff0000; stroke-width: 1.5; stroke-linecap: square"/>
   </g>
   <g id="patch_3">
    <path d="M 57.6 307.584 
L 57.6 41.472 
" style="fill: none; stroke: #000000; stroke-width: 0.8; stroke-linejoin: miter; stroke-linecap: square"/>
   </g>
   <g id="patch_4">
    <path d="M 414.72 307.584 
L 414.72 41.472 
" style="fill: none; stroke: #000000; stroke-width: 0.8; stroke-linejoin: miter; stroke-linecap: square"/>
   </g>
   <g id="patch_5">
    <path d="M 57.6 307.584 
L 414.72 307.584 
" style="fill: none; stroke: #000000; stroke-width: 0.8; stroke-linejoin: miter; stroke-linecap: square"/>
   </g>
   <g id="patch_6">
    <path d="M 57.6 41.472 
L 414.72 41.472 
" style="fill: none; stroke: #000000; stroke-width: 0.8; stroke-linejoin: miter; stroke-linecap: square"/>
   </g>
   <g id="text_17">
    <!-- Linear Regression Fit (Iteration 20000) -->
    <g transform="translate(120.814688 35.472) scale(0.12 -0.12)">
     <defs>
      <path id="DejaVuSans-4c" d="M 628 4666 
L 1259 4666 
L 1259 531 
L 3531 531 
L 3531 0 
L 628 0 
L 628 4666 
z
" transform="scale(0.015625)"/>
      <path id="DejaVuSans-65" d="M 3597 1894 
L 3597 1613 
L 953 1613 
Q 991 1019 1311 708 
Q 1631 397 2203 397 
Q 2534 397 2845 478 
Q 3156 559 3463 722 
L 3463 178 
Q 3153 47 2828 -22 
Q 2503 -91 2169 -91 
Q 1331 -91 842 396 
Q 353 884 353 1716 
Q 353 2575 817 3079 
Q 1281 3584 2069 3584 
Q 2775 3584 3186 3129 
Q 3597 2675 3597 1894 
z
M 3022 2063 
Q 3016 2534 2758 2815 
Q 2500 3097 2075 3097 
Q 1594 3097 1305 2825 
Q 1016 2553 972 2059 
L 3022 2063 
z
" transform="scale(0.015625)"/>
      <path id="DejaVuSans-52" d="M 2841 2188 
Q 3044 2119 3236 1894 
Q 3428 1669 3622 1275 
L 4263 0 
L 3584 0 
L 2988 1197 
Q 2756 1666 2539 1819 
Q 2322 1972 1947 1972 
L 1259 1972 
L 1259 0 
L 628 0 
L 628 4666 
L 2053 4666 
Q 2853 4666 3247 4331 
Q 3641 3997 3641 3322 
Q 3641 2881 3436 2590 
Q 3231 2300 2841 2188 
z
M 1259 4147 
L 1259 2491 
L 2053 2491 
Q 2509 2491 2742 2702 
Q 2975 2913 2975 3322 
Q 2975 3731 2742 3939 
Q 2509 4147 2053 4147 
L 1259 4147 
z
" transform="scale(0.015625)"/>
      <path id="DejaVuSans-67" d="M 2906 1791 
Q 2906 2416 2648 2759 
Q 2391 3103 1925 3103 
Q 1463 3103 1205 2759 
Q 947 2416 947 1791 
Q 947 1169 1205 825 
Q 1463 481 1925 481 
Q 2391 481 2648 825 
Q 2906 1169 2906 1791 
z
M 3481 434 
Q 3481 -459 3084 -895 
Q 2688 -1331 1869 -1331 
Q 1566 -1331 1297 -1286 
Q 1028 -1241 775 -1147 
L 775 -588 
Q 1028 -725 1275 -790 
Q 1522 -856 1778 -856 
Q 2344 -856 2625 -561 
Q 2906 -266 2906 331 
L 2906 616 
Q 2728 306 2450 153 
Q 2172 0 1784 0 
Q 1141 0 747 490 
Q 353 981 353 1791 
Q 353 2603 747 3093 
Q 1141 3584 1784 3584 
Q 2172 3584 2450 3431 
Q 2728 3278 2906 2969 
L 2906 3500 
L 3481 3500 
L 3481 434 
z
" transform="scale(0.015625)"/>
      <path id="DejaVuSans-46" d="M 628 4666 
L 3309 4666 
L 3309 4134 
L 1259 4134 
L 1259 2759 
L 3109 2759 
L 3109 2228 
L 1259 2228 
L 1259 0 
L 628 0 
L 628 4666 
z
" transform="scale(0.015625)"/>
      <path id="DejaVuSans-28" d="M 1984 4856 
Q 1566 4138 1362 3434 
Q 1159 2731 1159 2009 
Q 1159 1288 1364 580 
Q 1569 -128 1984 -844 
L 1484 -844 
Q 1016 -109 783 600 
Q 550 1309 550 2009 
Q 550 2706 781 3412 
Q 1013 4119 1484 4856 
L 1984 4856 
z
" transform="scale(0.015625)"/>
      <path id="DejaVuSans-49" d="M 628 4666 
L 1259 4666 
L 1259 0 
L 628 0 
L 628 4666 
z
" transform="scale(0.015625)"/>
      <path id="DejaVuSans-29" d="M 513 4856 
L 1013 4856 
Q 1481 4119 1714 3412 
Q 1947 2706 1947 2009 
Q 1947 1309 1714 600 
Q 1481 -109 1013 -844 
L 513 -844 
Q 928 -128 1133 580 
Q 1338 1288 1338 2009 
Q 1338 2731 1133 3434 
Q 928 4138 513 4856 
z
" transform="scale(0.015625)"/>
     </defs>
     <use xlink:href="#DejaVuSans-4c"/>
     <use xlink:href="#DejaVuSans-69" transform="translate(55.712891 0)"/>
     <use xlink:href="#DejaVuSans-6e" transform="translate(83.496094 0)"/>
     <use xlink:href="#DejaVuSans-65" transform="translate(146.875 0)"/>
     <use xlink:href="#DejaVuSans-61" transform="translate(208.398438 0)"/>
     <use xlink:href="#DejaVuSans-72" transform="translate(269.677734 0)"/>
     <use xlink:href="#DejaVuSans-20" transform="translate(310.791016 0)"/>
     <use xlink:href="#DejaVuSans-52" transform="translate(342.578125 0)"/>
     <use xlink:href="#DejaVuSans-65" transform="translate(407.560547 0)"/>
     <use xlink:href="#DejaVuSans-67" transform="translate(469.083984 0)"/>
     <use xlink:href="#DejaVuSans-72" transform="translate(532.560547 0)"/>
     <use xlink:href="#DejaVuSans-65" transform="translate(571.423828 0)"/>
     <use xlink:href="#DejaVuSans-73" transform="translate(632.947266 0)"/>
     <use xlink:href="#DejaVuSans-73" transform="translate(685.046875 0)"/>
     <use xlink:href="#DejaVuSans-69" transform="translate(737.146484 0)"/>
     <use xlink:href="#DejaVuSans-6f" transform="translate(764.929688 0)"/>
     <use xlink:href="#DejaVuSans-6e" transform="translate(826.111328 0)"/>
     <use xlink:href="#DejaVuSans-20" transform="translate(889.490234 0)"/>
     <use xlink:href="#DejaVuSans-46" transform="translate(921.277344 0)"/>
     <use xlink:href="#DejaVuSans-69" transform="translate(971.546875 0)"/>
     <use xlink:href="#DejaVuSans-74" transform="translate(999.330078 0)"/>
     <use xlink:href="#DejaVuSans-20" transform="translate(1038.539062 0)"/>
     <use xlink:href="#DejaVuSans-28" transform="translate(1070.326172 0)"/>
     <use xlink:href="#DejaVuSans-49" transform="translate(1109.339844 0)"/>
     <use xlink:href="#DejaVuSans-74" transform="translate(1138.832031 0)"/>
     <use xlink:href="#DejaVuSans-65" transform="translate(1178.041016 0)"/>
     <use xlink:href="#DejaVuSans-72" transform="translate(1239.564453 0)"/>
     <use xlink:href="#DejaVuSans-61" transform="translate(1280.677734 0)"/>
     <use xlink:href="#DejaVuSans-74" transform="translate(1341.957031 0)"/>
     <use xlink:href="#DejaVuSans-69" transform="translate(1381.166016 0)"/>
     <use xlink:href="#DejaVuSans-6f" transform="translate(1408.949219 0)"/>
     <use xlink:href="#DejaVuSans-6e" transform="translate(1470.130859 0)"/>
     <use xlink:href="#DejaVuSans-20" transform="translate(1533.509766 0)"/>
     <use xlink:href="#DejaVuSans-32" transform="translate(1565.296875 0)"/>
     <use xlink:href="#DejaVuSans-30" transform="translate(1628.919922 0)"/>
     <use xlink:href="#DejaVuSans-30" transform="translate(1692.542969 0)"/>
     <use xlink:href="#DejaVuSans-30" transform="translate(1756.166016 0)"/>
     <use xlink:href="#DejaVuSans-30" transform="translate(1819.789062 0)"/>
     <use xlink:href="#DejaVuSans-29" transform="translate(1883.412109 0)"/>
    </g>
   </g>
  </g>
 </g>
 <defs>
  <clipPath id="p5254e3a9cb">
   <rect x="57.6" y="41.472" width="357.12" height="266.112"/>
  </clipPath>
 </defs>
</svg>
