<?xml version="1.0" encoding="utf-8" standalone="no"?>
<!DOCTYPE svg PUBLIC "-//W3C//DTD SVG 1.1//EN"
  "http://www.w3.org/Graphics/SVG/1.1/DTD/svg11.dtd">
<svg xmlns:xlink="http://www.w3.org/1999/xlink" width="720pt" height="432pt" viewBox="0 0 720 432" xmlns="http://www.w3.org/2000/svg" version="1.1">
 <metadata>
  <rdf:RDF xmlns:dc="http://purl.org/dc/elements/1.1/" xmlns:cc="http://creativecommons.org/ns#" xmlns:rdf="http://www.w3.org/1999/02/22-rdf-syntax-ns#">
   <cc:Work>
    <dc:type rdf:resource="http://purl.org/dc/dcmitype/StillImage"/>
    <dc:date>2025-10-14T00:49:26.167787</dc:date>
    <dc:format>image/svg+xml</dc:format>
    <dc:creator>
     <cc:Agent>
      <dc:title>Matplotlib v3.10.7, https://matplotlib.org/</dc:title>
     </cc:Agent>
    </dc:creator>
   </cc:Work>
  </rdf:RDF>
 </metadata>
 <defs>
  <style type="text/css">*{stroke-linejoin: round; stroke-linecap: butt}</style>
 </defs>
 <g id="figure_1">
  <g id="patch_1">
   <path d="M 0 432 
L 720 432 
L 720 0 
L 0 0 
z
" style="fill: #ffffff"/>
  </g>
  <g id="axes_1">
   <g id="patch_2">
    <path d="M 98.66 390.04 
L 709.2 390.04 
L 709.2 24.8325 
L 98.66 24.8325 
z
" style="fill: #ffffff"/>
   </g>
   <g id="patch_3">
    <path d="M 98.66 373.439659 
L 680.126667 373.439659 
L 680.126667 360.025242 
L 98.66 360.025242 
z
" clip-path="url(#pb2d47b657b)" style="fill: #87ceeb"/>
   </g>
   <g id="patch_4">
    <path d="M 98.66 356.671638 
L 631.879373 356.671638 
L 631.879373 343.257221 
L 98.66 343.257221 
z
" clip-path="url(#pb2d47b657b)" style="fill: #87ceeb"/>
   </g>
   <g id="patch_5">
    <path d="M 98.66 339.903617 
L 577.685796 339.903617 
L 577.685796 326.4892 
L 98.66 326.4892 
z
" clip-path="url(#pb2d47b657b)" style="fill: #87ceeb"/>
   </g>
   <g id="patch_6">
    <path d="M 98.66 323.135596 
L 508.223576 323.135596 
L 508.223576 309.721179 
L 98.66 309.721179 
z
" clip-path="url(#pb2d47b657b)" style="fill: #87ceeb"/>
   </g>
   <g id="patch_7">
    <path d="M 98.66 306.367575 
L 501.31085 306.367575 
L 501.31085 292.953158 
L 98.66 292.953158 
z
" clip-path="url(#pb2d47b657b)" style="fill: #87ceeb"/>
   </g>
   <g id="patch_8">
    <path d="M 98.66 289.599553 
L 501.08869 289.599553 
L 501.08869 276.185137 
L 98.66 276.185137 
z
" clip-path="url(#pb2d47b657b)" style="fill: #87ceeb"/>
   </g>
   <g id="patch_9">
    <path d="M 98.66 272.831532 
L 482.683499 272.831532 
L 482.683499 259.417115 
L 98.66 259.417115 
z
" clip-path="url(#pb2d47b657b)" style="fill: #87ceeb"/>
   </g>
   <g id="patch_10">
    <path d="M 98.66 256.063511 
L 466.670254 256.063511 
L 466.670254 242.649094 
L 98.66 242.649094 
z
" clip-path="url(#pb2d47b657b)" style="fill: #87ceeb"/>
   </g>
   <g id="patch_11">
    <path d="M 98.66 239.29549 
L 430.379851 239.29549 
L 430.379851 225.881073 
L 98.66 225.881073 
z
" clip-path="url(#pb2d47b657b)" style="fill: #87ceeb"/>
   </g>
   <g id="patch_12">
    <path d="M 98.66 222.527469 
L 378.600424 222.527469 
L 378.600424 209.113052 
L 98.66 209.113052 
z
" clip-path="url(#pb2d47b657b)" style="fill: #87ceeb"/>
   </g>
   <g id="patch_13">
    <path d="M 98.66 205.759448 
L 374.938068 205.759448 
L 374.938068 192.345031 
L 98.66 192.345031 
z
" clip-path="url(#pb2d47b657b)" style="fill: #87ceeb"/>
   </g>
   <g id="patch_14">
    <path d="M 98.66 188.991427 
L 365.556682 188.991427 
L 365.556682 175.57701 
L 98.66 175.57701 
z
" clip-path="url(#pb2d47b657b)" style="fill: #87ceeb"/>
   </g>
   <g id="patch_15">
    <path d="M 98.66 172.223406 
L 363.151869 172.223406 
L 363.151869 158.808989 
L 98.66 158.808989 
z
" clip-path="url(#pb2d47b657b)" style="fill: #87ceeb"/>
   </g>
   <g id="patch_16">
    <path d="M 98.66 155.455385 
L 354.280136 155.455385 
L 354.280136 142.040968 
L 98.66 142.040968 
z
" clip-path="url(#pb2d47b657b)" style="fill: #87ceeb"/>
   </g>
   <g id="patch_17">
    <path d="M 98.66 138.687363 
L 353.28143 138.687363 
L 353.28143 125.272947 
L 98.66 125.272947 
z
" clip-path="url(#pb2d47b657b)" style="fill: #87ceeb"/>
   </g>
   <g id="patch_18">
    <path d="M 98.66 121.919342 
L 347.987478 121.919342 
L 347.987478 108.504925 
L 98.66 108.504925 
z
" clip-path="url(#pb2d47b657b)" style="fill: #87ceeb"/>
   </g>
   <g id="patch_19">
    <path d="M 98.66 105.151321 
L 340.070196 105.151321 
L 340.070196 91.736904 
L 98.66 91.736904 
z
" clip-path="url(#pb2d47b657b)" style="fill: #87ceeb"/>
   </g>
   <g id="patch_20">
    <path d="M 98.66 88.3833 
L 337.515882 88.3833 
L 337.515882 74.968883 
L 98.66 74.968883 
z
" clip-path="url(#pb2d47b657b)" style="fill: #87ceeb"/>
   </g>
   <g id="patch_21">
    <path d="M 98.66 71.615279 
L 335.900129 71.615279 
L 335.900129 58.200862 
L 98.66 58.200862 
z
" clip-path="url(#pb2d47b657b)" style="fill: #87ceeb"/>
   </g>
   <g id="patch_22">
    <path d="M 98.66 54.847258 
L 327.288657 54.847258 
L 327.288657 41.432841 
L 98.66 41.432841 
z
" clip-path="url(#pb2d47b657b)" style="fill: #87ceeb"/>
   </g>
   <g id="matplotlib.axis_1">
    <g id="xtick_1">
     <g id="line2d_1">
      <path d="M 98.66 390.04 
L 98.66 24.8325 
" clip-path="url(#pb2d47b657b)" style="fill: none; stroke-dasharray: 3.7,1.6; stroke-dashoffset: 0; stroke: #e6e6e6; stroke-opacity: 0.5"/>
     </g>
     <g id="line2d_2">
      <defs>
       <path id="m00dbb83efd" d="M 0 0 
L 0 3.5 
" style="stroke: #000000; stroke-width: 0.8"/>
      </defs>
      <g>
       <use xlink:href="#m00dbb83efd" x="98.66" y="390.04" style="stroke: #000000; stroke-width: 0.8"/>
      </g>
     </g>
     <g id="text_1">
      <!-- 0.00 -->
      <g transform="translate(87.527188 404.638438) scale(0.1 -0.1)">
       <defs>
        <path id="DejaVuSans-30" d="M 2034 4250 
Q 1547 4250 1301 3770 
Q 1056 3291 1056 2328 
Q 1056 1369 1301 889 
Q 1547 409 2034 409 
Q 2525 409 2770 889 
Q 3016 1369 3016 2328 
Q 3016 3291 2770 3770 
Q 2525 4250 2034 4250 
z
M 2034 4750 
Q 2819 4750 3233 4129 
Q 3647 3509 3647 2328 
Q 3647 1150 3233 529 
Q 2819 -91 2034 -91 
Q 1250 -91 836 529 
Q 422 1150 422 2328 
Q 422 3509 836 4129 
Q 1250 4750 2034 4750 
z
" transform="scale(0.015625)"/>
        <path id="DejaVuSans-2e" d="M 684 794 
L 1344 794 
L 1344 0 
L 684 0 
L 684 794 
z
" transform="scale(0.015625)"/>
       </defs>
       <use xlink:href="#DejaVuSans-30"/>
       <use xlink:href="#DejaVuSans-2e" transform="translate(63.623047 0)"/>
       <use xlink:href="#DejaVuSans-30" transform="translate(95.410156 0)"/>
       <use xlink:href="#DejaVuSans-30" transform="translate(159.033203 0)"/>
      </g>
     </g>
    </g>
    <g id="xtick_2">
     <g id="line2d_3">
      <path d="M 197.519782 390.04 
L 197.519782 24.8325 
" clip-path="url(#pb2d47b657b)" style="fill: none; stroke-dasharray: 3.7,1.6; stroke-dashoffset: 0; stroke: #e6e6e6; stroke-opacity: 0.5"/>
     </g>
     <g id="line2d_4">
      <g>
       <use xlink:href="#m00dbb83efd" x="197.519782" y="390.04" style="stroke: #000000; stroke-width: 0.8"/>
      </g>
     </g>
     <g id="text_2">
      <!-- 0.02 -->
      <g transform="translate(186.38697 404.638438) scale(0.1 -0.1)">
       <defs>
        <path id="DejaVuSans-32" d="M 1228 531 
L 3431 531 
L 3431 0 
L 469 0 
L 469 531 
Q 828 903 1448 1529 
Q 2069 2156 2228 2338 
Q 2531 2678 2651 2914 
Q 2772 3150 2772 3378 
Q 2772 3750 2511 3984 
Q 2250 4219 1831 4219 
Q 1534 4219 1204 4116 
Q 875 4013 500 3803 
L 500 4441 
Q 881 4594 1212 4672 
Q 1544 4750 1819 4750 
Q 2544 4750 2975 4387 
Q 3406 4025 3406 3419 
Q 3406 3131 3298 2873 
Q 3191 2616 2906 2266 
Q 2828 2175 2409 1742 
Q 1991 1309 1228 531 
z
" transform="scale(0.015625)"/>
       </defs>
       <use xlink:href="#DejaVuSans-30"/>
       <use xlink:href="#DejaVuSans-2e" transform="translate(63.623047 0)"/>
       <use xlink:href="#DejaVuSans-30" transform="translate(95.410156 0)"/>
       <use xlink:href="#DejaVuSans-32" transform="translate(159.033203 0)"/>
      </g>
     </g>
    </g>
    <g id="xtick_3">
     <g id="line2d_5">
      <path d="M 296.379564 390.04 
L 296.379564 24.8325 
" clip-path="url(#pb2d47b657b)" style="fill: none; stroke-dasharray: 3.7,1.6; stroke-dashoffset: 0; stroke: #e6e6e6; stroke-opacity: 0.5"/>
     </g>
     <g id="line2d_6">
      <g>
       <use xlink:href="#m00dbb83efd" x="296.379564" y="390.04" style="stroke: #000000; stroke-width: 0.8"/>
      </g>
     </g>
     <g id="text_3">
      <!-- 0.04 -->
      <g transform="translate(285.246752 404.638438) scale(0.1 -0.1)">
       <defs>
        <path id="DejaVuSans-34" d="M 2419 4116 
L 825 1625 
L 2419 1625 
L 2419 4116 
z
M 2253 4666 
L 3047 4666 
L 3047 1625 
L 3713 1625 
L 3713 1100 
L 3047 1100 
L 3047 0 
L 2419 0 
L 2419 1100 
L 313 1100 
L 313 1709 
L 2253 4666 
z
" transform="scale(0.015625)"/>
       </defs>
       <use xlink:href="#DejaVuSans-30"/>
       <use xlink:href="#DejaVuSans-2e" transform="translate(63.623047 0)"/>
       <use xlink:href="#DejaVuSans-30" transform="translate(95.410156 0)"/>
       <use xlink:href="#DejaVuSans-34" transform="translate(159.033203 0)"/>
      </g>
     </g>
    </g>
    <g id="xtick_4">
     <g id="line2d_7">
      <path d="M 395.239346 390.04 
L 395.239346 24.8325 
" clip-path="url(#pb2d47b657b)" style="fill: none; stroke-dasharray: 3.7,1.6; stroke-dashoffset: 0; stroke: #e6e6e6; stroke-opacity: 0.5"/>
     </g>
     <g id="line2d_8">
      <g>
       <use xlink:href="#m00dbb83efd" x="395.239346" y="390.04" style="stroke: #000000; stroke-width: 0.8"/>
      </g>
     </g>
     <g id="text_4">
      <!-- 0.06 -->
      <g transform="translate(384.106534 404.638438) scale(0.1 -0.1)">
       <defs>
        <path id="DejaVuSans-36" d="M 2113 2584 
Q 1688 2584 1439 2293 
Q 1191 2003 1191 1497 
Q 1191 994 1439 701 
Q 1688 409 2113 409 
Q 2538 409 2786 701 
Q 3034 994 3034 1497 
Q 3034 2003 2786 2293 
Q 2538 2584 2113 2584 
z
M 3366 4563 
L 3366 3988 
Q 3128 4100 2886 4159 
Q 2644 4219 2406 4219 
Q 1781 4219 1451 3797 
Q 1122 3375 1075 2522 
Q 1259 2794 1537 2939 
Q 1816 3084 2150 3084 
Q 2853 3084 3261 2657 
Q 3669 2231 3669 1497 
Q 3669 778 3244 343 
Q 2819 -91 2113 -91 
Q 1303 -91 875 529 
Q 447 1150 447 2328 
Q 447 3434 972 4092 
Q 1497 4750 2381 4750 
Q 2619 4750 2861 4703 
Q 3103 4656 3366 4563 
z
" transform="scale(0.015625)"/>
       </defs>
       <use xlink:href="#DejaVuSans-30"/>
       <use xlink:href="#DejaVuSans-2e" transform="translate(63.623047 0)"/>
       <use xlink:href="#DejaVuSans-30" transform="translate(95.410156 0)"/>
       <use xlink:href="#DejaVuSans-36" transform="translate(159.033203 0)"/>
      </g>
     </g>
    </g>
    <g id="xtick_5">
     <g id="line2d_9">
      <path d="M 494.099128 390.04 
L 494.099128 24.8325 
" clip-path="url(#pb2d47b657b)" style="fill: none; stroke-dasharray: 3.7,1.6; stroke-dashoffset: 0; stroke: #e6e6e6; stroke-opacity: 0.5"/>
     </g>
     <g id="line2d_10">
      <g>
       <use xlink:href="#m00dbb83efd" x="494.099128" y="390.04" style="stroke: #000000; stroke-width: 0.8"/>
      </g>
     </g>
     <g id="text_5">
      <!-- 0.08 -->
      <g transform="translate(482.966316 404.638438) scale(0.1 -0.1)">
       <defs>
        <path id="DejaVuSans-38" d="M 2034 2216 
Q 1584 2216 1326 1975 
Q 1069 1734 1069 1313 
Q 1069 891 1326 650 
Q 1584 409 2034 409 
Q 2484 409 2743 651 
Q 3003 894 3003 1313 
Q 3003 1734 2745 1975 
Q 2488 2216 2034 2216 
z
M 1403 2484 
Q 997 2584 770 2862 
Q 544 3141 544 3541 
Q 544 4100 942 4425 
Q 1341 4750 2034 4750 
Q 2731 4750 3128 4425 
Q 3525 4100 3525 3541 
Q 3525 3141 3298 2862 
Q 3072 2584 2669 2484 
Q 3125 2378 3379 2068 
Q 3634 1759 3634 1313 
Q 3634 634 3220 271 
Q 2806 -91 2034 -91 
Q 1263 -91 848 271 
Q 434 634 434 1313 
Q 434 1759 690 2068 
Q 947 2378 1403 2484 
z
M 1172 3481 
Q 1172 3119 1398 2916 
Q 1625 2713 2034 2713 
Q 2441 2713 2670 2916 
Q 2900 3119 2900 3481 
Q 2900 3844 2670 4047 
Q 2441 4250 2034 4250 
Q 1625 4250 1398 4047 
Q 1172 3844 1172 3481 
z
" transform="scale(0.015625)"/>
       </defs>
       <use xlink:href="#DejaVuSans-30"/>
       <use xlink:href="#DejaVuSans-2e" transform="translate(63.623047 0)"/>
       <use xlink:href="#DejaVuSans-30" transform="translate(95.410156 0)"/>
       <use xlink:href="#DejaVuSans-38" transform="translate(159.033203 0)"/>
      </g>
     </g>
    </g>
    <g id="xtick_6">
     <g id="line2d_11">
      <path d="M 592.958911 390.04 
L 592.958911 24.8325 
" clip-path="url(#pb2d47b657b)" style="fill: none; stroke-dasharray: 3.7,1.6; stroke-dashoffset: 0; stroke: #e6e6e6; stroke-opacity: 0.5"/>
     </g>
     <g id="line2d_12">
      <g>
       <use xlink:href="#m00dbb83efd" x="592.958911" y="390.04" style="stroke: #000000; stroke-width: 0.8"/>
      </g>
     </g>
     <g id="text_6">
      <!-- 0.10 -->
      <g transform="translate(581.826098 404.638438) scale(0.1 -0.1)">
       <defs>
        <path id="DejaVuSans-31" d="M 794 531 
L 1825 531 
L 1825 4091 
L 703 3866 
L 703 4441 
L 1819 4666 
L 2450 4666 
L 2450 531 
L 3481 531 
L 3481 0 
L 794 0 
L 794 531 
z
" transform="scale(0.015625)"/>
       </defs>
       <use xlink:href="#DejaVuSans-30"/>
       <use xlink:href="#DejaVuSans-2e" transform="translate(63.623047 0)"/>
       <use xlink:href="#DejaVuSans-31" transform="translate(95.410156 0)"/>
       <use xlink:href="#DejaVuSans-30" transform="translate(159.033203 0)"/>
      </g>
     </g>
    </g>
    <g id="xtick_7">
     <g id="line2d_13">
      <path d="M 691.818693 390.04 
L 691.818693 24.8325 
" clip-path="url(#pb2d47b657b)" style="fill: none; stroke-dasharray: 3.7,1.6; stroke-dashoffset: 0; stroke: #e6e6e6; stroke-opacity: 0.5"/>
     </g>
     <g id="line2d_14">
      <g>
       <use xlink:href="#m00dbb83efd" x="691.818693" y="390.04" style="stroke: #000000; stroke-width: 0.8"/>
      </g>
     </g>
     <g id="text_7">
      <!-- 0.12 -->
      <g transform="translate(680.68588 404.638438) scale(0.1 -0.1)">
       <use xlink:href="#DejaVuSans-30"/>
       <use xlink:href="#DejaVuSans-2e" transform="translate(63.623047 0)"/>
       <use xlink:href="#DejaVuSans-31" transform="translate(95.410156 0)"/>
       <use xlink:href="#DejaVuSans-32" transform="translate(159.033203 0)"/>
      </g>
     </g>
    </g>
    <g id="text_8">
     <!-- Importance -->
     <g transform="translate(373.828438 418.316562) scale(0.1 -0.1)">
      <defs>
       <path id="DejaVuSansMono-Bold-49" d="M 538 3853 
L 538 4666 
L 3316 4666 
L 3316 3853 
L 2388 3853 
L 2388 813 
L 3316 813 
L 3316 0 
L 538 0 
L 538 813 
L 1466 813 
L 1466 3853 
L 538 3853 
z
" transform="scale(0.015625)"/>
       <path id="DejaVuSansMono-Bold-6d" d="M 2156 3150 
Q 2259 3372 2418 3478 
Q 2578 3584 2809 3584 
Q 3263 3584 3436 3271 
Q 3609 2959 3609 1972 
L 3609 0 
L 2859 0 
L 2859 2247 
Q 2859 2638 2800 2769 
Q 2741 2900 2584 2900 
Q 2428 2900 2365 2765 
Q 2303 2631 2303 2247 
L 2303 0 
L 1563 0 
L 1563 2247 
Q 1563 2631 1500 2765 
Q 1438 2900 1281 2900 
Q 1125 2900 1065 2769 
Q 1006 2638 1006 2247 
L 1006 0 
L 256 0 
L 256 3500 
L 922 3500 
L 922 3138 
Q 1000 3344 1172 3464 
Q 1344 3584 1556 3584 
Q 1769 3584 1944 3457 
Q 2119 3331 2156 3150 
z
" transform="scale(0.015625)"/>
       <path id="DejaVuSansMono-Bold-70" d="M 1381 494 
L 1381 -1331 
L 469 -1331 
L 469 3500 
L 1381 3500 
L 1381 2975 
Q 1525 3278 1759 3431 
Q 1994 3584 2309 3584 
Q 2909 3584 3240 3103 
Q 3572 2622 3572 1747 
Q 3572 859 3236 384 
Q 2900 -91 2278 -91 
Q 1997 -91 1773 54 
Q 1550 200 1381 494 
z
M 2656 1753 
Q 2656 2259 2487 2546 
Q 2319 2834 2022 2834 
Q 1725 2834 1553 2546 
Q 1381 2259 1381 1753 
Q 1381 1247 1553 959 
Q 1725 672 2022 672 
Q 2319 672 2487 959 
Q 2656 1247 2656 1753 
z
" transform="scale(0.015625)"/>
       <path id="DejaVuSansMono-Bold-6f" d="M 1925 2841 
Q 1597 2841 1409 2552 
Q 1222 2263 1222 1747 
Q 1222 1231 1409 942 
Q 1597 653 1925 653 
Q 2256 653 2443 942 
Q 2631 1231 2631 1747 
Q 2631 2263 2443 2552 
Q 2256 2841 1925 2841 
z
M 306 1747 
Q 306 2594 745 3089 
Q 1184 3584 1925 3584 
Q 2669 3584 3108 3089 
Q 3547 2594 3547 1747 
Q 3547 900 3108 404 
Q 2669 -91 1925 -91 
Q 1184 -91 745 404 
Q 306 900 306 1747 
z
" transform="scale(0.015625)"/>
       <path id="DejaVuSansMono-Bold-72" d="M 3597 2534 
Q 3447 2672 3245 2740 
Q 3044 2809 2803 2809 
Q 2513 2809 2295 2707 
Q 2078 2606 1959 2413 
Q 1884 2294 1854 2125 
Q 1825 1956 1825 1613 
L 1825 0 
L 909 0 
L 909 3500 
L 1825 3500 
L 1825 2956 
Q 1959 3256 2237 3420 
Q 2516 3584 2888 3584 
Q 3075 3584 3254 3539 
Q 3434 3494 3597 3406 
L 3597 2534 
z
" transform="scale(0.015625)"/>
       <path id="DejaVuSansMono-Bold-74" d="M 2156 4494 
L 2156 3500 
L 3353 3500 
L 3353 2797 
L 2156 2797 
L 2156 1141 
Q 2156 906 2270 804 
Q 2384 703 2650 703 
L 3353 703 
L 3353 0 
L 2584 0 
Q 1797 0 1519 251 
Q 1241 503 1241 1184 
L 1241 2797 
L 347 2797 
L 347 3500 
L 1241 3500 
L 1241 4494 
L 2156 4494 
z
" transform="scale(0.015625)"/>
       <path id="DejaVuSansMono-Bold-61" d="M 2188 1644 
Q 1675 1644 1472 1512 
Q 1269 1381 1269 1063 
Q 1269 825 1409 684 
Q 1550 544 1791 544 
Q 2153 544 2353 817 
Q 2553 1091 2553 1581 
L 2553 1644 
L 2188 1644 
z
M 3463 1997 
L 3463 0 
L 2553 0 
L 2553 391 
Q 2388 159 2128 34 
Q 1869 -91 1556 -91 
Q 959 -91 626 225 
Q 294 541 294 1106 
Q 294 1719 691 2011 
Q 1088 2303 1919 2303 
L 2553 2303 
L 2553 2456 
Q 2553 2678 2392 2792 
Q 2231 2906 1919 2906 
Q 1591 2906 1283 2823 
Q 975 2741 641 2559 
L 641 3341 
Q 944 3466 1256 3525 
Q 1569 3584 1919 3584 
Q 2772 3584 3117 3237 
Q 3463 2891 3463 1997 
z
" transform="scale(0.015625)"/>
       <path id="DejaVuSansMono-Bold-6e" d="M 3347 2272 
L 3347 0 
L 2438 0 
L 2438 2131 
Q 2438 2513 2330 2677 
Q 2222 2841 1978 2841 
Q 1731 2841 1589 2619 
Q 1447 2397 1447 2003 
L 1447 0 
L 538 0 
L 538 3500 
L 1447 3500 
L 1447 2975 
Q 1544 3266 1778 3425 
Q 2013 3584 2344 3584 
Q 2841 3584 3094 3254 
Q 3347 2925 3347 2272 
z
" transform="scale(0.015625)"/>
       <path id="DejaVuSansMono-Bold-63" d="M 3316 178 
Q 3084 44 2818 -23 
Q 2553 -91 2247 -91 
Q 1438 -91 981 396 
Q 525 884 525 1747 
Q 525 2613 984 3102 
Q 1444 3591 2253 3591 
Q 2534 3591 2795 3525 
Q 3056 3459 3316 3322 
L 3316 2484 
Q 3116 2656 2877 2748 
Q 2638 2841 2381 2841 
Q 1934 2841 1693 2556 
Q 1453 2272 1453 1747 
Q 1453 1222 1693 940 
Q 1934 659 2381 659 
Q 2647 659 2878 748 
Q 3109 838 3316 1019 
L 3316 178 
z
" transform="scale(0.015625)"/>
       <path id="DejaVuSansMono-Bold-65" d="M 3444 172 
Q 3125 41 2794 -25 
Q 2463 -91 2094 -91 
Q 1216 -91 752 379 
Q 288 850 288 1734 
Q 288 2591 734 3087 
Q 1181 3584 1953 3584 
Q 2731 3584 3161 3123 
Q 3591 2663 3591 1825 
L 3591 1453 
L 1219 1453 
Q 1222 1041 1462 837 
Q 1703 634 2181 634 
Q 2497 634 2803 725 
Q 3109 816 3444 1013 
L 3444 172 
z
M 2669 2141 
Q 2663 2503 2483 2689 
Q 2303 2875 1953 2875 
Q 1638 2875 1450 2683 
Q 1263 2491 1228 2138 
L 2669 2141 
z
" transform="scale(0.015625)"/>
      </defs>
      <use xlink:href="#DejaVuSansMono-Bold-49"/>
      <use xlink:href="#DejaVuSansMono-Bold-6d" transform="translate(60.205078 0)"/>
      <use xlink:href="#DejaVuSansMono-Bold-70" transform="translate(120.410156 0)"/>
      <use xlink:href="#DejaVuSansMono-Bold-6f" transform="translate(180.615234 0)"/>
      <use xlink:href="#DejaVuSansMono-Bold-72" transform="translate(240.820312 0)"/>
      <use xlink:href="#DejaVuSansMono-Bold-74" transform="translate(301.025391 0)"/>
      <use xlink:href="#DejaVuSansMono-Bold-61" transform="translate(361.230469 0)"/>
      <use xlink:href="#DejaVuSansMono-Bold-6e" transform="translate(421.435547 0)"/>
      <use xlink:href="#DejaVuSansMono-Bold-63" transform="translate(481.640625 0)"/>
      <use xlink:href="#DejaVuSansMono-Bold-65" transform="translate(541.845703 0)"/>
     </g>
    </g>
   </g>
   <g id="matplotlib.axis_2">
    <g id="ytick_1">
     <g id="line2d_15">
      <defs>
       <path id="m2ca22b2b26" d="M 0 0 
L -3.5 0 
" style="stroke: #000000; stroke-width: 0.8"/>
      </defs>
      <g>
       <use xlink:href="#m2ca22b2b26" x="98.66" y="366.732451" style="stroke: #000000; stroke-width: 0.8"/>
      </g>
     </g>
     <g id="text_9">
      <!-- feature_1934 -->
      <g transform="translate(25.111563 370.531669) scale(0.1 -0.1)">
       <defs>
        <path id="DejaVuSans-66" d="M 2375 4863 
L 2375 4384 
L 1825 4384 
Q 1516 4384 1395 4259 
Q 1275 4134 1275 3809 
L 1275 3500 
L 2222 3500 
L 2222 3053 
L 1275 3053 
L 1275 0 
L 697 0 
L 697 3053 
L 147 3053 
L 147 3500 
L 697 3500 
L 697 3744 
Q 697 4328 969 4595 
Q 1241 4863 1831 4863 
L 2375 4863 
z
" transform="scale(0.015625)"/>
        <path id="DejaVuSans-65" d="M 3597 1894 
L 3597 1613 
L 953 1613 
Q 991 1019 1311 708 
Q 1631 397 2203 397 
Q 2534 397 2845 478 
Q 3156 559 3463 722 
L 3463 178 
Q 3153 47 2828 -22 
Q 2503 -91 2169 -91 
Q 1331 -91 842 396 
Q 353 884 353 1716 
Q 353 2575 817 3079 
Q 1281 3584 2069 3584 
Q 2775 3584 3186 3129 
Q 3597 2675 3597 1894 
z
M 3022 2063 
Q 3016 2534 2758 2815 
Q 2500 3097 2075 3097 
Q 1594 3097 1305 2825 
Q 1016 2553 972 2059 
L 3022 2063 
z
" transform="scale(0.015625)"/>
        <path id="DejaVuSans-61" d="M 2194 1759 
Q 1497 1759 1228 1600 
Q 959 1441 959 1056 
Q 959 750 1161 570 
Q 1363 391 1709 391 
Q 2188 391 2477 730 
Q 2766 1069 2766 1631 
L 2766 1759 
L 2194 1759 
z
M 3341 1997 
L 3341 0 
L 2766 0 
L 2766 531 
Q 2569 213 2275 61 
Q 1981 -91 1556 -91 
Q 1019 -91 701 211 
Q 384 513 384 1019 
Q 384 1609 779 1909 
Q 1175 2209 1959 2209 
L 2766 2209 
L 2766 2266 
Q 2766 2663 2505 2880 
Q 2244 3097 1772 3097 
Q 1472 3097 1187 3025 
Q 903 2953 641 2809 
L 641 3341 
Q 956 3463 1253 3523 
Q 1550 3584 1831 3584 
Q 2591 3584 2966 3190 
Q 3341 2797 3341 1997 
z
" transform="scale(0.015625)"/>
        <path id="DejaVuSans-74" d="M 1172 4494 
L 1172 3500 
L 2356 3500 
L 2356 3053 
L 1172 3053 
L 1172 1153 
Q 1172 725 1289 603 
Q 1406 481 1766 481 
L 2356 481 
L 2356 0 
L 1766 0 
Q 1100 0 847 248 
Q 594 497 594 1153 
L 594 3053 
L 172 3053 
L 172 3500 
L 594 3500 
L 594 4494 
L 1172 4494 
z
" transform="scale(0.015625)"/>
        <path id="DejaVuSans-75" d="M 544 1381 
L 544 3500 
L 1119 3500 
L 1119 1403 
Q 1119 906 1312 657 
Q 1506 409 1894 409 
Q 2359 409 2629 706 
Q 2900 1003 2900 1516 
L 2900 3500 
L 3475 3500 
L 3475 0 
L 2900 0 
L 2900 538 
Q 2691 219 2414 64 
Q 2138 -91 1772 -91 
Q 1169 -91 856 284 
Q 544 659 544 1381 
z
M 1991 3584 
L 1991 3584 
z
" transform="scale(0.015625)"/>
        <path id="DejaVuSans-72" d="M 2631 2963 
Q 2534 3019 2420 3045 
Q 2306 3072 2169 3072 
Q 1681 3072 1420 2755 
Q 1159 2438 1159 1844 
L 1159 0 
L 581 0 
L 581 3500 
L 1159 3500 
L 1159 2956 
Q 1341 3275 1631 3429 
Q 1922 3584 2338 3584 
Q 2397 3584 2469 3576 
Q 2541 3569 2628 3553 
L 2631 2963 
z
" transform="scale(0.015625)"/>
        <path id="DejaVuSans-5f" d="M 3263 -1063 
L 3263 -1509 
L -63 -1509 
L -63 -1063 
L 3263 -1063 
z
" transform="scale(0.015625)"/>
        <path id="DejaVuSans-39" d="M 703 97 
L 703 672 
Q 941 559 1184 500 
Q 1428 441 1663 441 
Q 2288 441 2617 861 
Q 2947 1281 2994 2138 
Q 2813 1869 2534 1725 
Q 2256 1581 1919 1581 
Q 1219 1581 811 2004 
Q 403 2428 403 3163 
Q 403 3881 828 4315 
Q 1253 4750 1959 4750 
Q 2769 4750 3195 4129 
Q 3622 3509 3622 2328 
Q 3622 1225 3098 567 
Q 2575 -91 1691 -91 
Q 1453 -91 1209 -44 
Q 966 3 703 97 
z
M 1959 2075 
Q 2384 2075 2632 2365 
Q 2881 2656 2881 3163 
Q 2881 3666 2632 3958 
Q 2384 4250 1959 4250 
Q 1534 4250 1286 3958 
Q 1038 3666 1038 3163 
Q 1038 2656 1286 2365 
Q 1534 2075 1959 2075 
z
" transform="scale(0.015625)"/>
        <path id="DejaVuSans-33" d="M 2597 2516 
Q 3050 2419 3304 2112 
Q 3559 1806 3559 1356 
Q 3559 666 3084 287 
Q 2609 -91 1734 -91 
Q 1441 -91 1130 -33 
Q 819 25 488 141 
L 488 750 
Q 750 597 1062 519 
Q 1375 441 1716 441 
Q 2309 441 2620 675 
Q 2931 909 2931 1356 
Q 2931 1769 2642 2001 
Q 2353 2234 1838 2234 
L 1294 2234 
L 1294 2753 
L 1863 2753 
Q 2328 2753 2575 2939 
Q 2822 3125 2822 3475 
Q 2822 3834 2567 4026 
Q 2313 4219 1838 4219 
Q 1578 4219 1281 4162 
Q 984 4106 628 3988 
L 628 4550 
Q 988 4650 1302 4700 
Q 1616 4750 1894 4750 
Q 2613 4750 3031 4423 
Q 3450 4097 3450 3541 
Q 3450 3153 3228 2886 
Q 3006 2619 2597 2516 
z
" transform="scale(0.015625)"/>
       </defs>
       <use xlink:href="#DejaVuSans-66"/>
       <use xlink:href="#DejaVuSans-65" transform="translate(35.205078 0)"/>
       <use xlink:href="#DejaVuSans-61" transform="translate(96.728516 0)"/>
       <use xlink:href="#DejaVuSans-74" transform="translate(158.007812 0)"/>
       <use xlink:href="#DejaVuSans-75" transform="translate(197.216797 0)"/>
       <use xlink:href="#DejaVuSans-72" transform="translate(260.595703 0)"/>
       <use xlink:href="#DejaVuSans-65" transform="translate(299.458984 0)"/>
       <use xlink:href="#DejaVuSans-5f" transform="translate(360.982422 0)"/>
       <use xlink:href="#DejaVuSans-31" transform="translate(410.982422 0)"/>
       <use xlink:href="#DejaVuSans-39" transform="translate(474.605469 0)"/>
       <use xlink:href="#DejaVuSans-33" transform="translate(538.228516 0)"/>
       <use xlink:href="#DejaVuSans-34" transform="translate(601.851562 0)"/>
      </g>
     </g>
    </g>
    <g id="ytick_2">
     <g id="line2d_16">
      <g>
       <use xlink:href="#m2ca22b2b26" x="98.66" y="349.96443" style="stroke: #000000; stroke-width: 0.8"/>
      </g>
     </g>
     <g id="text_10">
      <!-- feature_739 -->
      <g transform="translate(31.474063 353.763648) scale(0.1 -0.1)">
       <defs>
        <path id="DejaVuSans-37" d="M 525 4666 
L 3525 4666 
L 3525 4397 
L 1831 0 
L 1172 0 
L 2766 4134 
L 525 4134 
L 525 4666 
z
" transform="scale(0.015625)"/>
       </defs>
       <use xlink:href="#DejaVuSans-66"/>
       <use xlink:href="#DejaVuSans-65" transform="translate(35.205078 0)"/>
       <use xlink:href="#DejaVuSans-61" transform="translate(96.728516 0)"/>
       <use xlink:href="#DejaVuSans-74" transform="translate(158.007812 0)"/>
       <use xlink:href="#DejaVuSans-75" transform="translate(197.216797 0)"/>
       <use xlink:href="#DejaVuSans-72" transform="translate(260.595703 0)"/>
       <use xlink:href="#DejaVuSans-65" transform="translate(299.458984 0)"/>
       <use xlink:href="#DejaVuSans-5f" transform="translate(360.982422 0)"/>
       <use xlink:href="#DejaVuSans-37" transform="translate(410.982422 0)"/>
       <use xlink:href="#DejaVuSans-33" transform="translate(474.605469 0)"/>
       <use xlink:href="#DejaVuSans-39" transform="translate(538.228516 0)"/>
      </g>
     </g>
    </g>
    <g id="ytick_3">
     <g id="line2d_17">
      <g>
       <use xlink:href="#m2ca22b2b26" x="98.66" y="333.196408" style="stroke: #000000; stroke-width: 0.8"/>
      </g>
     </g>
     <g id="text_11">
      <!-- feature_2262 -->
      <g transform="translate(25.111563 336.995627) scale(0.1 -0.1)">
       <use xlink:href="#DejaVuSans-66"/>
       <use xlink:href="#DejaVuSans-65" transform="translate(35.205078 0)"/>
       <use xlink:href="#DejaVuSans-61" transform="translate(96.728516 0)"/>
       <use xlink:href="#DejaVuSans-74" transform="translate(158.007812 0)"/>
       <use xlink:href="#DejaVuSans-75" transform="translate(197.216797 0)"/>
       <use xlink:href="#DejaVuSans-72" transform="translate(260.595703 0)"/>
       <use xlink:href="#DejaVuSans-65" transform="translate(299.458984 0)"/>
       <use xlink:href="#DejaVuSans-5f" transform="translate(360.982422 0)"/>
       <use xlink:href="#DejaVuSans-32" transform="translate(410.982422 0)"/>
       <use xlink:href="#DejaVuSans-32" transform="translate(474.605469 0)"/>
       <use xlink:href="#DejaVuSans-36" transform="translate(538.228516 0)"/>
       <use xlink:href="#DejaVuSans-32" transform="translate(601.851562 0)"/>
      </g>
     </g>
    </g>
    <g id="ytick_4">
     <g id="line2d_18">
      <g>
       <use xlink:href="#m2ca22b2b26" x="98.66" y="316.428387" style="stroke: #000000; stroke-width: 0.8"/>
      </g>
     </g>
     <g id="text_12">
      <!-- feature_2771 -->
      <g transform="translate(25.111563 320.227606) scale(0.1 -0.1)">
       <use xlink:href="#DejaVuSans-66"/>
       <use xlink:href="#DejaVuSans-65" transform="translate(35.205078 0)"/>
       <use xlink:href="#DejaVuSans-61" transform="translate(96.728516 0)"/>
       <use xlink:href="#DejaVuSans-74" transform="translate(158.007812 0)"/>
       <use xlink:href="#DejaVuSans-75" transform="translate(197.216797 0)"/>
       <use xlink:href="#DejaVuSans-72" transform="translate(260.595703 0)"/>
       <use xlink:href="#DejaVuSans-65" transform="translate(299.458984 0)"/>
       <use xlink:href="#DejaVuSans-5f" transform="translate(360.982422 0)"/>
       <use xlink:href="#DejaVuSans-32" transform="translate(410.982422 0)"/>
       <use xlink:href="#DejaVuSans-37" transform="translate(474.605469 0)"/>
       <use xlink:href="#DejaVuSans-37" transform="translate(538.228516 0)"/>
       <use xlink:href="#DejaVuSans-31" transform="translate(601.851562 0)"/>
      </g>
     </g>
    </g>
    <g id="ytick_5">
     <g id="line2d_19">
      <g>
       <use xlink:href="#m2ca22b2b26" x="98.66" y="299.660366" style="stroke: #000000; stroke-width: 0.8"/>
      </g>
     </g>
     <g id="text_13">
      <!-- feature_1907 -->
      <g transform="translate(25.111563 303.459585) scale(0.1 -0.1)">
       <use xlink:href="#DejaVuSans-66"/>
       <use xlink:href="#DejaVuSans-65" transform="translate(35.205078 0)"/>
       <use xlink:href="#DejaVuSans-61" transform="translate(96.728516 0)"/>
       <use xlink:href="#DejaVuSans-74" transform="translate(158.007812 0)"/>
       <use xlink:href="#DejaVuSans-75" transform="translate(197.216797 0)"/>
       <use xlink:href="#DejaVuSans-72" transform="translate(260.595703 0)"/>
       <use xlink:href="#DejaVuSans-65" transform="translate(299.458984 0)"/>
       <use xlink:href="#DejaVuSans-5f" transform="translate(360.982422 0)"/>
       <use xlink:href="#DejaVuSans-31" transform="translate(410.982422 0)"/>
       <use xlink:href="#DejaVuSans-39" transform="translate(474.605469 0)"/>
       <use xlink:href="#DejaVuSans-30" transform="translate(538.228516 0)"/>
       <use xlink:href="#DejaVuSans-37" transform="translate(601.851562 0)"/>
      </g>
     </g>
    </g>
    <g id="ytick_6">
     <g id="line2d_20">
      <g>
       <use xlink:href="#m2ca22b2b26" x="98.66" y="282.892345" style="stroke: #000000; stroke-width: 0.8"/>
      </g>
     </g>
     <g id="text_14">
      <!-- feature_944 -->
      <g transform="translate(31.474063 286.691564) scale(0.1 -0.1)">
       <use xlink:href="#DejaVuSans-66"/>
       <use xlink:href="#DejaVuSans-65" transform="translate(35.205078 0)"/>
       <use xlink:href="#DejaVuSans-61" transform="translate(96.728516 0)"/>
       <use xlink:href="#DejaVuSans-74" transform="translate(158.007812 0)"/>
       <use xlink:href="#DejaVuSans-75" transform="translate(197.216797 0)"/>
       <use xlink:href="#DejaVuSans-72" transform="translate(260.595703 0)"/>
       <use xlink:href="#DejaVuSans-65" transform="translate(299.458984 0)"/>
       <use xlink:href="#DejaVuSans-5f" transform="translate(360.982422 0)"/>
       <use xlink:href="#DejaVuSans-39" transform="translate(410.982422 0)"/>
       <use xlink:href="#DejaVuSans-34" transform="translate(474.605469 0)"/>
       <use xlink:href="#DejaVuSans-34" transform="translate(538.228516 0)"/>
      </g>
     </g>
    </g>
    <g id="ytick_7">
     <g id="line2d_21">
      <g>
       <use xlink:href="#m2ca22b2b26" x="98.66" y="266.124324" style="stroke: #000000; stroke-width: 0.8"/>
      </g>
     </g>
     <g id="text_15">
      <!-- feature_2498 -->
      <g transform="translate(25.111563 269.923543) scale(0.1 -0.1)">
       <use xlink:href="#DejaVuSans-66"/>
       <use xlink:href="#DejaVuSans-65" transform="translate(35.205078 0)"/>
       <use xlink:href="#DejaVuSans-61" transform="translate(96.728516 0)"/>
       <use xlink:href="#DejaVuSans-74" transform="translate(158.007812 0)"/>
       <use xlink:href="#DejaVuSans-75" transform="translate(197.216797 0)"/>
       <use xlink:href="#DejaVuSans-72" transform="translate(260.595703 0)"/>
       <use xlink:href="#DejaVuSans-65" transform="translate(299.458984 0)"/>
       <use xlink:href="#DejaVuSans-5f" transform="translate(360.982422 0)"/>
       <use xlink:href="#DejaVuSans-32" transform="translate(410.982422 0)"/>
       <use xlink:href="#DejaVuSans-34" transform="translate(474.605469 0)"/>
       <use xlink:href="#DejaVuSans-39" transform="translate(538.228516 0)"/>
       <use xlink:href="#DejaVuSans-38" transform="translate(601.851562 0)"/>
      </g>
     </g>
    </g>
    <g id="ytick_8">
     <g id="line2d_22">
      <g>
       <use xlink:href="#m2ca22b2b26" x="98.66" y="249.356303" style="stroke: #000000; stroke-width: 0.8"/>
      </g>
     </g>
     <g id="text_16">
      <!-- feature_2348 -->
      <g transform="translate(25.111563 253.155522) scale(0.1 -0.1)">
       <use xlink:href="#DejaVuSans-66"/>
       <use xlink:href="#DejaVuSans-65" transform="translate(35.205078 0)"/>
       <use xlink:href="#DejaVuSans-61" transform="translate(96.728516 0)"/>
       <use xlink:href="#DejaVuSans-74" transform="translate(158.007812 0)"/>
       <use xlink:href="#DejaVuSans-75" transform="translate(197.216797 0)"/>
       <use xlink:href="#DejaVuSans-72" transform="translate(260.595703 0)"/>
       <use xlink:href="#DejaVuSans-65" transform="translate(299.458984 0)"/>
       <use xlink:href="#DejaVuSans-5f" transform="translate(360.982422 0)"/>
       <use xlink:href="#DejaVuSans-32" transform="translate(410.982422 0)"/>
       <use xlink:href="#DejaVuSans-33" transform="translate(474.605469 0)"/>
       <use xlink:href="#DejaVuSans-34" transform="translate(538.228516 0)"/>
       <use xlink:href="#DejaVuSans-38" transform="translate(601.851562 0)"/>
      </g>
     </g>
    </g>
    <g id="ytick_9">
     <g id="line2d_23">
      <g>
       <use xlink:href="#m2ca22b2b26" x="98.66" y="232.588282" style="stroke: #000000; stroke-width: 0.8"/>
      </g>
     </g>
     <g id="text_17">
      <!-- feature_97 -->
      <g transform="translate(37.836563 236.3875) scale(0.1 -0.1)">
       <use xlink:href="#DejaVuSans-66"/>
       <use xlink:href="#DejaVuSans-65" transform="translate(35.205078 0)"/>
       <use xlink:href="#DejaVuSans-61" transform="translate(96.728516 0)"/>
       <use xlink:href="#DejaVuSans-74" transform="translate(158.007812 0)"/>
       <use xlink:href="#DejaVuSans-75" transform="translate(197.216797 0)"/>
       <use xlink:href="#DejaVuSans-72" transform="translate(260.595703 0)"/>
       <use xlink:href="#DejaVuSans-65" transform="translate(299.458984 0)"/>
       <use xlink:href="#DejaVuSans-5f" transform="translate(360.982422 0)"/>
       <use xlink:href="#DejaVuSans-39" transform="translate(410.982422 0)"/>
       <use xlink:href="#DejaVuSans-37" transform="translate(474.605469 0)"/>
      </g>
     </g>
    </g>
    <g id="ytick_10">
     <g id="line2d_24">
      <g>
       <use xlink:href="#m2ca22b2b26" x="98.66" y="215.820261" style="stroke: #000000; stroke-width: 0.8"/>
      </g>
     </g>
     <g id="text_18">
      <!-- feature_1417 -->
      <g transform="translate(25.111563 219.619479) scale(0.1 -0.1)">
       <use xlink:href="#DejaVuSans-66"/>
       <use xlink:href="#DejaVuSans-65" transform="translate(35.205078 0)"/>
       <use xlink:href="#DejaVuSans-61" transform="translate(96.728516 0)"/>
       <use xlink:href="#DejaVuSans-74" transform="translate(158.007812 0)"/>
       <use xlink:href="#DejaVuSans-75" transform="translate(197.216797 0)"/>
       <use xlink:href="#DejaVuSans-72" transform="translate(260.595703 0)"/>
       <use xlink:href="#DejaVuSans-65" transform="translate(299.458984 0)"/>
       <use xlink:href="#DejaVuSans-5f" transform="translate(360.982422 0)"/>
       <use xlink:href="#DejaVuSans-31" transform="translate(410.982422 0)"/>
       <use xlink:href="#DejaVuSans-34" transform="translate(474.605469 0)"/>
       <use xlink:href="#DejaVuSans-31" transform="translate(538.228516 0)"/>
       <use xlink:href="#DejaVuSans-37" transform="translate(601.851562 0)"/>
      </g>
     </g>
    </g>
    <g id="ytick_11">
     <g id="line2d_25">
      <g>
       <use xlink:href="#m2ca22b2b26" x="98.66" y="199.052239" style="stroke: #000000; stroke-width: 0.8"/>
      </g>
     </g>
     <g id="text_19">
      <!-- feature_411 -->
      <g transform="translate(31.474063 202.851458) scale(0.1 -0.1)">
       <use xlink:href="#DejaVuSans-66"/>
       <use xlink:href="#DejaVuSans-65" transform="translate(35.205078 0)"/>
       <use xlink:href="#DejaVuSans-61" transform="translate(96.728516 0)"/>
       <use xlink:href="#DejaVuSans-74" transform="translate(158.007812 0)"/>
       <use xlink:href="#DejaVuSans-75" transform="translate(197.216797 0)"/>
       <use xlink:href="#DejaVuSans-72" transform="translate(260.595703 0)"/>
       <use xlink:href="#DejaVuSans-65" transform="translate(299.458984 0)"/>
       <use xlink:href="#DejaVuSans-5f" transform="translate(360.982422 0)"/>
       <use xlink:href="#DejaVuSans-34" transform="translate(410.982422 0)"/>
       <use xlink:href="#DejaVuSans-31" transform="translate(474.605469 0)"/>
       <use xlink:href="#DejaVuSans-31" transform="translate(538.228516 0)"/>
      </g>
     </g>
    </g>
    <g id="ytick_12">
     <g id="line2d_26">
      <g>
       <use xlink:href="#m2ca22b2b26" x="98.66" y="182.284218" style="stroke: #000000; stroke-width: 0.8"/>
      </g>
     </g>
     <g id="text_20">
      <!-- feature_2008 -->
      <g transform="translate(25.111563 186.083437) scale(0.1 -0.1)">
       <use xlink:href="#DejaVuSans-66"/>
       <use xlink:href="#DejaVuSans-65" transform="translate(35.205078 0)"/>
       <use xlink:href="#DejaVuSans-61" transform="translate(96.728516 0)"/>
       <use xlink:href="#DejaVuSans-74" transform="translate(158.007812 0)"/>
       <use xlink:href="#DejaVuSans-75" transform="translate(197.216797 0)"/>
       <use xlink:href="#DejaVuSans-72" transform="translate(260.595703 0)"/>
       <use xlink:href="#DejaVuSans-65" transform="translate(299.458984 0)"/>
       <use xlink:href="#DejaVuSans-5f" transform="translate(360.982422 0)"/>
       <use xlink:href="#DejaVuSans-32" transform="translate(410.982422 0)"/>
       <use xlink:href="#DejaVuSans-30" transform="translate(474.605469 0)"/>
       <use xlink:href="#DejaVuSans-30" transform="translate(538.228516 0)"/>
       <use xlink:href="#DejaVuSans-38" transform="translate(601.851562 0)"/>
      </g>
     </g>
    </g>
    <g id="ytick_13">
     <g id="line2d_27">
      <g>
       <use xlink:href="#m2ca22b2b26" x="98.66" y="165.516197" style="stroke: #000000; stroke-width: 0.8"/>
      </g>
     </g>
     <g id="text_21">
      <!-- feature_1871 -->
      <g transform="translate(25.111563 169.315416) scale(0.1 -0.1)">
       <use xlink:href="#DejaVuSans-66"/>
       <use xlink:href="#DejaVuSans-65" transform="translate(35.205078 0)"/>
       <use xlink:href="#DejaVuSans-61" transform="translate(96.728516 0)"/>
       <use xlink:href="#DejaVuSans-74" transform="translate(158.007812 0)"/>
       <use xlink:href="#DejaVuSans-75" transform="translate(197.216797 0)"/>
       <use xlink:href="#DejaVuSans-72" transform="translate(260.595703 0)"/>
       <use xlink:href="#DejaVuSans-65" transform="translate(299.458984 0)"/>
       <use xlink:href="#DejaVuSans-5f" transform="translate(360.982422 0)"/>
       <use xlink:href="#DejaVuSans-31" transform="translate(410.982422 0)"/>
       <use xlink:href="#DejaVuSans-38" transform="translate(474.605469 0)"/>
       <use xlink:href="#DejaVuSans-37" transform="translate(538.228516 0)"/>
       <use xlink:href="#DejaVuSans-31" transform="translate(601.851562 0)"/>
      </g>
     </g>
    </g>
    <g id="ytick_14">
     <g id="line2d_28">
      <g>
       <use xlink:href="#m2ca22b2b26" x="98.66" y="148.748176" style="stroke: #000000; stroke-width: 0.8"/>
      </g>
     </g>
     <g id="text_22">
      <!-- feature_1493 -->
      <g transform="translate(25.111563 152.547395) scale(0.1 -0.1)">
       <use xlink:href="#DejaVuSans-66"/>
       <use xlink:href="#DejaVuSans-65" transform="translate(35.205078 0)"/>
       <use xlink:href="#DejaVuSans-61" transform="translate(96.728516 0)"/>
       <use xlink:href="#DejaVuSans-74" transform="translate(158.007812 0)"/>
       <use xlink:href="#DejaVuSans-75" transform="translate(197.216797 0)"/>
       <use xlink:href="#DejaVuSans-72" transform="translate(260.595703 0)"/>
       <use xlink:href="#DejaVuSans-65" transform="translate(299.458984 0)"/>
       <use xlink:href="#DejaVuSans-5f" transform="translate(360.982422 0)"/>
       <use xlink:href="#DejaVuSans-31" transform="translate(410.982422 0)"/>
       <use xlink:href="#DejaVuSans-34" transform="translate(474.605469 0)"/>
       <use xlink:href="#DejaVuSans-39" transform="translate(538.228516 0)"/>
       <use xlink:href="#DejaVuSans-33" transform="translate(601.851562 0)"/>
      </g>
     </g>
    </g>
    <g id="ytick_15">
     <g id="line2d_29">
      <g>
       <use xlink:href="#m2ca22b2b26" x="98.66" y="131.980155" style="stroke: #000000; stroke-width: 0.8"/>
      </g>
     </g>
     <g id="text_23">
      <!-- feature_3136 -->
      <g transform="translate(25.111563 135.779374) scale(0.1 -0.1)">
       <use xlink:href="#DejaVuSans-66"/>
       <use xlink:href="#DejaVuSans-65" transform="translate(35.205078 0)"/>
       <use xlink:href="#DejaVuSans-61" transform="translate(96.728516 0)"/>
       <use xlink:href="#DejaVuSans-74" transform="translate(158.007812 0)"/>
       <use xlink:href="#DejaVuSans-75" transform="translate(197.216797 0)"/>
       <use xlink:href="#DejaVuSans-72" transform="translate(260.595703 0)"/>
       <use xlink:href="#DejaVuSans-65" transform="translate(299.458984 0)"/>
       <use xlink:href="#DejaVuSans-5f" transform="translate(360.982422 0)"/>
       <use xlink:href="#DejaVuSans-33" transform="translate(410.982422 0)"/>
       <use xlink:href="#DejaVuSans-31" transform="translate(474.605469 0)"/>
       <use xlink:href="#DejaVuSans-33" transform="translate(538.228516 0)"/>
       <use xlink:href="#DejaVuSans-36" transform="translate(601.851562 0)"/>
      </g>
     </g>
    </g>
    <g id="ytick_16">
     <g id="line2d_30">
      <g>
       <use xlink:href="#m2ca22b2b26" x="98.66" y="115.212134" style="stroke: #000000; stroke-width: 0.8"/>
      </g>
     </g>
     <g id="text_24">
      <!-- feature_355 -->
      <g transform="translate(31.474063 119.011353) scale(0.1 -0.1)">
       <defs>
        <path id="DejaVuSans-35" d="M 691 4666 
L 3169 4666 
L 3169 4134 
L 1269 4134 
L 1269 2991 
Q 1406 3038 1543 3061 
Q 1681 3084 1819 3084 
Q 2600 3084 3056 2656 
Q 3513 2228 3513 1497 
Q 3513 744 3044 326 
Q 2575 -91 1722 -91 
Q 1428 -91 1123 -41 
Q 819 9 494 109 
L 494 744 
Q 775 591 1075 516 
Q 1375 441 1709 441 
Q 2250 441 2565 725 
Q 2881 1009 2881 1497 
Q 2881 1984 2565 2268 
Q 2250 2553 1709 2553 
Q 1456 2553 1204 2497 
Q 953 2441 691 2322 
L 691 4666 
z
" transform="scale(0.015625)"/>
       </defs>
       <use xlink:href="#DejaVuSans-66"/>
       <use xlink:href="#DejaVuSans-65" transform="translate(35.205078 0)"/>
       <use xlink:href="#DejaVuSans-61" transform="translate(96.728516 0)"/>
       <use xlink:href="#DejaVuSans-74" transform="translate(158.007812 0)"/>
       <use xlink:href="#DejaVuSans-75" transform="translate(197.216797 0)"/>
       <use xlink:href="#DejaVuSans-72" transform="translate(260.595703 0)"/>
       <use xlink:href="#DejaVuSans-65" transform="translate(299.458984 0)"/>
       <use xlink:href="#DejaVuSans-5f" transform="translate(360.982422 0)"/>
       <use xlink:href="#DejaVuSans-33" transform="translate(410.982422 0)"/>
       <use xlink:href="#DejaVuSans-35" transform="translate(474.605469 0)"/>
       <use xlink:href="#DejaVuSans-35" transform="translate(538.228516 0)"/>
      </g>
     </g>
    </g>
    <g id="ytick_17">
     <g id="line2d_31">
      <g>
       <use xlink:href="#m2ca22b2b26" x="98.66" y="98.444113" style="stroke: #000000; stroke-width: 0.8"/>
      </g>
     </g>
     <g id="text_25">
      <!-- feature_1979 -->
      <g transform="translate(25.111563 102.243331) scale(0.1 -0.1)">
       <use xlink:href="#DejaVuSans-66"/>
       <use xlink:href="#DejaVuSans-65" transform="translate(35.205078 0)"/>
       <use xlink:href="#DejaVuSans-61" transform="translate(96.728516 0)"/>
       <use xlink:href="#DejaVuSans-74" transform="translate(158.007812 0)"/>
       <use xlink:href="#DejaVuSans-75" transform="translate(197.216797 0)"/>
       <use xlink:href="#DejaVuSans-72" transform="translate(260.595703 0)"/>
       <use xlink:href="#DejaVuSans-65" transform="translate(299.458984 0)"/>
       <use xlink:href="#DejaVuSans-5f" transform="translate(360.982422 0)"/>
       <use xlink:href="#DejaVuSans-31" transform="translate(410.982422 0)"/>
       <use xlink:href="#DejaVuSans-39" transform="translate(474.605469 0)"/>
       <use xlink:href="#DejaVuSans-37" transform="translate(538.228516 0)"/>
       <use xlink:href="#DejaVuSans-39" transform="translate(601.851562 0)"/>
      </g>
     </g>
    </g>
    <g id="ytick_18">
     <g id="line2d_32">
      <g>
       <use xlink:href="#m2ca22b2b26" x="98.66" y="81.676092" style="stroke: #000000; stroke-width: 0.8"/>
      </g>
     </g>
     <g id="text_26">
      <!-- feature_3085 -->
      <g transform="translate(25.111563 85.47531) scale(0.1 -0.1)">
       <use xlink:href="#DejaVuSans-66"/>
       <use xlink:href="#DejaVuSans-65" transform="translate(35.205078 0)"/>
       <use xlink:href="#DejaVuSans-61" transform="translate(96.728516 0)"/>
       <use xlink:href="#DejaVuSans-74" transform="translate(158.007812 0)"/>
       <use xlink:href="#DejaVuSans-75" transform="translate(197.216797 0)"/>
       <use xlink:href="#DejaVuSans-72" transform="translate(260.595703 0)"/>
       <use xlink:href="#DejaVuSans-65" transform="translate(299.458984 0)"/>
       <use xlink:href="#DejaVuSans-5f" transform="translate(360.982422 0)"/>
       <use xlink:href="#DejaVuSans-33" transform="translate(410.982422 0)"/>
       <use xlink:href="#DejaVuSans-30" transform="translate(474.605469 0)"/>
       <use xlink:href="#DejaVuSans-38" transform="translate(538.228516 0)"/>
       <use xlink:href="#DejaVuSans-35" transform="translate(601.851562 0)"/>
      </g>
     </g>
    </g>
    <g id="ytick_19">
     <g id="line2d_33">
      <g>
       <use xlink:href="#m2ca22b2b26" x="98.66" y="64.90807" style="stroke: #000000; stroke-width: 0.8"/>
      </g>
     </g>
     <g id="text_27">
      <!-- feature_921 -->
      <g transform="translate(31.474063 68.707289) scale(0.1 -0.1)">
       <use xlink:href="#DejaVuSans-66"/>
       <use xlink:href="#DejaVuSans-65" transform="translate(35.205078 0)"/>
       <use xlink:href="#DejaVuSans-61" transform="translate(96.728516 0)"/>
       <use xlink:href="#DejaVuSans-74" transform="translate(158.007812 0)"/>
       <use xlink:href="#DejaVuSans-75" transform="translate(197.216797 0)"/>
       <use xlink:href="#DejaVuSans-72" transform="translate(260.595703 0)"/>
       <use xlink:href="#DejaVuSans-65" transform="translate(299.458984 0)"/>
       <use xlink:href="#DejaVuSans-5f" transform="translate(360.982422 0)"/>
       <use xlink:href="#DejaVuSans-39" transform="translate(410.982422 0)"/>
       <use xlink:href="#DejaVuSans-32" transform="translate(474.605469 0)"/>
       <use xlink:href="#DejaVuSans-31" transform="translate(538.228516 0)"/>
      </g>
     </g>
    </g>
    <g id="ytick_20">
     <g id="line2d_34">
      <g>
       <use xlink:href="#m2ca22b2b26" x="98.66" y="48.140049" style="stroke: #000000; stroke-width: 0.8"/>
      </g>
     </g>
     <g id="text_28">
      <!-- feature_665 -->
      <g transform="translate(31.474063 51.939268) scale(0.1 -0.1)">
       <use xlink:href="#DejaVuSans-66"/>
       <use xlink:href="#DejaVuSans-65" transform="translate(35.205078 0)"/>
       <use xlink:href="#DejaVuSans-61" transform="translate(96.728516 0)"/>
       <use xlink:href="#DejaVuSans-74" transform="translate(158.007812 0)"/>
       <use xlink:href="#DejaVuSans-75" transform="translate(197.216797 0)"/>
       <use xlink:href="#DejaVuSans-72" transform="translate(260.595703 0)"/>
       <use xlink:href="#DejaVuSans-65" transform="translate(299.458984 0)"/>
       <use xlink:href="#DejaVuSans-5f" transform="translate(360.982422 0)"/>
       <use xlink:href="#DejaVuSans-36" transform="translate(410.982422 0)"/>
       <use xlink:href="#DejaVuSans-36" transform="translate(474.605469 0)"/>
       <use xlink:href="#DejaVuSans-35" transform="translate(538.228516 0)"/>
      </g>
     </g>
    </g>
    <g id="text_29">
     <!-- Feature -->
     <g transform="translate(19.031875 228.507344) rotate(-90) scale(0.1 -0.1)">
      <defs>
       <path id="DejaVuSansMono-Bold-46" d="M 3475 3853 
L 1491 3853 
L 1491 2847 
L 3297 2847 
L 3297 2034 
L 1491 2034 
L 1491 0 
L 569 0 
L 569 4666 
L 3475 4666 
L 3475 3853 
z
" transform="scale(0.015625)"/>
       <path id="DejaVuSansMono-Bold-75" d="M 500 1222 
L 500 3500 
L 1416 3500 
L 1416 1363 
Q 1416 984 1522 821 
Q 1628 659 1875 659 
Q 2122 659 2261 878 
Q 2400 1097 2400 1491 
L 2400 3500 
L 3316 3500 
L 3316 0 
L 2400 0 
L 2400 519 
Q 2303 228 2070 68 
Q 1838 -91 1509 -91 
Q 1009 -91 754 240 
Q 500 572 500 1222 
z
" transform="scale(0.015625)"/>
      </defs>
      <use xlink:href="#DejaVuSansMono-Bold-46"/>
      <use xlink:href="#DejaVuSansMono-Bold-65" transform="translate(60.205078 0)"/>
      <use xlink:href="#DejaVuSansMono-Bold-61" transform="translate(120.410156 0)"/>
      <use xlink:href="#DejaVuSansMono-Bold-74" transform="translate(180.615234 0)"/>
      <use xlink:href="#DejaVuSansMono-Bold-75" transform="translate(240.820312 0)"/>
      <use xlink:href="#DejaVuSansMono-Bold-72" transform="translate(301.025391 0)"/>
      <use xlink:href="#DejaVuSansMono-Bold-65" transform="translate(361.230469 0)"/>
     </g>
    </g>
   </g>
   <g id="patch_23">
    <path d="M 98.66 390.04 
L 98.66 24.8325 
" style="fill: none; stroke: #000000; stroke-width: 0.8; stroke-linejoin: miter; stroke-linecap: square"/>
   </g>
   <g id="patch_24">
    <path d="M 709.2 390.04 
L 709.2 24.8325 
" style="fill: none; stroke: #000000; stroke-width: 0.8; stroke-linejoin: miter; stroke-linecap: square"/>
   </g>
   <g id="patch_25">
    <path d="M 98.66 390.04 
L 709.2 390.04 
" style="fill: none; stroke: #000000; stroke-width: 0.8; stroke-linejoin: miter; stroke-linecap: square"/>
   </g>
   <g id="patch_26">
    <path d="M 98.66 24.8325 
L 709.2 24.8325 
" style="fill: none; stroke: #000000; stroke-width: 0.8; stroke-linejoin: miter; stroke-linecap: square"/>
   </g>
   <g id="text_30">
    <!-- Top 20 Feature Importances (StackingClassifier_of_top_3_models) -->
    <g transform="translate(214.290156 18.8325) scale(0.1 -0.1)">
     <defs>
      <path id="DejaVuSansMono-Bold-54" d="M 2388 0 
L 1466 0 
L 1466 3859 
L 281 3859 
L 281 4666 
L 3572 4666 
L 3572 3859 
L 2388 3859 
L 2388 0 
z
" transform="scale(0.015625)"/>
      <path id="DejaVuSansMono-Bold-20" transform="scale(0.015625)"/>
      <path id="DejaVuSansMono-Bold-32" d="M 1356 813 
L 3322 813 
L 3322 0 
L 359 0 
L 359 788 
L 859 1319 
Q 1750 2266 1941 2484 
Q 2175 2753 2278 2961 
Q 2381 3169 2381 3372 
Q 2381 3684 2192 3854 
Q 2003 4025 1656 4025 
Q 1409 4025 1101 3926 
Q 794 3828 459 3641 
L 459 4500 
Q 794 4622 1114 4686 
Q 1434 4750 1728 4750 
Q 2469 4750 2892 4404 
Q 3316 4059 3316 3463 
Q 3316 3188 3223 2947 
Q 3131 2706 2906 2413 
Q 2741 2200 1997 1456 
Q 1594 1053 1356 813 
z
" transform="scale(0.015625)"/>
      <path id="DejaVuSansMono-Bold-30" d="M 1538 2328 
Q 1538 2494 1650 2606 
Q 1763 2719 1925 2719 
Q 2091 2719 2203 2606 
Q 2316 2494 2316 2328 
Q 2316 2166 2203 2053 
Q 2091 1941 1925 1941 
Q 1763 1941 1650 2052 
Q 1538 2163 1538 2328 
z
M 1925 3969 
Q 1606 3969 1459 3578 
Q 1313 3188 1313 2328 
Q 1313 1472 1459 1081 
Q 1606 691 1925 691 
Q 2247 691 2394 1081 
Q 2541 1472 2541 2328 
Q 2541 3188 2394 3578 
Q 2247 3969 1925 3969 
z
M 384 2328 
Q 384 3541 768 4145 
Q 1153 4750 1925 4750 
Q 2700 4750 3084 4147 
Q 3469 3544 3469 2328 
Q 3469 1116 3084 512 
Q 2700 -91 1925 -91 
Q 1153 -91 768 514 
Q 384 1119 384 2328 
z
" transform="scale(0.015625)"/>
      <path id="DejaVuSansMono-Bold-73" d="M 3097 3391 
L 3097 2591 
Q 2844 2753 2570 2836 
Q 2297 2919 2022 2919 
Q 1716 2919 1559 2830 
Q 1403 2741 1403 2566 
Q 1403 2316 2072 2159 
L 2106 2150 
L 2369 2088 
Q 2869 1969 3101 1705 
Q 3334 1441 3334 991 
Q 3334 450 2979 179 
Q 2625 -91 1913 -91 
Q 1597 -91 1265 -36 
Q 934 19 594 128 
L 594 928 
Q 897 756 1211 665 
Q 1525 575 1819 575 
Q 2141 575 2306 669 
Q 2472 763 2472 941 
Q 2472 1116 2355 1209 
Q 2238 1303 1797 1409 
L 1544 1466 
Q 1019 1584 778 1837 
Q 538 2091 538 2516 
Q 538 3022 903 3303 
Q 1269 3584 1931 3584 
Q 2228 3584 2523 3536 
Q 2819 3488 3097 3391 
z
" transform="scale(0.015625)"/>
      <path id="DejaVuSansMono-Bold-28" d="M 2888 4856 
Q 2475 4109 2275 3409 
Q 2075 2709 2075 2009 
Q 2075 1316 2275 611 
Q 2475 -94 2888 -844 
L 2175 -844 
Q 1678 -122 1437 579 
Q 1197 1281 1197 2009 
Q 1197 2734 1439 3439 
Q 1681 4144 2175 4856 
L 2888 4856 
z
" transform="scale(0.015625)"/>
      <path id="DejaVuSansMono-Bold-53" d="M 1594 2047 
Q 897 2313 650 2605 
Q 403 2897 403 3391 
Q 403 4025 809 4387 
Q 1216 4750 1925 4750 
Q 2247 4750 2569 4676 
Q 2891 4603 3206 4459 
L 3206 3559 
Q 2909 3769 2603 3878 
Q 2297 3988 1997 3988 
Q 1663 3988 1484 3853 
Q 1306 3719 1306 3469 
Q 1306 3275 1436 3148 
Q 1566 3022 1978 2869 
L 2375 2719 
Q 2938 2513 3203 2172 
Q 3469 1831 3469 1313 
Q 3469 606 3051 257 
Q 2634 -91 1791 -91 
Q 1444 -91 1095 -8 
Q 747 75 422 238 
L 422 1191 
Q 791 928 1136 800 
Q 1481 672 1819 672 
Q 2159 672 2346 826 
Q 2534 981 2534 1259 
Q 2534 1469 2409 1626 
Q 2284 1784 2047 1875 
L 1594 2047 
z
" transform="scale(0.015625)"/>
      <path id="DejaVuSansMono-Bold-6b" d="M 544 4863 
L 1459 4863 
L 1459 2309 
L 2559 3500 
L 3669 3500 
L 2344 2194 
L 3744 0 
L 2731 0 
L 1772 1638 
L 1459 1338 
L 1459 0 
L 544 0 
L 544 4863 
z
" transform="scale(0.015625)"/>
      <path id="DejaVuSansMono-Bold-69" d="M 691 3500 
L 2503 3500 
L 2503 703 
L 3641 703 
L 3641 0 
L 447 0 
L 447 703 
L 1588 703 
L 1588 2797 
L 691 2797 
L 691 3500 
z
M 1588 5203 
L 2503 5203 
L 2503 4134 
L 1588 4134 
L 1588 5203 
z
" transform="scale(0.015625)"/>
      <path id="DejaVuSansMono-Bold-67" d="M 2509 1806 
Q 2509 2275 2331 2558 
Q 2153 2841 1863 2841 
Q 1575 2841 1398 2559 
Q 1222 2278 1222 1806 
Q 1222 1331 1398 1050 
Q 1575 769 1863 769 
Q 2153 769 2331 1051 
Q 2509 1334 2509 1806 
z
M 3425 263 
Q 3425 -578 3045 -951 
Q 2666 -1325 1813 -1325 
Q 1525 -1325 1244 -1283 
Q 963 -1241 672 -1153 
L 672 -313 
Q 931 -456 1200 -525 
Q 1469 -594 1753 -594 
Q 2141 -594 2325 -411 
Q 2509 -228 2509 159 
L 2509 538 
Q 2375 288 2153 166 
Q 1931 44 1613 44 
Q 1013 44 659 512 
Q 306 981 306 1784 
Q 306 2616 659 3103 
Q 1013 3591 1606 3591 
Q 1906 3591 2140 3450 
Q 2375 3309 2509 3053 
L 2509 3500 
L 3425 3500 
L 3425 263 
z
" transform="scale(0.015625)"/>
      <path id="DejaVuSansMono-Bold-43" d="M 3378 134 
Q 3159 22 2918 -34 
Q 2678 -91 2413 -91 
Q 1469 -91 972 531 
Q 475 1153 475 2328 
Q 475 3506 972 4128 
Q 1469 4750 2413 4750 
Q 2678 4750 2922 4694 
Q 3166 4638 3378 4525 
L 3378 3500 
Q 3141 3719 2917 3820 
Q 2694 3922 2456 3922 
Q 1950 3922 1692 3520 
Q 1434 3119 1434 2328 
Q 1434 1541 1692 1139 
Q 1950 738 2456 738 
Q 2694 738 2917 839 
Q 3141 941 3378 1159 
L 3378 134 
z
" transform="scale(0.015625)"/>
      <path id="DejaVuSansMono-Bold-6c" d="M 1209 1459 
L 1209 4159 
L 281 4159 
L 281 4863 
L 2125 4863 
L 2125 1459 
Q 2125 1047 2253 875 
Q 2381 703 2688 703 
L 3419 703 
L 3419 0 
L 2431 0 
Q 1778 0 1493 337 
Q 1209 675 1209 1459 
z
" transform="scale(0.015625)"/>
      <path id="DejaVuSansMono-Bold-66" d="M 2309 3806 
L 2309 3500 
L 3384 3500 
L 3384 2797 
L 2309 2797 
L 2309 0 
L 1394 0 
L 1394 2797 
L 544 2797 
L 544 3500 
L 1394 3500 
L 1394 3744 
Q 1394 4375 1656 4619 
Q 1919 4863 2631 4863 
L 3384 4863 
L 3384 4159 
L 2669 4159 
Q 2463 4159 2389 4084 
Q 2316 4009 2309 3806 
z
" transform="scale(0.015625)"/>
      <path id="DejaVuSansMono-Bold-5f" d="M 3853 -916 
L 3853 -1509 
L 0 -1509 
L 0 -916 
L 3853 -916 
z
" transform="scale(0.015625)"/>
      <path id="DejaVuSansMono-Bold-33" d="M 1716 2088 
L 1222 2088 
L 1222 2900 
L 1716 2900 
Q 2059 2900 2248 3036 
Q 2438 3172 2438 3419 
Q 2438 3678 2248 3823 
Q 2059 3969 1716 3969 
Q 1453 3969 1153 3903 
Q 853 3838 531 3713 
L 531 4550 
Q 853 4647 1165 4698 
Q 1478 4750 1766 4750 
Q 2503 4750 2915 4428 
Q 3328 4106 3328 3541 
Q 3328 3125 3090 2861 
Q 2853 2597 2413 2516 
Q 2913 2428 3175 2117 
Q 3438 1806 3438 1300 
Q 3438 622 3003 265 
Q 2569 -91 1741 -91 
Q 1388 -91 1045 -31 
Q 703 28 391 141 
L 391 997 
Q 684 850 1025 773 
Q 1366 697 1741 697 
Q 2116 697 2334 870 
Q 2553 1044 2553 1338 
Q 2553 1697 2334 1892 
Q 2116 2088 1716 2088 
z
" transform="scale(0.015625)"/>
      <path id="DejaVuSansMono-Bold-64" d="M 2472 3003 
L 2472 4863 
L 3384 4863 
L 3384 0 
L 2472 0 
L 2472 519 
Q 2325 216 2092 62 
Q 1859 -91 1544 -91 
Q 944 -91 612 390 
Q 281 872 281 1747 
Q 281 2634 617 3109 
Q 953 3584 1575 3584 
Q 1856 3584 2079 3439 
Q 2303 3294 2472 3003 
z
M 1197 1741 
Q 1197 1234 1365 946 
Q 1534 659 1831 659 
Q 2128 659 2300 946 
Q 2472 1234 2472 1741 
Q 2472 2247 2300 2534 
Q 2128 2822 1831 2822 
Q 1534 2822 1365 2534 
Q 1197 2247 1197 1741 
z
" transform="scale(0.015625)"/>
      <path id="DejaVuSansMono-Bold-29" d="M 966 4856 
L 1678 4856 
Q 2172 4144 2414 3439 
Q 2656 2734 2656 2009 
Q 2656 1281 2415 579 
Q 2175 -122 1678 -844 
L 966 -844 
Q 1378 -94 1578 611 
Q 1778 1316 1778 2009 
Q 1778 2709 1578 3409 
Q 1378 4109 966 4856 
z
" transform="scale(0.015625)"/>
     </defs>
     <use xlink:href="#DejaVuSansMono-Bold-54"/>
     <use xlink:href="#DejaVuSansMono-Bold-6f" transform="translate(60.205078 0)"/>
     <use xlink:href="#DejaVuSansMono-Bold-70" transform="translate(120.410156 0)"/>
     <use xlink:href="#DejaVuSansMono-Bold-20" transform="translate(180.615234 0)"/>
     <use xlink:href="#DejaVuSansMono-Bold-32" transform="translate(240.820312 0)"/>
     <use xlink:href="#DejaVuSansMono-Bold-30" transform="translate(301.025391 0)"/>
     <use xlink:href="#DejaVuSansMono-Bold-20" transform="translate(361.230469 0)"/>
     <use xlink:href="#DejaVuSansMono-Bold-46" transform="translate(421.435547 0)"/>
     <use xlink:href="#DejaVuSansMono-Bold-65" transform="translate(481.640625 0)"/>
     <use xlink:href="#DejaVuSansMono-Bold-61" transform="translate(541.845703 0)"/>
     <use xlink:href="#DejaVuSansMono-Bold-74" transform="translate(602.050781 0)"/>
     <use xlink:href="#DejaVuSansMono-Bold-75" transform="translate(662.255859 0)"/>
     <use xlink:href="#DejaVuSansMono-Bold-72" transform="translate(722.460938 0)"/>
     <use xlink:href="#DejaVuSansMono-Bold-65" transform="translate(782.666016 0)"/>
     <use xlink:href="#DejaVuSansMono-Bold-20" transform="translate(842.871094 0)"/>
     <use xlink:href="#DejaVuSansMono-Bold-49" transform="translate(903.076172 0)"/>
     <use xlink:href="#DejaVuSansMono-Bold-6d" transform="translate(963.28125 0)"/>
     <use xlink:href="#DejaVuSansMono-Bold-70" transform="translate(1023.486328 0)"/>
     <use xlink:href="#DejaVuSansMono-Bold-6f" transform="translate(1083.691406 0)"/>
     <use xlink:href="#DejaVuSansMono-Bold-72" transform="translate(1143.896484 0)"/>
     <use xlink:href="#DejaVuSansMono-Bold-74" transform="translate(1204.101562 0)"/>
     <use xlink:href="#DejaVuSansMono-Bold-61" transform="translate(1264.306641 0)"/>
     <use xlink:href="#DejaVuSansMono-Bold-6e" transform="translate(1324.511719 0)"/>
     <use xlink:href="#DejaVuSansMono-Bold-63" transform="translate(1384.716797 0)"/>
     <use xlink:href="#DejaVuSansMono-Bold-65" transform="translate(1444.921875 0)"/>
     <use xlink:href="#DejaVuSansMono-Bold-73" transform="translate(1505.126953 0)"/>
     <use xlink:href="#DejaVuSansMono-Bold-20" transform="translate(1565.332031 0)"/>
     <use xlink:href="#DejaVuSansMono-Bold-28" transform="translate(1625.537109 0)"/>
     <use xlink:href="#DejaVuSansMono-Bold-53" transform="translate(1685.742188 0)"/>
     <use xlink:href="#DejaVuSansMono-Bold-74" transform="translate(1745.947266 0)"/>
     <use xlink:href="#DejaVuSansMono-Bold-61" transform="translate(1806.152344 0)"/>
     <use xlink:href="#DejaVuSansMono-Bold-63" transform="translate(1866.357422 0)"/>
     <use xlink:href="#DejaVuSansMono-Bold-6b" transform="translate(1926.5625 0)"/>
     <use xlink:href="#DejaVuSansMono-Bold-69" transform="translate(1986.767578 0)"/>
     <use xlink:href="#DejaVuSansMono-Bold-6e" transform="translate(2046.972656 0)"/>
     <use xlink:href="#DejaVuSansMono-Bold-67" transform="translate(2107.177734 0)"/>
     <use xlink:href="#DejaVuSansMono-Bold-43" transform="translate(2167.382812 0)"/>
     <use xlink:href="#DejaVuSansMono-Bold-6c" transform="translate(2227.587891 0)"/>
     <use xlink:href="#DejaVuSansMono-Bold-61" transform="translate(2287.792969 0)"/>
     <use xlink:href="#DejaVuSansMono-Bold-73" transform="translate(2347.998047 0)"/>
     <use xlink:href="#DejaVuSansMono-Bold-73" transform="translate(2408.203125 0)"/>
     <use xlink:href="#DejaVuSansMono-Bold-69" transform="translate(2468.408203 0)"/>
     <use xlink:href="#DejaVuSansMono-Bold-66" transform="translate(2528.613281 0)"/>
     <use xlink:href="#DejaVuSansMono-Bold-69" transform="translate(2588.818359 0)"/>
     <use xlink:href="#DejaVuSansMono-Bold-65" transform="translate(2649.023438 0)"/>
     <use xlink:href="#DejaVuSansMono-Bold-72" transform="translate(2709.228516 0)"/>
     <use xlink:href="#DejaVuSansMono-Bold-5f" transform="translate(2769.433594 0)"/>
     <use xlink:href="#DejaVuSansMono-Bold-6f" transform="translate(2829.638672 0)"/>
     <use xlink:href="#DejaVuSansMono-Bold-66" transform="translate(2889.84375 0)"/>
     <use xlink:href="#DejaVuSansMono-Bold-5f" transform="translate(2950.048828 0)"/>
     <use xlink:href="#DejaVuSansMono-Bold-74" transform="translate(3010.253906 0)"/>
     <use xlink:href="#DejaVuSansMono-Bold-6f" transform="translate(3070.458984 0)"/>
     <use xlink:href="#DejaVuSansMono-Bold-70" transform="translate(3130.664062 0)"/>
     <use xlink:href="#DejaVuSansMono-Bold-5f" transform="translate(3190.869141 0)"/>
     <use xlink:href="#DejaVuSansMono-Bold-33" transform="translate(3251.074219 0)"/>
     <use xlink:href="#DejaVuSansMono-Bold-5f" transform="translate(3311.279297 0)"/>
     <use xlink:href="#DejaVuSansMono-Bold-6d" transform="translate(3371.484375 0)"/>
     <use xlink:href="#DejaVuSansMono-Bold-6f" transform="translate(3431.689453 0)"/>
     <use xlink:href="#DejaVuSansMono-Bold-64" transform="translate(3491.894531 0)"/>
     <use xlink:href="#DejaVuSansMono-Bold-65" transform="translate(3552.099609 0)"/>
     <use xlink:href="#DejaVuSansMono-Bold-6c" transform="translate(3612.304688 0)"/>
     <use xlink:href="#DejaVuSansMono-Bold-73" transform="translate(3672.509766 0)"/>
     <use xlink:href="#DejaVuSansMono-Bold-29" transform="translate(3732.714844 0)"/>
    </g>
   </g>
  </g>
 </g>
 <defs>
  <clipPath id="pb2d47b657b">
   <rect x="98.66" y="24.8325" width="610.54" height="365.2075"/>
  </clipPath>
 </defs>
</svg>
