<?xml version="1.0" encoding="utf-8" standalone="no"?>
<!DOCTYPE svg PUBLIC "-//W3C//DTD SVG 1.1//EN"
  "http://www.w3.org/Graphics/SVG/1.1/DTD/svg11.dtd">
<svg xmlns:xlink="http://www.w3.org/1999/xlink" width="720pt" height="432pt" viewBox="0 0 720 432" xmlns="http://www.w3.org/2000/svg" version="1.1">
 <metadata>
  <rdf:RDF xmlns:dc="http://purl.org/dc/elements/1.1/" xmlns:cc="http://creativecommons.org/ns#" xmlns:rdf="http://www.w3.org/1999/02/22-rdf-syntax-ns#">
   <cc:Work>
    <dc:type rdf:resource="http://purl.org/dc/dcmitype/StillImage"/>
    <dc:date>2025-10-13T23:38:27.959329</dc:date>
    <dc:format>image/svg+xml</dc:format>
    <dc:creator>
     <cc:Agent>
      <dc:title>Matplotlib v3.10.7, https://matplotlib.org/</dc:title>
     </cc:Agent>
    </dc:creator>
   </cc:Work>
  </rdf:RDF>
 </metadata>
 <defs>
  <style type="text/css">*{stroke-linejoin: round; stroke-linecap: butt}</style>
 </defs>
 <g id="figure_1">
  <g id="patch_1">
   <path d="M 0 432 
L 720 432 
L 720 0 
L 0 0 
z
" style="fill: #ffffff"/>
  </g>
  <g id="axes_1">
   <g id="patch_2">
    <path d="M 130.920972 201.238263 
L 709.2 201.238263 
L 709.2 24.72 
L 130.920972 24.72 
z
" style="fill: #ffffff"/>
   </g>
   <g id="patch_3">
    <path d="M 157.206382 201.238263 
L 267.881794 201.238263 
L 267.881794 65.454984 
L 157.206382 65.454984 
z
" clip-path="url(#pdd291c10b1)" style="fill: #87ceeb; opacity: 0.7; stroke: #000000; stroke-linejoin: miter"/>
   </g>
   <g id="patch_4">
    <path d="M 295.550647 201.238263 
L 406.226059 201.238263 
L 406.226059 69.981093 
L 295.550647 69.981093 
z
" clip-path="url(#pdd291c10b1)" style="fill: #87ceeb; opacity: 0.7; stroke: #000000; stroke-linejoin: miter"/>
   </g>
   <g id="patch_5">
    <path d="M 433.894912 201.238263 
L 544.570324 201.238263 
L 544.570324 65.454984 
L 433.894912 65.454984 
z
" clip-path="url(#pdd291c10b1)" style="fill: #87ceeb; opacity: 0.7; stroke: #000000; stroke-linejoin: miter"/>
   </g>
   <g id="patch_6">
    <path d="M 572.239177 201.238263 
L 682.91459 201.238263 
L 682.91459 60.928874 
L 572.239177 60.928874 
z
" clip-path="url(#pdd291c10b1)" style="fill: #87ceeb; opacity: 0.7; stroke: #000000; stroke-linejoin: miter"/>
   </g>
   <g id="matplotlib.axis_1">
    <g id="xtick_1">
     <g id="line2d_1">
      <defs>
       <path id="m4cb63a9eb8" d="M 0 0 
L 0 3.5 
" style="stroke: #000000; stroke-width: 0.8"/>
      </defs>
      <g>
       <use xlink:href="#m4cb63a9eb8" x="212.544088" y="201.238263" style="stroke: #000000; stroke-width: 0.8"/>
      </g>
     </g>
     <g id="text_1">
      <!-- TF_IDFVectorizer + LogisticRegression (GridSearchCV) -->
      <g transform="translate(19.224409 405.263624) rotate(-45) scale(0.1 -0.1)">
       <defs>
        <path id="DejaVuSans-54" d="M -19 4666 
L 3928 4666 
L 3928 4134 
L 2272 4134 
L 2272 0 
L 1638 0 
L 1638 4134 
L -19 4134 
L -19 4666 
z
" transform="scale(0.015625)"/>
        <path id="DejaVuSans-46" d="M 628 4666 
L 3309 4666 
L 3309 4134 
L 1259 4134 
L 1259 2759 
L 3109 2759 
L 3109 2228 
L 1259 2228 
L 1259 0 
L 628 0 
L 628 4666 
z
" transform="scale(0.015625)"/>
        <path id="DejaVuSans-5f" d="M 3263 -1063 
L 3263 -1509 
L -63 -1509 
L -63 -1063 
L 3263 -1063 
z
" transform="scale(0.015625)"/>
        <path id="DejaVuSans-49" d="M 628 4666 
L 1259 4666 
L 1259 0 
L 628 0 
L 628 4666 
z
" transform="scale(0.015625)"/>
        <path id="DejaVuSans-44" d="M 1259 4147 
L 1259 519 
L 2022 519 
Q 2988 519 3436 956 
Q 3884 1394 3884 2338 
Q 3884 3275 3436 3711 
Q 2988 4147 2022 4147 
L 1259 4147 
z
M 628 4666 
L 1925 4666 
Q 3281 4666 3915 4102 
Q 4550 3538 4550 2338 
Q 4550 1131 3912 565 
Q 3275 0 1925 0 
L 628 0 
L 628 4666 
z
" transform="scale(0.015625)"/>
        <path id="DejaVuSans-56" d="M 1831 0 
L 50 4666 
L 709 4666 
L 2188 738 
L 3669 4666 
L 4325 4666 
L 2547 0 
L 1831 0 
z
" transform="scale(0.015625)"/>
        <path id="DejaVuSans-65" d="M 3597 1894 
L 3597 1613 
L 953 1613 
Q 991 1019 1311 708 
Q 1631 397 2203 397 
Q 2534 397 2845 478 
Q 3156 559 3463 722 
L 3463 178 
Q 3153 47 2828 -22 
Q 2503 -91 2169 -91 
Q 1331 -91 842 396 
Q 353 884 353 1716 
Q 353 2575 817 3079 
Q 1281 3584 2069 3584 
Q 2775 3584 3186 3129 
Q 3597 2675 3597 1894 
z
M 3022 2063 
Q 3016 2534 2758 2815 
Q 2500 3097 2075 3097 
Q 1594 3097 1305 2825 
Q 1016 2553 972 2059 
L 3022 2063 
z
" transform="scale(0.015625)"/>
        <path id="DejaVuSans-63" d="M 3122 3366 
L 3122 2828 
Q 2878 2963 2633 3030 
Q 2388 3097 2138 3097 
Q 1578 3097 1268 2742 
Q 959 2388 959 1747 
Q 959 1106 1268 751 
Q 1578 397 2138 397 
Q 2388 397 2633 464 
Q 2878 531 3122 666 
L 3122 134 
Q 2881 22 2623 -34 
Q 2366 -91 2075 -91 
Q 1284 -91 818 406 
Q 353 903 353 1747 
Q 353 2603 823 3093 
Q 1294 3584 2113 3584 
Q 2378 3584 2631 3529 
Q 2884 3475 3122 3366 
z
" transform="scale(0.015625)"/>
        <path id="DejaVuSans-74" d="M 1172 4494 
L 1172 3500 
L 2356 3500 
L 2356 3053 
L 1172 3053 
L 1172 1153 
Q 1172 725 1289 603 
Q 1406 481 1766 481 
L 2356 481 
L 2356 0 
L 1766 0 
Q 1100 0 847 248 
Q 594 497 594 1153 
L 594 3053 
L 172 3053 
L 172 3500 
L 594 3500 
L 594 4494 
L 1172 4494 
z
" transform="scale(0.015625)"/>
        <path id="DejaVuSans-6f" d="M 1959 3097 
Q 1497 3097 1228 2736 
Q 959 2375 959 1747 
Q 959 1119 1226 758 
Q 1494 397 1959 397 
Q 2419 397 2687 759 
Q 2956 1122 2956 1747 
Q 2956 2369 2687 2733 
Q 2419 3097 1959 3097 
z
M 1959 3584 
Q 2709 3584 3137 3096 
Q 3566 2609 3566 1747 
Q 3566 888 3137 398 
Q 2709 -91 1959 -91 
Q 1206 -91 779 398 
Q 353 888 353 1747 
Q 353 2609 779 3096 
Q 1206 3584 1959 3584 
z
" transform="scale(0.015625)"/>
        <path id="DejaVuSans-72" d="M 2631 2963 
Q 2534 3019 2420 3045 
Q 2306 3072 2169 3072 
Q 1681 3072 1420 2755 
Q 1159 2438 1159 1844 
L 1159 0 
L 581 0 
L 581 3500 
L 1159 3500 
L 1159 2956 
Q 1341 3275 1631 3429 
Q 1922 3584 2338 3584 
Q 2397 3584 2469 3576 
Q 2541 3569 2628 3553 
L 2631 2963 
z
" transform="scale(0.015625)"/>
        <path id="DejaVuSans-69" d="M 603 3500 
L 1178 3500 
L 1178 0 
L 603 0 
L 603 3500 
z
M 603 4863 
L 1178 4863 
L 1178 4134 
L 603 4134 
L 603 4863 
z
" transform="scale(0.015625)"/>
        <path id="DejaVuSans-7a" d="M 353 3500 
L 3084 3500 
L 3084 2975 
L 922 459 
L 3084 459 
L 3084 0 
L 275 0 
L 275 525 
L 2438 3041 
L 353 3041 
L 353 3500 
z
" transform="scale(0.015625)"/>
        <path id="DejaVuSans-20" transform="scale(0.015625)"/>
        <path id="DejaVuSans-2b" d="M 2944 4013 
L 2944 2272 
L 4684 2272 
L 4684 1741 
L 2944 1741 
L 2944 0 
L 2419 0 
L 2419 1741 
L 678 1741 
L 678 2272 
L 2419 2272 
L 2419 4013 
L 2944 4013 
z
" transform="scale(0.015625)"/>
        <path id="DejaVuSans-4c" d="M 628 4666 
L 1259 4666 
L 1259 531 
L 3531 531 
L 3531 0 
L 628 0 
L 628 4666 
z
" transform="scale(0.015625)"/>
        <path id="DejaVuSans-67" d="M 2906 1791 
Q 2906 2416 2648 2759 
Q 2391 3103 1925 3103 
Q 1463 3103 1205 2759 
Q 947 2416 947 1791 
Q 947 1169 1205 825 
Q 1463 481 1925 481 
Q 2391 481 2648 825 
Q 2906 1169 2906 1791 
z
M 3481 434 
Q 3481 -459 3084 -895 
Q 2688 -1331 1869 -1331 
Q 1566 -1331 1297 -1286 
Q 1028 -1241 775 -1147 
L 775 -588 
Q 1028 -725 1275 -790 
Q 1522 -856 1778 -856 
Q 2344 -856 2625 -561 
Q 2906 -266 2906 331 
L 2906 616 
Q 2728 306 2450 153 
Q 2172 0 1784 0 
Q 1141 0 747 490 
Q 353 981 353 1791 
Q 353 2603 747 3093 
Q 1141 3584 1784 3584 
Q 2172 3584 2450 3431 
Q 2728 3278 2906 2969 
L 2906 3500 
L 3481 3500 
L 3481 434 
z
" transform="scale(0.015625)"/>
        <path id="DejaVuSans-73" d="M 2834 3397 
L 2834 2853 
Q 2591 2978 2328 3040 
Q 2066 3103 1784 3103 
Q 1356 3103 1142 2972 
Q 928 2841 928 2578 
Q 928 2378 1081 2264 
Q 1234 2150 1697 2047 
L 1894 2003 
Q 2506 1872 2764 1633 
Q 3022 1394 3022 966 
Q 3022 478 2636 193 
Q 2250 -91 1575 -91 
Q 1294 -91 989 -36 
Q 684 19 347 128 
L 347 722 
Q 666 556 975 473 
Q 1284 391 1588 391 
Q 1994 391 2212 530 
Q 2431 669 2431 922 
Q 2431 1156 2273 1281 
Q 2116 1406 1581 1522 
L 1381 1569 
Q 847 1681 609 1914 
Q 372 2147 372 2553 
Q 372 3047 722 3315 
Q 1072 3584 1716 3584 
Q 2034 3584 2315 3537 
Q 2597 3491 2834 3397 
z
" transform="scale(0.015625)"/>
        <path id="DejaVuSans-52" d="M 2841 2188 
Q 3044 2119 3236 1894 
Q 3428 1669 3622 1275 
L 4263 0 
L 3584 0 
L 2988 1197 
Q 2756 1666 2539 1819 
Q 2322 1972 1947 1972 
L 1259 1972 
L 1259 0 
L 628 0 
L 628 4666 
L 2053 4666 
Q 2853 4666 3247 4331 
Q 3641 3997 3641 3322 
Q 3641 2881 3436 2590 
Q 3231 2300 2841 2188 
z
M 1259 4147 
L 1259 2491 
L 2053 2491 
Q 2509 2491 2742 2702 
Q 2975 2913 2975 3322 
Q 2975 3731 2742 3939 
Q 2509 4147 2053 4147 
L 1259 4147 
z
" transform="scale(0.015625)"/>
        <path id="DejaVuSans-6e" d="M 3513 2113 
L 3513 0 
L 2938 0 
L 2938 2094 
Q 2938 2591 2744 2837 
Q 2550 3084 2163 3084 
Q 1697 3084 1428 2787 
Q 1159 2491 1159 1978 
L 1159 0 
L 581 0 
L 581 3500 
L 1159 3500 
L 1159 2956 
Q 1366 3272 1645 3428 
Q 1925 3584 2291 3584 
Q 2894 3584 3203 3211 
Q 3513 2838 3513 2113 
z
" transform="scale(0.015625)"/>
        <path id="DejaVuSans-28" d="M 1984 4856 
Q 1566 4138 1362 3434 
Q 1159 2731 1159 2009 
Q 1159 1288 1364 580 
Q 1569 -128 1984 -844 
L 1484 -844 
Q 1016 -109 783 600 
Q 550 1309 550 2009 
Q 550 2706 781 3412 
Q 1013 4119 1484 4856 
L 1984 4856 
z
" transform="scale(0.015625)"/>
        <path id="DejaVuSans-47" d="M 3809 666 
L 3809 1919 
L 2778 1919 
L 2778 2438 
L 4434 2438 
L 4434 434 
Q 4069 175 3628 42 
Q 3188 -91 2688 -91 
Q 1594 -91 976 548 
Q 359 1188 359 2328 
Q 359 3472 976 4111 
Q 1594 4750 2688 4750 
Q 3144 4750 3555 4637 
Q 3966 4525 4313 4306 
L 4313 3634 
Q 3963 3931 3569 4081 
Q 3175 4231 2741 4231 
Q 1884 4231 1454 3753 
Q 1025 3275 1025 2328 
Q 1025 1384 1454 906 
Q 1884 428 2741 428 
Q 3075 428 3337 486 
Q 3600 544 3809 666 
z
" transform="scale(0.015625)"/>
        <path id="DejaVuSans-64" d="M 2906 2969 
L 2906 4863 
L 3481 4863 
L 3481 0 
L 2906 0 
L 2906 525 
Q 2725 213 2448 61 
Q 2172 -91 1784 -91 
Q 1150 -91 751 415 
Q 353 922 353 1747 
Q 353 2572 751 3078 
Q 1150 3584 1784 3584 
Q 2172 3584 2448 3432 
Q 2725 3281 2906 2969 
z
M 947 1747 
Q 947 1113 1208 752 
Q 1469 391 1925 391 
Q 2381 391 2643 752 
Q 2906 1113 2906 1747 
Q 2906 2381 2643 2742 
Q 2381 3103 1925 3103 
Q 1469 3103 1208 2742 
Q 947 2381 947 1747 
z
" transform="scale(0.015625)"/>
        <path id="DejaVuSans-53" d="M 3425 4513 
L 3425 3897 
Q 3066 4069 2747 4153 
Q 2428 4238 2131 4238 
Q 1616 4238 1336 4038 
Q 1056 3838 1056 3469 
Q 1056 3159 1242 3001 
Q 1428 2844 1947 2747 
L 2328 2669 
Q 3034 2534 3370 2195 
Q 3706 1856 3706 1288 
Q 3706 609 3251 259 
Q 2797 -91 1919 -91 
Q 1588 -91 1214 -16 
Q 841 59 441 206 
L 441 856 
Q 825 641 1194 531 
Q 1563 422 1919 422 
Q 2459 422 2753 634 
Q 3047 847 3047 1241 
Q 3047 1584 2836 1778 
Q 2625 1972 2144 2069 
L 1759 2144 
Q 1053 2284 737 2584 
Q 422 2884 422 3419 
Q 422 4038 858 4394 
Q 1294 4750 2059 4750 
Q 2388 4750 2728 4690 
Q 3069 4631 3425 4513 
z
" transform="scale(0.015625)"/>
        <path id="DejaVuSans-61" d="M 2194 1759 
Q 1497 1759 1228 1600 
Q 959 1441 959 1056 
Q 959 750 1161 570 
Q 1363 391 1709 391 
Q 2188 391 2477 730 
Q 2766 1069 2766 1631 
L 2766 1759 
L 2194 1759 
z
M 3341 1997 
L 3341 0 
L 2766 0 
L 2766 531 
Q 2569 213 2275 61 
Q 1981 -91 1556 -91 
Q 1019 -91 701 211 
Q 384 513 384 1019 
Q 384 1609 779 1909 
Q 1175 2209 1959 2209 
L 2766 2209 
L 2766 2266 
Q 2766 2663 2505 2880 
Q 2244 3097 1772 3097 
Q 1472 3097 1187 3025 
Q 903 2953 641 2809 
L 641 3341 
Q 956 3463 1253 3523 
Q 1550 3584 1831 3584 
Q 2591 3584 2966 3190 
Q 3341 2797 3341 1997 
z
" transform="scale(0.015625)"/>
        <path id="DejaVuSans-68" d="M 3513 2113 
L 3513 0 
L 2938 0 
L 2938 2094 
Q 2938 2591 2744 2837 
Q 2550 3084 2163 3084 
Q 1697 3084 1428 2787 
Q 1159 2491 1159 1978 
L 1159 0 
L 581 0 
L 581 4863 
L 1159 4863 
L 1159 2956 
Q 1366 3272 1645 3428 
Q 1925 3584 2291 3584 
Q 2894 3584 3203 3211 
Q 3513 2838 3513 2113 
z
" transform="scale(0.015625)"/>
        <path id="DejaVuSans-43" d="M 4122 4306 
L 4122 3641 
Q 3803 3938 3442 4084 
Q 3081 4231 2675 4231 
Q 1875 4231 1450 3742 
Q 1025 3253 1025 2328 
Q 1025 1406 1450 917 
Q 1875 428 2675 428 
Q 3081 428 3442 575 
Q 3803 722 4122 1019 
L 4122 359 
Q 3791 134 3420 21 
Q 3050 -91 2638 -91 
Q 1578 -91 968 557 
Q 359 1206 359 2328 
Q 359 3453 968 4101 
Q 1578 4750 2638 4750 
Q 3056 4750 3426 4639 
Q 3797 4528 4122 4306 
z
" transform="scale(0.015625)"/>
        <path id="DejaVuSans-29" d="M 513 4856 
L 1013 4856 
Q 1481 4119 1714 3412 
Q 1947 2706 1947 2009 
Q 1947 1309 1714 600 
Q 1481 -109 1013 -844 
L 513 -844 
Q 928 -128 1133 580 
Q 1338 1288 1338 2009 
Q 1338 2731 1133 3434 
Q 928 4138 513 4856 
z
" transform="scale(0.015625)"/>
       </defs>
       <use xlink:href="#DejaVuSans-54"/>
       <use xlink:href="#DejaVuSans-46" transform="translate(61.083984 0)"/>
       <use xlink:href="#DejaVuSans-5f" transform="translate(118.603516 0)"/>
       <use xlink:href="#DejaVuSans-49" transform="translate(168.603516 0)"/>
       <use xlink:href="#DejaVuSans-44" transform="translate(198.095703 0)"/>
       <use xlink:href="#DejaVuSans-46" transform="translate(275.097656 0)"/>
       <use xlink:href="#DejaVuSans-56" transform="translate(332.617188 0)"/>
       <use xlink:href="#DejaVuSans-65" transform="translate(393.275391 0)"/>
       <use xlink:href="#DejaVuSans-63" transform="translate(454.798828 0)"/>
       <use xlink:href="#DejaVuSans-74" transform="translate(509.779297 0)"/>
       <use xlink:href="#DejaVuSans-6f" transform="translate(548.988281 0)"/>
       <use xlink:href="#DejaVuSans-72" transform="translate(610.169922 0)"/>
       <use xlink:href="#DejaVuSans-69" transform="translate(651.283203 0)"/>
       <use xlink:href="#DejaVuSans-7a" transform="translate(679.066406 0)"/>
       <use xlink:href="#DejaVuSans-65" transform="translate(731.556641 0)"/>
       <use xlink:href="#DejaVuSans-72" transform="translate(793.080078 0)"/>
       <use xlink:href="#DejaVuSans-20" transform="translate(834.193359 0)"/>
       <use xlink:href="#DejaVuSans-2b" transform="translate(865.980469 0)"/>
       <use xlink:href="#DejaVuSans-20" transform="translate(949.769531 0)"/>
       <use xlink:href="#DejaVuSans-4c" transform="translate(981.556641 0)"/>
       <use xlink:href="#DejaVuSans-6f" transform="translate(1035.519531 0)"/>
       <use xlink:href="#DejaVuSans-67" transform="translate(1096.701172 0)"/>
       <use xlink:href="#DejaVuSans-69" transform="translate(1160.177734 0)"/>
       <use xlink:href="#DejaVuSans-73" transform="translate(1187.960938 0)"/>
       <use xlink:href="#DejaVuSans-74" transform="translate(1240.060547 0)"/>
       <use xlink:href="#DejaVuSans-69" transform="translate(1279.269531 0)"/>
       <use xlink:href="#DejaVuSans-63" transform="translate(1307.052734 0)"/>
       <use xlink:href="#DejaVuSans-52" transform="translate(1362.033203 0)"/>
       <use xlink:href="#DejaVuSans-65" transform="translate(1427.015625 0)"/>
       <use xlink:href="#DejaVuSans-67" transform="translate(1488.539062 0)"/>
       <use xlink:href="#DejaVuSans-72" transform="translate(1552.015625 0)"/>
       <use xlink:href="#DejaVuSans-65" transform="translate(1590.878906 0)"/>
       <use xlink:href="#DejaVuSans-73" transform="translate(1652.402344 0)"/>
       <use xlink:href="#DejaVuSans-73" transform="translate(1704.501953 0)"/>
       <use xlink:href="#DejaVuSans-69" transform="translate(1756.601562 0)"/>
       <use xlink:href="#DejaVuSans-6f" transform="translate(1784.384766 0)"/>
       <use xlink:href="#DejaVuSans-6e" transform="translate(1845.566406 0)"/>
       <use xlink:href="#DejaVuSans-20" transform="translate(1908.945312 0)"/>
       <use xlink:href="#DejaVuSans-28" transform="translate(1940.732422 0)"/>
       <use xlink:href="#DejaVuSans-47" transform="translate(1979.746094 0)"/>
       <use xlink:href="#DejaVuSans-72" transform="translate(2057.236328 0)"/>
       <use xlink:href="#DejaVuSans-69" transform="translate(2098.349609 0)"/>
       <use xlink:href="#DejaVuSans-64" transform="translate(2126.132812 0)"/>
       <use xlink:href="#DejaVuSans-53" transform="translate(2189.609375 0)"/>
       <use xlink:href="#DejaVuSans-65" transform="translate(2253.085938 0)"/>
       <use xlink:href="#DejaVuSans-61" transform="translate(2314.609375 0)"/>
       <use xlink:href="#DejaVuSans-72" transform="translate(2375.888672 0)"/>
       <use xlink:href="#DejaVuSans-63" transform="translate(2414.751953 0)"/>
       <use xlink:href="#DejaVuSans-68" transform="translate(2469.732422 0)"/>
       <use xlink:href="#DejaVuSans-43" transform="translate(2533.111328 0)"/>
       <use xlink:href="#DejaVuSans-56" transform="translate(2602.935547 0)"/>
       <use xlink:href="#DejaVuSans-29" transform="translate(2671.34375 0)"/>
      </g>
     </g>
    </g>
    <g id="xtick_2">
     <g id="line2d_2">
      <g>
       <use xlink:href="#m4cb63a9eb8" x="350.888353" y="201.238263" style="stroke: #000000; stroke-width: 0.8"/>
      </g>
     </g>
     <g id="text_2">
      <!-- CountVectorizer + MultinomialNB (GridSearchCV) -->
      <g transform="translate(174.480679 388.548282) rotate(-45) scale(0.1 -0.1)">
       <defs>
        <path id="DejaVuSans-75" d="M 544 1381 
L 544 3500 
L 1119 3500 
L 1119 1403 
Q 1119 906 1312 657 
Q 1506 409 1894 409 
Q 2359 409 2629 706 
Q 2900 1003 2900 1516 
L 2900 3500 
L 3475 3500 
L 3475 0 
L 2900 0 
L 2900 538 
Q 2691 219 2414 64 
Q 2138 -91 1772 -91 
Q 1169 -91 856 284 
Q 544 659 544 1381 
z
M 1991 3584 
L 1991 3584 
z
" transform="scale(0.015625)"/>
        <path id="DejaVuSans-4d" d="M 628 4666 
L 1569 4666 
L 2759 1491 
L 3956 4666 
L 4897 4666 
L 4897 0 
L 4281 0 
L 4281 4097 
L 3078 897 
L 2444 897 
L 1241 4097 
L 1241 0 
L 628 0 
L 628 4666 
z
" transform="scale(0.015625)"/>
        <path id="DejaVuSans-6c" d="M 603 4863 
L 1178 4863 
L 1178 0 
L 603 0 
L 603 4863 
z
" transform="scale(0.015625)"/>
        <path id="DejaVuSans-6d" d="M 3328 2828 
Q 3544 3216 3844 3400 
Q 4144 3584 4550 3584 
Q 5097 3584 5394 3201 
Q 5691 2819 5691 2113 
L 5691 0 
L 5113 0 
L 5113 2094 
Q 5113 2597 4934 2840 
Q 4756 3084 4391 3084 
Q 3944 3084 3684 2787 
Q 3425 2491 3425 1978 
L 3425 0 
L 2847 0 
L 2847 2094 
Q 2847 2600 2669 2842 
Q 2491 3084 2119 3084 
Q 1678 3084 1418 2786 
Q 1159 2488 1159 1978 
L 1159 0 
L 581 0 
L 581 3500 
L 1159 3500 
L 1159 2956 
Q 1356 3278 1631 3431 
Q 1906 3584 2284 3584 
Q 2666 3584 2933 3390 
Q 3200 3197 3328 2828 
z
" transform="scale(0.015625)"/>
        <path id="DejaVuSans-4e" d="M 628 4666 
L 1478 4666 
L 3547 763 
L 3547 4666 
L 4159 4666 
L 4159 0 
L 3309 0 
L 1241 3903 
L 1241 0 
L 628 0 
L 628 4666 
z
" transform="scale(0.015625)"/>
        <path id="DejaVuSans-42" d="M 1259 2228 
L 1259 519 
L 2272 519 
Q 2781 519 3026 730 
Q 3272 941 3272 1375 
Q 3272 1813 3026 2020 
Q 2781 2228 2272 2228 
L 1259 2228 
z
M 1259 4147 
L 1259 2741 
L 2194 2741 
Q 2656 2741 2882 2914 
Q 3109 3088 3109 3444 
Q 3109 3797 2882 3972 
Q 2656 4147 2194 4147 
L 1259 4147 
z
M 628 4666 
L 2241 4666 
Q 2963 4666 3353 4366 
Q 3744 4066 3744 3513 
Q 3744 3084 3544 2831 
Q 3344 2578 2956 2516 
Q 3422 2416 3680 2098 
Q 3938 1781 3938 1306 
Q 3938 681 3513 340 
Q 3088 0 2303 0 
L 628 0 
L 628 4666 
z
" transform="scale(0.015625)"/>
       </defs>
       <use xlink:href="#DejaVuSans-43"/>
       <use xlink:href="#DejaVuSans-6f" transform="translate(69.824219 0)"/>
       <use xlink:href="#DejaVuSans-75" transform="translate(131.005859 0)"/>
       <use xlink:href="#DejaVuSans-6e" transform="translate(194.384766 0)"/>
       <use xlink:href="#DejaVuSans-74" transform="translate(257.763672 0)"/>
       <use xlink:href="#DejaVuSans-56" transform="translate(296.972656 0)"/>
       <use xlink:href="#DejaVuSans-65" transform="translate(357.630859 0)"/>
       <use xlink:href="#DejaVuSans-63" transform="translate(419.154297 0)"/>
       <use xlink:href="#DejaVuSans-74" transform="translate(474.134766 0)"/>
       <use xlink:href="#DejaVuSans-6f" transform="translate(513.34375 0)"/>
       <use xlink:href="#DejaVuSans-72" transform="translate(574.525391 0)"/>
       <use xlink:href="#DejaVuSans-69" transform="translate(615.638672 0)"/>
       <use xlink:href="#DejaVuSans-7a" transform="translate(643.421875 0)"/>
       <use xlink:href="#DejaVuSans-65" transform="translate(695.912109 0)"/>
       <use xlink:href="#DejaVuSans-72" transform="translate(757.435547 0)"/>
       <use xlink:href="#DejaVuSans-20" transform="translate(798.548828 0)"/>
       <use xlink:href="#DejaVuSans-2b" transform="translate(830.335938 0)"/>
       <use xlink:href="#DejaVuSans-20" transform="translate(914.125 0)"/>
       <use xlink:href="#DejaVuSans-4d" transform="translate(945.912109 0)"/>
       <use xlink:href="#DejaVuSans-75" transform="translate(1032.191406 0)"/>
       <use xlink:href="#DejaVuSans-6c" transform="translate(1095.570312 0)"/>
       <use xlink:href="#DejaVuSans-74" transform="translate(1123.353516 0)"/>
       <use xlink:href="#DejaVuSans-69" transform="translate(1162.5625 0)"/>
       <use xlink:href="#DejaVuSans-6e" transform="translate(1190.345703 0)"/>
       <use xlink:href="#DejaVuSans-6f" transform="translate(1253.724609 0)"/>
       <use xlink:href="#DejaVuSans-6d" transform="translate(1314.90625 0)"/>
       <use xlink:href="#DejaVuSans-69" transform="translate(1412.318359 0)"/>
       <use xlink:href="#DejaVuSans-61" transform="translate(1440.101562 0)"/>
       <use xlink:href="#DejaVuSans-6c" transform="translate(1501.380859 0)"/>
       <use xlink:href="#DejaVuSans-4e" transform="translate(1529.164062 0)"/>
       <use xlink:href="#DejaVuSans-42" transform="translate(1603.96875 0)"/>
       <use xlink:href="#DejaVuSans-20" transform="translate(1672.572266 0)"/>
       <use xlink:href="#DejaVuSans-28" transform="translate(1704.359375 0)"/>
       <use xlink:href="#DejaVuSans-47" transform="translate(1743.373047 0)"/>
       <use xlink:href="#DejaVuSans-72" transform="translate(1820.863281 0)"/>
       <use xlink:href="#DejaVuSans-69" transform="translate(1861.976562 0)"/>
       <use xlink:href="#DejaVuSans-64" transform="translate(1889.759766 0)"/>
       <use xlink:href="#DejaVuSans-53" transform="translate(1953.236328 0)"/>
       <use xlink:href="#DejaVuSans-65" transform="translate(2016.712891 0)"/>
       <use xlink:href="#DejaVuSans-61" transform="translate(2078.236328 0)"/>
       <use xlink:href="#DejaVuSans-72" transform="translate(2139.515625 0)"/>
       <use xlink:href="#DejaVuSans-63" transform="translate(2178.378906 0)"/>
       <use xlink:href="#DejaVuSans-68" transform="translate(2233.359375 0)"/>
       <use xlink:href="#DejaVuSans-43" transform="translate(2296.738281 0)"/>
       <use xlink:href="#DejaVuSans-56" transform="translate(2366.5625 0)"/>
       <use xlink:href="#DejaVuSans-29" transform="translate(2434.970703 0)"/>
      </g>
     </g>
    </g>
    <g id="xtick_3">
     <g id="line2d_3">
      <g>
       <use xlink:href="#m4cb63a9eb8" x="489.232618" y="201.238263" style="stroke: #000000; stroke-width: 0.8"/>
      </g>
     </g>
     <g id="text_3">
      <!-- TF_IDFVectorizer + MultinomialNB (GridSearchCV) -->
      <g transform="translate(310.108108 391.068455) rotate(-45) scale(0.1 -0.1)">
       <use xlink:href="#DejaVuSans-54"/>
       <use xlink:href="#DejaVuSans-46" transform="translate(61.083984 0)"/>
       <use xlink:href="#DejaVuSans-5f" transform="translate(118.603516 0)"/>
       <use xlink:href="#DejaVuSans-49" transform="translate(168.603516 0)"/>
       <use xlink:href="#DejaVuSans-44" transform="translate(198.095703 0)"/>
       <use xlink:href="#DejaVuSans-46" transform="translate(275.097656 0)"/>
       <use xlink:href="#DejaVuSans-56" transform="translate(332.617188 0)"/>
       <use xlink:href="#DejaVuSans-65" transform="translate(393.275391 0)"/>
       <use xlink:href="#DejaVuSans-63" transform="translate(454.798828 0)"/>
       <use xlink:href="#DejaVuSans-74" transform="translate(509.779297 0)"/>
       <use xlink:href="#DejaVuSans-6f" transform="translate(548.988281 0)"/>
       <use xlink:href="#DejaVuSans-72" transform="translate(610.169922 0)"/>
       <use xlink:href="#DejaVuSans-69" transform="translate(651.283203 0)"/>
       <use xlink:href="#DejaVuSans-7a" transform="translate(679.066406 0)"/>
       <use xlink:href="#DejaVuSans-65" transform="translate(731.556641 0)"/>
       <use xlink:href="#DejaVuSans-72" transform="translate(793.080078 0)"/>
       <use xlink:href="#DejaVuSans-20" transform="translate(834.193359 0)"/>
       <use xlink:href="#DejaVuSans-2b" transform="translate(865.980469 0)"/>
       <use xlink:href="#DejaVuSans-20" transform="translate(949.769531 0)"/>
       <use xlink:href="#DejaVuSans-4d" transform="translate(981.556641 0)"/>
       <use xlink:href="#DejaVuSans-75" transform="translate(1067.835938 0)"/>
       <use xlink:href="#DejaVuSans-6c" transform="translate(1131.214844 0)"/>
       <use xlink:href="#DejaVuSans-74" transform="translate(1158.998047 0)"/>
       <use xlink:href="#DejaVuSans-69" transform="translate(1198.207031 0)"/>
       <use xlink:href="#DejaVuSans-6e" transform="translate(1225.990234 0)"/>
       <use xlink:href="#DejaVuSans-6f" transform="translate(1289.369141 0)"/>
       <use xlink:href="#DejaVuSans-6d" transform="translate(1350.550781 0)"/>
       <use xlink:href="#DejaVuSans-69" transform="translate(1447.962891 0)"/>
       <use xlink:href="#DejaVuSans-61" transform="translate(1475.746094 0)"/>
       <use xlink:href="#DejaVuSans-6c" transform="translate(1537.025391 0)"/>
       <use xlink:href="#DejaVuSans-4e" transform="translate(1564.808594 0)"/>
       <use xlink:href="#DejaVuSans-42" transform="translate(1639.613281 0)"/>
       <use xlink:href="#DejaVuSans-20" transform="translate(1708.216797 0)"/>
       <use xlink:href="#DejaVuSans-28" transform="translate(1740.003906 0)"/>
       <use xlink:href="#DejaVuSans-47" transform="translate(1779.017578 0)"/>
       <use xlink:href="#DejaVuSans-72" transform="translate(1856.507812 0)"/>
       <use xlink:href="#DejaVuSans-69" transform="translate(1897.621094 0)"/>
       <use xlink:href="#DejaVuSans-64" transform="translate(1925.404297 0)"/>
       <use xlink:href="#DejaVuSans-53" transform="translate(1988.880859 0)"/>
       <use xlink:href="#DejaVuSans-65" transform="translate(2052.357422 0)"/>
       <use xlink:href="#DejaVuSans-61" transform="translate(2113.880859 0)"/>
       <use xlink:href="#DejaVuSans-72" transform="translate(2175.160156 0)"/>
       <use xlink:href="#DejaVuSans-63" transform="translate(2214.023438 0)"/>
       <use xlink:href="#DejaVuSans-68" transform="translate(2269.003906 0)"/>
       <use xlink:href="#DejaVuSans-43" transform="translate(2332.382812 0)"/>
       <use xlink:href="#DejaVuSans-56" transform="translate(2402.207031 0)"/>
       <use xlink:href="#DejaVuSans-29" transform="translate(2470.615234 0)"/>
      </g>
     </g>
    </g>
    <g id="xtick_4">
     <g id="line2d_4">
      <g>
       <use xlink:href="#m4cb63a9eb8" x="627.576884" y="201.238263" style="stroke: #000000; stroke-width: 0.8"/>
      </g>
     </g>
     <g id="text_4">
      <!-- TF_IDFVectorizer + LinearSVC (GridSearchCV) -->
      <g transform="translate(463.594402 375.926426) rotate(-45) scale(0.1 -0.1)">
       <use xlink:href="#DejaVuSans-54"/>
       <use xlink:href="#DejaVuSans-46" transform="translate(61.083984 0)"/>
       <use xlink:href="#DejaVuSans-5f" transform="translate(118.603516 0)"/>
       <use xlink:href="#DejaVuSans-49" transform="translate(168.603516 0)"/>
       <use xlink:href="#DejaVuSans-44" transform="translate(198.095703 0)"/>
       <use xlink:href="#DejaVuSans-46" transform="translate(275.097656 0)"/>
       <use xlink:href="#DejaVuSans-56" transform="translate(332.617188 0)"/>
       <use xlink:href="#DejaVuSans-65" transform="translate(393.275391 0)"/>
       <use xlink:href="#DejaVuSans-63" transform="translate(454.798828 0)"/>
       <use xlink:href="#DejaVuSans-74" transform="translate(509.779297 0)"/>
       <use xlink:href="#DejaVuSans-6f" transform="translate(548.988281 0)"/>
       <use xlink:href="#DejaVuSans-72" transform="translate(610.169922 0)"/>
       <use xlink:href="#DejaVuSans-69" transform="translate(651.283203 0)"/>
       <use xlink:href="#DejaVuSans-7a" transform="translate(679.066406 0)"/>
       <use xlink:href="#DejaVuSans-65" transform="translate(731.556641 0)"/>
       <use xlink:href="#DejaVuSans-72" transform="translate(793.080078 0)"/>
       <use xlink:href="#DejaVuSans-20" transform="translate(834.193359 0)"/>
       <use xlink:href="#DejaVuSans-2b" transform="translate(865.980469 0)"/>
       <use xlink:href="#DejaVuSans-20" transform="translate(949.769531 0)"/>
       <use xlink:href="#DejaVuSans-4c" transform="translate(981.556641 0)"/>
       <use xlink:href="#DejaVuSans-69" transform="translate(1037.269531 0)"/>
       <use xlink:href="#DejaVuSans-6e" transform="translate(1065.052734 0)"/>
       <use xlink:href="#DejaVuSans-65" transform="translate(1128.431641 0)"/>
       <use xlink:href="#DejaVuSans-61" transform="translate(1189.955078 0)"/>
       <use xlink:href="#DejaVuSans-72" transform="translate(1251.234375 0)"/>
       <use xlink:href="#DejaVuSans-53" transform="translate(1292.347656 0)"/>
       <use xlink:href="#DejaVuSans-56" transform="translate(1355.824219 0)"/>
       <use xlink:href="#DejaVuSans-43" transform="translate(1424.232422 0)"/>
       <use xlink:href="#DejaVuSans-20" transform="translate(1494.056641 0)"/>
       <use xlink:href="#DejaVuSans-28" transform="translate(1525.84375 0)"/>
       <use xlink:href="#DejaVuSans-47" transform="translate(1564.857422 0)"/>
       <use xlink:href="#DejaVuSans-72" transform="translate(1642.347656 0)"/>
       <use xlink:href="#DejaVuSans-69" transform="translate(1683.460938 0)"/>
       <use xlink:href="#DejaVuSans-64" transform="translate(1711.244141 0)"/>
       <use xlink:href="#DejaVuSans-53" transform="translate(1774.720703 0)"/>
       <use xlink:href="#DejaVuSans-65" transform="translate(1838.197266 0)"/>
       <use xlink:href="#DejaVuSans-61" transform="translate(1899.720703 0)"/>
       <use xlink:href="#DejaVuSans-72" transform="translate(1961 0)"/>
       <use xlink:href="#DejaVuSans-63" transform="translate(1999.863281 0)"/>
       <use xlink:href="#DejaVuSans-68" transform="translate(2054.84375 0)"/>
       <use xlink:href="#DejaVuSans-43" transform="translate(2118.222656 0)"/>
       <use xlink:href="#DejaVuSans-56" transform="translate(2188.046875 0)"/>
       <use xlink:href="#DejaVuSans-29" transform="translate(2256.455078 0)"/>
      </g>
     </g>
    </g>
    <g id="text_5">
     <!-- Models -->
     <g transform="translate(401.999548 418.529286) scale(0.1 -0.1)">
      <defs>
       <path id="DejaVuSansMono-Bold-4d" d="M 269 4666 
L 1369 4666 
L 1925 2619 
L 2478 4666 
L 3584 4666 
L 3584 0 
L 2791 0 
L 2791 3738 
L 2297 1697 
L 1563 1697 
L 1063 3738 
L 1063 0 
L 269 0 
L 269 4666 
z
" transform="scale(0.015625)"/>
       <path id="DejaVuSansMono-Bold-6f" d="M 1925 2841 
Q 1597 2841 1409 2552 
Q 1222 2263 1222 1747 
Q 1222 1231 1409 942 
Q 1597 653 1925 653 
Q 2256 653 2443 942 
Q 2631 1231 2631 1747 
Q 2631 2263 2443 2552 
Q 2256 2841 1925 2841 
z
M 306 1747 
Q 306 2594 745 3089 
Q 1184 3584 1925 3584 
Q 2669 3584 3108 3089 
Q 3547 2594 3547 1747 
Q 3547 900 3108 404 
Q 2669 -91 1925 -91 
Q 1184 -91 745 404 
Q 306 900 306 1747 
z
" transform="scale(0.015625)"/>
       <path id="DejaVuSansMono-Bold-64" d="M 2472 3003 
L 2472 4863 
L 3384 4863 
L 3384 0 
L 2472 0 
L 2472 519 
Q 2325 216 2092 62 
Q 1859 -91 1544 -91 
Q 944 -91 612 390 
Q 281 872 281 1747 
Q 281 2634 617 3109 
Q 953 3584 1575 3584 
Q 1856 3584 2079 3439 
Q 2303 3294 2472 3003 
z
M 1197 1741 
Q 1197 1234 1365 946 
Q 1534 659 1831 659 
Q 2128 659 2300 946 
Q 2472 1234 2472 1741 
Q 2472 2247 2300 2534 
Q 2128 2822 1831 2822 
Q 1534 2822 1365 2534 
Q 1197 2247 1197 1741 
z
" transform="scale(0.015625)"/>
       <path id="DejaVuSansMono-Bold-65" d="M 3444 172 
Q 3125 41 2794 -25 
Q 2463 -91 2094 -91 
Q 1216 -91 752 379 
Q 288 850 288 1734 
Q 288 2591 734 3087 
Q 1181 3584 1953 3584 
Q 2731 3584 3161 3123 
Q 3591 2663 3591 1825 
L 3591 1453 
L 1219 1453 
Q 1222 1041 1462 837 
Q 1703 634 2181 634 
Q 2497 634 2803 725 
Q 3109 816 3444 1013 
L 3444 172 
z
M 2669 2141 
Q 2663 2503 2483 2689 
Q 2303 2875 1953 2875 
Q 1638 2875 1450 2683 
Q 1263 2491 1228 2138 
L 2669 2141 
z
" transform="scale(0.015625)"/>
       <path id="DejaVuSansMono-Bold-6c" d="M 1209 1459 
L 1209 4159 
L 281 4159 
L 281 4863 
L 2125 4863 
L 2125 1459 
Q 2125 1047 2253 875 
Q 2381 703 2688 703 
L 3419 703 
L 3419 0 
L 2431 0 
Q 1778 0 1493 337 
Q 1209 675 1209 1459 
z
" transform="scale(0.015625)"/>
       <path id="DejaVuSansMono-Bold-73" d="M 3097 3391 
L 3097 2591 
Q 2844 2753 2570 2836 
Q 2297 2919 2022 2919 
Q 1716 2919 1559 2830 
Q 1403 2741 1403 2566 
Q 1403 2316 2072 2159 
L 2106 2150 
L 2369 2088 
Q 2869 1969 3101 1705 
Q 3334 1441 3334 991 
Q 3334 450 2979 179 
Q 2625 -91 1913 -91 
Q 1597 -91 1265 -36 
Q 934 19 594 128 
L 594 928 
Q 897 756 1211 665 
Q 1525 575 1819 575 
Q 2141 575 2306 669 
Q 2472 763 2472 941 
Q 2472 1116 2355 1209 
Q 2238 1303 1797 1409 
L 1544 1466 
Q 1019 1584 778 1837 
Q 538 2091 538 2516 
Q 538 3022 903 3303 
Q 1269 3584 1931 3584 
Q 2228 3584 2523 3536 
Q 2819 3488 3097 3391 
z
" transform="scale(0.015625)"/>
      </defs>
      <use xlink:href="#DejaVuSansMono-Bold-4d"/>
      <use xlink:href="#DejaVuSansMono-Bold-6f" transform="translate(60.205078 0)"/>
      <use xlink:href="#DejaVuSansMono-Bold-64" transform="translate(120.410156 0)"/>
      <use xlink:href="#DejaVuSansMono-Bold-65" transform="translate(180.615234 0)"/>
      <use xlink:href="#DejaVuSansMono-Bold-6c" transform="translate(240.820312 0)"/>
      <use xlink:href="#DejaVuSansMono-Bold-73" transform="translate(301.025391 0)"/>
     </g>
    </g>
   </g>
   <g id="matplotlib.axis_2">
    <g id="ytick_1">
     <g id="line2d_5">
      <path d="M 130.920972 201.238263 
L 709.2 201.238263 
" clip-path="url(#pdd291c10b1)" style="fill: none; stroke-dasharray: 3.7,1.6; stroke-dashoffset: 0; stroke: #e6e6e6; stroke-opacity: 0.5"/>
     </g>
     <g id="line2d_6">
      <defs>
       <path id="ma25fbcde77" d="M 0 0 
L -3.5 0 
" style="stroke: #000000; stroke-width: 0.8"/>
      </defs>
      <g>
       <use xlink:href="#ma25fbcde77" x="130.920972" y="201.238263" style="stroke: #000000; stroke-width: 0.8"/>
      </g>
     </g>
     <g id="text_6">
      <!-- 0.0 -->
      <g transform="translate(108.017847 205.037482) scale(0.1 -0.1)">
       <defs>
        <path id="DejaVuSans-30" d="M 2034 4250 
Q 1547 4250 1301 3770 
Q 1056 3291 1056 2328 
Q 1056 1369 1301 889 
Q 1547 409 2034 409 
Q 2525 409 2770 889 
Q 3016 1369 3016 2328 
Q 3016 3291 2770 3770 
Q 2525 4250 2034 4250 
z
M 2034 4750 
Q 2819 4750 3233 4129 
Q 3647 3509 3647 2328 
Q 3647 1150 3233 529 
Q 2819 -91 2034 -91 
Q 1250 -91 836 529 
Q 422 1150 422 2328 
Q 422 3509 836 4129 
Q 1250 4750 2034 4750 
z
" transform="scale(0.015625)"/>
        <path id="DejaVuSans-2e" d="M 684 794 
L 1344 794 
L 1344 0 
L 684 0 
L 684 794 
z
" transform="scale(0.015625)"/>
       </defs>
       <use xlink:href="#DejaVuSans-30"/>
       <use xlink:href="#DejaVuSans-2e" transform="translate(63.623047 0)"/>
       <use xlink:href="#DejaVuSans-30" transform="translate(95.410156 0)"/>
      </g>
     </g>
    </g>
    <g id="ytick_2">
     <g id="line2d_7">
      <path d="M 130.920972 165.93461 
L 709.2 165.93461 
" clip-path="url(#pdd291c10b1)" style="fill: none; stroke-dasharray: 3.7,1.6; stroke-dashoffset: 0; stroke: #e6e6e6; stroke-opacity: 0.5"/>
     </g>
     <g id="line2d_8">
      <g>
       <use xlink:href="#ma25fbcde77" x="130.920972" y="165.93461" style="stroke: #000000; stroke-width: 0.8"/>
      </g>
     </g>
     <g id="text_7">
      <!-- 0.2 -->
      <g transform="translate(108.017847 169.733829) scale(0.1 -0.1)">
       <defs>
        <path id="DejaVuSans-32" d="M 1228 531 
L 3431 531 
L 3431 0 
L 469 0 
L 469 531 
Q 828 903 1448 1529 
Q 2069 2156 2228 2338 
Q 2531 2678 2651 2914 
Q 2772 3150 2772 3378 
Q 2772 3750 2511 3984 
Q 2250 4219 1831 4219 
Q 1534 4219 1204 4116 
Q 875 4013 500 3803 
L 500 4441 
Q 881 4594 1212 4672 
Q 1544 4750 1819 4750 
Q 2544 4750 2975 4387 
Q 3406 4025 3406 3419 
Q 3406 3131 3298 2873 
Q 3191 2616 2906 2266 
Q 2828 2175 2409 1742 
Q 1991 1309 1228 531 
z
" transform="scale(0.015625)"/>
       </defs>
       <use xlink:href="#DejaVuSans-30"/>
       <use xlink:href="#DejaVuSans-2e" transform="translate(63.623047 0)"/>
       <use xlink:href="#DejaVuSans-32" transform="translate(95.410156 0)"/>
      </g>
     </g>
    </g>
    <g id="ytick_3">
     <g id="line2d_9">
      <path d="M 130.920972 130.630958 
L 709.2 130.630958 
" clip-path="url(#pdd291c10b1)" style="fill: none; stroke-dasharray: 3.7,1.6; stroke-dashoffset: 0; stroke: #e6e6e6; stroke-opacity: 0.5"/>
     </g>
     <g id="line2d_10">
      <g>
       <use xlink:href="#ma25fbcde77" x="130.920972" y="130.630958" style="stroke: #000000; stroke-width: 0.8"/>
      </g>
     </g>
     <g id="text_8">
      <!-- 0.4 -->
      <g transform="translate(108.017847 134.430176) scale(0.1 -0.1)">
       <defs>
        <path id="DejaVuSans-34" d="M 2419 4116 
L 825 1625 
L 2419 1625 
L 2419 4116 
z
M 2253 4666 
L 3047 4666 
L 3047 1625 
L 3713 1625 
L 3713 1100 
L 3047 1100 
L 3047 0 
L 2419 0 
L 2419 1100 
L 313 1100 
L 313 1709 
L 2253 4666 
z
" transform="scale(0.015625)"/>
       </defs>
       <use xlink:href="#DejaVuSans-30"/>
       <use xlink:href="#DejaVuSans-2e" transform="translate(63.623047 0)"/>
       <use xlink:href="#DejaVuSans-34" transform="translate(95.410156 0)"/>
      </g>
     </g>
    </g>
    <g id="ytick_4">
     <g id="line2d_11">
      <path d="M 130.920972 95.327305 
L 709.2 95.327305 
" clip-path="url(#pdd291c10b1)" style="fill: none; stroke-dasharray: 3.7,1.6; stroke-dashoffset: 0; stroke: #e6e6e6; stroke-opacity: 0.5"/>
     </g>
     <g id="line2d_12">
      <g>
       <use xlink:href="#ma25fbcde77" x="130.920972" y="95.327305" style="stroke: #000000; stroke-width: 0.8"/>
      </g>
     </g>
     <g id="text_9">
      <!-- 0.6 -->
      <g transform="translate(108.017847 99.126524) scale(0.1 -0.1)">
       <defs>
        <path id="DejaVuSans-36" d="M 2113 2584 
Q 1688 2584 1439 2293 
Q 1191 2003 1191 1497 
Q 1191 994 1439 701 
Q 1688 409 2113 409 
Q 2538 409 2786 701 
Q 3034 994 3034 1497 
Q 3034 2003 2786 2293 
Q 2538 2584 2113 2584 
z
M 3366 4563 
L 3366 3988 
Q 3128 4100 2886 4159 
Q 2644 4219 2406 4219 
Q 1781 4219 1451 3797 
Q 1122 3375 1075 2522 
Q 1259 2794 1537 2939 
Q 1816 3084 2150 3084 
Q 2853 3084 3261 2657 
Q 3669 2231 3669 1497 
Q 3669 778 3244 343 
Q 2819 -91 2113 -91 
Q 1303 -91 875 529 
Q 447 1150 447 2328 
Q 447 3434 972 4092 
Q 1497 4750 2381 4750 
Q 2619 4750 2861 4703 
Q 3103 4656 3366 4563 
z
" transform="scale(0.015625)"/>
       </defs>
       <use xlink:href="#DejaVuSans-30"/>
       <use xlink:href="#DejaVuSans-2e" transform="translate(63.623047 0)"/>
       <use xlink:href="#DejaVuSans-36" transform="translate(95.410156 0)"/>
      </g>
     </g>
    </g>
    <g id="ytick_5">
     <g id="line2d_13">
      <path d="M 130.920972 60.023653 
L 709.2 60.023653 
" clip-path="url(#pdd291c10b1)" style="fill: none; stroke-dasharray: 3.7,1.6; stroke-dashoffset: 0; stroke: #e6e6e6; stroke-opacity: 0.5"/>
     </g>
     <g id="line2d_14">
      <g>
       <use xlink:href="#ma25fbcde77" x="130.920972" y="60.023653" style="stroke: #000000; stroke-width: 0.8"/>
      </g>
     </g>
     <g id="text_10">
      <!-- 0.8 -->
      <g transform="translate(108.017847 63.822871) scale(0.1 -0.1)">
       <defs>
        <path id="DejaVuSans-38" d="M 2034 2216 
Q 1584 2216 1326 1975 
Q 1069 1734 1069 1313 
Q 1069 891 1326 650 
Q 1584 409 2034 409 
Q 2484 409 2743 651 
Q 3003 894 3003 1313 
Q 3003 1734 2745 1975 
Q 2488 2216 2034 2216 
z
M 1403 2484 
Q 997 2584 770 2862 
Q 544 3141 544 3541 
Q 544 4100 942 4425 
Q 1341 4750 2034 4750 
Q 2731 4750 3128 4425 
Q 3525 4100 3525 3541 
Q 3525 3141 3298 2862 
Q 3072 2584 2669 2484 
Q 3125 2378 3379 2068 
Q 3634 1759 3634 1313 
Q 3634 634 3220 271 
Q 2806 -91 2034 -91 
Q 1263 -91 848 271 
Q 434 634 434 1313 
Q 434 1759 690 2068 
Q 947 2378 1403 2484 
z
M 1172 3481 
Q 1172 3119 1398 2916 
Q 1625 2713 2034 2713 
Q 2441 2713 2670 2916 
Q 2900 3119 2900 3481 
Q 2900 3844 2670 4047 
Q 2441 4250 2034 4250 
Q 1625 4250 1398 4047 
Q 1172 3844 1172 3481 
z
" transform="scale(0.015625)"/>
       </defs>
       <use xlink:href="#DejaVuSans-30"/>
       <use xlink:href="#DejaVuSans-2e" transform="translate(63.623047 0)"/>
       <use xlink:href="#DejaVuSans-38" transform="translate(95.410156 0)"/>
      </g>
     </g>
    </g>
    <g id="ytick_6">
     <g id="line2d_15">
      <path d="M 130.920972 24.72 
L 709.2 24.72 
" clip-path="url(#pdd291c10b1)" style="fill: none; stroke-dasharray: 3.7,1.6; stroke-dashoffset: 0; stroke: #e6e6e6; stroke-opacity: 0.5"/>
     </g>
     <g id="line2d_16">
      <g>
       <use xlink:href="#ma25fbcde77" x="130.920972" y="24.72" style="stroke: #000000; stroke-width: 0.8"/>
      </g>
     </g>
     <g id="text_11">
      <!-- 1.0 -->
      <g transform="translate(108.017847 28.519219) scale(0.1 -0.1)">
       <defs>
        <path id="DejaVuSans-31" d="M 794 531 
L 1825 531 
L 1825 4091 
L 703 3866 
L 703 4441 
L 1819 4666 
L 2450 4666 
L 2450 531 
L 3481 531 
L 3481 0 
L 794 0 
L 794 531 
z
" transform="scale(0.015625)"/>
       </defs>
       <use xlink:href="#DejaVuSans-31"/>
       <use xlink:href="#DejaVuSans-2e" transform="translate(63.623047 0)"/>
       <use xlink:href="#DejaVuSans-30" transform="translate(95.410156 0)"/>
      </g>
     </g>
    </g>
    <g id="text_12">
     <!-- Accuracy -->
     <g transform="translate(101.938159 137.060381) rotate(-90) scale(0.1 -0.1)">
      <defs>
       <path id="DejaVuSansMono-Bold-41" d="M 1925 3822 
L 1491 1913 
L 2363 1913 
L 1925 3822 
z
M 1363 4666 
L 2491 4666 
L 3750 0 
L 2828 0 
L 2541 1153 
L 1306 1153 
L 1025 0 
L 103 0 
L 1363 4666 
z
" transform="scale(0.015625)"/>
       <path id="DejaVuSansMono-Bold-63" d="M 3316 178 
Q 3084 44 2818 -23 
Q 2553 -91 2247 -91 
Q 1438 -91 981 396 
Q 525 884 525 1747 
Q 525 2613 984 3102 
Q 1444 3591 2253 3591 
Q 2534 3591 2795 3525 
Q 3056 3459 3316 3322 
L 3316 2484 
Q 3116 2656 2877 2748 
Q 2638 2841 2381 2841 
Q 1934 2841 1693 2556 
Q 1453 2272 1453 1747 
Q 1453 1222 1693 940 
Q 1934 659 2381 659 
Q 2647 659 2878 748 
Q 3109 838 3316 1019 
L 3316 178 
z
" transform="scale(0.015625)"/>
       <path id="DejaVuSansMono-Bold-75" d="M 500 1222 
L 500 3500 
L 1416 3500 
L 1416 1363 
Q 1416 984 1522 821 
Q 1628 659 1875 659 
Q 2122 659 2261 878 
Q 2400 1097 2400 1491 
L 2400 3500 
L 3316 3500 
L 3316 0 
L 2400 0 
L 2400 519 
Q 2303 228 2070 68 
Q 1838 -91 1509 -91 
Q 1009 -91 754 240 
Q 500 572 500 1222 
z
" transform="scale(0.015625)"/>
       <path id="DejaVuSansMono-Bold-72" d="M 3597 2534 
Q 3447 2672 3245 2740 
Q 3044 2809 2803 2809 
Q 2513 2809 2295 2707 
Q 2078 2606 1959 2413 
Q 1884 2294 1854 2125 
Q 1825 1956 1825 1613 
L 1825 0 
L 909 0 
L 909 3500 
L 1825 3500 
L 1825 2956 
Q 1959 3256 2237 3420 
Q 2516 3584 2888 3584 
Q 3075 3584 3254 3539 
Q 3434 3494 3597 3406 
L 3597 2534 
z
" transform="scale(0.015625)"/>
       <path id="DejaVuSansMono-Bold-61" d="M 2188 1644 
Q 1675 1644 1472 1512 
Q 1269 1381 1269 1063 
Q 1269 825 1409 684 
Q 1550 544 1791 544 
Q 2153 544 2353 817 
Q 2553 1091 2553 1581 
L 2553 1644 
L 2188 1644 
z
M 3463 1997 
L 3463 0 
L 2553 0 
L 2553 391 
Q 2388 159 2128 34 
Q 1869 -91 1556 -91 
Q 959 -91 626 225 
Q 294 541 294 1106 
Q 294 1719 691 2011 
Q 1088 2303 1919 2303 
L 2553 2303 
L 2553 2456 
Q 2553 2678 2392 2792 
Q 2231 2906 1919 2906 
Q 1591 2906 1283 2823 
Q 975 2741 641 2559 
L 641 3341 
Q 944 3466 1256 3525 
Q 1569 3584 1919 3584 
Q 2772 3584 3117 3237 
Q 3463 2891 3463 1997 
z
" transform="scale(0.015625)"/>
       <path id="DejaVuSansMono-Bold-79" d="M 2222 -378 
Q 2038 -872 1780 -1098 
Q 1522 -1325 1153 -1325 
L 397 -1325 
L 397 -628 
L 769 -628 
Q 1050 -628 1181 -533 
Q 1313 -438 1447 -91 
L 1516 97 
L 184 3500 
L 1147 3500 
L 1947 1228 
L 2713 3500 
L 3675 3500 
L 2222 -378 
z
" transform="scale(0.015625)"/>
      </defs>
      <use xlink:href="#DejaVuSansMono-Bold-41"/>
      <use xlink:href="#DejaVuSansMono-Bold-63" transform="translate(60.205078 0)"/>
      <use xlink:href="#DejaVuSansMono-Bold-63" transform="translate(120.410156 0)"/>
      <use xlink:href="#DejaVuSansMono-Bold-75" transform="translate(180.615234 0)"/>
      <use xlink:href="#DejaVuSansMono-Bold-72" transform="translate(240.820312 0)"/>
      <use xlink:href="#DejaVuSansMono-Bold-61" transform="translate(301.025391 0)"/>
      <use xlink:href="#DejaVuSansMono-Bold-63" transform="translate(361.230469 0)"/>
      <use xlink:href="#DejaVuSansMono-Bold-79" transform="translate(421.435547 0)"/>
     </g>
    </g>
   </g>
   <g id="patch_7">
    <path d="M 130.920972 201.238263 
L 130.920972 24.72 
" style="fill: none; stroke: #000000; stroke-width: 0.8; stroke-linejoin: miter; stroke-linecap: square"/>
   </g>
   <g id="patch_8">
    <path d="M 709.2 201.238263 
L 709.2 24.72 
" style="fill: none; stroke: #000000; stroke-width: 0.8; stroke-linejoin: miter; stroke-linecap: square"/>
   </g>
   <g id="patch_9">
    <path d="M 130.920972 201.238263 
L 709.2 201.238263 
" style="fill: none; stroke: #000000; stroke-width: 0.8; stroke-linejoin: miter; stroke-linecap: square"/>
   </g>
   <g id="patch_10">
    <path d="M 130.920972 24.72 
L 709.2 24.72 
" style="fill: none; stroke: #000000; stroke-width: 0.8; stroke-linejoin: miter; stroke-linecap: square"/>
   </g>
   <g id="text_13">
    <!-- 0.77 -->
    <g transform="translate(200.503463 61.610114) scale(0.1 -0.1)">
     <defs>
      <path id="DejaVuSansMono-Bold-30" d="M 1538 2328 
Q 1538 2494 1650 2606 
Q 1763 2719 1925 2719 
Q 2091 2719 2203 2606 
Q 2316 2494 2316 2328 
Q 2316 2166 2203 2053 
Q 2091 1941 1925 1941 
Q 1763 1941 1650 2052 
Q 1538 2163 1538 2328 
z
M 1925 3969 
Q 1606 3969 1459 3578 
Q 1313 3188 1313 2328 
Q 1313 1472 1459 1081 
Q 1606 691 1925 691 
Q 2247 691 2394 1081 
Q 2541 1472 2541 2328 
Q 2541 3188 2394 3578 
Q 2247 3969 1925 3969 
z
M 384 2328 
Q 384 3541 768 4145 
Q 1153 4750 1925 4750 
Q 2700 4750 3084 4147 
Q 3469 3544 3469 2328 
Q 3469 1116 3084 512 
Q 2700 -91 1925 -91 
Q 1153 -91 768 514 
Q 384 1119 384 2328 
z
" transform="scale(0.015625)"/>
      <path id="DejaVuSansMono-Bold-2e" d="M 1403 1147 
L 2444 1147 
L 2444 0 
L 1403 0 
L 1403 1147 
z
" transform="scale(0.015625)"/>
      <path id="DejaVuSansMono-Bold-37" d="M 422 4666 
L 3372 4666 
L 3372 4013 
L 1791 0 
L 850 0 
L 2369 3853 
L 422 3853 
L 422 4666 
z
" transform="scale(0.015625)"/>
     </defs>
     <use xlink:href="#DejaVuSansMono-Bold-30"/>
     <use xlink:href="#DejaVuSansMono-Bold-2e" transform="translate(60.205078 0)"/>
     <use xlink:href="#DejaVuSansMono-Bold-37" transform="translate(120.410156 0)"/>
     <use xlink:href="#DejaVuSansMono-Bold-37" transform="translate(180.615234 0)"/>
    </g>
   </g>
   <g id="text_14">
    <!-- 0.74 -->
    <g transform="translate(338.847728 66.136223) scale(0.1 -0.1)">
     <defs>
      <path id="DejaVuSansMono-Bold-34" d="M 2169 3641 
L 991 1797 
L 2169 1797 
L 2169 3641 
z
M 2088 4666 
L 3053 4666 
L 3053 1797 
L 3566 1797 
L 3566 1006 
L 3053 1006 
L 3053 0 
L 2169 0 
L 2169 1006 
L 319 1006 
L 319 1900 
L 2088 4666 
z
" transform="scale(0.015625)"/>
     </defs>
     <use xlink:href="#DejaVuSansMono-Bold-30"/>
     <use xlink:href="#DejaVuSansMono-Bold-2e" transform="translate(60.205078 0)"/>
     <use xlink:href="#DejaVuSansMono-Bold-37" transform="translate(120.410156 0)"/>
     <use xlink:href="#DejaVuSansMono-Bold-34" transform="translate(180.615234 0)"/>
    </g>
   </g>
   <g id="text_15">
    <!-- 0.77 -->
    <g transform="translate(477.191993 61.610114) scale(0.1 -0.1)">
     <use xlink:href="#DejaVuSansMono-Bold-30"/>
     <use xlink:href="#DejaVuSansMono-Bold-2e" transform="translate(60.205078 0)"/>
     <use xlink:href="#DejaVuSansMono-Bold-37" transform="translate(120.410156 0)"/>
     <use xlink:href="#DejaVuSansMono-Bold-37" transform="translate(180.615234 0)"/>
    </g>
   </g>
   <g id="text_16">
    <!-- 0.79 -->
    <g transform="translate(615.536259 57.084004) scale(0.1 -0.1)">
     <defs>
      <path id="DejaVuSansMono-Bold-39" d="M 634 63 
L 634 903 
Q 881 759 1107 690 
Q 1334 622 1544 622 
Q 2041 622 2302 955 
Q 2563 1288 2578 1950 
Q 2431 1747 2203 1645 
Q 1975 1544 1663 1544 
Q 1034 1544 690 1942 
Q 347 2341 347 3072 
Q 347 3853 731 4281 
Q 1116 4709 1819 4709 
Q 2672 4709 3058 4139 
Q 3444 3569 3444 2297 
Q 3444 1088 2972 483 
Q 2500 -122 1556 -122 
Q 1338 -122 1105 -75 
Q 872 -28 634 63 
z
M 1844 2316 
Q 2141 2316 2298 2533 
Q 2456 2750 2456 3163 
Q 2456 3572 2298 3789 
Q 2141 4006 1844 4006 
Q 1544 4006 1383 3789 
Q 1222 3572 1222 3163 
Q 1222 2753 1383 2534 
Q 1544 2316 1844 2316 
z
" transform="scale(0.015625)"/>
     </defs>
     <use xlink:href="#DejaVuSansMono-Bold-30"/>
     <use xlink:href="#DejaVuSansMono-Bold-2e" transform="translate(60.205078 0)"/>
     <use xlink:href="#DejaVuSansMono-Bold-37" transform="translate(120.410156 0)"/>
     <use xlink:href="#DejaVuSansMono-Bold-39" transform="translate(180.615234 0)"/>
    </g>
   </g>
   <g id="text_17">
    <!-- Model Accuracies -->
    <g transform="translate(371.897986 18.72) scale(0.1 -0.1)">
     <defs>
      <path id="DejaVuSansMono-Bold-20" transform="scale(0.015625)"/>
      <path id="DejaVuSansMono-Bold-69" d="M 691 3500 
L 2503 3500 
L 2503 703 
L 3641 703 
L 3641 0 
L 447 0 
L 447 703 
L 1588 703 
L 1588 2797 
L 691 2797 
L 691 3500 
z
M 1588 5203 
L 2503 5203 
L 2503 4134 
L 1588 4134 
L 1588 5203 
z
" transform="scale(0.015625)"/>
     </defs>
     <use xlink:href="#DejaVuSansMono-Bold-4d"/>
     <use xlink:href="#DejaVuSansMono-Bold-6f" transform="translate(60.205078 0)"/>
     <use xlink:href="#DejaVuSansMono-Bold-64" transform="translate(120.410156 0)"/>
     <use xlink:href="#DejaVuSansMono-Bold-65" transform="translate(180.615234 0)"/>
     <use xlink:href="#DejaVuSansMono-Bold-6c" transform="translate(240.820312 0)"/>
     <use xlink:href="#DejaVuSansMono-Bold-20" transform="translate(301.025391 0)"/>
     <use xlink:href="#DejaVuSansMono-Bold-41" transform="translate(361.230469 0)"/>
     <use xlink:href="#DejaVuSansMono-Bold-63" transform="translate(421.435547 0)"/>
     <use xlink:href="#DejaVuSansMono-Bold-63" transform="translate(481.640625 0)"/>
     <use xlink:href="#DejaVuSansMono-Bold-75" transform="translate(541.845703 0)"/>
     <use xlink:href="#DejaVuSansMono-Bold-72" transform="translate(602.050781 0)"/>
     <use xlink:href="#DejaVuSansMono-Bold-61" transform="translate(662.255859 0)"/>
     <use xlink:href="#DejaVuSansMono-Bold-63" transform="translate(722.460938 0)"/>
     <use xlink:href="#DejaVuSansMono-Bold-69" transform="translate(782.666016 0)"/>
     <use xlink:href="#DejaVuSansMono-Bold-65" transform="translate(842.871094 0)"/>
     <use xlink:href="#DejaVuSansMono-Bold-73" transform="translate(903.076172 0)"/>
    </g>
   </g>
  </g>
 </g>
 <defs>
  <clipPath id="pdd291c10b1">
   <rect x="130.920972" y="24.72" width="578.279028" height="176.518263"/>
  </clipPath>
 </defs>
</svg>
