<?xml version="1.0" encoding="utf-8" standalone="no"?>
<!DOCTYPE svg PUBLIC "-//W3C//DTD SVG 1.1//EN"
  "http://www.w3.org/Graphics/SVG/1.1/DTD/svg11.dtd">
<svg xmlns:xlink="http://www.w3.org/1999/xlink" width="720pt" height="288pt" viewBox="0 0 720 288" xmlns="http://www.w3.org/2000/svg" version="1.1">
 <metadata>
  <rdf:RDF xmlns:dc="http://purl.org/dc/elements/1.1/" xmlns:cc="http://creativecommons.org/ns#" xmlns:rdf="http://www.w3.org/1999/02/22-rdf-syntax-ns#">
   <cc:Work>
    <dc:type rdf:resource="http://purl.org/dc/dcmitype/StillImage"/>
    <dc:date>2025-12-06T12:14:35.761796</dc:date>
    <dc:format>image/svg+xml</dc:format>
    <dc:creator>
     <cc:Agent>
      <dc:title>Matplotlib v3.10.7, https://matplotlib.org/</dc:title>
     </cc:Agent>
    </dc:creator>
   </cc:Work>
  </rdf:RDF>
 </metadata>
 <defs>
  <style type="text/css">*{stroke-linejoin: round; stroke-linecap: butt}</style>
 </defs>
 <g id="figure_1">
  <g id="patch_1">
   <path d="M 0 288 
L 720 288 
L 720 0 
L 0 0 
z
" style="fill: #ffffff"/>
  </g>
  <g id="axes_1">
   <g id="patch_2">
    <path d="M 90 256.32 
L 648 256.32 
L 648 34.56 
L 90 34.56 
z
" style="fill: #ffffff"/>
   </g>
   <g id="matplotlib.axis_1">
    <g id="xtick_1">
     <g id="line2d_1">
      <path d="M 115.363636 256.32 
L 115.363636 34.56 
" clip-path="url(#pbee93fca8b)" style="fill: none; stroke: #b0b0b0; stroke-width: 0.8; stroke-linecap: square"/>
     </g>
     <g id="line2d_2">
      <defs>
       <path id="m9256405734" d="M 0 0 
L 0 3.5 
" style="stroke: #000000; stroke-width: 0.8"/>
      </defs>
      <g>
       <use xlink:href="#m9256405734" x="115.363636" y="256.32" style="stroke: #000000; stroke-width: 0.8"/>
      </g>
     </g>
     <g id="text_1">
      <!-- 0 -->
      <g transform="translate(112.182386 270.918437) scale(0.1 -0.1)">
       <defs>
        <path id="DejaVuSans-30" d="M 2034 4250 
Q 1547 4250 1301 3770 
Q 1056 3291 1056 2328 
Q 1056 1369 1301 889 
Q 1547 409 2034 409 
Q 2525 409 2770 889 
Q 3016 1369 3016 2328 
Q 3016 3291 2770 3770 
Q 2525 4250 2034 4250 
z
M 2034 4750 
Q 2819 4750 3233 4129 
Q 3647 3509 3647 2328 
Q 3647 1150 3233 529 
Q 2819 -91 2034 -91 
Q 1250 -91 836 529 
Q 422 1150 422 2328 
Q 422 3509 836 4129 
Q 1250 4750 2034 4750 
z
" transform="scale(0.015625)"/>
       </defs>
       <use xlink:href="#DejaVuSans-30"/>
      </g>
     </g>
    </g>
    <g id="xtick_2">
     <g id="line2d_3">
      <path d="M 216.828328 256.32 
L 216.828328 34.56 
" clip-path="url(#pbee93fca8b)" style="fill: none; stroke: #b0b0b0; stroke-width: 0.8; stroke-linecap: square"/>
     </g>
     <g id="line2d_4">
      <g>
       <use xlink:href="#m9256405734" x="216.828328" y="256.32" style="stroke: #000000; stroke-width: 0.8"/>
      </g>
     </g>
     <g id="text_2">
      <!-- 2000 -->
      <g transform="translate(204.103328 270.918437) scale(0.1 -0.1)">
       <defs>
        <path id="DejaVuSans-32" d="M 1228 531 
L 3431 531 
L 3431 0 
L 469 0 
L 469 531 
Q 828 903 1448 1529 
Q 2069 2156 2228 2338 
Q 2531 2678 2651 2914 
Q 2772 3150 2772 3378 
Q 2772 3750 2511 3984 
Q 2250 4219 1831 4219 
Q 1534 4219 1204 4116 
Q 875 4013 500 3803 
L 500 4441 
Q 881 4594 1212 4672 
Q 1544 4750 1819 4750 
Q 2544 4750 2975 4387 
Q 3406 4025 3406 3419 
Q 3406 3131 3298 2873 
Q 3191 2616 2906 2266 
Q 2828 2175 2409 1742 
Q 1991 1309 1228 531 
z
" transform="scale(0.015625)"/>
       </defs>
       <use xlink:href="#DejaVuSans-32"/>
       <use xlink:href="#DejaVuSans-30" transform="translate(63.623047 0)"/>
       <use xlink:href="#DejaVuSans-30" transform="translate(127.246094 0)"/>
       <use xlink:href="#DejaVuSans-30" transform="translate(190.869141 0)"/>
      </g>
     </g>
    </g>
    <g id="xtick_3">
     <g id="line2d_5">
      <path d="M 318.29302 256.32 
L 318.29302 34.56 
" clip-path="url(#pbee93fca8b)" style="fill: none; stroke: #b0b0b0; stroke-width: 0.8; stroke-linecap: square"/>
     </g>
     <g id="line2d_6">
      <g>
       <use xlink:href="#m9256405734" x="318.29302" y="256.32" style="stroke: #000000; stroke-width: 0.8"/>
      </g>
     </g>
     <g id="text_3">
      <!-- 4000 -->
      <g transform="translate(305.56802 270.918437) scale(0.1 -0.1)">
       <defs>
        <path id="DejaVuSans-34" d="M 2419 4116 
L 825 1625 
L 2419 1625 
L 2419 4116 
z
M 2253 4666 
L 3047 4666 
L 3047 1625 
L 3713 1625 
L 3713 1100 
L 3047 1100 
L 3047 0 
L 2419 0 
L 2419 1100 
L 313 1100 
L 313 1709 
L 2253 4666 
z
" transform="scale(0.015625)"/>
       </defs>
       <use xlink:href="#DejaVuSans-34"/>
       <use xlink:href="#DejaVuSans-30" transform="translate(63.623047 0)"/>
       <use xlink:href="#DejaVuSans-30" transform="translate(127.246094 0)"/>
       <use xlink:href="#DejaVuSans-30" transform="translate(190.869141 0)"/>
      </g>
     </g>
    </g>
    <g id="xtick_4">
     <g id="line2d_7">
      <path d="M 419.757712 256.32 
L 419.757712 34.56 
" clip-path="url(#pbee93fca8b)" style="fill: none; stroke: #b0b0b0; stroke-width: 0.8; stroke-linecap: square"/>
     </g>
     <g id="line2d_8">
      <g>
       <use xlink:href="#m9256405734" x="419.757712" y="256.32" style="stroke: #000000; stroke-width: 0.8"/>
      </g>
     </g>
     <g id="text_4">
      <!-- 6000 -->
      <g transform="translate(407.032712 270.918437) scale(0.1 -0.1)">
       <defs>
        <path id="DejaVuSans-36" d="M 2113 2584 
Q 1688 2584 1439 2293 
Q 1191 2003 1191 1497 
Q 1191 994 1439 701 
Q 1688 409 2113 409 
Q 2538 409 2786 701 
Q 3034 994 3034 1497 
Q 3034 2003 2786 2293 
Q 2538 2584 2113 2584 
z
M 3366 4563 
L 3366 3988 
Q 3128 4100 2886 4159 
Q 2644 4219 2406 4219 
Q 1781 4219 1451 3797 
Q 1122 3375 1075 2522 
Q 1259 2794 1537 2939 
Q 1816 3084 2150 3084 
Q 2853 3084 3261 2657 
Q 3669 2231 3669 1497 
Q 3669 778 3244 343 
Q 2819 -91 2113 -91 
Q 1303 -91 875 529 
Q 447 1150 447 2328 
Q 447 3434 972 4092 
Q 1497 4750 2381 4750 
Q 2619 4750 2861 4703 
Q 3103 4656 3366 4563 
z
" transform="scale(0.015625)"/>
       </defs>
       <use xlink:href="#DejaVuSans-36"/>
       <use xlink:href="#DejaVuSans-30" transform="translate(63.623047 0)"/>
       <use xlink:href="#DejaVuSans-30" transform="translate(127.246094 0)"/>
       <use xlink:href="#DejaVuSans-30" transform="translate(190.869141 0)"/>
      </g>
     </g>
    </g>
    <g id="xtick_5">
     <g id="line2d_9">
      <path d="M 521.222404 256.32 
L 521.222404 34.56 
" clip-path="url(#pbee93fca8b)" style="fill: none; stroke: #b0b0b0; stroke-width: 0.8; stroke-linecap: square"/>
     </g>
     <g id="line2d_10">
      <g>
       <use xlink:href="#m9256405734" x="521.222404" y="256.32" style="stroke: #000000; stroke-width: 0.8"/>
      </g>
     </g>
     <g id="text_5">
      <!-- 8000 -->
      <g transform="translate(508.497404 270.918437) scale(0.1 -0.1)">
       <defs>
        <path id="DejaVuSans-38" d="M 2034 2216 
Q 1584 2216 1326 1975 
Q 1069 1734 1069 1313 
Q 1069 891 1326 650 
Q 1584 409 2034 409 
Q 2484 409 2743 651 
Q 3003 894 3003 1313 
Q 3003 1734 2745 1975 
Q 2488 2216 2034 2216 
z
M 1403 2484 
Q 997 2584 770 2862 
Q 544 3141 544 3541 
Q 544 4100 942 4425 
Q 1341 4750 2034 4750 
Q 2731 4750 3128 4425 
Q 3525 4100 3525 3541 
Q 3525 3141 3298 2862 
Q 3072 2584 2669 2484 
Q 3125 2378 3379 2068 
Q 3634 1759 3634 1313 
Q 3634 634 3220 271 
Q 2806 -91 2034 -91 
Q 1263 -91 848 271 
Q 434 634 434 1313 
Q 434 1759 690 2068 
Q 947 2378 1403 2484 
z
M 1172 3481 
Q 1172 3119 1398 2916 
Q 1625 2713 2034 2713 
Q 2441 2713 2670 2916 
Q 2900 3119 2900 3481 
Q 2900 3844 2670 4047 
Q 2441 4250 2034 4250 
Q 1625 4250 1398 4047 
Q 1172 3844 1172 3481 
z
" transform="scale(0.015625)"/>
       </defs>
       <use xlink:href="#DejaVuSans-38"/>
       <use xlink:href="#DejaVuSans-30" transform="translate(63.623047 0)"/>
       <use xlink:href="#DejaVuSans-30" transform="translate(127.246094 0)"/>
       <use xlink:href="#DejaVuSans-30" transform="translate(190.869141 0)"/>
      </g>
     </g>
    </g>
    <g id="xtick_6">
     <g id="line2d_11">
      <path d="M 622.687096 256.32 
L 622.687096 34.56 
" clip-path="url(#pbee93fca8b)" style="fill: none; stroke: #b0b0b0; stroke-width: 0.8; stroke-linecap: square"/>
     </g>
     <g id="line2d_12">
      <g>
       <use xlink:href="#m9256405734" x="622.687096" y="256.32" style="stroke: #000000; stroke-width: 0.8"/>
      </g>
     </g>
     <g id="text_6">
      <!-- 10000 -->
      <g transform="translate(606.780846 270.918437) scale(0.1 -0.1)">
       <defs>
        <path id="DejaVuSans-31" d="M 794 531 
L 1825 531 
L 1825 4091 
L 703 3866 
L 703 4441 
L 1819 4666 
L 2450 4666 
L 2450 531 
L 3481 531 
L 3481 0 
L 794 0 
L 794 531 
z
" transform="scale(0.015625)"/>
       </defs>
       <use xlink:href="#DejaVuSans-31"/>
       <use xlink:href="#DejaVuSans-30" transform="translate(63.623047 0)"/>
       <use xlink:href="#DejaVuSans-30" transform="translate(127.246094 0)"/>
       <use xlink:href="#DejaVuSans-30" transform="translate(190.869141 0)"/>
       <use xlink:href="#DejaVuSans-30" transform="translate(254.492188 0)"/>
      </g>
     </g>
    </g>
    <g id="text_7">
     <!-- Iterations -->
     <g transform="translate(335.661406 287.635938) scale(0.14 -0.14)">
      <defs>
       <path id="DejaVuSans-49" d="M 628 4666 
L 1259 4666 
L 1259 0 
L 628 0 
L 628 4666 
z
" transform="scale(0.015625)"/>
       <path id="DejaVuSans-74" d="M 1172 4494 
L 1172 3500 
L 2356 3500 
L 2356 3053 
L 1172 3053 
L 1172 1153 
Q 1172 725 1289 603 
Q 1406 481 1766 481 
L 2356 481 
L 2356 0 
L 1766 0 
Q 1100 0 847 248 
Q 594 497 594 1153 
L 594 3053 
L 172 3053 
L 172 3500 
L 594 3500 
L 594 4494 
L 1172 4494 
z
" transform="scale(0.015625)"/>
       <path id="DejaVuSans-65" d="M 3597 1894 
L 3597 1613 
L 953 1613 
Q 991 1019 1311 708 
Q 1631 397 2203 397 
Q 2534 397 2845 478 
Q 3156 559 3463 722 
L 3463 178 
Q 3153 47 2828 -22 
Q 2503 -91 2169 -91 
Q 1331 -91 842 396 
Q 353 884 353 1716 
Q 353 2575 817 3079 
Q 1281 3584 2069 3584 
Q 2775 3584 3186 3129 
Q 3597 2675 3597 1894 
z
M 3022 2063 
Q 3016 2534 2758 2815 
Q 2500 3097 2075 3097 
Q 1594 3097 1305 2825 
Q 1016 2553 972 2059 
L 3022 2063 
z
" transform="scale(0.015625)"/>
       <path id="DejaVuSans-72" d="M 2631 2963 
Q 2534 3019 2420 3045 
Q 2306 3072 2169 3072 
Q 1681 3072 1420 2755 
Q 1159 2438 1159 1844 
L 1159 0 
L 581 0 
L 581 3500 
L 1159 3500 
L 1159 2956 
Q 1341 3275 1631 3429 
Q 1922 3584 2338 3584 
Q 2397 3584 2469 3576 
Q 2541 3569 2628 3553 
L 2631 2963 
z
" transform="scale(0.015625)"/>
       <path id="DejaVuSans-61" d="M 2194 1759 
Q 1497 1759 1228 1600 
Q 959 1441 959 1056 
Q 959 750 1161 570 
Q 1363 391 1709 391 
Q 2188 391 2477 730 
Q 2766 1069 2766 1631 
L 2766 1759 
L 2194 1759 
z
M 3341 1997 
L 3341 0 
L 2766 0 
L 2766 531 
Q 2569 213 2275 61 
Q 1981 -91 1556 -91 
Q 1019 -91 701 211 
Q 384 513 384 1019 
Q 384 1609 779 1909 
Q 1175 2209 1959 2209 
L 2766 2209 
L 2766 2266 
Q 2766 2663 2505 2880 
Q 2244 3097 1772 3097 
Q 1472 3097 1187 3025 
Q 903 2953 641 2809 
L 641 3341 
Q 956 3463 1253 3523 
Q 1550 3584 1831 3584 
Q 2591 3584 2966 3190 
Q 3341 2797 3341 1997 
z
" transform="scale(0.015625)"/>
       <path id="DejaVuSans-69" d="M 603 3500 
L 1178 3500 
L 1178 0 
L 603 0 
L 603 3500 
z
M 603 4863 
L 1178 4863 
L 1178 4134 
L 603 4134 
L 603 4863 
z
" transform="scale(0.015625)"/>
       <path id="DejaVuSans-6f" d="M 1959 3097 
Q 1497 3097 1228 2736 
Q 959 2375 959 1747 
Q 959 1119 1226 758 
Q 1494 397 1959 397 
Q 2419 397 2687 759 
Q 2956 1122 2956 1747 
Q 2956 2369 2687 2733 
Q 2419 3097 1959 3097 
z
M 1959 3584 
Q 2709 3584 3137 3096 
Q 3566 2609 3566 1747 
Q 3566 888 3137 398 
Q 2709 -91 1959 -91 
Q 1206 -91 779 398 
Q 353 888 353 1747 
Q 353 2609 779 3096 
Q 1206 3584 1959 3584 
z
" transform="scale(0.015625)"/>
       <path id="DejaVuSans-6e" d="M 3513 2113 
L 3513 0 
L 2938 0 
L 2938 2094 
Q 2938 2591 2744 2837 
Q 2550 3084 2163 3084 
Q 1697 3084 1428 2787 
Q 1159 2491 1159 1978 
L 1159 0 
L 581 0 
L 581 3500 
L 1159 3500 
L 1159 2956 
Q 1366 3272 1645 3428 
Q 1925 3584 2291 3584 
Q 2894 3584 3203 3211 
Q 3513 2838 3513 2113 
z
" transform="scale(0.015625)"/>
       <path id="DejaVuSans-73" d="M 2834 3397 
L 2834 2853 
Q 2591 2978 2328 3040 
Q 2066 3103 1784 3103 
Q 1356 3103 1142 2972 
Q 928 2841 928 2578 
Q 928 2378 1081 2264 
Q 1234 2150 1697 2047 
L 1894 2003 
Q 2506 1872 2764 1633 
Q 3022 1394 3022 966 
Q 3022 478 2636 193 
Q 2250 -91 1575 -91 
Q 1294 -91 989 -36 
Q 684 19 347 128 
L 347 722 
Q 666 556 975 473 
Q 1284 391 1588 391 
Q 1994 391 2212 530 
Q 2431 669 2431 922 
Q 2431 1156 2273 1281 
Q 2116 1406 1581 1522 
L 1381 1569 
Q 847 1681 609 1914 
Q 372 2147 372 2553 
Q 372 3047 722 3315 
Q 1072 3584 1716 3584 
Q 2034 3584 2315 3537 
Q 2597 3491 2834 3397 
z
" transform="scale(0.015625)"/>
      </defs>
      <use xlink:href="#DejaVuSans-49"/>
      <use xlink:href="#DejaVuSans-74" transform="translate(29.492188 0)"/>
      <use xlink:href="#DejaVuSans-65" transform="translate(68.701172 0)"/>
      <use xlink:href="#DejaVuSans-72" transform="translate(130.224609 0)"/>
      <use xlink:href="#DejaVuSans-61" transform="translate(171.337891 0)"/>
      <use xlink:href="#DejaVuSans-74" transform="translate(232.617188 0)"/>
      <use xlink:href="#DejaVuSans-69" transform="translate(271.826172 0)"/>
      <use xlink:href="#DejaVuSans-6f" transform="translate(299.609375 0)"/>
      <use xlink:href="#DejaVuSans-6e" transform="translate(360.791016 0)"/>
      <use xlink:href="#DejaVuSans-73" transform="translate(424.169922 0)"/>
     </g>
    </g>
   </g>
   <g id="matplotlib.axis_2">
    <g id="ytick_1">
     <g id="line2d_13">
      <path d="M 90 236.426834 
L 648 236.426834 
" clip-path="url(#pbee93fca8b)" style="fill: none; stroke: #b0b0b0; stroke-width: 0.8; stroke-linecap: square"/>
     </g>
     <g id="line2d_14">
      <defs>
       <path id="m45465f2002" d="M 0 0 
L -3.5 0 
" style="stroke: #000000; stroke-width: 0.8"/>
      </defs>
      <g>
       <use xlink:href="#m45465f2002" x="90" y="236.426834" style="stroke: #000000; stroke-width: 0.8"/>
      </g>
     </g>
     <g id="text_8">
      <!-- −0.30 -->
      <g transform="translate(52.354687 240.226053) scale(0.1 -0.1)">
       <defs>
        <path id="DejaVuSans-2212" d="M 678 2272 
L 4684 2272 
L 4684 1741 
L 678 1741 
L 678 2272 
z
" transform="scale(0.015625)"/>
        <path id="DejaVuSans-2e" d="M 684 794 
L 1344 794 
L 1344 0 
L 684 0 
L 684 794 
z
" transform="scale(0.015625)"/>
        <path id="DejaVuSans-33" d="M 2597 2516 
Q 3050 2419 3304 2112 
Q 3559 1806 3559 1356 
Q 3559 666 3084 287 
Q 2609 -91 1734 -91 
Q 1441 -91 1130 -33 
Q 819 25 488 141 
L 488 750 
Q 750 597 1062 519 
Q 1375 441 1716 441 
Q 2309 441 2620 675 
Q 2931 909 2931 1356 
Q 2931 1769 2642 2001 
Q 2353 2234 1838 2234 
L 1294 2234 
L 1294 2753 
L 1863 2753 
Q 2328 2753 2575 2939 
Q 2822 3125 2822 3475 
Q 2822 3834 2567 4026 
Q 2313 4219 1838 4219 
Q 1578 4219 1281 4162 
Q 984 4106 628 3988 
L 628 4550 
Q 988 4650 1302 4700 
Q 1616 4750 1894 4750 
Q 2613 4750 3031 4423 
Q 3450 4097 3450 3541 
Q 3450 3153 3228 2886 
Q 3006 2619 2597 2516 
z
" transform="scale(0.015625)"/>
       </defs>
       <use xlink:href="#DejaVuSans-2212"/>
       <use xlink:href="#DejaVuSans-30" transform="translate(83.789062 0)"/>
       <use xlink:href="#DejaVuSans-2e" transform="translate(147.412109 0)"/>
       <use xlink:href="#DejaVuSans-33" transform="translate(179.199219 0)"/>
       <use xlink:href="#DejaVuSans-30" transform="translate(242.822266 0)"/>
      </g>
     </g>
    </g>
    <g id="ytick_2">
     <g id="line2d_15">
      <path d="M 90 204.462362 
L 648 204.462362 
" clip-path="url(#pbee93fca8b)" style="fill: none; stroke: #b0b0b0; stroke-width: 0.8; stroke-linecap: square"/>
     </g>
     <g id="line2d_16">
      <g>
       <use xlink:href="#m45465f2002" x="90" y="204.462362" style="stroke: #000000; stroke-width: 0.8"/>
      </g>
     </g>
     <g id="text_9">
      <!-- −0.25 -->
      <g transform="translate(52.354687 208.261581) scale(0.1 -0.1)">
       <defs>
        <path id="DejaVuSans-35" d="M 691 4666 
L 3169 4666 
L 3169 4134 
L 1269 4134 
L 1269 2991 
Q 1406 3038 1543 3061 
Q 1681 3084 1819 3084 
Q 2600 3084 3056 2656 
Q 3513 2228 3513 1497 
Q 3513 744 3044 326 
Q 2575 -91 1722 -91 
Q 1428 -91 1123 -41 
Q 819 9 494 109 
L 494 744 
Q 775 591 1075 516 
Q 1375 441 1709 441 
Q 2250 441 2565 725 
Q 2881 1009 2881 1497 
Q 2881 1984 2565 2268 
Q 2250 2553 1709 2553 
Q 1456 2553 1204 2497 
Q 953 2441 691 2322 
L 691 4666 
z
" transform="scale(0.015625)"/>
       </defs>
       <use xlink:href="#DejaVuSans-2212"/>
       <use xlink:href="#DejaVuSans-30" transform="translate(83.789062 0)"/>
       <use xlink:href="#DejaVuSans-2e" transform="translate(147.412109 0)"/>
       <use xlink:href="#DejaVuSans-32" transform="translate(179.199219 0)"/>
       <use xlink:href="#DejaVuSans-35" transform="translate(242.822266 0)"/>
      </g>
     </g>
    </g>
    <g id="ytick_3">
     <g id="line2d_17">
      <path d="M 90 172.49789 
L 648 172.49789 
" clip-path="url(#pbee93fca8b)" style="fill: none; stroke: #b0b0b0; stroke-width: 0.8; stroke-linecap: square"/>
     </g>
     <g id="line2d_18">
      <g>
       <use xlink:href="#m45465f2002" x="90" y="172.49789" style="stroke: #000000; stroke-width: 0.8"/>
      </g>
     </g>
     <g id="text_10">
      <!-- −0.20 -->
      <g transform="translate(52.354687 176.297108) scale(0.1 -0.1)">
       <use xlink:href="#DejaVuSans-2212"/>
       <use xlink:href="#DejaVuSans-30" transform="translate(83.789062 0)"/>
       <use xlink:href="#DejaVuSans-2e" transform="translate(147.412109 0)"/>
       <use xlink:href="#DejaVuSans-32" transform="translate(179.199219 0)"/>
       <use xlink:href="#DejaVuSans-30" transform="translate(242.822266 0)"/>
      </g>
     </g>
    </g>
    <g id="ytick_4">
     <g id="line2d_19">
      <path d="M 90 140.533417 
L 648 140.533417 
" clip-path="url(#pbee93fca8b)" style="fill: none; stroke: #b0b0b0; stroke-width: 0.8; stroke-linecap: square"/>
     </g>
     <g id="line2d_20">
      <g>
       <use xlink:href="#m45465f2002" x="90" y="140.533417" style="stroke: #000000; stroke-width: 0.8"/>
      </g>
     </g>
     <g id="text_11">
      <!-- −0.15 -->
      <g transform="translate(52.354687 144.332636) scale(0.1 -0.1)">
       <use xlink:href="#DejaVuSans-2212"/>
       <use xlink:href="#DejaVuSans-30" transform="translate(83.789062 0)"/>
       <use xlink:href="#DejaVuSans-2e" transform="translate(147.412109 0)"/>
       <use xlink:href="#DejaVuSans-31" transform="translate(179.199219 0)"/>
       <use xlink:href="#DejaVuSans-35" transform="translate(242.822266 0)"/>
      </g>
     </g>
    </g>
    <g id="ytick_5">
     <g id="line2d_21">
      <path d="M 90 108.568945 
L 648 108.568945 
" clip-path="url(#pbee93fca8b)" style="fill: none; stroke: #b0b0b0; stroke-width: 0.8; stroke-linecap: square"/>
     </g>
     <g id="line2d_22">
      <g>
       <use xlink:href="#m45465f2002" x="90" y="108.568945" style="stroke: #000000; stroke-width: 0.8"/>
      </g>
     </g>
     <g id="text_12">
      <!-- −0.10 -->
      <g transform="translate(52.354687 112.368164) scale(0.1 -0.1)">
       <use xlink:href="#DejaVuSans-2212"/>
       <use xlink:href="#DejaVuSans-30" transform="translate(83.789062 0)"/>
       <use xlink:href="#DejaVuSans-2e" transform="translate(147.412109 0)"/>
       <use xlink:href="#DejaVuSans-31" transform="translate(179.199219 0)"/>
       <use xlink:href="#DejaVuSans-30" transform="translate(242.822266 0)"/>
      </g>
     </g>
    </g>
    <g id="ytick_6">
     <g id="line2d_23">
      <path d="M 90 76.604472 
L 648 76.604472 
" clip-path="url(#pbee93fca8b)" style="fill: none; stroke: #b0b0b0; stroke-width: 0.8; stroke-linecap: square"/>
     </g>
     <g id="line2d_24">
      <g>
       <use xlink:href="#m45465f2002" x="90" y="76.604472" style="stroke: #000000; stroke-width: 0.8"/>
      </g>
     </g>
     <g id="text_13">
      <!-- −0.05 -->
      <g transform="translate(52.354687 80.403691) scale(0.1 -0.1)">
       <use xlink:href="#DejaVuSans-2212"/>
       <use xlink:href="#DejaVuSans-30" transform="translate(83.789062 0)"/>
       <use xlink:href="#DejaVuSans-2e" transform="translate(147.412109 0)"/>
       <use xlink:href="#DejaVuSans-30" transform="translate(179.199219 0)"/>
       <use xlink:href="#DejaVuSans-35" transform="translate(242.822266 0)"/>
      </g>
     </g>
    </g>
    <g id="ytick_7">
     <g id="line2d_25">
      <path d="M 90 44.64 
L 648 44.64 
" clip-path="url(#pbee93fca8b)" style="fill: none; stroke: #b0b0b0; stroke-width: 0.8; stroke-linecap: square"/>
     </g>
     <g id="line2d_26">
      <g>
       <use xlink:href="#m45465f2002" x="90" y="44.64" style="stroke: #000000; stroke-width: 0.8"/>
      </g>
     </g>
     <g id="text_14">
      <!-- 0.00 -->
      <g transform="translate(60.734375 48.439219) scale(0.1 -0.1)">
       <use xlink:href="#DejaVuSans-30"/>
       <use xlink:href="#DejaVuSans-2e" transform="translate(63.623047 0)"/>
       <use xlink:href="#DejaVuSans-30" transform="translate(95.410156 0)"/>
       <use xlink:href="#DejaVuSans-30" transform="translate(159.033203 0)"/>
      </g>
     </g>
    </g>
    <g id="text_15">
     <!-- Q-Value$(s_0, a_0)$ -->
     <g transform="translate(45.443125 196.89) rotate(-90) scale(0.14 -0.14)">
      <defs>
       <path id="DejaVuSans-51" d="M 2522 4238 
Q 1834 4238 1429 3725 
Q 1025 3213 1025 2328 
Q 1025 1447 1429 934 
Q 1834 422 2522 422 
Q 3209 422 3611 934 
Q 4013 1447 4013 2328 
Q 4013 3213 3611 3725 
Q 3209 4238 2522 4238 
z
M 3406 84 
L 4238 -825 
L 3475 -825 
L 2784 -78 
Q 2681 -84 2626 -87 
Q 2572 -91 2522 -91 
Q 1538 -91 948 567 
Q 359 1225 359 2328 
Q 359 3434 948 4092 
Q 1538 4750 2522 4750 
Q 3503 4750 4090 4092 
Q 4678 3434 4678 2328 
Q 4678 1516 4351 937 
Q 4025 359 3406 84 
z
" transform="scale(0.015625)"/>
       <path id="DejaVuSans-2d" d="M 313 2009 
L 1997 2009 
L 1997 1497 
L 313 1497 
L 313 2009 
z
" transform="scale(0.015625)"/>
       <path id="DejaVuSans-56" d="M 1831 0 
L 50 4666 
L 709 4666 
L 2188 738 
L 3669 4666 
L 4325 4666 
L 2547 0 
L 1831 0 
z
" transform="scale(0.015625)"/>
       <path id="DejaVuSans-6c" d="M 603 4863 
L 1178 4863 
L 1178 0 
L 603 0 
L 603 4863 
z
" transform="scale(0.015625)"/>
       <path id="DejaVuSans-75" d="M 544 1381 
L 544 3500 
L 1119 3500 
L 1119 1403 
Q 1119 906 1312 657 
Q 1506 409 1894 409 
Q 2359 409 2629 706 
Q 2900 1003 2900 1516 
L 2900 3500 
L 3475 3500 
L 3475 0 
L 2900 0 
L 2900 538 
Q 2691 219 2414 64 
Q 2138 -91 1772 -91 
Q 1169 -91 856 284 
Q 544 659 544 1381 
z
M 1991 3584 
L 1991 3584 
z
" transform="scale(0.015625)"/>
       <path id="DejaVuSans-28" d="M 1984 4856 
Q 1566 4138 1362 3434 
Q 1159 2731 1159 2009 
Q 1159 1288 1364 580 
Q 1569 -128 1984 -844 
L 1484 -844 
Q 1016 -109 783 600 
Q 550 1309 550 2009 
Q 550 2706 781 3412 
Q 1013 4119 1484 4856 
L 1984 4856 
z
" transform="scale(0.015625)"/>
       <path id="DejaVuSans-Oblique-73" d="M 3200 3397 
L 3091 2853 
Q 2863 2978 2609 3040 
Q 2356 3103 2088 3103 
Q 1634 3103 1373 2948 
Q 1113 2794 1113 2528 
Q 1113 2219 1719 2053 
Q 1766 2041 1788 2034 
L 1972 1978 
Q 2547 1819 2739 1644 
Q 2931 1469 2931 1166 
Q 2931 609 2489 259 
Q 2047 -91 1331 -91 
Q 1053 -91 747 -37 
Q 441 16 72 128 
L 184 722 
Q 500 559 806 475 
Q 1113 391 1394 391 
Q 1816 391 2080 572 
Q 2344 753 2344 1031 
Q 2344 1331 1650 1516 
L 1591 1531 
L 1394 1581 
Q 956 1697 753 1886 
Q 550 2075 550 2369 
Q 550 2928 970 3256 
Q 1391 3584 2113 3584 
Q 2397 3584 2667 3537 
Q 2938 3491 3200 3397 
z
" transform="scale(0.015625)"/>
       <path id="DejaVuSans-2c" d="M 750 794 
L 1409 794 
L 1409 256 
L 897 -744 
L 494 -744 
L 750 256 
L 750 794 
z
" transform="scale(0.015625)"/>
       <path id="DejaVuSans-Oblique-61" d="M 3438 1997 
L 3047 0 
L 2472 0 
L 2578 531 
Q 2325 219 2001 64 
Q 1678 -91 1281 -91 
Q 834 -91 548 182 
Q 263 456 263 884 
Q 263 1497 752 1853 
Q 1241 2209 2100 2209 
L 2900 2209 
L 2931 2363 
Q 2938 2388 2941 2417 
Q 2944 2447 2944 2509 
Q 2944 2788 2717 2942 
Q 2491 3097 2081 3097 
Q 1800 3097 1504 3025 
Q 1209 2953 897 2809 
L 997 3341 
Q 1322 3463 1633 3523 
Q 1944 3584 2234 3584 
Q 2853 3584 3176 3315 
Q 3500 3047 3500 2534 
Q 3500 2431 3484 2292 
Q 3469 2153 3438 1997 
z
M 2816 1759 
L 2241 1759 
Q 1534 1759 1195 1570 
Q 856 1381 856 984 
Q 856 709 1029 553 
Q 1203 397 1509 397 
Q 1978 397 2328 733 
Q 2678 1069 2791 1631 
L 2816 1759 
z
" transform="scale(0.015625)"/>
       <path id="DejaVuSans-29" d="M 513 4856 
L 1013 4856 
Q 1481 4119 1714 3412 
Q 1947 2706 1947 2009 
Q 1947 1309 1714 600 
Q 1481 -109 1013 -844 
L 513 -844 
Q 928 -128 1133 580 
Q 1338 1288 1338 2009 
Q 1338 2731 1133 3434 
Q 928 4138 513 4856 
z
" transform="scale(0.015625)"/>
      </defs>
      <use xlink:href="#DejaVuSans-51" transform="translate(0 0.015625)"/>
      <use xlink:href="#DejaVuSans-2d" transform="translate(78.710938 0.015625)"/>
      <use xlink:href="#DejaVuSans-56" transform="translate(114.794922 0.015625)"/>
      <use xlink:href="#DejaVuSans-61" transform="translate(183.203125 0.015625)"/>
      <use xlink:href="#DejaVuSans-6c" transform="translate(244.482422 0.015625)"/>
      <use xlink:href="#DejaVuSans-75" transform="translate(272.265625 0.015625)"/>
      <use xlink:href="#DejaVuSans-65" transform="translate(335.644531 0.015625)"/>
      <use xlink:href="#DejaVuSans-28" transform="translate(397.167969 0.015625)"/>
      <use xlink:href="#DejaVuSans-Oblique-73" transform="translate(436.181641 0.015625)"/>
      <use xlink:href="#DejaVuSans-30" transform="translate(488.28125 -16.390625) scale(0.7)"/>
      <use xlink:href="#DejaVuSans-2c" transform="translate(535.551758 0.015625)"/>
      <use xlink:href="#DejaVuSans-Oblique-61" transform="translate(586.821289 0.015625)"/>
      <use xlink:href="#DejaVuSans-30" transform="translate(648.100586 -16.390625) scale(0.7)"/>
      <use xlink:href="#DejaVuSans-29" transform="translate(695.371094 0.015625)"/>
     </g>
    </g>
   </g>
   <g id="line2d_27">
    <path d="M 115.363636 44.64 
L 115.566566 45.837273 
L 115.66803 45.837273 
L 115.972425 47.869589 
L 116.124622 47.869589 
L 116.327551 49.610406 
L 116.53048 49.610406 
L 116.682677 50.199232 
L 116.834874 50.199232 
L 117.037804 51.491587 
L 117.139268 51.491587 
L 117.291466 52.661904 
L 117.798789 55.336347 
L 117.950986 55.336347 
L 118.153915 57.985483 
L 118.25538 57.985483 
L 118.458309 61.408213 
L 118.509042 61.408213 
L 118.965633 63.171687 
L 119.067098 63.171687 
L 119.320759 67.263899 
L 119.422224 67.263899 
L 119.574421 68.725538 
L 119.726618 68.725538 
L 119.878815 69.576531 
L 120.031012 69.576531 
L 120.791997 75.678807 
L 120.893462 75.678807 
L 121.197856 78.694181 
L 121.350053 78.694181 
L 121.654447 82.134816 
L 121.70518 82.134816 
L 121.857377 84.175981 
L 121.908109 84.175981 
L 122.111038 85.873849 
L 122.821291 89.811187 
L 122.872024 89.811187 
L 122.922756 90.249383 
L 123.074953 91.922657 
L 123.277882 92.308771 
L 123.582276 95.20323 
L 123.683741 95.20323 
L 123.937403 97.355302 
L 124.140332 98.263314 
L 124.292529 99.975938 
L 124.343262 99.975938 
L 124.596923 102.478095 
L 124.698388 102.478095 
L 125.002782 103.956304 
L 125.053514 103.956304 
L 125.357909 107.845135 
L 125.713035 110.344934 
L 125.763767 110.344934 
L 125.915964 111.458187 
L 126.068161 114.476433 
L 126.169626 114.476433 
L 126.524752 116.877101 
L 126.575485 116.877101 
L 126.778414 118.876615 
L 127.285738 122.032223 
L 127.488667 123.482362 
L 127.539399 123.482362 
L 127.691596 124.337564 
L 127.793061 124.337564 
L 128.148188 128.394422 
L 128.19892 128.394422 
L 128.401849 130.313491 
L 128.452582 130.313491 
L 128.959905 133.716637 
L 129.010637 133.716637 
L 129.517961 136.651301 
L 129.568693 136.651301 
L 129.72089 136.962964 
L 129.873087 136.962964 
L 130.025284 139.359251 
L 130.329678 139.359251 
L 130.380411 139.576135 
L 130.58334 141.48218 
L 130.938467 143.187911 
L 131.293593 144.907442 
L 131.44579 148.324731 
L 131.699452 149.614127 
L 131.902381 149.614127 
L 132.054578 149.99252 
L 132.105311 149.99252 
L 133.018493 154.934086 
L 133.119957 154.934086 
L 133.272154 155.493712 
L 133.424352 155.786532 
L 133.475084 155.786532 
L 133.627281 157.199102 
L 133.83021 159.426953 
L 133.982407 159.872718 
L 134.185337 161.66154 
L 134.388266 163.392721 
L 134.946322 166.31003 
L 135.098519 167.373219 
L 135.250716 167.373219 
L 135.402913 169.155526 
L 135.758039 170.605074 
L 135.808772 170.605074 
L 135.960969 171.00908 
L 136.011701 171.00908 
L 136.163898 171.885721 
L 136.214631 171.984903 
L 136.519025 173.595842 
L 136.721954 174.793908 
L 136.874151 175.459902 
L 136.975616 175.459902 
L 137.127813 177.047815 
L 137.229277 177.047815 
L 137.381475 178.337476 
L 137.432207 178.337476 
L 137.584404 178.607452 
L 137.635136 178.565354 
L 137.787333 180.452849 
L 137.838066 180.452849 
L 138.193192 182.53241 
L 138.294657 182.53241 
L 138.446854 183.652073 
L 138.599051 184.079715 
L 138.700516 184.399101 
L 138.852713 185.897977 
L 139.055642 186.198963 
L 139.309304 188.602263 
L 139.410768 188.602263 
L 139.613698 189.373895 
L 139.765895 189.361593 
L 139.816627 189.746842 
L 139.918092 189.668202 
L 140.070289 189.668202 
L 140.222486 191.643367 
L 140.273218 191.643367 
L 140.729809 193.804856 
L 140.780542 193.804856 
L 140.932739 194.811027 
L 140.983471 194.811027 
L 141.084936 195.379589 
L 141.237133 196.836967 
L 141.287865 196.836967 
L 141.440062 197.385307 
L 141.642992 197.445517 
L 141.693724 196.913921 
L 141.845921 198.044452 
L 141.998118 198.086601 
L 142.454709 201.968369 
L 142.657638 201.968369 
L 142.708371 202.122643 
L 142.9113 203.726733 
L 143.063497 204.031613 
L 143.215694 205.6167 
L 143.621553 206.80254 
L 143.672285 206.77561 
L 143.875215 207.474933 
L 143.976679 208.252957 
L 144.027412 207.803062 
L 144.078144 208.333408 
L 144.128877 208.333408 
L 144.281074 209.535054 
L 144.433271 209.596587 
L 144.585468 211.819502 
L 144.889862 212.130736 
L 144.991326 212.130736 
L 145.143523 212.551248 
L 145.29572 214.365574 
L 145.447918 214.72582 
L 145.600115 214.72582 
L 145.752312 215.34311 
L 145.853776 215.34311 
L 146.005973 216.272759 
L 146.107438 216.411858 
L 146.3611 217.545926 
L 146.411832 217.333604 
L 146.462564 217.500032 
L 146.665494 218.425708 
L 146.716226 218.621621 
L 146.868423 219.848038 
L 146.919156 219.848038 
L 147.22355 221.544005 
L 147.274282 220.942485 
L 147.325014 221.014219 
L 147.375747 220.936293 
L 147.578676 220.936293 
L 147.832338 224.625505 
L 147.933802 224.625505 
L 148.136732 225.02786 
L 148.288929 224.821684 
L 148.593323 226.128367 
L 148.644055 226.05736 
L 148.796252 227.337728 
L 148.897717 227.337728 
L 149.151379 227.776064 
L 149.252843 227.776064 
L 149.303576 227.996602 
L 149.455773 229.619692 
L 149.658702 229.729318 
L 149.709435 229.806101 
L 149.861632 230.555867 
L 149.912364 229.90655 
L 149.963096 230.33759 
L 150.013829 230.33759 
L 150.166026 231.747906 
L 150.26749 231.715969 
L 150.318223 229.77223 
L 150.368955 231.509084 
L 150.622617 233.006446 
L 150.673349 232.969604 
L 150.927011 232.969604 
L 151.434334 234.641644 
L 151.535799 234.819754 
L 151.687996 235.405199 
L 151.738728 235.655856 
L 151.789461 235.499452 
L 151.840193 235.159508 
L 151.99239 231.598379 
L 152.043122 231.516526 
L 152.246052 234.402671 
L 152.347517 234.862474 
L 152.499714 236.328897 
L 152.601178 235.740812 
L 152.753375 236.10882 
L 152.905572 236.126012 
L 153.108502 237.055223 
L 153.260699 237.115756 
L 153.362163 237.717267 
L 153.412896 236.334247 
L 153.463628 237.061971 
L 153.666558 239.677132 
L 153.71729 239.779064 
L 153.768022 240.850399 
L 153.869487 240.824733 
L 153.970952 240.838141 
L 154.021684 240.333553 
L 154.224613 242.385352 
L 154.37681 243.218459 
L 154.57974 243.218459 
L 154.630472 243.485392 
L 154.782669 244.706151 
L 154.985599 243.91737 
L 155.087063 243.761628 
L 155.23926 244.294081 
L 155.543654 245.600641 
L 155.645119 245.549968 
L 155.797316 245.817767 
L 155.848048 245.706575 
L 155.898781 245.786479 
L 155.949513 245.786479 
L 156.10171 246.199699 
L 156.203175 246.199699 
L 156.253907 242.821782 
L 156.355372 243.397342 
L 156.406104 244.029178 
L 156.456837 243.721266 
L 156.558301 243.721266 
L 156.811963 245.734003 
L 156.862695 245.662273 
L 156.913428 244.626453 
L 156.96416 245.860708 
L 157.014892 245.185541 
L 157.065625 246.24 
L 157.167089 239.628007 
L 157.268554 240.374071 
L 157.674413 245.924241 
L 157.725145 245.908497 
L 157.928075 237.912085 
L 157.978807 237.912085 
L 158.029539 239.097772 
L 158.131004 236.798119 
L 158.181736 237.09588 
L 158.435398 241.881339 
L 158.790525 244.288645 
L 158.841257 244.288645 
L 158.891989 245.321514 
L 159.094919 228.436092 
L 159.145651 230.14947 
L 159.196383 224.40676 
L 159.247116 225.920339 
L 159.297848 226.823239 
L 159.34858 225.00173 
L 159.399313 226.340859 
L 159.602242 228.669632 
L 159.703707 228.582215 
L 159.805171 229.832589 
L 159.906636 230.78866 
L 159.957368 229.438324 
L 160.008101 229.777364 
L 160.058833 230.122197 
L 160.109566 229.8759 
L 160.160298 229.8759 
L 160.261763 231.048942 
L 160.312495 230.620872 
L 160.363227 230.620872 
L 160.464692 231.0864 
L 160.515424 230.902011 
L 160.566157 230.317204 
L 160.921283 236.151044 
L 160.972015 236.227337 
L 161.07348 237.081927 
L 161.174945 235.971575 
L 161.225677 236.851372 
L 161.377874 230.617031 
L 161.428606 231.638668 
L 161.479339 229.425236 
L 161.530071 230.684492 
L 161.580804 230.785283 
L 161.682268 232.105222 
L 161.733001 232.0142 
L 161.783733 231.748858 
L 161.885198 233.789252 
L 162.037395 229.435754 
L 162.392521 219.265867 
L 162.443253 220.270072 
L 162.646183 222.899151 
L 162.747647 221.7809 
L 162.79838 222.904944 
L 162.849112 222.22168 
L 162.899845 219.410756 
L 162.950577 219.833033 
L 163.204239 222.240457 
L 163.305703 221.979238 
L 163.356436 222.243322 
L 163.610097 225.563413 
L 163.66083 225.563413 
L 163.711562 225.765674 
L 163.863759 227.825931 
L 163.914491 227.775777 
L 164.015956 229.566489 
L 164.269618 211.557904 
L 164.32035 211.759296 
L 164.421815 210.93553 
L 164.472547 213.076769 
L 164.624744 206.915931 
L 164.827674 210.477155 
L 164.878406 210.243552 
L 164.979871 213.3623 
L 165.081335 210.553265 
L 165.132068 210.85669 
L 165.1828 210.436405 
L 165.487194 214.566077 
L 165.791588 217.450123 
L 165.842321 215.933386 
L 165.893053 217.33743 
L 165.943785 217.500971 
L 166.04525 220.389316 
L 166.095982 215.885007 
L 166.146715 217.556195 
L 166.197447 217.786952 
L 166.349644 214.460417 
L 166.451109 215.902186 
L 166.501841 216.572641 
L 166.552573 215.79046 
L 166.603306 216.563767 
L 167.009165 202.319013 
L 167.110629 203.03608 
L 167.161362 204.298537 
L 167.262826 197.846508 
L 167.313559 199.524261 
L 167.415023 201.268649 
L 167.465756 201.034319 
L 167.516488 200.479582 
L 167.719417 203.768553 
L 167.77015 203.768553 
L 168.023811 199.060954 
L 168.074544 200.773538 
L 168.125276 200.101147 
L 168.176009 199.664232 
L 168.277473 201.945494 
L 168.328206 199.977802 
L 168.378938 201.212821 
L 168.581867 205.055167 
L 168.6326 204.011328 
L 168.835529 208.543084 
L 169.038458 206.18962 
L 169.139923 209.976964 
L 169.342852 198.00943 
L 169.393585 198.411855 
L 169.444317 197.944817 
L 169.49505 198.321483 
L 169.545782 195.377934 
L 169.596514 197.562365 
L 169.647247 197.545172 
L 170.256035 207.199034 
L 170.306767 205.394186 
L 170.357499 206.230483 
L 170.611161 208.748613 
L 170.661893 208.465422 
L 170.712626 208.663625 
L 170.81409 210.369357 
L 170.915555 208.639162 
L 170.966288 209.600874 
L 171.067752 209.533289 
L 171.219949 211.847862 
L 171.270682 210.473606 
L 171.372146 210.975195 
L 171.422879 207.56579 
L 171.473611 207.624463 
L 171.625808 212.259143 
L 171.727273 209.696158 
L 171.778005 210.210866 
L 171.87947 211.580242 
L 171.930202 210.296915 
L 171.980934 211.565012 
L 172.031667 211.701996 
L 172.082399 213.136992 
L 172.234596 208.927705 
L 172.589723 214.303189 
L 172.640455 213.876865 
L 172.691187 211.197906 
L 172.74192 200.105884 
L 172.843384 200.684142 
L 172.944849 194.698072 
L 172.995581 196.227348 
L 173.046314 197.323768 
L 173.249243 184.258517 
L 173.299975 184.12974 
L 173.40144 186.538055 
L 173.452172 177.484376 
L 173.553637 179.076371 
L 173.655102 172.749976 
L 173.705834 174.819901 
L 173.756567 177.371429 
L 173.807299 176.929476 
L 173.858031 174.433905 
L 173.908764 175.498131 
L 173.959496 178.034191 
L 174.010228 176.149075 
L 174.060961 177.25796 
L 174.111693 176.694789 
L 174.162425 172.00277 
L 174.213158 173.437539 
L 174.365355 177.918048 
L 174.517552 163.626266 
L 174.669749 165.461557 
L 174.974143 170.906558 
L 175.177072 175.737865 
L 175.227805 176.984378 
L 175.278537 174.609964 
L 175.329269 176.087755 
L 175.78586 187.337049 
L 175.836593 185.258987 
L 175.887325 186.150544 
L 176.090254 188.876171 
L 176.140987 189.266489 
L 176.293184 171.835672 
L 176.394649 174.246863 
L 176.445381 175.368914 
L 176.496113 172.095207 
L 176.546846 172.853306 
L 176.597578 172.904387 
L 176.749775 176.284676 
L 177.003437 181.088613 
L 177.054169 178.651547 
L 177.104901 180.585499 
L 177.307831 184.122935 
L 177.358563 183.124641 
L 177.409295 182.894351 
L 177.561493 187.16685 
L 177.612225 185.299808 
L 177.662957 185.910221 
L 177.764422 188.880372 
L 177.815154 188.369148 
L 178.018084 182.168889 
L 178.068816 184.078294 
L 178.271745 166.341748 
L 178.37321 167.716542 
L 178.474675 170.14494 
L 178.525407 168.166649 
L 178.576139 169.323548 
L 178.626872 171.737958 
L 178.728336 171.288025 
L 178.779069 173.472036 
L 178.829801 173.257903 
L 178.931266 164.55193 
L 179.032731 165.578446 
L 179.286392 173.018172 
L 179.387857 173.303616 
L 179.438589 172.938519 
L 179.489322 162.493818 
L 179.590786 162.588996 
L 179.844448 170.850217 
L 179.89518 170.790626 
L 180.047377 159.649701 
L 180.09811 161.625645 
L 180.301039 154.702229 
L 180.554701 162.030734 
L 180.605433 158.38643 
L 180.656166 160.926834 
L 180.808363 162.951761 
L 180.859095 165.15815 
L 180.909827 160.862977 
L 180.96056 162.741357 
L 181.011292 163.197981 
L 181.062024 161.103089 
L 181.112757 162.341689 
L 181.518615 169.039822 
L 181.569348 168.574913 
L 181.670813 158.179827 
L 181.721545 159.329575 
L 181.82301 156.821875 
L 181.873742 157.784782 
L 182.025939 162.546705 
L 182.076671 160.580455 
L 182.330333 165.116099 
L 182.381065 165.116099 
L 182.48253 167.273593 
L 182.583995 167.176665 
L 182.837656 174.779022 
L 182.888389 174.48808 
L 182.989854 168.049024 
L 183.091318 162.327708 
L 183.142051 164.272997 
L 183.192783 165.732784 
L 183.243515 156.029421 
L 183.294248 156.920666 
L 183.34498 159.458548 
L 183.497177 151.503487 
L 183.598642 153.585608 
L 183.649374 152.939636 
L 183.700106 153.656137 
L 183.852303 156.228937 
L 183.903036 154.946533 
L 183.953768 147.0851 
L 184.0045 147.365698 
L 184.055233 148.948195 
L 184.156697 148.877163 
L 184.359627 152.812278 
L 184.562556 143.467489 
L 184.613289 144.92821 
L 184.664021 145.420171 
L 184.816218 150.684516 
L 184.86695 147.176122 
L 184.917683 149.122622 
L 185.171344 158.056262 
L 185.272809 155.59188 
L 185.323541 156.348916 
L 185.374274 157.96984 
L 185.475738 153.213272 
L 185.627936 158.413931 
L 185.678668 149.534858 
L 185.7294 151.148382 
L 185.881597 156.242175 
L 185.93233 155.433011 
L 186.033794 151.537309 
L 186.287456 158.506834 
L 186.338188 150.659264 
L 186.388921 151.551053 
L 186.490385 153.411372 
L 186.541118 151.586452 
L 186.693315 155.957282 
L 186.794779 144.074403 
L 186.896244 146.228468 
L 186.946977 147.885288 
L 187.149906 135.59009 
L 187.251371 140.633479 
L 187.302103 135.206994 
L 187.352835 135.980184 
L 187.4543 139.744172 
L 187.505032 138.178344 
L 187.555765 140.128258 
L 187.657229 129.645891 
L 187.707962 132.265603 
L 187.758694 132.097079 
L 187.910891 134.487191 
L 188.063088 139.341811 
L 188.11382 137.761315 
L 188.164553 138.198164 
L 188.215285 139.370988 
L 188.367482 137.188034 
L 188.519679 139.128757 
L 188.570412 133.561061 
L 188.621144 136.094979 
L 188.773341 139.48069 
L 188.824073 140.099372 
L 188.97627 143.52135 
L 189.1792 130.1188 
L 189.432861 136.202596 
L 189.483594 133.880761 
L 189.534326 136.463387 
L 189.585059 137.64141 
L 189.635791 132.148638 
L 189.686523 135.276476 
L 190.04165 145.873226 
L 190.092382 144.296033 
L 190.143114 144.439118 
L 190.193847 147.337235 
L 190.244579 147.234499 
L 190.346044 141.655906 
L 190.548973 149.580557 
L 190.751902 134.014681 
L 191.005564 138.005104 
L 191.309958 150.19272 
L 191.462155 153.929385 
L 191.512888 151.558855 
L 191.614352 137.283909 
L 191.665085 138.388225 
L 191.868014 141.105874 
L 191.918746 137.007619 
L 191.969479 139.218049 
L 192.020211 141.525097 
L 192.070943 140.428367 
L 192.121676 139.95555 
L 192.273873 144.429761 
L 192.324605 141.985661 
L 192.375338 145.038932 
L 192.42607 144.66495 
L 192.476802 138.3169 
L 192.527535 140.077982 
L 192.578267 142.699096 
L 192.781196 127.083998 
L 192.831929 128.361026 
L 192.882661 124.524726 
L 192.933393 126.606562 
L 193.136323 133.526036 
L 193.28852 127.758405 
L 193.542181 137.637302 
L 193.592914 136.486394 
L 193.846576 120.921466 
L 194.049505 130.350312 
L 194.100237 126.372499 
L 194.15097 128.967589 
L 194.455364 140.402373 
L 194.658293 129.408837 
L 194.81049 132.407267 
L 194.861222 131.330343 
L 194.911955 133.327239 
L 194.962687 132.686656 
L 195.064152 127.454341 
L 195.165617 130.980987 
L 195.267081 123.186543 
L 195.317814 126.894236 
L 195.368546 130.055532 
L 195.520743 124.592356 
L 195.571475 124.512586 
L 195.622208 121.254507 
L 195.67294 123.095482 
L 195.723672 126.40996 
L 195.774405 123.052019 
L 195.875869 127.663858 
L 195.926602 127.53755 
L 196.028066 120.655933 
L 196.078799 122.183123 
L 196.180263 125.75271 
L 196.433925 132.623945 
L 196.484658 132.209813 
L 196.636855 139.282248 
L 196.687587 138.844164 
L 196.738319 133.357455 
L 196.789052 135.138036 
L 196.890516 139.562029 
L 196.941249 138.077874 
L 196.991981 132.730052 
L 197.093446 132.816157 
L 197.144178 135.76476 
L 197.19491 135.32115 
L 197.245643 134.640229 
L 197.448572 123.285138 
L 197.499304 123.730478 
L 197.550037 125.780542 
L 197.600769 122.225217 
L 197.651502 125.639832 
L 197.702234 126.447506 
L 197.905163 133.939419 
L 197.955896 129.23563 
L 198.006628 130.463601 
L 198.05736 132.268518 
L 198.158825 124.328135 
L 198.209557 126.110104 
L 198.26029 127.266535 
L 198.311022 123.719392 
L 198.361754 125.043249 
L 198.615416 135.740504 
L 198.666148 136.670367 
L 198.716881 136.292948 
L 198.767613 131.699726 
L 198.818345 133.841012 
L 198.91981 139.723042 
L 198.970543 139.49233 
L 199.173472 126.938563 
L 199.224204 123.207527 
L 199.274937 125.55473 
L 199.427134 128.945846 
L 199.680795 133.207091 
L 199.78226 124.476104 
L 199.832992 125.587753 
L 199.985189 132.070201 
L 200.086654 124.059391 
L 200.137386 127.041927 
L 200.391048 134.598929 
L 200.441781 129.513044 
L 200.492513 130.429606 
L 200.593978 134.214924 
L 200.695442 139.769009 
L 200.746175 133.949487 
L 200.796907 136.829941 
L 200.898372 137.643557 
L 200.999836 142.68259 
L 201.050569 141.953677 
L 201.202766 132.712897 
L 201.30423 131.082656 
L 201.405695 134.682352 
L 201.608624 122.704061 
L 201.659357 125.186488 
L 201.913019 115.746808 
L 202.16668 127.302868 
L 202.420342 116.363402 
L 202.572539 122.594781 
L 202.623271 119.628121 
L 202.674004 121.954358 
L 202.826201 128.892946 
L 202.978398 124.756041 
L 203.02913 125.744704 
L 203.079863 122.228012 
L 203.130595 124.068418 
L 203.434989 134.780571 
L 203.485721 133.254646 
L 203.536454 128.4132 
L 203.587186 130.650709 
L 203.637918 132.586009 
L 203.840848 118.280622 
L 204.246706 132.539027 
L 204.348171 126.818295 
L 204.500368 130.866936 
L 204.703298 121.298384 
L 204.804762 128.954444 
L 204.906227 128.869401 
L 205.007692 131.279579 
L 205.159889 124.171352 
L 205.312086 127.81886 
L 205.61648 139.013633 
L 205.667212 138.602644 
L 205.920874 137.226767 
L 205.971606 137.234316 
L 206.174536 136.234719 
L 206.326733 137.2128 
L 206.47893 136.752886 
L 206.529662 137.02406 
L 206.580394 136.767501 
L 206.631127 136.910149 
L 206.783324 136.519339 
L 206.834056 136.591872 
L 206.986253 136.151892 
L 207.087718 136.100098 
L 207.13845 136.613584 
L 207.189183 136.22758 
L 207.239915 135.840588 
L 207.290647 136.232754 
L 207.392112 136.322458 
L 207.950168 133.631603 
L 208.0009 133.969314 
L 208.051632 133.749657 
L 208.153097 134.030779 
L 208.305294 133.442678 
L 208.356027 133.949124 
L 208.406759 133.435319 
L 208.508224 133.022295 
L 208.558956 133.104909 
L 208.711153 133.457324 
L 208.761885 133.457324 
L 208.86335 136.315061 
L 209.015547 130.591167 
L 209.066279 132.022051 
L 209.117012 127.324157 
L 209.167744 129.161159 
L 209.218476 128.858595 
L 209.319941 121.46042 
L 209.370673 123.408326 
L 209.472138 128.563627 
L 209.624335 122.508286 
L 209.675068 125.033536 
L 209.776532 118.635822 
L 209.827265 121.788583 
L 209.877997 123.199562 
L 209.928729 120.076774 
L 209.979462 121.092399 
L 210.182391 129.69999 
L 210.283856 121.877745 
L 210.334588 124.937897 
L 210.38532 127.852042 
L 210.436053 127.128064 
L 210.537517 120.315542 
L 210.58825 121.997385 
L 210.638982 124.583648 
L 210.841911 114.44492 
L 210.892644 116.570295 
L 210.943376 114.889681 
L 211.044841 112.027921 
L 211.197038 116.985513 
L 211.349235 112.353477 
L 211.552164 117.659773 
L 211.602897 115.688153 
L 211.704361 120.381209 
L 211.755094 117.640467 
L 211.805826 119.40427 
L 211.856558 120.805754 
L 211.958023 117.675644 
L 212.059488 122.20684 
L 212.11022 119.311527 
L 212.160952 122.55342 
L 212.363882 127.697062 
L 212.414614 128.13018 
L 212.566811 122.687722 
L 212.617544 125.284577 
L 212.668276 124.08258 
L 212.719008 120.598323 
L 212.769741 122.703891 
L 212.871205 127.976073 
L 213.023402 118.049582 
L 213.074135 119.324365 
L 213.124867 116.934199 
L 213.175599 119.343041 
L 213.327796 126.86511 
L 213.429261 124.753478 
L 213.479993 124.734343 
L 213.530726 126.240011 
L 213.682923 117.131787 
L 213.733655 119.23672 
L 213.885852 113.192107 
L 214.038049 118.142382 
L 214.240979 113.976828 
L 214.342443 111.348392 
L 214.49464 120.794388 
L 214.596105 120.298314 
L 214.646837 117.632677 
L 214.69757 120.168361 
L 214.748302 123.962083 
L 214.799034 120.691414 
L 214.849767 122.313322 
L 214.951231 117.046992 
L 215.001964 119.067602 
L 215.103429 124.32701 
L 215.204893 118.335054 
L 215.255626 120.864915 
L 215.458555 115.478277 
L 215.712217 125.923444 
L 215.965878 130.608603 
L 216.016611 131.021582 
L 216.067343 130.682263 
L 216.168808 130.162896 
L 216.21954 130.439808 
L 216.270272 130.36721 
L 216.321005 130.36721 
L 216.828328 128.910618 
L 216.879061 128.61571 
L 216.929793 128.945153 
L 216.980525 129.244151 
L 217.031258 129.034298 
L 217.08199 129.161262 
L 217.132722 128.95526 
L 217.183455 129.204034 
L 218.096637 127.155801 
L 218.299566 126.611186 
L 218.553228 126.302666 
L 218.654693 126.353699 
L 218.705425 126.902184 
L 218.756157 126.756288 
L 218.908354 126.433332 
L 218.959087 126.809003 
L 219.009819 126.602338 
L 219.060552 126.499083 
L 219.111284 126.584115 
L 219.162016 126.584115 
L 219.66934 125.450853 
L 219.720072 125.458022 
L 219.821537 125.170499 
L 219.872269 125.801379 
L 219.923001 125.646469 
L 220.024466 125.39163 
L 220.075198 125.618021 
L 220.125931 125.498925 
L 220.176663 125.351212 
L 220.278128 125.391901 
L 220.481057 125.101119 
L 220.683987 124.590198 
L 220.734719 124.970179 
L 220.785451 124.817802 
L 221.19131 123.952389 
L 221.800098 122.877925 
L 222.003028 122.477542 
L 222.05376 122.906094 
L 222.104492 122.791787 
L 222.256689 122.223192 
L 222.459619 122.697318 
L 222.510351 122.640813 
L 222.865477 121.929264 
L 222.966942 121.873715 
L 223.017674 121.807309 
L 223.068407 122.400249 
L 223.119139 122.254725 
L 223.220604 122.15406 
L 223.271336 122.123561 
L 223.372801 121.807456 
L 223.524998 123.013451 
L 223.677195 122.505094 
L 223.727927 122.811394 
L 223.77866 122.754673 
L 224.032321 122.456384 
L 224.235251 116.199434 
L 224.336715 122.007677 
L 224.539645 115.868786 
L 224.590377 119.472022 
L 224.691842 118.957983 
L 224.894771 111.637468 
L 224.996236 114.623936 
L 225.046968 112.957285 
L 225.097701 116.363272 
L 225.148433 114.433122 
L 225.452827 108.809125 
L 225.554292 107.958218 
L 225.706489 116.696265 
L 225.757221 114.658263 
L 226.061615 108.704765 
L 226.16308 108.016698 
L 226.366009 117.674881 
L 226.467474 113.811928 
L 226.670403 120.884311 
L 226.721136 120.819731 
L 226.771868 123.510139 
L 226.873333 123.350507 
L 226.924065 123.269767 
L 226.974797 123.667326 
L 227.02553 123.586905 
L 227.076262 123.337017 
L 227.126995 123.597442 
L 227.431389 123.308294 
L 227.68505 122.841853 
L 227.735783 123.513956 
L 227.837247 123.424665 
L 228.090909 122.838236 
L 228.344571 122.299427 
L 228.395303 122.215065 
L 228.496768 122.500862 
L 228.598233 122.262008 
L 228.648965 122.679472 
L 228.699697 122.472942 
L 229.207021 121.51149 
L 229.308485 121.332414 
L 229.359218 121.767224 
L 229.460682 121.722042 
L 229.511415 121.746064 
L 229.714344 121.560369 
L 229.866541 121.324548 
L 230.069471 121.07632 
L 230.170935 120.997544 
L 230.323132 120.863175 
L 230.830456 120.19167 
L 230.881188 120.197828 
L 231.13485 119.822423 
L 231.185582 119.776202 
L 231.236315 120.087282 
L 231.287047 119.974409 
L 231.388512 119.904339 
L 231.439244 120.237146 
L 231.489976 120.167311 
L 231.946567 119.471982 
L 231.9973 119.55361 
L 232.098764 119.941594 
L 232.149497 119.907059 
L 232.200229 120.004615 
L 232.250961 119.92369 
L 232.403158 119.593818 
L 232.758285 119.172697 
L 232.85975 119.44546 
L 233.417805 118.706023 
L 233.671467 118.597202 
L 233.925129 110.695509 
L 234.077326 119.459385 
L 234.178791 119.251181 
L 234.635382 118.839943 
L 234.889043 118.530488 
L 234.990508 118.472028 
L 235.345635 117.958252 
L 235.396367 118.324665 
L 235.447099 118.224586 
L 235.954423 117.820044 
L 236.005155 117.734083 
L 236.055887 118.014459 
L 236.10662 117.916713 
L 236.664676 117.363921 
L 236.715408 117.424478 
L 236.76614 117.329426 
L 237.983717 116.267637 
L 238.034449 116.82998 
L 238.135914 116.746169 
L 238.186646 117.077737 
L 238.237378 117.035256 
L 238.541772 116.772902 
L 238.795434 116.620277 
L 239.049096 116.310071 
L 239.099828 116.365285 
L 239.150561 116.311696 
L 239.607152 116.009026 
L 239.657884 116.228025 
L 239.708616 116.174571 
L 240.063743 115.843841 
L 240.266672 116.361195 
L 240.672531 116.046932 
L 240.723263 116.162806 
L 240.773996 116.113105 
L 241.027657 115.838157 
L 241.332051 115.559876 
L 241.534981 115.506319 
L 241.788643 115.194759 
L 241.839375 115.194759 
L 241.991572 119.090673 
L 242.093037 118.917708 
L 242.448163 118.399211 
L 242.60036 118.321798 
L 242.854022 118.077164 
L 243.46281 117.488484 
L 243.513542 117.683243 
L 243.564275 117.572196 
L 244.071598 116.886867 
L 244.173063 116.796555 
L 244.274527 116.834421 
L 244.629654 116.599135 
L 244.731119 113.060429 
L 244.781851 114.851332 
L 244.832583 117.733212 
L 244.883316 115.495086 
L 244.934048 113.750823 
L 244.98478 117.288278 
L 245.035513 115.052532 
L 245.086245 113.224677 
L 245.18771 119.15596 
L 245.238442 119.078586 
L 245.289174 119.230575 
L 245.390639 114.593141 
L 245.441371 117.843035 
L 245.492104 115.535486 
L 245.745765 109.322119 
L 245.796498 112.161035 
L 245.84723 110.979424 
L 246.100892 107.962109 
L 246.608215 106.612722 
L 246.658948 106.577064 
L 246.70968 110.491973 
L 246.760412 109.672705 
L 246.861877 108.616465 
L 247.064806 117.590171 
L 247.115539 117.627992 
L 247.166271 115.475371 
L 247.217004 118.025171 
L 247.267736 115.679291 
L 247.318468 118.200249 
L 247.369201 115.867248 
L 247.470665 112.404167 
L 247.622862 120.756404 
L 247.673595 120.633547 
L 248.028721 120.331455 
L 248.180918 120.286678 
L 248.586777 119.660022 
L 248.840439 119.491415 
L 249.144833 119.109878 
L 249.347762 119.009077 
L 249.804353 118.476229 
L 249.905818 118.894912 
L 250.108747 118.665925 
L 250.15948 118.76815 
L 250.210212 118.683244 
L 250.565338 118.4235 
L 250.920465 118.00108 
L 251.123394 117.879448 
L 251.326324 117.578287 
L 251.377056 117.698321 
L 251.427788 117.581373 
L 251.579985 117.455137 
L 251.732182 117.359574 
L 251.833647 117.339352 
L 252.087309 110.013023 
L 252.34097 107.575974 
L 252.5439 106.975951 
L 252.696097 106.885114 
L 252.746829 110.473628 
L 252.797562 109.634002 
L 253.000491 107.866328 
L 253.051223 111.78126 
L 253.101956 110.677384 
L 253.20342 109.123695 
L 253.254153 112.88213 
L 253.304885 111.513511 
L 253.558547 108.564882 
L 253.812208 107.131113 
L 254.167335 106.739842 
L 254.218067 110.800898 
L 254.2688 109.947775 
L 254.522461 107.518522 
L 254.573194 111.824496 
L 254.623926 110.709436 
L 254.877588 107.806468 
L 254.979052 107.333797 
L 255.029785 111.435221 
L 255.080517 110.445074 
L 255.384911 107.509908 
L 255.435644 107.294032 
L 255.486376 111.373251 
L 255.537108 110.414978 
L 255.79077 107.765428 
L 256.044432 106.87455 
L 256.247361 106.656899 
L 256.602488 106.493304 
L 256.754685 106.472232 
L 256.906882 112.803929 
L 256.957614 111.444356 
L 257.211276 108.099437 
L 257.414205 107.101544 
L 257.464937 111.220709 
L 257.51567 110.224158 
L 257.820064 107.433174 
L 258.073726 106.773557 
L 258.124458 106.799704 
L 258.428852 106.59771 
L 258.631781 106.626018 
L 258.733246 106.63385 
L 258.783978 110.94739 
L 258.834711 110.044938 
L 259.088372 107.618791 
L 259.342034 106.882998 
L 259.544964 106.654392 
L 259.595696 106.639679 
L 259.646428 110.910987 
L 259.697161 109.969931 
L 259.849358 108.157386 
L 259.90009 111.962211 
L 259.950822 110.805859 
L 260.204484 107.810063 
L 260.305949 107.305075 
L 260.356681 111.368271 
L 260.407413 110.398304 
L 260.661075 107.75657 
L 260.864005 106.946599 
L 260.965469 106.874102 
L 261.066934 106.718883 
L 261.117666 110.748171 
L 261.168399 109.908878 
L 261.42206 107.547585 
L 261.472793 107.404688 
L 261.523525 109.835874 
L 261.574257 109.11631 
L 261.726454 107.914217 
L 261.777187 111.72353 
L 261.827919 110.638375 
L 262.030849 108.180629 
L 262.081581 112.370295 
L 262.132313 111.192887 
L 262.385975 107.978891 
L 262.639637 106.9435 
L 262.944031 106.677546 
L 263.096228 106.618727 
L 263.552819 106.470842 
L 263.755748 106.413712 
L 263.907945 106.45513 
L 263.958678 109.915637 
L 264.00941 109.254675 
L 264.060142 108.651691 
L 264.110875 112.080907 
L 264.161607 110.951889 
L 264.415269 108.002185 
L 264.567466 107.328103 
L 264.618198 111.326012 
L 264.668931 110.308931 
L 264.922592 107.620736 
L 265.125522 106.978418 
L 265.176254 111.308826 
L 265.226986 110.341801 
L 265.480648 107.694137 
L 265.785042 106.714995 
L 265.835774 106.70607 
L 265.987972 114.403054 
L 266.241633 108.960488 
L 266.546027 107.233659 
L 266.799689 106.700562 
L 266.951886 106.649445 
L 267.814336 106.516542 
L 267.865068 110.770888 
L 267.915801 109.90572 
L 268.169462 107.494084 
L 268.220195 110.524013 
L 268.270927 109.657918 
L 268.524589 107.482349 
L 268.676786 106.985527 
L 268.727518 111.373267 
L 268.778251 110.433177 
L 268.879715 109.040307 
L 268.930448 112.827676 
L 268.98118 111.507648 
L 269.234842 108.007063 
L 269.285574 111.970467 
L 269.336306 110.87184 
L 269.589968 107.835844 
L 269.792897 107.082156 
L 269.84363 111.343501 
L 269.894362 110.302877 
L 270.148024 107.648853 
L 270.401686 106.82822 
L 270.452418 110.911914 
L 270.50315 109.995029 
L 270.756812 107.563017 
L 270.858277 107.140667 
L 270.909009 111.215538 
L 270.959741 110.273881 
L 271.213403 107.682674 
L 271.669994 106.59794 
L 272.177318 106.534263 
L 272.380247 106.483811 
L 272.481712 106.525481 
L 272.532444 110.332715 
L 272.583176 109.500449 
L 272.836838 107.504433 
L 273.0905 106.805696 
L 273.445626 106.662255 
L 273.547091 106.621033 
L 273.75002 106.499785 
L 274.155879 106.461054 
L 274.460273 106.512917 
L 274.663203 106.652916 
L 274.866132 106.596149 
L 274.967597 113.8931 
L 275.069061 113.793381 
L 275.271991 113.659503 
L 275.67785 113.481383 
L 275.779314 113.717693 
L 276.134441 113.487533 
L 276.793961 113.338284 
L 277.250552 113.186226 
L 278.163735 112.717218 
L 278.214467 113.05778 
L 278.315932 113.039832 
L 278.671058 112.939695 
L 279.076917 112.861445 
L 279.127649 112.857157 
L 279.381311 108.490477 
L 279.533508 107.52424 
L 279.58424 111.526852 
L 279.634973 110.467981 
L 279.888634 107.744191 
L 280.142296 106.913455 
L 280.395958 106.645542 
L 280.497422 106.636036 
L 280.852549 106.462965 
L 281.004746 106.411256 
L 281.055478 110.58158 
L 281.106211 109.701655 
L 281.359872 107.436001 
L 281.613534 106.813347 
L 281.867196 106.558103 
L 282.070125 106.541527 
L 282.222322 106.497683 
L 282.628181 106.455267 
L 282.678913 106.515775 
L 282.83111 113.294855 
L 283.287701 113.13687 
L 283.389166 113.13687 
L 283.642828 108.582345 
L 283.89649 107.187371 
L 284.251616 106.637004 
L 284.454545 106.61701 
L 284.505278 106.63334 
L 284.55601 109.745559 
L 284.606742 109.036416 
L 284.860404 107.311475 
L 285.063334 106.843044 
L 285.215531 114.825485 
L 285.266263 114.797494 
L 285.925783 114.444044 
L 286.636036 114.172344 
L 288.310204 113.448157 
L 288.462401 113.366447 
L 288.513133 113.604283 
L 288.614598 113.580304 
L 290.136568 113.171855 
L 290.39023 113.060161 
L 290.694624 113.066647 
L 291.151215 112.919628 
L 292.723918 112.305972 
L 292.876115 112.467121 
L 293.028312 112.376154 
L 293.890762 112.130882 
L 294.042959 112.050191 
L 294.195156 112.304308 
L 294.398085 112.143176 
L 294.854676 112.035163 
L 295.108338 108.235575 
L 295.412732 106.996151 
L 295.666394 106.621152 
L 296.782506 106.493825 
L 296.934703 106.613417 
L 296.985435 106.56581 
L 297.036167 110.743221 
L 297.0869 109.847065 
L 297.340561 107.461722 
L 297.594223 106.738511 
L 297.847885 106.594675 
L 297.949349 106.58194 
L 298.253744 106.538826 
L 298.405941 106.545709 
L 299.014729 106.524958 
L 299.166926 106.587915 
L 299.47132 106.510351 
L 299.623517 106.512105 
L 299.826446 106.499609 
L 299.877179 110.43631 
L 299.927911 109.580013 
L 300.232305 107.205216 
L 300.485967 106.750517 
L 300.587431 106.651543 
L 300.688896 106.831403 
L 300.942558 106.652514 
L 301.449881 106.534666 
L 301.500614 110.71525 
L 301.602078 110.706842 
L 301.703543 110.704704 
L 301.957205 107.756295 
L 302.261599 106.79757 
L 302.616725 106.597391 
L 304.493822 106.551728 
L 304.798216 106.564404 
L 305.863595 106.461344 
L 305.914328 110.884086 
L 305.96506 109.964517 
L 306.16799 107.832431 
L 306.218722 111.862371 
L 306.320187 111.842587 
L 307.284101 111.606461 
L 313.32125 110.704983 
L 313.574912 107.824023 
L 313.828574 106.969823 
L 314.082235 106.651087 
L 314.335897 106.53726 
L 315.350544 106.508633 
L 315.401276 110.656552 
L 315.502741 110.642804 
L 315.553474 110.636323 
L 315.604206 110.745939 
L 315.857868 107.735946 
L 316.111529 106.844415 
L 316.263726 106.643288 
L 316.314459 106.721718 
L 316.669585 106.522576 
L 316.821782 106.619305 
L 317.126176 106.551513 
L 317.532035 106.520087 
L 317.836429 106.533901 
L 317.988626 106.603492 
L 318.445217 106.49733 
L 318.851076 106.50006 
L 318.952541 106.513991 
L 319.003273 110.634549 
L 319.104738 110.621792 
L 320.068652 110.47458 
L 320.271582 110.413496 
L 321.53989 110.227094 
L 321.74282 110.188353 
L 322.047214 107.391789 
L 322.300876 106.759131 
L 322.554537 106.561768 
L 322.960396 106.509854 
L 323.112593 106.530265 
L 323.772114 106.548865 
L 323.822846 106.667085 
L 323.873578 106.620421 
L 324.279437 106.484181 
L 325.091155 106.476226 
L 325.243352 110.663216 
L 325.446281 110.589897 
L 325.902872 110.560845 
L 326.156534 107.716582 
L 326.410196 106.893404 
L 326.816054 106.518791 
L 327.982898 106.48243 
L 328.135095 106.537334 
L 329.200475 106.600187 
L 329.403404 106.598745 
L 329.707798 106.540595 
L 329.859995 106.543378 
L 329.910727 110.662505 
L 329.96146 109.803146 
L 330.215122 107.458869 
L 330.468783 106.809264 
L 330.773177 106.551375 
L 331.331233 106.498834 
L 331.534163 106.596989 
L 331.68636 106.597206 
L 331.787824 106.59193 
L 331.838557 110.952044 
L 331.940021 110.944892 
L 333.005401 110.853988 
L 333.360527 110.8126 
L 335.59275 110.59562 
L 336.861059 110.486137 
L 337.165453 107.426469 
L 337.216185 108.313767 
L 337.266918 107.915775 
L 337.520579 106.958098 
L 337.723509 106.766852 
L 338.027903 106.586897 
L 338.078635 110.678004 
L 338.129367 109.791439 
L 338.383029 107.464323 
L 338.636691 106.800884 
L 338.738156 106.736663 
L 338.941085 106.620279 
L 339.448408 106.493598 
L 339.600606 106.526307 
L 341.325505 106.512264 
L 341.42697 106.550454 
L 341.680632 106.522922 
L 342.847476 106.52505 
L 343.202602 106.542606 
L 343.405531 106.493536 
L 343.506996 110.945401 
L 343.557729 110.928598 
L 345.637755 110.64821 
L 346.246543 110.550513 
L 346.449472 110.501568 
L 349.290484 110.298889 
L 349.594878 110.243175 
L 350.457328 110.132819 
L 350.660257 110.050369 
L 351.928566 109.948254 
L 352.23296 109.921339 
L 354.211521 109.816981 
L 354.465183 107.464623 
L 354.718845 106.806407 
L 355.023239 106.566992 
L 355.682759 106.47987 
L 355.987153 106.471193 
L 356.190083 106.592509 
L 356.595941 106.517421 
L 357.052533 106.506442 
L 357.255462 106.519648 
L 357.559856 106.506035 
L 357.712053 106.550656 
L 358.117912 106.519386 
L 358.371574 106.513849 
L 358.675968 106.489856 
L 358.7267 106.617769 
L 358.777432 106.585353 
L 359.132559 106.560757 
L 359.58915 106.546211 
L 359.741347 106.52874 
L 360.147206 106.502221 
L 360.24867 106.580587 
L 360.400867 106.594745 
L 360.705261 106.523316 
L 361.364782 106.482291 
L 361.669176 106.520258 
L 362.125767 106.461312 
L 366.438017 106.50674 
L 366.640946 106.50955 
L 367.097537 106.495943 
L 367.959987 106.523839 
L 368.112184 106.545512 
L 368.67024 106.496795 
L 369.938548 106.49624 
L 370.090745 106.527912 
L 372.272236 106.505865 
L 372.627363 106.488983 
L 373.286883 106.541186 
L 373.43908 111.07295 
L 373.794207 111.04126 
L 375.011783 110.932022 
L 378.968906 110.661322 
L 381.201129 110.462381 
L 381.505523 110.359464 
L 383.534817 110.250268 
L 387.694869 109.946632 
L 387.999264 109.942503 
L 388.252925 107.492937 
L 388.506587 106.785159 
L 388.760249 106.556823 
L 388.912446 106.595178 
L 389.115375 106.581332 
L 389.369037 106.561281 
L 390.028557 106.528809 
L 390.180754 106.553491 
L 390.840275 106.497688 
L 391.195401 106.551125 
L 391.854922 106.506722 
L 394.543736 106.552122 
L 394.645201 106.588935 
L 394.797398 106.536374 
L 394.898863 111.086573 
L 394.949595 111.06693 
L 396.319368 110.9603 
L 399.363309 110.78411 
L 399.769168 110.773156 
L 399.870633 109.108644 
L 399.972097 113.07075 
L 400.02283 113.051623 
L 400.936012 112.787154 
L 401.088209 112.720686 
L 407.835611 112.059121 
L 409.966369 111.856044 
L 411.691269 111.746581 
L 412.401522 111.68119 
L 413.619098 111.57706 
L 413.87276 111.528181 
L 415.445463 111.432875 
L 415.800589 111.39835 
L 418.083545 111.287273 
L 421.127485 111.070665 
L 422.345062 110.960426 
L 422.547991 110.902919 
L 425.33827 110.7933 
L 431.882743 110.404267 
L 432.288602 110.373476 
L 432.948122 110.283968 
L 433.201784 110.25567 
L 435.434007 110.145292 
L 444.261435 109.902239 
L 444.515097 107.488021 
L 444.768759 106.7873 
L 445.073153 106.566993 
L 445.428279 106.567086 
L 445.529744 106.60438 
L 445.935603 106.514002 
L 446.290729 106.562657 
L 446.544391 106.525598 
L 446.595123 110.69988 
L 446.645855 109.783595 
L 446.899517 107.464226 
L 447.153179 106.781982 
L 447.457573 106.554222 
L 448.218558 106.508445 
L 448.47222 106.600403 
L 448.878079 106.511345 
L 453.139596 106.50422 
L 453.291793 106.538307 
L 453.748384 106.511425 
L 455.524016 106.513326 
L 455.726945 106.482044 
L 455.879142 106.535382 
L 457.045986 106.497301 
L 458.263563 106.497132 
L 458.973816 106.537285 
L 459.379674 106.539246 
L 461.104574 106.518777 
L 461.459701 106.520266 
L 461.611898 110.198113 
L 463.336797 110.113267 
L 463.590459 107.592943 
L 463.844121 106.881961 
L 464.097783 106.600005 
L 464.24998 106.609979 
L 464.351444 110.768131 
L 464.402177 110.763735 
L 466.127076 110.654324 
L 466.837329 110.555932 
L 466.989526 110.498297 
L 469.526144 110.407501 
L 469.779805 110.378143 
L 470.033467 107.619078 
L 470.287129 106.827923 
L 470.591523 106.573874 
L 471.098846 106.519913 
L 473.533999 106.493858 
L 473.686196 106.595837 
L 474.294984 106.51794 
L 476.628672 106.499019 
L 476.882334 106.523326 
L 477.744784 106.530464 
L 479.317486 106.51701 
L 479.774077 106.568506 
L 479.926274 106.559375 
L 479.977007 106.649493 
L 480.027739 106.615039 
L 480.433598 106.535474 
L 480.636527 106.521163 
L 481.194583 106.533153 
L 481.701907 106.496891 
L 483.020948 106.489685 
L 484.137059 106.533842 
L 484.289256 106.567365 
L 484.745847 106.503249 
L 485.4561 106.504861 
L 485.506833 106.653251 
L 485.557565 106.62268 
L 486.064888 106.50569 
L 487.688323 106.497996 
L 487.992717 106.496427 
L 488.144914 106.55112 
L 488.804435 106.507869 
L 488.956632 106.553734 
L 489.311758 106.505159 
L 489.717617 106.516758 
L 489.819082 106.650202 
L 489.869814 106.614512 
L 490.326405 106.513003 
L 490.529335 106.514622 
L 490.985926 106.523042 
L 492.203502 106.50466 
L 493.725473 106.502396 
L 493.87767 106.538797 
L 495.196711 106.507328 
L 496.312822 106.508838 
L 496.718681 106.514026 
L 497.023075 106.560703 
L 498.037722 106.506112 
L 500.625072 106.504263 
L 501.03093 106.498614 
L 501.183127 106.488733 
L 501.23386 106.956855 
L 501.284592 106.861045 
L 501.588986 106.599732 
L 501.994845 106.515366 
L 504.734392 106.511767 
L 505.546109 106.528539 
L 506.256362 106.494875 
L 509.198838 106.52541 
L 509.807626 106.504985 
L 510.162753 106.551754 
L 510.873005 106.518673 
L 512.547173 106.512719 
L 512.902299 106.552899 
L 513.105229 106.515601 
L 513.257426 106.548699 
L 513.612552 106.543882 
L 513.764749 106.56861 
L 514.475002 106.512037 
L 514.982326 106.500945 
L 515.134523 106.533052 
L 517.975534 106.503337 
L 518.127731 106.551469 
L 518.279928 106.552083 
L 518.837984 106.507599 
L 521.983389 106.54697 
L 522.034122 106.674511 
L 522.084854 106.637409 
L 522.43998 106.536112 
L 522.64291 106.562356 
L 522.896571 106.536967 
L 524.16488 106.49234 
L 524.36781 106.521788 
L 525.280992 106.492459 
L 526.5493 106.507236 
L 529.593241 106.506934 
L 529.643973 106.644361 
L 529.694706 106.613821 
L 530.049832 106.55159 
L 530.557156 106.539375 
L 531.470338 106.521856 
L 531.622535 106.60146 
L 532.129858 106.52825 
L 532.789379 106.517077 
L 534.10842 106.514679 
L 534.260617 106.555771 
L 534.818673 106.493711 
L 536.239178 106.514809 
L 536.645037 106.494135 
L 539.130922 106.507174 
L 539.94264 106.499413 
L 540.094837 106.546001 
L 541.058751 106.484694 
L 558.967269 106.505778 
L 559.423861 106.529721 
L 560.184846 106.491663 
L 561.35169 106.538544 
L 561.808281 106.530829 
L 563.025857 106.506048 
L 563.178054 106.529352 
L 566.780051 106.509007 
L 566.932248 106.530045 
L 569.671794 106.507431 
L 570.331315 106.501683 
L 570.483512 106.550635 
L 571.143032 106.506033 
L 571.29523 106.5319 
L 571.701088 106.542549 
L 571.904018 106.515804 
L 572.8172 106.493994 
L 572.969397 106.548421 
L 573.527453 106.505279 
L 574.085509 106.527944 
L 574.237706 106.56198 
L 575.150888 106.52002 
L 578.042632 106.506983 
L 578.194829 106.560333 
L 579.108011 106.501092 
L 579.260208 106.539351 
L 581.086572 106.503563 
L 581.289502 106.525155 
L 581.593896 106.5291 
L 581.746093 106.562158 
L 582.811472 106.495245 
L 585.246625 106.538221 
L 585.753948 106.519948 
L 586.00761 106.522065 
L 586.565666 106.521999 
L 587.428116 106.556282 
L 587.681777 106.531823 
L 588.493495 106.517309 
L 591.994027 106.51128 
L 593.3638 106.506014 
L 593.617462 106.599219 
L 594.124785 106.516146 
L 598.031176 106.511734 
L 598.487767 106.523929 
L 598.639964 110.222534 
L 601.379511 110.146236 
L 601.58244 110.092876 
L 601.734637 110.092876 
L 601.988299 107.543463 
L 602.241961 106.823716 
L 602.546355 106.580649 
L 603.256607 106.498081 
L 603.459537 106.538476 
L 604.16979 106.505537 
L 604.321987 106.570063 
L 604.82931 106.497939 
L 607.010801 106.570694 
L 607.162998 106.573819 
L 607.873251 106.505535 
L 609.547418 106.540738 
L 609.851812 106.574895 
L 610.308404 106.493063 
L 615.178709 106.544179 
L 615.483103 106.518228 
L 616.244088 106.518723 
L 616.396285 106.56007 
L 616.751412 106.520353 
L 622.078308 106.492999 
L 622.636364 106.483856 
L 622.636364 106.483856 
" clip-path="url(#pbee93fca8b)" style="fill: none; stroke: #0000ff; stroke-width: 2; stroke-linecap: square"/>
   </g>
   <g id="patch_3">
    <path d="M 90 256.32 
L 90 34.56 
" style="fill: none; stroke: #000000; stroke-width: 0.8; stroke-linejoin: miter; stroke-linecap: square"/>
   </g>
   <g id="patch_4">
    <path d="M 648 256.32 
L 648 34.56 
" style="fill: none; stroke: #000000; stroke-width: 0.8; stroke-linejoin: miter; stroke-linecap: square"/>
   </g>
   <g id="patch_5">
    <path d="M 90 256.32 
L 648 256.32 
" style="fill: none; stroke: #000000; stroke-width: 0.8; stroke-linejoin: miter; stroke-linecap: square"/>
   </g>
   <g id="patch_6">
    <path d="M 90 34.56 
L 648 34.56 
" style="fill: none; stroke: #000000; stroke-width: 0.8; stroke-linejoin: miter; stroke-linecap: square"/>
   </g>
   <g id="text_16">
    <!-- Markov_Chain_Monte_Carlo Q-Value Convergence -->
    <g transform="translate(220.141875 28.56) scale(0.12 -0.12)">
     <defs>
      <path id="DejaVuSans-4d" d="M 628 4666 
L 1569 4666 
L 2759 1491 
L 3956 4666 
L 4897 4666 
L 4897 0 
L 4281 0 
L 4281 4097 
L 3078 897 
L 2444 897 
L 1241 4097 
L 1241 0 
L 628 0 
L 628 4666 
z
" transform="scale(0.015625)"/>
      <path id="DejaVuSans-6b" d="M 581 4863 
L 1159 4863 
L 1159 1991 
L 2875 3500 
L 3609 3500 
L 1753 1863 
L 3688 0 
L 2938 0 
L 1159 1709 
L 1159 0 
L 581 0 
L 581 4863 
z
" transform="scale(0.015625)"/>
      <path id="DejaVuSans-76" d="M 191 3500 
L 800 3500 
L 1894 563 
L 2988 3500 
L 3597 3500 
L 2284 0 
L 1503 0 
L 191 3500 
z
" transform="scale(0.015625)"/>
      <path id="DejaVuSans-5f" d="M 3263 -1063 
L 3263 -1509 
L -63 -1509 
L -63 -1063 
L 3263 -1063 
z
" transform="scale(0.015625)"/>
      <path id="DejaVuSans-43" d="M 4122 4306 
L 4122 3641 
Q 3803 3938 3442 4084 
Q 3081 4231 2675 4231 
Q 1875 4231 1450 3742 
Q 1025 3253 1025 2328 
Q 1025 1406 1450 917 
Q 1875 428 2675 428 
Q 3081 428 3442 575 
Q 3803 722 4122 1019 
L 4122 359 
Q 3791 134 3420 21 
Q 3050 -91 2638 -91 
Q 1578 -91 968 557 
Q 359 1206 359 2328 
Q 359 3453 968 4101 
Q 1578 4750 2638 4750 
Q 3056 4750 3426 4639 
Q 3797 4528 4122 4306 
z
" transform="scale(0.015625)"/>
      <path id="DejaVuSans-68" d="M 3513 2113 
L 3513 0 
L 2938 0 
L 2938 2094 
Q 2938 2591 2744 2837 
Q 2550 3084 2163 3084 
Q 1697 3084 1428 2787 
Q 1159 2491 1159 1978 
L 1159 0 
L 581 0 
L 581 4863 
L 1159 4863 
L 1159 2956 
Q 1366 3272 1645 3428 
Q 1925 3584 2291 3584 
Q 2894 3584 3203 3211 
Q 3513 2838 3513 2113 
z
" transform="scale(0.015625)"/>
      <path id="DejaVuSans-20" transform="scale(0.015625)"/>
      <path id="DejaVuSans-67" d="M 2906 1791 
Q 2906 2416 2648 2759 
Q 2391 3103 1925 3103 
Q 1463 3103 1205 2759 
Q 947 2416 947 1791 
Q 947 1169 1205 825 
Q 1463 481 1925 481 
Q 2391 481 2648 825 
Q 2906 1169 2906 1791 
z
M 3481 434 
Q 3481 -459 3084 -895 
Q 2688 -1331 1869 -1331 
Q 1566 -1331 1297 -1286 
Q 1028 -1241 775 -1147 
L 775 -588 
Q 1028 -725 1275 -790 
Q 1522 -856 1778 -856 
Q 2344 -856 2625 -561 
Q 2906 -266 2906 331 
L 2906 616 
Q 2728 306 2450 153 
Q 2172 0 1784 0 
Q 1141 0 747 490 
Q 353 981 353 1791 
Q 353 2603 747 3093 
Q 1141 3584 1784 3584 
Q 2172 3584 2450 3431 
Q 2728 3278 2906 2969 
L 2906 3500 
L 3481 3500 
L 3481 434 
z
" transform="scale(0.015625)"/>
      <path id="DejaVuSans-63" d="M 3122 3366 
L 3122 2828 
Q 2878 2963 2633 3030 
Q 2388 3097 2138 3097 
Q 1578 3097 1268 2742 
Q 959 2388 959 1747 
Q 959 1106 1268 751 
Q 1578 397 2138 397 
Q 2388 397 2633 464 
Q 2878 531 3122 666 
L 3122 134 
Q 2881 22 2623 -34 
Q 2366 -91 2075 -91 
Q 1284 -91 818 406 
Q 353 903 353 1747 
Q 353 2603 823 3093 
Q 1294 3584 2113 3584 
Q 2378 3584 2631 3529 
Q 2884 3475 3122 3366 
z
" transform="scale(0.015625)"/>
     </defs>
     <use xlink:href="#DejaVuSans-4d"/>
     <use xlink:href="#DejaVuSans-61" transform="translate(86.279297 0)"/>
     <use xlink:href="#DejaVuSans-72" transform="translate(147.558594 0)"/>
     <use xlink:href="#DejaVuSans-6b" transform="translate(188.671875 0)"/>
     <use xlink:href="#DejaVuSans-6f" transform="translate(242.957031 0)"/>
     <use xlink:href="#DejaVuSans-76" transform="translate(304.138672 0)"/>
     <use xlink:href="#DejaVuSans-5f" transform="translate(363.318359 0)"/>
     <use xlink:href="#DejaVuSans-43" transform="translate(413.318359 0)"/>
     <use xlink:href="#DejaVuSans-68" transform="translate(483.142578 0)"/>
     <use xlink:href="#DejaVuSans-61" transform="translate(546.521484 0)"/>
     <use xlink:href="#DejaVuSans-69" transform="translate(607.800781 0)"/>
     <use xlink:href="#DejaVuSans-6e" transform="translate(635.583984 0)"/>
     <use xlink:href="#DejaVuSans-5f" transform="translate(698.962891 0)"/>
     <use xlink:href="#DejaVuSans-4d" transform="translate(748.962891 0)"/>
     <use xlink:href="#DejaVuSans-6f" transform="translate(835.242188 0)"/>
     <use xlink:href="#DejaVuSans-6e" transform="translate(896.423828 0)"/>
     <use xlink:href="#DejaVuSans-74" transform="translate(959.802734 0)"/>
     <use xlink:href="#DejaVuSans-65" transform="translate(999.011719 0)"/>
     <use xlink:href="#DejaVuSans-5f" transform="translate(1060.535156 0)"/>
     <use xlink:href="#DejaVuSans-43" transform="translate(1110.535156 0)"/>
     <use xlink:href="#DejaVuSans-61" transform="translate(1180.359375 0)"/>
     <use xlink:href="#DejaVuSans-72" transform="translate(1241.638672 0)"/>
     <use xlink:href="#DejaVuSans-6c" transform="translate(1282.751953 0)"/>
     <use xlink:href="#DejaVuSans-6f" transform="translate(1310.535156 0)"/>
     <use xlink:href="#DejaVuSans-20" transform="translate(1371.716797 0)"/>
     <use xlink:href="#DejaVuSans-51" transform="translate(1403.503906 0)"/>
     <use xlink:href="#DejaVuSans-2d" transform="translate(1484.964844 0)"/>
     <use xlink:href="#DejaVuSans-56" transform="translate(1515.173828 0)"/>
     <use xlink:href="#DejaVuSans-61" transform="translate(1575.832031 0)"/>
     <use xlink:href="#DejaVuSans-6c" transform="translate(1637.111328 0)"/>
     <use xlink:href="#DejaVuSans-75" transform="translate(1664.894531 0)"/>
     <use xlink:href="#DejaVuSans-65" transform="translate(1728.273438 0)"/>
     <use xlink:href="#DejaVuSans-20" transform="translate(1789.796875 0)"/>
     <use xlink:href="#DejaVuSans-43" transform="translate(1821.583984 0)"/>
     <use xlink:href="#DejaVuSans-6f" transform="translate(1891.408203 0)"/>
     <use xlink:href="#DejaVuSans-6e" transform="translate(1952.589844 0)"/>
     <use xlink:href="#DejaVuSans-76" transform="translate(2015.96875 0)"/>
     <use xlink:href="#DejaVuSans-65" transform="translate(2075.148438 0)"/>
     <use xlink:href="#DejaVuSans-72" transform="translate(2136.671875 0)"/>
     <use xlink:href="#DejaVuSans-67" transform="translate(2176.035156 0)"/>
     <use xlink:href="#DejaVuSans-65" transform="translate(2239.511719 0)"/>
     <use xlink:href="#DejaVuSans-6e" transform="translate(2301.035156 0)"/>
     <use xlink:href="#DejaVuSans-63" transform="translate(2364.414062 0)"/>
     <use xlink:href="#DejaVuSans-65" transform="translate(2419.394531 0)"/>
    </g>
   </g>
  </g>
 </g>
 <defs>
  <clipPath id="pbee93fca8b">
   <rect x="90" y="34.56" width="558" height="221.76"/>
  </clipPath>
 </defs>
</svg>
