<?xml version="1.0" encoding="utf-8" standalone="no"?>
<!DOCTYPE svg PUBLIC "-//W3C//DTD SVG 1.1//EN"
  "http://www.w3.org/Graphics/SVG/1.1/DTD/svg11.dtd">
<svg xmlns:xlink="http://www.w3.org/1999/xlink" width="720pt" height="288pt" viewBox="0 0 720 288" xmlns="http://www.w3.org/2000/svg" version="1.1">
 <metadata>
  <rdf:RDF xmlns:dc="http://purl.org/dc/elements/1.1/" xmlns:cc="http://creativecommons.org/ns#" xmlns:rdf="http://www.w3.org/1999/02/22-rdf-syntax-ns#">
   <cc:Work>
    <dc:type rdf:resource="http://purl.org/dc/dcmitype/StillImage"/>
    <dc:date>2025-12-06T12:14:41.047394</dc:date>
    <dc:format>image/svg+xml</dc:format>
    <dc:creator>
     <cc:Agent>
      <dc:title>Matplotlib v3.10.7, https://matplotlib.org/</dc:title>
     </cc:Agent>
    </dc:creator>
   </cc:Work>
  </rdf:RDF>
 </metadata>
 <defs>
  <style type="text/css">*{stroke-linejoin: round; stroke-linecap: butt}</style>
 </defs>
 <g id="figure_1">
  <g id="patch_1">
   <path d="M 0 288 
L 720 288 
L 720 0 
L 0 0 
z
" style="fill: #ffffff"/>
  </g>
  <g id="axes_1">
   <g id="patch_2">
    <path d="M 90 256.32 
L 648 256.32 
L 648 34.56 
L 90 34.56 
z
" style="fill: #ffffff"/>
   </g>
   <g id="matplotlib.axis_1">
    <g id="xtick_1">
     <g id="line2d_1">
      <path d="M 115.363636 256.32 
L 115.363636 34.56 
" clip-path="url(#pfbf3e2eafa)" style="fill: none; stroke: #b0b0b0; stroke-width: 0.8; stroke-linecap: square"/>
     </g>
     <g id="line2d_2">
      <defs>
       <path id="m7dcc411280" d="M 0 0 
L 0 3.5 
" style="stroke: #000000; stroke-width: 0.8"/>
      </defs>
      <g>
       <use xlink:href="#m7dcc411280" x="115.363636" y="256.32" style="stroke: #000000; stroke-width: 0.8"/>
      </g>
     </g>
     <g id="text_1">
      <!-- 0 -->
      <g transform="translate(112.182386 270.918437) scale(0.1 -0.1)">
       <defs>
        <path id="DejaVuSans-30" d="M 2034 4250 
Q 1547 4250 1301 3770 
Q 1056 3291 1056 2328 
Q 1056 1369 1301 889 
Q 1547 409 2034 409 
Q 2525 409 2770 889 
Q 3016 1369 3016 2328 
Q 3016 3291 2770 3770 
Q 2525 4250 2034 4250 
z
M 2034 4750 
Q 2819 4750 3233 4129 
Q 3647 3509 3647 2328 
Q 3647 1150 3233 529 
Q 2819 -91 2034 -91 
Q 1250 -91 836 529 
Q 422 1150 422 2328 
Q 422 3509 836 4129 
Q 1250 4750 2034 4750 
z
" transform="scale(0.015625)"/>
       </defs>
       <use xlink:href="#DejaVuSans-30"/>
      </g>
     </g>
    </g>
    <g id="xtick_2">
     <g id="line2d_3">
      <path d="M 216.828328 256.32 
L 216.828328 34.56 
" clip-path="url(#pfbf3e2eafa)" style="fill: none; stroke: #b0b0b0; stroke-width: 0.8; stroke-linecap: square"/>
     </g>
     <g id="line2d_4">
      <g>
       <use xlink:href="#m7dcc411280" x="216.828328" y="256.32" style="stroke: #000000; stroke-width: 0.8"/>
      </g>
     </g>
     <g id="text_2">
      <!-- 2000 -->
      <g transform="translate(204.103328 270.918437) scale(0.1 -0.1)">
       <defs>
        <path id="DejaVuSans-32" d="M 1228 531 
L 3431 531 
L 3431 0 
L 469 0 
L 469 531 
Q 828 903 1448 1529 
Q 2069 2156 2228 2338 
Q 2531 2678 2651 2914 
Q 2772 3150 2772 3378 
Q 2772 3750 2511 3984 
Q 2250 4219 1831 4219 
Q 1534 4219 1204 4116 
Q 875 4013 500 3803 
L 500 4441 
Q 881 4594 1212 4672 
Q 1544 4750 1819 4750 
Q 2544 4750 2975 4387 
Q 3406 4025 3406 3419 
Q 3406 3131 3298 2873 
Q 3191 2616 2906 2266 
Q 2828 2175 2409 1742 
Q 1991 1309 1228 531 
z
" transform="scale(0.015625)"/>
       </defs>
       <use xlink:href="#DejaVuSans-32"/>
       <use xlink:href="#DejaVuSans-30" transform="translate(63.623047 0)"/>
       <use xlink:href="#DejaVuSans-30" transform="translate(127.246094 0)"/>
       <use xlink:href="#DejaVuSans-30" transform="translate(190.869141 0)"/>
      </g>
     </g>
    </g>
    <g id="xtick_3">
     <g id="line2d_5">
      <path d="M 318.29302 256.32 
L 318.29302 34.56 
" clip-path="url(#pfbf3e2eafa)" style="fill: none; stroke: #b0b0b0; stroke-width: 0.8; stroke-linecap: square"/>
     </g>
     <g id="line2d_6">
      <g>
       <use xlink:href="#m7dcc411280" x="318.29302" y="256.32" style="stroke: #000000; stroke-width: 0.8"/>
      </g>
     </g>
     <g id="text_3">
      <!-- 4000 -->
      <g transform="translate(305.56802 270.918437) scale(0.1 -0.1)">
       <defs>
        <path id="DejaVuSans-34" d="M 2419 4116 
L 825 1625 
L 2419 1625 
L 2419 4116 
z
M 2253 4666 
L 3047 4666 
L 3047 1625 
L 3713 1625 
L 3713 1100 
L 3047 1100 
L 3047 0 
L 2419 0 
L 2419 1100 
L 313 1100 
L 313 1709 
L 2253 4666 
z
" transform="scale(0.015625)"/>
       </defs>
       <use xlink:href="#DejaVuSans-34"/>
       <use xlink:href="#DejaVuSans-30" transform="translate(63.623047 0)"/>
       <use xlink:href="#DejaVuSans-30" transform="translate(127.246094 0)"/>
       <use xlink:href="#DejaVuSans-30" transform="translate(190.869141 0)"/>
      </g>
     </g>
    </g>
    <g id="xtick_4">
     <g id="line2d_7">
      <path d="M 419.757712 256.32 
L 419.757712 34.56 
" clip-path="url(#pfbf3e2eafa)" style="fill: none; stroke: #b0b0b0; stroke-width: 0.8; stroke-linecap: square"/>
     </g>
     <g id="line2d_8">
      <g>
       <use xlink:href="#m7dcc411280" x="419.757712" y="256.32" style="stroke: #000000; stroke-width: 0.8"/>
      </g>
     </g>
     <g id="text_4">
      <!-- 6000 -->
      <g transform="translate(407.032712 270.918437) scale(0.1 -0.1)">
       <defs>
        <path id="DejaVuSans-36" d="M 2113 2584 
Q 1688 2584 1439 2293 
Q 1191 2003 1191 1497 
Q 1191 994 1439 701 
Q 1688 409 2113 409 
Q 2538 409 2786 701 
Q 3034 994 3034 1497 
Q 3034 2003 2786 2293 
Q 2538 2584 2113 2584 
z
M 3366 4563 
L 3366 3988 
Q 3128 4100 2886 4159 
Q 2644 4219 2406 4219 
Q 1781 4219 1451 3797 
Q 1122 3375 1075 2522 
Q 1259 2794 1537 2939 
Q 1816 3084 2150 3084 
Q 2853 3084 3261 2657 
Q 3669 2231 3669 1497 
Q 3669 778 3244 343 
Q 2819 -91 2113 -91 
Q 1303 -91 875 529 
Q 447 1150 447 2328 
Q 447 3434 972 4092 
Q 1497 4750 2381 4750 
Q 2619 4750 2861 4703 
Q 3103 4656 3366 4563 
z
" transform="scale(0.015625)"/>
       </defs>
       <use xlink:href="#DejaVuSans-36"/>
       <use xlink:href="#DejaVuSans-30" transform="translate(63.623047 0)"/>
       <use xlink:href="#DejaVuSans-30" transform="translate(127.246094 0)"/>
       <use xlink:href="#DejaVuSans-30" transform="translate(190.869141 0)"/>
      </g>
     </g>
    </g>
    <g id="xtick_5">
     <g id="line2d_9">
      <path d="M 521.222404 256.32 
L 521.222404 34.56 
" clip-path="url(#pfbf3e2eafa)" style="fill: none; stroke: #b0b0b0; stroke-width: 0.8; stroke-linecap: square"/>
     </g>
     <g id="line2d_10">
      <g>
       <use xlink:href="#m7dcc411280" x="521.222404" y="256.32" style="stroke: #000000; stroke-width: 0.8"/>
      </g>
     </g>
     <g id="text_5">
      <!-- 8000 -->
      <g transform="translate(508.497404 270.918437) scale(0.1 -0.1)">
       <defs>
        <path id="DejaVuSans-38" d="M 2034 2216 
Q 1584 2216 1326 1975 
Q 1069 1734 1069 1313 
Q 1069 891 1326 650 
Q 1584 409 2034 409 
Q 2484 409 2743 651 
Q 3003 894 3003 1313 
Q 3003 1734 2745 1975 
Q 2488 2216 2034 2216 
z
M 1403 2484 
Q 997 2584 770 2862 
Q 544 3141 544 3541 
Q 544 4100 942 4425 
Q 1341 4750 2034 4750 
Q 2731 4750 3128 4425 
Q 3525 4100 3525 3541 
Q 3525 3141 3298 2862 
Q 3072 2584 2669 2484 
Q 3125 2378 3379 2068 
Q 3634 1759 3634 1313 
Q 3634 634 3220 271 
Q 2806 -91 2034 -91 
Q 1263 -91 848 271 
Q 434 634 434 1313 
Q 434 1759 690 2068 
Q 947 2378 1403 2484 
z
M 1172 3481 
Q 1172 3119 1398 2916 
Q 1625 2713 2034 2713 
Q 2441 2713 2670 2916 
Q 2900 3119 2900 3481 
Q 2900 3844 2670 4047 
Q 2441 4250 2034 4250 
Q 1625 4250 1398 4047 
Q 1172 3844 1172 3481 
z
" transform="scale(0.015625)"/>
       </defs>
       <use xlink:href="#DejaVuSans-38"/>
       <use xlink:href="#DejaVuSans-30" transform="translate(63.623047 0)"/>
       <use xlink:href="#DejaVuSans-30" transform="translate(127.246094 0)"/>
       <use xlink:href="#DejaVuSans-30" transform="translate(190.869141 0)"/>
      </g>
     </g>
    </g>
    <g id="xtick_6">
     <g id="line2d_11">
      <path d="M 622.687096 256.32 
L 622.687096 34.56 
" clip-path="url(#pfbf3e2eafa)" style="fill: none; stroke: #b0b0b0; stroke-width: 0.8; stroke-linecap: square"/>
     </g>
     <g id="line2d_12">
      <g>
       <use xlink:href="#m7dcc411280" x="622.687096" y="256.32" style="stroke: #000000; stroke-width: 0.8"/>
      </g>
     </g>
     <g id="text_6">
      <!-- 10000 -->
      <g transform="translate(606.780846 270.918437) scale(0.1 -0.1)">
       <defs>
        <path id="DejaVuSans-31" d="M 794 531 
L 1825 531 
L 1825 4091 
L 703 3866 
L 703 4441 
L 1819 4666 
L 2450 4666 
L 2450 531 
L 3481 531 
L 3481 0 
L 794 0 
L 794 531 
z
" transform="scale(0.015625)"/>
       </defs>
       <use xlink:href="#DejaVuSans-31"/>
       <use xlink:href="#DejaVuSans-30" transform="translate(63.623047 0)"/>
       <use xlink:href="#DejaVuSans-30" transform="translate(127.246094 0)"/>
       <use xlink:href="#DejaVuSans-30" transform="translate(190.869141 0)"/>
       <use xlink:href="#DejaVuSans-30" transform="translate(254.492188 0)"/>
      </g>
     </g>
    </g>
    <g id="text_7">
     <!-- Iterations -->
     <g transform="translate(335.661406 287.635938) scale(0.14 -0.14)">
      <defs>
       <path id="DejaVuSans-49" d="M 628 4666 
L 1259 4666 
L 1259 0 
L 628 0 
L 628 4666 
z
" transform="scale(0.015625)"/>
       <path id="DejaVuSans-74" d="M 1172 4494 
L 1172 3500 
L 2356 3500 
L 2356 3053 
L 1172 3053 
L 1172 1153 
Q 1172 725 1289 603 
Q 1406 481 1766 481 
L 2356 481 
L 2356 0 
L 1766 0 
Q 1100 0 847 248 
Q 594 497 594 1153 
L 594 3053 
L 172 3053 
L 172 3500 
L 594 3500 
L 594 4494 
L 1172 4494 
z
" transform="scale(0.015625)"/>
       <path id="DejaVuSans-65" d="M 3597 1894 
L 3597 1613 
L 953 1613 
Q 991 1019 1311 708 
Q 1631 397 2203 397 
Q 2534 397 2845 478 
Q 3156 559 3463 722 
L 3463 178 
Q 3153 47 2828 -22 
Q 2503 -91 2169 -91 
Q 1331 -91 842 396 
Q 353 884 353 1716 
Q 353 2575 817 3079 
Q 1281 3584 2069 3584 
Q 2775 3584 3186 3129 
Q 3597 2675 3597 1894 
z
M 3022 2063 
Q 3016 2534 2758 2815 
Q 2500 3097 2075 3097 
Q 1594 3097 1305 2825 
Q 1016 2553 972 2059 
L 3022 2063 
z
" transform="scale(0.015625)"/>
       <path id="DejaVuSans-72" d="M 2631 2963 
Q 2534 3019 2420 3045 
Q 2306 3072 2169 3072 
Q 1681 3072 1420 2755 
Q 1159 2438 1159 1844 
L 1159 0 
L 581 0 
L 581 3500 
L 1159 3500 
L 1159 2956 
Q 1341 3275 1631 3429 
Q 1922 3584 2338 3584 
Q 2397 3584 2469 3576 
Q 2541 3569 2628 3553 
L 2631 2963 
z
" transform="scale(0.015625)"/>
       <path id="DejaVuSans-61" d="M 2194 1759 
Q 1497 1759 1228 1600 
Q 959 1441 959 1056 
Q 959 750 1161 570 
Q 1363 391 1709 391 
Q 2188 391 2477 730 
Q 2766 1069 2766 1631 
L 2766 1759 
L 2194 1759 
z
M 3341 1997 
L 3341 0 
L 2766 0 
L 2766 531 
Q 2569 213 2275 61 
Q 1981 -91 1556 -91 
Q 1019 -91 701 211 
Q 384 513 384 1019 
Q 384 1609 779 1909 
Q 1175 2209 1959 2209 
L 2766 2209 
L 2766 2266 
Q 2766 2663 2505 2880 
Q 2244 3097 1772 3097 
Q 1472 3097 1187 3025 
Q 903 2953 641 2809 
L 641 3341 
Q 956 3463 1253 3523 
Q 1550 3584 1831 3584 
Q 2591 3584 2966 3190 
Q 3341 2797 3341 1997 
z
" transform="scale(0.015625)"/>
       <path id="DejaVuSans-69" d="M 603 3500 
L 1178 3500 
L 1178 0 
L 603 0 
L 603 3500 
z
M 603 4863 
L 1178 4863 
L 1178 4134 
L 603 4134 
L 603 4863 
z
" transform="scale(0.015625)"/>
       <path id="DejaVuSans-6f" d="M 1959 3097 
Q 1497 3097 1228 2736 
Q 959 2375 959 1747 
Q 959 1119 1226 758 
Q 1494 397 1959 397 
Q 2419 397 2687 759 
Q 2956 1122 2956 1747 
Q 2956 2369 2687 2733 
Q 2419 3097 1959 3097 
z
M 1959 3584 
Q 2709 3584 3137 3096 
Q 3566 2609 3566 1747 
Q 3566 888 3137 398 
Q 2709 -91 1959 -91 
Q 1206 -91 779 398 
Q 353 888 353 1747 
Q 353 2609 779 3096 
Q 1206 3584 1959 3584 
z
" transform="scale(0.015625)"/>
       <path id="DejaVuSans-6e" d="M 3513 2113 
L 3513 0 
L 2938 0 
L 2938 2094 
Q 2938 2591 2744 2837 
Q 2550 3084 2163 3084 
Q 1697 3084 1428 2787 
Q 1159 2491 1159 1978 
L 1159 0 
L 581 0 
L 581 3500 
L 1159 3500 
L 1159 2956 
Q 1366 3272 1645 3428 
Q 1925 3584 2291 3584 
Q 2894 3584 3203 3211 
Q 3513 2838 3513 2113 
z
" transform="scale(0.015625)"/>
       <path id="DejaVuSans-73" d="M 2834 3397 
L 2834 2853 
Q 2591 2978 2328 3040 
Q 2066 3103 1784 3103 
Q 1356 3103 1142 2972 
Q 928 2841 928 2578 
Q 928 2378 1081 2264 
Q 1234 2150 1697 2047 
L 1894 2003 
Q 2506 1872 2764 1633 
Q 3022 1394 3022 966 
Q 3022 478 2636 193 
Q 2250 -91 1575 -91 
Q 1294 -91 989 -36 
Q 684 19 347 128 
L 347 722 
Q 666 556 975 473 
Q 1284 391 1588 391 
Q 1994 391 2212 530 
Q 2431 669 2431 922 
Q 2431 1156 2273 1281 
Q 2116 1406 1581 1522 
L 1381 1569 
Q 847 1681 609 1914 
Q 372 2147 372 2553 
Q 372 3047 722 3315 
Q 1072 3584 1716 3584 
Q 2034 3584 2315 3537 
Q 2597 3491 2834 3397 
z
" transform="scale(0.015625)"/>
      </defs>
      <use xlink:href="#DejaVuSans-49"/>
      <use xlink:href="#DejaVuSans-74" transform="translate(29.492188 0)"/>
      <use xlink:href="#DejaVuSans-65" transform="translate(68.701172 0)"/>
      <use xlink:href="#DejaVuSans-72" transform="translate(130.224609 0)"/>
      <use xlink:href="#DejaVuSans-61" transform="translate(171.337891 0)"/>
      <use xlink:href="#DejaVuSans-74" transform="translate(232.617188 0)"/>
      <use xlink:href="#DejaVuSans-69" transform="translate(271.826172 0)"/>
      <use xlink:href="#DejaVuSans-6f" transform="translate(299.609375 0)"/>
      <use xlink:href="#DejaVuSans-6e" transform="translate(360.791016 0)"/>
      <use xlink:href="#DejaVuSans-73" transform="translate(424.169922 0)"/>
     </g>
    </g>
   </g>
   <g id="matplotlib.axis_2">
    <g id="ytick_1">
     <g id="line2d_13">
      <path d="M 90 223.236821 
L 648 223.236821 
" clip-path="url(#pfbf3e2eafa)" style="fill: none; stroke: #b0b0b0; stroke-width: 0.8; stroke-linecap: square"/>
     </g>
     <g id="line2d_14">
      <defs>
       <path id="m65adbbd964" d="M 0 0 
L -3.5 0 
" style="stroke: #000000; stroke-width: 0.8"/>
      </defs>
      <g>
       <use xlink:href="#m65adbbd964" x="90" y="223.236821" style="stroke: #000000; stroke-width: 0.8"/>
      </g>
     </g>
     <g id="text_8">
      <!-- −0.08 -->
      <g transform="translate(52.354687 227.03604) scale(0.1 -0.1)">
       <defs>
        <path id="DejaVuSans-2212" d="M 678 2272 
L 4684 2272 
L 4684 1741 
L 678 1741 
L 678 2272 
z
" transform="scale(0.015625)"/>
        <path id="DejaVuSans-2e" d="M 684 794 
L 1344 794 
L 1344 0 
L 684 0 
L 684 794 
z
" transform="scale(0.015625)"/>
       </defs>
       <use xlink:href="#DejaVuSans-2212"/>
       <use xlink:href="#DejaVuSans-30" transform="translate(83.789062 0)"/>
       <use xlink:href="#DejaVuSans-2e" transform="translate(147.412109 0)"/>
       <use xlink:href="#DejaVuSans-30" transform="translate(179.199219 0)"/>
       <use xlink:href="#DejaVuSans-38" transform="translate(242.822266 0)"/>
      </g>
     </g>
    </g>
    <g id="ytick_2">
     <g id="line2d_15">
      <path d="M 90 178.587616 
L 648 178.587616 
" clip-path="url(#pfbf3e2eafa)" style="fill: none; stroke: #b0b0b0; stroke-width: 0.8; stroke-linecap: square"/>
     </g>
     <g id="line2d_16">
      <g>
       <use xlink:href="#m65adbbd964" x="90" y="178.587616" style="stroke: #000000; stroke-width: 0.8"/>
      </g>
     </g>
     <g id="text_9">
      <!-- −0.06 -->
      <g transform="translate(52.354687 182.386835) scale(0.1 -0.1)">
       <use xlink:href="#DejaVuSans-2212"/>
       <use xlink:href="#DejaVuSans-30" transform="translate(83.789062 0)"/>
       <use xlink:href="#DejaVuSans-2e" transform="translate(147.412109 0)"/>
       <use xlink:href="#DejaVuSans-30" transform="translate(179.199219 0)"/>
       <use xlink:href="#DejaVuSans-36" transform="translate(242.822266 0)"/>
      </g>
     </g>
    </g>
    <g id="ytick_3">
     <g id="line2d_17">
      <path d="M 90 133.938411 
L 648 133.938411 
" clip-path="url(#pfbf3e2eafa)" style="fill: none; stroke: #b0b0b0; stroke-width: 0.8; stroke-linecap: square"/>
     </g>
     <g id="line2d_18">
      <g>
       <use xlink:href="#m65adbbd964" x="90" y="133.938411" style="stroke: #000000; stroke-width: 0.8"/>
      </g>
     </g>
     <g id="text_10">
      <!-- −0.04 -->
      <g transform="translate(52.354687 137.737629) scale(0.1 -0.1)">
       <use xlink:href="#DejaVuSans-2212"/>
       <use xlink:href="#DejaVuSans-30" transform="translate(83.789062 0)"/>
       <use xlink:href="#DejaVuSans-2e" transform="translate(147.412109 0)"/>
       <use xlink:href="#DejaVuSans-30" transform="translate(179.199219 0)"/>
       <use xlink:href="#DejaVuSans-34" transform="translate(242.822266 0)"/>
      </g>
     </g>
    </g>
    <g id="ytick_4">
     <g id="line2d_19">
      <path d="M 90 89.289205 
L 648 89.289205 
" clip-path="url(#pfbf3e2eafa)" style="fill: none; stroke: #b0b0b0; stroke-width: 0.8; stroke-linecap: square"/>
     </g>
     <g id="line2d_20">
      <g>
       <use xlink:href="#m65adbbd964" x="90" y="89.289205" style="stroke: #000000; stroke-width: 0.8"/>
      </g>
     </g>
     <g id="text_11">
      <!-- −0.02 -->
      <g transform="translate(52.354687 93.088424) scale(0.1 -0.1)">
       <use xlink:href="#DejaVuSans-2212"/>
       <use xlink:href="#DejaVuSans-30" transform="translate(83.789062 0)"/>
       <use xlink:href="#DejaVuSans-2e" transform="translate(147.412109 0)"/>
       <use xlink:href="#DejaVuSans-30" transform="translate(179.199219 0)"/>
       <use xlink:href="#DejaVuSans-32" transform="translate(242.822266 0)"/>
      </g>
     </g>
    </g>
    <g id="ytick_5">
     <g id="line2d_21">
      <path d="M 90 44.64 
L 648 44.64 
" clip-path="url(#pfbf3e2eafa)" style="fill: none; stroke: #b0b0b0; stroke-width: 0.8; stroke-linecap: square"/>
     </g>
     <g id="line2d_22">
      <g>
       <use xlink:href="#m65adbbd964" x="90" y="44.64" style="stroke: #000000; stroke-width: 0.8"/>
      </g>
     </g>
     <g id="text_12">
      <!-- 0.00 -->
      <g transform="translate(60.734375 48.439219) scale(0.1 -0.1)">
       <use xlink:href="#DejaVuSans-30"/>
       <use xlink:href="#DejaVuSans-2e" transform="translate(63.623047 0)"/>
       <use xlink:href="#DejaVuSans-30" transform="translate(95.410156 0)"/>
       <use xlink:href="#DejaVuSans-30" transform="translate(159.033203 0)"/>
      </g>
     </g>
    </g>
    <g id="text_13">
     <!-- Q-Value$(s_0, a_0)$ -->
     <g transform="translate(45.443125 196.89) rotate(-90) scale(0.14 -0.14)">
      <defs>
       <path id="DejaVuSans-51" d="M 2522 4238 
Q 1834 4238 1429 3725 
Q 1025 3213 1025 2328 
Q 1025 1447 1429 934 
Q 1834 422 2522 422 
Q 3209 422 3611 934 
Q 4013 1447 4013 2328 
Q 4013 3213 3611 3725 
Q 3209 4238 2522 4238 
z
M 3406 84 
L 4238 -825 
L 3475 -825 
L 2784 -78 
Q 2681 -84 2626 -87 
Q 2572 -91 2522 -91 
Q 1538 -91 948 567 
Q 359 1225 359 2328 
Q 359 3434 948 4092 
Q 1538 4750 2522 4750 
Q 3503 4750 4090 4092 
Q 4678 3434 4678 2328 
Q 4678 1516 4351 937 
Q 4025 359 3406 84 
z
" transform="scale(0.015625)"/>
       <path id="DejaVuSans-2d" d="M 313 2009 
L 1997 2009 
L 1997 1497 
L 313 1497 
L 313 2009 
z
" transform="scale(0.015625)"/>
       <path id="DejaVuSans-56" d="M 1831 0 
L 50 4666 
L 709 4666 
L 2188 738 
L 3669 4666 
L 4325 4666 
L 2547 0 
L 1831 0 
z
" transform="scale(0.015625)"/>
       <path id="DejaVuSans-6c" d="M 603 4863 
L 1178 4863 
L 1178 0 
L 603 0 
L 603 4863 
z
" transform="scale(0.015625)"/>
       <path id="DejaVuSans-75" d="M 544 1381 
L 544 3500 
L 1119 3500 
L 1119 1403 
Q 1119 906 1312 657 
Q 1506 409 1894 409 
Q 2359 409 2629 706 
Q 2900 1003 2900 1516 
L 2900 3500 
L 3475 3500 
L 3475 0 
L 2900 0 
L 2900 538 
Q 2691 219 2414 64 
Q 2138 -91 1772 -91 
Q 1169 -91 856 284 
Q 544 659 544 1381 
z
M 1991 3584 
L 1991 3584 
z
" transform="scale(0.015625)"/>
       <path id="DejaVuSans-28" d="M 1984 4856 
Q 1566 4138 1362 3434 
Q 1159 2731 1159 2009 
Q 1159 1288 1364 580 
Q 1569 -128 1984 -844 
L 1484 -844 
Q 1016 -109 783 600 
Q 550 1309 550 2009 
Q 550 2706 781 3412 
Q 1013 4119 1484 4856 
L 1984 4856 
z
" transform="scale(0.015625)"/>
       <path id="DejaVuSans-Oblique-73" d="M 3200 3397 
L 3091 2853 
Q 2863 2978 2609 3040 
Q 2356 3103 2088 3103 
Q 1634 3103 1373 2948 
Q 1113 2794 1113 2528 
Q 1113 2219 1719 2053 
Q 1766 2041 1788 2034 
L 1972 1978 
Q 2547 1819 2739 1644 
Q 2931 1469 2931 1166 
Q 2931 609 2489 259 
Q 2047 -91 1331 -91 
Q 1053 -91 747 -37 
Q 441 16 72 128 
L 184 722 
Q 500 559 806 475 
Q 1113 391 1394 391 
Q 1816 391 2080 572 
Q 2344 753 2344 1031 
Q 2344 1331 1650 1516 
L 1591 1531 
L 1394 1581 
Q 956 1697 753 1886 
Q 550 2075 550 2369 
Q 550 2928 970 3256 
Q 1391 3584 2113 3584 
Q 2397 3584 2667 3537 
Q 2938 3491 3200 3397 
z
" transform="scale(0.015625)"/>
       <path id="DejaVuSans-2c" d="M 750 794 
L 1409 794 
L 1409 256 
L 897 -744 
L 494 -744 
L 750 256 
L 750 794 
z
" transform="scale(0.015625)"/>
       <path id="DejaVuSans-Oblique-61" d="M 3438 1997 
L 3047 0 
L 2472 0 
L 2578 531 
Q 2325 219 2001 64 
Q 1678 -91 1281 -91 
Q 834 -91 548 182 
Q 263 456 263 884 
Q 263 1497 752 1853 
Q 1241 2209 2100 2209 
L 2900 2209 
L 2931 2363 
Q 2938 2388 2941 2417 
Q 2944 2447 2944 2509 
Q 2944 2788 2717 2942 
Q 2491 3097 2081 3097 
Q 1800 3097 1504 3025 
Q 1209 2953 897 2809 
L 997 3341 
Q 1322 3463 1633 3523 
Q 1944 3584 2234 3584 
Q 2853 3584 3176 3315 
Q 3500 3047 3500 2534 
Q 3500 2431 3484 2292 
Q 3469 2153 3438 1997 
z
M 2816 1759 
L 2241 1759 
Q 1534 1759 1195 1570 
Q 856 1381 856 984 
Q 856 709 1029 553 
Q 1203 397 1509 397 
Q 1978 397 2328 733 
Q 2678 1069 2791 1631 
L 2816 1759 
z
" transform="scale(0.015625)"/>
       <path id="DejaVuSans-29" d="M 513 4856 
L 1013 4856 
Q 1481 4119 1714 3412 
Q 1947 2706 1947 2009 
Q 1947 1309 1714 600 
Q 1481 -109 1013 -844 
L 513 -844 
Q 928 -128 1133 580 
Q 1338 1288 1338 2009 
Q 1338 2731 1133 3434 
Q 928 4138 513 4856 
z
" transform="scale(0.015625)"/>
      </defs>
      <use xlink:href="#DejaVuSans-51" transform="translate(0 0.015625)"/>
      <use xlink:href="#DejaVuSans-2d" transform="translate(78.710938 0.015625)"/>
      <use xlink:href="#DejaVuSans-56" transform="translate(114.794922 0.015625)"/>
      <use xlink:href="#DejaVuSans-61" transform="translate(183.203125 0.015625)"/>
      <use xlink:href="#DejaVuSans-6c" transform="translate(244.482422 0.015625)"/>
      <use xlink:href="#DejaVuSans-75" transform="translate(272.265625 0.015625)"/>
      <use xlink:href="#DejaVuSans-65" transform="translate(335.644531 0.015625)"/>
      <use xlink:href="#DejaVuSans-28" transform="translate(397.167969 0.015625)"/>
      <use xlink:href="#DejaVuSans-Oblique-73" transform="translate(436.181641 0.015625)"/>
      <use xlink:href="#DejaVuSans-30" transform="translate(488.28125 -16.390625) scale(0.7)"/>
      <use xlink:href="#DejaVuSans-2c" transform="translate(535.551758 0.015625)"/>
      <use xlink:href="#DejaVuSans-Oblique-61" transform="translate(586.821289 0.015625)"/>
      <use xlink:href="#DejaVuSans-30" transform="translate(648.100586 -16.390625) scale(0.7)"/>
      <use xlink:href="#DejaVuSans-29" transform="translate(695.371094 0.015625)"/>
     </g>
    </g>
   </g>
   <g id="line2d_23">
    <path d="M 115.363636 44.64 
L 115.617298 51.071718 
L 115.66803 51.071718 
L 115.972425 61.399052 
L 116.124622 61.399052 
L 116.327551 69.13896 
L 116.53048 69.13896 
L 116.682677 73.869381 
L 116.834874 73.869381 
L 117.037804 77.069515 
L 117.190001 77.069515 
L 117.39293 79.826885 
L 117.798789 87.434445 
L 117.849521 87.434445 
L 118.001718 88.075114 
L 118.052451 88.075114 
L 118.25538 92.477704 
L 118.356845 92.477704 
L 118.509042 94.476837 
L 118.661239 95.532138 
L 119.371492 99.458029 
L 119.422224 99.759548 
L 119.574421 100.772993 
L 119.726618 101.87205 
L 119.98028 101.87205 
L 120.183209 103.017109 
L 120.284674 103.017109 
L 120.690533 107.102425 
L 120.741265 107.102425 
L 120.944194 109.323054 
L 121.045659 109.323054 
L 121.197856 110.600046 
L 121.350053 110.600046 
L 121.50225 111.757736 
L 121.654447 111.757736 
L 121.857377 113.720772 
L 122.009574 115.724328 
L 122.060306 115.724328 
L 122.212503 116.56909 
L 122.263235 116.56909 
L 122.415432 117.11207 
L 122.922756 118.596873 
L 123.176418 118.596873 
L 123.379347 119.091723 
L 123.633009 119.091723 
L 123.835938 120.107712 
L 123.88667 120.107712 
L 124.241797 121.282812 
L 124.596923 121.282812 
L 124.799853 122.363976 
L 125.104247 122.363976 
L 125.256444 122.951463 
L 125.408641 123.225592 
L 125.459373 123.225592 
L 125.662303 123.871604 
L 125.713035 123.871604 
L 125.915964 124.494741 
L 126.423288 124.494741 
L 126.626217 125.796984 
L 126.930611 125.796984 
L 127.184273 126.957059 
L 127.33647 126.957059 
L 127.488667 127.246837 
L 127.742329 127.246837 
L 127.945258 128.168257 
L 128.19892 128.168257 
L 128.401849 129.343717 
L 128.604779 129.793241 
L 128.756976 129.793241 
L 128.959905 130.307413 
L 129.162834 130.307413 
L 129.365764 130.822259 
L 129.416496 130.822259 
L 129.568693 131.509615 
L 129.873087 131.509615 
L 130.025284 131.768659 
L 130.126749 131.768659 
L 130.278946 132.498147 
L 130.481875 132.498147 
L 130.837002 133.809049 
L 130.887734 133.809049 
L 131.192128 134.800477 
L 131.293593 134.800477 
L 131.597987 135.654051 
L 131.902381 135.654051 
L 132.156043 136.210733 
L 132.358972 136.210733 
L 132.511169 136.428739 
L 132.917028 136.428739 
L 133.069225 136.671448 
L 133.475084 136.671448 
L 133.627281 136.946941 
L 134.185337 136.946941 
L 134.337534 137.278291 
L 134.540463 137.278291 
L 134.69266 138.20986 
L 134.997054 138.20986 
L 135.149251 138.779705 
L 135.199984 138.779705 
L 135.352181 139.291594 
L 135.504378 139.525343 
L 135.707307 139.525343 
L 136.163898 141.320683 
L 136.671222 141.320683 
L 136.924883 141.93342 
L 137.178545 141.93342 
L 137.432207 143.326681 
L 137.482939 143.326681 
L 137.635136 143.730874 
L 137.685869 143.730874 
L 137.838066 143.999051 
L 138.345389 143.999051 
L 138.599051 144.784249 
L 138.649783 144.784249 
L 138.903445 145.383928 
L 139.157107 145.383928 
L 139.613698 147.045733 
L 140.476148 147.045733 
L 140.628345 147.367661 
L 140.729809 147.367661 
L 140.983471 148.314009 
L 141.084936 148.314009 
L 141.237133 148.632987 
L 141.338597 148.632987 
L 141.642992 150.050055 
L 141.947386 150.050055 
L 142.099583 150.330581 
L 142.302512 150.330581 
L 142.454709 150.625339 
L 142.708371 150.625339 
L 142.860568 151.886515 
L 142.9113 151.886515 
L 143.063497 152.099751 
L 143.367891 152.099751 
L 143.520088 152.338519 
L 143.925947 152.338519 
L 144.078144 152.882122 
L 144.331806 153.577331 
L 144.940594 153.577331 
L 145.092791 153.862996 
L 145.194256 153.862996 
L 145.346453 154.412003 
L 145.752312 154.412003 
L 145.904509 155.017959 
L 146.15817 155.017959 
L 146.411832 155.933577 
L 146.513297 155.933577 
L 146.665494 156.445469 
L 146.969888 156.445469 
L 147.122085 156.974811 
L 147.325014 157.442069 
L 147.375747 157.442069 
L 147.730873 158.589729 
L 148.086 158.589729 
L 148.238197 158.793619 
L 149.354308 158.793619 
L 149.557238 159.403383 
L 149.60797 159.403383 
L 149.760167 159.689058 
L 150.166026 159.689058 
L 150.318223 160.014823 
L 150.47042 160.014823 
L 150.622617 160.323093 
L 150.774814 160.323093 
L 150.927011 160.629067 
L 151.028476 160.629067 
L 151.180673 160.91905 
L 151.434334 160.91905 
L 151.586531 161.249361 
L 151.99239 161.249361 
L 152.144587 161.931589 
L 152.398249 161.931589 
L 152.601178 162.573367 
L 152.804108 162.573367 
L 152.956305 162.879178 
L 153.970952 162.879178 
L 154.123149 163.273285 
L 154.427543 163.273285 
L 154.57974 164.054274 
L 154.731937 164.408553 
L 154.934866 164.408553 
L 155.137796 165.110528 
L 155.44219 165.110528 
L 155.645119 166.061188 
L 155.848048 166.061188 
L 156.10171 166.847291 
L 156.152443 166.847291 
L 156.30464 167.077183 
L 157.217822 167.077183 
L 157.370019 167.374657 
L 157.471484 167.374657 
L 157.623681 167.685832 
L 157.775878 167.685832 
L 157.928075 167.999622 
L 159.399313 167.999622 
L 159.55151 168.874296 
L 159.805171 169.969824 
L 160.870551 169.969824 
L 161.07348 170.853441 
L 161.174945 170.853441 
L 161.327142 171.263585 
L 161.479339 171.263585 
L 161.733001 172.679633 
L 161.834465 172.679633 
L 161.986662 172.98962 
L 163.407168 172.98962 
L 163.610097 173.87137 
L 163.863759 173.87137 
L 164.066688 174.993304 
L 164.371083 174.993304 
L 164.52328 175.333398 
L 164.675477 175.333398 
L 164.878406 175.9944 
L 165.233532 175.9944 
L 165.385729 176.335704 
L 165.791588 176.335704 
L 165.943785 176.704764 
L 166.603306 176.704764 
L 166.755503 177.126616 
L 166.856968 177.126616 
L 167.009165 177.534313 
L 167.617953 177.534313 
L 167.77015 177.967449 
L 168.176009 177.967449 
L 168.378938 178.80011 
L 169.29212 178.80011 
L 169.49505 179.643805 
L 169.647247 180.016425 
L 169.748711 180.016425 
L 169.900908 180.377851 
L 170.458964 180.377851 
L 170.712626 181.734641 
L 171.169217 181.734641 
L 171.321414 182.602094 
L 171.473611 182.602094 
L 171.625808 182.86383 
L 171.727273 182.86383 
L 171.930202 183.360728 
L 172.031667 183.360728 
L 172.183864 183.592856 
L 172.589723 183.592856 
L 172.74192 183.858835 
L 172.995581 183.858835 
L 173.198511 184.390393 
L 173.452172 184.390393 
L 173.60437 184.660806 
L 174.010228 184.660806 
L 174.162425 184.961307 
L 174.720481 184.961307 
L 174.872678 185.300347 
L 175.278537 185.300347 
L 175.481466 185.969201 
L 175.887325 185.969201 
L 176.039522 186.296855 
L 176.191719 186.296855 
L 176.394649 186.904028 
L 177.358563 186.904028 
L 177.561493 187.597125 
L 177.612225 187.597125 
L 177.764422 187.911928 
L 178.018084 187.911928 
L 178.170281 188.225236 
L 178.474675 188.225236 
L 178.626872 188.539568 
L 178.981998 188.539568 
L 179.184928 189.424775 
L 180.75763 189.424775 
L 180.909827 190.083986 
L 182.381065 190.083986 
L 182.533262 190.461412 
L 183.091318 190.461412 
L 183.243515 190.851968 
L 183.953768 190.851968 
L 184.156697 191.966307 
L 184.461092 191.966307 
L 184.613289 192.290708 
L 185.171344 192.290708 
L 185.323541 192.630128 
L 185.627936 192.630128 
L 185.780133 192.965293 
L 186.541118 192.965293 
L 186.693315 193.318374 
L 186.997709 193.318374 
L 187.149906 193.664448 
L 190.9041 193.664448 
L 191.056297 194.234 
L 191.107029 194.234 
L 191.259226 195.237609 
L 193.94804 195.237609 
L 194.100237 195.835969 
L 194.15097 195.835969 
L 194.303167 196.393784 
L 194.404631 196.393784 
L 194.556828 196.908331 
L 194.607561 196.908331 
L 194.759758 197.381285 
L 195.01342 197.381285 
L 195.165617 197.829994 
L 195.216349 197.829994 
L 195.368546 198.622328 
L 196.281728 198.622328 
L 196.484658 199.72343 
L 196.586122 199.72343 
L 196.738319 200.034008 
L 197.905163 200.034008 
L 198.05736 200.382608 
L 199.12274 200.382608 
L 199.274937 200.764428 
L 201.50716 200.764428 
L 201.659357 201.236444 
L 202.775468 201.236444 
L 202.927665 201.733945 
L 204.043777 201.733945 
L 204.195974 202.246811 
L 205.971606 202.246811 
L 206.123803 202.816636 
L 206.580394 202.816636 
L 206.732591 203.365647 
L 206.986253 203.365647 
L 207.13845 203.883002 
L 207.189183 203.883002 
L 207.34138 204.360304 
L 208.305294 204.360304 
L 208.457491 204.855834 
L 208.558956 204.855834 
L 208.711153 205.318345 
L 209.928729 205.318345 
L 210.080926 205.811315 
L 210.486785 205.811315 
L 210.638982 206.291696 
L 213.226332 206.291696 
L 213.378529 206.867221 
L 213.63219 206.867221 
L 213.784388 207.406468 
L 213.83512 207.406468 
L 213.987317 207.903146 
L 215.103429 207.903146 
L 215.255626 208.417965 
L 215.56002 208.417965 
L 215.712217 208.907701 
L 216.21954 208.907701 
L 216.371737 209.80948 
L 217.284919 209.80948 
L 217.437116 210.253476 
L 218.908354 210.253476 
L 219.060552 210.748167 
L 219.821537 210.748167 
L 219.973734 211.250477 
L 221.647901 211.250477 
L 221.850831 212.31017 
L 222.05376 212.31017 
L 222.205957 212.781811 
L 222.561083 212.781811 
L 222.71328 213.233314 
L 224.945504 213.233314 
L 225.148433 214.277328 
L 225.503559 214.277328 
L 225.655756 214.753536 
L 226.366009 214.753536 
L 226.518206 215.227719 
L 228.293838 215.227719 
L 228.446036 215.754302 
L 229.207021 215.754302 
L 229.359218 216.27562 
L 229.562147 216.27562 
L 229.714344 216.762868 
L 229.765077 216.762868 
L 229.917274 217.212983 
L 230.120203 217.212983 
L 230.2724 217.637785 
L 230.728991 217.637785 
L 230.881188 218.050003 
L 232.098764 218.050003 
L 232.250961 218.484513 
L 233.620735 218.484513 
L 233.772932 218.947614 
L 234.38172 218.947614 
L 234.533917 219.81879 
L 234.939776 219.81879 
L 235.091973 220.213464 
L 236.918337 220.213464 
L 237.070534 220.658729 
L 238.541772 220.658729 
L 238.693969 221.131002 
L 238.846166 221.131002 
L 238.998363 221.573287 
L 239.302758 221.573287 
L 239.454955 221.991442 
L 239.607152 221.991442 
L 239.810081 222.732993 
L 242.651092 222.732993 
L 242.803289 223.184523 
L 243.665739 223.184523 
L 243.817936 223.631538 
L 244.629654 223.631538 
L 244.781851 224.074083 
L 245.390639 224.074083 
L 245.542836 224.507492 
L 246.354554 224.507492 
L 246.557483 225.338418 
L 248.130186 225.338418 
L 248.282383 225.763895 
L 248.992636 225.763895 
L 249.144833 226.185116 
L 249.95655 226.185116 
L 250.108747 226.602125 
L 250.971197 226.602125 
L 251.123394 227.014964 
L 251.833647 227.014964 
L 251.985844 227.792982 
L 253.660011 227.792982 
L 253.812208 228.193913 
L 254.623926 228.193913 
L 254.776123 228.590834 
L 255.537108 228.590834 
L 255.689305 228.983786 
L 256.65322 228.983786 
L 256.805417 229.372808 
L 257.566402 229.372808 
L 257.718599 229.757941 
L 257.870796 229.757941 
L 258.022993 230.117292 
L 259.342034 230.117292 
L 259.494231 230.49498 
L 260.255216 230.49498 
L 260.458146 231.210557 
L 261.878652 231.210557 
L 262.030849 231.573716 
L 262.791834 231.573716 
L 262.944031 231.936839 
L 263.705016 231.936839 
L 263.857213 232.296331 
L 264.415269 232.296331 
L 264.567466 232.652228 
L 265.277719 232.652228 
L 265.429916 233.004566 
L 265.835774 233.004566 
L 265.987972 233.344172 
L 266.901154 233.344172 
L 267.053351 233.68959 
L 267.712871 233.68959 
L 267.865068 234.031555 
L 268.473856 234.031555 
L 268.626054 234.370099 
L 269.285574 234.370099 
L 269.437771 234.705259 
L 270.046559 234.705259 
L 270.198756 235.037066 
L 270.909009 235.037066 
L 271.061206 235.365556 
L 271.720727 235.365556 
L 271.872924 235.690761 
L 272.481712 235.690761 
L 272.633909 236.012713 
L 273.344162 236.012713 
L 273.496359 236.331446 
L 273.95295 236.331446 
L 274.105147 236.638649 
L 275.018329 236.638649 
L 275.170526 236.951123 
L 275.931511 236.951123 
L 276.083708 237.260472 
L 276.134441 237.260472 
L 276.286638 237.54695 
L 277.554946 237.54695 
L 277.707143 237.85034 
L 278.06227 237.85034 
L 278.214467 238.141622 
L 279.178381 238.141622 
L 279.330579 238.439066 
L 280.142296 238.439066 
L 280.294493 238.733535 
L 280.903281 238.733535 
L 281.055478 239.02506 
L 281.867196 239.02506 
L 282.019393 239.31367 
L 282.577449 239.31367 
L 282.729646 239.599394 
L 283.490631 239.599394 
L 283.642828 239.88226 
L 284.302348 239.88226 
L 284.505278 240.41711 
L 285.976516 240.41711 
L 286.128713 240.691799 
L 286.483839 240.691799 
L 286.636036 240.959372 
L 286.94043 240.959372 
L 287.092627 241.214437 
L 288.158007 241.214437 
L 288.310204 241.481153 
L 288.969724 241.481153 
L 289.121921 241.745202 
L 289.781442 241.745202 
L 289.933639 242.00661 
L 290.542427 242.00661 
L 290.694624 242.265404 
L 290.745356 242.265404 
L 290.897553 242.505363 
L 292.064397 242.505363 
L 292.216594 242.759169 
L 292.723918 242.759169 
L 292.876115 243.010438 
L 293.6371 243.010438 
L 293.789297 243.259194 
L 293.840029 243.259194 
L 293.992226 243.490522 
L 295.15907 243.490522 
L 295.311267 243.734477 
L 295.970788 243.734477 
L 296.122985 243.975993 
L 296.731773 243.975993 
L 296.88397 244.215093 
L 297.543491 244.215093 
L 297.695688 244.451802 
L 298.456673 244.451802 
L 298.60887 244.686145 
L 299.217658 244.686145 
L 299.369855 244.918143 
L 300.029376 244.918143 
L 300.181573 245.147822 
L 300.790361 245.147822 
L 300.942558 245.375204 
L 301.652811 245.375204 
L 301.805008 245.600312 
L 302.616725 245.600312 
L 302.768922 245.82317 
L 303.529908 245.82317 
L 303.682105 246.043798 
L 304.087963 246.043798 
L 304.24016 246.24 
L 314.1837 246.24 
L 314.335897 239.243355 
L 343.202602 239.243355 
L 343.354799 232.738601 
L 352.131495 232.738601 
L 352.283692 226.884323 
L 365.017511 226.884323 
L 365.169708 221.615472 
L 377.193274 221.615472 
L 377.345471 216.873506 
L 514.627199 216.873506 
L 514.779396 212.605737 
L 520.765813 212.605737 
L 520.968742 205.307852 
L 539.993372 205.307852 
L 540.145569 202.196649 
L 546.385648 202.196649 
L 546.537845 199.396565 
L 552.473529 199.396565 
L 552.625726 196.87649 
L 577.738237 196.87649 
L 577.890434 194.608423 
L 592.196956 194.608423 
L 592.349153 192.567162 
L 593.313068 192.567162 
L 593.465265 190.730028 
L 622.636364 190.730028 
L 622.636364 190.730028 
" clip-path="url(#pfbf3e2eafa)" style="fill: none; stroke: #0000ff; stroke-width: 2; stroke-linecap: square"/>
   </g>
   <g id="patch_3">
    <path d="M 90 256.32 
L 90 34.56 
" style="fill: none; stroke: #000000; stroke-width: 0.8; stroke-linejoin: miter; stroke-linecap: square"/>
   </g>
   <g id="patch_4">
    <path d="M 648 256.32 
L 648 34.56 
" style="fill: none; stroke: #000000; stroke-width: 0.8; stroke-linejoin: miter; stroke-linecap: square"/>
   </g>
   <g id="patch_5">
    <path d="M 90 256.32 
L 648 256.32 
" style="fill: none; stroke: #000000; stroke-width: 0.8; stroke-linejoin: miter; stroke-linecap: square"/>
   </g>
   <g id="patch_6">
    <path d="M 90 34.56 
L 648 34.56 
" style="fill: none; stroke: #000000; stroke-width: 0.8; stroke-linejoin: miter; stroke-linecap: square"/>
   </g>
   <g id="text_14">
    <!-- Q_learning Q-Value Convergence -->
    <g transform="translate(270.244687 28.56) scale(0.12 -0.12)">
     <defs>
      <path id="DejaVuSans-5f" d="M 3263 -1063 
L 3263 -1509 
L -63 -1509 
L -63 -1063 
L 3263 -1063 
z
" transform="scale(0.015625)"/>
      <path id="DejaVuSans-67" d="M 2906 1791 
Q 2906 2416 2648 2759 
Q 2391 3103 1925 3103 
Q 1463 3103 1205 2759 
Q 947 2416 947 1791 
Q 947 1169 1205 825 
Q 1463 481 1925 481 
Q 2391 481 2648 825 
Q 2906 1169 2906 1791 
z
M 3481 434 
Q 3481 -459 3084 -895 
Q 2688 -1331 1869 -1331 
Q 1566 -1331 1297 -1286 
Q 1028 -1241 775 -1147 
L 775 -588 
Q 1028 -725 1275 -790 
Q 1522 -856 1778 -856 
Q 2344 -856 2625 -561 
Q 2906 -266 2906 331 
L 2906 616 
Q 2728 306 2450 153 
Q 2172 0 1784 0 
Q 1141 0 747 490 
Q 353 981 353 1791 
Q 353 2603 747 3093 
Q 1141 3584 1784 3584 
Q 2172 3584 2450 3431 
Q 2728 3278 2906 2969 
L 2906 3500 
L 3481 3500 
L 3481 434 
z
" transform="scale(0.015625)"/>
      <path id="DejaVuSans-20" transform="scale(0.015625)"/>
      <path id="DejaVuSans-43" d="M 4122 4306 
L 4122 3641 
Q 3803 3938 3442 4084 
Q 3081 4231 2675 4231 
Q 1875 4231 1450 3742 
Q 1025 3253 1025 2328 
Q 1025 1406 1450 917 
Q 1875 428 2675 428 
Q 3081 428 3442 575 
Q 3803 722 4122 1019 
L 4122 359 
Q 3791 134 3420 21 
Q 3050 -91 2638 -91 
Q 1578 -91 968 557 
Q 359 1206 359 2328 
Q 359 3453 968 4101 
Q 1578 4750 2638 4750 
Q 3056 4750 3426 4639 
Q 3797 4528 4122 4306 
z
" transform="scale(0.015625)"/>
      <path id="DejaVuSans-76" d="M 191 3500 
L 800 3500 
L 1894 563 
L 2988 3500 
L 3597 3500 
L 2284 0 
L 1503 0 
L 191 3500 
z
" transform="scale(0.015625)"/>
      <path id="DejaVuSans-63" d="M 3122 3366 
L 3122 2828 
Q 2878 2963 2633 3030 
Q 2388 3097 2138 3097 
Q 1578 3097 1268 2742 
Q 959 2388 959 1747 
Q 959 1106 1268 751 
Q 1578 397 2138 397 
Q 2388 397 2633 464 
Q 2878 531 3122 666 
L 3122 134 
Q 2881 22 2623 -34 
Q 2366 -91 2075 -91 
Q 1284 -91 818 406 
Q 353 903 353 1747 
Q 353 2603 823 3093 
Q 1294 3584 2113 3584 
Q 2378 3584 2631 3529 
Q 2884 3475 3122 3366 
z
" transform="scale(0.015625)"/>
     </defs>
     <use xlink:href="#DejaVuSans-51"/>
     <use xlink:href="#DejaVuSans-5f" transform="translate(78.710938 0)"/>
     <use xlink:href="#DejaVuSans-6c" transform="translate(128.710938 0)"/>
     <use xlink:href="#DejaVuSans-65" transform="translate(156.494141 0)"/>
     <use xlink:href="#DejaVuSans-61" transform="translate(218.017578 0)"/>
     <use xlink:href="#DejaVuSans-72" transform="translate(279.296875 0)"/>
     <use xlink:href="#DejaVuSans-6e" transform="translate(318.660156 0)"/>
     <use xlink:href="#DejaVuSans-69" transform="translate(382.039062 0)"/>
     <use xlink:href="#DejaVuSans-6e" transform="translate(409.822266 0)"/>
     <use xlink:href="#DejaVuSans-67" transform="translate(473.201172 0)"/>
     <use xlink:href="#DejaVuSans-20" transform="translate(536.677734 0)"/>
     <use xlink:href="#DejaVuSans-51" transform="translate(568.464844 0)"/>
     <use xlink:href="#DejaVuSans-2d" transform="translate(649.925781 0)"/>
     <use xlink:href="#DejaVuSans-56" transform="translate(680.134766 0)"/>
     <use xlink:href="#DejaVuSans-61" transform="translate(740.792969 0)"/>
     <use xlink:href="#DejaVuSans-6c" transform="translate(802.072266 0)"/>
     <use xlink:href="#DejaVuSans-75" transform="translate(829.855469 0)"/>
     <use xlink:href="#DejaVuSans-65" transform="translate(893.234375 0)"/>
     <use xlink:href="#DejaVuSans-20" transform="translate(954.757812 0)"/>
     <use xlink:href="#DejaVuSans-43" transform="translate(986.544922 0)"/>
     <use xlink:href="#DejaVuSans-6f" transform="translate(1056.369141 0)"/>
     <use xlink:href="#DejaVuSans-6e" transform="translate(1117.550781 0)"/>
     <use xlink:href="#DejaVuSans-76" transform="translate(1180.929688 0)"/>
     <use xlink:href="#DejaVuSans-65" transform="translate(1240.109375 0)"/>
     <use xlink:href="#DejaVuSans-72" transform="translate(1301.632812 0)"/>
     <use xlink:href="#DejaVuSans-67" transform="translate(1340.996094 0)"/>
     <use xlink:href="#DejaVuSans-65" transform="translate(1404.472656 0)"/>
     <use xlink:href="#DejaVuSans-6e" transform="translate(1465.996094 0)"/>
     <use xlink:href="#DejaVuSans-63" transform="translate(1529.375 0)"/>
     <use xlink:href="#DejaVuSans-65" transform="translate(1584.355469 0)"/>
    </g>
   </g>
  </g>
 </g>
 <defs>
  <clipPath id="pfbf3e2eafa">
   <rect x="90" y="34.56" width="558" height="221.76"/>
  </clipPath>
 </defs>
</svg>
