<?xml version="1.0" encoding="utf-8" standalone="no"?>
<!DOCTYPE svg PUBLIC "-//W3C//DTD SVG 1.1//EN"
  "http://www.w3.org/Graphics/SVG/1.1/DTD/svg11.dtd">
<svg xmlns:xlink="http://www.w3.org/1999/xlink" width="720pt" height="288pt" viewBox="0 0 720 288" xmlns="http://www.w3.org/2000/svg" version="1.1">
 <metadata>
  <rdf:RDF xmlns:dc="http://purl.org/dc/elements/1.1/" xmlns:cc="http://creativecommons.org/ns#" xmlns:rdf="http://www.w3.org/1999/02/22-rdf-syntax-ns#">
   <cc:Work>
    <dc:type rdf:resource="http://purl.org/dc/dcmitype/StillImage"/>
    <dc:date>2025-12-06T09:46:26.685844</dc:date>
    <dc:format>image/svg+xml</dc:format>
    <dc:creator>
     <cc:Agent>
      <dc:title>Matplotlib v3.10.7, https://matplotlib.org/</dc:title>
     </cc:Agent>
    </dc:creator>
   </cc:Work>
  </rdf:RDF>
 </metadata>
 <defs>
  <style type="text/css">*{stroke-linejoin: round; stroke-linecap: butt}</style>
 </defs>
 <g id="figure_1">
  <g id="patch_1">
   <path d="M 0 288 
L 720 288 
L 720 0 
L 0 0 
z
" style="fill: #ffffff"/>
  </g>
  <g id="axes_1">
   <g id="patch_2">
    <path d="M 90 256.32 
L 648 256.32 
L 648 34.56 
L 90 34.56 
z
" style="fill: #ffffff"/>
   </g>
   <g id="matplotlib.axis_1">
    <g id="xtick_1">
     <g id="line2d_1">
      <path d="M 115.363636 256.32 
L 115.363636 34.56 
" clip-path="url(#p3c49eb5511)" style="fill: none; stroke: #b0b0b0; stroke-width: 0.8; stroke-linecap: square"/>
     </g>
     <g id="line2d_2">
      <defs>
       <path id="mc6473d40b6" d="M 0 0 
L 0 3.5 
" style="stroke: #000000; stroke-width: 0.8"/>
      </defs>
      <g>
       <use xlink:href="#mc6473d40b6" x="115.363636" y="256.32" style="stroke: #000000; stroke-width: 0.8"/>
      </g>
     </g>
     <g id="text_1">
      <!-- 0 -->
      <g transform="translate(112.182386 270.918437) scale(0.1 -0.1)">
       <defs>
        <path id="DejaVuSans-30" d="M 2034 4250 
Q 1547 4250 1301 3770 
Q 1056 3291 1056 2328 
Q 1056 1369 1301 889 
Q 1547 409 2034 409 
Q 2525 409 2770 889 
Q 3016 1369 3016 2328 
Q 3016 3291 2770 3770 
Q 2525 4250 2034 4250 
z
M 2034 4750 
Q 2819 4750 3233 4129 
Q 3647 3509 3647 2328 
Q 3647 1150 3233 529 
Q 2819 -91 2034 -91 
Q 1250 -91 836 529 
Q 422 1150 422 2328 
Q 422 3509 836 4129 
Q 1250 4750 2034 4750 
z
" transform="scale(0.015625)"/>
       </defs>
       <use xlink:href="#DejaVuSans-30"/>
      </g>
     </g>
    </g>
    <g id="xtick_2">
     <g id="line2d_3">
      <path d="M 216.828328 256.32 
L 216.828328 34.56 
" clip-path="url(#p3c49eb5511)" style="fill: none; stroke: #b0b0b0; stroke-width: 0.8; stroke-linecap: square"/>
     </g>
     <g id="line2d_4">
      <g>
       <use xlink:href="#mc6473d40b6" x="216.828328" y="256.32" style="stroke: #000000; stroke-width: 0.8"/>
      </g>
     </g>
     <g id="text_2">
      <!-- 2000 -->
      <g transform="translate(204.103328 270.918437) scale(0.1 -0.1)">
       <defs>
        <path id="DejaVuSans-32" d="M 1228 531 
L 3431 531 
L 3431 0 
L 469 0 
L 469 531 
Q 828 903 1448 1529 
Q 2069 2156 2228 2338 
Q 2531 2678 2651 2914 
Q 2772 3150 2772 3378 
Q 2772 3750 2511 3984 
Q 2250 4219 1831 4219 
Q 1534 4219 1204 4116 
Q 875 4013 500 3803 
L 500 4441 
Q 881 4594 1212 4672 
Q 1544 4750 1819 4750 
Q 2544 4750 2975 4387 
Q 3406 4025 3406 3419 
Q 3406 3131 3298 2873 
Q 3191 2616 2906 2266 
Q 2828 2175 2409 1742 
Q 1991 1309 1228 531 
z
" transform="scale(0.015625)"/>
       </defs>
       <use xlink:href="#DejaVuSans-32"/>
       <use xlink:href="#DejaVuSans-30" transform="translate(63.623047 0)"/>
       <use xlink:href="#DejaVuSans-30" transform="translate(127.246094 0)"/>
       <use xlink:href="#DejaVuSans-30" transform="translate(190.869141 0)"/>
      </g>
     </g>
    </g>
    <g id="xtick_3">
     <g id="line2d_5">
      <path d="M 318.29302 256.32 
L 318.29302 34.56 
" clip-path="url(#p3c49eb5511)" style="fill: none; stroke: #b0b0b0; stroke-width: 0.8; stroke-linecap: square"/>
     </g>
     <g id="line2d_6">
      <g>
       <use xlink:href="#mc6473d40b6" x="318.29302" y="256.32" style="stroke: #000000; stroke-width: 0.8"/>
      </g>
     </g>
     <g id="text_3">
      <!-- 4000 -->
      <g transform="translate(305.56802 270.918437) scale(0.1 -0.1)">
       <defs>
        <path id="DejaVuSans-34" d="M 2419 4116 
L 825 1625 
L 2419 1625 
L 2419 4116 
z
M 2253 4666 
L 3047 4666 
L 3047 1625 
L 3713 1625 
L 3713 1100 
L 3047 1100 
L 3047 0 
L 2419 0 
L 2419 1100 
L 313 1100 
L 313 1709 
L 2253 4666 
z
" transform="scale(0.015625)"/>
       </defs>
       <use xlink:href="#DejaVuSans-34"/>
       <use xlink:href="#DejaVuSans-30" transform="translate(63.623047 0)"/>
       <use xlink:href="#DejaVuSans-30" transform="translate(127.246094 0)"/>
       <use xlink:href="#DejaVuSans-30" transform="translate(190.869141 0)"/>
      </g>
     </g>
    </g>
    <g id="xtick_4">
     <g id="line2d_7">
      <path d="M 419.757712 256.32 
L 419.757712 34.56 
" clip-path="url(#p3c49eb5511)" style="fill: none; stroke: #b0b0b0; stroke-width: 0.8; stroke-linecap: square"/>
     </g>
     <g id="line2d_8">
      <g>
       <use xlink:href="#mc6473d40b6" x="419.757712" y="256.32" style="stroke: #000000; stroke-width: 0.8"/>
      </g>
     </g>
     <g id="text_4">
      <!-- 6000 -->
      <g transform="translate(407.032712 270.918437) scale(0.1 -0.1)">
       <defs>
        <path id="DejaVuSans-36" d="M 2113 2584 
Q 1688 2584 1439 2293 
Q 1191 2003 1191 1497 
Q 1191 994 1439 701 
Q 1688 409 2113 409 
Q 2538 409 2786 701 
Q 3034 994 3034 1497 
Q 3034 2003 2786 2293 
Q 2538 2584 2113 2584 
z
M 3366 4563 
L 3366 3988 
Q 3128 4100 2886 4159 
Q 2644 4219 2406 4219 
Q 1781 4219 1451 3797 
Q 1122 3375 1075 2522 
Q 1259 2794 1537 2939 
Q 1816 3084 2150 3084 
Q 2853 3084 3261 2657 
Q 3669 2231 3669 1497 
Q 3669 778 3244 343 
Q 2819 -91 2113 -91 
Q 1303 -91 875 529 
Q 447 1150 447 2328 
Q 447 3434 972 4092 
Q 1497 4750 2381 4750 
Q 2619 4750 2861 4703 
Q 3103 4656 3366 4563 
z
" transform="scale(0.015625)"/>
       </defs>
       <use xlink:href="#DejaVuSans-36"/>
       <use xlink:href="#DejaVuSans-30" transform="translate(63.623047 0)"/>
       <use xlink:href="#DejaVuSans-30" transform="translate(127.246094 0)"/>
       <use xlink:href="#DejaVuSans-30" transform="translate(190.869141 0)"/>
      </g>
     </g>
    </g>
    <g id="xtick_5">
     <g id="line2d_9">
      <path d="M 521.222404 256.32 
L 521.222404 34.56 
" clip-path="url(#p3c49eb5511)" style="fill: none; stroke: #b0b0b0; stroke-width: 0.8; stroke-linecap: square"/>
     </g>
     <g id="line2d_10">
      <g>
       <use xlink:href="#mc6473d40b6" x="521.222404" y="256.32" style="stroke: #000000; stroke-width: 0.8"/>
      </g>
     </g>
     <g id="text_5">
      <!-- 8000 -->
      <g transform="translate(508.497404 270.918437) scale(0.1 -0.1)">
       <defs>
        <path id="DejaVuSans-38" d="M 2034 2216 
Q 1584 2216 1326 1975 
Q 1069 1734 1069 1313 
Q 1069 891 1326 650 
Q 1584 409 2034 409 
Q 2484 409 2743 651 
Q 3003 894 3003 1313 
Q 3003 1734 2745 1975 
Q 2488 2216 2034 2216 
z
M 1403 2484 
Q 997 2584 770 2862 
Q 544 3141 544 3541 
Q 544 4100 942 4425 
Q 1341 4750 2034 4750 
Q 2731 4750 3128 4425 
Q 3525 4100 3525 3541 
Q 3525 3141 3298 2862 
Q 3072 2584 2669 2484 
Q 3125 2378 3379 2068 
Q 3634 1759 3634 1313 
Q 3634 634 3220 271 
Q 2806 -91 2034 -91 
Q 1263 -91 848 271 
Q 434 634 434 1313 
Q 434 1759 690 2068 
Q 947 2378 1403 2484 
z
M 1172 3481 
Q 1172 3119 1398 2916 
Q 1625 2713 2034 2713 
Q 2441 2713 2670 2916 
Q 2900 3119 2900 3481 
Q 2900 3844 2670 4047 
Q 2441 4250 2034 4250 
Q 1625 4250 1398 4047 
Q 1172 3844 1172 3481 
z
" transform="scale(0.015625)"/>
       </defs>
       <use xlink:href="#DejaVuSans-38"/>
       <use xlink:href="#DejaVuSans-30" transform="translate(63.623047 0)"/>
       <use xlink:href="#DejaVuSans-30" transform="translate(127.246094 0)"/>
       <use xlink:href="#DejaVuSans-30" transform="translate(190.869141 0)"/>
      </g>
     </g>
    </g>
    <g id="xtick_6">
     <g id="line2d_11">
      <path d="M 622.687096 256.32 
L 622.687096 34.56 
" clip-path="url(#p3c49eb5511)" style="fill: none; stroke: #b0b0b0; stroke-width: 0.8; stroke-linecap: square"/>
     </g>
     <g id="line2d_12">
      <g>
       <use xlink:href="#mc6473d40b6" x="622.687096" y="256.32" style="stroke: #000000; stroke-width: 0.8"/>
      </g>
     </g>
     <g id="text_6">
      <!-- 10000 -->
      <g transform="translate(606.780846 270.918437) scale(0.1 -0.1)">
       <defs>
        <path id="DejaVuSans-31" d="M 794 531 
L 1825 531 
L 1825 4091 
L 703 3866 
L 703 4441 
L 1819 4666 
L 2450 4666 
L 2450 531 
L 3481 531 
L 3481 0 
L 794 0 
L 794 531 
z
" transform="scale(0.015625)"/>
       </defs>
       <use xlink:href="#DejaVuSans-31"/>
       <use xlink:href="#DejaVuSans-30" transform="translate(63.623047 0)"/>
       <use xlink:href="#DejaVuSans-30" transform="translate(127.246094 0)"/>
       <use xlink:href="#DejaVuSans-30" transform="translate(190.869141 0)"/>
       <use xlink:href="#DejaVuSans-30" transform="translate(254.492188 0)"/>
      </g>
     </g>
    </g>
    <g id="text_7">
     <!-- Iterations -->
     <g transform="translate(335.661406 287.635938) scale(0.14 -0.14)">
      <defs>
       <path id="DejaVuSans-49" d="M 628 4666 
L 1259 4666 
L 1259 0 
L 628 0 
L 628 4666 
z
" transform="scale(0.015625)"/>
       <path id="DejaVuSans-74" d="M 1172 4494 
L 1172 3500 
L 2356 3500 
L 2356 3053 
L 1172 3053 
L 1172 1153 
Q 1172 725 1289 603 
Q 1406 481 1766 481 
L 2356 481 
L 2356 0 
L 1766 0 
Q 1100 0 847 248 
Q 594 497 594 1153 
L 594 3053 
L 172 3053 
L 172 3500 
L 594 3500 
L 594 4494 
L 1172 4494 
z
" transform="scale(0.015625)"/>
       <path id="DejaVuSans-65" d="M 3597 1894 
L 3597 1613 
L 953 1613 
Q 991 1019 1311 708 
Q 1631 397 2203 397 
Q 2534 397 2845 478 
Q 3156 559 3463 722 
L 3463 178 
Q 3153 47 2828 -22 
Q 2503 -91 2169 -91 
Q 1331 -91 842 396 
Q 353 884 353 1716 
Q 353 2575 817 3079 
Q 1281 3584 2069 3584 
Q 2775 3584 3186 3129 
Q 3597 2675 3597 1894 
z
M 3022 2063 
Q 3016 2534 2758 2815 
Q 2500 3097 2075 3097 
Q 1594 3097 1305 2825 
Q 1016 2553 972 2059 
L 3022 2063 
z
" transform="scale(0.015625)"/>
       <path id="DejaVuSans-72" d="M 2631 2963 
Q 2534 3019 2420 3045 
Q 2306 3072 2169 3072 
Q 1681 3072 1420 2755 
Q 1159 2438 1159 1844 
L 1159 0 
L 581 0 
L 581 3500 
L 1159 3500 
L 1159 2956 
Q 1341 3275 1631 3429 
Q 1922 3584 2338 3584 
Q 2397 3584 2469 3576 
Q 2541 3569 2628 3553 
L 2631 2963 
z
" transform="scale(0.015625)"/>
       <path id="DejaVuSans-61" d="M 2194 1759 
Q 1497 1759 1228 1600 
Q 959 1441 959 1056 
Q 959 750 1161 570 
Q 1363 391 1709 391 
Q 2188 391 2477 730 
Q 2766 1069 2766 1631 
L 2766 1759 
L 2194 1759 
z
M 3341 1997 
L 3341 0 
L 2766 0 
L 2766 531 
Q 2569 213 2275 61 
Q 1981 -91 1556 -91 
Q 1019 -91 701 211 
Q 384 513 384 1019 
Q 384 1609 779 1909 
Q 1175 2209 1959 2209 
L 2766 2209 
L 2766 2266 
Q 2766 2663 2505 2880 
Q 2244 3097 1772 3097 
Q 1472 3097 1187 3025 
Q 903 2953 641 2809 
L 641 3341 
Q 956 3463 1253 3523 
Q 1550 3584 1831 3584 
Q 2591 3584 2966 3190 
Q 3341 2797 3341 1997 
z
" transform="scale(0.015625)"/>
       <path id="DejaVuSans-69" d="M 603 3500 
L 1178 3500 
L 1178 0 
L 603 0 
L 603 3500 
z
M 603 4863 
L 1178 4863 
L 1178 4134 
L 603 4134 
L 603 4863 
z
" transform="scale(0.015625)"/>
       <path id="DejaVuSans-6f" d="M 1959 3097 
Q 1497 3097 1228 2736 
Q 959 2375 959 1747 
Q 959 1119 1226 758 
Q 1494 397 1959 397 
Q 2419 397 2687 759 
Q 2956 1122 2956 1747 
Q 2956 2369 2687 2733 
Q 2419 3097 1959 3097 
z
M 1959 3584 
Q 2709 3584 3137 3096 
Q 3566 2609 3566 1747 
Q 3566 888 3137 398 
Q 2709 -91 1959 -91 
Q 1206 -91 779 398 
Q 353 888 353 1747 
Q 353 2609 779 3096 
Q 1206 3584 1959 3584 
z
" transform="scale(0.015625)"/>
       <path id="DejaVuSans-6e" d="M 3513 2113 
L 3513 0 
L 2938 0 
L 2938 2094 
Q 2938 2591 2744 2837 
Q 2550 3084 2163 3084 
Q 1697 3084 1428 2787 
Q 1159 2491 1159 1978 
L 1159 0 
L 581 0 
L 581 3500 
L 1159 3500 
L 1159 2956 
Q 1366 3272 1645 3428 
Q 1925 3584 2291 3584 
Q 2894 3584 3203 3211 
Q 3513 2838 3513 2113 
z
" transform="scale(0.015625)"/>
       <path id="DejaVuSans-73" d="M 2834 3397 
L 2834 2853 
Q 2591 2978 2328 3040 
Q 2066 3103 1784 3103 
Q 1356 3103 1142 2972 
Q 928 2841 928 2578 
Q 928 2378 1081 2264 
Q 1234 2150 1697 2047 
L 1894 2003 
Q 2506 1872 2764 1633 
Q 3022 1394 3022 966 
Q 3022 478 2636 193 
Q 2250 -91 1575 -91 
Q 1294 -91 989 -36 
Q 684 19 347 128 
L 347 722 
Q 666 556 975 473 
Q 1284 391 1588 391 
Q 1994 391 2212 530 
Q 2431 669 2431 922 
Q 2431 1156 2273 1281 
Q 2116 1406 1581 1522 
L 1381 1569 
Q 847 1681 609 1914 
Q 372 2147 372 2553 
Q 372 3047 722 3315 
Q 1072 3584 1716 3584 
Q 2034 3584 2315 3537 
Q 2597 3491 2834 3397 
z
" transform="scale(0.015625)"/>
      </defs>
      <use xlink:href="#DejaVuSans-49"/>
      <use xlink:href="#DejaVuSans-74" transform="translate(29.492188 0)"/>
      <use xlink:href="#DejaVuSans-65" transform="translate(68.701172 0)"/>
      <use xlink:href="#DejaVuSans-72" transform="translate(130.224609 0)"/>
      <use xlink:href="#DejaVuSans-61" transform="translate(171.337891 0)"/>
      <use xlink:href="#DejaVuSans-74" transform="translate(232.617188 0)"/>
      <use xlink:href="#DejaVuSans-69" transform="translate(271.826172 0)"/>
      <use xlink:href="#DejaVuSans-6f" transform="translate(299.609375 0)"/>
      <use xlink:href="#DejaVuSans-6e" transform="translate(360.791016 0)"/>
      <use xlink:href="#DejaVuSans-73" transform="translate(424.169922 0)"/>
     </g>
    </g>
   </g>
   <g id="matplotlib.axis_2">
    <g id="ytick_1">
     <g id="line2d_13">
      <path d="M 90 221.71373 
L 648 221.71373 
" clip-path="url(#p3c49eb5511)" style="fill: none; stroke: #b0b0b0; stroke-width: 0.8; stroke-linecap: square"/>
     </g>
     <g id="line2d_14">
      <defs>
       <path id="m9b4cb675d0" d="M 0 0 
L -3.5 0 
" style="stroke: #000000; stroke-width: 0.8"/>
      </defs>
      <g>
       <use xlink:href="#m9b4cb675d0" x="90" y="221.71373" style="stroke: #000000; stroke-width: 0.8"/>
      </g>
     </g>
     <g id="text_8">
      <!-- −0.10 -->
      <g transform="translate(52.354687 225.512949) scale(0.1 -0.1)">
       <defs>
        <path id="DejaVuSans-2212" d="M 678 2272 
L 4684 2272 
L 4684 1741 
L 678 1741 
L 678 2272 
z
" transform="scale(0.015625)"/>
        <path id="DejaVuSans-2e" d="M 684 794 
L 1344 794 
L 1344 0 
L 684 0 
L 684 794 
z
" transform="scale(0.015625)"/>
       </defs>
       <use xlink:href="#DejaVuSans-2212"/>
       <use xlink:href="#DejaVuSans-30" transform="translate(83.789062 0)"/>
       <use xlink:href="#DejaVuSans-2e" transform="translate(147.412109 0)"/>
       <use xlink:href="#DejaVuSans-31" transform="translate(179.199219 0)"/>
       <use xlink:href="#DejaVuSans-30" transform="translate(242.822266 0)"/>
      </g>
     </g>
    </g>
    <g id="ytick_2">
     <g id="line2d_15">
      <path d="M 90 186.298984 
L 648 186.298984 
" clip-path="url(#p3c49eb5511)" style="fill: none; stroke: #b0b0b0; stroke-width: 0.8; stroke-linecap: square"/>
     </g>
     <g id="line2d_16">
      <g>
       <use xlink:href="#m9b4cb675d0" x="90" y="186.298984" style="stroke: #000000; stroke-width: 0.8"/>
      </g>
     </g>
     <g id="text_9">
      <!-- −0.08 -->
      <g transform="translate(52.354687 190.098203) scale(0.1 -0.1)">
       <use xlink:href="#DejaVuSans-2212"/>
       <use xlink:href="#DejaVuSans-30" transform="translate(83.789062 0)"/>
       <use xlink:href="#DejaVuSans-2e" transform="translate(147.412109 0)"/>
       <use xlink:href="#DejaVuSans-30" transform="translate(179.199219 0)"/>
       <use xlink:href="#DejaVuSans-38" transform="translate(242.822266 0)"/>
      </g>
     </g>
    </g>
    <g id="ytick_3">
     <g id="line2d_17">
      <path d="M 90 150.884238 
L 648 150.884238 
" clip-path="url(#p3c49eb5511)" style="fill: none; stroke: #b0b0b0; stroke-width: 0.8; stroke-linecap: square"/>
     </g>
     <g id="line2d_18">
      <g>
       <use xlink:href="#m9b4cb675d0" x="90" y="150.884238" style="stroke: #000000; stroke-width: 0.8"/>
      </g>
     </g>
     <g id="text_10">
      <!-- −0.06 -->
      <g transform="translate(52.354687 154.683457) scale(0.1 -0.1)">
       <use xlink:href="#DejaVuSans-2212"/>
       <use xlink:href="#DejaVuSans-30" transform="translate(83.789062 0)"/>
       <use xlink:href="#DejaVuSans-2e" transform="translate(147.412109 0)"/>
       <use xlink:href="#DejaVuSans-30" transform="translate(179.199219 0)"/>
       <use xlink:href="#DejaVuSans-36" transform="translate(242.822266 0)"/>
      </g>
     </g>
    </g>
    <g id="ytick_4">
     <g id="line2d_19">
      <path d="M 90 115.469492 
L 648 115.469492 
" clip-path="url(#p3c49eb5511)" style="fill: none; stroke: #b0b0b0; stroke-width: 0.8; stroke-linecap: square"/>
     </g>
     <g id="line2d_20">
      <g>
       <use xlink:href="#m9b4cb675d0" x="90" y="115.469492" style="stroke: #000000; stroke-width: 0.8"/>
      </g>
     </g>
     <g id="text_11">
      <!-- −0.04 -->
      <g transform="translate(52.354687 119.268711) scale(0.1 -0.1)">
       <use xlink:href="#DejaVuSans-2212"/>
       <use xlink:href="#DejaVuSans-30" transform="translate(83.789062 0)"/>
       <use xlink:href="#DejaVuSans-2e" transform="translate(147.412109 0)"/>
       <use xlink:href="#DejaVuSans-30" transform="translate(179.199219 0)"/>
       <use xlink:href="#DejaVuSans-34" transform="translate(242.822266 0)"/>
      </g>
     </g>
    </g>
    <g id="ytick_5">
     <g id="line2d_21">
      <path d="M 90 80.054746 
L 648 80.054746 
" clip-path="url(#p3c49eb5511)" style="fill: none; stroke: #b0b0b0; stroke-width: 0.8; stroke-linecap: square"/>
     </g>
     <g id="line2d_22">
      <g>
       <use xlink:href="#m9b4cb675d0" x="90" y="80.054746" style="stroke: #000000; stroke-width: 0.8"/>
      </g>
     </g>
     <g id="text_12">
      <!-- −0.02 -->
      <g transform="translate(52.354687 83.853965) scale(0.1 -0.1)">
       <use xlink:href="#DejaVuSans-2212"/>
       <use xlink:href="#DejaVuSans-30" transform="translate(83.789062 0)"/>
       <use xlink:href="#DejaVuSans-2e" transform="translate(147.412109 0)"/>
       <use xlink:href="#DejaVuSans-30" transform="translate(179.199219 0)"/>
       <use xlink:href="#DejaVuSans-32" transform="translate(242.822266 0)"/>
      </g>
     </g>
    </g>
    <g id="ytick_6">
     <g id="line2d_23">
      <path d="M 90 44.64 
L 648 44.64 
" clip-path="url(#p3c49eb5511)" style="fill: none; stroke: #b0b0b0; stroke-width: 0.8; stroke-linecap: square"/>
     </g>
     <g id="line2d_24">
      <g>
       <use xlink:href="#m9b4cb675d0" x="90" y="44.64" style="stroke: #000000; stroke-width: 0.8"/>
      </g>
     </g>
     <g id="text_13">
      <!-- 0.00 -->
      <g transform="translate(60.734375 48.439219) scale(0.1 -0.1)">
       <use xlink:href="#DejaVuSans-30"/>
       <use xlink:href="#DejaVuSans-2e" transform="translate(63.623047 0)"/>
       <use xlink:href="#DejaVuSans-30" transform="translate(95.410156 0)"/>
       <use xlink:href="#DejaVuSans-30" transform="translate(159.033203 0)"/>
      </g>
     </g>
    </g>
    <g id="text_14">
     <!-- Q-Value$(s_0, a_0)$ -->
     <g transform="translate(45.443125 196.89) rotate(-90) scale(0.14 -0.14)">
      <defs>
       <path id="DejaVuSans-51" d="M 2522 4238 
Q 1834 4238 1429 3725 
Q 1025 3213 1025 2328 
Q 1025 1447 1429 934 
Q 1834 422 2522 422 
Q 3209 422 3611 934 
Q 4013 1447 4013 2328 
Q 4013 3213 3611 3725 
Q 3209 4238 2522 4238 
z
M 3406 84 
L 4238 -825 
L 3475 -825 
L 2784 -78 
Q 2681 -84 2626 -87 
Q 2572 -91 2522 -91 
Q 1538 -91 948 567 
Q 359 1225 359 2328 
Q 359 3434 948 4092 
Q 1538 4750 2522 4750 
Q 3503 4750 4090 4092 
Q 4678 3434 4678 2328 
Q 4678 1516 4351 937 
Q 4025 359 3406 84 
z
" transform="scale(0.015625)"/>
       <path id="DejaVuSans-2d" d="M 313 2009 
L 1997 2009 
L 1997 1497 
L 313 1497 
L 313 2009 
z
" transform="scale(0.015625)"/>
       <path id="DejaVuSans-56" d="M 1831 0 
L 50 4666 
L 709 4666 
L 2188 738 
L 3669 4666 
L 4325 4666 
L 2547 0 
L 1831 0 
z
" transform="scale(0.015625)"/>
       <path id="DejaVuSans-6c" d="M 603 4863 
L 1178 4863 
L 1178 0 
L 603 0 
L 603 4863 
z
" transform="scale(0.015625)"/>
       <path id="DejaVuSans-75" d="M 544 1381 
L 544 3500 
L 1119 3500 
L 1119 1403 
Q 1119 906 1312 657 
Q 1506 409 1894 409 
Q 2359 409 2629 706 
Q 2900 1003 2900 1516 
L 2900 3500 
L 3475 3500 
L 3475 0 
L 2900 0 
L 2900 538 
Q 2691 219 2414 64 
Q 2138 -91 1772 -91 
Q 1169 -91 856 284 
Q 544 659 544 1381 
z
M 1991 3584 
L 1991 3584 
z
" transform="scale(0.015625)"/>
       <path id="DejaVuSans-28" d="M 1984 4856 
Q 1566 4138 1362 3434 
Q 1159 2731 1159 2009 
Q 1159 1288 1364 580 
Q 1569 -128 1984 -844 
L 1484 -844 
Q 1016 -109 783 600 
Q 550 1309 550 2009 
Q 550 2706 781 3412 
Q 1013 4119 1484 4856 
L 1984 4856 
z
" transform="scale(0.015625)"/>
       <path id="DejaVuSans-Oblique-73" d="M 3200 3397 
L 3091 2853 
Q 2863 2978 2609 3040 
Q 2356 3103 2088 3103 
Q 1634 3103 1373 2948 
Q 1113 2794 1113 2528 
Q 1113 2219 1719 2053 
Q 1766 2041 1788 2034 
L 1972 1978 
Q 2547 1819 2739 1644 
Q 2931 1469 2931 1166 
Q 2931 609 2489 259 
Q 2047 -91 1331 -91 
Q 1053 -91 747 -37 
Q 441 16 72 128 
L 184 722 
Q 500 559 806 475 
Q 1113 391 1394 391 
Q 1816 391 2080 572 
Q 2344 753 2344 1031 
Q 2344 1331 1650 1516 
L 1591 1531 
L 1394 1581 
Q 956 1697 753 1886 
Q 550 2075 550 2369 
Q 550 2928 970 3256 
Q 1391 3584 2113 3584 
Q 2397 3584 2667 3537 
Q 2938 3491 3200 3397 
z
" transform="scale(0.015625)"/>
       <path id="DejaVuSans-2c" d="M 750 794 
L 1409 794 
L 1409 256 
L 897 -744 
L 494 -744 
L 750 256 
L 750 794 
z
" transform="scale(0.015625)"/>
       <path id="DejaVuSans-Oblique-61" d="M 3438 1997 
L 3047 0 
L 2472 0 
L 2578 531 
Q 2325 219 2001 64 
Q 1678 -91 1281 -91 
Q 834 -91 548 182 
Q 263 456 263 884 
Q 263 1497 752 1853 
Q 1241 2209 2100 2209 
L 2900 2209 
L 2931 2363 
Q 2938 2388 2941 2417 
Q 2944 2447 2944 2509 
Q 2944 2788 2717 2942 
Q 2491 3097 2081 3097 
Q 1800 3097 1504 3025 
Q 1209 2953 897 2809 
L 997 3341 
Q 1322 3463 1633 3523 
Q 1944 3584 2234 3584 
Q 2853 3584 3176 3315 
Q 3500 3047 3500 2534 
Q 3500 2431 3484 2292 
Q 3469 2153 3438 1997 
z
M 2816 1759 
L 2241 1759 
Q 1534 1759 1195 1570 
Q 856 1381 856 984 
Q 856 709 1029 553 
Q 1203 397 1509 397 
Q 1978 397 2328 733 
Q 2678 1069 2791 1631 
L 2816 1759 
z
" transform="scale(0.015625)"/>
       <path id="DejaVuSans-29" d="M 513 4856 
L 1013 4856 
Q 1481 4119 1714 3412 
Q 1947 2706 1947 2009 
Q 1947 1309 1714 600 
Q 1481 -109 1013 -844 
L 513 -844 
Q 928 -128 1133 580 
Q 1338 1288 1338 2009 
Q 1338 2731 1133 3434 
Q 928 4138 513 4856 
z
" transform="scale(0.015625)"/>
      </defs>
      <use xlink:href="#DejaVuSans-51" transform="translate(0 0.015625)"/>
      <use xlink:href="#DejaVuSans-2d" transform="translate(78.710938 0.015625)"/>
      <use xlink:href="#DejaVuSans-56" transform="translate(114.794922 0.015625)"/>
      <use xlink:href="#DejaVuSans-61" transform="translate(183.203125 0.015625)"/>
      <use xlink:href="#DejaVuSans-6c" transform="translate(244.482422 0.015625)"/>
      <use xlink:href="#DejaVuSans-75" transform="translate(272.265625 0.015625)"/>
      <use xlink:href="#DejaVuSans-65" transform="translate(335.644531 0.015625)"/>
      <use xlink:href="#DejaVuSans-28" transform="translate(397.167969 0.015625)"/>
      <use xlink:href="#DejaVuSans-Oblique-73" transform="translate(436.181641 0.015625)"/>
      <use xlink:href="#DejaVuSans-30" transform="translate(488.28125 -16.390625) scale(0.7)"/>
      <use xlink:href="#DejaVuSans-2c" transform="translate(535.551758 0.015625)"/>
      <use xlink:href="#DejaVuSans-Oblique-61" transform="translate(586.821289 0.015625)"/>
      <use xlink:href="#DejaVuSans-30" transform="translate(648.100586 -16.390625) scale(0.7)"/>
      <use xlink:href="#DejaVuSans-29" transform="translate(695.371094 0.015625)"/>
     </g>
    </g>
   </g>
   <g id="line2d_25">
    <path d="M 115.363636 44.64 
L 115.515833 44.974013 
L 115.617298 45.807758 
L 115.769495 48.377587 
L 115.820227 48.377587 
L 115.972425 49.917721 
L 116.429016 54.067452 
L 116.479748 54.067452 
L 116.581213 55.116242 
L 116.73341 57.517756 
L 116.784142 57.517756 
L 117.291466 60.734786 
L 117.342198 60.734786 
L 117.59586 61.921249 
L 117.950986 67.423515 
L 118.001718 67.423515 
L 118.103183 68.092066 
L 118.356845 71.62544 
L 118.407577 71.62544 
L 118.661239 74.379195 
L 118.711971 74.379195 
L 118.864168 76.42875 
L 118.914901 76.42875 
L 119.067098 79.35037 
L 119.472956 87.256245 
L 119.523689 87.6635 
L 119.675886 90.017818 
L 119.828083 91.795584 
L 120.081745 96.501737 
L 120.132477 96.501737 
L 120.335406 99.870237 
L 120.436871 99.870237 
L 120.487603 100.6781 
L 120.6398 104.258601 
L 121.096391 110.1878 
L 121.451518 112.119202 
L 121.70518 112.595941 
L 121.958841 116.19845 
L 122.263235 117.819545 
L 122.415432 119.796002 
L 122.567629 121.147954 
L 122.770559 123.947707 
L 122.821291 123.947707 
L 123.074953 126.790916 
L 123.176418 127.445218 
L 123.328615 130.855494 
L 123.379347 130.855494 
L 123.430079 131.001074 
L 123.582276 133.432767 
L 123.633009 133.432767 
L 123.88667 136.992547 
L 123.988135 137.077366 
L 124.191065 141.035229 
L 124.343262 141.411216 
L 124.393994 141.495884 
L 124.74912 146.681521 
L 124.901317 147.407508 
L 125.104247 147.407508 
L 125.256444 148.700006 
L 125.408641 151.286846 
L 125.459373 151.551026 
L 125.61157 153.095566 
L 125.662303 153.095566 
L 125.915964 156.550691 
L 126.017429 156.634935 
L 126.220358 159.132981 
L 126.271091 159.132981 
L 126.727682 163.541715 
L 126.981344 165.05011 
L 127.133541 167.083522 
L 127.235005 167.083522 
L 127.285738 167.455957 
L 127.437935 171.288805 
L 128.148188 177.787645 
L 128.19892 177.838963 
L 128.351117 182.099172 
L 128.503314 184.004166 
L 128.655511 184.359142 
L 128.85844 184.966623 
L 128.909173 184.966623 
L 129.06137 186.386 
L 129.213567 189.540166 
L 129.264299 190.100314 
L 129.416496 192.227387 
L 129.670158 194.721316 
L 129.771623 194.919496 
L 130.025284 196.47943 
L 130.076017 196.70501 
L 130.228214 198.381124 
L 130.329678 198.381124 
L 130.481875 199.843088 
L 130.58334 199.869809 
L 131.141396 203.136679 
L 131.192128 203.23866 
L 131.496522 205.45879 
L 131.547255 205.45879 
L 131.597987 205.865401 
L 131.750184 207.68326 
L 132.156043 208.430609 
L 132.358972 211.729396 
L 132.460437 211.756151 
L 132.612634 212.035789 
L 132.714099 212.195147 
L 132.866296 214.976248 
L 133.018493 215.002539 
L 133.373619 218.23572 
L 133.424352 218.23572 
L 133.475084 218.353607 
L 133.627281 219.740438 
L 133.678013 219.690852 
L 133.83021 220.256249 
L 133.880943 220.256249 
L 134.03314 221.556221 
L 134.083872 221.517482 
L 134.185337 221.518926 
L 134.337534 221.860461 
L 134.540463 221.887235 
L 134.641928 222.417418 
L 134.69266 223.102734 
L 134.743393 222.839744 
L 134.794125 222.809728 
L 134.946322 224.138258 
L 135.098519 224.16919 
L 135.301448 231.71772 
L 135.352181 231.71772 
L 135.402913 232.240795 
L 135.453645 232.087232 
L 135.859504 232.080219 
L 136.062434 234.266971 
L 136.265363 234.172625 
L 136.316095 233.695907 
L 136.366828 233.758989 
L 136.41756 234.04127 
L 136.468292 233.915769 
L 136.519025 233.915769 
L 136.569757 233.495495 
L 136.620489 233.786705 
L 136.823419 233.808843 
L 136.975616 235.344595 
L 137.026348 235.302997 
L 137.178545 235.302997 
L 137.330742 236.009736 
L 137.432207 235.994719 
L 137.533672 238.294656 
L 137.635136 238.242531 
L 138.243924 238.146488 
L 138.345389 239.03261 
L 138.396121 238.997991 
L 138.497586 238.997991 
L 138.548318 239.298427 
L 138.700516 241.396614 
L 138.852713 241.118488 
L 138.903445 241.118488 
L 139.055642 241.233321 
L 139.106374 241.233321 
L 139.258571 242.196718 
L 139.309304 242.075011 
L 139.360036 242.075011 
L 139.512233 239.555474 
L 139.562965 239.650139 
L 139.613698 239.650139 
L 139.66443 239.400655 
L 139.765895 244.071372 
L 139.816627 244.029859 
L 139.918092 244.029859 
L 140.121021 245.161816 
L 140.171754 245.140247 
L 140.52688 241.668393 
L 140.628345 243.521834 
L 140.679077 243.196993 
L 140.882006 242.023948 
L 140.932739 242.298947 
L 140.983471 242.238573 
L 141.084936 241.967289 
L 141.135668 240.728208 
L 141.1864 242.908913 
L 141.237133 241.996331 
L 141.338597 241.451015 
L 141.38933 241.588217 
L 141.541527 244.694097 
L 141.592259 244.488121 
L 141.642992 243.381238 
L 141.693724 244.104955 
L 141.744456 243.896903 
L 141.845921 244.585657 
L 141.896653 244.163753 
L 141.947386 246.24 
L 142.099583 242.432863 
L 142.201047 241.767421 
L 142.25178 243.749838 
L 142.353244 243.436016 
L 142.809836 230.868775 
L 142.9113 233.895602 
L 142.962033 232.61028 
L 143.063497 231.388411 
L 143.215694 238.396322 
L 143.266427 237.613108 
L 143.317159 237.347477 
L 143.367891 238.478292 
L 143.520088 235.622274 
L 143.621553 237.379749 
L 143.672285 235.296325 
L 143.723018 236.238607 
L 143.875215 238.663867 
L 144.078144 236.32804 
L 144.128877 236.52014 
L 144.179609 236.467181 
L 144.331806 235.684927 
L 144.382538 236.628284 
L 144.433271 236.245414 
L 144.484003 235.941795 
L 144.686932 238.695482 
L 144.788397 237.193525 
L 144.839129 239.64837 
L 144.889862 239.446458 
L 144.991326 238.295781 
L 145.042059 238.596787 
L 145.092791 239.71454 
L 145.194256 235.190282 
L 145.244988 235.200469 
L 145.346453 237.898434 
L 145.397185 236.199433 
L 145.447918 237.102025 
L 145.752312 240.344861 
L 145.803044 240.346093 
L 146.056706 238.62479 
L 146.107438 240.854658 
L 146.15817 239.300213 
L 146.310367 237.328259 
L 146.462564 239.771047 
L 146.614761 241.144439 
L 146.665494 241.241071 
L 146.919156 234.215927 
L 147.071353 230.991272 
L 147.122085 235.25902 
L 147.22355 234.487845 
L 147.274282 233.300292 
L 147.325014 237.026133 
L 147.375747 235.677519 
L 147.426479 235.967055 
L 147.527944 232.334107 
L 147.578676 234.242101 
L 147.629408 234.120961 
L 147.781605 230.056192 
L 147.88307 234.127104 
L 147.933802 233.990796 
L 147.984535 234.970391 
L 148.035267 233.42754 
L 148.086 235.979373 
L 148.136732 235.109199 
L 148.390394 229.897641 
L 148.441126 230.159579 
L 148.491858 230.048646 
L 148.74552 226.082695 
L 148.796252 227.185701 
L 148.846985 226.932396 
L 148.948449 226.221319 
L 149.049914 227.030275 
L 149.202111 224.934032 
L 149.252843 224.904982 
L 149.60797 221.84063 
L 149.658702 223.408622 
L 149.709435 223.205301 
L 149.861632 221.846001 
L 149.912364 221.868345 
L 149.963096 221.85096 
L 150.064561 220.99016 
L 150.115293 221.653164 
L 150.166026 221.587428 
L 150.318223 221.165214 
L 150.47042 227.691169 
L 150.571884 232.259623 
L 150.622617 231.042287 
L 150.724081 227.814666 
L 150.774814 231.20457 
L 150.825546 230.415823 
L 151.028476 225.732426 
L 151.231405 234.884098 
L 151.282137 236.584612 
L 151.383602 236.319177 
L 151.434334 236.356353 
L 151.586531 235.902992 
L 151.637264 236.148234 
L 151.789461 237.683157 
L 151.840193 237.619044 
L 152.347517 234.658906 
L 152.448981 231.158926 
L 152.499714 231.633438 
L 152.601178 231.781619 
L 152.702643 233.882788 
L 152.753375 232.512544 
L 152.804108 234.063351 
L 152.85484 232.592358 
L 152.905572 234.936577 
L 152.956305 232.683868 
L 153.209966 226.294418 
L 153.260699 227.227494 
L 153.514361 223.546419 
L 153.818755 219.982581 
L 153.869487 219.8587 
L 153.920219 219.952742 
L 153.970952 220.190043 
L 154.173881 218.753262 
L 154.224613 218.949685 
L 154.529007 217.016292 
L 154.57974 217.027234 
L 154.630472 219.159551 
L 154.681204 218.748989 
L 154.782669 218.102206 
L 154.884134 223.140176 
L 154.985599 222.95953 
L 155.036331 222.127643 
L 155.087063 222.201583 
L 155.137796 223.065896 
L 155.188528 222.728806 
L 155.23926 222.65427 
L 155.289993 221.751367 
L 155.340725 222.584253 
L 155.44219 222.12223 
L 155.492922 223.822575 
L 155.543654 223.183524 
L 156.050978 219.398583 
L 156.10171 219.551568 
L 156.152443 219.673451 
L 156.456837 217.732448 
L 156.609034 220.045957 
L 156.659766 220.186122 
L 156.862695 218.251679 
L 156.913428 218.712841 
L 157.116357 217.164048 
L 157.217822 217.025489 
L 157.268554 217.529165 
L 157.319286 225.061196 
L 157.420751 223.819602 
L 157.471484 222.911289 
L 157.522216 227.406557 
L 157.623681 226.909007 
L 157.725145 226.772166 
L 157.877342 226.045006 
L 157.928075 226.726695 
L 157.978807 226.563284 
L 158.131004 225.747008 
L 158.181736 225.809429 
L 158.283201 223.554342 
L 158.384666 229.212736 
L 158.435398 229.158057 
L 158.638327 228.796483 
L 159.196383 227.740048 
L 159.247116 229.054872 
L 159.297848 228.974883 
L 159.399313 228.773329 
L 159.450045 229.774479 
L 159.500777 229.555299 
L 159.906636 227.540864 
L 159.957368 227.613877 
L 160.41396 225.260735 
L 160.515424 225.063897 
L 160.769086 224.15907 
L 161.022748 223.451173 
L 161.07348 223.639075 
L 161.124212 223.819643 
L 161.174945 223.751572 
L 161.377874 222.979261 
L 161.428606 223.035981 
L 161.733001 222.193107 
L 161.783733 222.715011 
L 161.834465 222.689376 
L 161.986662 222.195524 
L 162.037395 222.18778 
L 162.291056 221.734501 
L 162.341789 221.691963 
L 162.59545 220.797446 
L 162.79838 220.687113 
L 163.001309 220.597436 
L 163.356436 219.788075 
L 163.4579 219.708663 
L 163.559365 219.410773 
L 163.610097 220.131907 
L 163.66083 219.519537 
L 163.762294 219.44002 
L 163.914491 218.408277 
L 164.015956 218.881842 
L 164.066688 218.510016 
L 164.168153 217.533807 
L 164.218886 219.613072 
L 164.269618 218.728424 
L 164.472547 217.273475 
L 164.574012 217.212787 
L 164.776941 216.612333 
L 164.878406 216.941725 
L 165.081335 215.932258 
L 165.132068 215.730735 
L 165.1828 217.506863 
L 165.233532 216.958098 
L 165.385729 216.160155 
L 165.436462 218.2518 
L 165.487194 217.445036 
L 165.690124 216.332308 
L 165.893053 216.832801 
L 165.994518 216.670622 
L 166.04525 216.680607 
L 166.248179 216.115765 
L 166.349644 223.041731 
L 166.400376 222.925526 
L 166.451109 223.141464 
L 166.501841 222.990333 
L 166.806235 222.614881 
L 166.856968 222.642907 
L 167.262826 221.981493 
L 167.364291 221.871639 
L 167.516488 221.813215 
L 167.719417 221.471076 
L 167.871614 221.403497 
L 168.125276 220.974125 
L 168.277473 220.880056 
L 168.581867 220.881242 
L 168.683332 220.840989 
L 168.936994 220.253822 
L 169.038458 220.19021 
L 169.29212 219.869588 
L 169.342852 220.245279 
L 169.393585 220.141753 
L 169.49505 220.032414 
L 169.647247 219.972074 
L 169.748711 219.925619 
L 169.900908 219.899136 
L 170.103838 219.905484 
L 170.256035 219.814315 
L 170.306767 219.79969 
L 170.458964 219.583169 
L 170.763358 219.402201 
L 170.81409 219.231175 
L 170.915555 219.269088 
L 171.169217 219.347736 
L 171.219949 219.07403 
L 171.321414 219.121257 
L 171.524343 219.106987 
L 171.67654 218.986735 
L 171.828737 219.018175 
L 171.980934 218.827985 
L 172.285329 218.771136 
L 172.488258 218.552552 
L 172.944849 218.517516 
L 173.097046 218.355421 
L 173.299975 218.24376 
L 173.452172 217.840309 
L 173.553637 217.895787 
L 173.705834 217.608372 
L 173.756567 217.608372 
L 173.908764 217.477674 
L 174.111693 217.442389 
L 174.213158 217.446188 
L 174.416087 216.897604 
L 174.619016 216.966232 
L 174.720481 217.112869 
L 174.872678 216.991621 
L 175.582931 216.911797 
L 175.684396 216.877106 
L 175.887325 216.980835 
L 176.090254 216.785152 
L 176.546846 216.316672 
L 176.64831 216.438832 
L 176.749775 216.527511 
L 176.800507 216.479536 
L 176.952704 216.79627 
L 177.104901 216.991349 
L 177.257098 216.759264 
L 177.307831 216.759264 
L 177.358563 216.624385 
L 177.409295 216.837592 
L 177.460028 216.650653 
L 177.561493 216.476769 
L 177.662957 216.629066 
L 178.271745 215.399229 
L 178.322478 215.399229 
L 178.474675 215.024743 
L 178.779069 214.961956 
L 178.931266 214.617642 
L 179.184928 214.571562 
L 179.540054 214.005184 
L 179.641519 214.410423 
L 179.692251 214.245093 
L 179.89518 214.371989 
L 180.09811 214.293549 
L 180.199575 214.365124 
L 180.250307 213.971435 
L 180.301039 214.361352 
L 180.402504 214.361352 
L 180.554701 214.782965 
L 180.75763 214.744145 
L 180.909827 214.314057 
L 180.96056 214.414128 
L 181.214221 213.985868 
L 181.315686 213.979825 
L 181.467883 213.862456 
L 181.924474 213.534506 
L 182.178136 213.487089 
L 182.330333 213.250854 
L 182.583995 213.296572 
L 182.685459 213.446234 
L 182.736192 213.42859 
L 183.091318 213.408366 
L 183.395712 212.790191 
L 183.446445 212.832552 
L 183.598642 212.633807 
L 183.852303 212.617001 
L 184.0045 212.796988 
L 184.156697 212.796988 
L 184.562556 211.702352 
L 184.613289 212.227077 
L 184.664021 211.872413 
L 184.714753 211.872413 
L 184.765486 212.729193 
L 184.86695 212.609449 
L 184.917683 212.609449 
L 185.06988 212.224976 
L 185.272809 212.224976 
L 185.577203 211.230228 
L 185.627936 211.605293 
L 185.678668 211.378593 
L 185.881597 211.339683 
L 186.084527 211.185503 
L 186.388921 211.184478 
L 186.541118 211.38876 
L 186.59185 211.38876 
L 186.744047 211.551667 
L 187.099174 211.534173 
L 187.251371 211.231471 
L 187.403568 211.178405 
L 187.606497 210.090949 
L 187.657229 210.182362 
L 187.860159 210.182362 
L 188.063088 209.729428 
L 188.367482 209.729428 
L 188.418215 210.036722 
L 188.468947 209.687465 
L 188.671876 209.687465 
L 188.824073 209.253895 
L 189.077735 208.928842 
L 189.585059 208.928842 
L 189.737256 208.54059 
L 190.092382 208.54059 
L 190.295311 207.95002 
L 190.599705 207.95002 
L 190.751902 207.726975 
L 191.868014 207.726975 
L 192.121676 206.853429 
L 193.643646 206.853429 
L 193.694379 207.368398 
L 193.745111 207.145935 
L 193.846576 207.145935 
L 193.998773 206.987869 
L 194.556828 206.987869 
L 194.709025 206.710239 
L 196.129531 206.710239 
L 196.281728 206.89962 
L 196.839784 206.89962 
L 196.991981 206.622078 
L 200.035922 206.622078 
L 200.188119 206.424042 
L 201.050569 206.424042 
L 201.202766 206.176211 
L 201.354963 206.078484 
L 202.572539 206.078484 
L 202.775468 205.580867 
L 202.927665 205.580867 
L 203.079863 205.405185 
L 203.130595 205.405185 
L 203.282792 205.184685 
L 203.434989 205.184685 
L 203.587186 204.908858 
L 203.942312 204.908858 
L 204.094509 204.633307 
L 204.652565 204.633307 
L 204.804762 204.43726 
L 205.41355 204.43726 
L 205.565747 204.093603 
L 208.508224 204.093603 
L 208.660421 203.665627 
L 209.7258 203.665627 
L 209.877997 203.49186 
L 209.928729 203.49186 
L 210.080926 203.064485 
L 212.769741 203.064485 
L 212.921938 202.682098 
L 213.074135 202.682098 
L 213.277064 201.982481 
L 214.139514 201.982481 
L 214.291711 201.572225 
L 215.864414 201.572225 
L 216.016611 201.14677 
L 217.284919 201.14677 
L 217.437116 200.806404 
L 218.198102 200.806404 
L 218.401031 200.042113 
L 218.756157 200.042113 
L 218.908354 199.702851 
L 219.46641 199.702851 
L 219.618607 198.985282 
L 220.227395 198.985282 
L 220.379593 199.413098 
L 221.394239 199.413098 
L 221.546436 198.989802 
L 223.271336 198.989802 
L 223.423533 198.651593 
L 226.619671 198.651593 
L 226.771868 198.349815 
L 227.02553 198.349815 
L 227.279192 197.128942 
L 229.866541 197.128942 
L 230.069471 196.331899 
L 230.678259 196.331899 
L 230.830456 195.996348 
L 231.743638 195.996348 
L 231.895835 195.697225 
L 232.352426 195.697225 
L 232.504623 195.277645 
L 233.874397 195.277645 
L 234.026594 194.858484 
L 237.273464 194.858484 
L 237.425661 194.524406 
L 239.35349 194.524406 
L 239.505687 194.190662 
L 240.418869 194.190662 
L 240.571066 193.817148 
L 242.245234 193.817148 
L 242.346698 193.444008 
L 242.498895 193.836857 
L 245.441371 193.836857 
L 245.593568 193.419137 
L 253.000491 193.419137 
L 253.152688 193.001835 
L 255.232714 193.001835 
L 255.384911 193.395126 
L 256.348826 193.395126 
L 256.501023 193.022407 
L 261.827919 193.022407 
L 261.980116 192.605502 
L 264.821128 192.605502 
L 264.973325 192.189014 
L 266.495295 192.189014 
L 266.698224 191.357286 
L 266.951886 191.357286 
L 267.104083 190.942046 
L 268.778251 190.942046 
L 268.930448 190.527221 
L 270.909009 190.527221 
L 271.061206 190.11281 
L 272.532444 190.11281 
L 272.684641 189.698815 
L 273.141232 189.698815 
L 273.293429 189.329792 
L 276.33737 189.329792 
L 276.489567 188.91658 
L 280.548155 188.91658 
L 280.700352 188.588444 
L 314.893953 188.588444 
L 315.04615 188.260636 
L 316.517388 188.260636 
L 316.669585 187.848492 
L 319.612061 187.848492 
L 319.764258 187.436761 
L 326.004337 187.436761 
L 326.156534 187.025441 
L 345.282628 187.025441 
L 345.434825 186.614532 
L 364.611652 186.614532 
L 364.763849 186.204035 
L 399.667703 186.204035 
L 399.8199 185.793948 
L 465.010965 185.793948 
L 465.163162 185.384271 
L 467.29392 185.384271 
L 467.446117 184.975004 
L 513.866214 184.975004 
L 514.018411 184.566146 
L 591.84183 184.566146 
L 591.994027 184.157697 
L 622.636364 184.157697 
L 622.636364 184.157697 
" clip-path="url(#p3c49eb5511)" style="fill: none; stroke: #0000ff; stroke-width: 2; stroke-linecap: square"/>
   </g>
   <g id="patch_3">
    <path d="M 90 256.32 
L 90 34.56 
" style="fill: none; stroke: #000000; stroke-width: 0.8; stroke-linejoin: miter; stroke-linecap: square"/>
   </g>
   <g id="patch_4">
    <path d="M 648 256.32 
L 648 34.56 
" style="fill: none; stroke: #000000; stroke-width: 0.8; stroke-linejoin: miter; stroke-linecap: square"/>
   </g>
   <g id="patch_5">
    <path d="M 90 256.32 
L 648 256.32 
" style="fill: none; stroke: #000000; stroke-width: 0.8; stroke-linejoin: miter; stroke-linecap: square"/>
   </g>
   <g id="patch_6">
    <path d="M 90 34.56 
L 648 34.56 
" style="fill: none; stroke: #000000; stroke-width: 0.8; stroke-linejoin: miter; stroke-linecap: square"/>
   </g>
   <g id="text_15">
    <!-- Markov_Chain_Monte_Carlo Q-Value Convergence -->
    <g transform="translate(220.141875 28.56) scale(0.12 -0.12)">
     <defs>
      <path id="DejaVuSans-4d" d="M 628 4666 
L 1569 4666 
L 2759 1491 
L 3956 4666 
L 4897 4666 
L 4897 0 
L 4281 0 
L 4281 4097 
L 3078 897 
L 2444 897 
L 1241 4097 
L 1241 0 
L 628 0 
L 628 4666 
z
" transform="scale(0.015625)"/>
      <path id="DejaVuSans-6b" d="M 581 4863 
L 1159 4863 
L 1159 1991 
L 2875 3500 
L 3609 3500 
L 1753 1863 
L 3688 0 
L 2938 0 
L 1159 1709 
L 1159 0 
L 581 0 
L 581 4863 
z
" transform="scale(0.015625)"/>
      <path id="DejaVuSans-76" d="M 191 3500 
L 800 3500 
L 1894 563 
L 2988 3500 
L 3597 3500 
L 2284 0 
L 1503 0 
L 191 3500 
z
" transform="scale(0.015625)"/>
      <path id="DejaVuSans-5f" d="M 3263 -1063 
L 3263 -1509 
L -63 -1509 
L -63 -1063 
L 3263 -1063 
z
" transform="scale(0.015625)"/>
      <path id="DejaVuSans-43" d="M 4122 4306 
L 4122 3641 
Q 3803 3938 3442 4084 
Q 3081 4231 2675 4231 
Q 1875 4231 1450 3742 
Q 1025 3253 1025 2328 
Q 1025 1406 1450 917 
Q 1875 428 2675 428 
Q 3081 428 3442 575 
Q 3803 722 4122 1019 
L 4122 359 
Q 3791 134 3420 21 
Q 3050 -91 2638 -91 
Q 1578 -91 968 557 
Q 359 1206 359 2328 
Q 359 3453 968 4101 
Q 1578 4750 2638 4750 
Q 3056 4750 3426 4639 
Q 3797 4528 4122 4306 
z
" transform="scale(0.015625)"/>
      <path id="DejaVuSans-68" d="M 3513 2113 
L 3513 0 
L 2938 0 
L 2938 2094 
Q 2938 2591 2744 2837 
Q 2550 3084 2163 3084 
Q 1697 3084 1428 2787 
Q 1159 2491 1159 1978 
L 1159 0 
L 581 0 
L 581 4863 
L 1159 4863 
L 1159 2956 
Q 1366 3272 1645 3428 
Q 1925 3584 2291 3584 
Q 2894 3584 3203 3211 
Q 3513 2838 3513 2113 
z
" transform="scale(0.015625)"/>
      <path id="DejaVuSans-20" transform="scale(0.015625)"/>
      <path id="DejaVuSans-67" d="M 2906 1791 
Q 2906 2416 2648 2759 
Q 2391 3103 1925 3103 
Q 1463 3103 1205 2759 
Q 947 2416 947 1791 
Q 947 1169 1205 825 
Q 1463 481 1925 481 
Q 2391 481 2648 825 
Q 2906 1169 2906 1791 
z
M 3481 434 
Q 3481 -459 3084 -895 
Q 2688 -1331 1869 -1331 
Q 1566 -1331 1297 -1286 
Q 1028 -1241 775 -1147 
L 775 -588 
Q 1028 -725 1275 -790 
Q 1522 -856 1778 -856 
Q 2344 -856 2625 -561 
Q 2906 -266 2906 331 
L 2906 616 
Q 2728 306 2450 153 
Q 2172 0 1784 0 
Q 1141 0 747 490 
Q 353 981 353 1791 
Q 353 2603 747 3093 
Q 1141 3584 1784 3584 
Q 2172 3584 2450 3431 
Q 2728 3278 2906 2969 
L 2906 3500 
L 3481 3500 
L 3481 434 
z
" transform="scale(0.015625)"/>
      <path id="DejaVuSans-63" d="M 3122 3366 
L 3122 2828 
Q 2878 2963 2633 3030 
Q 2388 3097 2138 3097 
Q 1578 3097 1268 2742 
Q 959 2388 959 1747 
Q 959 1106 1268 751 
Q 1578 397 2138 397 
Q 2388 397 2633 464 
Q 2878 531 3122 666 
L 3122 134 
Q 2881 22 2623 -34 
Q 2366 -91 2075 -91 
Q 1284 -91 818 406 
Q 353 903 353 1747 
Q 353 2603 823 3093 
Q 1294 3584 2113 3584 
Q 2378 3584 2631 3529 
Q 2884 3475 3122 3366 
z
" transform="scale(0.015625)"/>
     </defs>
     <use xlink:href="#DejaVuSans-4d"/>
     <use xlink:href="#DejaVuSans-61" transform="translate(86.279297 0)"/>
     <use xlink:href="#DejaVuSans-72" transform="translate(147.558594 0)"/>
     <use xlink:href="#DejaVuSans-6b" transform="translate(188.671875 0)"/>
     <use xlink:href="#DejaVuSans-6f" transform="translate(242.957031 0)"/>
     <use xlink:href="#DejaVuSans-76" transform="translate(304.138672 0)"/>
     <use xlink:href="#DejaVuSans-5f" transform="translate(363.318359 0)"/>
     <use xlink:href="#DejaVuSans-43" transform="translate(413.318359 0)"/>
     <use xlink:href="#DejaVuSans-68" transform="translate(483.142578 0)"/>
     <use xlink:href="#DejaVuSans-61" transform="translate(546.521484 0)"/>
     <use xlink:href="#DejaVuSans-69" transform="translate(607.800781 0)"/>
     <use xlink:href="#DejaVuSans-6e" transform="translate(635.583984 0)"/>
     <use xlink:href="#DejaVuSans-5f" transform="translate(698.962891 0)"/>
     <use xlink:href="#DejaVuSans-4d" transform="translate(748.962891 0)"/>
     <use xlink:href="#DejaVuSans-6f" transform="translate(835.242188 0)"/>
     <use xlink:href="#DejaVuSans-6e" transform="translate(896.423828 0)"/>
     <use xlink:href="#DejaVuSans-74" transform="translate(959.802734 0)"/>
     <use xlink:href="#DejaVuSans-65" transform="translate(999.011719 0)"/>
     <use xlink:href="#DejaVuSans-5f" transform="translate(1060.535156 0)"/>
     <use xlink:href="#DejaVuSans-43" transform="translate(1110.535156 0)"/>
     <use xlink:href="#DejaVuSans-61" transform="translate(1180.359375 0)"/>
     <use xlink:href="#DejaVuSans-72" transform="translate(1241.638672 0)"/>
     <use xlink:href="#DejaVuSans-6c" transform="translate(1282.751953 0)"/>
     <use xlink:href="#DejaVuSans-6f" transform="translate(1310.535156 0)"/>
     <use xlink:href="#DejaVuSans-20" transform="translate(1371.716797 0)"/>
     <use xlink:href="#DejaVuSans-51" transform="translate(1403.503906 0)"/>
     <use xlink:href="#DejaVuSans-2d" transform="translate(1484.964844 0)"/>
     <use xlink:href="#DejaVuSans-56" transform="translate(1515.173828 0)"/>
     <use xlink:href="#DejaVuSans-61" transform="translate(1575.832031 0)"/>
     <use xlink:href="#DejaVuSans-6c" transform="translate(1637.111328 0)"/>
     <use xlink:href="#DejaVuSans-75" transform="translate(1664.894531 0)"/>
     <use xlink:href="#DejaVuSans-65" transform="translate(1728.273438 0)"/>
     <use xlink:href="#DejaVuSans-20" transform="translate(1789.796875 0)"/>
     <use xlink:href="#DejaVuSans-43" transform="translate(1821.583984 0)"/>
     <use xlink:href="#DejaVuSans-6f" transform="translate(1891.408203 0)"/>
     <use xlink:href="#DejaVuSans-6e" transform="translate(1952.589844 0)"/>
     <use xlink:href="#DejaVuSans-76" transform="translate(2015.96875 0)"/>
     <use xlink:href="#DejaVuSans-65" transform="translate(2075.148438 0)"/>
     <use xlink:href="#DejaVuSans-72" transform="translate(2136.671875 0)"/>
     <use xlink:href="#DejaVuSans-67" transform="translate(2176.035156 0)"/>
     <use xlink:href="#DejaVuSans-65" transform="translate(2239.511719 0)"/>
     <use xlink:href="#DejaVuSans-6e" transform="translate(2301.035156 0)"/>
     <use xlink:href="#DejaVuSans-63" transform="translate(2364.414062 0)"/>
     <use xlink:href="#DejaVuSans-65" transform="translate(2419.394531 0)"/>
    </g>
   </g>
  </g>
 </g>
 <defs>
  <clipPath id="p3c49eb5511">
   <rect x="90" y="34.56" width="558" height="221.76"/>
  </clipPath>
 </defs>
</svg>
