<?xml version="1.0" encoding="utf-8" standalone="no"?>
<!DOCTYPE svg PUBLIC "-//W3C//DTD SVG 1.1//EN"
  "http://www.w3.org/Graphics/SVG/1.1/DTD/svg11.dtd">
<svg xmlns:xlink="http://www.w3.org/1999/xlink" width="720pt" height="288pt" viewBox="0 0 720 288" xmlns="http://www.w3.org/2000/svg" version="1.1">
 <metadata>
  <rdf:RDF xmlns:dc="http://purl.org/dc/elements/1.1/" xmlns:cc="http://creativecommons.org/ns#" xmlns:rdf="http://www.w3.org/1999/02/22-rdf-syntax-ns#">
   <cc:Work>
    <dc:type rdf:resource="http://purl.org/dc/dcmitype/StillImage"/>
    <dc:date>2025-12-06T09:46:33.823867</dc:date>
    <dc:format>image/svg+xml</dc:format>
    <dc:creator>
     <cc:Agent>
      <dc:title>Matplotlib v3.10.7, https://matplotlib.org/</dc:title>
     </cc:Agent>
    </dc:creator>
   </cc:Work>
  </rdf:RDF>
 </metadata>
 <defs>
  <style type="text/css">*{stroke-linejoin: round; stroke-linecap: butt}</style>
 </defs>
 <g id="figure_1">
  <g id="patch_1">
   <path d="M 0 288 
L 720 288 
L 720 0 
L 0 0 
z
" style="fill: #ffffff"/>
  </g>
  <g id="axes_1">
   <g id="patch_2">
    <path d="M 90 256.32 
L 648 256.32 
L 648 34.56 
L 90 34.56 
z
" style="fill: #ffffff"/>
   </g>
   <g id="matplotlib.axis_1">
    <g id="xtick_1">
     <g id="line2d_1">
      <path d="M 115.363636 256.32 
L 115.363636 34.56 
" clip-path="url(#p52a92c8109)" style="fill: none; stroke: #b0b0b0; stroke-width: 0.8; stroke-linecap: square"/>
     </g>
     <g id="line2d_2">
      <defs>
       <path id="mb4e57ce0bc" d="M 0 0 
L 0 3.5 
" style="stroke: #000000; stroke-width: 0.8"/>
      </defs>
      <g>
       <use xlink:href="#mb4e57ce0bc" x="115.363636" y="256.32" style="stroke: #000000; stroke-width: 0.8"/>
      </g>
     </g>
     <g id="text_1">
      <!-- 0 -->
      <g transform="translate(112.182386 270.918437) scale(0.1 -0.1)">
       <defs>
        <path id="DejaVuSans-30" d="M 2034 4250 
Q 1547 4250 1301 3770 
Q 1056 3291 1056 2328 
Q 1056 1369 1301 889 
Q 1547 409 2034 409 
Q 2525 409 2770 889 
Q 3016 1369 3016 2328 
Q 3016 3291 2770 3770 
Q 2525 4250 2034 4250 
z
M 2034 4750 
Q 2819 4750 3233 4129 
Q 3647 3509 3647 2328 
Q 3647 1150 3233 529 
Q 2819 -91 2034 -91 
Q 1250 -91 836 529 
Q 422 1150 422 2328 
Q 422 3509 836 4129 
Q 1250 4750 2034 4750 
z
" transform="scale(0.015625)"/>
       </defs>
       <use xlink:href="#DejaVuSans-30"/>
      </g>
     </g>
    </g>
    <g id="xtick_2">
     <g id="line2d_3">
      <path d="M 216.828328 256.32 
L 216.828328 34.56 
" clip-path="url(#p52a92c8109)" style="fill: none; stroke: #b0b0b0; stroke-width: 0.8; stroke-linecap: square"/>
     </g>
     <g id="line2d_4">
      <g>
       <use xlink:href="#mb4e57ce0bc" x="216.828328" y="256.32" style="stroke: #000000; stroke-width: 0.8"/>
      </g>
     </g>
     <g id="text_2">
      <!-- 2000 -->
      <g transform="translate(204.103328 270.918437) scale(0.1 -0.1)">
       <defs>
        <path id="DejaVuSans-32" d="M 1228 531 
L 3431 531 
L 3431 0 
L 469 0 
L 469 531 
Q 828 903 1448 1529 
Q 2069 2156 2228 2338 
Q 2531 2678 2651 2914 
Q 2772 3150 2772 3378 
Q 2772 3750 2511 3984 
Q 2250 4219 1831 4219 
Q 1534 4219 1204 4116 
Q 875 4013 500 3803 
L 500 4441 
Q 881 4594 1212 4672 
Q 1544 4750 1819 4750 
Q 2544 4750 2975 4387 
Q 3406 4025 3406 3419 
Q 3406 3131 3298 2873 
Q 3191 2616 2906 2266 
Q 2828 2175 2409 1742 
Q 1991 1309 1228 531 
z
" transform="scale(0.015625)"/>
       </defs>
       <use xlink:href="#DejaVuSans-32"/>
       <use xlink:href="#DejaVuSans-30" transform="translate(63.623047 0)"/>
       <use xlink:href="#DejaVuSans-30" transform="translate(127.246094 0)"/>
       <use xlink:href="#DejaVuSans-30" transform="translate(190.869141 0)"/>
      </g>
     </g>
    </g>
    <g id="xtick_3">
     <g id="line2d_5">
      <path d="M 318.29302 256.32 
L 318.29302 34.56 
" clip-path="url(#p52a92c8109)" style="fill: none; stroke: #b0b0b0; stroke-width: 0.8; stroke-linecap: square"/>
     </g>
     <g id="line2d_6">
      <g>
       <use xlink:href="#mb4e57ce0bc" x="318.29302" y="256.32" style="stroke: #000000; stroke-width: 0.8"/>
      </g>
     </g>
     <g id="text_3">
      <!-- 4000 -->
      <g transform="translate(305.56802 270.918437) scale(0.1 -0.1)">
       <defs>
        <path id="DejaVuSans-34" d="M 2419 4116 
L 825 1625 
L 2419 1625 
L 2419 4116 
z
M 2253 4666 
L 3047 4666 
L 3047 1625 
L 3713 1625 
L 3713 1100 
L 3047 1100 
L 3047 0 
L 2419 0 
L 2419 1100 
L 313 1100 
L 313 1709 
L 2253 4666 
z
" transform="scale(0.015625)"/>
       </defs>
       <use xlink:href="#DejaVuSans-34"/>
       <use xlink:href="#DejaVuSans-30" transform="translate(63.623047 0)"/>
       <use xlink:href="#DejaVuSans-30" transform="translate(127.246094 0)"/>
       <use xlink:href="#DejaVuSans-30" transform="translate(190.869141 0)"/>
      </g>
     </g>
    </g>
    <g id="xtick_4">
     <g id="line2d_7">
      <path d="M 419.757712 256.32 
L 419.757712 34.56 
" clip-path="url(#p52a92c8109)" style="fill: none; stroke: #b0b0b0; stroke-width: 0.8; stroke-linecap: square"/>
     </g>
     <g id="line2d_8">
      <g>
       <use xlink:href="#mb4e57ce0bc" x="419.757712" y="256.32" style="stroke: #000000; stroke-width: 0.8"/>
      </g>
     </g>
     <g id="text_4">
      <!-- 6000 -->
      <g transform="translate(407.032712 270.918437) scale(0.1 -0.1)">
       <defs>
        <path id="DejaVuSans-36" d="M 2113 2584 
Q 1688 2584 1439 2293 
Q 1191 2003 1191 1497 
Q 1191 994 1439 701 
Q 1688 409 2113 409 
Q 2538 409 2786 701 
Q 3034 994 3034 1497 
Q 3034 2003 2786 2293 
Q 2538 2584 2113 2584 
z
M 3366 4563 
L 3366 3988 
Q 3128 4100 2886 4159 
Q 2644 4219 2406 4219 
Q 1781 4219 1451 3797 
Q 1122 3375 1075 2522 
Q 1259 2794 1537 2939 
Q 1816 3084 2150 3084 
Q 2853 3084 3261 2657 
Q 3669 2231 3669 1497 
Q 3669 778 3244 343 
Q 2819 -91 2113 -91 
Q 1303 -91 875 529 
Q 447 1150 447 2328 
Q 447 3434 972 4092 
Q 1497 4750 2381 4750 
Q 2619 4750 2861 4703 
Q 3103 4656 3366 4563 
z
" transform="scale(0.015625)"/>
       </defs>
       <use xlink:href="#DejaVuSans-36"/>
       <use xlink:href="#DejaVuSans-30" transform="translate(63.623047 0)"/>
       <use xlink:href="#DejaVuSans-30" transform="translate(127.246094 0)"/>
       <use xlink:href="#DejaVuSans-30" transform="translate(190.869141 0)"/>
      </g>
     </g>
    </g>
    <g id="xtick_5">
     <g id="line2d_9">
      <path d="M 521.222404 256.32 
L 521.222404 34.56 
" clip-path="url(#p52a92c8109)" style="fill: none; stroke: #b0b0b0; stroke-width: 0.8; stroke-linecap: square"/>
     </g>
     <g id="line2d_10">
      <g>
       <use xlink:href="#mb4e57ce0bc" x="521.222404" y="256.32" style="stroke: #000000; stroke-width: 0.8"/>
      </g>
     </g>
     <g id="text_5">
      <!-- 8000 -->
      <g transform="translate(508.497404 270.918437) scale(0.1 -0.1)">
       <defs>
        <path id="DejaVuSans-38" d="M 2034 2216 
Q 1584 2216 1326 1975 
Q 1069 1734 1069 1313 
Q 1069 891 1326 650 
Q 1584 409 2034 409 
Q 2484 409 2743 651 
Q 3003 894 3003 1313 
Q 3003 1734 2745 1975 
Q 2488 2216 2034 2216 
z
M 1403 2484 
Q 997 2584 770 2862 
Q 544 3141 544 3541 
Q 544 4100 942 4425 
Q 1341 4750 2034 4750 
Q 2731 4750 3128 4425 
Q 3525 4100 3525 3541 
Q 3525 3141 3298 2862 
Q 3072 2584 2669 2484 
Q 3125 2378 3379 2068 
Q 3634 1759 3634 1313 
Q 3634 634 3220 271 
Q 2806 -91 2034 -91 
Q 1263 -91 848 271 
Q 434 634 434 1313 
Q 434 1759 690 2068 
Q 947 2378 1403 2484 
z
M 1172 3481 
Q 1172 3119 1398 2916 
Q 1625 2713 2034 2713 
Q 2441 2713 2670 2916 
Q 2900 3119 2900 3481 
Q 2900 3844 2670 4047 
Q 2441 4250 2034 4250 
Q 1625 4250 1398 4047 
Q 1172 3844 1172 3481 
z
" transform="scale(0.015625)"/>
       </defs>
       <use xlink:href="#DejaVuSans-38"/>
       <use xlink:href="#DejaVuSans-30" transform="translate(63.623047 0)"/>
       <use xlink:href="#DejaVuSans-30" transform="translate(127.246094 0)"/>
       <use xlink:href="#DejaVuSans-30" transform="translate(190.869141 0)"/>
      </g>
     </g>
    </g>
    <g id="xtick_6">
     <g id="line2d_11">
      <path d="M 622.687096 256.32 
L 622.687096 34.56 
" clip-path="url(#p52a92c8109)" style="fill: none; stroke: #b0b0b0; stroke-width: 0.8; stroke-linecap: square"/>
     </g>
     <g id="line2d_12">
      <g>
       <use xlink:href="#mb4e57ce0bc" x="622.687096" y="256.32" style="stroke: #000000; stroke-width: 0.8"/>
      </g>
     </g>
     <g id="text_6">
      <!-- 10000 -->
      <g transform="translate(606.780846 270.918437) scale(0.1 -0.1)">
       <defs>
        <path id="DejaVuSans-31" d="M 794 531 
L 1825 531 
L 1825 4091 
L 703 3866 
L 703 4441 
L 1819 4666 
L 2450 4666 
L 2450 531 
L 3481 531 
L 3481 0 
L 794 0 
L 794 531 
z
" transform="scale(0.015625)"/>
       </defs>
       <use xlink:href="#DejaVuSans-31"/>
       <use xlink:href="#DejaVuSans-30" transform="translate(63.623047 0)"/>
       <use xlink:href="#DejaVuSans-30" transform="translate(127.246094 0)"/>
       <use xlink:href="#DejaVuSans-30" transform="translate(190.869141 0)"/>
       <use xlink:href="#DejaVuSans-30" transform="translate(254.492188 0)"/>
      </g>
     </g>
    </g>
    <g id="text_7">
     <!-- Iterations -->
     <g transform="translate(335.661406 287.635938) scale(0.14 -0.14)">
      <defs>
       <path id="DejaVuSans-49" d="M 628 4666 
L 1259 4666 
L 1259 0 
L 628 0 
L 628 4666 
z
" transform="scale(0.015625)"/>
       <path id="DejaVuSans-74" d="M 1172 4494 
L 1172 3500 
L 2356 3500 
L 2356 3053 
L 1172 3053 
L 1172 1153 
Q 1172 725 1289 603 
Q 1406 481 1766 481 
L 2356 481 
L 2356 0 
L 1766 0 
Q 1100 0 847 248 
Q 594 497 594 1153 
L 594 3053 
L 172 3053 
L 172 3500 
L 594 3500 
L 594 4494 
L 1172 4494 
z
" transform="scale(0.015625)"/>
       <path id="DejaVuSans-65" d="M 3597 1894 
L 3597 1613 
L 953 1613 
Q 991 1019 1311 708 
Q 1631 397 2203 397 
Q 2534 397 2845 478 
Q 3156 559 3463 722 
L 3463 178 
Q 3153 47 2828 -22 
Q 2503 -91 2169 -91 
Q 1331 -91 842 396 
Q 353 884 353 1716 
Q 353 2575 817 3079 
Q 1281 3584 2069 3584 
Q 2775 3584 3186 3129 
Q 3597 2675 3597 1894 
z
M 3022 2063 
Q 3016 2534 2758 2815 
Q 2500 3097 2075 3097 
Q 1594 3097 1305 2825 
Q 1016 2553 972 2059 
L 3022 2063 
z
" transform="scale(0.015625)"/>
       <path id="DejaVuSans-72" d="M 2631 2963 
Q 2534 3019 2420 3045 
Q 2306 3072 2169 3072 
Q 1681 3072 1420 2755 
Q 1159 2438 1159 1844 
L 1159 0 
L 581 0 
L 581 3500 
L 1159 3500 
L 1159 2956 
Q 1341 3275 1631 3429 
Q 1922 3584 2338 3584 
Q 2397 3584 2469 3576 
Q 2541 3569 2628 3553 
L 2631 2963 
z
" transform="scale(0.015625)"/>
       <path id="DejaVuSans-61" d="M 2194 1759 
Q 1497 1759 1228 1600 
Q 959 1441 959 1056 
Q 959 750 1161 570 
Q 1363 391 1709 391 
Q 2188 391 2477 730 
Q 2766 1069 2766 1631 
L 2766 1759 
L 2194 1759 
z
M 3341 1997 
L 3341 0 
L 2766 0 
L 2766 531 
Q 2569 213 2275 61 
Q 1981 -91 1556 -91 
Q 1019 -91 701 211 
Q 384 513 384 1019 
Q 384 1609 779 1909 
Q 1175 2209 1959 2209 
L 2766 2209 
L 2766 2266 
Q 2766 2663 2505 2880 
Q 2244 3097 1772 3097 
Q 1472 3097 1187 3025 
Q 903 2953 641 2809 
L 641 3341 
Q 956 3463 1253 3523 
Q 1550 3584 1831 3584 
Q 2591 3584 2966 3190 
Q 3341 2797 3341 1997 
z
" transform="scale(0.015625)"/>
       <path id="DejaVuSans-69" d="M 603 3500 
L 1178 3500 
L 1178 0 
L 603 0 
L 603 3500 
z
M 603 4863 
L 1178 4863 
L 1178 4134 
L 603 4134 
L 603 4863 
z
" transform="scale(0.015625)"/>
       <path id="DejaVuSans-6f" d="M 1959 3097 
Q 1497 3097 1228 2736 
Q 959 2375 959 1747 
Q 959 1119 1226 758 
Q 1494 397 1959 397 
Q 2419 397 2687 759 
Q 2956 1122 2956 1747 
Q 2956 2369 2687 2733 
Q 2419 3097 1959 3097 
z
M 1959 3584 
Q 2709 3584 3137 3096 
Q 3566 2609 3566 1747 
Q 3566 888 3137 398 
Q 2709 -91 1959 -91 
Q 1206 -91 779 398 
Q 353 888 353 1747 
Q 353 2609 779 3096 
Q 1206 3584 1959 3584 
z
" transform="scale(0.015625)"/>
       <path id="DejaVuSans-6e" d="M 3513 2113 
L 3513 0 
L 2938 0 
L 2938 2094 
Q 2938 2591 2744 2837 
Q 2550 3084 2163 3084 
Q 1697 3084 1428 2787 
Q 1159 2491 1159 1978 
L 1159 0 
L 581 0 
L 581 3500 
L 1159 3500 
L 1159 2956 
Q 1366 3272 1645 3428 
Q 1925 3584 2291 3584 
Q 2894 3584 3203 3211 
Q 3513 2838 3513 2113 
z
" transform="scale(0.015625)"/>
       <path id="DejaVuSans-73" d="M 2834 3397 
L 2834 2853 
Q 2591 2978 2328 3040 
Q 2066 3103 1784 3103 
Q 1356 3103 1142 2972 
Q 928 2841 928 2578 
Q 928 2378 1081 2264 
Q 1234 2150 1697 2047 
L 1894 2003 
Q 2506 1872 2764 1633 
Q 3022 1394 3022 966 
Q 3022 478 2636 193 
Q 2250 -91 1575 -91 
Q 1294 -91 989 -36 
Q 684 19 347 128 
L 347 722 
Q 666 556 975 473 
Q 1284 391 1588 391 
Q 1994 391 2212 530 
Q 2431 669 2431 922 
Q 2431 1156 2273 1281 
Q 2116 1406 1581 1522 
L 1381 1569 
Q 847 1681 609 1914 
Q 372 2147 372 2553 
Q 372 3047 722 3315 
Q 1072 3584 1716 3584 
Q 2034 3584 2315 3537 
Q 2597 3491 2834 3397 
z
" transform="scale(0.015625)"/>
      </defs>
      <use xlink:href="#DejaVuSans-49"/>
      <use xlink:href="#DejaVuSans-74" transform="translate(29.492188 0)"/>
      <use xlink:href="#DejaVuSans-65" transform="translate(68.701172 0)"/>
      <use xlink:href="#DejaVuSans-72" transform="translate(130.224609 0)"/>
      <use xlink:href="#DejaVuSans-61" transform="translate(171.337891 0)"/>
      <use xlink:href="#DejaVuSans-74" transform="translate(232.617188 0)"/>
      <use xlink:href="#DejaVuSans-69" transform="translate(271.826172 0)"/>
      <use xlink:href="#DejaVuSans-6f" transform="translate(299.609375 0)"/>
      <use xlink:href="#DejaVuSans-6e" transform="translate(360.791016 0)"/>
      <use xlink:href="#DejaVuSans-73" transform="translate(424.169922 0)"/>
     </g>
    </g>
   </g>
   <g id="matplotlib.axis_2">
    <g id="ytick_1">
     <g id="line2d_13">
      <path d="M 90 234.234334 
L 648 234.234334 
" clip-path="url(#p52a92c8109)" style="fill: none; stroke: #b0b0b0; stroke-width: 0.8; stroke-linecap: square"/>
     </g>
     <g id="line2d_14">
      <defs>
       <path id="mef16dbddf4" d="M 0 0 
L -3.5 0 
" style="stroke: #000000; stroke-width: 0.8"/>
      </defs>
      <g>
       <use xlink:href="#mef16dbddf4" x="90" y="234.234334" style="stroke: #000000; stroke-width: 0.8"/>
      </g>
     </g>
     <g id="text_8">
      <!-- −0.05 -->
      <g transform="translate(52.354687 238.033553) scale(0.1 -0.1)">
       <defs>
        <path id="DejaVuSans-2212" d="M 678 2272 
L 4684 2272 
L 4684 1741 
L 678 1741 
L 678 2272 
z
" transform="scale(0.015625)"/>
        <path id="DejaVuSans-2e" d="M 684 794 
L 1344 794 
L 1344 0 
L 684 0 
L 684 794 
z
" transform="scale(0.015625)"/>
        <path id="DejaVuSans-35" d="M 691 4666 
L 3169 4666 
L 3169 4134 
L 1269 4134 
L 1269 2991 
Q 1406 3038 1543 3061 
Q 1681 3084 1819 3084 
Q 2600 3084 3056 2656 
Q 3513 2228 3513 1497 
Q 3513 744 3044 326 
Q 2575 -91 1722 -91 
Q 1428 -91 1123 -41 
Q 819 9 494 109 
L 494 744 
Q 775 591 1075 516 
Q 1375 441 1709 441 
Q 2250 441 2565 725 
Q 2881 1009 2881 1497 
Q 2881 1984 2565 2268 
Q 2250 2553 1709 2553 
Q 1456 2553 1204 2497 
Q 953 2441 691 2322 
L 691 4666 
z
" transform="scale(0.015625)"/>
       </defs>
       <use xlink:href="#DejaVuSans-2212"/>
       <use xlink:href="#DejaVuSans-30" transform="translate(83.789062 0)"/>
       <use xlink:href="#DejaVuSans-2e" transform="translate(147.412109 0)"/>
       <use xlink:href="#DejaVuSans-30" transform="translate(179.199219 0)"/>
       <use xlink:href="#DejaVuSans-35" transform="translate(242.822266 0)"/>
      </g>
     </g>
    </g>
    <g id="ytick_2">
     <g id="line2d_15">
      <path d="M 90 187.222305 
L 648 187.222305 
" clip-path="url(#p52a92c8109)" style="fill: none; stroke: #b0b0b0; stroke-width: 0.8; stroke-linecap: square"/>
     </g>
     <g id="line2d_16">
      <g>
       <use xlink:href="#mef16dbddf4" x="90" y="187.222305" style="stroke: #000000; stroke-width: 0.8"/>
      </g>
     </g>
     <g id="text_9">
      <!-- 0.00 -->
      <g transform="translate(60.734375 191.021524) scale(0.1 -0.1)">
       <use xlink:href="#DejaVuSans-30"/>
       <use xlink:href="#DejaVuSans-2e" transform="translate(63.623047 0)"/>
       <use xlink:href="#DejaVuSans-30" transform="translate(95.410156 0)"/>
       <use xlink:href="#DejaVuSans-30" transform="translate(159.033203 0)"/>
      </g>
     </g>
    </g>
    <g id="ytick_3">
     <g id="line2d_17">
      <path d="M 90 140.210276 
L 648 140.210276 
" clip-path="url(#p52a92c8109)" style="fill: none; stroke: #b0b0b0; stroke-width: 0.8; stroke-linecap: square"/>
     </g>
     <g id="line2d_18">
      <g>
       <use xlink:href="#mef16dbddf4" x="90" y="140.210276" style="stroke: #000000; stroke-width: 0.8"/>
      </g>
     </g>
     <g id="text_10">
      <!-- 0.05 -->
      <g transform="translate(60.734375 144.009495) scale(0.1 -0.1)">
       <use xlink:href="#DejaVuSans-30"/>
       <use xlink:href="#DejaVuSans-2e" transform="translate(63.623047 0)"/>
       <use xlink:href="#DejaVuSans-30" transform="translate(95.410156 0)"/>
       <use xlink:href="#DejaVuSans-35" transform="translate(159.033203 0)"/>
      </g>
     </g>
    </g>
    <g id="ytick_4">
     <g id="line2d_19">
      <path d="M 90 93.198247 
L 648 93.198247 
" clip-path="url(#p52a92c8109)" style="fill: none; stroke: #b0b0b0; stroke-width: 0.8; stroke-linecap: square"/>
     </g>
     <g id="line2d_20">
      <g>
       <use xlink:href="#mef16dbddf4" x="90" y="93.198247" style="stroke: #000000; stroke-width: 0.8"/>
      </g>
     </g>
     <g id="text_11">
      <!-- 0.10 -->
      <g transform="translate(60.734375 96.997466) scale(0.1 -0.1)">
       <use xlink:href="#DejaVuSans-30"/>
       <use xlink:href="#DejaVuSans-2e" transform="translate(63.623047 0)"/>
       <use xlink:href="#DejaVuSans-31" transform="translate(95.410156 0)"/>
       <use xlink:href="#DejaVuSans-30" transform="translate(159.033203 0)"/>
      </g>
     </g>
    </g>
    <g id="ytick_5">
     <g id="line2d_21">
      <path d="M 90 46.186218 
L 648 46.186218 
" clip-path="url(#p52a92c8109)" style="fill: none; stroke: #b0b0b0; stroke-width: 0.8; stroke-linecap: square"/>
     </g>
     <g id="line2d_22">
      <g>
       <use xlink:href="#mef16dbddf4" x="90" y="46.186218" style="stroke: #000000; stroke-width: 0.8"/>
      </g>
     </g>
     <g id="text_12">
      <!-- 0.15 -->
      <g transform="translate(60.734375 49.985437) scale(0.1 -0.1)">
       <use xlink:href="#DejaVuSans-30"/>
       <use xlink:href="#DejaVuSans-2e" transform="translate(63.623047 0)"/>
       <use xlink:href="#DejaVuSans-31" transform="translate(95.410156 0)"/>
       <use xlink:href="#DejaVuSans-35" transform="translate(159.033203 0)"/>
      </g>
     </g>
    </g>
    <g id="text_13">
     <!-- Q-Value$(s_0, a_0)$ -->
     <g transform="translate(45.443125 196.89) rotate(-90) scale(0.14 -0.14)">
      <defs>
       <path id="DejaVuSans-51" d="M 2522 4238 
Q 1834 4238 1429 3725 
Q 1025 3213 1025 2328 
Q 1025 1447 1429 934 
Q 1834 422 2522 422 
Q 3209 422 3611 934 
Q 4013 1447 4013 2328 
Q 4013 3213 3611 3725 
Q 3209 4238 2522 4238 
z
M 3406 84 
L 4238 -825 
L 3475 -825 
L 2784 -78 
Q 2681 -84 2626 -87 
Q 2572 -91 2522 -91 
Q 1538 -91 948 567 
Q 359 1225 359 2328 
Q 359 3434 948 4092 
Q 1538 4750 2522 4750 
Q 3503 4750 4090 4092 
Q 4678 3434 4678 2328 
Q 4678 1516 4351 937 
Q 4025 359 3406 84 
z
" transform="scale(0.015625)"/>
       <path id="DejaVuSans-2d" d="M 313 2009 
L 1997 2009 
L 1997 1497 
L 313 1497 
L 313 2009 
z
" transform="scale(0.015625)"/>
       <path id="DejaVuSans-56" d="M 1831 0 
L 50 4666 
L 709 4666 
L 2188 738 
L 3669 4666 
L 4325 4666 
L 2547 0 
L 1831 0 
z
" transform="scale(0.015625)"/>
       <path id="DejaVuSans-6c" d="M 603 4863 
L 1178 4863 
L 1178 0 
L 603 0 
L 603 4863 
z
" transform="scale(0.015625)"/>
       <path id="DejaVuSans-75" d="M 544 1381 
L 544 3500 
L 1119 3500 
L 1119 1403 
Q 1119 906 1312 657 
Q 1506 409 1894 409 
Q 2359 409 2629 706 
Q 2900 1003 2900 1516 
L 2900 3500 
L 3475 3500 
L 3475 0 
L 2900 0 
L 2900 538 
Q 2691 219 2414 64 
Q 2138 -91 1772 -91 
Q 1169 -91 856 284 
Q 544 659 544 1381 
z
M 1991 3584 
L 1991 3584 
z
" transform="scale(0.015625)"/>
       <path id="DejaVuSans-28" d="M 1984 4856 
Q 1566 4138 1362 3434 
Q 1159 2731 1159 2009 
Q 1159 1288 1364 580 
Q 1569 -128 1984 -844 
L 1484 -844 
Q 1016 -109 783 600 
Q 550 1309 550 2009 
Q 550 2706 781 3412 
Q 1013 4119 1484 4856 
L 1984 4856 
z
" transform="scale(0.015625)"/>
       <path id="DejaVuSans-Oblique-73" d="M 3200 3397 
L 3091 2853 
Q 2863 2978 2609 3040 
Q 2356 3103 2088 3103 
Q 1634 3103 1373 2948 
Q 1113 2794 1113 2528 
Q 1113 2219 1719 2053 
Q 1766 2041 1788 2034 
L 1972 1978 
Q 2547 1819 2739 1644 
Q 2931 1469 2931 1166 
Q 2931 609 2489 259 
Q 2047 -91 1331 -91 
Q 1053 -91 747 -37 
Q 441 16 72 128 
L 184 722 
Q 500 559 806 475 
Q 1113 391 1394 391 
Q 1816 391 2080 572 
Q 2344 753 2344 1031 
Q 2344 1331 1650 1516 
L 1591 1531 
L 1394 1581 
Q 956 1697 753 1886 
Q 550 2075 550 2369 
Q 550 2928 970 3256 
Q 1391 3584 2113 3584 
Q 2397 3584 2667 3537 
Q 2938 3491 3200 3397 
z
" transform="scale(0.015625)"/>
       <path id="DejaVuSans-2c" d="M 750 794 
L 1409 794 
L 1409 256 
L 897 -744 
L 494 -744 
L 750 256 
L 750 794 
z
" transform="scale(0.015625)"/>
       <path id="DejaVuSans-Oblique-61" d="M 3438 1997 
L 3047 0 
L 2472 0 
L 2578 531 
Q 2325 219 2001 64 
Q 1678 -91 1281 -91 
Q 834 -91 548 182 
Q 263 456 263 884 
Q 263 1497 752 1853 
Q 1241 2209 2100 2209 
L 2900 2209 
L 2931 2363 
Q 2938 2388 2941 2417 
Q 2944 2447 2944 2509 
Q 2944 2788 2717 2942 
Q 2491 3097 2081 3097 
Q 1800 3097 1504 3025 
Q 1209 2953 897 2809 
L 997 3341 
Q 1322 3463 1633 3523 
Q 1944 3584 2234 3584 
Q 2853 3584 3176 3315 
Q 3500 3047 3500 2534 
Q 3500 2431 3484 2292 
Q 3469 2153 3438 1997 
z
M 2816 1759 
L 2241 1759 
Q 1534 1759 1195 1570 
Q 856 1381 856 984 
Q 856 709 1029 553 
Q 1203 397 1509 397 
Q 1978 397 2328 733 
Q 2678 1069 2791 1631 
L 2816 1759 
z
" transform="scale(0.015625)"/>
       <path id="DejaVuSans-29" d="M 513 4856 
L 1013 4856 
Q 1481 4119 1714 3412 
Q 1947 2706 1947 2009 
Q 1947 1309 1714 600 
Q 1481 -109 1013 -844 
L 513 -844 
Q 928 -128 1133 580 
Q 1338 1288 1338 2009 
Q 1338 2731 1133 3434 
Q 928 4138 513 4856 
z
" transform="scale(0.015625)"/>
      </defs>
      <use xlink:href="#DejaVuSans-51" transform="translate(0 0.015625)"/>
      <use xlink:href="#DejaVuSans-2d" transform="translate(78.710938 0.015625)"/>
      <use xlink:href="#DejaVuSans-56" transform="translate(114.794922 0.015625)"/>
      <use xlink:href="#DejaVuSans-61" transform="translate(183.203125 0.015625)"/>
      <use xlink:href="#DejaVuSans-6c" transform="translate(244.482422 0.015625)"/>
      <use xlink:href="#DejaVuSans-75" transform="translate(272.265625 0.015625)"/>
      <use xlink:href="#DejaVuSans-65" transform="translate(335.644531 0.015625)"/>
      <use xlink:href="#DejaVuSans-28" transform="translate(397.167969 0.015625)"/>
      <use xlink:href="#DejaVuSans-Oblique-73" transform="translate(436.181641 0.015625)"/>
      <use xlink:href="#DejaVuSans-30" transform="translate(488.28125 -16.390625) scale(0.7)"/>
      <use xlink:href="#DejaVuSans-2c" transform="translate(535.551758 0.015625)"/>
      <use xlink:href="#DejaVuSans-Oblique-61" transform="translate(586.821289 0.015625)"/>
      <use xlink:href="#DejaVuSans-30" transform="translate(648.100586 -16.390625) scale(0.7)"/>
      <use xlink:href="#DejaVuSans-29" transform="translate(695.371094 0.015625)"/>
     </g>
    </g>
   </g>
   <g id="line2d_23">
    <path d="M 115.363636 187.222305 
L 115.769495 193.582257 
L 115.820227 193.582257 
L 115.972425 196.786452 
L 116.073889 198.113787 
L 116.327551 205.239612 
L 116.479748 206.616433 
L 116.73341 209.117025 
L 116.885607 212.075075 
L 117.088536 212.075075 
L 117.240733 212.513874 
L 117.291466 212.513874 
L 117.494395 213.335025 
L 117.646592 213.335025 
L 117.849521 214.121495 
L 118.052451 214.121495 
L 118.204648 216.175957 
L 118.407577 217.096972 
L 118.458309 217.096972 
L 118.661239 217.432669 
L 118.711971 217.432669 
L 118.914901 218.337313 
L 119.067098 218.337313 
L 119.270027 218.753607 
L 119.371492 218.753607 
L 119.726618 220.21346 
L 119.77735 220.21346 
L 120.081745 221.381738 
L 120.132477 221.381738 
L 120.741265 223.827315 
L 120.791997 223.827315 
L 120.944194 224.249435 
L 120.994927 224.249435 
L 121.147124 224.806754 
L 121.400786 224.806754 
L 121.806644 225.500756 
L 121.908109 225.500756 
L 122.060306 225.90072 
L 122.3647 226.225105 
L 122.466165 226.225105 
L 122.618362 226.373071 
L 122.719827 226.373071 
L 122.922756 227.28881 
L 123.074953 227.386956 
L 123.125685 227.386956 
L 123.430079 228.292776 
L 123.531544 228.36697 
L 124.0896 229.1129 
L 124.140332 229.1129 
L 124.393994 229.550391 
L 124.495459 229.620516 
L 125.002782 230.178581 
L 125.205711 230.178581 
L 125.408641 230.470563 
L 125.662303 230.65859 
L 125.713035 230.65859 
L 125.865232 230.803319 
L 126.017429 230.997208 
L 126.169626 231.319509 
L 126.575485 231.407287 
L 126.727682 231.501055 
L 126.930611 231.501055 
L 127.082808 231.61729 
L 127.387202 231.61729 
L 127.590132 232.148695 
L 127.742329 232.45814 
L 127.843793 232.45814 
L 127.995991 232.875348 
L 128.249652 232.951838 
L 128.452582 233.29333 
L 128.604779 233.29333 
L 128.756976 233.421217 
L 128.85844 233.487993 
L 129.264299 233.857623 
L 129.416496 233.967685 
L 129.619426 234.188651 
L 129.771623 234.246317 
L 130.634072 235.124639 
L 131.395058 235.202757 
L 131.547255 235.330468 
L 131.699452 235.330468 
L 131.851649 235.714923 
L 132.460437 235.714923 
L 132.714099 236.149097 
L 132.764831 236.149097 
L 133.018493 236.512549 
L 133.17069 236.61801 
L 133.322887 236.61801 
L 133.576549 237.034231 
L 133.83021 237.034231 
L 133.982407 237.330119 
L 134.743393 237.421326 
L 134.89559 237.548541 
L 135.250716 237.548541 
L 135.402913 237.817456 
L 135.605842 237.817456 
L 135.758039 238.086287 
L 135.808772 238.086287 
L 135.960969 238.213458 
L 136.163898 238.213458 
L 136.468292 238.72932 
L 136.569757 238.72932 
L 136.721954 238.948169 
L 136.874151 238.948169 
L 137.026348 239.061372 
L 137.28001 239.061372 
L 137.432207 239.183758 
L 137.482939 239.183758 
L 137.635136 239.301571 
L 137.736601 239.301571 
L 137.990263 239.627897 
L 138.193192 239.818925 
L 138.751248 239.912001 
L 138.903445 240.028239 
L 139.00491 240.028239 
L 139.157107 240.348901 
L 139.765895 240.44892 
L 139.918092 240.556043 
L 140.019557 240.556043 
L 140.171754 240.753413 
L 140.476148 240.856 
L 140.679077 241.068252 
L 141.084936 241.068252 
L 141.237133 241.1818 
L 141.338597 241.1818 
L 141.490795 241.297918 
L 141.642992 241.297918 
L 141.795189 241.515325 
L 141.947386 241.6134 
L 142.403977 241.714991 
L 142.556174 241.816116 
L 143.063497 241.926712 
L 143.215694 242.12434 
L 143.925947 242.12434 
L 144.078144 242.249227 
L 144.331806 242.249227 
L 144.534735 242.50642 
L 144.6362 242.50642 
L 144.839129 242.739102 
L 144.991326 242.739102 
L 145.143523 242.953378 
L 145.397185 242.953378 
L 145.549382 243.069824 
L 146.005973 243.069824 
L 146.15817 243.204302 
L 146.208903 243.204302 
L 146.3611 243.333427 
L 146.411832 243.333427 
L 146.564029 243.457586 
L 146.614761 243.457586 
L 146.766959 243.580984 
L 146.969888 243.580984 
L 147.172817 243.824029 
L 147.375747 243.824029 
L 147.527944 243.95188 
L 148.390394 243.95188 
L 148.644055 244.403014 
L 148.694788 244.403014 
L 148.846985 244.783248 
L 149.252843 244.783248 
L 149.405041 244.897163 
L 149.455773 244.897163 
L 149.760167 245.325939 
L 150.47042 245.325939 
L 150.622617 245.446434 
L 150.825546 245.446434 
L 150.977743 245.56605 
L 151.485067 245.56605 
L 151.637264 245.702273 
L 152.19532 245.702273 
L 152.347517 245.846172 
L 152.550446 245.846172 
L 152.702643 245.984884 
L 152.956305 245.984884 
L 153.108502 246.121103 
L 153.412896 246.121103 
L 153.565093 246.24 
L 154.173881 246.24 
L 154.326078 246.092316 
L 154.37681 246.092316 
L 154.57974 245.184468 
L 155.340725 245.184468 
L 155.492922 243.646353 
L 155.797316 243.646353 
L 156.050978 235.736914 
L 156.355372 235.736914 
L 156.507569 233.611178 
L 156.710498 233.611178 
L 156.862695 226.966972 
L 157.978807 226.966972 
L 158.131004 223.721357 
L 158.536863 223.721357 
L 158.68906 219.590318 
L 158.739792 219.590318 
L 158.891989 212.169839 
L 158.993454 212.169839 
L 159.145651 202.654755 
L 159.754439 202.654755 
L 159.906636 198.473757 
L 160.363227 198.473757 
L 160.515424 193.225386 
L 161.276409 193.225386 
L 161.530071 168.751547 
L 161.631536 168.751547 
L 161.783733 163.552025 
L 161.986662 163.552025 
L 162.189592 148.0331 
L 162.291056 148.0331 
L 162.443253 143.431781 
L 162.493986 143.431781 
L 162.646183 139.007161 
L 163.762294 139.007161 
L 163.914491 133.307787 
L 167.262826 133.307787 
L 167.415023 125.663567 
L 167.617953 125.663567 
L 167.820882 112.258316 
L 168.023811 112.258316 
L 168.176009 106.38579 
L 168.480403 106.38579 
L 168.6326 100.954117 
L 169.799444 100.954117 
L 170.002373 91.016269 
L 171.625808 91.016269 
L 171.778005 86.569899 
L 172.336061 86.569899 
L 172.488258 82.513486 
L 172.691187 82.513486 
L 172.843384 78.842051 
L 173.097046 78.842051 
L 173.249243 75.512542 
L 173.350708 75.512542 
L 173.502905 72.504092 
L 174.517552 72.504092 
L 174.669749 69.762334 
L 175.177072 69.762334 
L 175.329269 67.279187 
L 175.380002 67.279187 
L 175.532199 65.040863 
L 175.98879 65.040863 
L 176.191719 61.200953 
L 176.293184 61.200953 
L 176.445381 59.562289 
L 177.612225 59.562289 
L 177.764422 58.07694 
L 177.865887 58.07694 
L 178.018084 56.738923 
L 178.728336 56.738923 
L 178.880534 55.532483 
L 178.931266 55.532483 
L 179.134195 53.468472 
L 179.692251 53.468472 
L 179.89518 51.79454 
L 179.996645 51.79454 
L 180.148842 51.08046 
L 180.199575 51.08046 
L 180.351772 50.437567 
L 180.453236 50.437567 
L 180.605433 49.858781 
L 181.924474 49.858781 
L 182.127404 48.867817 
L 182.786924 48.867817 
L 182.939121 48.445216 
L 183.091318 48.445216 
L 183.243515 48.064835 
L 183.903036 48.064835 
L 184.055233 47.414286 
L 184.105965 47.414286 
L 184.258162 47.136934 
L 184.664021 47.136934 
L 184.86695 46.662601 
L 187.961623 46.662601 
L 188.11382 46.460329 
L 188.418215 46.460329 
L 188.621144 46.114437 
L 189.534326 46.114437 
L 189.686523 45.966975 
L 189.787988 45.966975 
L 189.940185 45.834258 
L 190.092382 45.834258 
L 190.244579 45.607311 
L 191.411423 45.51056 
L 191.56362 45.423483 
L 196.028066 45.345114 
L 196.180263 45.274581 
L 198.209557 45.211102 
L 198.361754 45.153971 
L 200.949104 45.056276 
L 201.152033 45.014627 
L 206.276 44.913046 
L 206.529662 44.88572 
L 214.393176 44.785009 
L 214.799034 44.770487 
L 240.87546 44.659406 
L 243.817936 44.655678 
L 622.636364 44.64 
L 622.636364 44.64 
" clip-path="url(#p52a92c8109)" style="fill: none; stroke: #0000ff; stroke-width: 2; stroke-linecap: square"/>
   </g>
   <g id="patch_3">
    <path d="M 90 256.32 
L 90 34.56 
" style="fill: none; stroke: #000000; stroke-width: 0.8; stroke-linejoin: miter; stroke-linecap: square"/>
   </g>
   <g id="patch_4">
    <path d="M 648 256.32 
L 648 34.56 
" style="fill: none; stroke: #000000; stroke-width: 0.8; stroke-linejoin: miter; stroke-linecap: square"/>
   </g>
   <g id="patch_5">
    <path d="M 90 256.32 
L 648 256.32 
" style="fill: none; stroke: #000000; stroke-width: 0.8; stroke-linejoin: miter; stroke-linecap: square"/>
   </g>
   <g id="patch_6">
    <path d="M 90 34.56 
L 648 34.56 
" style="fill: none; stroke: #000000; stroke-width: 0.8; stroke-linejoin: miter; stroke-linecap: square"/>
   </g>
   <g id="text_14">
    <!-- Q_learning Q-Value Convergence -->
    <g transform="translate(270.244687 28.56) scale(0.12 -0.12)">
     <defs>
      <path id="DejaVuSans-5f" d="M 3263 -1063 
L 3263 -1509 
L -63 -1509 
L -63 -1063 
L 3263 -1063 
z
" transform="scale(0.015625)"/>
      <path id="DejaVuSans-67" d="M 2906 1791 
Q 2906 2416 2648 2759 
Q 2391 3103 1925 3103 
Q 1463 3103 1205 2759 
Q 947 2416 947 1791 
Q 947 1169 1205 825 
Q 1463 481 1925 481 
Q 2391 481 2648 825 
Q 2906 1169 2906 1791 
z
M 3481 434 
Q 3481 -459 3084 -895 
Q 2688 -1331 1869 -1331 
Q 1566 -1331 1297 -1286 
Q 1028 -1241 775 -1147 
L 775 -588 
Q 1028 -725 1275 -790 
Q 1522 -856 1778 -856 
Q 2344 -856 2625 -561 
Q 2906 -266 2906 331 
L 2906 616 
Q 2728 306 2450 153 
Q 2172 0 1784 0 
Q 1141 0 747 490 
Q 353 981 353 1791 
Q 353 2603 747 3093 
Q 1141 3584 1784 3584 
Q 2172 3584 2450 3431 
Q 2728 3278 2906 2969 
L 2906 3500 
L 3481 3500 
L 3481 434 
z
" transform="scale(0.015625)"/>
      <path id="DejaVuSans-20" transform="scale(0.015625)"/>
      <path id="DejaVuSans-43" d="M 4122 4306 
L 4122 3641 
Q 3803 3938 3442 4084 
Q 3081 4231 2675 4231 
Q 1875 4231 1450 3742 
Q 1025 3253 1025 2328 
Q 1025 1406 1450 917 
Q 1875 428 2675 428 
Q 3081 428 3442 575 
Q 3803 722 4122 1019 
L 4122 359 
Q 3791 134 3420 21 
Q 3050 -91 2638 -91 
Q 1578 -91 968 557 
Q 359 1206 359 2328 
Q 359 3453 968 4101 
Q 1578 4750 2638 4750 
Q 3056 4750 3426 4639 
Q 3797 4528 4122 4306 
z
" transform="scale(0.015625)"/>
      <path id="DejaVuSans-76" d="M 191 3500 
L 800 3500 
L 1894 563 
L 2988 3500 
L 3597 3500 
L 2284 0 
L 1503 0 
L 191 3500 
z
" transform="scale(0.015625)"/>
      <path id="DejaVuSans-63" d="M 3122 3366 
L 3122 2828 
Q 2878 2963 2633 3030 
Q 2388 3097 2138 3097 
Q 1578 3097 1268 2742 
Q 959 2388 959 1747 
Q 959 1106 1268 751 
Q 1578 397 2138 397 
Q 2388 397 2633 464 
Q 2878 531 3122 666 
L 3122 134 
Q 2881 22 2623 -34 
Q 2366 -91 2075 -91 
Q 1284 -91 818 406 
Q 353 903 353 1747 
Q 353 2603 823 3093 
Q 1294 3584 2113 3584 
Q 2378 3584 2631 3529 
Q 2884 3475 3122 3366 
z
" transform="scale(0.015625)"/>
     </defs>
     <use xlink:href="#DejaVuSans-51"/>
     <use xlink:href="#DejaVuSans-5f" transform="translate(78.710938 0)"/>
     <use xlink:href="#DejaVuSans-6c" transform="translate(128.710938 0)"/>
     <use xlink:href="#DejaVuSans-65" transform="translate(156.494141 0)"/>
     <use xlink:href="#DejaVuSans-61" transform="translate(218.017578 0)"/>
     <use xlink:href="#DejaVuSans-72" transform="translate(279.296875 0)"/>
     <use xlink:href="#DejaVuSans-6e" transform="translate(318.660156 0)"/>
     <use xlink:href="#DejaVuSans-69" transform="translate(382.039062 0)"/>
     <use xlink:href="#DejaVuSans-6e" transform="translate(409.822266 0)"/>
     <use xlink:href="#DejaVuSans-67" transform="translate(473.201172 0)"/>
     <use xlink:href="#DejaVuSans-20" transform="translate(536.677734 0)"/>
     <use xlink:href="#DejaVuSans-51" transform="translate(568.464844 0)"/>
     <use xlink:href="#DejaVuSans-2d" transform="translate(649.925781 0)"/>
     <use xlink:href="#DejaVuSans-56" transform="translate(680.134766 0)"/>
     <use xlink:href="#DejaVuSans-61" transform="translate(740.792969 0)"/>
     <use xlink:href="#DejaVuSans-6c" transform="translate(802.072266 0)"/>
     <use xlink:href="#DejaVuSans-75" transform="translate(829.855469 0)"/>
     <use xlink:href="#DejaVuSans-65" transform="translate(893.234375 0)"/>
     <use xlink:href="#DejaVuSans-20" transform="translate(954.757812 0)"/>
     <use xlink:href="#DejaVuSans-43" transform="translate(986.544922 0)"/>
     <use xlink:href="#DejaVuSans-6f" transform="translate(1056.369141 0)"/>
     <use xlink:href="#DejaVuSans-6e" transform="translate(1117.550781 0)"/>
     <use xlink:href="#DejaVuSans-76" transform="translate(1180.929688 0)"/>
     <use xlink:href="#DejaVuSans-65" transform="translate(1240.109375 0)"/>
     <use xlink:href="#DejaVuSans-72" transform="translate(1301.632812 0)"/>
     <use xlink:href="#DejaVuSans-67" transform="translate(1340.996094 0)"/>
     <use xlink:href="#DejaVuSans-65" transform="translate(1404.472656 0)"/>
     <use xlink:href="#DejaVuSans-6e" transform="translate(1465.996094 0)"/>
     <use xlink:href="#DejaVuSans-63" transform="translate(1529.375 0)"/>
     <use xlink:href="#DejaVuSans-65" transform="translate(1584.355469 0)"/>
    </g>
   </g>
  </g>
 </g>
 <defs>
  <clipPath id="p52a92c8109">
   <rect x="90" y="34.56" width="558" height="221.76"/>
  </clipPath>
 </defs>
</svg>
