<?xml version="1.0" encoding="utf-8" standalone="no"?>
<!DOCTYPE svg PUBLIC "-//W3C//DTD SVG 1.1//EN"
  "http://www.w3.org/Graphics/SVG/1.1/DTD/svg11.dtd">
<svg xmlns:xlink="http://www.w3.org/1999/xlink" width="720pt" height="288pt" viewBox="0 0 720 288" xmlns="http://www.w3.org/2000/svg" version="1.1">
 <metadata>
  <rdf:RDF xmlns:dc="http://purl.org/dc/elements/1.1/" xmlns:cc="http://creativecommons.org/ns#" xmlns:rdf="http://www.w3.org/1999/02/22-rdf-syntax-ns#">
   <cc:Work>
    <dc:type rdf:resource="http://purl.org/dc/dcmitype/StillImage"/>
    <dc:date>2025-12-06T12:23:30.593590</dc:date>
    <dc:format>image/svg+xml</dc:format>
    <dc:creator>
     <cc:Agent>
      <dc:title>Matplotlib v3.10.7, https://matplotlib.org/</dc:title>
     </cc:Agent>
    </dc:creator>
   </cc:Work>
  </rdf:RDF>
 </metadata>
 <defs>
  <style type="text/css">*{stroke-linejoin: round; stroke-linecap: butt}</style>
 </defs>
 <g id="figure_1">
  <g id="patch_1">
   <path d="M 0 288 
L 720 288 
L 720 0 
L 0 0 
z
" style="fill: #ffffff"/>
  </g>
  <g id="axes_1">
   <g id="patch_2">
    <path d="M 90 256.32 
L 648 256.32 
L 648 34.56 
L 90 34.56 
z
" style="fill: #ffffff"/>
   </g>
   <g id="matplotlib.axis_1">
    <g id="xtick_1">
     <g id="line2d_1">
      <path d="M 115.363636 256.32 
L 115.363636 34.56 
" clip-path="url(#pfef6dab09a)" style="fill: none; stroke: #b0b0b0; stroke-width: 0.8; stroke-linecap: square"/>
     </g>
     <g id="line2d_2">
      <defs>
       <path id="m11f3a706bd" d="M 0 0 
L 0 3.5 
" style="stroke: #000000; stroke-width: 0.8"/>
      </defs>
      <g>
       <use xlink:href="#m11f3a706bd" x="115.363636" y="256.32" style="stroke: #000000; stroke-width: 0.8"/>
      </g>
     </g>
     <g id="text_1">
      <!-- 0 -->
      <g transform="translate(112.182386 270.918437) scale(0.1 -0.1)">
       <defs>
        <path id="DejaVuSans-30" d="M 2034 4250 
Q 1547 4250 1301 3770 
Q 1056 3291 1056 2328 
Q 1056 1369 1301 889 
Q 1547 409 2034 409 
Q 2525 409 2770 889 
Q 3016 1369 3016 2328 
Q 3016 3291 2770 3770 
Q 2525 4250 2034 4250 
z
M 2034 4750 
Q 2819 4750 3233 4129 
Q 3647 3509 3647 2328 
Q 3647 1150 3233 529 
Q 2819 -91 2034 -91 
Q 1250 -91 836 529 
Q 422 1150 422 2328 
Q 422 3509 836 4129 
Q 1250 4750 2034 4750 
z
" transform="scale(0.015625)"/>
       </defs>
       <use xlink:href="#DejaVuSans-30"/>
      </g>
     </g>
    </g>
    <g id="xtick_2">
     <g id="line2d_3">
      <path d="M 216.828328 256.32 
L 216.828328 34.56 
" clip-path="url(#pfef6dab09a)" style="fill: none; stroke: #b0b0b0; stroke-width: 0.8; stroke-linecap: square"/>
     </g>
     <g id="line2d_4">
      <g>
       <use xlink:href="#m11f3a706bd" x="216.828328" y="256.32" style="stroke: #000000; stroke-width: 0.8"/>
      </g>
     </g>
     <g id="text_2">
      <!-- 2000 -->
      <g transform="translate(204.103328 270.918437) scale(0.1 -0.1)">
       <defs>
        <path id="DejaVuSans-32" d="M 1228 531 
L 3431 531 
L 3431 0 
L 469 0 
L 469 531 
Q 828 903 1448 1529 
Q 2069 2156 2228 2338 
Q 2531 2678 2651 2914 
Q 2772 3150 2772 3378 
Q 2772 3750 2511 3984 
Q 2250 4219 1831 4219 
Q 1534 4219 1204 4116 
Q 875 4013 500 3803 
L 500 4441 
Q 881 4594 1212 4672 
Q 1544 4750 1819 4750 
Q 2544 4750 2975 4387 
Q 3406 4025 3406 3419 
Q 3406 3131 3298 2873 
Q 3191 2616 2906 2266 
Q 2828 2175 2409 1742 
Q 1991 1309 1228 531 
z
" transform="scale(0.015625)"/>
       </defs>
       <use xlink:href="#DejaVuSans-32"/>
       <use xlink:href="#DejaVuSans-30" transform="translate(63.623047 0)"/>
       <use xlink:href="#DejaVuSans-30" transform="translate(127.246094 0)"/>
       <use xlink:href="#DejaVuSans-30" transform="translate(190.869141 0)"/>
      </g>
     </g>
    </g>
    <g id="xtick_3">
     <g id="line2d_5">
      <path d="M 318.29302 256.32 
L 318.29302 34.56 
" clip-path="url(#pfef6dab09a)" style="fill: none; stroke: #b0b0b0; stroke-width: 0.8; stroke-linecap: square"/>
     </g>
     <g id="line2d_6">
      <g>
       <use xlink:href="#m11f3a706bd" x="318.29302" y="256.32" style="stroke: #000000; stroke-width: 0.8"/>
      </g>
     </g>
     <g id="text_3">
      <!-- 4000 -->
      <g transform="translate(305.56802 270.918437) scale(0.1 -0.1)">
       <defs>
        <path id="DejaVuSans-34" d="M 2419 4116 
L 825 1625 
L 2419 1625 
L 2419 4116 
z
M 2253 4666 
L 3047 4666 
L 3047 1625 
L 3713 1625 
L 3713 1100 
L 3047 1100 
L 3047 0 
L 2419 0 
L 2419 1100 
L 313 1100 
L 313 1709 
L 2253 4666 
z
" transform="scale(0.015625)"/>
       </defs>
       <use xlink:href="#DejaVuSans-34"/>
       <use xlink:href="#DejaVuSans-30" transform="translate(63.623047 0)"/>
       <use xlink:href="#DejaVuSans-30" transform="translate(127.246094 0)"/>
       <use xlink:href="#DejaVuSans-30" transform="translate(190.869141 0)"/>
      </g>
     </g>
    </g>
    <g id="xtick_4">
     <g id="line2d_7">
      <path d="M 419.757712 256.32 
L 419.757712 34.56 
" clip-path="url(#pfef6dab09a)" style="fill: none; stroke: #b0b0b0; stroke-width: 0.8; stroke-linecap: square"/>
     </g>
     <g id="line2d_8">
      <g>
       <use xlink:href="#m11f3a706bd" x="419.757712" y="256.32" style="stroke: #000000; stroke-width: 0.8"/>
      </g>
     </g>
     <g id="text_4">
      <!-- 6000 -->
      <g transform="translate(407.032712 270.918437) scale(0.1 -0.1)">
       <defs>
        <path id="DejaVuSans-36" d="M 2113 2584 
Q 1688 2584 1439 2293 
Q 1191 2003 1191 1497 
Q 1191 994 1439 701 
Q 1688 409 2113 409 
Q 2538 409 2786 701 
Q 3034 994 3034 1497 
Q 3034 2003 2786 2293 
Q 2538 2584 2113 2584 
z
M 3366 4563 
L 3366 3988 
Q 3128 4100 2886 4159 
Q 2644 4219 2406 4219 
Q 1781 4219 1451 3797 
Q 1122 3375 1075 2522 
Q 1259 2794 1537 2939 
Q 1816 3084 2150 3084 
Q 2853 3084 3261 2657 
Q 3669 2231 3669 1497 
Q 3669 778 3244 343 
Q 2819 -91 2113 -91 
Q 1303 -91 875 529 
Q 447 1150 447 2328 
Q 447 3434 972 4092 
Q 1497 4750 2381 4750 
Q 2619 4750 2861 4703 
Q 3103 4656 3366 4563 
z
" transform="scale(0.015625)"/>
       </defs>
       <use xlink:href="#DejaVuSans-36"/>
       <use xlink:href="#DejaVuSans-30" transform="translate(63.623047 0)"/>
       <use xlink:href="#DejaVuSans-30" transform="translate(127.246094 0)"/>
       <use xlink:href="#DejaVuSans-30" transform="translate(190.869141 0)"/>
      </g>
     </g>
    </g>
    <g id="xtick_5">
     <g id="line2d_9">
      <path d="M 521.222404 256.32 
L 521.222404 34.56 
" clip-path="url(#pfef6dab09a)" style="fill: none; stroke: #b0b0b0; stroke-width: 0.8; stroke-linecap: square"/>
     </g>
     <g id="line2d_10">
      <g>
       <use xlink:href="#m11f3a706bd" x="521.222404" y="256.32" style="stroke: #000000; stroke-width: 0.8"/>
      </g>
     </g>
     <g id="text_5">
      <!-- 8000 -->
      <g transform="translate(508.497404 270.918437) scale(0.1 -0.1)">
       <defs>
        <path id="DejaVuSans-38" d="M 2034 2216 
Q 1584 2216 1326 1975 
Q 1069 1734 1069 1313 
Q 1069 891 1326 650 
Q 1584 409 2034 409 
Q 2484 409 2743 651 
Q 3003 894 3003 1313 
Q 3003 1734 2745 1975 
Q 2488 2216 2034 2216 
z
M 1403 2484 
Q 997 2584 770 2862 
Q 544 3141 544 3541 
Q 544 4100 942 4425 
Q 1341 4750 2034 4750 
Q 2731 4750 3128 4425 
Q 3525 4100 3525 3541 
Q 3525 3141 3298 2862 
Q 3072 2584 2669 2484 
Q 3125 2378 3379 2068 
Q 3634 1759 3634 1313 
Q 3634 634 3220 271 
Q 2806 -91 2034 -91 
Q 1263 -91 848 271 
Q 434 634 434 1313 
Q 434 1759 690 2068 
Q 947 2378 1403 2484 
z
M 1172 3481 
Q 1172 3119 1398 2916 
Q 1625 2713 2034 2713 
Q 2441 2713 2670 2916 
Q 2900 3119 2900 3481 
Q 2900 3844 2670 4047 
Q 2441 4250 2034 4250 
Q 1625 4250 1398 4047 
Q 1172 3844 1172 3481 
z
" transform="scale(0.015625)"/>
       </defs>
       <use xlink:href="#DejaVuSans-38"/>
       <use xlink:href="#DejaVuSans-30" transform="translate(63.623047 0)"/>
       <use xlink:href="#DejaVuSans-30" transform="translate(127.246094 0)"/>
       <use xlink:href="#DejaVuSans-30" transform="translate(190.869141 0)"/>
      </g>
     </g>
    </g>
    <g id="xtick_6">
     <g id="line2d_11">
      <path d="M 622.687096 256.32 
L 622.687096 34.56 
" clip-path="url(#pfef6dab09a)" style="fill: none; stroke: #b0b0b0; stroke-width: 0.8; stroke-linecap: square"/>
     </g>
     <g id="line2d_12">
      <g>
       <use xlink:href="#m11f3a706bd" x="622.687096" y="256.32" style="stroke: #000000; stroke-width: 0.8"/>
      </g>
     </g>
     <g id="text_6">
      <!-- 10000 -->
      <g transform="translate(606.780846 270.918437) scale(0.1 -0.1)">
       <defs>
        <path id="DejaVuSans-31" d="M 794 531 
L 1825 531 
L 1825 4091 
L 703 3866 
L 703 4441 
L 1819 4666 
L 2450 4666 
L 2450 531 
L 3481 531 
L 3481 0 
L 794 0 
L 794 531 
z
" transform="scale(0.015625)"/>
       </defs>
       <use xlink:href="#DejaVuSans-31"/>
       <use xlink:href="#DejaVuSans-30" transform="translate(63.623047 0)"/>
       <use xlink:href="#DejaVuSans-30" transform="translate(127.246094 0)"/>
       <use xlink:href="#DejaVuSans-30" transform="translate(190.869141 0)"/>
       <use xlink:href="#DejaVuSans-30" transform="translate(254.492188 0)"/>
      </g>
     </g>
    </g>
    <g id="text_7">
     <!-- Iterations -->
     <g transform="translate(335.661406 287.635938) scale(0.14 -0.14)">
      <defs>
       <path id="DejaVuSans-49" d="M 628 4666 
L 1259 4666 
L 1259 0 
L 628 0 
L 628 4666 
z
" transform="scale(0.015625)"/>
       <path id="DejaVuSans-74" d="M 1172 4494 
L 1172 3500 
L 2356 3500 
L 2356 3053 
L 1172 3053 
L 1172 1153 
Q 1172 725 1289 603 
Q 1406 481 1766 481 
L 2356 481 
L 2356 0 
L 1766 0 
Q 1100 0 847 248 
Q 594 497 594 1153 
L 594 3053 
L 172 3053 
L 172 3500 
L 594 3500 
L 594 4494 
L 1172 4494 
z
" transform="scale(0.015625)"/>
       <path id="DejaVuSans-65" d="M 3597 1894 
L 3597 1613 
L 953 1613 
Q 991 1019 1311 708 
Q 1631 397 2203 397 
Q 2534 397 2845 478 
Q 3156 559 3463 722 
L 3463 178 
Q 3153 47 2828 -22 
Q 2503 -91 2169 -91 
Q 1331 -91 842 396 
Q 353 884 353 1716 
Q 353 2575 817 3079 
Q 1281 3584 2069 3584 
Q 2775 3584 3186 3129 
Q 3597 2675 3597 1894 
z
M 3022 2063 
Q 3016 2534 2758 2815 
Q 2500 3097 2075 3097 
Q 1594 3097 1305 2825 
Q 1016 2553 972 2059 
L 3022 2063 
z
" transform="scale(0.015625)"/>
       <path id="DejaVuSans-72" d="M 2631 2963 
Q 2534 3019 2420 3045 
Q 2306 3072 2169 3072 
Q 1681 3072 1420 2755 
Q 1159 2438 1159 1844 
L 1159 0 
L 581 0 
L 581 3500 
L 1159 3500 
L 1159 2956 
Q 1341 3275 1631 3429 
Q 1922 3584 2338 3584 
Q 2397 3584 2469 3576 
Q 2541 3569 2628 3553 
L 2631 2963 
z
" transform="scale(0.015625)"/>
       <path id="DejaVuSans-61" d="M 2194 1759 
Q 1497 1759 1228 1600 
Q 959 1441 959 1056 
Q 959 750 1161 570 
Q 1363 391 1709 391 
Q 2188 391 2477 730 
Q 2766 1069 2766 1631 
L 2766 1759 
L 2194 1759 
z
M 3341 1997 
L 3341 0 
L 2766 0 
L 2766 531 
Q 2569 213 2275 61 
Q 1981 -91 1556 -91 
Q 1019 -91 701 211 
Q 384 513 384 1019 
Q 384 1609 779 1909 
Q 1175 2209 1959 2209 
L 2766 2209 
L 2766 2266 
Q 2766 2663 2505 2880 
Q 2244 3097 1772 3097 
Q 1472 3097 1187 3025 
Q 903 2953 641 2809 
L 641 3341 
Q 956 3463 1253 3523 
Q 1550 3584 1831 3584 
Q 2591 3584 2966 3190 
Q 3341 2797 3341 1997 
z
" transform="scale(0.015625)"/>
       <path id="DejaVuSans-69" d="M 603 3500 
L 1178 3500 
L 1178 0 
L 603 0 
L 603 3500 
z
M 603 4863 
L 1178 4863 
L 1178 4134 
L 603 4134 
L 603 4863 
z
" transform="scale(0.015625)"/>
       <path id="DejaVuSans-6f" d="M 1959 3097 
Q 1497 3097 1228 2736 
Q 959 2375 959 1747 
Q 959 1119 1226 758 
Q 1494 397 1959 397 
Q 2419 397 2687 759 
Q 2956 1122 2956 1747 
Q 2956 2369 2687 2733 
Q 2419 3097 1959 3097 
z
M 1959 3584 
Q 2709 3584 3137 3096 
Q 3566 2609 3566 1747 
Q 3566 888 3137 398 
Q 2709 -91 1959 -91 
Q 1206 -91 779 398 
Q 353 888 353 1747 
Q 353 2609 779 3096 
Q 1206 3584 1959 3584 
z
" transform="scale(0.015625)"/>
       <path id="DejaVuSans-6e" d="M 3513 2113 
L 3513 0 
L 2938 0 
L 2938 2094 
Q 2938 2591 2744 2837 
Q 2550 3084 2163 3084 
Q 1697 3084 1428 2787 
Q 1159 2491 1159 1978 
L 1159 0 
L 581 0 
L 581 3500 
L 1159 3500 
L 1159 2956 
Q 1366 3272 1645 3428 
Q 1925 3584 2291 3584 
Q 2894 3584 3203 3211 
Q 3513 2838 3513 2113 
z
" transform="scale(0.015625)"/>
       <path id="DejaVuSans-73" d="M 2834 3397 
L 2834 2853 
Q 2591 2978 2328 3040 
Q 2066 3103 1784 3103 
Q 1356 3103 1142 2972 
Q 928 2841 928 2578 
Q 928 2378 1081 2264 
Q 1234 2150 1697 2047 
L 1894 2003 
Q 2506 1872 2764 1633 
Q 3022 1394 3022 966 
Q 3022 478 2636 193 
Q 2250 -91 1575 -91 
Q 1294 -91 989 -36 
Q 684 19 347 128 
L 347 722 
Q 666 556 975 473 
Q 1284 391 1588 391 
Q 1994 391 2212 530 
Q 2431 669 2431 922 
Q 2431 1156 2273 1281 
Q 2116 1406 1581 1522 
L 1381 1569 
Q 847 1681 609 1914 
Q 372 2147 372 2553 
Q 372 3047 722 3315 
Q 1072 3584 1716 3584 
Q 2034 3584 2315 3537 
Q 2597 3491 2834 3397 
z
" transform="scale(0.015625)"/>
      </defs>
      <use xlink:href="#DejaVuSans-49"/>
      <use xlink:href="#DejaVuSans-74" transform="translate(29.492188 0)"/>
      <use xlink:href="#DejaVuSans-65" transform="translate(68.701172 0)"/>
      <use xlink:href="#DejaVuSans-72" transform="translate(130.224609 0)"/>
      <use xlink:href="#DejaVuSans-61" transform="translate(171.337891 0)"/>
      <use xlink:href="#DejaVuSans-74" transform="translate(232.617188 0)"/>
      <use xlink:href="#DejaVuSans-69" transform="translate(271.826172 0)"/>
      <use xlink:href="#DejaVuSans-6f" transform="translate(299.609375 0)"/>
      <use xlink:href="#DejaVuSans-6e" transform="translate(360.791016 0)"/>
      <use xlink:href="#DejaVuSans-73" transform="translate(424.169922 0)"/>
     </g>
    </g>
   </g>
   <g id="matplotlib.axis_2">
    <g id="ytick_1">
     <g id="line2d_13">
      <path d="M 90 247.865173 
L 648 247.865173 
" clip-path="url(#pfef6dab09a)" style="fill: none; stroke: #b0b0b0; stroke-width: 0.8; stroke-linecap: square"/>
     </g>
     <g id="line2d_14">
      <defs>
       <path id="m4746ebdb91" d="M 0 0 
L -3.5 0 
" style="stroke: #000000; stroke-width: 0.8"/>
      </defs>
      <g>
       <use xlink:href="#m4746ebdb91" x="90" y="247.865173" style="stroke: #000000; stroke-width: 0.8"/>
      </g>
     </g>
     <g id="text_8">
      <!-- −0.10 -->
      <g transform="translate(52.354687 251.664392) scale(0.1 -0.1)">
       <defs>
        <path id="DejaVuSans-2212" d="M 678 2272 
L 4684 2272 
L 4684 1741 
L 678 1741 
L 678 2272 
z
" transform="scale(0.015625)"/>
        <path id="DejaVuSans-2e" d="M 684 794 
L 1344 794 
L 1344 0 
L 684 0 
L 684 794 
z
" transform="scale(0.015625)"/>
       </defs>
       <use xlink:href="#DejaVuSans-2212"/>
       <use xlink:href="#DejaVuSans-30" transform="translate(83.789062 0)"/>
       <use xlink:href="#DejaVuSans-2e" transform="translate(147.412109 0)"/>
       <use xlink:href="#DejaVuSans-31" transform="translate(179.199219 0)"/>
       <use xlink:href="#DejaVuSans-30" transform="translate(242.822266 0)"/>
      </g>
     </g>
    </g>
    <g id="ytick_2">
     <g id="line2d_15">
      <path d="M 90 207.220139 
L 648 207.220139 
" clip-path="url(#pfef6dab09a)" style="fill: none; stroke: #b0b0b0; stroke-width: 0.8; stroke-linecap: square"/>
     </g>
     <g id="line2d_16">
      <g>
       <use xlink:href="#m4746ebdb91" x="90" y="207.220139" style="stroke: #000000; stroke-width: 0.8"/>
      </g>
     </g>
     <g id="text_9">
      <!-- −0.08 -->
      <g transform="translate(52.354687 211.019357) scale(0.1 -0.1)">
       <use xlink:href="#DejaVuSans-2212"/>
       <use xlink:href="#DejaVuSans-30" transform="translate(83.789062 0)"/>
       <use xlink:href="#DejaVuSans-2e" transform="translate(147.412109 0)"/>
       <use xlink:href="#DejaVuSans-30" transform="translate(179.199219 0)"/>
       <use xlink:href="#DejaVuSans-38" transform="translate(242.822266 0)"/>
      </g>
     </g>
    </g>
    <g id="ytick_3">
     <g id="line2d_17">
      <path d="M 90 166.575104 
L 648 166.575104 
" clip-path="url(#pfef6dab09a)" style="fill: none; stroke: #b0b0b0; stroke-width: 0.8; stroke-linecap: square"/>
     </g>
     <g id="line2d_18">
      <g>
       <use xlink:href="#m4746ebdb91" x="90" y="166.575104" style="stroke: #000000; stroke-width: 0.8"/>
      </g>
     </g>
     <g id="text_10">
      <!-- −0.06 -->
      <g transform="translate(52.354687 170.374323) scale(0.1 -0.1)">
       <use xlink:href="#DejaVuSans-2212"/>
       <use xlink:href="#DejaVuSans-30" transform="translate(83.789062 0)"/>
       <use xlink:href="#DejaVuSans-2e" transform="translate(147.412109 0)"/>
       <use xlink:href="#DejaVuSans-30" transform="translate(179.199219 0)"/>
       <use xlink:href="#DejaVuSans-36" transform="translate(242.822266 0)"/>
      </g>
     </g>
    </g>
    <g id="ytick_4">
     <g id="line2d_19">
      <path d="M 90 125.930069 
L 648 125.930069 
" clip-path="url(#pfef6dab09a)" style="fill: none; stroke: #b0b0b0; stroke-width: 0.8; stroke-linecap: square"/>
     </g>
     <g id="line2d_20">
      <g>
       <use xlink:href="#m4746ebdb91" x="90" y="125.930069" style="stroke: #000000; stroke-width: 0.8"/>
      </g>
     </g>
     <g id="text_11">
      <!-- −0.04 -->
      <g transform="translate(52.354687 129.729288) scale(0.1 -0.1)">
       <use xlink:href="#DejaVuSans-2212"/>
       <use xlink:href="#DejaVuSans-30" transform="translate(83.789062 0)"/>
       <use xlink:href="#DejaVuSans-2e" transform="translate(147.412109 0)"/>
       <use xlink:href="#DejaVuSans-30" transform="translate(179.199219 0)"/>
       <use xlink:href="#DejaVuSans-34" transform="translate(242.822266 0)"/>
      </g>
     </g>
    </g>
    <g id="ytick_5">
     <g id="line2d_21">
      <path d="M 90 85.285035 
L 648 85.285035 
" clip-path="url(#pfef6dab09a)" style="fill: none; stroke: #b0b0b0; stroke-width: 0.8; stroke-linecap: square"/>
     </g>
     <g id="line2d_22">
      <g>
       <use xlink:href="#m4746ebdb91" x="90" y="85.285035" style="stroke: #000000; stroke-width: 0.8"/>
      </g>
     </g>
     <g id="text_12">
      <!-- −0.02 -->
      <g transform="translate(52.354687 89.084253) scale(0.1 -0.1)">
       <use xlink:href="#DejaVuSans-2212"/>
       <use xlink:href="#DejaVuSans-30" transform="translate(83.789062 0)"/>
       <use xlink:href="#DejaVuSans-2e" transform="translate(147.412109 0)"/>
       <use xlink:href="#DejaVuSans-30" transform="translate(179.199219 0)"/>
       <use xlink:href="#DejaVuSans-32" transform="translate(242.822266 0)"/>
      </g>
     </g>
    </g>
    <g id="ytick_6">
     <g id="line2d_23">
      <path d="M 90 44.64 
L 648 44.64 
" clip-path="url(#pfef6dab09a)" style="fill: none; stroke: #b0b0b0; stroke-width: 0.8; stroke-linecap: square"/>
     </g>
     <g id="line2d_24">
      <g>
       <use xlink:href="#m4746ebdb91" x="90" y="44.64" style="stroke: #000000; stroke-width: 0.8"/>
      </g>
     </g>
     <g id="text_13">
      <!-- 0.00 -->
      <g transform="translate(60.734375 48.439219) scale(0.1 -0.1)">
       <use xlink:href="#DejaVuSans-30"/>
       <use xlink:href="#DejaVuSans-2e" transform="translate(63.623047 0)"/>
       <use xlink:href="#DejaVuSans-30" transform="translate(95.410156 0)"/>
       <use xlink:href="#DejaVuSans-30" transform="translate(159.033203 0)"/>
      </g>
     </g>
    </g>
    <g id="text_14">
     <!-- Q-Value$(s_0, a_0)$ -->
     <g transform="translate(45.443125 196.89) rotate(-90) scale(0.14 -0.14)">
      <defs>
       <path id="DejaVuSans-51" d="M 2522 4238 
Q 1834 4238 1429 3725 
Q 1025 3213 1025 2328 
Q 1025 1447 1429 934 
Q 1834 422 2522 422 
Q 3209 422 3611 934 
Q 4013 1447 4013 2328 
Q 4013 3213 3611 3725 
Q 3209 4238 2522 4238 
z
M 3406 84 
L 4238 -825 
L 3475 -825 
L 2784 -78 
Q 2681 -84 2626 -87 
Q 2572 -91 2522 -91 
Q 1538 -91 948 567 
Q 359 1225 359 2328 
Q 359 3434 948 4092 
Q 1538 4750 2522 4750 
Q 3503 4750 4090 4092 
Q 4678 3434 4678 2328 
Q 4678 1516 4351 937 
Q 4025 359 3406 84 
z
" transform="scale(0.015625)"/>
       <path id="DejaVuSans-2d" d="M 313 2009 
L 1997 2009 
L 1997 1497 
L 313 1497 
L 313 2009 
z
" transform="scale(0.015625)"/>
       <path id="DejaVuSans-56" d="M 1831 0 
L 50 4666 
L 709 4666 
L 2188 738 
L 3669 4666 
L 4325 4666 
L 2547 0 
L 1831 0 
z
" transform="scale(0.015625)"/>
       <path id="DejaVuSans-6c" d="M 603 4863 
L 1178 4863 
L 1178 0 
L 603 0 
L 603 4863 
z
" transform="scale(0.015625)"/>
       <path id="DejaVuSans-75" d="M 544 1381 
L 544 3500 
L 1119 3500 
L 1119 1403 
Q 1119 906 1312 657 
Q 1506 409 1894 409 
Q 2359 409 2629 706 
Q 2900 1003 2900 1516 
L 2900 3500 
L 3475 3500 
L 3475 0 
L 2900 0 
L 2900 538 
Q 2691 219 2414 64 
Q 2138 -91 1772 -91 
Q 1169 -91 856 284 
Q 544 659 544 1381 
z
M 1991 3584 
L 1991 3584 
z
" transform="scale(0.015625)"/>
       <path id="DejaVuSans-28" d="M 1984 4856 
Q 1566 4138 1362 3434 
Q 1159 2731 1159 2009 
Q 1159 1288 1364 580 
Q 1569 -128 1984 -844 
L 1484 -844 
Q 1016 -109 783 600 
Q 550 1309 550 2009 
Q 550 2706 781 3412 
Q 1013 4119 1484 4856 
L 1984 4856 
z
" transform="scale(0.015625)"/>
       <path id="DejaVuSans-Oblique-73" d="M 3200 3397 
L 3091 2853 
Q 2863 2978 2609 3040 
Q 2356 3103 2088 3103 
Q 1634 3103 1373 2948 
Q 1113 2794 1113 2528 
Q 1113 2219 1719 2053 
Q 1766 2041 1788 2034 
L 1972 1978 
Q 2547 1819 2739 1644 
Q 2931 1469 2931 1166 
Q 2931 609 2489 259 
Q 2047 -91 1331 -91 
Q 1053 -91 747 -37 
Q 441 16 72 128 
L 184 722 
Q 500 559 806 475 
Q 1113 391 1394 391 
Q 1816 391 2080 572 
Q 2344 753 2344 1031 
Q 2344 1331 1650 1516 
L 1591 1531 
L 1394 1581 
Q 956 1697 753 1886 
Q 550 2075 550 2369 
Q 550 2928 970 3256 
Q 1391 3584 2113 3584 
Q 2397 3584 2667 3537 
Q 2938 3491 3200 3397 
z
" transform="scale(0.015625)"/>
       <path id="DejaVuSans-2c" d="M 750 794 
L 1409 794 
L 1409 256 
L 897 -744 
L 494 -744 
L 750 256 
L 750 794 
z
" transform="scale(0.015625)"/>
       <path id="DejaVuSans-Oblique-61" d="M 3438 1997 
L 3047 0 
L 2472 0 
L 2578 531 
Q 2325 219 2001 64 
Q 1678 -91 1281 -91 
Q 834 -91 548 182 
Q 263 456 263 884 
Q 263 1497 752 1853 
Q 1241 2209 2100 2209 
L 2900 2209 
L 2931 2363 
Q 2938 2388 2941 2417 
Q 2944 2447 2944 2509 
Q 2944 2788 2717 2942 
Q 2491 3097 2081 3097 
Q 1800 3097 1504 3025 
Q 1209 2953 897 2809 
L 997 3341 
Q 1322 3463 1633 3523 
Q 1944 3584 2234 3584 
Q 2853 3584 3176 3315 
Q 3500 3047 3500 2534 
Q 3500 2431 3484 2292 
Q 3469 2153 3438 1997 
z
M 2816 1759 
L 2241 1759 
Q 1534 1759 1195 1570 
Q 856 1381 856 984 
Q 856 709 1029 553 
Q 1203 397 1509 397 
Q 1978 397 2328 733 
Q 2678 1069 2791 1631 
L 2816 1759 
z
" transform="scale(0.015625)"/>
       <path id="DejaVuSans-29" d="M 513 4856 
L 1013 4856 
Q 1481 4119 1714 3412 
Q 1947 2706 1947 2009 
Q 1947 1309 1714 600 
Q 1481 -109 1013 -844 
L 513 -844 
Q 928 -128 1133 580 
Q 1338 1288 1338 2009 
Q 1338 2731 1133 3434 
Q 928 4138 513 4856 
z
" transform="scale(0.015625)"/>
      </defs>
      <use xlink:href="#DejaVuSans-51" transform="translate(0 0.015625)"/>
      <use xlink:href="#DejaVuSans-2d" transform="translate(78.710938 0.015625)"/>
      <use xlink:href="#DejaVuSans-56" transform="translate(114.794922 0.015625)"/>
      <use xlink:href="#DejaVuSans-61" transform="translate(183.203125 0.015625)"/>
      <use xlink:href="#DejaVuSans-6c" transform="translate(244.482422 0.015625)"/>
      <use xlink:href="#DejaVuSans-75" transform="translate(272.265625 0.015625)"/>
      <use xlink:href="#DejaVuSans-65" transform="translate(335.644531 0.015625)"/>
      <use xlink:href="#DejaVuSans-28" transform="translate(397.167969 0.015625)"/>
      <use xlink:href="#DejaVuSans-Oblique-73" transform="translate(436.181641 0.015625)"/>
      <use xlink:href="#DejaVuSans-30" transform="translate(488.28125 -16.390625) scale(0.7)"/>
      <use xlink:href="#DejaVuSans-2c" transform="translate(535.551758 0.015625)"/>
      <use xlink:href="#DejaVuSans-Oblique-61" transform="translate(586.821289 0.015625)"/>
      <use xlink:href="#DejaVuSans-30" transform="translate(648.100586 -16.390625) scale(0.7)"/>
      <use xlink:href="#DejaVuSans-29" transform="translate(695.371094 0.015625)"/>
     </g>
    </g>
   </g>
   <g id="line2d_25">
    <path d="M 115.363636 44.64 
L 115.617298 52.12458 
L 115.66803 52.12458 
L 115.972425 58.528757 
L 116.023157 58.528757 
L 116.226086 61.973524 
L 116.276819 61.973524 
L 116.479748 68.364948 
L 116.581213 68.364948 
L 116.936339 76.683909 
L 116.987071 76.683909 
L 117.190001 78.423231 
L 117.443663 78.423231 
L 117.646592 80.045984 
L 117.748057 80.045984 
L 118.204648 85.649516 
L 118.25538 85.649516 
L 118.407577 86.518652 
L 118.458309 86.518652 
L 118.610507 87.757601 
L 118.661239 87.757601 
L 118.813436 89.230027 
L 118.914901 89.230027 
L 119.067098 92.103453 
L 119.219295 93.800925 
L 119.422224 94.538082 
L 119.523689 94.538082 
L 119.726618 95.606607 
L 119.929548 95.606607 
L 120.436871 101.328803 
L 120.690533 101.328803 
L 120.84273 101.763749 
L 120.944194 101.763749 
L 121.197856 104.732677 
L 121.299321 104.732677 
L 121.451518 105.805436 
L 121.552983 105.805436 
L 121.70518 106.459204 
L 121.755912 106.459204 
L 121.908109 106.784051 
L 122.060306 106.784051 
L 122.415432 110.552604 
L 122.567629 111.498319 
L 122.669094 111.498319 
L 122.821291 112.203412 
L 122.922756 112.203412 
L 123.074953 113.210448 
L 123.176418 113.210448 
L 123.430079 114.123163 
L 123.633009 114.68377 
L 123.683741 114.68377 
L 123.835938 114.975427 
L 123.88667 114.975427 
L 124.0896 115.570322 
L 124.140332 115.570322 
L 124.495459 117.217316 
L 124.850585 117.217316 
L 125.104247 118.109182 
L 125.205711 118.109182 
L 125.357909 119.068558 
L 125.408641 119.068558 
L 125.560838 120.038417 
L 125.61157 120.038417 
L 125.763767 120.375658 
L 125.8145 120.375658 
L 125.966697 120.758415 
L 126.220358 120.758415 
L 126.372555 121.963469 
L 126.524752 121.963469 
L 126.829147 123.384967 
L 126.930611 123.384967 
L 127.133541 124.482449 
L 127.590132 126.243353 
L 127.640864 126.243353 
L 127.691596 126.419837 
L 127.843793 127.273267 
L 127.894526 127.273267 
L 128.046723 127.392261 
L 128.097455 127.392261 
L 128.249652 127.649302 
L 128.351117 127.649302 
L 128.503314 127.812224 
L 128.604779 127.812224 
L 128.756976 128.308609 
L 128.959905 128.308609 
L 129.112102 128.483065 
L 129.467229 128.483065 
L 129.72089 130.037955 
L 130.177481 130.037955 
L 130.329678 130.360417 
L 130.58334 130.360417 
L 130.938467 131.333984 
L 130.989199 131.333984 
L 131.141396 131.465394 
L 131.192128 131.465394 
L 131.344325 131.60626 
L 131.44579 131.60626 
L 131.597987 131.753096 
L 131.800916 131.753096 
L 131.953113 131.919766 
L 132.054578 131.919766 
L 132.206775 132.433826 
L 132.409705 132.433826 
L 132.612634 132.753938 
L 132.764831 132.753938 
L 132.917028 133.05709 
L 133.119957 133.05709 
L 133.373619 133.640625 
L 134.236069 133.640625 
L 134.388266 134.809876 
L 134.591195 134.809876 
L 134.794125 135.248731 
L 134.89559 135.248731 
L 135.047787 135.476019 
L 135.098519 135.476019 
L 135.301448 135.904597 
L 135.352181 135.904597 
L 135.55511 136.312986 
L 135.605842 136.312986 
L 135.910236 137.237799 
L 136.011701 137.237799 
L 136.214631 137.546162 
L 136.265363 137.546162 
L 136.41756 137.821473 
L 136.519025 137.821473 
L 136.721954 138.08657 
L 136.874151 138.08657 
L 137.026348 138.239632 
L 137.178545 138.239632 
L 137.381475 138.541911 
L 137.533672 138.541911 
L 137.787333 139.052436 
L 137.838066 139.052436 
L 137.990263 139.351467 
L 138.040995 139.351467 
L 138.294657 139.765941 
L 138.345389 139.765941 
L 138.548318 140.044992 
L 138.599051 140.044992 
L 138.751248 140.197113 
L 138.954177 140.197113 
L 139.360036 141.216969 
L 139.461501 141.216969 
L 139.613698 141.435485 
L 139.765895 141.539533 
L 140.273218 141.539533 
L 140.729809 142.725601 
L 140.831274 142.725601 
L 140.983471 142.972281 
L 141.338597 142.972281 
L 141.490795 143.359208 
L 141.541527 143.359208 
L 141.693724 143.707004 
L 142.708371 143.707004 
L 143.012765 144.849107 
L 143.11423 144.849107 
L 143.317159 145.689563 
L 143.418624 145.689563 
L 143.672285 146.090679 
L 144.027412 146.090679 
L 144.179609 146.236249 
L 144.230341 146.236249 
L 144.382538 146.382102 
L 144.433271 146.382102 
L 144.737665 146.991995 
L 144.839129 146.991995 
L 145.042059 147.214921 
L 145.194256 147.214921 
L 145.346453 147.341581 
L 145.397185 147.341581 
L 145.549382 147.476127 
L 145.752312 147.476127 
L 146.056706 148.13734 
L 146.15817 148.13734 
L 146.310367 148.374295 
L 146.665494 148.374295 
L 146.969888 149.061118 
L 147.02062 149.061118 
L 147.172817 149.192928 
L 147.375747 149.192928 
L 147.578676 149.529774 
L 148.288929 149.529774 
L 148.542591 150.260925 
L 149.455773 150.260925 
L 149.60797 150.543546 
L 149.658702 150.543546 
L 149.810899 150.809859 
L 150.622617 150.809859 
L 150.774814 151.116907 
L 150.977743 151.116907 
L 151.180673 151.692896 
L 151.282137 151.692896 
L 151.434334 152.189699 
L 151.637264 152.189699 
L 151.890925 153.007641 
L 151.941658 153.007641 
L 152.093855 153.329206 
L 153.057769 153.329206 
L 153.209966 153.548043 
L 154.37681 153.548043 
L 154.529007 153.837764 
L 154.681204 153.837764 
L 154.833402 154.112798 
L 154.884134 154.112798 
L 155.036331 154.373215 
L 155.087063 154.373215 
L 155.23926 154.833279 
L 155.543654 154.833279 
L 155.746584 155.443655 
L 155.848048 155.443655 
L 156.050978 156.069732 
L 156.30464 156.069732 
L 156.456837 156.208319 
L 156.507569 156.208319 
L 156.659766 156.350482 
L 157.319286 156.350482 
L 157.471484 156.980158 
L 157.522216 156.980158 
L 157.674413 157.113533 
L 158.080272 157.113533 
L 158.283201 157.428844 
L 158.790525 157.428844 
L 158.942722 157.617833 
L 159.094919 157.617833 
L 159.399313 158.484432 
L 159.906636 158.484432 
L 160.058833 158.678199 
L 160.109566 158.678199 
L 160.312495 159.045593 
L 160.41396 159.045593 
L 160.566157 159.218226 
L 160.616889 159.218226 
L 160.769086 159.386932 
L 162.138859 159.386932 
L 162.291056 159.660155 
L 162.79838 159.660155 
L 162.950577 160.237202 
L 163.508633 160.237202 
L 163.66083 160.542693 
L 163.711562 160.542693 
L 163.863759 161.343476 
L 164.117421 161.343476 
L 164.371083 162.062328 
L 164.574012 162.062328 
L 164.827674 162.739795 
L 165.436462 162.739795 
L 165.588659 163.006882 
L 165.943785 163.006882 
L 166.095982 163.295958 
L 166.400376 163.295958 
L 166.552573 163.848085 
L 166.9077 163.848085 
L 167.059897 164.358542 
L 167.262826 164.799954 
L 167.719417 164.799954 
L 167.973079 165.50211 
L 168.378938 165.50211 
L 168.531135 165.746876 
L 168.987726 165.746876 
L 169.139923 166.018086 
L 169.190655 166.018086 
L 169.342852 166.275342 
L 169.647247 166.275342 
L 169.850176 167.206048 
L 170.002373 167.206048 
L 170.15457 167.406295 
L 170.763358 167.406295 
L 170.915555 167.652931 
L 171.270682 167.652931 
L 171.422879 167.919225 
L 171.87947 167.919225 
L 172.133131 168.699539 
L 172.285329 168.924374 
L 172.437526 168.924374 
L 172.589723 169.146128 
L 172.894117 169.146128 
L 173.046314 169.373169 
L 173.350708 169.373169 
L 173.502905 169.606502 
L 173.655102 169.606502 
L 173.807299 169.838705 
L 174.111693 169.838705 
L 174.26389 170.081901 
L 174.619016 170.081901 
L 174.771213 170.336874 
L 174.872678 170.336874 
L 175.024875 170.586677 
L 175.684396 170.586677 
L 175.836593 170.878782 
L 176.090254 170.878782 
L 176.293184 171.716858 
L 176.64831 171.716858 
L 176.800507 171.984863 
L 176.952704 171.984863 
L 177.104901 172.254802 
L 177.916619 172.254802 
L 178.068816 172.58604 
L 178.221013 172.58604 
L 178.37321 172.901436 
L 178.880534 172.901436 
L 179.032731 173.248555 
L 180.351772 173.248555 
L 180.503969 173.682465 
L 181.975207 173.682465 
L 182.127404 174.204894 
L 182.381065 174.204894 
L 182.583995 175.1592 
L 182.888389 175.1592 
L 183.040586 175.601208 
L 183.750839 175.601208 
L 183.903036 176.071754 
L 184.105965 176.071754 
L 184.258162 176.521788 
L 184.410359 176.521788 
L 184.562556 177.693024 
L 186.439653 177.693024 
L 186.59185 178.617795 
L 188.31675 178.617795 
L 188.468947 179.172138 
L 190.346044 179.172138 
L 190.498241 179.822495 
L 190.954832 179.822495 
L 191.107029 180.456152 
L 191.208494 180.456152 
L 191.360691 181.052131 
L 192.882661 181.052131 
L 193.034858 181.720261 
L 193.08559 181.720261 
L 193.237787 182.339953 
L 194.049505 182.339953 
L 194.201702 182.969447 
L 195.216349 182.969447 
L 195.368546 183.618404 
L 195.419278 183.618404 
L 195.571475 184.21911 
L 196.687587 184.21911 
L 196.839784 184.85557 
L 197.245643 184.85557 
L 197.39784 185.485667 
L 197.550037 185.485667 
L 197.702234 186.075297 
L 198.767613 186.075297 
L 198.91981 186.693196 
L 199.427134 186.693196 
L 199.579331 187.304916 
L 200.188119 187.304916 
L 200.340316 187.909568 
L 200.746175 187.909568 
L 200.898372 188.491202 
L 201.050569 188.491202 
L 201.253498 189.532798 
L 202.826201 189.532798 
L 202.978398 190.079101 
L 203.02913 190.079101 
L 203.181327 190.583132 
L 203.840848 190.583132 
L 203.993045 191.083793 
L 204.500368 191.083793 
L 204.652565 191.567573 
L 205.768677 191.567573 
L 205.920874 192.069466 
L 207.493577 192.069466 
L 207.645774 192.627423 
L 208.254562 192.627423 
L 208.406759 193.179801 
L 209.218476 193.179801 
L 209.370673 194.220486 
L 209.979462 194.220486 
L 210.131659 194.712387 
L 210.841911 194.712387 
L 210.994109 195.2097 
L 211.197038 195.2097 
L 211.349235 195.680573 
L 212.769741 195.680573 
L 212.921938 196.202419 
L 213.124867 196.202419 
L 213.277064 196.696966 
L 214.139514 196.696966 
L 214.291711 197.208648 
L 214.545373 197.208648 
L 214.69757 198.133474 
L 215.204893 198.133474 
L 215.35709 198.565995 
L 216.21954 198.565995 
L 216.371737 199.006148 
L 217.94444 199.006148 
L 218.096637 199.494738 
L 218.80689 199.494738 
L 218.959087 199.978442 
L 219.263481 199.978442 
L 219.46641 200.861091 
L 221.039113 200.861091 
L 221.242042 201.763596 
L 221.698633 201.763596 
L 221.850831 202.178788 
L 223.474266 202.178788 
L 223.626463 202.635652 
L 224.387448 202.635652 
L 224.539645 203.087947 
L 224.894771 203.087947 
L 225.046968 203.521331 
L 225.402095 203.521331 
L 225.554292 203.936018 
L 226.264545 203.936018 
L 226.416742 204.35153 
L 227.177727 204.35153 
L 227.329924 204.765115 
L 227.532853 204.765115 
L 227.68505 205.155783 
L 229.257753 205.155783 
L 229.40995 205.582877 
L 230.221668 205.582877 
L 230.424597 206.390765 
L 231.236315 206.390765 
L 231.388512 206.77598 
L 231.439244 206.77598 
L 231.591441 207.132163 
L 233.468538 207.132163 
L 233.620735 207.539493 
L 234.178791 207.539493 
L 234.38172 208.297541 
L 235.954423 208.297541 
L 236.10662 208.693217 
L 236.816873 208.693217 
L 236.96907 209.084937 
L 237.121267 209.084937 
L 237.324196 210.083685 
L 237.577858 210.083685 
L 237.730055 210.368435 
L 240.571066 210.368435 
L 240.723263 210.735022 
L 241.129122 210.735022 
L 241.281319 211.08736 
L 242.042304 211.08736 
L 242.245234 211.756286 
L 244.223795 211.756286 
L 244.375992 212.117375 
L 245.136977 212.117375 
L 245.289174 212.471658 
L 245.492104 212.471658 
L 245.644301 212.802221 
L 247.014074 212.802221 
L 247.217004 213.475636 
L 247.470665 213.475636 
L 247.622862 213.777829 
L 249.347762 213.777829 
L 249.499959 214.118702 
L 250.15948 214.118702 
L 250.311677 214.456167 
L 251.021929 214.456167 
L 251.224859 215.093281 
L 252.848294 215.093281 
L 253.000491 215.421 
L 253.812208 215.421 
L 253.964406 215.745442 
L 254.522461 215.745442 
L 254.674658 216.059426 
L 255.334179 216.059426 
L 255.486376 216.365565 
L 256.65322 216.365565 
L 256.805417 216.680561 
L 257.718599 216.680561 
L 257.870796 216.992407 
L 258.17519 216.992407 
L 258.327387 217.287678 
L 259.494231 217.287678 
L 259.646428 217.593453 
L 260.356681 217.593453 
L 260.508878 217.89617 
L 261.168399 217.89617 
L 261.320596 218.19586 
L 262.030849 218.19586 
L 262.183046 218.492553 
L 262.842566 218.492553 
L 262.994763 218.786279 
L 263.755748 218.786279 
L 263.907945 219.077068 
L 264.618198 219.077068 
L 264.821128 219.627656 
L 266.343098 219.627656 
L 266.495295 219.910031 
L 267.25628 219.910031 
L 267.408477 220.189582 
L 268.017265 220.189582 
L 268.169462 220.466338 
L 268.879715 220.466338 
L 269.031912 220.740326 
L 269.437771 220.740326 
L 269.589968 221.002917 
L 270.604615 221.002917 
L 270.756812 221.271539 
L 270.807544 221.271539 
L 270.959741 221.519645 
L 272.329515 221.519645 
L 272.481712 221.7831 
L 273.242697 221.7831 
L 273.394894 222.043921 
L 274.105147 222.043921 
L 274.257344 222.302133 
L 274.764667 222.302133 
L 274.916864 222.549923 
L 276.032976 222.549923 
L 276.185173 222.803075 
L 276.286638 222.803075 
L 276.438835 223.03747 
L 277.757876 223.03747 
L 277.910073 223.285747 
L 278.620326 223.285747 
L 278.772523 223.531541 
L 279.533508 223.531541 
L 279.685705 223.774877 
L 280.395958 223.774877 
L 280.548155 224.01578 
L 281.258408 224.01578 
L 281.410605 224.254274 
L 282.070125 224.254274 
L 282.222322 224.490383 
L 282.628181 224.490383 
L 282.780378 224.717199 
L 283.744293 224.717199 
L 283.89649 224.948679 
L 284.048687 224.948679 
L 284.200884 225.164612 
L 285.469192 225.164612 
L 285.621389 225.391618 
L 286.331642 225.391618 
L 286.483839 225.616353 
L 287.194092 225.616353 
L 287.346289 225.838842 
L 287.701416 225.838842 
L 287.853613 226.051115 
L 288.513133 226.051115 
L 288.66533 226.260342 
L 289.781442 226.260342 
L 289.933639 226.47639 
L 290.643892 226.47639 
L 290.796089 226.689794 
L 291.658539 226.689794 
L 291.810736 226.901547 
L 292.520988 226.901547 
L 292.673186 227.111184 
L 293.281974 227.111184 
L 293.434171 227.318724 
L 293.738565 227.318724 
L 293.941494 227.694512 
L 295.818591 227.694512 
L 295.970788 227.896219 
L 296.731773 227.896219 
L 296.88397 228.095908 
L 297.74642 228.095908 
L 297.898617 228.293601 
L 298.710335 228.293601 
L 298.862532 228.489316 
L 299.623517 228.489316 
L 299.775714 228.683075 
L 300.485967 228.683075 
L 300.638164 228.874896 
L 301.399149 228.874896 
L 301.551346 229.236393 
L 301.805008 229.236393 
L 301.957205 229.398393 
L 303.783569 229.398393 
L 303.935766 229.583061 
L 304.646019 229.583061 
L 304.798216 229.765882 
L 305.508469 229.765882 
L 305.660666 229.946875 
L 306.370919 229.946875 
L 306.523116 230.126058 
L 307.182636 230.126058 
L 307.334833 230.303449 
L 308.095819 230.303449 
L 308.248016 230.479067 
L 309.009001 230.479067 
L 309.161198 230.652928 
L 309.871451 230.652928 
L 310.023648 230.82505 
L 310.733901 230.82505 
L 310.886098 230.995451 
L 311.596351 230.995451 
L 311.748548 231.164149 
L 312.509533 231.164149 
L 312.66173 231.331159 
L 313.371983 231.331159 
L 313.52418 231.496499 
L 314.234433 231.496499 
L 314.38663 231.660186 
L 314.893953 231.660186 
L 315.04615 231.818818 
L 315.959332 231.818818 
L 316.111529 231.979282 
L 316.821782 231.979282 
L 316.973979 232.138141 
L 317.734964 232.138141 
L 317.887161 232.295411 
L 318.597414 232.295411 
L 318.749611 232.451109 
L 319.510597 232.451109 
L 319.662794 232.605249 
L 320.373046 232.605249 
L 320.525243 232.757848 
L 321.235496 232.757848 
L 321.387693 232.908922 
L 322.148679 232.908922 
L 322.300876 233.058484 
L 323.061861 233.058484 
L 323.214058 233.206551 
L 323.975043 233.206551 
L 324.12724 233.353137 
L 324.888225 233.353137 
L 325.040422 233.498258 
L 325.801407 233.498258 
L 326.055069 233.891661 
L 328.338025 233.891661 
L 328.490222 234.031396 
L 328.896081 234.031396 
L 329.048278 234.165593 
L 330.113657 234.165593 
L 330.265854 234.302589 
L 331.026839 234.302589 
L 331.179036 234.438215 
L 331.787824 234.438215 
L 331.940021 234.571021 
L 332.903936 234.571021 
L 333.056133 234.703962 
L 333.817118 234.703962 
L 333.969315 234.835574 
L 334.831765 234.835574 
L 334.983962 234.96587 
L 335.79568 234.96587 
L 335.947877 235.094864 
L 336.810326 235.094864 
L 336.962524 235.222567 
L 337.774241 235.222567 
L 337.926438 235.348993 
L 338.738156 235.348993 
L 338.890353 235.474154 
L 339.651338 235.474154 
L 339.803535 235.598065 
L 340.716717 235.598065 
L 340.868914 235.720736 
L 341.731364 235.720736 
L 341.883561 235.84218 
L 342.695279 235.84218 
L 342.847476 235.96241 
L 343.709926 235.96241 
L 343.862123 236.081438 
L 344.724572 236.081438 
L 344.876769 236.199275 
L 345.485558 236.199275 
L 345.637755 236.313732 
L 346.703134 236.313732 
L 346.855331 236.429247 
L 347.667049 236.429247 
L 347.819246 236.543606 
L 348.630963 236.543606 
L 348.78316 236.656822 
L 349.696342 236.656822 
L 349.848539 236.768905 
L 351.674904 236.873171 
L 351.827101 236.983091 
L 353.75493 237.091911 
L 353.907127 237.199644 
L 355.834956 237.306299 
L 355.987153 237.411888 
L 357.965715 237.516421 
L 358.117912 237.619909 
L 360.045741 237.722361 
L 360.197938 237.823789 
L 362.176499 237.924203 
L 362.328697 238.113318 
L 365.271173 238.210837 
L 365.42337 238.30738 
L 367.401931 238.402958 
L 367.554128 238.49758 
L 369.126831 238.591256 
L 369.279028 238.680536 
L 371.91711 238.772382 
L 372.069307 238.86331 
L 374.098601 238.953328 
L 374.250798 239.042447 
L 376.280092 239.130674 
L 376.432289 239.218019 
L 378.512315 239.304491 
L 378.664512 239.390098 
L 380.643073 239.469867 
L 380.79527 239.55382 
L 382.926029 239.636933 
L 383.078226 239.719216 
L 385.158252 239.799884 
L 385.310449 239.880537 
L 387.593405 239.960383 
L 387.745602 240.039431 
L 389.87636 240.117689 
L 390.028557 240.195164 
L 392.210048 240.271864 
L 392.362245 240.347797 
L 394.645201 240.422971 
L 394.797398 240.497393 
L 397.029621 240.571025 
L 397.181818 240.643967 
L 399.414041 240.716179 
L 399.566238 240.787669 
L 401.849194 240.858444 
L 402.001391 240.928511 
L 404.284347 240.997878 
L 404.436544 241.066551 
L 406.871696 241.134537 
L 407.023893 241.201843 
L 409.357581 241.268477 
L 409.509778 241.334444 
L 411.843466 241.399751 
L 411.995663 241.464405 
L 413.568366 241.528413 
L 413.720563 241.588026 
L 416.865968 241.650797 
L 417.018165 241.712941 
L 419.402586 241.774463 
L 419.554783 241.83537 
L 421.989935 241.895668 
L 422.142132 241.955363 
L 424.47582 242.014461 
L 424.628017 242.072969 
L 427.113902 242.130891 
L 427.266099 242.188233 
L 429.65052 242.245003 
L 429.802717 242.301204 
L 433.658375 242.411927 
L 433.810572 242.46646 
L 437.615498 242.573894 
L 437.818427 242.626807 
L 441.674086 242.731051 
L 441.877015 242.782392 
L 445.88487 242.883539 
L 446.0878 242.933356 
L 449.943458 243.031499 
L 450.146387 243.079835 
L 454.002046 243.175064 
L 454.204975 243.221965 
L 457.959169 243.307303 
L 458.162098 243.352881 
L 462.017756 243.441718 
L 462.220686 243.485953 
L 466.228541 243.573099 
L 466.43147 243.61602 
L 470.490058 243.700578 
L 470.692987 243.742224 
L 473.381802 243.823295 
L 473.584731 243.860302 
L 478.911628 243.939999 
L 479.114557 243.97925 
L 483.223877 244.05658 
L 483.426806 244.094666 
L 487.688323 244.169699 
L 487.891253 244.206654 
L 493.471811 244.31291 
L 493.67474 244.348432 
L 499.559692 244.452883 
L 499.762622 244.487006 
L 505.596842 244.587341 
L 505.850503 244.620119 
L 511.684723 244.716501 
L 511.938385 244.747987 
L 517.924802 244.840571 
L 518.178463 244.870817 
L 524.16488 244.959752 
L 524.418542 244.988806 
L 530.506423 245.074237 
L 530.760085 245.102147 
L 538.623599 245.211021 
L 538.87726 245.237563 
L 546.690042 245.341101 
L 546.943703 245.366342 
L 554.908682 245.464806 
L 555.213076 245.488809 
L 562.163407 245.582447 
L 562.467801 245.603833 
L 573.578185 245.714661 
L 573.882579 245.736166 
L 584.181245 245.839466 
L 584.485639 245.859723 
L 594.987235 245.95801 
L 595.342362 245.977082 
L 607.670322 246.086169 
L 608.025448 246.103959 
L 620.353408 246.207002 
L 620.759267 246.223584 
L 622.636364 246.24 
L 622.636364 246.24 
" clip-path="url(#pfef6dab09a)" style="fill: none; stroke: #0000ff; stroke-width: 2; stroke-linecap: square"/>
   </g>
   <g id="patch_3">
    <path d="M 90 256.32 
L 90 34.56 
" style="fill: none; stroke: #000000; stroke-width: 0.8; stroke-linejoin: miter; stroke-linecap: square"/>
   </g>
   <g id="patch_4">
    <path d="M 648 256.32 
L 648 34.56 
" style="fill: none; stroke: #000000; stroke-width: 0.8; stroke-linejoin: miter; stroke-linecap: square"/>
   </g>
   <g id="patch_5">
    <path d="M 90 256.32 
L 648 256.32 
" style="fill: none; stroke: #000000; stroke-width: 0.8; stroke-linejoin: miter; stroke-linecap: square"/>
   </g>
   <g id="patch_6">
    <path d="M 90 34.56 
L 648 34.56 
" style="fill: none; stroke: #000000; stroke-width: 0.8; stroke-linejoin: miter; stroke-linecap: square"/>
   </g>
   <g id="text_15">
    <!-- Q_learning Q-Value Convergence -->
    <g transform="translate(270.244687 28.56) scale(0.12 -0.12)">
     <defs>
      <path id="DejaVuSans-5f" d="M 3263 -1063 
L 3263 -1509 
L -63 -1509 
L -63 -1063 
L 3263 -1063 
z
" transform="scale(0.015625)"/>
      <path id="DejaVuSans-67" d="M 2906 1791 
Q 2906 2416 2648 2759 
Q 2391 3103 1925 3103 
Q 1463 3103 1205 2759 
Q 947 2416 947 1791 
Q 947 1169 1205 825 
Q 1463 481 1925 481 
Q 2391 481 2648 825 
Q 2906 1169 2906 1791 
z
M 3481 434 
Q 3481 -459 3084 -895 
Q 2688 -1331 1869 -1331 
Q 1566 -1331 1297 -1286 
Q 1028 -1241 775 -1147 
L 775 -588 
Q 1028 -725 1275 -790 
Q 1522 -856 1778 -856 
Q 2344 -856 2625 -561 
Q 2906 -266 2906 331 
L 2906 616 
Q 2728 306 2450 153 
Q 2172 0 1784 0 
Q 1141 0 747 490 
Q 353 981 353 1791 
Q 353 2603 747 3093 
Q 1141 3584 1784 3584 
Q 2172 3584 2450 3431 
Q 2728 3278 2906 2969 
L 2906 3500 
L 3481 3500 
L 3481 434 
z
" transform="scale(0.015625)"/>
      <path id="DejaVuSans-20" transform="scale(0.015625)"/>
      <path id="DejaVuSans-43" d="M 4122 4306 
L 4122 3641 
Q 3803 3938 3442 4084 
Q 3081 4231 2675 4231 
Q 1875 4231 1450 3742 
Q 1025 3253 1025 2328 
Q 1025 1406 1450 917 
Q 1875 428 2675 428 
Q 3081 428 3442 575 
Q 3803 722 4122 1019 
L 4122 359 
Q 3791 134 3420 21 
Q 3050 -91 2638 -91 
Q 1578 -91 968 557 
Q 359 1206 359 2328 
Q 359 3453 968 4101 
Q 1578 4750 2638 4750 
Q 3056 4750 3426 4639 
Q 3797 4528 4122 4306 
z
" transform="scale(0.015625)"/>
      <path id="DejaVuSans-76" d="M 191 3500 
L 800 3500 
L 1894 563 
L 2988 3500 
L 3597 3500 
L 2284 0 
L 1503 0 
L 191 3500 
z
" transform="scale(0.015625)"/>
      <path id="DejaVuSans-63" d="M 3122 3366 
L 3122 2828 
Q 2878 2963 2633 3030 
Q 2388 3097 2138 3097 
Q 1578 3097 1268 2742 
Q 959 2388 959 1747 
Q 959 1106 1268 751 
Q 1578 397 2138 397 
Q 2388 397 2633 464 
Q 2878 531 3122 666 
L 3122 134 
Q 2881 22 2623 -34 
Q 2366 -91 2075 -91 
Q 1284 -91 818 406 
Q 353 903 353 1747 
Q 353 2603 823 3093 
Q 1294 3584 2113 3584 
Q 2378 3584 2631 3529 
Q 2884 3475 3122 3366 
z
" transform="scale(0.015625)"/>
     </defs>
     <use xlink:href="#DejaVuSans-51"/>
     <use xlink:href="#DejaVuSans-5f" transform="translate(78.710938 0)"/>
     <use xlink:href="#DejaVuSans-6c" transform="translate(128.710938 0)"/>
     <use xlink:href="#DejaVuSans-65" transform="translate(156.494141 0)"/>
     <use xlink:href="#DejaVuSans-61" transform="translate(218.017578 0)"/>
     <use xlink:href="#DejaVuSans-72" transform="translate(279.296875 0)"/>
     <use xlink:href="#DejaVuSans-6e" transform="translate(318.660156 0)"/>
     <use xlink:href="#DejaVuSans-69" transform="translate(382.039062 0)"/>
     <use xlink:href="#DejaVuSans-6e" transform="translate(409.822266 0)"/>
     <use xlink:href="#DejaVuSans-67" transform="translate(473.201172 0)"/>
     <use xlink:href="#DejaVuSans-20" transform="translate(536.677734 0)"/>
     <use xlink:href="#DejaVuSans-51" transform="translate(568.464844 0)"/>
     <use xlink:href="#DejaVuSans-2d" transform="translate(649.925781 0)"/>
     <use xlink:href="#DejaVuSans-56" transform="translate(680.134766 0)"/>
     <use xlink:href="#DejaVuSans-61" transform="translate(740.792969 0)"/>
     <use xlink:href="#DejaVuSans-6c" transform="translate(802.072266 0)"/>
     <use xlink:href="#DejaVuSans-75" transform="translate(829.855469 0)"/>
     <use xlink:href="#DejaVuSans-65" transform="translate(893.234375 0)"/>
     <use xlink:href="#DejaVuSans-20" transform="translate(954.757812 0)"/>
     <use xlink:href="#DejaVuSans-43" transform="translate(986.544922 0)"/>
     <use xlink:href="#DejaVuSans-6f" transform="translate(1056.369141 0)"/>
     <use xlink:href="#DejaVuSans-6e" transform="translate(1117.550781 0)"/>
     <use xlink:href="#DejaVuSans-76" transform="translate(1180.929688 0)"/>
     <use xlink:href="#DejaVuSans-65" transform="translate(1240.109375 0)"/>
     <use xlink:href="#DejaVuSans-72" transform="translate(1301.632812 0)"/>
     <use xlink:href="#DejaVuSans-67" transform="translate(1340.996094 0)"/>
     <use xlink:href="#DejaVuSans-65" transform="translate(1404.472656 0)"/>
     <use xlink:href="#DejaVuSans-6e" transform="translate(1465.996094 0)"/>
     <use xlink:href="#DejaVuSans-63" transform="translate(1529.375 0)"/>
     <use xlink:href="#DejaVuSans-65" transform="translate(1584.355469 0)"/>
    </g>
   </g>
  </g>
 </g>
 <defs>
  <clipPath id="pfef6dab09a">
   <rect x="90" y="34.56" width="558" height="221.76"/>
  </clipPath>
 </defs>
</svg>
