<?xml version="1.0" encoding="utf-8" standalone="no"?>
<!DOCTYPE svg PUBLIC "-//W3C//DTD SVG 1.1//EN"
  "http://www.w3.org/Graphics/SVG/1.1/DTD/svg11.dtd">
<svg xmlns:xlink="http://www.w3.org/1999/xlink" width="720pt" height="432pt" viewBox="0 0 720 432" xmlns="http://www.w3.org/2000/svg" version="1.1">
 <metadata>
  <rdf:RDF xmlns:dc="http://purl.org/dc/elements/1.1/" xmlns:cc="http://creativecommons.org/ns#" xmlns:rdf="http://www.w3.org/1999/02/22-rdf-syntax-ns#">
   <cc:Work>
    <dc:type rdf:resource="http://purl.org/dc/dcmitype/StillImage"/>
    <dc:date>2025-12-06T01:07:38.853519</dc:date>
    <dc:format>image/svg+xml</dc:format>
    <dc:creator>
     <cc:Agent>
      <dc:title>Matplotlib v3.10.7, https://matplotlib.org/</dc:title>
     </cc:Agent>
    </dc:creator>
   </cc:Work>
  </rdf:RDF>
 </metadata>
 <defs>
  <style type="text/css">*{stroke-linejoin: round; stroke-linecap: butt}</style>
 </defs>
 <g id="figure_1">
  <g id="patch_1">
   <path d="M 0 432 
L 720 432 
L 720 0 
L 0 0 
z
" style="fill: #ffffff"/>
  </g>
  <g id="axes_1">
   <g id="patch_2">
    <path d="M 90 384.48 
L 648 384.48 
L 648 51.84 
L 90 51.84 
z
" style="fill: #ffffff"/>
   </g>
   <g id="matplotlib.axis_1">
    <g id="xtick_1">
     <g id="line2d_1">
      <path d="M 115.363636 384.48 
L 115.363636 51.84 
" clip-path="url(#pd7aa5bc27a)" style="fill: none; stroke-dasharray: 2.96,1.28; stroke-dashoffset: 0; stroke: #b0b0b0; stroke-opacity: 0.7; stroke-width: 0.8"/>
     </g>
     <g id="line2d_2">
      <defs>
       <path id="m81ee18c308" d="M 0 0 
L 0 3.5 
" style="stroke: #000000; stroke-width: 0.8"/>
      </defs>
      <g>
       <use xlink:href="#m81ee18c308" x="115.363636" y="384.48" style="stroke: #000000; stroke-width: 0.8"/>
      </g>
     </g>
     <g id="text_1">
      <!-- 0 -->
      <g transform="translate(112.182386 399.078438) scale(0.1 -0.1)">
       <defs>
        <path id="DejaVuSans-30" d="M 2034 4250 
Q 1547 4250 1301 3770 
Q 1056 3291 1056 2328 
Q 1056 1369 1301 889 
Q 1547 409 2034 409 
Q 2525 409 2770 889 
Q 3016 1369 3016 2328 
Q 3016 3291 2770 3770 
Q 2525 4250 2034 4250 
z
M 2034 4750 
Q 2819 4750 3233 4129 
Q 3647 3509 3647 2328 
Q 3647 1150 3233 529 
Q 2819 -91 2034 -91 
Q 1250 -91 836 529 
Q 422 1150 422 2328 
Q 422 3509 836 4129 
Q 1250 4750 2034 4750 
z
" transform="scale(0.015625)"/>
       </defs>
       <use xlink:href="#DejaVuSans-30"/>
      </g>
     </g>
    </g>
    <g id="xtick_2">
     <g id="line2d_3">
      <path d="M 183 384.48 
L 183 51.84 
" clip-path="url(#pd7aa5bc27a)" style="fill: none; stroke-dasharray: 2.96,1.28; stroke-dashoffset: 0; stroke: #b0b0b0; stroke-opacity: 0.7; stroke-width: 0.8"/>
     </g>
     <g id="line2d_4">
      <g>
       <use xlink:href="#m81ee18c308" x="183" y="384.48" style="stroke: #000000; stroke-width: 0.8"/>
      </g>
     </g>
     <g id="text_2">
      <!-- 200 -->
      <g transform="translate(173.45625 399.078438) scale(0.1 -0.1)">
       <defs>
        <path id="DejaVuSans-32" d="M 1228 531 
L 3431 531 
L 3431 0 
L 469 0 
L 469 531 
Q 828 903 1448 1529 
Q 2069 2156 2228 2338 
Q 2531 2678 2651 2914 
Q 2772 3150 2772 3378 
Q 2772 3750 2511 3984 
Q 2250 4219 1831 4219 
Q 1534 4219 1204 4116 
Q 875 4013 500 3803 
L 500 4441 
Q 881 4594 1212 4672 
Q 1544 4750 1819 4750 
Q 2544 4750 2975 4387 
Q 3406 4025 3406 3419 
Q 3406 3131 3298 2873 
Q 3191 2616 2906 2266 
Q 2828 2175 2409 1742 
Q 1991 1309 1228 531 
z
" transform="scale(0.015625)"/>
       </defs>
       <use xlink:href="#DejaVuSans-32"/>
       <use xlink:href="#DejaVuSans-30" transform="translate(63.623047 0)"/>
       <use xlink:href="#DejaVuSans-30" transform="translate(127.246094 0)"/>
      </g>
     </g>
    </g>
    <g id="xtick_3">
     <g id="line2d_5">
      <path d="M 250.636364 384.48 
L 250.636364 51.84 
" clip-path="url(#pd7aa5bc27a)" style="fill: none; stroke-dasharray: 2.96,1.28; stroke-dashoffset: 0; stroke: #b0b0b0; stroke-opacity: 0.7; stroke-width: 0.8"/>
     </g>
     <g id="line2d_6">
      <g>
       <use xlink:href="#m81ee18c308" x="250.636364" y="384.48" style="stroke: #000000; stroke-width: 0.8"/>
      </g>
     </g>
     <g id="text_3">
      <!-- 400 -->
      <g transform="translate(241.092614 399.078438) scale(0.1 -0.1)">
       <defs>
        <path id="DejaVuSans-34" d="M 2419 4116 
L 825 1625 
L 2419 1625 
L 2419 4116 
z
M 2253 4666 
L 3047 4666 
L 3047 1625 
L 3713 1625 
L 3713 1100 
L 3047 1100 
L 3047 0 
L 2419 0 
L 2419 1100 
L 313 1100 
L 313 1709 
L 2253 4666 
z
" transform="scale(0.015625)"/>
       </defs>
       <use xlink:href="#DejaVuSans-34"/>
       <use xlink:href="#DejaVuSans-30" transform="translate(63.623047 0)"/>
       <use xlink:href="#DejaVuSans-30" transform="translate(127.246094 0)"/>
      </g>
     </g>
    </g>
    <g id="xtick_4">
     <g id="line2d_7">
      <path d="M 318.272727 384.48 
L 318.272727 51.84 
" clip-path="url(#pd7aa5bc27a)" style="fill: none; stroke-dasharray: 2.96,1.28; stroke-dashoffset: 0; stroke: #b0b0b0; stroke-opacity: 0.7; stroke-width: 0.8"/>
     </g>
     <g id="line2d_8">
      <g>
       <use xlink:href="#m81ee18c308" x="318.272727" y="384.48" style="stroke: #000000; stroke-width: 0.8"/>
      </g>
     </g>
     <g id="text_4">
      <!-- 600 -->
      <g transform="translate(308.728977 399.078438) scale(0.1 -0.1)">
       <defs>
        <path id="DejaVuSans-36" d="M 2113 2584 
Q 1688 2584 1439 2293 
Q 1191 2003 1191 1497 
Q 1191 994 1439 701 
Q 1688 409 2113 409 
Q 2538 409 2786 701 
Q 3034 994 3034 1497 
Q 3034 2003 2786 2293 
Q 2538 2584 2113 2584 
z
M 3366 4563 
L 3366 3988 
Q 3128 4100 2886 4159 
Q 2644 4219 2406 4219 
Q 1781 4219 1451 3797 
Q 1122 3375 1075 2522 
Q 1259 2794 1537 2939 
Q 1816 3084 2150 3084 
Q 2853 3084 3261 2657 
Q 3669 2231 3669 1497 
Q 3669 778 3244 343 
Q 2819 -91 2113 -91 
Q 1303 -91 875 529 
Q 447 1150 447 2328 
Q 447 3434 972 4092 
Q 1497 4750 2381 4750 
Q 2619 4750 2861 4703 
Q 3103 4656 3366 4563 
z
" transform="scale(0.015625)"/>
       </defs>
       <use xlink:href="#DejaVuSans-36"/>
       <use xlink:href="#DejaVuSans-30" transform="translate(63.623047 0)"/>
       <use xlink:href="#DejaVuSans-30" transform="translate(127.246094 0)"/>
      </g>
     </g>
    </g>
    <g id="xtick_5">
     <g id="line2d_9">
      <path d="M 385.909091 384.48 
L 385.909091 51.84 
" clip-path="url(#pd7aa5bc27a)" style="fill: none; stroke-dasharray: 2.96,1.28; stroke-dashoffset: 0; stroke: #b0b0b0; stroke-opacity: 0.7; stroke-width: 0.8"/>
     </g>
     <g id="line2d_10">
      <g>
       <use xlink:href="#m81ee18c308" x="385.909091" y="384.48" style="stroke: #000000; stroke-width: 0.8"/>
      </g>
     </g>
     <g id="text_5">
      <!-- 800 -->
      <g transform="translate(376.365341 399.078438) scale(0.1 -0.1)">
       <defs>
        <path id="DejaVuSans-38" d="M 2034 2216 
Q 1584 2216 1326 1975 
Q 1069 1734 1069 1313 
Q 1069 891 1326 650 
Q 1584 409 2034 409 
Q 2484 409 2743 651 
Q 3003 894 3003 1313 
Q 3003 1734 2745 1975 
Q 2488 2216 2034 2216 
z
M 1403 2484 
Q 997 2584 770 2862 
Q 544 3141 544 3541 
Q 544 4100 942 4425 
Q 1341 4750 2034 4750 
Q 2731 4750 3128 4425 
Q 3525 4100 3525 3541 
Q 3525 3141 3298 2862 
Q 3072 2584 2669 2484 
Q 3125 2378 3379 2068 
Q 3634 1759 3634 1313 
Q 3634 634 3220 271 
Q 2806 -91 2034 -91 
Q 1263 -91 848 271 
Q 434 634 434 1313 
Q 434 1759 690 2068 
Q 947 2378 1403 2484 
z
M 1172 3481 
Q 1172 3119 1398 2916 
Q 1625 2713 2034 2713 
Q 2441 2713 2670 2916 
Q 2900 3119 2900 3481 
Q 2900 3844 2670 4047 
Q 2441 4250 2034 4250 
Q 1625 4250 1398 4047 
Q 1172 3844 1172 3481 
z
" transform="scale(0.015625)"/>
       </defs>
       <use xlink:href="#DejaVuSans-38"/>
       <use xlink:href="#DejaVuSans-30" transform="translate(63.623047 0)"/>
       <use xlink:href="#DejaVuSans-30" transform="translate(127.246094 0)"/>
      </g>
     </g>
    </g>
    <g id="xtick_6">
     <g id="line2d_11">
      <path d="M 453.545455 384.48 
L 453.545455 51.84 
" clip-path="url(#pd7aa5bc27a)" style="fill: none; stroke-dasharray: 2.96,1.28; stroke-dashoffset: 0; stroke: #b0b0b0; stroke-opacity: 0.7; stroke-width: 0.8"/>
     </g>
     <g id="line2d_12">
      <g>
       <use xlink:href="#m81ee18c308" x="453.545455" y="384.48" style="stroke: #000000; stroke-width: 0.8"/>
      </g>
     </g>
     <g id="text_6">
      <!-- 1000 -->
      <g transform="translate(440.820455 399.078438) scale(0.1 -0.1)">
       <defs>
        <path id="DejaVuSans-31" d="M 794 531 
L 1825 531 
L 1825 4091 
L 703 3866 
L 703 4441 
L 1819 4666 
L 2450 4666 
L 2450 531 
L 3481 531 
L 3481 0 
L 794 0 
L 794 531 
z
" transform="scale(0.015625)"/>
       </defs>
       <use xlink:href="#DejaVuSans-31"/>
       <use xlink:href="#DejaVuSans-30" transform="translate(63.623047 0)"/>
       <use xlink:href="#DejaVuSans-30" transform="translate(127.246094 0)"/>
       <use xlink:href="#DejaVuSans-30" transform="translate(190.869141 0)"/>
      </g>
     </g>
    </g>
    <g id="xtick_7">
     <g id="line2d_13">
      <path d="M 521.181818 384.48 
L 521.181818 51.84 
" clip-path="url(#pd7aa5bc27a)" style="fill: none; stroke-dasharray: 2.96,1.28; stroke-dashoffset: 0; stroke: #b0b0b0; stroke-opacity: 0.7; stroke-width: 0.8"/>
     </g>
     <g id="line2d_14">
      <g>
       <use xlink:href="#m81ee18c308" x="521.181818" y="384.48" style="stroke: #000000; stroke-width: 0.8"/>
      </g>
     </g>
     <g id="text_7">
      <!-- 1200 -->
      <g transform="translate(508.456818 399.078438) scale(0.1 -0.1)">
       <use xlink:href="#DejaVuSans-31"/>
       <use xlink:href="#DejaVuSans-32" transform="translate(63.623047 0)"/>
       <use xlink:href="#DejaVuSans-30" transform="translate(127.246094 0)"/>
       <use xlink:href="#DejaVuSans-30" transform="translate(190.869141 0)"/>
      </g>
     </g>
    </g>
    <g id="xtick_8">
     <g id="line2d_15">
      <path d="M 588.818182 384.48 
L 588.818182 51.84 
" clip-path="url(#pd7aa5bc27a)" style="fill: none; stroke-dasharray: 2.96,1.28; stroke-dashoffset: 0; stroke: #b0b0b0; stroke-opacity: 0.7; stroke-width: 0.8"/>
     </g>
     <g id="line2d_16">
      <g>
       <use xlink:href="#m81ee18c308" x="588.818182" y="384.48" style="stroke: #000000; stroke-width: 0.8"/>
      </g>
     </g>
     <g id="text_8">
      <!-- 1400 -->
      <g transform="translate(576.093182 399.078438) scale(0.1 -0.1)">
       <use xlink:href="#DejaVuSans-31"/>
       <use xlink:href="#DejaVuSans-34" transform="translate(63.623047 0)"/>
       <use xlink:href="#DejaVuSans-30" transform="translate(127.246094 0)"/>
       <use xlink:href="#DejaVuSans-30" transform="translate(190.869141 0)"/>
      </g>
     </g>
    </g>
    <g id="text_9">
     <!-- Episode -->
     <g transform="translate(349.3625 412.756563) scale(0.1 -0.1)">
      <defs>
       <path id="DejaVuSans-45" d="M 628 4666 
L 3578 4666 
L 3578 4134 
L 1259 4134 
L 1259 2753 
L 3481 2753 
L 3481 2222 
L 1259 2222 
L 1259 531 
L 3634 531 
L 3634 0 
L 628 0 
L 628 4666 
z
" transform="scale(0.015625)"/>
       <path id="DejaVuSans-70" d="M 1159 525 
L 1159 -1331 
L 581 -1331 
L 581 3500 
L 1159 3500 
L 1159 2969 
Q 1341 3281 1617 3432 
Q 1894 3584 2278 3584 
Q 2916 3584 3314 3078 
Q 3713 2572 3713 1747 
Q 3713 922 3314 415 
Q 2916 -91 2278 -91 
Q 1894 -91 1617 61 
Q 1341 213 1159 525 
z
M 3116 1747 
Q 3116 2381 2855 2742 
Q 2594 3103 2138 3103 
Q 1681 3103 1420 2742 
Q 1159 2381 1159 1747 
Q 1159 1113 1420 752 
Q 1681 391 2138 391 
Q 2594 391 2855 752 
Q 3116 1113 3116 1747 
z
" transform="scale(0.015625)"/>
       <path id="DejaVuSans-69" d="M 603 3500 
L 1178 3500 
L 1178 0 
L 603 0 
L 603 3500 
z
M 603 4863 
L 1178 4863 
L 1178 4134 
L 603 4134 
L 603 4863 
z
" transform="scale(0.015625)"/>
       <path id="DejaVuSans-73" d="M 2834 3397 
L 2834 2853 
Q 2591 2978 2328 3040 
Q 2066 3103 1784 3103 
Q 1356 3103 1142 2972 
Q 928 2841 928 2578 
Q 928 2378 1081 2264 
Q 1234 2150 1697 2047 
L 1894 2003 
Q 2506 1872 2764 1633 
Q 3022 1394 3022 966 
Q 3022 478 2636 193 
Q 2250 -91 1575 -91 
Q 1294 -91 989 -36 
Q 684 19 347 128 
L 347 722 
Q 666 556 975 473 
Q 1284 391 1588 391 
Q 1994 391 2212 530 
Q 2431 669 2431 922 
Q 2431 1156 2273 1281 
Q 2116 1406 1581 1522 
L 1381 1569 
Q 847 1681 609 1914 
Q 372 2147 372 2553 
Q 372 3047 722 3315 
Q 1072 3584 1716 3584 
Q 2034 3584 2315 3537 
Q 2597 3491 2834 3397 
z
" transform="scale(0.015625)"/>
       <path id="DejaVuSans-6f" d="M 1959 3097 
Q 1497 3097 1228 2736 
Q 959 2375 959 1747 
Q 959 1119 1226 758 
Q 1494 397 1959 397 
Q 2419 397 2687 759 
Q 2956 1122 2956 1747 
Q 2956 2369 2687 2733 
Q 2419 3097 1959 3097 
z
M 1959 3584 
Q 2709 3584 3137 3096 
Q 3566 2609 3566 1747 
Q 3566 888 3137 398 
Q 2709 -91 1959 -91 
Q 1206 -91 779 398 
Q 353 888 353 1747 
Q 353 2609 779 3096 
Q 1206 3584 1959 3584 
z
" transform="scale(0.015625)"/>
       <path id="DejaVuSans-64" d="M 2906 2969 
L 2906 4863 
L 3481 4863 
L 3481 0 
L 2906 0 
L 2906 525 
Q 2725 213 2448 61 
Q 2172 -91 1784 -91 
Q 1150 -91 751 415 
Q 353 922 353 1747 
Q 353 2572 751 3078 
Q 1150 3584 1784 3584 
Q 2172 3584 2448 3432 
Q 2725 3281 2906 2969 
z
M 947 1747 
Q 947 1113 1208 752 
Q 1469 391 1925 391 
Q 2381 391 2643 752 
Q 2906 1113 2906 1747 
Q 2906 2381 2643 2742 
Q 2381 3103 1925 3103 
Q 1469 3103 1208 2742 
Q 947 2381 947 1747 
z
" transform="scale(0.015625)"/>
       <path id="DejaVuSans-65" d="M 3597 1894 
L 3597 1613 
L 953 1613 
Q 991 1019 1311 708 
Q 1631 397 2203 397 
Q 2534 397 2845 478 
Q 3156 559 3463 722 
L 3463 178 
Q 3153 47 2828 -22 
Q 2503 -91 2169 -91 
Q 1331 -91 842 396 
Q 353 884 353 1716 
Q 353 2575 817 3079 
Q 1281 3584 2069 3584 
Q 2775 3584 3186 3129 
Q 3597 2675 3597 1894 
z
M 3022 2063 
Q 3016 2534 2758 2815 
Q 2500 3097 2075 3097 
Q 1594 3097 1305 2825 
Q 1016 2553 972 2059 
L 3022 2063 
z
" transform="scale(0.015625)"/>
      </defs>
      <use xlink:href="#DejaVuSans-45"/>
      <use xlink:href="#DejaVuSans-70" transform="translate(63.183594 0)"/>
      <use xlink:href="#DejaVuSans-69" transform="translate(126.660156 0)"/>
      <use xlink:href="#DejaVuSans-73" transform="translate(154.443359 0)"/>
      <use xlink:href="#DejaVuSans-6f" transform="translate(206.542969 0)"/>
      <use xlink:href="#DejaVuSans-64" transform="translate(267.724609 0)"/>
      <use xlink:href="#DejaVuSans-65" transform="translate(331.201172 0)"/>
     </g>
    </g>
   </g>
   <g id="matplotlib.axis_2">
    <g id="ytick_1">
     <g id="line2d_17">
      <path d="M 90 327.024 
L 648 327.024 
" clip-path="url(#pd7aa5bc27a)" style="fill: none; stroke-dasharray: 2.96,1.28; stroke-dashoffset: 0; stroke: #b0b0b0; stroke-opacity: 0.7; stroke-width: 0.8"/>
     </g>
     <g id="line2d_18">
      <defs>
       <path id="m9b3e988d12" d="M 0 0 
L -3.5 0 
" style="stroke: #000000; stroke-width: 0.8"/>
      </defs>
      <g>
       <use xlink:href="#m9b3e988d12" x="90" y="327.024" style="stroke: #000000; stroke-width: 0.8"/>
      </g>
     </g>
     <g id="text_10">
      <!-- −40 -->
      <g transform="translate(61.895313 330.823219) scale(0.1 -0.1)">
       <defs>
        <path id="DejaVuSans-2212" d="M 678 2272 
L 4684 2272 
L 4684 1741 
L 678 1741 
L 678 2272 
z
" transform="scale(0.015625)"/>
       </defs>
       <use xlink:href="#DejaVuSans-2212"/>
       <use xlink:href="#DejaVuSans-34" transform="translate(83.789062 0)"/>
       <use xlink:href="#DejaVuSans-30" transform="translate(147.412109 0)"/>
      </g>
     </g>
    </g>
    <g id="ytick_2">
     <g id="line2d_19">
      <path d="M 90 266.544 
L 648 266.544 
" clip-path="url(#pd7aa5bc27a)" style="fill: none; stroke-dasharray: 2.96,1.28; stroke-dashoffset: 0; stroke: #b0b0b0; stroke-opacity: 0.7; stroke-width: 0.8"/>
     </g>
     <g id="line2d_20">
      <g>
       <use xlink:href="#m9b3e988d12" x="90" y="266.544" style="stroke: #000000; stroke-width: 0.8"/>
      </g>
     </g>
     <g id="text_11">
      <!-- −30 -->
      <g transform="translate(61.895313 270.343219) scale(0.1 -0.1)">
       <defs>
        <path id="DejaVuSans-33" d="M 2597 2516 
Q 3050 2419 3304 2112 
Q 3559 1806 3559 1356 
Q 3559 666 3084 287 
Q 2609 -91 1734 -91 
Q 1441 -91 1130 -33 
Q 819 25 488 141 
L 488 750 
Q 750 597 1062 519 
Q 1375 441 1716 441 
Q 2309 441 2620 675 
Q 2931 909 2931 1356 
Q 2931 1769 2642 2001 
Q 2353 2234 1838 2234 
L 1294 2234 
L 1294 2753 
L 1863 2753 
Q 2328 2753 2575 2939 
Q 2822 3125 2822 3475 
Q 2822 3834 2567 4026 
Q 2313 4219 1838 4219 
Q 1578 4219 1281 4162 
Q 984 4106 628 3988 
L 628 4550 
Q 988 4650 1302 4700 
Q 1616 4750 1894 4750 
Q 2613 4750 3031 4423 
Q 3450 4097 3450 3541 
Q 3450 3153 3228 2886 
Q 3006 2619 2597 2516 
z
" transform="scale(0.015625)"/>
       </defs>
       <use xlink:href="#DejaVuSans-2212"/>
       <use xlink:href="#DejaVuSans-33" transform="translate(83.789062 0)"/>
       <use xlink:href="#DejaVuSans-30" transform="translate(147.412109 0)"/>
      </g>
     </g>
    </g>
    <g id="ytick_3">
     <g id="line2d_21">
      <path d="M 90 206.064 
L 648 206.064 
" clip-path="url(#pd7aa5bc27a)" style="fill: none; stroke-dasharray: 2.96,1.28; stroke-dashoffset: 0; stroke: #b0b0b0; stroke-opacity: 0.7; stroke-width: 0.8"/>
     </g>
     <g id="line2d_22">
      <g>
       <use xlink:href="#m9b3e988d12" x="90" y="206.064" style="stroke: #000000; stroke-width: 0.8"/>
      </g>
     </g>
     <g id="text_12">
      <!-- −20 -->
      <g transform="translate(61.895313 209.863219) scale(0.1 -0.1)">
       <use xlink:href="#DejaVuSans-2212"/>
       <use xlink:href="#DejaVuSans-32" transform="translate(83.789062 0)"/>
       <use xlink:href="#DejaVuSans-30" transform="translate(147.412109 0)"/>
      </g>
     </g>
    </g>
    <g id="ytick_4">
     <g id="line2d_23">
      <path d="M 90 145.584 
L 648 145.584 
" clip-path="url(#pd7aa5bc27a)" style="fill: none; stroke-dasharray: 2.96,1.28; stroke-dashoffset: 0; stroke: #b0b0b0; stroke-opacity: 0.7; stroke-width: 0.8"/>
     </g>
     <g id="line2d_24">
      <g>
       <use xlink:href="#m9b3e988d12" x="90" y="145.584" style="stroke: #000000; stroke-width: 0.8"/>
      </g>
     </g>
     <g id="text_13">
      <!-- −10 -->
      <g transform="translate(61.895313 149.383219) scale(0.1 -0.1)">
       <use xlink:href="#DejaVuSans-2212"/>
       <use xlink:href="#DejaVuSans-31" transform="translate(83.789062 0)"/>
       <use xlink:href="#DejaVuSans-30" transform="translate(147.412109 0)"/>
      </g>
     </g>
    </g>
    <g id="ytick_5">
     <g id="line2d_25">
      <path d="M 90 85.104 
L 648 85.104 
" clip-path="url(#pd7aa5bc27a)" style="fill: none; stroke-dasharray: 2.96,1.28; stroke-dashoffset: 0; stroke: #b0b0b0; stroke-opacity: 0.7; stroke-width: 0.8"/>
     </g>
     <g id="line2d_26">
      <g>
       <use xlink:href="#m9b3e988d12" x="90" y="85.104" style="stroke: #000000; stroke-width: 0.8"/>
      </g>
     </g>
     <g id="text_14">
      <!-- 0 -->
      <g transform="translate(76.6375 88.903219) scale(0.1 -0.1)">
       <use xlink:href="#DejaVuSans-30"/>
      </g>
     </g>
    </g>
    <g id="text_15">
     <!-- Cumulative Reward (Max=3.00) -->
     <g transform="translate(55.815625 298.058437) rotate(-90) scale(0.1 -0.1)">
      <defs>
       <path id="DejaVuSans-43" d="M 4122 4306 
L 4122 3641 
Q 3803 3938 3442 4084 
Q 3081 4231 2675 4231 
Q 1875 4231 1450 3742 
Q 1025 3253 1025 2328 
Q 1025 1406 1450 917 
Q 1875 428 2675 428 
Q 3081 428 3442 575 
Q 3803 722 4122 1019 
L 4122 359 
Q 3791 134 3420 21 
Q 3050 -91 2638 -91 
Q 1578 -91 968 557 
Q 359 1206 359 2328 
Q 359 3453 968 4101 
Q 1578 4750 2638 4750 
Q 3056 4750 3426 4639 
Q 3797 4528 4122 4306 
z
" transform="scale(0.015625)"/>
       <path id="DejaVuSans-75" d="M 544 1381 
L 544 3500 
L 1119 3500 
L 1119 1403 
Q 1119 906 1312 657 
Q 1506 409 1894 409 
Q 2359 409 2629 706 
Q 2900 1003 2900 1516 
L 2900 3500 
L 3475 3500 
L 3475 0 
L 2900 0 
L 2900 538 
Q 2691 219 2414 64 
Q 2138 -91 1772 -91 
Q 1169 -91 856 284 
Q 544 659 544 1381 
z
M 1991 3584 
L 1991 3584 
z
" transform="scale(0.015625)"/>
       <path id="DejaVuSans-6d" d="M 3328 2828 
Q 3544 3216 3844 3400 
Q 4144 3584 4550 3584 
Q 5097 3584 5394 3201 
Q 5691 2819 5691 2113 
L 5691 0 
L 5113 0 
L 5113 2094 
Q 5113 2597 4934 2840 
Q 4756 3084 4391 3084 
Q 3944 3084 3684 2787 
Q 3425 2491 3425 1978 
L 3425 0 
L 2847 0 
L 2847 2094 
Q 2847 2600 2669 2842 
Q 2491 3084 2119 3084 
Q 1678 3084 1418 2786 
Q 1159 2488 1159 1978 
L 1159 0 
L 581 0 
L 581 3500 
L 1159 3500 
L 1159 2956 
Q 1356 3278 1631 3431 
Q 1906 3584 2284 3584 
Q 2666 3584 2933 3390 
Q 3200 3197 3328 2828 
z
" transform="scale(0.015625)"/>
       <path id="DejaVuSans-6c" d="M 603 4863 
L 1178 4863 
L 1178 0 
L 603 0 
L 603 4863 
z
" transform="scale(0.015625)"/>
       <path id="DejaVuSans-61" d="M 2194 1759 
Q 1497 1759 1228 1600 
Q 959 1441 959 1056 
Q 959 750 1161 570 
Q 1363 391 1709 391 
Q 2188 391 2477 730 
Q 2766 1069 2766 1631 
L 2766 1759 
L 2194 1759 
z
M 3341 1997 
L 3341 0 
L 2766 0 
L 2766 531 
Q 2569 213 2275 61 
Q 1981 -91 1556 -91 
Q 1019 -91 701 211 
Q 384 513 384 1019 
Q 384 1609 779 1909 
Q 1175 2209 1959 2209 
L 2766 2209 
L 2766 2266 
Q 2766 2663 2505 2880 
Q 2244 3097 1772 3097 
Q 1472 3097 1187 3025 
Q 903 2953 641 2809 
L 641 3341 
Q 956 3463 1253 3523 
Q 1550 3584 1831 3584 
Q 2591 3584 2966 3190 
Q 3341 2797 3341 1997 
z
" transform="scale(0.015625)"/>
       <path id="DejaVuSans-74" d="M 1172 4494 
L 1172 3500 
L 2356 3500 
L 2356 3053 
L 1172 3053 
L 1172 1153 
Q 1172 725 1289 603 
Q 1406 481 1766 481 
L 2356 481 
L 2356 0 
L 1766 0 
Q 1100 0 847 248 
Q 594 497 594 1153 
L 594 3053 
L 172 3053 
L 172 3500 
L 594 3500 
L 594 4494 
L 1172 4494 
z
" transform="scale(0.015625)"/>
       <path id="DejaVuSans-76" d="M 191 3500 
L 800 3500 
L 1894 563 
L 2988 3500 
L 3597 3500 
L 2284 0 
L 1503 0 
L 191 3500 
z
" transform="scale(0.015625)"/>
       <path id="DejaVuSans-20" transform="scale(0.015625)"/>
       <path id="DejaVuSans-52" d="M 2841 2188 
Q 3044 2119 3236 1894 
Q 3428 1669 3622 1275 
L 4263 0 
L 3584 0 
L 2988 1197 
Q 2756 1666 2539 1819 
Q 2322 1972 1947 1972 
L 1259 1972 
L 1259 0 
L 628 0 
L 628 4666 
L 2053 4666 
Q 2853 4666 3247 4331 
Q 3641 3997 3641 3322 
Q 3641 2881 3436 2590 
Q 3231 2300 2841 2188 
z
M 1259 4147 
L 1259 2491 
L 2053 2491 
Q 2509 2491 2742 2702 
Q 2975 2913 2975 3322 
Q 2975 3731 2742 3939 
Q 2509 4147 2053 4147 
L 1259 4147 
z
" transform="scale(0.015625)"/>
       <path id="DejaVuSans-77" d="M 269 3500 
L 844 3500 
L 1563 769 
L 2278 3500 
L 2956 3500 
L 3675 769 
L 4391 3500 
L 4966 3500 
L 4050 0 
L 3372 0 
L 2619 2869 
L 1863 0 
L 1184 0 
L 269 3500 
z
" transform="scale(0.015625)"/>
       <path id="DejaVuSans-72" d="M 2631 2963 
Q 2534 3019 2420 3045 
Q 2306 3072 2169 3072 
Q 1681 3072 1420 2755 
Q 1159 2438 1159 1844 
L 1159 0 
L 581 0 
L 581 3500 
L 1159 3500 
L 1159 2956 
Q 1341 3275 1631 3429 
Q 1922 3584 2338 3584 
Q 2397 3584 2469 3576 
Q 2541 3569 2628 3553 
L 2631 2963 
z
" transform="scale(0.015625)"/>
       <path id="DejaVuSans-28" d="M 1984 4856 
Q 1566 4138 1362 3434 
Q 1159 2731 1159 2009 
Q 1159 1288 1364 580 
Q 1569 -128 1984 -844 
L 1484 -844 
Q 1016 -109 783 600 
Q 550 1309 550 2009 
Q 550 2706 781 3412 
Q 1013 4119 1484 4856 
L 1984 4856 
z
" transform="scale(0.015625)"/>
       <path id="DejaVuSans-4d" d="M 628 4666 
L 1569 4666 
L 2759 1491 
L 3956 4666 
L 4897 4666 
L 4897 0 
L 4281 0 
L 4281 4097 
L 3078 897 
L 2444 897 
L 1241 4097 
L 1241 0 
L 628 0 
L 628 4666 
z
" transform="scale(0.015625)"/>
       <path id="DejaVuSans-78" d="M 3513 3500 
L 2247 1797 
L 3578 0 
L 2900 0 
L 1881 1375 
L 863 0 
L 184 0 
L 1544 1831 
L 300 3500 
L 978 3500 
L 1906 2253 
L 2834 3500 
L 3513 3500 
z
" transform="scale(0.015625)"/>
       <path id="DejaVuSans-3d" d="M 678 2906 
L 4684 2906 
L 4684 2381 
L 678 2381 
L 678 2906 
z
M 678 1631 
L 4684 1631 
L 4684 1100 
L 678 1100 
L 678 1631 
z
" transform="scale(0.015625)"/>
       <path id="DejaVuSans-2e" d="M 684 794 
L 1344 794 
L 1344 0 
L 684 0 
L 684 794 
z
" transform="scale(0.015625)"/>
       <path id="DejaVuSans-29" d="M 513 4856 
L 1013 4856 
Q 1481 4119 1714 3412 
Q 1947 2706 1947 2009 
Q 1947 1309 1714 600 
Q 1481 -109 1013 -844 
L 513 -844 
Q 928 -128 1133 580 
Q 1338 1288 1338 2009 
Q 1338 2731 1133 3434 
Q 928 4138 513 4856 
z
" transform="scale(0.015625)"/>
      </defs>
      <use xlink:href="#DejaVuSans-43"/>
      <use xlink:href="#DejaVuSans-75" transform="translate(69.824219 0)"/>
      <use xlink:href="#DejaVuSans-6d" transform="translate(133.203125 0)"/>
      <use xlink:href="#DejaVuSans-75" transform="translate(230.615234 0)"/>
      <use xlink:href="#DejaVuSans-6c" transform="translate(293.994141 0)"/>
      <use xlink:href="#DejaVuSans-61" transform="translate(321.777344 0)"/>
      <use xlink:href="#DejaVuSans-74" transform="translate(383.056641 0)"/>
      <use xlink:href="#DejaVuSans-69" transform="translate(422.265625 0)"/>
      <use xlink:href="#DejaVuSans-76" transform="translate(450.048828 0)"/>
      <use xlink:href="#DejaVuSans-65" transform="translate(509.228516 0)"/>
      <use xlink:href="#DejaVuSans-20" transform="translate(570.751953 0)"/>
      <use xlink:href="#DejaVuSans-52" transform="translate(602.539062 0)"/>
      <use xlink:href="#DejaVuSans-65" transform="translate(667.521484 0)"/>
      <use xlink:href="#DejaVuSans-77" transform="translate(729.044922 0)"/>
      <use xlink:href="#DejaVuSans-61" transform="translate(810.832031 0)"/>
      <use xlink:href="#DejaVuSans-72" transform="translate(872.111328 0)"/>
      <use xlink:href="#DejaVuSans-64" transform="translate(911.474609 0)"/>
      <use xlink:href="#DejaVuSans-20" transform="translate(974.951172 0)"/>
      <use xlink:href="#DejaVuSans-28" transform="translate(1006.738281 0)"/>
      <use xlink:href="#DejaVuSans-4d" transform="translate(1045.751953 0)"/>
      <use xlink:href="#DejaVuSans-61" transform="translate(1132.03125 0)"/>
      <use xlink:href="#DejaVuSans-78" transform="translate(1193.310547 0)"/>
      <use xlink:href="#DejaVuSans-3d" transform="translate(1252.490234 0)"/>
      <use xlink:href="#DejaVuSans-33" transform="translate(1336.279297 0)"/>
      <use xlink:href="#DejaVuSans-2e" transform="translate(1399.902344 0)"/>
      <use xlink:href="#DejaVuSans-30" transform="translate(1431.689453 0)"/>
      <use xlink:href="#DejaVuSans-30" transform="translate(1495.3125 0)"/>
      <use xlink:href="#DejaVuSans-29" transform="translate(1558.935547 0)"/>
     </g>
    </g>
   </g>
   <g id="line2d_27">
    <path d="M 115.363636 163.728 
L 115.701818 145.584 
L 116.04 230.256 
L 116.378182 151.632 
L 116.716364 169.776 
L 117.392727 145.584 
L 117.730909 187.92 
L 118.069091 169.776 
L 118.407273 157.68 
L 118.745455 175.824 
L 119.083636 145.584 
L 119.421818 145.584 
L 119.76 187.92 
L 120.098182 151.632 
L 120.436364 145.584 
L 120.774545 151.632 
L 121.112727 151.632 
L 121.450909 157.68 
L 121.789091 157.68 
L 122.127273 145.584 
L 122.465455 175.824 
L 122.803636 169.776 
L 123.141818 157.68 
L 123.48 157.68 
L 123.818182 151.632 
L 124.156364 224.208 
L 124.494545 151.632 
L 124.832727 157.68 
L 125.170909 181.872 
L 125.509091 230.256 
L 125.847273 157.68 
L 126.185455 145.584 
L 126.523636 157.68 
L 126.861818 145.584 
L 127.2 187.92 
L 127.538182 151.632 
L 127.876364 145.584 
L 128.214545 187.92 
L 128.552727 145.584 
L 128.890909 145.584 
L 129.567273 157.68 
L 129.905455 193.968 
L 130.243636 175.824 
L 130.581818 151.632 
L 130.92 145.584 
L 131.258182 151.632 
L 131.596364 151.632 
L 131.934545 163.728 
L 132.272727 157.68 
L 132.610909 157.68 
L 132.949091 151.632 
L 133.625455 151.632 
L 133.963636 145.584 
L 134.301818 157.68 
L 134.64 151.632 
L 134.978182 157.68 
L 135.316364 151.632 
L 135.992727 163.728 
L 136.330909 163.728 
L 136.669091 181.872 
L 137.007273 163.728 
L 137.345455 169.776 
L 137.683636 187.92 
L 138.021818 163.728 
L 138.36 151.632 
L 138.698182 193.968 
L 139.036364 163.728 
L 139.374545 145.584 
L 139.712727 163.728 
L 140.050909 157.68 
L 140.389091 145.584 
L 140.727273 145.584 
L 141.065455 163.728 
L 141.403636 145.584 
L 141.741818 151.632 
L 142.08 145.584 
L 142.418182 212.112 
L 142.756364 157.68 
L 143.094545 145.584 
L 143.432727 151.632 
L 143.770909 175.824 
L 144.109091 151.632 
L 144.447273 181.872 
L 144.785455 181.872 
L 145.123636 230.256 
L 145.461818 151.632 
L 146.138182 163.728 
L 146.476364 212.112 
L 146.814545 145.584 
L 147.152727 230.256 
L 147.490909 145.584 
L 147.829091 169.776 
L 148.167273 151.632 
L 148.505455 145.584 
L 149.181818 224.208 
L 149.858182 145.584 
L 150.196364 157.68 
L 150.534545 151.632 
L 150.872727 151.632 
L 151.210909 181.872 
L 151.549091 175.824 
L 151.887273 181.872 
L 152.225455 206.064 
L 152.563636 175.824 
L 152.901818 157.68 
L 153.24 151.632 
L 153.578182 175.824 
L 153.916364 157.68 
L 154.254545 212.112 
L 154.592727 187.92 
L 154.930909 145.584 
L 155.269091 187.92 
L 155.607273 151.632 
L 155.945455 157.68 
L 156.283636 151.632 
L 156.621818 206.064 
L 156.96 145.584 
L 157.298182 151.632 
L 157.636364 151.632 
L 157.974545 175.824 
L 158.312727 145.584 
L 158.650909 157.68 
L 158.989091 212.112 
L 159.327273 157.68 
L 159.665455 163.728 
L 160.003636 145.584 
L 160.341818 193.968 
L 160.68 157.68 
L 161.356364 260.496 
L 161.694545 212.112 
L 162.032727 145.584 
L 162.370909 157.68 
L 162.709091 200.016 
L 163.047273 206.064 
L 163.385455 254.448 
L 163.723636 181.872 
L 164.061818 151.632 
L 164.4 163.728 
L 164.738182 157.68 
L 165.076364 145.584 
L 165.752727 157.68 
L 166.090909 145.584 
L 166.429091 151.632 
L 166.767273 151.632 
L 167.105455 145.584 
L 167.443636 145.584 
L 167.781818 169.776 
L 168.12 175.824 
L 168.458182 151.632 
L 168.796364 145.584 
L 169.134545 163.728 
L 169.472727 206.064 
L 169.810909 327.024 
L 170.149091 187.92 
L 170.487273 230.256 
L 170.825455 145.584 
L 171.163636 200.016 
L 171.501818 206.064 
L 171.84 200.016 
L 172.178182 181.872 
L 172.516364 151.632 
L 172.854545 151.632 
L 173.192727 145.584 
L 173.530909 187.92 
L 173.869091 151.632 
L 174.207273 181.872 
L 174.545455 163.728 
L 174.883636 151.632 
L 175.221818 193.968 
L 175.56 151.632 
L 175.898182 193.968 
L 176.236364 187.92 
L 176.574545 157.68 
L 176.912727 145.584 
L 177.250909 151.632 
L 177.589091 145.584 
L 177.927273 145.584 
L 178.265455 157.68 
L 178.603636 242.352 
L 178.941818 290.736 
L 179.28 187.92 
L 179.618182 236.304 
L 179.956364 242.352 
L 180.294545 145.584 
L 180.632727 224.208 
L 180.970909 212.112 
L 181.309091 266.544 
L 181.647273 145.584 
L 181.985455 151.632 
L 182.323636 163.728 
L 182.661818 157.68 
L 183 157.68 
L 183.338182 193.968 
L 184.014545 145.584 
L 184.352727 181.872 
L 184.690909 151.632 
L 185.029091 163.728 
L 185.705455 175.824 
L 186.043636 187.92 
L 186.381818 169.776 
L 186.72 145.584 
L 187.058182 169.776 
L 187.396364 151.632 
L 187.734545 151.632 
L 188.072727 181.872 
L 188.410909 157.68 
L 189.087273 145.584 
L 189.425455 145.584 
L 189.763636 169.776 
L 190.101818 212.112 
L 190.44 163.728 
L 190.778182 157.68 
L 191.116364 187.92 
L 191.454545 242.352 
L 191.792727 163.728 
L 192.130909 181.872 
L 192.469091 218.16 
L 192.807273 151.632 
L 193.145455 145.584 
L 193.483636 169.776 
L 193.821818 169.776 
L 194.16 163.728 
L 194.498182 145.584 
L 194.836364 320.976 
L 195.174545 157.68 
L 195.512727 175.824 
L 195.850909 302.832 
L 196.189091 157.68 
L 196.527273 145.584 
L 196.865455 169.776 
L 197.203636 145.584 
L 197.541818 175.824 
L 197.88 224.208 
L 198.218182 145.584 
L 198.556364 169.776 
L 198.894545 151.632 
L 199.232727 200.016 
L 199.570909 187.92 
L 199.909091 206.064 
L 200.247273 187.92 
L 200.585455 151.632 
L 200.923636 151.632 
L 201.261818 187.92 
L 201.6 145.584 
L 201.938182 230.256 
L 202.276364 157.68 
L 202.614545 145.584 
L 202.952727 151.632 
L 203.290909 206.064 
L 203.629091 157.68 
L 203.967273 145.584 
L 204.305455 327.024 
L 204.643636 224.208 
L 204.981818 193.968 
L 205.32 206.064 
L 205.658182 169.776 
L 205.996364 242.352 
L 206.334545 145.584 
L 206.672727 248.4 
L 207.010909 163.728 
L 207.349091 248.4 
L 207.687273 169.776 
L 208.025455 187.92 
L 208.363636 175.824 
L 208.701818 169.776 
L 209.04 169.776 
L 209.378182 151.632 
L 209.716364 157.68 
L 210.392727 242.352 
L 210.730909 145.584 
L 211.069091 175.824 
L 211.407273 151.632 
L 211.745455 260.496 
L 212.083636 151.632 
L 212.421818 169.776 
L 213.098182 169.776 
L 213.436364 145.584 
L 213.774545 290.736 
L 214.112727 151.632 
L 214.450909 151.632 
L 214.789091 193.968 
L 215.127273 260.496 
L 215.465455 175.824 
L 215.803636 145.584 
L 216.141818 157.68 
L 216.48 175.824 
L 216.818182 187.92 
L 217.156364 157.68 
L 217.494545 175.824 
L 217.832727 200.016 
L 218.170909 193.968 
L 218.509091 145.584 
L 218.847273 181.872 
L 219.185455 200.016 
L 219.523636 181.872 
L 219.861818 145.584 
L 220.2 175.824 
L 220.538182 230.256 
L 220.876364 151.632 
L 221.214545 145.584 
L 221.552727 145.584 
L 221.890909 151.632 
L 222.229091 169.776 
L 222.567273 151.632 
L 222.905455 272.592 
L 223.243636 145.584 
L 223.581818 151.632 
L 223.92 169.776 
L 224.258182 193.968 
L 224.596364 157.68 
L 224.934545 157.68 
L 225.272727 145.584 
L 225.949091 248.4 
L 226.287273 212.112 
L 226.625455 151.632 
L 226.963636 181.872 
L 227.301818 181.872 
L 227.64 151.632 
L 227.978182 163.728 
L 228.316364 181.872 
L 228.654545 163.728 
L 228.992727 169.776 
L 229.330909 157.68 
L 229.669091 200.016 
L 230.007273 145.584 
L 230.345455 206.064 
L 230.683636 169.776 
L 231.021818 327.024 
L 231.36 181.872 
L 231.698182 187.92 
L 232.036364 181.872 
L 232.374545 163.728 
L 232.712727 151.632 
L 233.050909 236.304 
L 233.389091 193.968 
L 233.727273 212.112 
L 234.065455 169.776 
L 234.403636 181.872 
L 234.741818 151.632 
L 235.08 145.584 
L 235.418182 242.352 
L 235.756364 151.632 
L 236.094545 254.448 
L 236.432727 157.68 
L 236.770909 187.92 
L 237.109091 151.632 
L 237.447273 218.16 
L 237.785455 230.256 
L 238.123636 163.728 
L 238.461818 169.776 
L 238.8 212.112 
L 239.138182 145.584 
L 239.476364 163.728 
L 239.814545 175.824 
L 240.152727 151.632 
L 240.490909 187.92 
L 240.829091 169.776 
L 241.167273 145.584 
L 241.505455 151.632 
L 241.843636 145.584 
L 242.181818 163.728 
L 242.52 157.68 
L 242.858182 157.68 
L 243.196364 193.968 
L 243.534545 206.064 
L 243.872727 212.112 
L 244.210909 181.872 
L 244.549091 169.776 
L 244.887273 151.632 
L 245.225455 145.584 
L 245.563636 151.632 
L 245.901818 212.112 
L 246.24 169.776 
L 246.916364 157.68 
L 247.254545 224.208 
L 247.592727 163.728 
L 247.930909 145.584 
L 248.269091 163.728 
L 248.607273 206.064 
L 248.945455 151.632 
L 249.283636 157.68 
L 249.621818 224.208 
L 249.96 206.064 
L 250.298182 151.632 
L 250.636364 187.92 
L 250.974545 157.68 
L 251.312727 151.632 
L 251.650909 230.256 
L 251.989091 187.92 
L 252.327273 163.728 
L 252.665455 187.92 
L 253.003636 236.304 
L 253.341818 151.632 
L 253.68 175.824 
L 254.018182 169.776 
L 254.356364 200.016 
L 254.694545 163.728 
L 255.032727 169.776 
L 255.370909 169.776 
L 255.709091 151.632 
L 256.047273 254.448 
L 256.385455 145.584 
L 256.723636 187.92 
L 257.061818 157.68 
L 257.4 212.112 
L 257.738182 169.776 
L 258.076364 145.584 
L 258.414545 169.776 
L 258.752727 157.68 
L 259.090909 151.632 
L 259.429091 169.776 
L 259.767273 200.016 
L 260.105455 145.584 
L 260.443636 193.968 
L 260.781818 151.632 
L 261.12 85.104 
L 261.458182 145.584 
L 261.796364 163.728 
L 262.134545 157.68 
L 262.472727 212.112 
L 262.810909 169.776 
L 263.149091 187.92 
L 263.487273 200.016 
L 263.825455 206.064 
L 264.163636 157.68 
L 264.501818 145.584 
L 264.84 169.776 
L 265.178182 151.632 
L 265.516364 145.584 
L 265.854545 248.4 
L 266.192727 151.632 
L 266.530909 157.68 
L 266.869091 157.68 
L 267.545455 145.584 
L 268.221818 145.584 
L 268.56 206.064 
L 268.898182 200.016 
L 269.236364 169.776 
L 269.574545 260.496 
L 269.912727 151.632 
L 270.250909 212.112 
L 270.589091 224.208 
L 270.927273 163.728 
L 271.265455 151.632 
L 271.941818 175.824 
L 272.28 145.584 
L 272.618182 212.112 
L 272.956364 193.968 
L 273.632727 145.584 
L 273.970909 175.824 
L 274.309091 145.584 
L 274.647273 193.968 
L 274.985455 290.736 
L 275.323636 121.392 
L 275.661818 145.584 
L 276 145.584 
L 276.338182 151.632 
L 276.676364 145.584 
L 277.014545 187.92 
L 277.352727 187.92 
L 277.690909 260.496 
L 278.029091 157.68 
L 278.367273 248.4 
L 278.705455 163.728 
L 279.043636 145.584 
L 279.381818 151.632 
L 279.72 181.872 
L 280.058182 145.584 
L 280.396364 200.016 
L 280.734545 187.92 
L 281.072727 181.872 
L 281.410909 145.584 
L 281.749091 187.92 
L 282.087273 163.728 
L 282.425455 193.968 
L 282.763636 181.872 
L 283.101818 308.88 
L 283.44 151.632 
L 283.778182 308.88 
L 284.116364 151.632 
L 284.454545 187.92 
L 284.792727 151.632 
L 285.130909 206.064 
L 285.469091 175.824 
L 285.807273 193.968 
L 286.145455 169.776 
L 286.483636 224.208 
L 287.16 145.584 
L 287.498182 175.824 
L 287.836364 151.632 
L 288.174545 206.064 
L 288.512727 145.584 
L 288.850909 145.584 
L 289.189091 151.632 
L 289.527273 242.352 
L 289.865455 187.92 
L 290.203636 218.16 
L 290.541818 163.728 
L 290.88 175.824 
L 291.218182 175.824 
L 291.556364 151.632 
L 291.894545 187.92 
L 292.232727 151.632 
L 292.570909 163.728 
L 292.909091 151.632 
L 293.247273 145.584 
L 293.585455 145.584 
L 293.923636 169.776 
L 294.261818 169.776 
L 294.6 200.016 
L 294.938182 151.632 
L 295.276364 145.584 
L 295.614545 163.728 
L 295.952727 169.776 
L 296.290909 296.784 
L 296.629091 145.584 
L 296.967273 163.728 
L 297.305455 151.632 
L 297.643636 157.68 
L 297.981818 272.592 
L 298.32 139.536 
L 298.658182 145.584 
L 298.996364 169.776 
L 299.334545 224.208 
L 299.672727 193.968 
L 300.010909 242.352 
L 300.349091 187.92 
L 300.687273 187.92 
L 301.025455 236.304 
L 301.363636 145.584 
L 301.701818 145.584 
L 302.04 175.824 
L 302.378182 163.728 
L 303.392727 145.584 
L 303.730909 181.872 
L 304.069091 145.584 
L 304.407273 193.968 
L 304.745455 157.68 
L 305.083636 145.584 
L 305.421818 145.584 
L 305.76 157.68 
L 306.098182 145.584 
L 306.436364 151.632 
L 306.774545 169.776 
L 307.112727 145.584 
L 307.450909 200.016 
L 307.789091 157.68 
L 308.127273 266.544 
L 308.803636 169.776 
L 309.141818 175.824 
L 309.818182 230.256 
L 310.156364 163.728 
L 310.494545 163.728 
L 310.832727 151.632 
L 311.170909 181.872 
L 311.509091 163.728 
L 311.847273 200.016 
L 312.185455 157.68 
L 312.523636 212.112 
L 312.861818 175.824 
L 313.2 236.304 
L 313.538182 187.92 
L 313.876364 163.728 
L 314.214545 157.68 
L 314.552727 157.68 
L 314.890909 193.968 
L 315.229091 157.68 
L 315.905455 157.68 
L 316.243636 169.776 
L 316.581818 193.968 
L 316.92 151.632 
L 317.258182 169.776 
L 317.596364 175.824 
L 317.934545 145.584 
L 318.610909 157.68 
L 318.949091 212.112 
L 319.287273 145.584 
L 319.625455 169.776 
L 319.963636 145.584 
L 320.301818 181.872 
L 320.64 169.776 
L 320.978182 242.352 
L 321.316364 145.584 
L 321.654545 145.584 
L 321.992727 163.728 
L 322.330909 145.584 
L 322.669091 121.392 
L 323.007273 181.872 
L 323.683636 157.68 
L 324.021818 206.064 
L 324.36 169.776 
L 324.698182 157.68 
L 325.036364 248.4 
L 325.374545 91.152 
L 326.050909 218.16 
L 326.389091 145.584 
L 326.727273 103.248 
L 327.065455 163.728 
L 327.403636 151.632 
L 327.741818 169.776 
L 328.08 200.016 
L 328.418182 97.2 
L 328.756364 163.728 
L 329.094545 127.44 
L 329.432727 145.584 
L 329.770909 218.16 
L 330.109091 97.2 
L 330.447273 115.344 
L 330.785455 169.776 
L 331.123636 200.016 
L 331.461818 169.776 
L 331.8 169.776 
L 332.138182 163.728 
L 332.476364 73.008 
L 332.814545 91.152 
L 333.152727 103.248 
L 333.490909 91.152 
L 333.829091 212.112 
L 334.167273 139.536 
L 334.505455 91.152 
L 334.843636 169.776 
L 335.181818 103.248 
L 335.52 79.056 
L 335.858182 73.008 
L 336.196364 121.392 
L 336.534545 145.584 
L 336.872727 91.152 
L 337.210909 218.16 
L 337.549091 145.584 
L 337.887273 163.728 
L 338.225455 163.728 
L 338.563636 151.632 
L 338.901818 103.248 
L 339.24 103.248 
L 339.578182 206.064 
L 339.916364 145.584 
L 340.254545 151.632 
L 340.930909 212.112 
L 341.607273 85.104 
L 341.945455 163.728 
L 342.283636 73.008 
L 342.621818 121.392 
L 342.96 151.632 
L 343.298182 151.632 
L 343.636364 163.728 
L 343.974545 157.68 
L 344.312727 145.584 
L 344.650909 145.584 
L 344.989091 175.824 
L 345.327273 175.824 
L 345.665455 145.584 
L 346.003636 151.632 
L 346.341818 181.872 
L 347.018182 109.296 
L 347.356364 115.344 
L 347.694545 200.016 
L 348.032727 157.68 
L 348.370909 206.064 
L 348.709091 157.68 
L 349.047273 151.632 
L 349.385455 97.2 
L 349.723636 79.056 
L 350.061818 224.208 
L 350.738182 121.392 
L 351.076364 133.488 
L 351.414545 91.152 
L 351.752727 181.872 
L 352.090909 151.632 
L 352.767273 230.256 
L 353.105455 248.4 
L 353.443636 145.584 
L 353.781818 193.968 
L 354.12 151.632 
L 354.458182 145.584 
L 355.134545 200.016 
L 355.472727 236.304 
L 355.810909 224.208 
L 356.149091 284.688 
L 356.487273 145.584 
L 356.825455 175.824 
L 357.163636 181.872 
L 357.501818 145.584 
L 357.84 145.584 
L 358.178182 236.304 
L 358.516364 145.584 
L 358.854545 260.496 
L 359.192727 133.488 
L 359.530909 212.112 
L 359.869091 145.584 
L 360.207273 151.632 
L 360.545455 187.92 
L 360.883636 175.824 
L 361.221818 230.256 
L 361.56 145.584 
L 361.898182 151.632 
L 362.236364 236.304 
L 362.574545 369.36 
L 362.912727 339.12 
L 363.250909 320.976 
L 363.589091 145.584 
L 363.927273 181.872 
L 364.265455 187.92 
L 364.603636 248.4 
L 364.941818 151.632 
L 365.28 212.112 
L 365.618182 163.728 
L 365.956364 200.016 
L 366.294545 97.2 
L 366.632727 145.584 
L 366.970909 290.736 
L 367.309091 145.584 
L 367.985455 200.016 
L 368.323636 206.064 
L 368.661818 79.056 
L 369 109.296 
L 369.338182 103.248 
L 369.676364 181.872 
L 370.014545 181.872 
L 370.352727 97.2 
L 370.690909 181.872 
L 371.029091 109.296 
L 371.367273 157.68 
L 371.705455 169.776 
L 372.043636 163.728 
L 372.381818 91.152 
L 372.72 85.104 
L 373.396364 218.16 
L 374.072727 181.872 
L 374.410909 133.488 
L 375.087273 157.68 
L 375.425455 212.112 
L 375.763636 157.68 
L 376.101818 266.544 
L 376.44 109.296 
L 377.116364 181.872 
L 377.454545 151.632 
L 377.792727 145.584 
L 378.130909 163.728 
L 378.469091 66.96 
L 378.807273 181.872 
L 379.145455 193.968 
L 379.483636 163.728 
L 379.821818 260.496 
L 380.16 145.584 
L 380.498182 163.728 
L 380.836364 206.064 
L 381.174545 157.68 
L 381.850909 169.776 
L 382.189091 145.584 
L 382.527273 151.632 
L 382.865455 187.92 
L 383.203636 151.632 
L 383.541818 327.024 
L 383.88 175.824 
L 384.218182 206.064 
L 384.556364 145.584 
L 384.894545 212.112 
L 385.232727 66.96 
L 385.570909 175.824 
L 385.909091 212.112 
L 386.247273 169.776 
L 386.585455 151.632 
L 386.923636 91.152 
L 387.261818 181.872 
L 387.6 175.824 
L 387.938182 145.584 
L 388.276364 248.4 
L 388.952727 163.728 
L 389.290909 206.064 
L 389.629091 169.776 
L 389.967273 163.728 
L 390.305455 151.632 
L 390.643636 145.584 
L 390.981818 73.008 
L 391.32 175.824 
L 391.658182 133.488 
L 391.996364 187.92 
L 392.334545 85.104 
L 392.672727 145.584 
L 393.010909 66.96 
L 393.349091 200.016 
L 393.687273 163.728 
L 394.025455 109.296 
L 394.363636 169.776 
L 394.701818 91.152 
L 395.04 79.056 
L 395.378182 163.728 
L 395.716364 115.344 
L 396.054545 163.728 
L 396.392727 79.056 
L 396.730909 163.728 
L 397.069091 169.776 
L 397.407273 193.968 
L 397.745455 163.728 
L 398.083636 163.728 
L 398.421818 145.584 
L 398.76 157.68 
L 399.098182 206.064 
L 399.436364 218.16 
L 399.774545 109.296 
L 400.112727 163.728 
L 400.450909 73.008 
L 400.789091 230.256 
L 401.127273 212.112 
L 401.803636 73.008 
L 402.141818 157.68 
L 402.48 157.68 
L 402.818182 181.872 
L 403.156364 187.92 
L 403.494545 79.056 
L 403.832727 157.68 
L 404.170909 163.728 
L 404.509091 163.728 
L 404.847273 109.296 
L 405.185455 103.248 
L 405.523636 145.584 
L 405.861818 157.68 
L 406.2 73.008 
L 406.538182 85.104 
L 406.876364 151.632 
L 407.214545 145.584 
L 407.552727 79.056 
L 407.890909 151.632 
L 408.229091 151.632 
L 408.905455 175.824 
L 409.243636 181.872 
L 409.581818 133.488 
L 409.92 66.96 
L 410.258182 163.728 
L 410.596364 163.728 
L 410.934545 115.344 
L 411.272727 151.632 
L 411.949091 163.728 
L 412.287273 127.44 
L 412.625455 169.776 
L 413.301818 121.392 
L 413.64 230.256 
L 413.978182 85.104 
L 414.316364 109.296 
L 414.654545 91.152 
L 414.992727 212.112 
L 415.330909 169.776 
L 415.669091 97.2 
L 416.007273 169.776 
L 416.345455 151.632 
L 416.683636 91.152 
L 417.021818 169.776 
L 417.36 145.584 
L 417.698182 163.728 
L 418.036364 91.152 
L 418.374545 66.96 
L 418.712727 115.344 
L 419.050909 187.92 
L 419.389091 133.488 
L 419.727273 181.872 
L 420.065455 157.68 
L 420.403636 121.392 
L 420.741818 169.776 
L 421.418182 181.872 
L 421.756364 157.68 
L 422.094545 109.296 
L 422.432727 175.824 
L 422.770909 151.632 
L 423.109091 151.632 
L 423.785455 73.008 
L 424.123636 145.584 
L 424.461818 145.584 
L 424.8 175.824 
L 425.138182 145.584 
L 425.476364 66.96 
L 425.814545 151.632 
L 426.152727 145.584 
L 426.490909 145.584 
L 426.829091 163.728 
L 427.167273 109.296 
L 427.505455 224.208 
L 428.181818 163.728 
L 428.52 206.064 
L 428.858182 79.056 
L 429.196364 66.96 
L 429.534545 73.008 
L 429.872727 218.16 
L 430.210909 193.968 
L 430.549091 187.92 
L 431.225455 151.632 
L 431.563636 85.104 
L 431.901818 73.008 
L 432.24 157.68 
L 432.578182 145.584 
L 432.916364 73.008 
L 433.254545 103.248 
L 433.592727 181.872 
L 433.930909 79.056 
L 434.269091 157.68 
L 434.607273 73.008 
L 434.945455 85.104 
L 435.283636 236.304 
L 435.621818 115.344 
L 435.96 91.152 
L 436.636364 206.064 
L 436.974545 66.96 
L 437.650909 163.728 
L 437.989091 85.104 
L 438.327273 85.104 
L 438.665455 151.632 
L 439.003636 66.96 
L 439.341818 66.96 
L 439.68 73.008 
L 440.018182 145.584 
L 440.356364 163.728 
L 440.694545 169.776 
L 441.032727 109.296 
L 441.370909 163.728 
L 441.709091 103.248 
L 442.047273 66.96 
L 442.385455 145.584 
L 442.723636 163.728 
L 443.061818 193.968 
L 443.4 79.056 
L 443.738182 151.632 
L 444.076364 79.056 
L 444.414545 206.064 
L 444.752727 85.104 
L 445.090909 66.96 
L 445.429091 115.344 
L 445.767273 127.44 
L 446.105455 163.728 
L 446.443636 145.584 
L 446.781818 109.296 
L 447.12 145.584 
L 447.796364 145.584 
L 448.134545 151.632 
L 448.472727 103.248 
L 448.810909 103.248 
L 449.149091 181.872 
L 449.487273 133.488 
L 449.825455 115.344 
L 450.163636 79.056 
L 450.501818 242.352 
L 450.84 109.296 
L 451.178182 79.056 
L 451.516364 206.064 
L 451.854545 79.056 
L 452.192727 97.2 
L 452.530909 169.776 
L 452.869091 66.96 
L 453.207273 145.584 
L 453.545455 103.248 
L 453.883636 163.728 
L 454.221818 169.776 
L 454.56 103.248 
L 454.898182 66.96 
L 455.236364 79.056 
L 455.574545 85.104 
L 455.912727 151.632 
L 456.250909 66.96 
L 456.927273 151.632 
L 457.265455 145.584 
L 457.603636 91.152 
L 457.941818 85.104 
L 458.28 157.68 
L 458.618182 181.872 
L 458.956364 97.2 
L 459.294545 163.728 
L 459.632727 73.008 
L 460.309091 200.016 
L 460.647273 145.584 
L 460.985455 163.728 
L 461.323636 79.056 
L 461.661818 151.632 
L 462 91.152 
L 462.676364 66.96 
L 463.014545 97.2 
L 463.352727 73.008 
L 463.690909 85.104 
L 464.029091 151.632 
L 464.367273 79.056 
L 464.705455 145.584 
L 465.043636 163.728 
L 465.381818 145.584 
L 465.72 145.584 
L 466.058182 175.824 
L 466.396364 169.776 
L 466.734545 91.152 
L 467.072727 66.96 
L 467.410909 145.584 
L 467.749091 115.344 
L 468.087273 193.968 
L 468.425455 66.96 
L 468.763636 145.584 
L 469.101818 169.776 
L 469.44 66.96 
L 469.778182 79.056 
L 470.116364 181.872 
L 470.454545 79.056 
L 470.792727 145.584 
L 471.130909 66.96 
L 471.469091 91.152 
L 471.807273 91.152 
L 472.145455 169.776 
L 472.483636 163.728 
L 472.821818 91.152 
L 473.16 151.632 
L 473.498182 163.728 
L 473.836364 187.92 
L 474.174545 145.584 
L 474.512727 85.104 
L 474.850909 73.008 
L 475.189091 145.584 
L 475.527273 145.584 
L 475.865455 91.152 
L 476.203636 151.632 
L 476.541818 169.776 
L 476.88 97.2 
L 477.218182 145.584 
L 477.556364 145.584 
L 477.894545 163.728 
L 478.232727 145.584 
L 478.570909 79.056 
L 478.909091 121.392 
L 479.247273 145.584 
L 479.585455 145.584 
L 479.923636 73.008 
L 480.261818 157.68 
L 480.6 79.056 
L 480.938182 193.968 
L 481.276364 85.104 
L 481.614545 151.632 
L 481.952727 175.824 
L 482.290909 79.056 
L 482.629091 97.2 
L 482.967273 200.016 
L 483.305455 206.064 
L 483.643636 200.016 
L 483.981818 66.96 
L 484.32 127.44 
L 484.658182 163.728 
L 484.996364 212.112 
L 485.334545 151.632 
L 485.672727 151.632 
L 486.010909 212.112 
L 486.349091 163.728 
L 486.687273 163.728 
L 487.025455 85.104 
L 487.363636 73.008 
L 487.701818 193.968 
L 488.04 163.728 
L 488.378182 91.152 
L 488.716364 163.728 
L 489.054545 79.056 
L 489.392727 66.96 
L 489.730909 187.92 
L 490.069091 79.056 
L 490.407273 79.056 
L 490.745455 115.344 
L 491.083636 163.728 
L 491.421818 66.96 
L 491.76 163.728 
L 492.098182 79.056 
L 492.436364 145.584 
L 492.774545 79.056 
L 493.112727 169.776 
L 493.450909 66.96 
L 493.789091 181.872 
L 494.127273 91.152 
L 494.465455 224.208 
L 494.803636 145.584 
L 495.141818 163.728 
L 495.48 66.96 
L 495.818182 103.248 
L 496.156364 79.056 
L 496.494545 218.16 
L 496.832727 66.96 
L 497.170909 163.728 
L 497.509091 66.96 
L 497.847273 79.056 
L 498.185455 163.728 
L 498.861818 85.104 
L 499.2 85.104 
L 499.538182 145.584 
L 499.876364 73.008 
L 500.214545 97.2 
L 500.552727 66.96 
L 500.890909 103.248 
L 501.229091 85.104 
L 501.567273 218.16 
L 501.905455 181.872 
L 502.243636 230.256 
L 502.581818 175.824 
L 502.92 151.632 
L 503.258182 97.2 
L 503.596364 206.064 
L 503.934545 169.776 
L 504.610909 85.104 
L 505.287273 73.008 
L 505.625455 157.68 
L 505.963636 157.68 
L 506.301818 169.776 
L 506.64 151.632 
L 506.978182 151.632 
L 507.316364 66.96 
L 507.654545 151.632 
L 507.992727 157.68 
L 508.330909 115.344 
L 508.669091 91.152 
L 509.007273 151.632 
L 509.345455 139.536 
L 509.683636 121.392 
L 510.021818 79.056 
L 510.36 157.68 
L 510.698182 79.056 
L 511.036364 175.824 
L 511.374545 97.2 
L 511.712727 66.96 
L 512.050909 163.728 
L 512.389091 79.056 
L 512.727273 115.344 
L 513.065455 79.056 
L 513.403636 79.056 
L 513.741818 109.296 
L 514.08 66.96 
L 514.418182 169.776 
L 514.756364 79.056 
L 515.094545 66.96 
L 515.432727 66.96 
L 515.770909 169.776 
L 516.109091 181.872 
L 516.447273 91.152 
L 516.785455 85.104 
L 517.461818 85.104 
L 517.8 163.728 
L 518.138182 181.872 
L 518.476364 91.152 
L 518.814545 103.248 
L 519.152727 79.056 
L 519.490909 187.92 
L 519.829091 79.056 
L 520.167273 193.968 
L 520.505455 121.392 
L 520.843636 73.008 
L 521.181818 187.92 
L 521.52 91.152 
L 521.858182 66.96 
L 522.196364 85.104 
L 522.534545 169.776 
L 522.872727 163.728 
L 523.210909 66.96 
L 523.549091 66.96 
L 523.887273 169.776 
L 524.225455 151.632 
L 524.563636 79.056 
L 524.901818 187.92 
L 525.578182 151.632 
L 525.916364 187.92 
L 526.254545 169.776 
L 526.592727 66.96 
L 526.930909 163.728 
L 527.269091 66.96 
L 527.607273 66.96 
L 527.945455 79.056 
L 528.283636 79.056 
L 528.621818 66.96 
L 528.96 79.056 
L 529.298182 151.632 
L 529.636364 187.92 
L 529.974545 181.872 
L 530.312727 163.728 
L 530.650909 109.296 
L 530.989091 200.016 
L 531.327273 145.584 
L 531.665455 157.68 
L 532.003636 224.208 
L 532.341818 157.68 
L 532.68 181.872 
L 533.018182 66.96 
L 533.356364 151.632 
L 533.694545 66.96 
L 534.032727 91.152 
L 534.370909 175.824 
L 534.709091 66.96 
L 535.047273 151.632 
L 535.723636 151.632 
L 536.061818 91.152 
L 536.4 79.056 
L 536.738182 169.776 
L 537.076364 85.104 
L 537.414545 66.96 
L 537.752727 66.96 
L 538.090909 115.344 
L 538.429091 79.056 
L 538.767273 97.2 
L 539.105455 193.968 
L 539.443636 175.824 
L 539.781818 97.2 
L 540.12 79.056 
L 540.458182 103.248 
L 540.796364 169.776 
L 541.134545 79.056 
L 541.472727 163.728 
L 541.810909 79.056 
L 542.149091 91.152 
L 542.487273 109.296 
L 542.825455 66.96 
L 543.163636 66.96 
L 543.501818 193.968 
L 543.84 115.344 
L 544.178182 73.008 
L 544.516364 66.96 
L 544.854545 73.008 
L 545.192727 97.2 
L 545.530909 79.056 
L 545.869091 163.728 
L 546.207273 133.488 
L 546.545455 181.872 
L 546.883636 157.68 
L 547.221818 79.056 
L 547.56 66.96 
L 547.898182 91.152 
L 548.236364 157.68 
L 548.574545 79.056 
L 548.912727 109.296 
L 549.250909 73.008 
L 549.589091 169.776 
L 549.927273 163.728 
L 550.265455 163.728 
L 550.603636 66.96 
L 550.941818 66.96 
L 551.28 169.776 
L 551.618182 115.344 
L 551.956364 103.248 
L 552.294545 151.632 
L 552.632727 145.584 
L 552.970909 66.96 
L 553.309091 181.872 
L 553.647273 169.776 
L 553.985455 79.056 
L 554.323636 151.632 
L 554.661818 163.728 
L 555 91.152 
L 555.338182 73.008 
L 555.676364 79.056 
L 556.352727 66.96 
L 556.690909 79.056 
L 557.029091 151.632 
L 557.367273 79.056 
L 557.705455 145.584 
L 558.043636 157.68 
L 558.381818 175.824 
L 558.72 66.96 
L 559.058182 79.056 
L 559.396364 79.056 
L 559.734545 91.152 
L 560.072727 169.776 
L 560.410909 193.968 
L 560.749091 73.008 
L 561.087273 145.584 
L 561.425455 97.2 
L 561.763636 163.728 
L 562.101818 66.96 
L 562.44 73.008 
L 562.778182 169.776 
L 563.116364 169.776 
L 563.454545 145.584 
L 563.792727 66.96 
L 564.130909 145.584 
L 564.469091 145.584 
L 564.807273 187.92 
L 565.145455 79.056 
L 565.821818 79.056 
L 566.16 66.96 
L 566.498182 97.2 
L 566.836364 97.2 
L 567.174545 212.112 
L 567.512727 85.104 
L 567.850909 79.056 
L 568.189091 97.2 
L 568.527273 121.392 
L 568.865455 66.96 
L 569.203636 79.056 
L 569.541818 66.96 
L 569.88 79.056 
L 570.218182 97.2 
L 570.556364 66.96 
L 570.894545 103.248 
L 571.232727 79.056 
L 571.570909 97.2 
L 571.909091 85.104 
L 572.247273 151.632 
L 572.585455 145.584 
L 572.923636 187.92 
L 573.261818 85.104 
L 573.6 175.824 
L 573.938182 66.96 
L 574.276364 145.584 
L 574.614545 169.776 
L 574.952727 73.008 
L 575.290909 145.584 
L 575.629091 163.728 
L 575.967273 91.152 
L 576.305455 145.584 
L 576.981818 66.96 
L 577.32 79.056 
L 577.658182 145.584 
L 577.996364 66.96 
L 578.334545 103.248 
L 578.672727 66.96 
L 579.010909 163.728 
L 579.349091 163.728 
L 579.687273 66.96 
L 580.025455 151.632 
L 580.363636 85.104 
L 581.04 73.008 
L 581.378182 79.056 
L 581.716364 79.056 
L 582.054545 85.104 
L 582.392727 73.008 
L 582.730909 79.056 
L 583.069091 66.96 
L 583.407273 66.96 
L 583.745455 163.728 
L 584.083636 151.632 
L 584.421818 79.056 
L 584.76 181.872 
L 585.098182 66.96 
L 585.436364 200.016 
L 585.774545 163.728 
L 586.112727 66.96 
L 586.450909 79.056 
L 586.789091 145.584 
L 587.127273 157.68 
L 587.465455 163.728 
L 587.803636 79.056 
L 588.141818 91.152 
L 588.48 66.96 
L 588.818182 66.96 
L 589.156364 193.968 
L 589.494545 151.632 
L 589.832727 79.056 
L 590.509091 193.968 
L 590.847273 163.728 
L 591.185455 97.2 
L 591.523636 187.92 
L 591.861818 109.296 
L 592.2 73.008 
L 592.538182 66.96 
L 592.876364 73.008 
L 593.214545 103.248 
L 593.552727 169.776 
L 593.890909 97.2 
L 594.229091 169.776 
L 594.567273 79.056 
L 595.581818 79.056 
L 595.92 200.016 
L 596.258182 79.056 
L 596.596364 66.96 
L 596.934545 145.584 
L 597.272727 73.008 
L 597.610909 66.96 
L 598.287273 66.96 
L 598.963636 91.152 
L 599.301818 66.96 
L 599.64 175.824 
L 599.978182 79.056 
L 600.316364 145.584 
L 600.654545 66.96 
L 600.992727 193.968 
L 601.330909 163.728 
L 601.669091 66.96 
L 602.007273 169.776 
L 602.345455 151.632 
L 602.683636 91.152 
L 603.021818 163.728 
L 603.36 79.056 
L 603.698182 85.104 
L 604.036364 151.632 
L 604.374545 103.248 
L 604.712727 127.44 
L 605.050909 187.92 
L 605.727273 175.824 
L 606.065455 145.584 
L 606.403636 73.008 
L 606.741818 181.872 
L 607.08 163.728 
L 607.418182 193.968 
L 607.756364 163.728 
L 608.094545 73.008 
L 608.432727 79.056 
L 608.770909 73.008 
L 609.109091 157.68 
L 609.447273 79.056 
L 609.785455 66.96 
L 610.123636 109.296 
L 610.461818 66.96 
L 610.8 187.92 
L 611.138182 66.96 
L 611.476364 163.728 
L 611.814545 97.2 
L 612.152727 66.96 
L 612.490909 169.776 
L 612.829091 73.008 
L 613.167273 151.632 
L 613.505455 66.96 
L 613.843636 79.056 
L 614.181818 66.96 
L 614.52 163.728 
L 614.858182 73.008 
L 615.196364 85.104 
L 615.534545 151.632 
L 615.872727 145.584 
L 616.210909 193.968 
L 616.549091 85.104 
L 616.887273 79.056 
L 617.225455 79.056 
L 617.563636 66.96 
L 617.901818 79.056 
L 618.24 73.008 
L 618.916364 85.104 
L 619.254545 163.728 
L 619.592727 66.96 
L 619.930909 103.248 
L 620.269091 163.728 
L 620.607273 103.248 
L 620.945455 79.056 
L 621.283636 85.104 
L 621.621818 85.104 
L 621.96 66.96 
L 622.298182 169.776 
L 622.298182 169.776 
" clip-path="url(#pd7aa5bc27a)" style="fill: none; stroke: #1f77b4; stroke-opacity: 0.3; stroke-width: 1.5; stroke-linecap: square"/>
   </g>
   <g id="line2d_28">
    <path d="M 149.181818 163.78848 
L 149.52 164.39328 
L 149.858182 164.75616 
L 150.196364 163.90944 
L 150.534545 163.96992 
L 151.210909 163.728 
L 151.549091 164.09088 
L 151.887273 163.96992 
L 152.225455 164.09088 
L 152.563636 164.57472 
L 152.901818 164.57472 
L 153.578182 164.75616 
L 153.916364 164.6352 
L 154.254545 164.69568 
L 154.592727 165.36096 
L 154.930909 165.72384 
L 155.269091 165.66336 
L 155.607273 165.96576 
L 155.945455 165.90528 
L 156.283636 166.02624 
L 156.621818 165.78432 
L 156.96 166.1472 
L 157.636364 165.96576 
L 157.974545 165.96576 
L 158.312727 165.48192 
L 158.989091 165.42144 
L 159.327273 165.72384 
L 159.665455 164.99808 
L 160.341818 165.05856 
L 160.68 165.42144 
L 161.356364 165.72384 
L 161.694545 166.81248 
L 162.032727 167.47776 
L 162.370909 167.0544 
L 162.709091 167.17536 
L 163.385455 168.264 
L 163.723636 169.23168 
L 164.061818 169.11072 
L 164.4 168.8688 
L 165.076364 169.11072 
L 167.781818 168.68736 
L 168.458182 169.11072 
L 168.796364 169.11072 
L 169.134545 168.98976 
L 169.472727 169.11072 
L 169.810909 169.59456 
L 170.149091 171.22752 
L 170.487273 171.46944 
L 170.825455 171.95328 
L 171.163636 171.77184 
L 172.516364 172.92096 
L 172.854545 172.4976 
L 173.192727 172.37664 
L 173.530909 172.37664 
L 173.869091 172.61856 
L 174.207273 172.55808 
L 174.545455 172.92096 
L 174.883636 173.1024 
L 175.221818 172.98144 
L 175.56 173.46528 
L 175.898182 173.46528 
L 176.236364 173.94912 
L 176.574545 173.7072 
L 177.589091 173.7072 
L 177.927273 173.4048 
L 178.265455 173.34432 
L 178.603636 173.1024 
L 179.28 174.312 
L 179.618182 174.67488 
L 180.294545 176.24736 
L 180.632727 175.58208 
L 180.970909 176.36832 
L 181.309091 176.18688 
L 181.647273 177.39648 
L 181.985455 177.15456 
L 182.323636 177.15456 
L 182.661818 177.336 
L 183 177.0336 
L 183.338182 176.36832 
L 183.676364 176.48928 
L 184.014545 176.7312 
L 184.352727 176.61024 
L 184.690909 176.91264 
L 185.029091 176.91264 
L 185.705455 176.67072 
L 186.043636 176.61024 
L 186.72 176.36832 
L 187.058182 176.24736 
L 187.396364 176.4288 
L 187.734545 176.18688 
L 188.072727 176.1264 
L 188.749091 175.5216 
L 189.087273 175.58208 
L 189.425455 175.15872 
L 189.763636 175.09824 
L 190.101818 175.2192 
L 190.44 175.824 
L 190.778182 175.40064 
L 191.116364 175.5216 
L 191.454545 175.88448 
L 191.792727 176.79168 
L 192.130909 176.67072 
L 192.469091 177.0336 
L 192.807273 177.6384 
L 193.145455 177.0336 
L 193.483636 176.91264 
L 193.821818 176.97312 
L 194.16 177.21504 
L 194.498182 176.91264 
L 194.836364 176.79168 
L 195.174545 177.9408 
L 195.512727 176.91264 
L 195.850909 176.54976 
L 196.189091 178.12224 
L 196.527273 178.12224 
L 197.203636 177.21504 
L 197.541818 176.1264 
L 197.88 176.06592 
L 198.218182 176.79168 
L 198.556364 176.61024 
L 199.232727 176.79168 
L 200.585455 178.5456 
L 201.261818 178.60608 
L 201.6 179.02944 
L 201.938182 178.78752 
L 202.276364 179.33184 
L 202.952727 179.39232 
L 203.290909 179.27136 
L 203.629091 179.27136 
L 203.967273 177.57792 
L 204.305455 177.15456 
L 204.981818 178.90848 
L 205.658182 178.848 
L 205.996364 178.5456 
L 206.334545 179.1504 
L 206.672727 179.08992 
L 207.010909 180.0576 
L 207.349091 180.23904 
L 207.687273 180.84384 
L 208.363636 181.08576 
L 209.04 181.38816 
L 209.378182 181.14624 
L 209.716364 181.14624 
L 210.054545 180.78336 
L 210.392727 180.90432 
L 210.730909 181.75104 
L 211.069091 181.75104 
L 211.407273 181.99296 
L 211.745455 182.05344 
L 212.083636 183.20256 
L 212.421818 183.14208 
L 212.76 182.41632 
L 213.098182 181.20672 
L 213.436364 181.02528 
L 213.774545 180.11808 
L 214.112727 180.60192 
L 214.450909 180.6624 
L 214.789091 179.93664 
L 215.465455 179.69472 
L 215.803636 179.99712 
L 216.48 179.87616 
L 217.156364 180.36 
L 217.494545 179.99712 
L 217.832727 180.0576 
L 218.170909 180.60192 
L 218.509091 180.72288 
L 218.847273 180.6624 
L 219.861818 181.20672 
L 220.2 180.78336 
L 220.538182 180.84384 
L 220.876364 181.69056 
L 221.552727 181.44864 
L 221.890909 181.38816 
L 222.229091 181.08576 
L 222.567273 181.20672 
L 222.905455 181.20672 
L 223.243636 182.4768 
L 223.581818 182.4768 
L 223.92 182.29536 
L 224.258182 181.872 
L 224.596364 182.1744 
L 224.934545 182.1744 
L 225.272727 181.872 
L 225.610909 180.90432 
L 225.949091 181.32768 
L 226.287273 181.99296 
L 226.963636 181.93248 
L 227.301818 182.29536 
L 227.64 182.41632 
L 227.978182 182.23488 
L 228.316364 182.23488 
L 228.654545 182.59776 
L 228.992727 181.02528 
L 229.330909 181.14624 
L 229.669091 180.9648 
L 230.007273 179.93664 
L 230.345455 179.81568 
L 230.683636 180.42048 
L 231.021818 180.42048 
L 231.36 182.23488 
L 231.698182 182.29536 
L 232.036364 181.93248 
L 232.374545 182.29536 
L 233.050909 182.23488 
L 233.389091 182.59776 
L 234.065455 182.71872 
L 234.403636 182.53728 
L 234.741818 182.83968 
L 235.08 182.83968 
L 235.418182 182.41632 
L 235.756364 183.384 
L 236.094545 182.59776 
L 236.432727 183.56544 
L 236.770909 183.6864 
L 237.109091 184.04928 
L 237.447273 183.50496 
L 237.785455 184.10976 
L 238.123636 184.95648 
L 238.461818 183.32352 
L 238.8 182.7792 
L 239.138182 182.96064 
L 239.476364 182.35584 
L 239.814545 182.29536 
L 240.152727 181.63008 
L 240.490909 181.69056 
L 240.829091 181.08576 
L 241.167273 181.14624 
L 241.505455 180.11808 
L 241.843636 179.93664 
L 242.181818 179.51328 
L 243.196364 179.1504 
L 243.872727 180.0576 
L 244.210909 180.17856 
L 244.549091 179.57376 
L 244.887273 179.81568 
L 245.225455 179.57376 
L 245.563636 179.51328 
L 245.901818 178.42464 
L 246.24 179.02944 
L 246.916364 178.96896 
L 247.254545 178.848 
L 247.592727 179.63424 
L 247.930909 178.36416 
L 248.269091 178.30368 
L 248.945455 178.5456 
L 249.283636 177.45696 
L 249.621818 177.27552 
L 249.96 178.06176 
L 250.298182 178.5456 
L 250.636364 178.30368 
L 251.312727 178.30368 
L 251.650909 178.06176 
L 251.989091 178.36416 
L 252.327273 178.30368 
L 253.341818 178.90848 
L 253.68 178.60608 
L 254.018182 178.90848 
L 254.356364 178.848 
L 254.694545 178.5456 
L 255.032727 178.66656 
L 255.709091 179.1504 
L 256.047273 179.1504 
L 256.385455 179.99712 
L 256.723636 179.93664 
L 257.061818 179.08992 
L 257.4 179.21088 
L 257.738182 179.81568 
L 258.076364 179.81568 
L 258.414545 179.33184 
L 258.752727 179.4528 
L 259.429091 179.51328 
L 260.105455 178.66656 
L 260.443636 178.00128 
L 260.781818 178.42464 
L 261.12 178.12224 
L 261.458182 177.15456 
L 262.134545 177.09408 
L 262.472727 176.85216 
L 262.810909 177.336 
L 263.149091 177.336 
L 263.487273 177.6384 
L 263.825455 177.6384 
L 264.163636 178.2432 
L 264.501818 177.75936 
L 264.84 177.51744 
L 265.178182 175.94496 
L 265.854545 175.2192 
L 266.192727 175.88448 
L 266.530909 175.76352 
L 266.869091 175.824 
L 267.207273 175.03776 
L 267.545455 174.6144 
L 267.883636 173.94912 
L 268.56 173.34432 
L 269.236364 174.43296 
L 269.574545 173.7072 
L 269.912727 174.79584 
L 270.250909 173.76768 
L 270.927273 174.67488 
L 271.265455 174.79584 
L 271.941818 173.46528 
L 272.28 173.58624 
L 272.618182 173.34432 
L 272.956364 173.34432 
L 273.294545 173.82816 
L 273.632727 173.88864 
L 273.970909 173.58624 
L 274.309091 173.82816 
L 274.647273 173.4048 
L 274.985455 173.64672 
L 275.323636 175.09824 
L 275.661818 174.79584 
L 276 174.79584 
L 276.676364 174.55392 
L 277.690909 174.19104 
L 278.029091 174.67488 
L 278.367273 174.43296 
L 278.705455 175.2192 
L 279.043636 175.34016 
L 279.72 175.34016 
L 280.396364 174.79584 
L 281.072727 175.46112 
L 281.410909 175.03776 
L 281.749091 174.85632 
L 282.087273 175.27968 
L 282.425455 175.27968 
L 282.763636 175.15872 
L 283.101818 175.46112 
L 283.44 176.97312 
L 283.778182 176.24736 
L 284.116364 177.27552 
L 285.130909 177.21504 
L 285.469091 177.75936 
L 285.807273 177.21504 
L 286.483636 177.336 
L 286.821818 177.69888 
L 287.16 177.21504 
L 288.850909 176.85216 
L 289.527273 176.4288 
L 289.865455 177.336 
L 290.203636 176.67072 
L 290.541818 177.39648 
L 290.88 177.15456 
L 291.218182 177.336 
L 291.556364 176.97312 
L 291.894545 176.79168 
L 292.232727 177.21504 
L 292.570909 177.0336 
L 293.247273 177.09408 
L 293.585455 176.85216 
L 293.923636 176.30784 
L 294.261818 176.54976 
L 294.6 176.30784 
L 295.276364 177.45696 
L 295.952727 177.45696 
L 296.290909 177.57792 
L 296.629091 178.42464 
L 297.305455 177.9408 
L 297.981818 176.97312 
L 298.32 178.12224 
L 298.658182 178.06176 
L 298.996364 177.81984 
L 299.334545 178.00128 
L 299.672727 178.78752 
L 300.010909 178.2432 
L 300.349091 179.1504 
L 301.025455 179.7552 
L 301.363636 180.60192 
L 302.04 180.60192 
L 302.378182 180.90432 
L 303.054545 180.0576 
L 303.392727 179.87616 
L 303.730909 178.72704 
L 304.069091 179.02944 
L 304.407273 178.36416 
L 304.745455 178.06176 
L 305.421818 177.9408 
L 306.098182 177.57792 
L 306.436364 177.57792 
L 306.774545 176.97312 
L 307.450909 176.48928 
L 307.789091 177.0336 
L 308.127273 176.85216 
L 308.465455 178.06176 
L 308.803636 178.36416 
L 309.141818 177.15456 
L 309.818182 178.30368 
L 310.156364 179.1504 
L 310.832727 179.4528 
L 311.170909 179.08992 
L 311.509091 179.02944 
L 311.847273 178.06176 
L 312.185455 178.48512 
L 312.523636 177.57792 
L 313.538182 179.21088 
L 313.876364 179.27136 
L 314.214545 179.4528 
L 314.890909 178.72704 
L 315.567273 178.96896 
L 315.905455 178.66656 
L 316.243636 178.60608 
L 316.581818 178.36416 
L 316.92 178.48512 
L 317.258182 176.91264 
L 317.596364 177.09408 
L 317.934545 175.76352 
L 318.272727 175.70304 
L 318.610909 175.34016 
L 319.287273 175.46112 
L 320.978182 174.07008 
L 321.316364 175.03776 
L 321.654545 174.73536 
L 321.992727 174.67488 
L 322.330909 174.25152 
L 322.669091 174.25152 
L 323.007273 174.0096 
L 323.345455 174.312 
L 323.683636 173.58624 
L 324.021818 173.28384 
L 324.36 173.16288 
L 324.698182 173.22336 
L 325.036364 173.04192 
L 325.374545 173.76768 
L 325.712727 173.16288 
L 326.050909 172.92096 
L 326.389091 173.58624 
L 326.727273 173.4048 
L 327.065455 172.92096 
L 327.741818 173.16288 
L 328.08 173.16288 
L 328.418182 173.46528 
L 328.756364 172.43712 
L 329.094545 172.55808 
L 329.770909 172.1952 
L 330.109091 172.67904 
L 330.447273 170.6832 
L 330.785455 170.3808 
L 331.123636 170.44128 
L 331.461818 170.92512 
L 331.8 171.04608 
L 332.138182 170.01792 
L 332.476364 170.25984 
L 333.152727 168.74784 
L 333.829091 166.51008 
L 334.167273 166.20768 
L 334.505455 165.72384 
L 335.181818 164.09088 
L 335.52 163.66752 
L 335.858182 163.00224 
L 336.196364 161.97408 
L 336.534545 161.55072 
L 336.872727 161.42976 
L 337.210909 160.82496 
L 337.549091 161.55072 
L 337.887273 161.18784 
L 338.225455 161.36928 
L 338.563636 161.06688 
L 338.901818 161.0064 
L 339.578182 160.15968 
L 339.916364 160.64352 
L 340.592727 160.64352 
L 340.930909 160.76448 
L 341.269091 161.42976 
L 341.945455 160.15968 
L 342.283636 159.13152 
L 342.621818 157.61952 
L 342.96 157.13568 
L 343.298182 156.89376 
L 343.974545 155.68416 
L 344.312727 155.62368 
L 344.989091 155.38176 
L 345.327273 155.32128 
L 345.665455 155.44224 
L 346.003636 154.89792 
L 346.341818 154.83744 
L 347.018182 154.23264 
L 347.356364 152.96256 
L 347.694545 152.2368 
L 348.032727 152.59968 
L 348.370909 152.59968 
L 348.709091 153.08352 
L 349.047273 152.72064 
L 349.385455 152.66016 
L 350.061818 151.26912 
L 350.4 151.81344 
L 351.414545 150.84576 
L 351.752727 149.99904 
L 352.090909 150.36192 
L 352.429091 150.36192 
L 353.105455 150.84576 
L 353.443636 151.87392 
L 353.781818 151.632 
L 354.12 152.11584 
L 354.796364 151.57152 
L 355.134545 150.84576 
L 355.472727 151.39008 
L 356.487273 154.29312 
L 356.825455 154.53504 
L 357.163636 154.47456 
L 357.501818 154.59552 
L 357.84 154.47456 
L 358.178182 153.86976 
L 358.516364 154.53504 
L 358.854545 154.41408 
L 359.192727 154.53504 
L 359.869091 155.44224 
L 360.207273 154.71648 
L 360.545455 154.77696 
L 360.883636 155.62368 
L 361.221818 155.74464 
L 361.56 156.53088 
L 361.898182 156.28896 
L 362.236364 155.80512 
L 362.574545 157.19616 
L 363.589091 163.1232 
L 363.927273 162.39744 
L 364.941818 164.75616 
L 365.28 164.27232 
L 365.618182 164.69568 
L 365.956364 164.6352 
L 366.970909 165.78432 
L 367.309091 167.6592 
L 367.647273 168.20352 
L 367.985455 167.84064 
L 368.323636 168.44544 
L 368.661818 169.59456 
L 369 168.68736 
L 369.338182 168.74784 
L 369.676364 168.98976 
L 370.014545 170.0784 
L 370.352727 170.6832 
L 370.690909 170.19936 
L 371.029091 171.10656 
L 371.367273 170.01792 
L 372.043636 170.19936 
L 372.381818 170.19936 
L 372.72 169.59456 
L 373.058182 169.41312 
L 373.396364 169.95744 
L 373.734545 170.0784 
L 374.072727 170.62272 
L 374.410909 170.92512 
L 375.087273 169.776 
L 375.425455 169.89696 
L 375.763636 171.16704 
L 376.101818 171.10656 
L 376.44 173.04192 
L 376.778182 172.92096 
L 377.116364 172.92096 
L 377.454545 173.22336 
L 378.130909 172.98144 
L 378.469091 173.16288 
L 378.807273 172.37664 
L 379.145455 172.43712 
L 379.821818 172.8 
L 380.16 173.88864 
L 380.498182 173.52576 
L 380.836364 173.7072 
L 381.174545 174.67488 
L 381.512727 175.09824 
L 381.850909 174.73536 
L 382.189091 174.85632 
L 382.527273 174.25152 
L 382.865455 174.19104 
L 383.203636 174.55392 
L 383.541818 175.09824 
L 383.88 177.57792 
L 384.218182 177.09408 
L 384.556364 177.51744 
L 384.894545 177.75936 
L 385.232727 178.5456 
L 385.570909 178.30368 
L 385.909091 178.2432 
L 386.247273 178.848 
L 386.585455 178.66656 
L 386.923636 177.88032 
L 387.261818 176.30784 
L 387.6 176.67072 
L 388.276364 176.4288 
L 388.614545 177.45696 
L 388.952727 177.81984 
L 389.967273 176.61024 
L 390.305455 175.40064 
L 390.643636 175.46112 
L 390.981818 175.15872 
L 391.32 174.07008 
L 391.658182 174.37248 
L 391.996364 174.25152 
L 392.672727 173.16288 
L 393.010909 172.01376 
L 393.349091 171.34848 
L 393.687273 171.22752 
L 394.025455 171.40896 
L 394.363636 170.9856 
L 394.701818 170.80416 
L 395.04 169.95744 
L 395.378182 168.44544 
L 395.716364 168.62688 
L 396.054545 168.264 
L 396.392727 167.53824 
L 396.730909 164.6352 
L 397.407273 161.36928 
L 397.745455 161.85312 
L 398.421818 161.42976 
L 398.76 160.4016 
L 399.098182 160.46208 
L 399.436364 160.4016 
L 399.774545 160.94592 
L 400.112727 160.03872 
L 400.450909 160.704 
L 401.127273 159.37344 
L 401.465455 160.03872 
L 401.803636 159.7968 
L 402.141818 158.52672 
L 402.48 158.04288 
L 403.494545 160.4016 
L 403.832727 159.37344 
L 404.170909 159.13152 
L 404.509091 159.7968 
L 404.847273 159.61536 
L 405.185455 159.61536 
L 405.523636 159.07104 
L 405.861818 158.82912 
L 406.2 158.76864 
L 406.538182 158.5872 
L 407.214545 158.52672 
L 407.552727 157.80096 
L 407.890909 156.59136 
L 408.229091 156.28896 
L 409.243636 156.83328 
L 409.92 156.28896 
L 410.258182 154.29312 
L 410.596364 154.83744 
L 410.934545 154.9584 
L 411.272727 154.29312 
L 411.610909 154.29312 
L 411.949091 154.41408 
L 412.287273 154.41408 
L 412.625455 155.01888 
L 412.963636 154.89792 
L 413.64 153.99072 
L 413.978182 153.68832 
L 414.654545 152.5392 
L 414.992727 151.39008 
L 415.330909 151.9344 
L 415.669091 151.99488 
L 416.007273 151.26912 
L 416.345455 151.51104 
L 416.683636 151.51104 
L 417.021818 150.54336 
L 417.36 150.7248 
L 417.698182 148.9104 
L 418.036364 148.78944 
L 418.712727 146.85408 
L 419.050909 145.8864 
L 419.389091 147.096 
L 420.065455 146.37024 
L 420.403636 146.24928 
L 420.741818 145.94688 
L 421.08 146.73312 
L 421.418182 146.67264 
L 422.094545 146.85408 
L 422.432727 145.46304 
L 422.770909 145.16064 
L 423.109091 145.03968 
L 423.785455 143.89056 
L 424.123636 142.98336 
L 424.8 142.92288 
L 425.138182 143.95104 
L 425.476364 143.64864 
L 425.814545 142.98336 
L 426.152727 142.62048 
L 426.490909 143.22528 
L 426.829091 143.22528 
L 427.167273 144.19296 
L 427.505455 143.28576 
L 427.843636 143.89056 
L 428.181818 144.73728 
L 428.52 144.6768 
L 428.858182 145.82592 
L 429.196364 145.82592 
L 429.534545 144.85824 
L 429.872727 144.43488 
L 430.210909 144.9792 
L 430.549091 146.12832 
L 430.887273 146.37024 
L 431.225455 146.37024 
L 431.563636 145.94688 
L 432.24 144.25344 
L 432.578182 144.3744 
L 432.916364 144.25344 
L 433.592727 141.77376 
L 433.930909 142.49952 
L 434.269091 141.6528 
L 434.607273 142.49952 
L 435.283636 139.65696 
L 435.621818 140.50368 
L 435.96 140.92704 
L 436.298182 140.26176 
L 436.636364 140.1408 
L 436.974545 140.38272 
L 437.312727 139.17312 
L 437.650909 139.47552 
L 437.989091 139.536 
L 438.665455 137.96352 
L 439.003636 138.38688 
L 439.341818 138.024 
L 440.018182 136.39104 
L 440.694545 137.90304 
L 441.032727 138.08448 
L 441.370909 137.7216 
L 441.709091 138.56832 
L 442.047273 138.08448 
L 442.385455 137.23776 
L 443.061818 136.93536 
L 443.4 137.05632 
L 443.738182 136.512 
L 444.076364 137.35872 
L 444.414545 136.512 
L 444.752727 136.93536 
L 445.090909 136.63296 
L 445.429091 135.78624 
L 446.105455 135 
L 446.443636 135.36288 
L 447.12 134.75808 
L 447.458182 135 
L 447.796364 134.15328 
L 448.472727 135.18144 
L 448.810909 135.3024 
L 449.149091 134.21376 
L 449.487273 134.33472 
L 449.825455 134.6976 
L 450.501818 133.42752 
L 450.84 134.93952 
L 451.516364 133.66944 
L 451.854545 134.0928 
L 452.192727 133.97184 
L 452.530909 134.27424 
L 452.869091 134.81856 
L 453.207273 133.60896 
L 453.545455 133.72992 
L 453.883636 132.94368 
L 454.221818 133.00416 
L 454.56 133.488 
L 454.898182 132.82272 
L 455.574545 130.70592 
L 455.912727 129.98016 
L 456.250909 130.40352 
L 456.589091 129.31488 
L 456.927273 128.952 
L 457.265455 128.952 
L 457.603636 129.31488 
L 457.941818 129.49632 
L 458.28 128.89152 
L 458.956364 129.07296 
L 459.294545 128.58912 
L 459.632727 129.5568 
L 459.970909 128.77056 
L 460.309091 128.77056 
L 460.647273 129.31488 
L 460.985455 129.13344 
L 461.323636 129.67776 
L 461.661818 128.22624 
L 462 127.80288 
L 462.338182 127.07712 
L 462.676364 125.80704 
L 463.014545 125.68608 
L 463.352727 125.98848 
L 463.690909 125.98848 
L 464.029091 124.65792 
L 464.367273 124.23456 
L 464.705455 123.14592 
L 465.043636 122.904 
L 465.381818 123.02496 
L 466.058182 124.35552 
L 467.072727 124.96032 
L 467.749091 124.23456 
L 468.425455 124.96032 
L 468.763636 124.89984 
L 469.101818 125.50464 
L 469.778182 124.35552 
L 470.116364 124.23456 
L 470.454545 124.59744 
L 470.792727 123.32736 
L 471.130909 124.1136 
L 471.469091 123.69024 
L 471.807273 122.96448 
L 472.145455 123.02496 
L 472.483636 123.87168 
L 472.821818 123.99264 
L 473.16 124.23456 
L 473.836364 125.98848 
L 474.174545 126.41184 
L 474.512727 126.2304 
L 474.850909 125.38368 
L 475.189091 125.0208 
L 475.527273 124.83936 
L 475.865455 125.26272 
L 476.203636 125.50464 
L 476.88 125.6256 
L 477.218182 124.65792 
L 477.556364 125.3232 
L 477.894545 125.26272 
L 478.232727 126.10944 
L 478.570909 125.50464 
L 478.909091 125.44416 
L 479.247273 125.98848 
L 479.923636 126.47232 
L 480.261818 125.56512 
L 480.6 125.68608 
L 480.938182 125.38368 
L 481.276364 125.86752 
L 481.614545 125.26272 
L 481.952727 125.3232 
L 482.290909 125.56512 
L 482.629091 125.3232 
L 482.967273 125.26272 
L 483.305455 125.44416 
L 483.981818 127.01664 
L 484.32 126.89568 
L 484.658182 125.74656 
L 484.996364 126.29088 
L 485.334545 127.62144 
L 485.672727 127.07712 
L 486.010909 127.80288 
L 486.349091 128.952 
L 486.687273 128.89152 
L 487.025455 129.8592 
L 487.363636 129.2544 
L 487.701818 128.952 
L 488.04 129.2544 
L 488.716364 129.07296 
L 489.054545 130.04064 
L 489.392727 130.04064 
L 489.730909 129.8592 
L 490.069091 130.22208 
L 490.407273 130.34304 
L 491.083636 129.61728 
L 491.421818 129.79872 
L 491.76 129.5568 
L 492.098182 130.34304 
L 492.436364 129.5568 
L 492.774545 129.19392 
L 493.112727 129.01248 
L 493.450909 129.07296 
L 493.789091 129.01248 
L 494.127273 129.37536 
L 494.465455 128.28672 
L 494.803636 129.07296 
L 495.141818 128.89152 
L 495.48 129.73824 
L 495.818182 128.89152 
L 496.156364 129.01248 
L 496.494545 129.01248 
L 496.832727 130.52448 
L 497.170909 130.22208 
L 497.509091 131.12928 
L 497.847273 130.94784 
L 498.185455 130.22208 
L 498.523636 131.0688 
L 498.861818 130.88736 
L 499.538182 129.49632 
L 499.876364 129.49632 
L 500.552727 127.7424 
L 500.890909 127.50048 
L 501.229091 127.86336 
L 501.567273 127.25856 
L 501.905455 128.28672 
L 502.243636 128.16576 
L 502.581818 129.79872 
L 502.92 130.10112 
L 503.258182 129.91968 
L 503.596364 130.22208 
L 503.934545 131.49216 
L 504.272727 131.3712 
L 504.610909 131.79456 
L 504.949091 131.18976 
L 505.287273 131.31072 
L 505.625455 131.12928 
L 505.963636 131.79456 
L 506.301818 131.6736 
L 506.64 131.73408 
L 506.978182 132.33888 
L 507.316364 132.33888 
L 507.654545 131.3712 
L 507.992727 131.00832 
L 508.330909 131.12928 
L 509.007273 131.61312 
L 509.345455 131.6736 
L 509.683636 131.61312 
L 510.021818 131.91552 
L 510.36 131.18976 
L 511.036364 130.88736 
L 511.374545 131.18976 
L 511.712727 130.70592 
L 512.050909 129.73824 
L 512.389091 129.91968 
L 513.065455 129.8592 
L 513.741818 128.52864 
L 514.08 128.89152 
L 514.418182 127.98432 
L 514.756364 128.89152 
L 515.094545 127.7424 
L 515.432727 127.56096 
L 515.770909 126.71424 
L 516.109091 126.65376 
L 516.447273 127.68192 
L 516.785455 127.62144 
L 517.8 124.1136 
L 518.138182 125.08128 
L 518.476364 125.6256 
L 518.814545 124.89984 
L 519.490909 123.08544 
L 519.829091 123.44832 
L 520.167273 122.11776 
L 520.505455 122.42016 
L 520.843636 121.9968 
L 521.181818 121.87584 
L 521.52 123.02496 
L 522.196364 121.02912 
L 522.534545 120.96864 
L 522.872727 121.02912 
L 523.210909 121.87584 
L 523.549091 121.87584 
L 523.887273 120.66624 
L 524.563636 122.2992 
L 524.901818 121.93632 
L 525.24 122.17824 
L 525.578182 123.2064 
L 525.916364 123.08544 
L 526.254545 124.17408 
L 526.592727 124.416 
L 527.269091 124.23456 
L 527.607273 124.23456 
L 527.945455 123.08544 
L 528.283636 122.96448 
L 528.621818 121.51296 
L 529.298182 119.88 
L 530.312727 122.6016 
L 530.650909 122.05728 
L 531.327273 122.84352 
L 532.341818 125.0208 
L 532.68 125.3232 
L 533.018182 126.29088 
L 533.356364 126.10944 
L 533.694545 126.16992 
L 534.370909 126.04896 
L 534.709091 127.1376 
L 535.047273 126.77472 
L 535.385455 127.44 
L 535.723636 126.77472 
L 536.061818 126.47232 
L 536.738182 124.1136 
L 537.076364 124.29504 
L 537.414545 124.17408 
L 538.090909 121.75488 
L 538.767273 121.63392 
L 539.105455 121.81536 
L 539.443636 123.02496 
L 539.781818 123.2064 
L 540.12 122.6016 
L 540.458182 121.6944 
L 540.796364 121.21056 
L 541.810909 121.63392 
L 542.149091 120.84768 
L 542.487273 120.60576 
L 542.825455 120.7872 
L 543.501818 119.21472 
L 543.84 119.94048 
L 544.178182 120.30336 
L 544.516364 119.45664 
L 544.854545 119.33568 
L 545.192727 118.30752 
L 545.530909 118.30752 
L 545.869091 118.42848 
L 546.207273 118.42848 
L 546.883636 119.63808 
L 547.221818 120.42432 
L 547.56 120.42432 
L 547.898182 120.00096 
L 548.236364 120.24288 
L 548.574545 120.12192 
L 548.912727 120.12192 
L 549.250909 120.54528 
L 549.927273 120.60576 
L 550.265455 120.42432 
L 550.603636 121.15008 
L 551.28 120.7872 
L 551.618182 121.63392 
L 551.956364 121.15008 
L 552.294545 120.36384 
L 552.970909 121.392 
L 553.647273 121.21056 
L 553.985455 122.11776 
L 554.323636 120.96864 
L 554.661818 121.27104 
L 555 122.17824 
L 555.338182 121.21056 
L 555.676364 121.02912 
L 556.014545 121.15008 
L 556.352727 121.02912 
L 557.029091 119.15424 
L 557.367273 120.00096 
L 557.705455 120.12192 
L 558.043636 119.88 
L 558.381818 119.94048 
L 558.72 120.90816 
L 559.396364 118.79136 
L 560.072727 117.09792 
L 560.410909 117.09792 
L 560.749091 118.368 
L 561.087273 117.4608 
L 561.425455 118.24704 
L 561.763636 118.54944 
L 562.101818 119.39616 
L 562.44 119.2752 
L 562.778182 119.33568 
L 563.116364 120.24288 
L 563.454545 120.42432 
L 563.792727 120.00096 
L 564.130909 118.85184 
L 564.469091 118.6704 
L 564.807273 119.03328 
L 565.145455 118.91232 
L 565.821818 117.4608 
L 566.16 116.00928 
L 566.836364 114.25536 
L 567.174545 114.55776 
L 567.512727 115.16256 
L 567.850909 115.344 
L 568.189091 115.22304 
L 568.527273 114.4368 
L 568.865455 114.98112 
L 569.88 112.56192 
L 570.218182 112.44096 
L 570.556364 112.6224 
L 570.894545 111.59424 
L 571.909091 112.19904 
L 572.247273 111.89664 
L 572.923636 113.10624 
L 573.261818 113.04576 
L 573.6 112.13856 
L 573.938182 112.9248 
L 574.276364 112.80384 
L 574.614545 113.2272 
L 575.290909 113.16672 
L 575.629091 112.98528 
L 575.967273 113.832 
L 576.305455 113.832 
L 576.981818 114.55776 
L 577.32 114.55776 
L 577.658182 113.40864 
L 577.996364 113.71104 
L 578.334545 113.65056 
L 578.672727 114.01344 
L 579.010909 113.95296 
L 579.687273 115.46496 
L 580.025455 114.49728 
L 580.363636 114.67872 
L 581.04 112.9248 
L 581.378182 112.86432 
L 581.716364 112.98528 
L 582.054545 112.86432 
L 582.392727 112.13856 
L 582.730909 112.07808 
L 583.069091 111.77568 
L 583.407273 111.7152 
L 583.745455 110.68704 
L 584.083636 110.68704 
L 584.421818 110.56608 
L 584.76 110.68704 
L 585.098182 111.83616 
L 585.436364 110.808 
L 586.112727 112.25952 
L 586.789091 110.74752 
L 587.127273 111.53376 
L 587.465455 111.29184 
L 588.141818 111.23136 
L 588.48 110.62656 
L 588.818182 109.65888 
L 589.156364 109.41696 
L 589.494545 110.62656 
L 589.832727 111.35232 
L 590.170909 111.4128 
L 590.509091 112.19904 
L 590.847273 113.34816 
L 591.523636 113.65056 
L 591.861818 114.07392 
L 592.2 113.59008 
L 592.538182 112.56192 
L 593.214545 112.50144 
L 593.552727 112.74336 
L 593.890909 113.5296 
L 594.229091 112.80384 
L 594.567273 112.56192 
L 594.905455 112.6224 
L 595.243636 111.95712 
L 595.581818 111.77568 
L 595.92 110.92896 
L 596.258182 112.25952 
L 596.596364 112.32 
L 596.934545 111.29184 
L 597.272727 111.04992 
L 597.610909 110.32416 
L 597.949091 110.32416 
L 598.625455 108.75168 
L 598.963636 107.66304 
L 599.301818 107.784 
L 599.64 107.66304 
L 599.978182 108.63072 
L 600.316364 108.75168 
L 600.654545 109.23552 
L 601.330909 108.75168 
L 601.669091 109.53792 
L 602.007273 109.41696 
L 602.345455 110.14272 
L 603.021818 110.68704 
L 603.36 111.53376 
L 604.036364 111.7152 
L 604.712727 112.6224 
L 605.050909 112.86432 
L 605.727273 114.79968 
L 606.065455 115.70688 
L 606.403636 115.6464 
L 606.741818 114.92064 
L 607.08 114.86016 
L 607.418182 115.6464 
L 607.756364 115.82784 
L 608.094545 116.79552 
L 608.770909 115.16256 
L 609.109091 115.16256 
L 609.447273 115.28352 
L 609.785455 114.4368 
L 610.461818 113.832 
L 610.8 113.46912 
L 611.138182 114.67872 
L 611.476364 114.55776 
L 612.152727 115.0416 
L 612.490909 114.67872 
L 612.829091 115.70688 
L 613.167273 114.79968 
L 613.505455 114.67872 
L 613.843636 114.67872 
L 614.181818 113.95296 
L 614.52 113.77152 
L 614.858182 114.61824 
L 615.534545 114.67872 
L 616.210909 116.00928 
L 616.549091 117.21888 
L 617.225455 117.40032 
L 617.563636 117.52128 
L 618.24 115.82784 
L 618.578182 115.76736 
L 618.916364 114.7392 
L 619.254545 114.92064 
L 619.592727 114.55776 
L 619.930909 113.59008 
L 620.269091 113.95296 
L 620.607273 114.79968 
L 620.945455 114.37632 
L 621.621818 112.80384 
L 621.96 112.86432 
L 622.298182 112.6224 
L 622.636364 113.65056 
L 622.636364 113.65056 
" clip-path="url(#pd7aa5bc27a)" style="fill: none; stroke: #0000ff; stroke-width: 2; stroke-linecap: square"/>
   </g>
   <g id="patch_3">
    <path d="M 90 384.48 
L 90 51.84 
" style="fill: none; stroke: #000000; stroke-width: 0.8; stroke-linejoin: miter; stroke-linecap: square"/>
   </g>
   <g id="patch_4">
    <path d="M 648 384.48 
L 648 51.84 
" style="fill: none; stroke: #000000; stroke-width: 0.8; stroke-linejoin: miter; stroke-linecap: square"/>
   </g>
   <g id="patch_5">
    <path d="M 90 384.48 
L 648 384.48 
" style="fill: none; stroke: #000000; stroke-width: 0.8; stroke-linejoin: miter; stroke-linecap: square"/>
   </g>
   <g id="patch_6">
    <path d="M 90 51.84 
L 648 51.84 
" style="fill: none; stroke: #000000; stroke-width: 0.8; stroke-linejoin: miter; stroke-linecap: square"/>
   </g>
   <g id="text_16">
    <!-- DQN Performance on Frozen Lake -->
    <g transform="translate(268.4175 45.84) scale(0.12 -0.12)">
     <defs>
      <path id="DejaVuSans-44" d="M 1259 4147 
L 1259 519 
L 2022 519 
Q 2988 519 3436 956 
Q 3884 1394 3884 2338 
Q 3884 3275 3436 3711 
Q 2988 4147 2022 4147 
L 1259 4147 
z
M 628 4666 
L 1925 4666 
Q 3281 4666 3915 4102 
Q 4550 3538 4550 2338 
Q 4550 1131 3912 565 
Q 3275 0 1925 0 
L 628 0 
L 628 4666 
z
" transform="scale(0.015625)"/>
      <path id="DejaVuSans-51" d="M 2522 4238 
Q 1834 4238 1429 3725 
Q 1025 3213 1025 2328 
Q 1025 1447 1429 934 
Q 1834 422 2522 422 
Q 3209 422 3611 934 
Q 4013 1447 4013 2328 
Q 4013 3213 3611 3725 
Q 3209 4238 2522 4238 
z
M 3406 84 
L 4238 -825 
L 3475 -825 
L 2784 -78 
Q 2681 -84 2626 -87 
Q 2572 -91 2522 -91 
Q 1538 -91 948 567 
Q 359 1225 359 2328 
Q 359 3434 948 4092 
Q 1538 4750 2522 4750 
Q 3503 4750 4090 4092 
Q 4678 3434 4678 2328 
Q 4678 1516 4351 937 
Q 4025 359 3406 84 
z
" transform="scale(0.015625)"/>
      <path id="DejaVuSans-4e" d="M 628 4666 
L 1478 4666 
L 3547 763 
L 3547 4666 
L 4159 4666 
L 4159 0 
L 3309 0 
L 1241 3903 
L 1241 0 
L 628 0 
L 628 4666 
z
" transform="scale(0.015625)"/>
      <path id="DejaVuSans-50" d="M 1259 4147 
L 1259 2394 
L 2053 2394 
Q 2494 2394 2734 2622 
Q 2975 2850 2975 3272 
Q 2975 3691 2734 3919 
Q 2494 4147 2053 4147 
L 1259 4147 
z
M 628 4666 
L 2053 4666 
Q 2838 4666 3239 4311 
Q 3641 3956 3641 3272 
Q 3641 2581 3239 2228 
Q 2838 1875 2053 1875 
L 1259 1875 
L 1259 0 
L 628 0 
L 628 4666 
z
" transform="scale(0.015625)"/>
      <path id="DejaVuSans-66" d="M 2375 4863 
L 2375 4384 
L 1825 4384 
Q 1516 4384 1395 4259 
Q 1275 4134 1275 3809 
L 1275 3500 
L 2222 3500 
L 2222 3053 
L 1275 3053 
L 1275 0 
L 697 0 
L 697 3053 
L 147 3053 
L 147 3500 
L 697 3500 
L 697 3744 
Q 697 4328 969 4595 
Q 1241 4863 1831 4863 
L 2375 4863 
z
" transform="scale(0.015625)"/>
      <path id="DejaVuSans-6e" d="M 3513 2113 
L 3513 0 
L 2938 0 
L 2938 2094 
Q 2938 2591 2744 2837 
Q 2550 3084 2163 3084 
Q 1697 3084 1428 2787 
Q 1159 2491 1159 1978 
L 1159 0 
L 581 0 
L 581 3500 
L 1159 3500 
L 1159 2956 
Q 1366 3272 1645 3428 
Q 1925 3584 2291 3584 
Q 2894 3584 3203 3211 
Q 3513 2838 3513 2113 
z
" transform="scale(0.015625)"/>
      <path id="DejaVuSans-63" d="M 3122 3366 
L 3122 2828 
Q 2878 2963 2633 3030 
Q 2388 3097 2138 3097 
Q 1578 3097 1268 2742 
Q 959 2388 959 1747 
Q 959 1106 1268 751 
Q 1578 397 2138 397 
Q 2388 397 2633 464 
Q 2878 531 3122 666 
L 3122 134 
Q 2881 22 2623 -34 
Q 2366 -91 2075 -91 
Q 1284 -91 818 406 
Q 353 903 353 1747 
Q 353 2603 823 3093 
Q 1294 3584 2113 3584 
Q 2378 3584 2631 3529 
Q 2884 3475 3122 3366 
z
" transform="scale(0.015625)"/>
      <path id="DejaVuSans-46" d="M 628 4666 
L 3309 4666 
L 3309 4134 
L 1259 4134 
L 1259 2759 
L 3109 2759 
L 3109 2228 
L 1259 2228 
L 1259 0 
L 628 0 
L 628 4666 
z
" transform="scale(0.015625)"/>
      <path id="DejaVuSans-7a" d="M 353 3500 
L 3084 3500 
L 3084 2975 
L 922 459 
L 3084 459 
L 3084 0 
L 275 0 
L 275 525 
L 2438 3041 
L 353 3041 
L 353 3500 
z
" transform="scale(0.015625)"/>
      <path id="DejaVuSans-4c" d="M 628 4666 
L 1259 4666 
L 1259 531 
L 3531 531 
L 3531 0 
L 628 0 
L 628 4666 
z
" transform="scale(0.015625)"/>
      <path id="DejaVuSans-6b" d="M 581 4863 
L 1159 4863 
L 1159 1991 
L 2875 3500 
L 3609 3500 
L 1753 1863 
L 3688 0 
L 2938 0 
L 1159 1709 
L 1159 0 
L 581 0 
L 581 4863 
z
" transform="scale(0.015625)"/>
     </defs>
     <use xlink:href="#DejaVuSans-44"/>
     <use xlink:href="#DejaVuSans-51" transform="translate(77.001953 0)"/>
     <use xlink:href="#DejaVuSans-4e" transform="translate(155.712891 0)"/>
     <use xlink:href="#DejaVuSans-20" transform="translate(230.517578 0)"/>
     <use xlink:href="#DejaVuSans-50" transform="translate(262.304688 0)"/>
     <use xlink:href="#DejaVuSans-65" transform="translate(318.982422 0)"/>
     <use xlink:href="#DejaVuSans-72" transform="translate(380.505859 0)"/>
     <use xlink:href="#DejaVuSans-66" transform="translate(421.619141 0)"/>
     <use xlink:href="#DejaVuSans-6f" transform="translate(456.824219 0)"/>
     <use xlink:href="#DejaVuSans-72" transform="translate(518.005859 0)"/>
     <use xlink:href="#DejaVuSans-6d" transform="translate(557.369141 0)"/>
     <use xlink:href="#DejaVuSans-61" transform="translate(654.78125 0)"/>
     <use xlink:href="#DejaVuSans-6e" transform="translate(716.060547 0)"/>
     <use xlink:href="#DejaVuSans-63" transform="translate(779.439453 0)"/>
     <use xlink:href="#DejaVuSans-65" transform="translate(834.419922 0)"/>
     <use xlink:href="#DejaVuSans-20" transform="translate(895.943359 0)"/>
     <use xlink:href="#DejaVuSans-6f" transform="translate(927.730469 0)"/>
     <use xlink:href="#DejaVuSans-6e" transform="translate(988.912109 0)"/>
     <use xlink:href="#DejaVuSans-20" transform="translate(1052.291016 0)"/>
     <use xlink:href="#DejaVuSans-46" transform="translate(1084.078125 0)"/>
     <use xlink:href="#DejaVuSans-72" transform="translate(1134.347656 0)"/>
     <use xlink:href="#DejaVuSans-6f" transform="translate(1173.210938 0)"/>
     <use xlink:href="#DejaVuSans-7a" transform="translate(1234.392578 0)"/>
     <use xlink:href="#DejaVuSans-65" transform="translate(1286.882812 0)"/>
     <use xlink:href="#DejaVuSans-6e" transform="translate(1348.40625 0)"/>
     <use xlink:href="#DejaVuSans-20" transform="translate(1411.785156 0)"/>
     <use xlink:href="#DejaVuSans-4c" transform="translate(1443.572266 0)"/>
     <use xlink:href="#DejaVuSans-61" transform="translate(1499.285156 0)"/>
     <use xlink:href="#DejaVuSans-6b" transform="translate(1560.564453 0)"/>
     <use xlink:href="#DejaVuSans-65" transform="translate(1614.849609 0)"/>
    </g>
   </g>
   <g id="legend_1">
    <g id="patch_7">
     <path d="M 97 379.48 
L 279.65625 379.48 
Q 281.65625 379.48 281.65625 377.48 
L 281.65625 349.12375 
Q 281.65625 347.12375 279.65625 347.12375 
L 97 347.12375 
Q 95 347.12375 95 349.12375 
L 95 377.48 
Q 95 379.48 97 379.48 
z
" style="fill: #ffffff; opacity: 0.8; stroke: #cccccc; stroke-linejoin: miter"/>
    </g>
    <g id="line2d_29">
     <path d="M 99 355.222188 
L 109 355.222188 
L 119 355.222188 
" style="fill: none; stroke: #1f77b4; stroke-opacity: 0.3; stroke-width: 1.5; stroke-linecap: square"/>
    </g>
    <g id="text_17">
     <!-- Raw Rewards -->
     <g transform="translate(127 358.722188) scale(0.1 -0.1)">
      <use xlink:href="#DejaVuSans-52"/>
      <use xlink:href="#DejaVuSans-61" transform="translate(67.232422 0)"/>
      <use xlink:href="#DejaVuSans-77" transform="translate(128.511719 0)"/>
      <use xlink:href="#DejaVuSans-20" transform="translate(210.298828 0)"/>
      <use xlink:href="#DejaVuSans-52" transform="translate(242.085938 0)"/>
      <use xlink:href="#DejaVuSans-65" transform="translate(307.068359 0)"/>
      <use xlink:href="#DejaVuSans-77" transform="translate(368.591797 0)"/>
      <use xlink:href="#DejaVuSans-61" transform="translate(450.378906 0)"/>
      <use xlink:href="#DejaVuSans-72" transform="translate(511.658203 0)"/>
      <use xlink:href="#DejaVuSans-64" transform="translate(551.021484 0)"/>
      <use xlink:href="#DejaVuSans-73" transform="translate(614.498047 0)"/>
     </g>
    </g>
    <g id="line2d_30">
     <path d="M 99 369.900312 
L 109 369.900312 
L 119 369.900312 
" style="fill: none; stroke: #0000ff; stroke-width: 2; stroke-linecap: square"/>
    </g>
    <g id="text_18">
     <!-- Smoothed Avg (Window=100) -->
     <g transform="translate(127 373.400312) scale(0.1 -0.1)">
      <defs>
       <path id="DejaVuSans-53" d="M 3425 4513 
L 3425 3897 
Q 3066 4069 2747 4153 
Q 2428 4238 2131 4238 
Q 1616 4238 1336 4038 
Q 1056 3838 1056 3469 
Q 1056 3159 1242 3001 
Q 1428 2844 1947 2747 
L 2328 2669 
Q 3034 2534 3370 2195 
Q 3706 1856 3706 1288 
Q 3706 609 3251 259 
Q 2797 -91 1919 -91 
Q 1588 -91 1214 -16 
Q 841 59 441 206 
L 441 856 
Q 825 641 1194 531 
Q 1563 422 1919 422 
Q 2459 422 2753 634 
Q 3047 847 3047 1241 
Q 3047 1584 2836 1778 
Q 2625 1972 2144 2069 
L 1759 2144 
Q 1053 2284 737 2584 
Q 422 2884 422 3419 
Q 422 4038 858 4394 
Q 1294 4750 2059 4750 
Q 2388 4750 2728 4690 
Q 3069 4631 3425 4513 
z
" transform="scale(0.015625)"/>
       <path id="DejaVuSans-68" d="M 3513 2113 
L 3513 0 
L 2938 0 
L 2938 2094 
Q 2938 2591 2744 2837 
Q 2550 3084 2163 3084 
Q 1697 3084 1428 2787 
Q 1159 2491 1159 1978 
L 1159 0 
L 581 0 
L 581 4863 
L 1159 4863 
L 1159 2956 
Q 1366 3272 1645 3428 
Q 1925 3584 2291 3584 
Q 2894 3584 3203 3211 
Q 3513 2838 3513 2113 
z
" transform="scale(0.015625)"/>
       <path id="DejaVuSans-41" d="M 2188 4044 
L 1331 1722 
L 3047 1722 
L 2188 4044 
z
M 1831 4666 
L 2547 4666 
L 4325 0 
L 3669 0 
L 3244 1197 
L 1141 1197 
L 716 0 
L 50 0 
L 1831 4666 
z
" transform="scale(0.015625)"/>
       <path id="DejaVuSans-67" d="M 2906 1791 
Q 2906 2416 2648 2759 
Q 2391 3103 1925 3103 
Q 1463 3103 1205 2759 
Q 947 2416 947 1791 
Q 947 1169 1205 825 
Q 1463 481 1925 481 
Q 2391 481 2648 825 
Q 2906 1169 2906 1791 
z
M 3481 434 
Q 3481 -459 3084 -895 
Q 2688 -1331 1869 -1331 
Q 1566 -1331 1297 -1286 
Q 1028 -1241 775 -1147 
L 775 -588 
Q 1028 -725 1275 -790 
Q 1522 -856 1778 -856 
Q 2344 -856 2625 -561 
Q 2906 -266 2906 331 
L 2906 616 
Q 2728 306 2450 153 
Q 2172 0 1784 0 
Q 1141 0 747 490 
Q 353 981 353 1791 
Q 353 2603 747 3093 
Q 1141 3584 1784 3584 
Q 2172 3584 2450 3431 
Q 2728 3278 2906 2969 
L 2906 3500 
L 3481 3500 
L 3481 434 
z
" transform="scale(0.015625)"/>
       <path id="DejaVuSans-57" d="M 213 4666 
L 850 4666 
L 1831 722 
L 2809 4666 
L 3519 4666 
L 4500 722 
L 5478 4666 
L 6119 4666 
L 4947 0 
L 4153 0 
L 3169 4050 
L 2175 0 
L 1381 0 
L 213 4666 
z
" transform="scale(0.015625)"/>
      </defs>
      <use xlink:href="#DejaVuSans-53"/>
      <use xlink:href="#DejaVuSans-6d" transform="translate(63.476562 0)"/>
      <use xlink:href="#DejaVuSans-6f" transform="translate(160.888672 0)"/>
      <use xlink:href="#DejaVuSans-6f" transform="translate(222.070312 0)"/>
      <use xlink:href="#DejaVuSans-74" transform="translate(283.251953 0)"/>
      <use xlink:href="#DejaVuSans-68" transform="translate(322.460938 0)"/>
      <use xlink:href="#DejaVuSans-65" transform="translate(385.839844 0)"/>
      <use xlink:href="#DejaVuSans-64" transform="translate(447.363281 0)"/>
      <use xlink:href="#DejaVuSans-20" transform="translate(510.839844 0)"/>
      <use xlink:href="#DejaVuSans-41" transform="translate(542.626953 0)"/>
      <use xlink:href="#DejaVuSans-76" transform="translate(605.160156 0)"/>
      <use xlink:href="#DejaVuSans-67" transform="translate(664.339844 0)"/>
      <use xlink:href="#DejaVuSans-20" transform="translate(727.816406 0)"/>
      <use xlink:href="#DejaVuSans-28" transform="translate(759.603516 0)"/>
      <use xlink:href="#DejaVuSans-57" transform="translate(798.617188 0)"/>
      <use xlink:href="#DejaVuSans-69" transform="translate(895.244141 0)"/>
      <use xlink:href="#DejaVuSans-6e" transform="translate(923.027344 0)"/>
      <use xlink:href="#DejaVuSans-64" transform="translate(986.40625 0)"/>
      <use xlink:href="#DejaVuSans-6f" transform="translate(1049.882812 0)"/>
      <use xlink:href="#DejaVuSans-77" transform="translate(1111.064453 0)"/>
      <use xlink:href="#DejaVuSans-3d" transform="translate(1192.851562 0)"/>
      <use xlink:href="#DejaVuSans-31" transform="translate(1276.640625 0)"/>
      <use xlink:href="#DejaVuSans-30" transform="translate(1340.263672 0)"/>
      <use xlink:href="#DejaVuSans-30" transform="translate(1403.886719 0)"/>
      <use xlink:href="#DejaVuSans-29" transform="translate(1467.509766 0)"/>
     </g>
    </g>
   </g>
  </g>
 </g>
 <defs>
  <clipPath id="pd7aa5bc27a">
   <rect x="90" y="51.84" width="558" height="332.64"/>
  </clipPath>
 </defs>
</svg>
