<?xml version="1.0" encoding="utf-8" standalone="no"?>
<!DOCTYPE svg PUBLIC "-//W3C//DTD SVG 1.1//EN"
  "http://www.w3.org/Graphics/SVG/1.1/DTD/svg11.dtd">
<svg xmlns:xlink="http://www.w3.org/1999/xlink" width="720pt" height="288pt" viewBox="0 0 720 288" xmlns="http://www.w3.org/2000/svg" version="1.1">
 <metadata>
  <rdf:RDF xmlns:dc="http://purl.org/dc/elements/1.1/" xmlns:cc="http://creativecommons.org/ns#" xmlns:rdf="http://www.w3.org/1999/02/22-rdf-syntax-ns#">
   <cc:Work>
    <dc:type rdf:resource="http://purl.org/dc/dcmitype/StillImage"/>
    <dc:date>2025-12-06T01:06:43.022333</dc:date>
    <dc:format>image/svg+xml</dc:format>
    <dc:creator>
     <cc:Agent>
      <dc:title>Matplotlib v3.10.7, https://matplotlib.org/</dc:title>
     </cc:Agent>
    </dc:creator>
   </cc:Work>
  </rdf:RDF>
 </metadata>
 <defs>
  <style type="text/css">*{stroke-linejoin: round; stroke-linecap: butt}</style>
 </defs>
 <g id="figure_1">
  <g id="patch_1">
   <path d="M 0 288 
L 720 288 
L 720 0 
L 0 0 
z
" style="fill: #ffffff"/>
  </g>
  <g id="axes_1">
   <g id="patch_2">
    <path d="M 90 256.32 
L 648 256.32 
L 648 34.56 
L 90 34.56 
z
" style="fill: #ffffff"/>
   </g>
   <g id="matplotlib.axis_1">
    <g id="xtick_1">
     <g id="line2d_1">
      <path d="M 115.363636 256.32 
L 115.363636 34.56 
" clip-path="url(#paee82fa3d3)" style="fill: none; stroke: #b0b0b0; stroke-width: 0.8; stroke-linecap: square"/>
     </g>
     <g id="line2d_2">
      <defs>
       <path id="m5741a2d97a" d="M 0 0 
L 0 3.5 
" style="stroke: #000000; stroke-width: 0.8"/>
      </defs>
      <g>
       <use xlink:href="#m5741a2d97a" x="115.363636" y="256.32" style="stroke: #000000; stroke-width: 0.8"/>
      </g>
     </g>
     <g id="text_1">
      <!-- 0 -->
      <g transform="translate(112.182386 270.918437) scale(0.1 -0.1)">
       <defs>
        <path id="DejaVuSans-30" d="M 2034 4250 
Q 1547 4250 1301 3770 
Q 1056 3291 1056 2328 
Q 1056 1369 1301 889 
Q 1547 409 2034 409 
Q 2525 409 2770 889 
Q 3016 1369 3016 2328 
Q 3016 3291 2770 3770 
Q 2525 4250 2034 4250 
z
M 2034 4750 
Q 2819 4750 3233 4129 
Q 3647 3509 3647 2328 
Q 3647 1150 3233 529 
Q 2819 -91 2034 -91 
Q 1250 -91 836 529 
Q 422 1150 422 2328 
Q 422 3509 836 4129 
Q 1250 4750 2034 4750 
z
" transform="scale(0.015625)"/>
       </defs>
       <use xlink:href="#DejaVuSans-30"/>
      </g>
     </g>
    </g>
    <g id="xtick_2">
     <g id="line2d_3">
      <path d="M 216.828328 256.32 
L 216.828328 34.56 
" clip-path="url(#paee82fa3d3)" style="fill: none; stroke: #b0b0b0; stroke-width: 0.8; stroke-linecap: square"/>
     </g>
     <g id="line2d_4">
      <g>
       <use xlink:href="#m5741a2d97a" x="216.828328" y="256.32" style="stroke: #000000; stroke-width: 0.8"/>
      </g>
     </g>
     <g id="text_2">
      <!-- 2000 -->
      <g transform="translate(204.103328 270.918437) scale(0.1 -0.1)">
       <defs>
        <path id="DejaVuSans-32" d="M 1228 531 
L 3431 531 
L 3431 0 
L 469 0 
L 469 531 
Q 828 903 1448 1529 
Q 2069 2156 2228 2338 
Q 2531 2678 2651 2914 
Q 2772 3150 2772 3378 
Q 2772 3750 2511 3984 
Q 2250 4219 1831 4219 
Q 1534 4219 1204 4116 
Q 875 4013 500 3803 
L 500 4441 
Q 881 4594 1212 4672 
Q 1544 4750 1819 4750 
Q 2544 4750 2975 4387 
Q 3406 4025 3406 3419 
Q 3406 3131 3298 2873 
Q 3191 2616 2906 2266 
Q 2828 2175 2409 1742 
Q 1991 1309 1228 531 
z
" transform="scale(0.015625)"/>
       </defs>
       <use xlink:href="#DejaVuSans-32"/>
       <use xlink:href="#DejaVuSans-30" transform="translate(63.623047 0)"/>
       <use xlink:href="#DejaVuSans-30" transform="translate(127.246094 0)"/>
       <use xlink:href="#DejaVuSans-30" transform="translate(190.869141 0)"/>
      </g>
     </g>
    </g>
    <g id="xtick_3">
     <g id="line2d_5">
      <path d="M 318.29302 256.32 
L 318.29302 34.56 
" clip-path="url(#paee82fa3d3)" style="fill: none; stroke: #b0b0b0; stroke-width: 0.8; stroke-linecap: square"/>
     </g>
     <g id="line2d_6">
      <g>
       <use xlink:href="#m5741a2d97a" x="318.29302" y="256.32" style="stroke: #000000; stroke-width: 0.8"/>
      </g>
     </g>
     <g id="text_3">
      <!-- 4000 -->
      <g transform="translate(305.56802 270.918437) scale(0.1 -0.1)">
       <defs>
        <path id="DejaVuSans-34" d="M 2419 4116 
L 825 1625 
L 2419 1625 
L 2419 4116 
z
M 2253 4666 
L 3047 4666 
L 3047 1625 
L 3713 1625 
L 3713 1100 
L 3047 1100 
L 3047 0 
L 2419 0 
L 2419 1100 
L 313 1100 
L 313 1709 
L 2253 4666 
z
" transform="scale(0.015625)"/>
       </defs>
       <use xlink:href="#DejaVuSans-34"/>
       <use xlink:href="#DejaVuSans-30" transform="translate(63.623047 0)"/>
       <use xlink:href="#DejaVuSans-30" transform="translate(127.246094 0)"/>
       <use xlink:href="#DejaVuSans-30" transform="translate(190.869141 0)"/>
      </g>
     </g>
    </g>
    <g id="xtick_4">
     <g id="line2d_7">
      <path d="M 419.757712 256.32 
L 419.757712 34.56 
" clip-path="url(#paee82fa3d3)" style="fill: none; stroke: #b0b0b0; stroke-width: 0.8; stroke-linecap: square"/>
     </g>
     <g id="line2d_8">
      <g>
       <use xlink:href="#m5741a2d97a" x="419.757712" y="256.32" style="stroke: #000000; stroke-width: 0.8"/>
      </g>
     </g>
     <g id="text_4">
      <!-- 6000 -->
      <g transform="translate(407.032712 270.918437) scale(0.1 -0.1)">
       <defs>
        <path id="DejaVuSans-36" d="M 2113 2584 
Q 1688 2584 1439 2293 
Q 1191 2003 1191 1497 
Q 1191 994 1439 701 
Q 1688 409 2113 409 
Q 2538 409 2786 701 
Q 3034 994 3034 1497 
Q 3034 2003 2786 2293 
Q 2538 2584 2113 2584 
z
M 3366 4563 
L 3366 3988 
Q 3128 4100 2886 4159 
Q 2644 4219 2406 4219 
Q 1781 4219 1451 3797 
Q 1122 3375 1075 2522 
Q 1259 2794 1537 2939 
Q 1816 3084 2150 3084 
Q 2853 3084 3261 2657 
Q 3669 2231 3669 1497 
Q 3669 778 3244 343 
Q 2819 -91 2113 -91 
Q 1303 -91 875 529 
Q 447 1150 447 2328 
Q 447 3434 972 4092 
Q 1497 4750 2381 4750 
Q 2619 4750 2861 4703 
Q 3103 4656 3366 4563 
z
" transform="scale(0.015625)"/>
       </defs>
       <use xlink:href="#DejaVuSans-36"/>
       <use xlink:href="#DejaVuSans-30" transform="translate(63.623047 0)"/>
       <use xlink:href="#DejaVuSans-30" transform="translate(127.246094 0)"/>
       <use xlink:href="#DejaVuSans-30" transform="translate(190.869141 0)"/>
      </g>
     </g>
    </g>
    <g id="xtick_5">
     <g id="line2d_9">
      <path d="M 521.222404 256.32 
L 521.222404 34.56 
" clip-path="url(#paee82fa3d3)" style="fill: none; stroke: #b0b0b0; stroke-width: 0.8; stroke-linecap: square"/>
     </g>
     <g id="line2d_10">
      <g>
       <use xlink:href="#m5741a2d97a" x="521.222404" y="256.32" style="stroke: #000000; stroke-width: 0.8"/>
      </g>
     </g>
     <g id="text_5">
      <!-- 8000 -->
      <g transform="translate(508.497404 270.918437) scale(0.1 -0.1)">
       <defs>
        <path id="DejaVuSans-38" d="M 2034 2216 
Q 1584 2216 1326 1975 
Q 1069 1734 1069 1313 
Q 1069 891 1326 650 
Q 1584 409 2034 409 
Q 2484 409 2743 651 
Q 3003 894 3003 1313 
Q 3003 1734 2745 1975 
Q 2488 2216 2034 2216 
z
M 1403 2484 
Q 997 2584 770 2862 
Q 544 3141 544 3541 
Q 544 4100 942 4425 
Q 1341 4750 2034 4750 
Q 2731 4750 3128 4425 
Q 3525 4100 3525 3541 
Q 3525 3141 3298 2862 
Q 3072 2584 2669 2484 
Q 3125 2378 3379 2068 
Q 3634 1759 3634 1313 
Q 3634 634 3220 271 
Q 2806 -91 2034 -91 
Q 1263 -91 848 271 
Q 434 634 434 1313 
Q 434 1759 690 2068 
Q 947 2378 1403 2484 
z
M 1172 3481 
Q 1172 3119 1398 2916 
Q 1625 2713 2034 2713 
Q 2441 2713 2670 2916 
Q 2900 3119 2900 3481 
Q 2900 3844 2670 4047 
Q 2441 4250 2034 4250 
Q 1625 4250 1398 4047 
Q 1172 3844 1172 3481 
z
" transform="scale(0.015625)"/>
       </defs>
       <use xlink:href="#DejaVuSans-38"/>
       <use xlink:href="#DejaVuSans-30" transform="translate(63.623047 0)"/>
       <use xlink:href="#DejaVuSans-30" transform="translate(127.246094 0)"/>
       <use xlink:href="#DejaVuSans-30" transform="translate(190.869141 0)"/>
      </g>
     </g>
    </g>
    <g id="xtick_6">
     <g id="line2d_11">
      <path d="M 622.687096 256.32 
L 622.687096 34.56 
" clip-path="url(#paee82fa3d3)" style="fill: none; stroke: #b0b0b0; stroke-width: 0.8; stroke-linecap: square"/>
     </g>
     <g id="line2d_12">
      <g>
       <use xlink:href="#m5741a2d97a" x="622.687096" y="256.32" style="stroke: #000000; stroke-width: 0.8"/>
      </g>
     </g>
     <g id="text_6">
      <!-- 10000 -->
      <g transform="translate(606.780846 270.918437) scale(0.1 -0.1)">
       <defs>
        <path id="DejaVuSans-31" d="M 794 531 
L 1825 531 
L 1825 4091 
L 703 3866 
L 703 4441 
L 1819 4666 
L 2450 4666 
L 2450 531 
L 3481 531 
L 3481 0 
L 794 0 
L 794 531 
z
" transform="scale(0.015625)"/>
       </defs>
       <use xlink:href="#DejaVuSans-31"/>
       <use xlink:href="#DejaVuSans-30" transform="translate(63.623047 0)"/>
       <use xlink:href="#DejaVuSans-30" transform="translate(127.246094 0)"/>
       <use xlink:href="#DejaVuSans-30" transform="translate(190.869141 0)"/>
       <use xlink:href="#DejaVuSans-30" transform="translate(254.492188 0)"/>
      </g>
     </g>
    </g>
    <g id="text_7">
     <!-- Iterations -->
     <g transform="translate(335.661406 287.635938) scale(0.14 -0.14)">
      <defs>
       <path id="DejaVuSans-49" d="M 628 4666 
L 1259 4666 
L 1259 0 
L 628 0 
L 628 4666 
z
" transform="scale(0.015625)"/>
       <path id="DejaVuSans-74" d="M 1172 4494 
L 1172 3500 
L 2356 3500 
L 2356 3053 
L 1172 3053 
L 1172 1153 
Q 1172 725 1289 603 
Q 1406 481 1766 481 
L 2356 481 
L 2356 0 
L 1766 0 
Q 1100 0 847 248 
Q 594 497 594 1153 
L 594 3053 
L 172 3053 
L 172 3500 
L 594 3500 
L 594 4494 
L 1172 4494 
z
" transform="scale(0.015625)"/>
       <path id="DejaVuSans-65" d="M 3597 1894 
L 3597 1613 
L 953 1613 
Q 991 1019 1311 708 
Q 1631 397 2203 397 
Q 2534 397 2845 478 
Q 3156 559 3463 722 
L 3463 178 
Q 3153 47 2828 -22 
Q 2503 -91 2169 -91 
Q 1331 -91 842 396 
Q 353 884 353 1716 
Q 353 2575 817 3079 
Q 1281 3584 2069 3584 
Q 2775 3584 3186 3129 
Q 3597 2675 3597 1894 
z
M 3022 2063 
Q 3016 2534 2758 2815 
Q 2500 3097 2075 3097 
Q 1594 3097 1305 2825 
Q 1016 2553 972 2059 
L 3022 2063 
z
" transform="scale(0.015625)"/>
       <path id="DejaVuSans-72" d="M 2631 2963 
Q 2534 3019 2420 3045 
Q 2306 3072 2169 3072 
Q 1681 3072 1420 2755 
Q 1159 2438 1159 1844 
L 1159 0 
L 581 0 
L 581 3500 
L 1159 3500 
L 1159 2956 
Q 1341 3275 1631 3429 
Q 1922 3584 2338 3584 
Q 2397 3584 2469 3576 
Q 2541 3569 2628 3553 
L 2631 2963 
z
" transform="scale(0.015625)"/>
       <path id="DejaVuSans-61" d="M 2194 1759 
Q 1497 1759 1228 1600 
Q 959 1441 959 1056 
Q 959 750 1161 570 
Q 1363 391 1709 391 
Q 2188 391 2477 730 
Q 2766 1069 2766 1631 
L 2766 1759 
L 2194 1759 
z
M 3341 1997 
L 3341 0 
L 2766 0 
L 2766 531 
Q 2569 213 2275 61 
Q 1981 -91 1556 -91 
Q 1019 -91 701 211 
Q 384 513 384 1019 
Q 384 1609 779 1909 
Q 1175 2209 1959 2209 
L 2766 2209 
L 2766 2266 
Q 2766 2663 2505 2880 
Q 2244 3097 1772 3097 
Q 1472 3097 1187 3025 
Q 903 2953 641 2809 
L 641 3341 
Q 956 3463 1253 3523 
Q 1550 3584 1831 3584 
Q 2591 3584 2966 3190 
Q 3341 2797 3341 1997 
z
" transform="scale(0.015625)"/>
       <path id="DejaVuSans-69" d="M 603 3500 
L 1178 3500 
L 1178 0 
L 603 0 
L 603 3500 
z
M 603 4863 
L 1178 4863 
L 1178 4134 
L 603 4134 
L 603 4863 
z
" transform="scale(0.015625)"/>
       <path id="DejaVuSans-6f" d="M 1959 3097 
Q 1497 3097 1228 2736 
Q 959 2375 959 1747 
Q 959 1119 1226 758 
Q 1494 397 1959 397 
Q 2419 397 2687 759 
Q 2956 1122 2956 1747 
Q 2956 2369 2687 2733 
Q 2419 3097 1959 3097 
z
M 1959 3584 
Q 2709 3584 3137 3096 
Q 3566 2609 3566 1747 
Q 3566 888 3137 398 
Q 2709 -91 1959 -91 
Q 1206 -91 779 398 
Q 353 888 353 1747 
Q 353 2609 779 3096 
Q 1206 3584 1959 3584 
z
" transform="scale(0.015625)"/>
       <path id="DejaVuSans-6e" d="M 3513 2113 
L 3513 0 
L 2938 0 
L 2938 2094 
Q 2938 2591 2744 2837 
Q 2550 3084 2163 3084 
Q 1697 3084 1428 2787 
Q 1159 2491 1159 1978 
L 1159 0 
L 581 0 
L 581 3500 
L 1159 3500 
L 1159 2956 
Q 1366 3272 1645 3428 
Q 1925 3584 2291 3584 
Q 2894 3584 3203 3211 
Q 3513 2838 3513 2113 
z
" transform="scale(0.015625)"/>
       <path id="DejaVuSans-73" d="M 2834 3397 
L 2834 2853 
Q 2591 2978 2328 3040 
Q 2066 3103 1784 3103 
Q 1356 3103 1142 2972 
Q 928 2841 928 2578 
Q 928 2378 1081 2264 
Q 1234 2150 1697 2047 
L 1894 2003 
Q 2506 1872 2764 1633 
Q 3022 1394 3022 966 
Q 3022 478 2636 193 
Q 2250 -91 1575 -91 
Q 1294 -91 989 -36 
Q 684 19 347 128 
L 347 722 
Q 666 556 975 473 
Q 1284 391 1588 391 
Q 1994 391 2212 530 
Q 2431 669 2431 922 
Q 2431 1156 2273 1281 
Q 2116 1406 1581 1522 
L 1381 1569 
Q 847 1681 609 1914 
Q 372 2147 372 2553 
Q 372 3047 722 3315 
Q 1072 3584 1716 3584 
Q 2034 3584 2315 3537 
Q 2597 3491 2834 3397 
z
" transform="scale(0.015625)"/>
      </defs>
      <use xlink:href="#DejaVuSans-49"/>
      <use xlink:href="#DejaVuSans-74" transform="translate(29.492188 0)"/>
      <use xlink:href="#DejaVuSans-65" transform="translate(68.701172 0)"/>
      <use xlink:href="#DejaVuSans-72" transform="translate(130.224609 0)"/>
      <use xlink:href="#DejaVuSans-61" transform="translate(171.337891 0)"/>
      <use xlink:href="#DejaVuSans-74" transform="translate(232.617188 0)"/>
      <use xlink:href="#DejaVuSans-69" transform="translate(271.826172 0)"/>
      <use xlink:href="#DejaVuSans-6f" transform="translate(299.609375 0)"/>
      <use xlink:href="#DejaVuSans-6e" transform="translate(360.791016 0)"/>
      <use xlink:href="#DejaVuSans-73" transform="translate(424.169922 0)"/>
     </g>
    </g>
   </g>
   <g id="matplotlib.axis_2">
    <g id="ytick_1">
     <g id="line2d_13">
      <path d="M 90 247.908385 
L 648 247.908385 
" clip-path="url(#paee82fa3d3)" style="fill: none; stroke: #b0b0b0; stroke-width: 0.8; stroke-linecap: square"/>
     </g>
     <g id="line2d_14">
      <defs>
       <path id="m4a4b44dc78" d="M 0 0 
L -3.5 0 
" style="stroke: #000000; stroke-width: 0.8"/>
      </defs>
      <g>
       <use xlink:href="#m4a4b44dc78" x="90" y="247.908385" style="stroke: #000000; stroke-width: 0.8"/>
      </g>
     </g>
     <g id="text_8">
      <!-- −6 -->
      <g transform="translate(68.257812 251.707604) scale(0.1 -0.1)">
       <defs>
        <path id="DejaVuSans-2212" d="M 678 2272 
L 4684 2272 
L 4684 1741 
L 678 1741 
L 678 2272 
z
" transform="scale(0.015625)"/>
       </defs>
       <use xlink:href="#DejaVuSans-2212"/>
       <use xlink:href="#DejaVuSans-36" transform="translate(83.789062 0)"/>
      </g>
     </g>
    </g>
    <g id="ytick_2">
     <g id="line2d_15">
      <path d="M 90 214.030321 
L 648 214.030321 
" clip-path="url(#paee82fa3d3)" style="fill: none; stroke: #b0b0b0; stroke-width: 0.8; stroke-linecap: square"/>
     </g>
     <g id="line2d_16">
      <g>
       <use xlink:href="#m4a4b44dc78" x="90" y="214.030321" style="stroke: #000000; stroke-width: 0.8"/>
      </g>
     </g>
     <g id="text_9">
      <!-- −5 -->
      <g transform="translate(68.257812 217.82954) scale(0.1 -0.1)">
       <defs>
        <path id="DejaVuSans-35" d="M 691 4666 
L 3169 4666 
L 3169 4134 
L 1269 4134 
L 1269 2991 
Q 1406 3038 1543 3061 
Q 1681 3084 1819 3084 
Q 2600 3084 3056 2656 
Q 3513 2228 3513 1497 
Q 3513 744 3044 326 
Q 2575 -91 1722 -91 
Q 1428 -91 1123 -41 
Q 819 9 494 109 
L 494 744 
Q 775 591 1075 516 
Q 1375 441 1709 441 
Q 2250 441 2565 725 
Q 2881 1009 2881 1497 
Q 2881 1984 2565 2268 
Q 2250 2553 1709 2553 
Q 1456 2553 1204 2497 
Q 953 2441 691 2322 
L 691 4666 
z
" transform="scale(0.015625)"/>
       </defs>
       <use xlink:href="#DejaVuSans-2212"/>
       <use xlink:href="#DejaVuSans-35" transform="translate(83.789062 0)"/>
      </g>
     </g>
    </g>
    <g id="ytick_3">
     <g id="line2d_17">
      <path d="M 90 180.152257 
L 648 180.152257 
" clip-path="url(#paee82fa3d3)" style="fill: none; stroke: #b0b0b0; stroke-width: 0.8; stroke-linecap: square"/>
     </g>
     <g id="line2d_18">
      <g>
       <use xlink:href="#m4a4b44dc78" x="90" y="180.152257" style="stroke: #000000; stroke-width: 0.8"/>
      </g>
     </g>
     <g id="text_10">
      <!-- −4 -->
      <g transform="translate(68.257812 183.951475) scale(0.1 -0.1)">
       <use xlink:href="#DejaVuSans-2212"/>
       <use xlink:href="#DejaVuSans-34" transform="translate(83.789062 0)"/>
      </g>
     </g>
    </g>
    <g id="ytick_4">
     <g id="line2d_19">
      <path d="M 90 146.274193 
L 648 146.274193 
" clip-path="url(#paee82fa3d3)" style="fill: none; stroke: #b0b0b0; stroke-width: 0.8; stroke-linecap: square"/>
     </g>
     <g id="line2d_20">
      <g>
       <use xlink:href="#m4a4b44dc78" x="90" y="146.274193" style="stroke: #000000; stroke-width: 0.8"/>
      </g>
     </g>
     <g id="text_11">
      <!-- −3 -->
      <g transform="translate(68.257812 150.073411) scale(0.1 -0.1)">
       <defs>
        <path id="DejaVuSans-33" d="M 2597 2516 
Q 3050 2419 3304 2112 
Q 3559 1806 3559 1356 
Q 3559 666 3084 287 
Q 2609 -91 1734 -91 
Q 1441 -91 1130 -33 
Q 819 25 488 141 
L 488 750 
Q 750 597 1062 519 
Q 1375 441 1716 441 
Q 2309 441 2620 675 
Q 2931 909 2931 1356 
Q 2931 1769 2642 2001 
Q 2353 2234 1838 2234 
L 1294 2234 
L 1294 2753 
L 1863 2753 
Q 2328 2753 2575 2939 
Q 2822 3125 2822 3475 
Q 2822 3834 2567 4026 
Q 2313 4219 1838 4219 
Q 1578 4219 1281 4162 
Q 984 4106 628 3988 
L 628 4550 
Q 988 4650 1302 4700 
Q 1616 4750 1894 4750 
Q 2613 4750 3031 4423 
Q 3450 4097 3450 3541 
Q 3450 3153 3228 2886 
Q 3006 2619 2597 2516 
z
" transform="scale(0.015625)"/>
       </defs>
       <use xlink:href="#DejaVuSans-2212"/>
       <use xlink:href="#DejaVuSans-33" transform="translate(83.789062 0)"/>
      </g>
     </g>
    </g>
    <g id="ytick_5">
     <g id="line2d_21">
      <path d="M 90 112.396128 
L 648 112.396128 
" clip-path="url(#paee82fa3d3)" style="fill: none; stroke: #b0b0b0; stroke-width: 0.8; stroke-linecap: square"/>
     </g>
     <g id="line2d_22">
      <g>
       <use xlink:href="#m4a4b44dc78" x="90" y="112.396128" style="stroke: #000000; stroke-width: 0.8"/>
      </g>
     </g>
     <g id="text_12">
      <!-- −2 -->
      <g transform="translate(68.257812 116.195347) scale(0.1 -0.1)">
       <use xlink:href="#DejaVuSans-2212"/>
       <use xlink:href="#DejaVuSans-32" transform="translate(83.789062 0)"/>
      </g>
     </g>
    </g>
    <g id="ytick_6">
     <g id="line2d_23">
      <path d="M 90 78.518064 
L 648 78.518064 
" clip-path="url(#paee82fa3d3)" style="fill: none; stroke: #b0b0b0; stroke-width: 0.8; stroke-linecap: square"/>
     </g>
     <g id="line2d_24">
      <g>
       <use xlink:href="#m4a4b44dc78" x="90" y="78.518064" style="stroke: #000000; stroke-width: 0.8"/>
      </g>
     </g>
     <g id="text_13">
      <!-- −1 -->
      <g transform="translate(68.257812 82.317283) scale(0.1 -0.1)">
       <use xlink:href="#DejaVuSans-2212"/>
       <use xlink:href="#DejaVuSans-31" transform="translate(83.789062 0)"/>
      </g>
     </g>
    </g>
    <g id="ytick_7">
     <g id="line2d_25">
      <path d="M 90 44.64 
L 648 44.64 
" clip-path="url(#paee82fa3d3)" style="fill: none; stroke: #b0b0b0; stroke-width: 0.8; stroke-linecap: square"/>
     </g>
     <g id="line2d_26">
      <g>
       <use xlink:href="#m4a4b44dc78" x="90" y="44.64" style="stroke: #000000; stroke-width: 0.8"/>
      </g>
     </g>
     <g id="text_14">
      <!-- 0 -->
      <g transform="translate(76.6375 48.439219) scale(0.1 -0.1)">
       <use xlink:href="#DejaVuSans-30"/>
      </g>
     </g>
    </g>
    <g id="text_15">
     <!-- Q-Value$(s_0, a_0)$ -->
     <g transform="translate(61.34625 196.89) rotate(-90) scale(0.14 -0.14)">
      <defs>
       <path id="DejaVuSans-51" d="M 2522 4238 
Q 1834 4238 1429 3725 
Q 1025 3213 1025 2328 
Q 1025 1447 1429 934 
Q 1834 422 2522 422 
Q 3209 422 3611 934 
Q 4013 1447 4013 2328 
Q 4013 3213 3611 3725 
Q 3209 4238 2522 4238 
z
M 3406 84 
L 4238 -825 
L 3475 -825 
L 2784 -78 
Q 2681 -84 2626 -87 
Q 2572 -91 2522 -91 
Q 1538 -91 948 567 
Q 359 1225 359 2328 
Q 359 3434 948 4092 
Q 1538 4750 2522 4750 
Q 3503 4750 4090 4092 
Q 4678 3434 4678 2328 
Q 4678 1516 4351 937 
Q 4025 359 3406 84 
z
" transform="scale(0.015625)"/>
       <path id="DejaVuSans-2d" d="M 313 2009 
L 1997 2009 
L 1997 1497 
L 313 1497 
L 313 2009 
z
" transform="scale(0.015625)"/>
       <path id="DejaVuSans-56" d="M 1831 0 
L 50 4666 
L 709 4666 
L 2188 738 
L 3669 4666 
L 4325 4666 
L 2547 0 
L 1831 0 
z
" transform="scale(0.015625)"/>
       <path id="DejaVuSans-6c" d="M 603 4863 
L 1178 4863 
L 1178 0 
L 603 0 
L 603 4863 
z
" transform="scale(0.015625)"/>
       <path id="DejaVuSans-75" d="M 544 1381 
L 544 3500 
L 1119 3500 
L 1119 1403 
Q 1119 906 1312 657 
Q 1506 409 1894 409 
Q 2359 409 2629 706 
Q 2900 1003 2900 1516 
L 2900 3500 
L 3475 3500 
L 3475 0 
L 2900 0 
L 2900 538 
Q 2691 219 2414 64 
Q 2138 -91 1772 -91 
Q 1169 -91 856 284 
Q 544 659 544 1381 
z
M 1991 3584 
L 1991 3584 
z
" transform="scale(0.015625)"/>
       <path id="DejaVuSans-28" d="M 1984 4856 
Q 1566 4138 1362 3434 
Q 1159 2731 1159 2009 
Q 1159 1288 1364 580 
Q 1569 -128 1984 -844 
L 1484 -844 
Q 1016 -109 783 600 
Q 550 1309 550 2009 
Q 550 2706 781 3412 
Q 1013 4119 1484 4856 
L 1984 4856 
z
" transform="scale(0.015625)"/>
       <path id="DejaVuSans-Oblique-73" d="M 3200 3397 
L 3091 2853 
Q 2863 2978 2609 3040 
Q 2356 3103 2088 3103 
Q 1634 3103 1373 2948 
Q 1113 2794 1113 2528 
Q 1113 2219 1719 2053 
Q 1766 2041 1788 2034 
L 1972 1978 
Q 2547 1819 2739 1644 
Q 2931 1469 2931 1166 
Q 2931 609 2489 259 
Q 2047 -91 1331 -91 
Q 1053 -91 747 -37 
Q 441 16 72 128 
L 184 722 
Q 500 559 806 475 
Q 1113 391 1394 391 
Q 1816 391 2080 572 
Q 2344 753 2344 1031 
Q 2344 1331 1650 1516 
L 1591 1531 
L 1394 1581 
Q 956 1697 753 1886 
Q 550 2075 550 2369 
Q 550 2928 970 3256 
Q 1391 3584 2113 3584 
Q 2397 3584 2667 3537 
Q 2938 3491 3200 3397 
z
" transform="scale(0.015625)"/>
       <path id="DejaVuSans-2c" d="M 750 794 
L 1409 794 
L 1409 256 
L 897 -744 
L 494 -744 
L 750 256 
L 750 794 
z
" transform="scale(0.015625)"/>
       <path id="DejaVuSans-Oblique-61" d="M 3438 1997 
L 3047 0 
L 2472 0 
L 2578 531 
Q 2325 219 2001 64 
Q 1678 -91 1281 -91 
Q 834 -91 548 182 
Q 263 456 263 884 
Q 263 1497 752 1853 
Q 1241 2209 2100 2209 
L 2900 2209 
L 2931 2363 
Q 2938 2388 2941 2417 
Q 2944 2447 2944 2509 
Q 2944 2788 2717 2942 
Q 2491 3097 2081 3097 
Q 1800 3097 1504 3025 
Q 1209 2953 897 2809 
L 997 3341 
Q 1322 3463 1633 3523 
Q 1944 3584 2234 3584 
Q 2853 3584 3176 3315 
Q 3500 3047 3500 2534 
Q 3500 2431 3484 2292 
Q 3469 2153 3438 1997 
z
M 2816 1759 
L 2241 1759 
Q 1534 1759 1195 1570 
Q 856 1381 856 984 
Q 856 709 1029 553 
Q 1203 397 1509 397 
Q 1978 397 2328 733 
Q 2678 1069 2791 1631 
L 2816 1759 
z
" transform="scale(0.015625)"/>
       <path id="DejaVuSans-29" d="M 513 4856 
L 1013 4856 
Q 1481 4119 1714 3412 
Q 1947 2706 1947 2009 
Q 1947 1309 1714 600 
Q 1481 -109 1013 -844 
L 513 -844 
Q 928 -128 1133 580 
Q 1338 1288 1338 2009 
Q 1338 2731 1133 3434 
Q 928 4138 513 4856 
z
" transform="scale(0.015625)"/>
      </defs>
      <use xlink:href="#DejaVuSans-51" transform="translate(0 0.015625)"/>
      <use xlink:href="#DejaVuSans-2d" transform="translate(78.710938 0.015625)"/>
      <use xlink:href="#DejaVuSans-56" transform="translate(114.794922 0.015625)"/>
      <use xlink:href="#DejaVuSans-61" transform="translate(183.203125 0.015625)"/>
      <use xlink:href="#DejaVuSans-6c" transform="translate(244.482422 0.015625)"/>
      <use xlink:href="#DejaVuSans-75" transform="translate(272.265625 0.015625)"/>
      <use xlink:href="#DejaVuSans-65" transform="translate(335.644531 0.015625)"/>
      <use xlink:href="#DejaVuSans-28" transform="translate(397.167969 0.015625)"/>
      <use xlink:href="#DejaVuSans-Oblique-73" transform="translate(436.181641 0.015625)"/>
      <use xlink:href="#DejaVuSans-30" transform="translate(488.28125 -16.390625) scale(0.7)"/>
      <use xlink:href="#DejaVuSans-2c" transform="translate(535.551758 0.015625)"/>
      <use xlink:href="#DejaVuSans-Oblique-61" transform="translate(586.821289 0.015625)"/>
      <use xlink:href="#DejaVuSans-30" transform="translate(648.100586 -16.390625) scale(0.7)"/>
      <use xlink:href="#DejaVuSans-29" transform="translate(695.371094 0.015625)"/>
     </g>
    </g>
   </g>
   <g id="line2d_27">
    <path d="M 115.363636 44.64 
L 115.66803 45.993091 
L 115.718763 45.993091 
L 115.87096 47.004362 
L 116.023157 47.004362 
L 116.175354 47.340778 
L 116.226086 47.340778 
L 116.53048 48.683083 
L 116.682677 48.683083 
L 116.834874 49.686291 
L 116.987071 50.353426 
L 117.037804 50.353426 
L 117.342198 51.683698 
L 117.494395 51.683698 
L 117.748057 53.66915 
L 118.052451 54.986179 
L 118.407577 54.986179 
L 118.559774 55.64272 
L 119.016365 57.930293 
L 119.067098 57.930293 
L 119.320759 58.905788 
L 119.422224 58.905788 
L 119.574421 59.554493 
L 119.828083 61.492839 
L 119.98028 62.77862 
L 120.436871 65.016391 
L 120.487603 65.016391 
L 120.6398 66.288099 
L 120.791997 66.288099 
L 120.994927 68.816298 
L 121.045659 68.816298 
L 121.248588 69.445192 
L 121.299321 69.445192 
L 121.50225 70.072829 
L 121.603715 70.072829 
L 121.755912 70.386176 
L 121.806644 70.386176 
L 122.516897 74.121999 
L 122.567629 74.121999 
L 123.074953 76.587745 
L 123.328615 76.587745 
L 123.531544 77.201104 
L 123.734473 77.201104 
L 124.038868 78.424146 
L 124.0896 78.424146 
L 124.343262 80.552727 
L 124.546191 80.552727 
L 124.698388 81.762382 
L 125.002782 81.762382 
L 125.154979 82.365397 
L 125.307176 82.666453 
L 125.357909 82.666453 
L 125.8145 84.765427 
L 125.915964 84.765427 
L 126.118894 85.958257 
L 126.169626 85.958257 
L 126.372555 87.738575 
L 126.47402 87.738575 
L 126.626217 90.389094 
L 126.67695 90.389094 
L 127.387202 93.886197 
L 127.488667 93.886197 
L 127.640864 94.175731 
L 127.742329 94.175731 
L 127.945258 95.619066 
L 128.097455 95.619066 
L 128.249652 95.906868 
L 128.300385 95.906868 
L 128.554046 96.768547 
L 128.655511 96.768547 
L 128.85844 97.341564 
L 129.162834 97.341564 
L 129.771623 100.189516 
L 129.822355 100.189516 
L 130.025284 100.755695 
L 130.278946 100.755695 
L 130.431143 101.602842 
L 130.532608 101.602842 
L 130.735537 102.728423 
L 130.887734 104.12908 
L 131.090664 104.687384 
L 131.344325 104.687384 
L 131.496522 104.966117 
L 131.597987 104.966117 
L 132.003846 106.632673 
L 132.105311 106.632673 
L 132.358972 108.564386 
L 132.460437 108.564386 
L 132.612634 109.113824 
L 132.714099 109.113824 
L 132.917028 110.209406 
L 133.069225 110.482618 
L 133.17069 110.482618 
L 133.322887 111.572733 
L 133.728746 113.199748 
L 133.880943 113.199748 
L 134.134604 114.817026 
L 134.337534 114.817026 
L 134.591195 115.622031 
L 134.743393 115.622031 
L 134.89559 117.224811 
L 135.098519 117.224811 
L 135.301448 118.553131 
L 135.605842 118.553131 
L 135.758039 119.346939 
L 135.910236 120.138368 
L 136.163898 120.138368 
L 136.41756 121.714118 
L 136.519025 121.714118 
L 136.721954 123.800457 
L 136.874151 123.800457 
L 137.07708 124.837381 
L 137.178545 124.837381 
L 137.330742 125.870164 
L 137.482939 126.642043 
L 137.635136 126.898821 
L 137.787333 126.898821 
L 137.93953 127.155343 
L 137.990263 127.155343 
L 138.243924 127.923371 
L 138.396121 130.213669 
L 138.446854 130.213669 
L 138.599051 130.466876 
L 138.80198 130.466876 
L 138.954177 130.71983 
L 139.309304 130.71983 
L 139.461501 131.224979 
L 139.715162 131.98081 
L 139.765895 131.98081 
L 139.918092 133.985302 
L 139.968824 133.985302 
L 140.171754 134.483923 
L 140.222486 134.483923 
L 140.374683 134.73286 
L 140.628345 134.73286 
L 140.729809 134.981548 
L 140.882006 136.221262 
L 141.1864 137.208577 
L 141.287865 137.208577 
L 141.440062 137.454789 
L 141.592259 137.454789 
L 142.099583 139.415642 
L 142.150315 139.415642 
L 142.353244 139.903408 
L 142.505441 139.903408 
L 142.657638 140.876017 
L 142.708371 140.876017 
L 142.860568 141.118562 
L 142.9113 141.118562 
L 143.11423 143.290578 
L 143.317159 143.290578 
L 143.520088 144.488829 
L 143.621553 144.488829 
L 143.875215 145.204908 
L 144.128877 145.204908 
L 144.281074 145.443124 
L 144.433271 148.987907 
L 144.6362 148.987907 
L 144.788397 150.157729 
L 144.889862 150.157729 
L 145.042059 150.390992 
L 145.092791 150.390992 
L 145.244988 150.856818 
L 145.29572 150.856818 
L 145.346453 151.089382 
L 145.49865 152.017314 
L 145.600115 152.017314 
L 145.752312 152.71083 
L 146.411832 152.71083 
L 146.564029 152.94154 
L 146.614761 152.94154 
L 146.766959 153.172019 
L 146.919156 153.172019 
L 147.325014 154.550061 
L 147.375747 154.550061 
L 147.629408 155.235987 
L 147.730873 155.235987 
L 147.933802 155.692128 
L 148.086 157.055088 
L 148.491858 157.055088 
L 148.644055 158.40989 
L 148.796252 158.634901 
L 149.100646 158.634901 
L 149.303576 159.980248 
L 149.405041 159.980248 
L 149.557238 161.095218 
L 149.810899 161.095218 
L 150.166026 162.204624 
L 150.26749 162.204624 
L 150.419687 164.187623 
L 151.079208 164.187623 
L 151.180673 164.406856 
L 151.33287 165.499737 
L 151.434334 165.499737 
L 151.586531 165.717658 
L 151.738728 167.884917 
L 151.941658 167.884917 
L 152.144587 168.315773 
L 152.550446 168.315773 
L 152.702643 169.389148 
L 152.956305 169.389148 
L 153.108502 170.243991 
L 153.260699 170.670131 
L 153.412896 170.670131 
L 153.565093 170.882881 
L 153.615825 170.882881 
L 154.224613 172.99872 
L 154.275346 172.99872 
L 154.731937 174.467262 
L 154.782669 174.467262 
L 154.985599 174.88496 
L 155.087063 174.88496 
L 155.23926 175.509942 
L 155.289993 175.509942 
L 155.543654 176.960958 
L 155.746584 176.960958 
L 155.949513 177.373671 
L 156.050978 177.373671 
L 156.203175 180.645812 
L 156.355372 180.848586 
L 156.811963 180.848586 
L 156.96416 181.051158 
L 157.471484 181.051158 
L 157.623681 181.253528 
L 157.775878 181.253528 
L 158.029539 182.664459 
L 158.181736 182.664459 
L 158.68906 184.264899 
L 158.841257 184.264899 
L 158.993454 184.464055 
L 159.094919 184.464055 
L 159.145651 184.663011 
L 159.297848 189.766627 
L 159.34858 189.766627 
L 159.500777 190.153741 
L 159.652974 190.153741 
L 159.855904 190.540082 
L 159.906636 190.540082 
L 160.058833 190.92565 
L 160.363227 190.92565 
L 160.515424 191.118145 
L 160.667621 191.118145 
L 160.819818 191.381854 
L 161.580804 191.381854 
L 161.733001 191.573893 
L 161.783733 191.573893 
L 161.93593 191.765739 
L 161.986662 191.765739 
L 162.189592 192.148857 
L 162.291056 192.148857 
L 162.443253 192.340129 
L 162.646183 192.340129 
L 162.79838 193.293623 
L 162.899845 193.293623 
L 163.052042 193.863434 
L 163.102774 193.863434 
L 163.254971 194.052991 
L 163.356436 194.052991 
L 163.508633 196.125651 
L 163.66083 196.021278 
L 163.813027 196.208678 
L 164.066688 196.208678 
L 164.218886 196.395889 
L 164.574012 196.395889 
L 164.776941 196.769752 
L 164.878406 196.769752 
L 165.030603 197.142867 
L 165.1828 201.015829 
L 165.284265 201.015829 
L 165.487194 201.380456 
L 165.588659 201.380456 
L 165.740856 201.562496 
L 165.893053 201.562496 
L 166.197447 202.288838 
L 166.501841 202.288838 
L 166.654038 202.650921 
L 166.755503 202.650921 
L 166.9077 202.83169 
L 167.009165 202.83169 
L 167.161362 203.372916 
L 167.719417 203.372916 
L 167.922347 204.271356 
L 167.973079 204.271356 
L 168.125276 204.450505 
L 168.277473 204.450505 
L 168.42967 206.232174 
L 169.089191 206.232174 
L 169.697979 207.996107 
L 169.850176 207.996107 
L 170.205302 208.871477 
L 170.306767 208.871477 
L 170.864823 210.43615 
L 171.01702 210.43615 
L 171.169217 211.127051 
L 171.372146 211.127051 
L 171.524343 211.815192 
L 171.727273 211.815192 
L 171.87947 212.158231 
L 172.082399 212.500585 
L 172.183864 212.500585 
L 172.336061 214.371333 
L 172.995581 214.371333 
L 173.147778 215.046517 
L 173.299975 215.214891 
L 173.350708 215.214891 
L 173.502905 216.054239 
L 173.705834 216.388805 
L 173.908764 216.388805 
L 174.010228 216.555836 
L 174.162425 217.554526 
L 174.365355 217.554526 
L 174.517552 218.382199 
L 174.872678 218.382199 
L 175.024875 219.534008 
L 175.177072 219.534008 
L 175.329269 219.697895 
L 175.430734 219.697895 
L 175.684396 220.188572 
L 175.836593 221.975174 
L 176.394649 221.975174 
L 176.546846 222.13662 
L 176.749775 222.13662 
L 176.901972 223.9019 
L 177.71369 223.9019 
L 177.815154 224.061418 
L 177.967351 227.997956 
L 178.626872 227.997956 
L 178.779069 228.463758 
L 178.880534 228.463758 
L 179.083463 228.773517 
L 179.337125 228.773517 
L 179.489322 229.082656 
L 179.590786 229.082656 
L 179.742983 229.236994 
L 179.945913 229.236994 
L 180.09811 231.53363 
L 181.264954 231.53363 
L 181.417151 231.837252 
L 181.569348 231.837252 
L 181.721545 233.796055 
L 181.82301 233.796055 
L 181.975207 233.94568 
L 182.533262 233.94568 
L 182.736192 234.244481 
L 183.040586 234.244481 
L 183.192783 235.285586 
L 183.243515 235.285586 
L 183.395712 235.581708 
L 183.547909 235.581708 
L 183.801571 236.024782 
L 184.0045 236.024782 
L 184.156697 236.613481 
L 184.308895 236.613481 
L 184.461092 236.906949 
L 184.562556 236.906949 
L 184.714753 237.34605 
L 184.816218 237.34605 
L 184.968415 239.377855 
L 185.374274 239.377855 
L 185.526471 239.809551 
L 185.678668 239.809551 
L 185.830865 239.953162 
L 186.033794 239.953162 
L 186.236724 240.239954 
L 186.59185 240.239954 
L 186.744047 241.665335 
L 186.946977 241.665335 
L 187.099174 241.80709 
L 187.352835 241.80709 
L 187.505032 241.948704 
L 187.606497 241.948704 
L 187.809426 242.65465 
L 187.910891 242.65465 
L 188.063088 243.776844 
L 188.468947 243.776844 
L 188.621144 245.994466 
L 188.671876 245.994466 
L 188.824073 245.840224 
L 189.027003 245.840224 
L 189.1792 245.977805 
L 189.940185 245.977805 
L 190.092382 246.115247 
L 190.751902 246.039927 
L 190.9041 245.914806 
L 191.614352 245.914806 
L 191.766549 246.189681 
L 199.832992 246.131689 
L 199.985189 246.006477 
L 200.340316 246.006477 
L 200.492513 245.852223 
L 201.710089 245.798428 
L 201.862286 245.699799 
L 202.471074 245.699799 
L 202.623271 245.83752 
L 203.333524 245.820099 
L 203.485721 245.666032 
L 203.739383 245.666032 
L 203.89158 245.803786 
L 205.515015 245.803786 
L 205.667212 245.649735 
L 206.276 245.649735 
L 206.47893 245.342095 
L 208.051632 245.342095 
L 208.203829 245.169473 
L 209.52287 245.169473 
L 209.675068 245.016057 
L 211.399967 245.016057 
L 211.552164 245.292727 
L 215.762949 245.292727 
L 215.915146 245.139187 
L 217.893708 245.139187 
L 218.045905 245.277469 
L 222.358154 245.243032 
L 222.510351 245.089542 
L 223.727927 245.089542 
L 223.880124 244.936205 
L 231.79437 244.936205 
L 231.946567 245.074689 
L 233.367073 245.074689 
L 233.51927 244.921367 
L 237.425661 244.847241 
L 237.577858 244.749563 
L 240.672531 244.749563 
L 240.824728 244.596566 
L 241.687178 244.596566 
L 241.839375 244.443723 
L 243.716472 244.443723 
L 243.868669 244.582699 
L 245.84723 244.582699 
L 245.999427 244.429869 
L 249.550691 244.332609 
L 249.702888 244.180029 
L 270.148024 244.083019 
L 270.300221 243.930689 
L 274.054415 243.833928 
L 274.206612 243.681846 
L 278.06227 243.585334 
L 278.214467 243.433502 
L 281.156943 243.433502 
L 281.30914 243.281821 
L 284.454545 243.281821 
L 284.657475 242.978914 
L 285.925783 242.978914 
L 286.077981 242.827688 
L 291.607806 242.827688 
L 291.760003 242.676613 
L 293.383438 242.676613 
L 293.535635 242.525689 
L 304.646019 242.525689 
L 304.798216 242.374916 
L 309.668521 242.374916 
L 309.820718 242.224294 
L 331.787824 242.224294 
L 331.940021 242.073822 
L 338.585959 242.073822 
L 338.738156 241.923501 
L 340.767449 241.923501 
L 340.919647 241.773331 
L 343.963587 241.773331 
L 344.115784 241.502606 
L 345.637755 241.502606 
L 345.789952 241.352856 
L 381.759185 241.352856 
L 381.911382 241.203256 
L 391.093937 241.203256 
L 391.246134 241.053806 
L 396.268636 241.053806 
L 396.420833 240.904505 
L 415.39473 240.904505 
L 415.546927 240.755353 
L 425.033876 240.755353 
L 425.186073 240.60635 
L 480.890189 240.60635 
L 481.042386 240.457496 
L 500.117748 240.457496 
L 500.269945 240.308792 
L 507.930529 240.308792 
L 508.082726 240.160236 
L 509.300303 240.160236 
L 509.4525 240.011828 
L 539.283119 240.011828 
L 539.435316 239.863569 
L 542.580722 239.863569 
L 542.732919 239.715458 
L 598.234105 239.622912 
L 598.386302 239.475042 
L 619.237296 239.475042 
L 619.389493 239.32732 
L 622.636364 239.32732 
L 622.636364 239.32732 
" clip-path="url(#paee82fa3d3)" style="fill: none; stroke: #0000ff; stroke-width: 2; stroke-linecap: square"/>
   </g>
   <g id="patch_3">
    <path d="M 90 256.32 
L 90 34.56 
" style="fill: none; stroke: #000000; stroke-width: 0.8; stroke-linejoin: miter; stroke-linecap: square"/>
   </g>
   <g id="patch_4">
    <path d="M 648 256.32 
L 648 34.56 
" style="fill: none; stroke: #000000; stroke-width: 0.8; stroke-linejoin: miter; stroke-linecap: square"/>
   </g>
   <g id="patch_5">
    <path d="M 90 256.32 
L 648 256.32 
" style="fill: none; stroke: #000000; stroke-width: 0.8; stroke-linejoin: miter; stroke-linecap: square"/>
   </g>
   <g id="patch_6">
    <path d="M 90 34.56 
L 648 34.56 
" style="fill: none; stroke: #000000; stroke-width: 0.8; stroke-linejoin: miter; stroke-linecap: square"/>
   </g>
   <g id="text_16">
    <!-- Markov_Chain_Monte_Carlo Q-Value Convergence -->
    <g transform="translate(220.141875 28.56) scale(0.12 -0.12)">
     <defs>
      <path id="DejaVuSans-4d" d="M 628 4666 
L 1569 4666 
L 2759 1491 
L 3956 4666 
L 4897 4666 
L 4897 0 
L 4281 0 
L 4281 4097 
L 3078 897 
L 2444 897 
L 1241 4097 
L 1241 0 
L 628 0 
L 628 4666 
z
" transform="scale(0.015625)"/>
      <path id="DejaVuSans-6b" d="M 581 4863 
L 1159 4863 
L 1159 1991 
L 2875 3500 
L 3609 3500 
L 1753 1863 
L 3688 0 
L 2938 0 
L 1159 1709 
L 1159 0 
L 581 0 
L 581 4863 
z
" transform="scale(0.015625)"/>
      <path id="DejaVuSans-76" d="M 191 3500 
L 800 3500 
L 1894 563 
L 2988 3500 
L 3597 3500 
L 2284 0 
L 1503 0 
L 191 3500 
z
" transform="scale(0.015625)"/>
      <path id="DejaVuSans-5f" d="M 3263 -1063 
L 3263 -1509 
L -63 -1509 
L -63 -1063 
L 3263 -1063 
z
" transform="scale(0.015625)"/>
      <path id="DejaVuSans-43" d="M 4122 4306 
L 4122 3641 
Q 3803 3938 3442 4084 
Q 3081 4231 2675 4231 
Q 1875 4231 1450 3742 
Q 1025 3253 1025 2328 
Q 1025 1406 1450 917 
Q 1875 428 2675 428 
Q 3081 428 3442 575 
Q 3803 722 4122 1019 
L 4122 359 
Q 3791 134 3420 21 
Q 3050 -91 2638 -91 
Q 1578 -91 968 557 
Q 359 1206 359 2328 
Q 359 3453 968 4101 
Q 1578 4750 2638 4750 
Q 3056 4750 3426 4639 
Q 3797 4528 4122 4306 
z
" transform="scale(0.015625)"/>
      <path id="DejaVuSans-68" d="M 3513 2113 
L 3513 0 
L 2938 0 
L 2938 2094 
Q 2938 2591 2744 2837 
Q 2550 3084 2163 3084 
Q 1697 3084 1428 2787 
Q 1159 2491 1159 1978 
L 1159 0 
L 581 0 
L 581 4863 
L 1159 4863 
L 1159 2956 
Q 1366 3272 1645 3428 
Q 1925 3584 2291 3584 
Q 2894 3584 3203 3211 
Q 3513 2838 3513 2113 
z
" transform="scale(0.015625)"/>
      <path id="DejaVuSans-20" transform="scale(0.015625)"/>
      <path id="DejaVuSans-67" d="M 2906 1791 
Q 2906 2416 2648 2759 
Q 2391 3103 1925 3103 
Q 1463 3103 1205 2759 
Q 947 2416 947 1791 
Q 947 1169 1205 825 
Q 1463 481 1925 481 
Q 2391 481 2648 825 
Q 2906 1169 2906 1791 
z
M 3481 434 
Q 3481 -459 3084 -895 
Q 2688 -1331 1869 -1331 
Q 1566 -1331 1297 -1286 
Q 1028 -1241 775 -1147 
L 775 -588 
Q 1028 -725 1275 -790 
Q 1522 -856 1778 -856 
Q 2344 -856 2625 -561 
Q 2906 -266 2906 331 
L 2906 616 
Q 2728 306 2450 153 
Q 2172 0 1784 0 
Q 1141 0 747 490 
Q 353 981 353 1791 
Q 353 2603 747 3093 
Q 1141 3584 1784 3584 
Q 2172 3584 2450 3431 
Q 2728 3278 2906 2969 
L 2906 3500 
L 3481 3500 
L 3481 434 
z
" transform="scale(0.015625)"/>
      <path id="DejaVuSans-63" d="M 3122 3366 
L 3122 2828 
Q 2878 2963 2633 3030 
Q 2388 3097 2138 3097 
Q 1578 3097 1268 2742 
Q 959 2388 959 1747 
Q 959 1106 1268 751 
Q 1578 397 2138 397 
Q 2388 397 2633 464 
Q 2878 531 3122 666 
L 3122 134 
Q 2881 22 2623 -34 
Q 2366 -91 2075 -91 
Q 1284 -91 818 406 
Q 353 903 353 1747 
Q 353 2603 823 3093 
Q 1294 3584 2113 3584 
Q 2378 3584 2631 3529 
Q 2884 3475 3122 3366 
z
" transform="scale(0.015625)"/>
     </defs>
     <use xlink:href="#DejaVuSans-4d"/>
     <use xlink:href="#DejaVuSans-61" transform="translate(86.279297 0)"/>
     <use xlink:href="#DejaVuSans-72" transform="translate(147.558594 0)"/>
     <use xlink:href="#DejaVuSans-6b" transform="translate(188.671875 0)"/>
     <use xlink:href="#DejaVuSans-6f" transform="translate(242.957031 0)"/>
     <use xlink:href="#DejaVuSans-76" transform="translate(304.138672 0)"/>
     <use xlink:href="#DejaVuSans-5f" transform="translate(363.318359 0)"/>
     <use xlink:href="#DejaVuSans-43" transform="translate(413.318359 0)"/>
     <use xlink:href="#DejaVuSans-68" transform="translate(483.142578 0)"/>
     <use xlink:href="#DejaVuSans-61" transform="translate(546.521484 0)"/>
     <use xlink:href="#DejaVuSans-69" transform="translate(607.800781 0)"/>
     <use xlink:href="#DejaVuSans-6e" transform="translate(635.583984 0)"/>
     <use xlink:href="#DejaVuSans-5f" transform="translate(698.962891 0)"/>
     <use xlink:href="#DejaVuSans-4d" transform="translate(748.962891 0)"/>
     <use xlink:href="#DejaVuSans-6f" transform="translate(835.242188 0)"/>
     <use xlink:href="#DejaVuSans-6e" transform="translate(896.423828 0)"/>
     <use xlink:href="#DejaVuSans-74" transform="translate(959.802734 0)"/>
     <use xlink:href="#DejaVuSans-65" transform="translate(999.011719 0)"/>
     <use xlink:href="#DejaVuSans-5f" transform="translate(1060.535156 0)"/>
     <use xlink:href="#DejaVuSans-43" transform="translate(1110.535156 0)"/>
     <use xlink:href="#DejaVuSans-61" transform="translate(1180.359375 0)"/>
     <use xlink:href="#DejaVuSans-72" transform="translate(1241.638672 0)"/>
     <use xlink:href="#DejaVuSans-6c" transform="translate(1282.751953 0)"/>
     <use xlink:href="#DejaVuSans-6f" transform="translate(1310.535156 0)"/>
     <use xlink:href="#DejaVuSans-20" transform="translate(1371.716797 0)"/>
     <use xlink:href="#DejaVuSans-51" transform="translate(1403.503906 0)"/>
     <use xlink:href="#DejaVuSans-2d" transform="translate(1484.964844 0)"/>
     <use xlink:href="#DejaVuSans-56" transform="translate(1515.173828 0)"/>
     <use xlink:href="#DejaVuSans-61" transform="translate(1575.832031 0)"/>
     <use xlink:href="#DejaVuSans-6c" transform="translate(1637.111328 0)"/>
     <use xlink:href="#DejaVuSans-75" transform="translate(1664.894531 0)"/>
     <use xlink:href="#DejaVuSans-65" transform="translate(1728.273438 0)"/>
     <use xlink:href="#DejaVuSans-20" transform="translate(1789.796875 0)"/>
     <use xlink:href="#DejaVuSans-43" transform="translate(1821.583984 0)"/>
     <use xlink:href="#DejaVuSans-6f" transform="translate(1891.408203 0)"/>
     <use xlink:href="#DejaVuSans-6e" transform="translate(1952.589844 0)"/>
     <use xlink:href="#DejaVuSans-76" transform="translate(2015.96875 0)"/>
     <use xlink:href="#DejaVuSans-65" transform="translate(2075.148438 0)"/>
     <use xlink:href="#DejaVuSans-72" transform="translate(2136.671875 0)"/>
     <use xlink:href="#DejaVuSans-67" transform="translate(2176.035156 0)"/>
     <use xlink:href="#DejaVuSans-65" transform="translate(2239.511719 0)"/>
     <use xlink:href="#DejaVuSans-6e" transform="translate(2301.035156 0)"/>
     <use xlink:href="#DejaVuSans-63" transform="translate(2364.414062 0)"/>
     <use xlink:href="#DejaVuSans-65" transform="translate(2419.394531 0)"/>
    </g>
   </g>
  </g>
 </g>
 <defs>
  <clipPath id="paee82fa3d3">
   <rect x="90" y="34.56" width="558" height="221.76"/>
  </clipPath>
 </defs>
</svg>
