<?xml version="1.0" encoding="utf-8" standalone="no"?>
<!DOCTYPE svg PUBLIC "-//W3C//DTD SVG 1.1//EN"
  "http://www.w3.org/Graphics/SVG/1.1/DTD/svg11.dtd">
<svg xmlns:xlink="http://www.w3.org/1999/xlink" width="720pt" height="432pt" viewBox="0 0 720 432" xmlns="http://www.w3.org/2000/svg" version="1.1">
 <metadata>
  <rdf:RDF xmlns:dc="http://purl.org/dc/elements/1.1/" xmlns:cc="http://creativecommons.org/ns#" xmlns:rdf="http://www.w3.org/1999/02/22-rdf-syntax-ns#">
   <cc:Work>
    <dc:type rdf:resource="http://purl.org/dc/dcmitype/StillImage"/>
    <dc:date>2025-12-06T01:22:34.180815</dc:date>
    <dc:format>image/svg+xml</dc:format>
    <dc:creator>
     <cc:Agent>
      <dc:title>Matplotlib v3.10.7, https://matplotlib.org/</dc:title>
     </cc:Agent>
    </dc:creator>
   </cc:Work>
  </rdf:RDF>
 </metadata>
 <defs>
  <style type="text/css">*{stroke-linejoin: round; stroke-linecap: butt}</style>
 </defs>
 <g id="figure_1">
  <g id="patch_1">
   <path d="M 0 432 
L 720 432 
L 720 0 
L 0 0 
z
" style="fill: #ffffff"/>
  </g>
  <g id="axes_1">
   <g id="patch_2">
    <path d="M 90 384.48 
L 648 384.48 
L 648 51.84 
L 90 51.84 
z
" style="fill: #ffffff"/>
   </g>
   <g id="matplotlib.axis_1">
    <g id="xtick_1">
     <g id="line2d_1">
      <path d="M 115.363636 384.48 
L 115.363636 51.84 
" clip-path="url(#pfb1da4919f)" style="fill: none; stroke-dasharray: 2.96,1.28; stroke-dashoffset: 0; stroke: #b0b0b0; stroke-opacity: 0.7; stroke-width: 0.8"/>
     </g>
     <g id="line2d_2">
      <defs>
       <path id="m8312b65279" d="M 0 0 
L 0 3.5 
" style="stroke: #000000; stroke-width: 0.8"/>
      </defs>
      <g>
       <use xlink:href="#m8312b65279" x="115.363636" y="384.48" style="stroke: #000000; stroke-width: 0.8"/>
      </g>
     </g>
     <g id="text_1">
      <!-- 0 -->
      <g transform="translate(112.182386 399.078438) scale(0.1 -0.1)">
       <defs>
        <path id="DejaVuSans-30" d="M 2034 4250 
Q 1547 4250 1301 3770 
Q 1056 3291 1056 2328 
Q 1056 1369 1301 889 
Q 1547 409 2034 409 
Q 2525 409 2770 889 
Q 3016 1369 3016 2328 
Q 3016 3291 2770 3770 
Q 2525 4250 2034 4250 
z
M 2034 4750 
Q 2819 4750 3233 4129 
Q 3647 3509 3647 2328 
Q 3647 1150 3233 529 
Q 2819 -91 2034 -91 
Q 1250 -91 836 529 
Q 422 1150 422 2328 
Q 422 3509 836 4129 
Q 1250 4750 2034 4750 
z
" transform="scale(0.015625)"/>
       </defs>
       <use xlink:href="#DejaVuSans-30"/>
      </g>
     </g>
    </g>
    <g id="xtick_2">
     <g id="line2d_3">
      <path d="M 183 384.48 
L 183 51.84 
" clip-path="url(#pfb1da4919f)" style="fill: none; stroke-dasharray: 2.96,1.28; stroke-dashoffset: 0; stroke: #b0b0b0; stroke-opacity: 0.7; stroke-width: 0.8"/>
     </g>
     <g id="line2d_4">
      <g>
       <use xlink:href="#m8312b65279" x="183" y="384.48" style="stroke: #000000; stroke-width: 0.8"/>
      </g>
     </g>
     <g id="text_2">
      <!-- 200 -->
      <g transform="translate(173.45625 399.078438) scale(0.1 -0.1)">
       <defs>
        <path id="DejaVuSans-32" d="M 1228 531 
L 3431 531 
L 3431 0 
L 469 0 
L 469 531 
Q 828 903 1448 1529 
Q 2069 2156 2228 2338 
Q 2531 2678 2651 2914 
Q 2772 3150 2772 3378 
Q 2772 3750 2511 3984 
Q 2250 4219 1831 4219 
Q 1534 4219 1204 4116 
Q 875 4013 500 3803 
L 500 4441 
Q 881 4594 1212 4672 
Q 1544 4750 1819 4750 
Q 2544 4750 2975 4387 
Q 3406 4025 3406 3419 
Q 3406 3131 3298 2873 
Q 3191 2616 2906 2266 
Q 2828 2175 2409 1742 
Q 1991 1309 1228 531 
z
" transform="scale(0.015625)"/>
       </defs>
       <use xlink:href="#DejaVuSans-32"/>
       <use xlink:href="#DejaVuSans-30" transform="translate(63.623047 0)"/>
       <use xlink:href="#DejaVuSans-30" transform="translate(127.246094 0)"/>
      </g>
     </g>
    </g>
    <g id="xtick_3">
     <g id="line2d_5">
      <path d="M 250.636364 384.48 
L 250.636364 51.84 
" clip-path="url(#pfb1da4919f)" style="fill: none; stroke-dasharray: 2.96,1.28; stroke-dashoffset: 0; stroke: #b0b0b0; stroke-opacity: 0.7; stroke-width: 0.8"/>
     </g>
     <g id="line2d_6">
      <g>
       <use xlink:href="#m8312b65279" x="250.636364" y="384.48" style="stroke: #000000; stroke-width: 0.8"/>
      </g>
     </g>
     <g id="text_3">
      <!-- 400 -->
      <g transform="translate(241.092614 399.078438) scale(0.1 -0.1)">
       <defs>
        <path id="DejaVuSans-34" d="M 2419 4116 
L 825 1625 
L 2419 1625 
L 2419 4116 
z
M 2253 4666 
L 3047 4666 
L 3047 1625 
L 3713 1625 
L 3713 1100 
L 3047 1100 
L 3047 0 
L 2419 0 
L 2419 1100 
L 313 1100 
L 313 1709 
L 2253 4666 
z
" transform="scale(0.015625)"/>
       </defs>
       <use xlink:href="#DejaVuSans-34"/>
       <use xlink:href="#DejaVuSans-30" transform="translate(63.623047 0)"/>
       <use xlink:href="#DejaVuSans-30" transform="translate(127.246094 0)"/>
      </g>
     </g>
    </g>
    <g id="xtick_4">
     <g id="line2d_7">
      <path d="M 318.272727 384.48 
L 318.272727 51.84 
" clip-path="url(#pfb1da4919f)" style="fill: none; stroke-dasharray: 2.96,1.28; stroke-dashoffset: 0; stroke: #b0b0b0; stroke-opacity: 0.7; stroke-width: 0.8"/>
     </g>
     <g id="line2d_8">
      <g>
       <use xlink:href="#m8312b65279" x="318.272727" y="384.48" style="stroke: #000000; stroke-width: 0.8"/>
      </g>
     </g>
     <g id="text_4">
      <!-- 600 -->
      <g transform="translate(308.728977 399.078438) scale(0.1 -0.1)">
       <defs>
        <path id="DejaVuSans-36" d="M 2113 2584 
Q 1688 2584 1439 2293 
Q 1191 2003 1191 1497 
Q 1191 994 1439 701 
Q 1688 409 2113 409 
Q 2538 409 2786 701 
Q 3034 994 3034 1497 
Q 3034 2003 2786 2293 
Q 2538 2584 2113 2584 
z
M 3366 4563 
L 3366 3988 
Q 3128 4100 2886 4159 
Q 2644 4219 2406 4219 
Q 1781 4219 1451 3797 
Q 1122 3375 1075 2522 
Q 1259 2794 1537 2939 
Q 1816 3084 2150 3084 
Q 2853 3084 3261 2657 
Q 3669 2231 3669 1497 
Q 3669 778 3244 343 
Q 2819 -91 2113 -91 
Q 1303 -91 875 529 
Q 447 1150 447 2328 
Q 447 3434 972 4092 
Q 1497 4750 2381 4750 
Q 2619 4750 2861 4703 
Q 3103 4656 3366 4563 
z
" transform="scale(0.015625)"/>
       </defs>
       <use xlink:href="#DejaVuSans-36"/>
       <use xlink:href="#DejaVuSans-30" transform="translate(63.623047 0)"/>
       <use xlink:href="#DejaVuSans-30" transform="translate(127.246094 0)"/>
      </g>
     </g>
    </g>
    <g id="xtick_5">
     <g id="line2d_9">
      <path d="M 385.909091 384.48 
L 385.909091 51.84 
" clip-path="url(#pfb1da4919f)" style="fill: none; stroke-dasharray: 2.96,1.28; stroke-dashoffset: 0; stroke: #b0b0b0; stroke-opacity: 0.7; stroke-width: 0.8"/>
     </g>
     <g id="line2d_10">
      <g>
       <use xlink:href="#m8312b65279" x="385.909091" y="384.48" style="stroke: #000000; stroke-width: 0.8"/>
      </g>
     </g>
     <g id="text_5">
      <!-- 800 -->
      <g transform="translate(376.365341 399.078438) scale(0.1 -0.1)">
       <defs>
        <path id="DejaVuSans-38" d="M 2034 2216 
Q 1584 2216 1326 1975 
Q 1069 1734 1069 1313 
Q 1069 891 1326 650 
Q 1584 409 2034 409 
Q 2484 409 2743 651 
Q 3003 894 3003 1313 
Q 3003 1734 2745 1975 
Q 2488 2216 2034 2216 
z
M 1403 2484 
Q 997 2584 770 2862 
Q 544 3141 544 3541 
Q 544 4100 942 4425 
Q 1341 4750 2034 4750 
Q 2731 4750 3128 4425 
Q 3525 4100 3525 3541 
Q 3525 3141 3298 2862 
Q 3072 2584 2669 2484 
Q 3125 2378 3379 2068 
Q 3634 1759 3634 1313 
Q 3634 634 3220 271 
Q 2806 -91 2034 -91 
Q 1263 -91 848 271 
Q 434 634 434 1313 
Q 434 1759 690 2068 
Q 947 2378 1403 2484 
z
M 1172 3481 
Q 1172 3119 1398 2916 
Q 1625 2713 2034 2713 
Q 2441 2713 2670 2916 
Q 2900 3119 2900 3481 
Q 2900 3844 2670 4047 
Q 2441 4250 2034 4250 
Q 1625 4250 1398 4047 
Q 1172 3844 1172 3481 
z
" transform="scale(0.015625)"/>
       </defs>
       <use xlink:href="#DejaVuSans-38"/>
       <use xlink:href="#DejaVuSans-30" transform="translate(63.623047 0)"/>
       <use xlink:href="#DejaVuSans-30" transform="translate(127.246094 0)"/>
      </g>
     </g>
    </g>
    <g id="xtick_6">
     <g id="line2d_11">
      <path d="M 453.545455 384.48 
L 453.545455 51.84 
" clip-path="url(#pfb1da4919f)" style="fill: none; stroke-dasharray: 2.96,1.28; stroke-dashoffset: 0; stroke: #b0b0b0; stroke-opacity: 0.7; stroke-width: 0.8"/>
     </g>
     <g id="line2d_12">
      <g>
       <use xlink:href="#m8312b65279" x="453.545455" y="384.48" style="stroke: #000000; stroke-width: 0.8"/>
      </g>
     </g>
     <g id="text_6">
      <!-- 1000 -->
      <g transform="translate(440.820455 399.078438) scale(0.1 -0.1)">
       <defs>
        <path id="DejaVuSans-31" d="M 794 531 
L 1825 531 
L 1825 4091 
L 703 3866 
L 703 4441 
L 1819 4666 
L 2450 4666 
L 2450 531 
L 3481 531 
L 3481 0 
L 794 0 
L 794 531 
z
" transform="scale(0.015625)"/>
       </defs>
       <use xlink:href="#DejaVuSans-31"/>
       <use xlink:href="#DejaVuSans-30" transform="translate(63.623047 0)"/>
       <use xlink:href="#DejaVuSans-30" transform="translate(127.246094 0)"/>
       <use xlink:href="#DejaVuSans-30" transform="translate(190.869141 0)"/>
      </g>
     </g>
    </g>
    <g id="xtick_7">
     <g id="line2d_13">
      <path d="M 521.181818 384.48 
L 521.181818 51.84 
" clip-path="url(#pfb1da4919f)" style="fill: none; stroke-dasharray: 2.96,1.28; stroke-dashoffset: 0; stroke: #b0b0b0; stroke-opacity: 0.7; stroke-width: 0.8"/>
     </g>
     <g id="line2d_14">
      <g>
       <use xlink:href="#m8312b65279" x="521.181818" y="384.48" style="stroke: #000000; stroke-width: 0.8"/>
      </g>
     </g>
     <g id="text_7">
      <!-- 1200 -->
      <g transform="translate(508.456818 399.078438) scale(0.1 -0.1)">
       <use xlink:href="#DejaVuSans-31"/>
       <use xlink:href="#DejaVuSans-32" transform="translate(63.623047 0)"/>
       <use xlink:href="#DejaVuSans-30" transform="translate(127.246094 0)"/>
       <use xlink:href="#DejaVuSans-30" transform="translate(190.869141 0)"/>
      </g>
     </g>
    </g>
    <g id="xtick_8">
     <g id="line2d_15">
      <path d="M 588.818182 384.48 
L 588.818182 51.84 
" clip-path="url(#pfb1da4919f)" style="fill: none; stroke-dasharray: 2.96,1.28; stroke-dashoffset: 0; stroke: #b0b0b0; stroke-opacity: 0.7; stroke-width: 0.8"/>
     </g>
     <g id="line2d_16">
      <g>
       <use xlink:href="#m8312b65279" x="588.818182" y="384.48" style="stroke: #000000; stroke-width: 0.8"/>
      </g>
     </g>
     <g id="text_8">
      <!-- 1400 -->
      <g transform="translate(576.093182 399.078438) scale(0.1 -0.1)">
       <use xlink:href="#DejaVuSans-31"/>
       <use xlink:href="#DejaVuSans-34" transform="translate(63.623047 0)"/>
       <use xlink:href="#DejaVuSans-30" transform="translate(127.246094 0)"/>
       <use xlink:href="#DejaVuSans-30" transform="translate(190.869141 0)"/>
      </g>
     </g>
    </g>
    <g id="text_9">
     <!-- Episode -->
     <g transform="translate(349.3625 412.756563) scale(0.1 -0.1)">
      <defs>
       <path id="DejaVuSans-45" d="M 628 4666 
L 3578 4666 
L 3578 4134 
L 1259 4134 
L 1259 2753 
L 3481 2753 
L 3481 2222 
L 1259 2222 
L 1259 531 
L 3634 531 
L 3634 0 
L 628 0 
L 628 4666 
z
" transform="scale(0.015625)"/>
       <path id="DejaVuSans-70" d="M 1159 525 
L 1159 -1331 
L 581 -1331 
L 581 3500 
L 1159 3500 
L 1159 2969 
Q 1341 3281 1617 3432 
Q 1894 3584 2278 3584 
Q 2916 3584 3314 3078 
Q 3713 2572 3713 1747 
Q 3713 922 3314 415 
Q 2916 -91 2278 -91 
Q 1894 -91 1617 61 
Q 1341 213 1159 525 
z
M 3116 1747 
Q 3116 2381 2855 2742 
Q 2594 3103 2138 3103 
Q 1681 3103 1420 2742 
Q 1159 2381 1159 1747 
Q 1159 1113 1420 752 
Q 1681 391 2138 391 
Q 2594 391 2855 752 
Q 3116 1113 3116 1747 
z
" transform="scale(0.015625)"/>
       <path id="DejaVuSans-69" d="M 603 3500 
L 1178 3500 
L 1178 0 
L 603 0 
L 603 3500 
z
M 603 4863 
L 1178 4863 
L 1178 4134 
L 603 4134 
L 603 4863 
z
" transform="scale(0.015625)"/>
       <path id="DejaVuSans-73" d="M 2834 3397 
L 2834 2853 
Q 2591 2978 2328 3040 
Q 2066 3103 1784 3103 
Q 1356 3103 1142 2972 
Q 928 2841 928 2578 
Q 928 2378 1081 2264 
Q 1234 2150 1697 2047 
L 1894 2003 
Q 2506 1872 2764 1633 
Q 3022 1394 3022 966 
Q 3022 478 2636 193 
Q 2250 -91 1575 -91 
Q 1294 -91 989 -36 
Q 684 19 347 128 
L 347 722 
Q 666 556 975 473 
Q 1284 391 1588 391 
Q 1994 391 2212 530 
Q 2431 669 2431 922 
Q 2431 1156 2273 1281 
Q 2116 1406 1581 1522 
L 1381 1569 
Q 847 1681 609 1914 
Q 372 2147 372 2553 
Q 372 3047 722 3315 
Q 1072 3584 1716 3584 
Q 2034 3584 2315 3537 
Q 2597 3491 2834 3397 
z
" transform="scale(0.015625)"/>
       <path id="DejaVuSans-6f" d="M 1959 3097 
Q 1497 3097 1228 2736 
Q 959 2375 959 1747 
Q 959 1119 1226 758 
Q 1494 397 1959 397 
Q 2419 397 2687 759 
Q 2956 1122 2956 1747 
Q 2956 2369 2687 2733 
Q 2419 3097 1959 3097 
z
M 1959 3584 
Q 2709 3584 3137 3096 
Q 3566 2609 3566 1747 
Q 3566 888 3137 398 
Q 2709 -91 1959 -91 
Q 1206 -91 779 398 
Q 353 888 353 1747 
Q 353 2609 779 3096 
Q 1206 3584 1959 3584 
z
" transform="scale(0.015625)"/>
       <path id="DejaVuSans-64" d="M 2906 2969 
L 2906 4863 
L 3481 4863 
L 3481 0 
L 2906 0 
L 2906 525 
Q 2725 213 2448 61 
Q 2172 -91 1784 -91 
Q 1150 -91 751 415 
Q 353 922 353 1747 
Q 353 2572 751 3078 
Q 1150 3584 1784 3584 
Q 2172 3584 2448 3432 
Q 2725 3281 2906 2969 
z
M 947 1747 
Q 947 1113 1208 752 
Q 1469 391 1925 391 
Q 2381 391 2643 752 
Q 2906 1113 2906 1747 
Q 2906 2381 2643 2742 
Q 2381 3103 1925 3103 
Q 1469 3103 1208 2742 
Q 947 2381 947 1747 
z
" transform="scale(0.015625)"/>
       <path id="DejaVuSans-65" d="M 3597 1894 
L 3597 1613 
L 953 1613 
Q 991 1019 1311 708 
Q 1631 397 2203 397 
Q 2534 397 2845 478 
Q 3156 559 3463 722 
L 3463 178 
Q 3153 47 2828 -22 
Q 2503 -91 2169 -91 
Q 1331 -91 842 396 
Q 353 884 353 1716 
Q 353 2575 817 3079 
Q 1281 3584 2069 3584 
Q 2775 3584 3186 3129 
Q 3597 2675 3597 1894 
z
M 3022 2063 
Q 3016 2534 2758 2815 
Q 2500 3097 2075 3097 
Q 1594 3097 1305 2825 
Q 1016 2553 972 2059 
L 3022 2063 
z
" transform="scale(0.015625)"/>
      </defs>
      <use xlink:href="#DejaVuSans-45"/>
      <use xlink:href="#DejaVuSans-70" transform="translate(63.183594 0)"/>
      <use xlink:href="#DejaVuSans-69" transform="translate(126.660156 0)"/>
      <use xlink:href="#DejaVuSans-73" transform="translate(154.443359 0)"/>
      <use xlink:href="#DejaVuSans-6f" transform="translate(206.542969 0)"/>
      <use xlink:href="#DejaVuSans-64" transform="translate(267.724609 0)"/>
      <use xlink:href="#DejaVuSans-65" transform="translate(331.201172 0)"/>
     </g>
    </g>
   </g>
   <g id="matplotlib.axis_2">
    <g id="ytick_1">
     <g id="line2d_17">
      <path d="M 90 336.490435 
L 648 336.490435 
" clip-path="url(#pfb1da4919f)" style="fill: none; stroke-dasharray: 2.96,1.28; stroke-dashoffset: 0; stroke: #b0b0b0; stroke-opacity: 0.7; stroke-width: 0.8"/>
     </g>
     <g id="line2d_18">
      <defs>
       <path id="m0b892d7d62" d="M 0 0 
L -3.5 0 
" style="stroke: #000000; stroke-width: 0.8"/>
      </defs>
      <g>
       <use xlink:href="#m0b892d7d62" x="90" y="336.490435" style="stroke: #000000; stroke-width: 0.8"/>
      </g>
     </g>
     <g id="text_10">
      <!-- 0 -->
      <g transform="translate(76.6375 340.289654) scale(0.1 -0.1)">
       <use xlink:href="#DejaVuSans-30"/>
      </g>
     </g>
    </g>
    <g id="ytick_2">
     <g id="line2d_19">
      <path d="M 90 270.751304 
L 648 270.751304 
" clip-path="url(#pfb1da4919f)" style="fill: none; stroke-dasharray: 2.96,1.28; stroke-dashoffset: 0; stroke: #b0b0b0; stroke-opacity: 0.7; stroke-width: 0.8"/>
     </g>
     <g id="line2d_20">
      <g>
       <use xlink:href="#m0b892d7d62" x="90" y="270.751304" style="stroke: #000000; stroke-width: 0.8"/>
      </g>
     </g>
     <g id="text_11">
      <!-- 20 -->
      <g transform="translate(70.275 274.550523) scale(0.1 -0.1)">
       <use xlink:href="#DejaVuSans-32"/>
       <use xlink:href="#DejaVuSans-30" transform="translate(63.623047 0)"/>
      </g>
     </g>
    </g>
    <g id="ytick_3">
     <g id="line2d_21">
      <path d="M 90 205.012174 
L 648 205.012174 
" clip-path="url(#pfb1da4919f)" style="fill: none; stroke-dasharray: 2.96,1.28; stroke-dashoffset: 0; stroke: #b0b0b0; stroke-opacity: 0.7; stroke-width: 0.8"/>
     </g>
     <g id="line2d_22">
      <g>
       <use xlink:href="#m0b892d7d62" x="90" y="205.012174" style="stroke: #000000; stroke-width: 0.8"/>
      </g>
     </g>
     <g id="text_12">
      <!-- 40 -->
      <g transform="translate(70.275 208.811393) scale(0.1 -0.1)">
       <use xlink:href="#DejaVuSans-34"/>
       <use xlink:href="#DejaVuSans-30" transform="translate(63.623047 0)"/>
      </g>
     </g>
    </g>
    <g id="ytick_4">
     <g id="line2d_23">
      <path d="M 90 139.273043 
L 648 139.273043 
" clip-path="url(#pfb1da4919f)" style="fill: none; stroke-dasharray: 2.96,1.28; stroke-dashoffset: 0; stroke: #b0b0b0; stroke-opacity: 0.7; stroke-width: 0.8"/>
     </g>
     <g id="line2d_24">
      <g>
       <use xlink:href="#m0b892d7d62" x="90" y="139.273043" style="stroke: #000000; stroke-width: 0.8"/>
      </g>
     </g>
     <g id="text_13">
      <!-- 60 -->
      <g transform="translate(70.275 143.072262) scale(0.1 -0.1)">
       <use xlink:href="#DejaVuSans-36"/>
       <use xlink:href="#DejaVuSans-30" transform="translate(63.623047 0)"/>
      </g>
     </g>
    </g>
    <g id="ytick_5">
     <g id="line2d_25">
      <path d="M 90 73.533913 
L 648 73.533913 
" clip-path="url(#pfb1da4919f)" style="fill: none; stroke-dasharray: 2.96,1.28; stroke-dashoffset: 0; stroke: #b0b0b0; stroke-opacity: 0.7; stroke-width: 0.8"/>
     </g>
     <g id="line2d_26">
      <g>
       <use xlink:href="#m0b892d7d62" x="90" y="73.533913" style="stroke: #000000; stroke-width: 0.8"/>
      </g>
     </g>
     <g id="text_14">
      <!-- 80 -->
      <g transform="translate(70.275 77.333132) scale(0.1 -0.1)">
       <use xlink:href="#DejaVuSans-38"/>
       <use xlink:href="#DejaVuSans-30" transform="translate(63.623047 0)"/>
      </g>
     </g>
    </g>
    <g id="text_15">
     <!-- Cumulative Reward (Max=82.00) -->
     <g transform="translate(64.195312 301.239687) rotate(-90) scale(0.1 -0.1)">
      <defs>
       <path id="DejaVuSans-43" d="M 4122 4306 
L 4122 3641 
Q 3803 3938 3442 4084 
Q 3081 4231 2675 4231 
Q 1875 4231 1450 3742 
Q 1025 3253 1025 2328 
Q 1025 1406 1450 917 
Q 1875 428 2675 428 
Q 3081 428 3442 575 
Q 3803 722 4122 1019 
L 4122 359 
Q 3791 134 3420 21 
Q 3050 -91 2638 -91 
Q 1578 -91 968 557 
Q 359 1206 359 2328 
Q 359 3453 968 4101 
Q 1578 4750 2638 4750 
Q 3056 4750 3426 4639 
Q 3797 4528 4122 4306 
z
" transform="scale(0.015625)"/>
       <path id="DejaVuSans-75" d="M 544 1381 
L 544 3500 
L 1119 3500 
L 1119 1403 
Q 1119 906 1312 657 
Q 1506 409 1894 409 
Q 2359 409 2629 706 
Q 2900 1003 2900 1516 
L 2900 3500 
L 3475 3500 
L 3475 0 
L 2900 0 
L 2900 538 
Q 2691 219 2414 64 
Q 2138 -91 1772 -91 
Q 1169 -91 856 284 
Q 544 659 544 1381 
z
M 1991 3584 
L 1991 3584 
z
" transform="scale(0.015625)"/>
       <path id="DejaVuSans-6d" d="M 3328 2828 
Q 3544 3216 3844 3400 
Q 4144 3584 4550 3584 
Q 5097 3584 5394 3201 
Q 5691 2819 5691 2113 
L 5691 0 
L 5113 0 
L 5113 2094 
Q 5113 2597 4934 2840 
Q 4756 3084 4391 3084 
Q 3944 3084 3684 2787 
Q 3425 2491 3425 1978 
L 3425 0 
L 2847 0 
L 2847 2094 
Q 2847 2600 2669 2842 
Q 2491 3084 2119 3084 
Q 1678 3084 1418 2786 
Q 1159 2488 1159 1978 
L 1159 0 
L 581 0 
L 581 3500 
L 1159 3500 
L 1159 2956 
Q 1356 3278 1631 3431 
Q 1906 3584 2284 3584 
Q 2666 3584 2933 3390 
Q 3200 3197 3328 2828 
z
" transform="scale(0.015625)"/>
       <path id="DejaVuSans-6c" d="M 603 4863 
L 1178 4863 
L 1178 0 
L 603 0 
L 603 4863 
z
" transform="scale(0.015625)"/>
       <path id="DejaVuSans-61" d="M 2194 1759 
Q 1497 1759 1228 1600 
Q 959 1441 959 1056 
Q 959 750 1161 570 
Q 1363 391 1709 391 
Q 2188 391 2477 730 
Q 2766 1069 2766 1631 
L 2766 1759 
L 2194 1759 
z
M 3341 1997 
L 3341 0 
L 2766 0 
L 2766 531 
Q 2569 213 2275 61 
Q 1981 -91 1556 -91 
Q 1019 -91 701 211 
Q 384 513 384 1019 
Q 384 1609 779 1909 
Q 1175 2209 1959 2209 
L 2766 2209 
L 2766 2266 
Q 2766 2663 2505 2880 
Q 2244 3097 1772 3097 
Q 1472 3097 1187 3025 
Q 903 2953 641 2809 
L 641 3341 
Q 956 3463 1253 3523 
Q 1550 3584 1831 3584 
Q 2591 3584 2966 3190 
Q 3341 2797 3341 1997 
z
" transform="scale(0.015625)"/>
       <path id="DejaVuSans-74" d="M 1172 4494 
L 1172 3500 
L 2356 3500 
L 2356 3053 
L 1172 3053 
L 1172 1153 
Q 1172 725 1289 603 
Q 1406 481 1766 481 
L 2356 481 
L 2356 0 
L 1766 0 
Q 1100 0 847 248 
Q 594 497 594 1153 
L 594 3053 
L 172 3053 
L 172 3500 
L 594 3500 
L 594 4494 
L 1172 4494 
z
" transform="scale(0.015625)"/>
       <path id="DejaVuSans-76" d="M 191 3500 
L 800 3500 
L 1894 563 
L 2988 3500 
L 3597 3500 
L 2284 0 
L 1503 0 
L 191 3500 
z
" transform="scale(0.015625)"/>
       <path id="DejaVuSans-20" transform="scale(0.015625)"/>
       <path id="DejaVuSans-52" d="M 2841 2188 
Q 3044 2119 3236 1894 
Q 3428 1669 3622 1275 
L 4263 0 
L 3584 0 
L 2988 1197 
Q 2756 1666 2539 1819 
Q 2322 1972 1947 1972 
L 1259 1972 
L 1259 0 
L 628 0 
L 628 4666 
L 2053 4666 
Q 2853 4666 3247 4331 
Q 3641 3997 3641 3322 
Q 3641 2881 3436 2590 
Q 3231 2300 2841 2188 
z
M 1259 4147 
L 1259 2491 
L 2053 2491 
Q 2509 2491 2742 2702 
Q 2975 2913 2975 3322 
Q 2975 3731 2742 3939 
Q 2509 4147 2053 4147 
L 1259 4147 
z
" transform="scale(0.015625)"/>
       <path id="DejaVuSans-77" d="M 269 3500 
L 844 3500 
L 1563 769 
L 2278 3500 
L 2956 3500 
L 3675 769 
L 4391 3500 
L 4966 3500 
L 4050 0 
L 3372 0 
L 2619 2869 
L 1863 0 
L 1184 0 
L 269 3500 
z
" transform="scale(0.015625)"/>
       <path id="DejaVuSans-72" d="M 2631 2963 
Q 2534 3019 2420 3045 
Q 2306 3072 2169 3072 
Q 1681 3072 1420 2755 
Q 1159 2438 1159 1844 
L 1159 0 
L 581 0 
L 581 3500 
L 1159 3500 
L 1159 2956 
Q 1341 3275 1631 3429 
Q 1922 3584 2338 3584 
Q 2397 3584 2469 3576 
Q 2541 3569 2628 3553 
L 2631 2963 
z
" transform="scale(0.015625)"/>
       <path id="DejaVuSans-28" d="M 1984 4856 
Q 1566 4138 1362 3434 
Q 1159 2731 1159 2009 
Q 1159 1288 1364 580 
Q 1569 -128 1984 -844 
L 1484 -844 
Q 1016 -109 783 600 
Q 550 1309 550 2009 
Q 550 2706 781 3412 
Q 1013 4119 1484 4856 
L 1984 4856 
z
" transform="scale(0.015625)"/>
       <path id="DejaVuSans-4d" d="M 628 4666 
L 1569 4666 
L 2759 1491 
L 3956 4666 
L 4897 4666 
L 4897 0 
L 4281 0 
L 4281 4097 
L 3078 897 
L 2444 897 
L 1241 4097 
L 1241 0 
L 628 0 
L 628 4666 
z
" transform="scale(0.015625)"/>
       <path id="DejaVuSans-78" d="M 3513 3500 
L 2247 1797 
L 3578 0 
L 2900 0 
L 1881 1375 
L 863 0 
L 184 0 
L 1544 1831 
L 300 3500 
L 978 3500 
L 1906 2253 
L 2834 3500 
L 3513 3500 
z
" transform="scale(0.015625)"/>
       <path id="DejaVuSans-3d" d="M 678 2906 
L 4684 2906 
L 4684 2381 
L 678 2381 
L 678 2906 
z
M 678 1631 
L 4684 1631 
L 4684 1100 
L 678 1100 
L 678 1631 
z
" transform="scale(0.015625)"/>
       <path id="DejaVuSans-2e" d="M 684 794 
L 1344 794 
L 1344 0 
L 684 0 
L 684 794 
z
" transform="scale(0.015625)"/>
       <path id="DejaVuSans-29" d="M 513 4856 
L 1013 4856 
Q 1481 4119 1714 3412 
Q 1947 2706 1947 2009 
Q 1947 1309 1714 600 
Q 1481 -109 1013 -844 
L 513 -844 
Q 928 -128 1133 580 
Q 1338 1288 1338 2009 
Q 1338 2731 1133 3434 
Q 928 4138 513 4856 
z
" transform="scale(0.015625)"/>
      </defs>
      <use xlink:href="#DejaVuSans-43"/>
      <use xlink:href="#DejaVuSans-75" transform="translate(69.824219 0)"/>
      <use xlink:href="#DejaVuSans-6d" transform="translate(133.203125 0)"/>
      <use xlink:href="#DejaVuSans-75" transform="translate(230.615234 0)"/>
      <use xlink:href="#DejaVuSans-6c" transform="translate(293.994141 0)"/>
      <use xlink:href="#DejaVuSans-61" transform="translate(321.777344 0)"/>
      <use xlink:href="#DejaVuSans-74" transform="translate(383.056641 0)"/>
      <use xlink:href="#DejaVuSans-69" transform="translate(422.265625 0)"/>
      <use xlink:href="#DejaVuSans-76" transform="translate(450.048828 0)"/>
      <use xlink:href="#DejaVuSans-65" transform="translate(509.228516 0)"/>
      <use xlink:href="#DejaVuSans-20" transform="translate(570.751953 0)"/>
      <use xlink:href="#DejaVuSans-52" transform="translate(602.539062 0)"/>
      <use xlink:href="#DejaVuSans-65" transform="translate(667.521484 0)"/>
      <use xlink:href="#DejaVuSans-77" transform="translate(729.044922 0)"/>
      <use xlink:href="#DejaVuSans-61" transform="translate(810.832031 0)"/>
      <use xlink:href="#DejaVuSans-72" transform="translate(872.111328 0)"/>
      <use xlink:href="#DejaVuSans-64" transform="translate(911.474609 0)"/>
      <use xlink:href="#DejaVuSans-20" transform="translate(974.951172 0)"/>
      <use xlink:href="#DejaVuSans-28" transform="translate(1006.738281 0)"/>
      <use xlink:href="#DejaVuSans-4d" transform="translate(1045.751953 0)"/>
      <use xlink:href="#DejaVuSans-61" transform="translate(1132.03125 0)"/>
      <use xlink:href="#DejaVuSans-78" transform="translate(1193.310547 0)"/>
      <use xlink:href="#DejaVuSans-3d" transform="translate(1252.490234 0)"/>
      <use xlink:href="#DejaVuSans-38" transform="translate(1336.279297 0)"/>
      <use xlink:href="#DejaVuSans-32" transform="translate(1399.902344 0)"/>
      <use xlink:href="#DejaVuSans-2e" transform="translate(1463.525391 0)"/>
      <use xlink:href="#DejaVuSans-30" transform="translate(1495.3125 0)"/>
      <use xlink:href="#DejaVuSans-30" transform="translate(1558.935547 0)"/>
      <use xlink:href="#DejaVuSans-29" transform="translate(1622.558594 0)"/>
     </g>
    </g>
   </g>
   <g id="line2d_27">
    <path d="M 115.363636 359.49913 
L 115.701818 369.36 
L 116.04 323.342609 
L 116.378182 366.073043 
L 116.716364 356.212174 
L 117.392727 369.36 
L 117.730909 346.351304 
L 118.069091 356.212174 
L 118.407273 362.786087 
L 118.745455 352.925217 
L 119.083636 369.36 
L 119.421818 369.36 
L 119.76 346.351304 
L 120.098182 366.073043 
L 120.436364 369.36 
L 120.774545 366.073043 
L 121.112727 366.073043 
L 121.450909 362.786087 
L 121.789091 362.786087 
L 122.127273 369.36 
L 122.465455 352.925217 
L 122.803636 356.212174 
L 123.141818 362.786087 
L 123.48 362.786087 
L 123.818182 366.073043 
L 124.156364 326.629565 
L 124.494545 366.073043 
L 124.832727 362.786087 
L 125.170909 349.638261 
L 125.509091 323.342609 
L 125.847273 362.786087 
L 126.185455 369.36 
L 126.523636 362.786087 
L 126.861818 369.36 
L 127.2 346.351304 
L 127.538182 366.073043 
L 127.876364 369.36 
L 128.214545 346.351304 
L 128.552727 369.36 
L 128.890909 369.36 
L 129.567273 362.786087 
L 129.905455 343.064348 
L 130.243636 352.925217 
L 130.581818 366.073043 
L 130.92 369.36 
L 131.258182 366.073043 
L 131.596364 366.073043 
L 131.934545 359.49913 
L 132.272727 362.786087 
L 132.610909 362.786087 
L 132.949091 366.073043 
L 133.625455 366.073043 
L 133.963636 369.36 
L 134.301818 362.786087 
L 134.64 366.073043 
L 134.978182 362.786087 
L 135.316364 366.073043 
L 135.992727 359.49913 
L 136.330909 359.49913 
L 136.669091 349.638261 
L 137.007273 359.49913 
L 137.345455 356.212174 
L 137.683636 346.351304 
L 138.021818 359.49913 
L 138.36 366.073043 
L 138.698182 343.064348 
L 139.036364 359.49913 
L 139.374545 369.36 
L 139.712727 359.49913 
L 140.050909 362.786087 
L 140.389091 369.36 
L 140.727273 369.36 
L 141.065455 359.49913 
L 141.403636 369.36 
L 141.741818 366.073043 
L 142.08 369.36 
L 142.418182 333.203478 
L 142.756364 362.786087 
L 143.094545 369.36 
L 143.432727 366.073043 
L 143.770909 352.925217 
L 144.109091 366.073043 
L 144.447273 349.638261 
L 144.785455 349.638261 
L 145.123636 303.62087 
L 145.461818 362.786087 
L 145.8 333.203478 
L 146.138182 369.36 
L 146.476364 323.342609 
L 146.814545 369.36 
L 147.152727 356.212174 
L 147.490909 366.073043 
L 147.829091 369.36 
L 148.505455 326.629565 
L 149.181818 369.36 
L 149.52 362.786087 
L 149.858182 366.073043 
L 150.196364 366.073043 
L 150.534545 349.638261 
L 150.872727 352.925217 
L 151.210909 349.638261 
L 151.549091 336.490435 
L 151.887273 352.925217 
L 152.225455 362.786087 
L 152.563636 366.073043 
L 152.901818 352.925217 
L 153.24 362.786087 
L 153.578182 333.203478 
L 153.916364 346.351304 
L 154.254545 369.36 
L 154.592727 346.351304 
L 154.930909 366.073043 
L 155.269091 362.786087 
L 155.607273 366.073043 
L 155.945455 336.490435 
L 156.283636 369.36 
L 156.621818 366.073043 
L 156.96 366.073043 
L 157.298182 352.925217 
L 157.636364 369.36 
L 157.974545 362.786087 
L 158.312727 333.203478 
L 158.650909 362.786087 
L 158.989091 359.49913 
L 159.327273 369.36 
L 159.665455 343.064348 
L 160.003636 362.786087 
L 160.341818 336.490435 
L 161.018182 366.073043 
L 161.356364 333.203478 
L 161.694545 323.342609 
L 162.032727 339.777391 
L 162.370909 336.490435 
L 162.709091 310.194783 
L 163.385455 362.786087 
L 163.723636 362.786087 
L 164.061818 369.36 
L 164.738182 362.786087 
L 165.076364 369.36 
L 165.414545 366.073043 
L 165.752727 366.073043 
L 166.090909 369.36 
L 166.429091 369.36 
L 166.767273 356.212174 
L 167.105455 352.925217 
L 167.443636 366.073043 
L 167.781818 369.36 
L 168.12 359.49913 
L 168.458182 336.490435 
L 168.796364 270.751304 
L 169.134545 346.351304 
L 169.472727 323.342609 
L 169.810909 369.36 
L 170.149091 339.777391 
L 170.487273 336.490435 
L 170.825455 339.777391 
L 171.163636 349.638261 
L 171.501818 366.073043 
L 171.84 366.073043 
L 172.178182 369.36 
L 172.516364 343.064348 
L 172.854545 369.36 
L 173.192727 349.638261 
L 173.530909 359.49913 
L 173.869091 366.073043 
L 174.207273 343.064348 
L 174.545455 366.073043 
L 174.883636 343.064348 
L 175.221818 346.351304 
L 175.56 362.786087 
L 175.898182 369.36 
L 176.236364 366.073043 
L 176.574545 369.36 
L 176.912727 369.36 
L 177.250909 362.786087 
L 177.589091 316.768696 
L 177.927273 293.76 
L 178.265455 346.351304 
L 178.603636 320.055652 
L 178.941818 320.055652 
L 179.28 366.073043 
L 179.618182 323.342609 
L 179.956364 336.490435 
L 180.294545 303.62087 
L 180.632727 369.36 
L 180.970909 366.073043 
L 181.309091 359.49913 
L 181.647273 362.786087 
L 181.985455 362.786087 
L 182.323636 343.064348 
L 183 369.36 
L 183.338182 346.351304 
L 183.676364 369.36 
L 184.014545 359.49913 
L 184.352727 359.49913 
L 184.690909 366.073043 
L 185.029091 336.490435 
L 185.367273 362.786087 
L 185.705455 359.49913 
L 186.043636 362.786087 
L 186.381818 359.49913 
L 186.72 366.073043 
L 187.058182 343.064348 
L 187.396364 369.36 
L 188.072727 369.36 
L 188.410909 366.073043 
L 188.749091 356.212174 
L 189.087273 333.203478 
L 189.425455 362.786087 
L 189.763636 359.49913 
L 190.101818 359.49913 
L 190.44 306.907826 
L 190.778182 356.212174 
L 191.454545 369.36 
L 191.792727 326.629565 
L 192.130909 362.786087 
L 192.469091 369.36 
L 192.807273 362.786087 
L 193.145455 352.925217 
L 193.483636 356.212174 
L 193.821818 369.36 
L 194.16 343.064348 
L 194.498182 346.351304 
L 194.836364 366.073043 
L 195.174545 362.786087 
L 195.512727 346.351304 
L 195.850909 362.786087 
L 196.189091 349.638261 
L 196.527273 356.212174 
L 196.865455 303.62087 
L 197.203636 362.786087 
L 197.541818 366.073043 
L 197.88 356.212174 
L 198.218182 369.36 
L 198.556364 369.36 
L 198.894545 356.212174 
L 199.232727 336.490435 
L 199.570909 359.49913 
L 199.909091 356.212174 
L 200.247273 366.073043 
L 200.585455 343.064348 
L 200.923636 346.351304 
L 201.261818 336.490435 
L 201.6 343.064348 
L 201.938182 366.073043 
L 202.276364 366.073043 
L 202.614545 356.212174 
L 202.952727 369.36 
L 203.290909 362.786087 
L 203.629091 349.638261 
L 203.967273 346.351304 
L 204.305455 362.786087 
L 204.643636 369.36 
L 204.981818 366.073043 
L 205.32 336.490435 
L 205.658182 366.073043 
L 205.996364 369.36 
L 206.334545 303.62087 
L 206.672727 339.777391 
L 207.010909 310.194783 
L 207.349091 356.212174 
L 207.687273 339.777391 
L 208.025455 349.638261 
L 208.363636 320.055652 
L 208.701818 369.36 
L 209.04 313.481739 
L 209.378182 362.786087 
L 209.716364 316.768696 
L 210.054545 356.212174 
L 210.392727 339.777391 
L 210.730909 359.49913 
L 211.069091 346.351304 
L 211.407273 356.212174 
L 211.745455 369.36 
L 212.083636 362.786087 
L 212.421818 343.064348 
L 212.76 352.925217 
L 213.098182 369.36 
L 213.436364 333.203478 
L 213.774545 369.36 
L 214.112727 352.925217 
L 214.450909 366.073043 
L 214.789091 306.907826 
L 215.127273 369.36 
L 215.465455 349.638261 
L 215.803636 356.212174 
L 216.141818 359.49913 
L 216.48 369.36 
L 216.818182 293.76 
L 217.156364 366.073043 
L 217.494545 362.786087 
L 217.832727 362.786087 
L 218.170909 352.925217 
L 218.509091 290.473043 
L 218.847273 369.36 
L 219.185455 369.36 
L 219.523636 362.786087 
L 219.861818 362.786087 
L 220.2 333.203478 
L 220.538182 362.786087 
L 220.876364 352.925217 
L 221.214545 339.777391 
L 221.552727 343.064348 
L 221.890909 369.36 
L 222.229091 313.481739 
L 222.567273 352.925217 
L 222.905455 369.36 
L 223.581818 333.203478 
L 223.92 359.49913 
L 224.258182 369.36 
L 224.596364 369.36 
L 224.934545 366.073043 
L 225.272727 356.212174 
L 225.610909 366.073043 
L 225.949091 343.064348 
L 226.287273 369.36 
L 226.625455 369.36 
L 226.963636 366.073043 
L 227.301818 369.36 
L 227.978182 362.786087 
L 228.316364 356.212174 
L 228.654545 369.36 
L 229.330909 343.064348 
L 229.669091 362.786087 
L 230.007273 362.786087 
L 230.345455 369.36 
L 230.683636 329.916522 
L 231.021818 313.481739 
L 231.36 369.36 
L 231.698182 352.925217 
L 232.374545 366.073043 
L 232.712727 359.49913 
L 233.050909 349.638261 
L 233.389091 349.638261 
L 233.727273 369.36 
L 234.403636 349.638261 
L 234.741818 359.49913 
L 235.08 352.925217 
L 235.418182 362.786087 
L 235.756364 343.064348 
L 236.094545 369.36 
L 236.432727 333.203478 
L 236.770909 362.786087 
L 237.109091 290.473043 
L 237.447273 346.351304 
L 237.785455 339.777391 
L 238.123636 339.777391 
L 238.461818 359.49913 
L 238.8 362.786087 
L 239.138182 359.49913 
L 239.476364 316.768696 
L 239.814545 316.768696 
L 240.152727 356.212174 
L 240.490909 346.351304 
L 240.829091 366.073043 
L 241.167273 366.073043 
L 241.505455 336.490435 
L 242.181818 369.36 
L 242.52 362.786087 
L 242.858182 310.194783 
L 243.196364 366.073043 
L 243.534545 343.064348 
L 243.872727 369.36 
L 244.210909 329.916522 
L 244.549091 326.629565 
L 244.887273 290.473043 
L 245.225455 366.073043 
L 245.563636 369.36 
L 245.901818 356.212174 
L 246.24 366.073043 
L 246.578182 343.064348 
L 246.916364 359.49913 
L 247.254545 366.073043 
L 247.592727 369.36 
L 247.930909 369.36 
L 248.269091 362.786087 
L 248.607273 366.073043 
L 248.945455 359.49913 
L 249.283636 343.064348 
L 249.621818 359.49913 
L 249.96 352.925217 
L 250.298182 366.073043 
L 250.636364 359.49913 
L 250.974545 369.36 
L 251.312727 369.36 
L 251.650909 356.212174 
L 251.989091 336.490435 
L 252.327273 366.073043 
L 252.665455 369.36 
L 253.003636 356.212174 
L 253.341818 320.055652 
L 253.68 359.49913 
L 254.018182 349.638261 
L 254.356364 346.351304 
L 254.694545 320.055652 
L 255.032727 349.638261 
L 255.370909 362.786087 
L 255.709091 362.786087 
L 256.047273 316.768696 
L 256.385455 336.490435 
L 256.723636 369.36 
L 257.061818 343.064348 
L 257.4 362.786087 
L 257.738182 320.055652 
L 258.076364 352.925217 
L 258.414545 369.36 
L 258.752727 339.777391 
L 259.090909 339.777391 
L 259.429091 346.351304 
L 259.767273 346.351304 
L 260.105455 352.925217 
L 260.443636 352.925217 
L 260.781818 359.49913 
L 261.12 352.925217 
L 261.458182 352.925217 
L 261.796364 362.786087 
L 262.134545 310.194783 
L 262.472727 352.925217 
L 262.810909 359.49913 
L 263.149091 310.194783 
L 263.487273 362.786087 
L 263.825455 300.333913 
L 264.163636 366.073043 
L 264.501818 356.212174 
L 264.84 343.064348 
L 265.178182 356.212174 
L 265.516364 310.194783 
L 265.854545 346.351304 
L 266.192727 297.046957 
L 266.530909 366.073043 
L 266.869091 333.203478 
L 267.207273 339.777391 
L 267.545455 329.916522 
L 267.883636 369.36 
L 268.221818 356.212174 
L 268.56 366.073043 
L 268.898182 356.212174 
L 269.574545 369.36 
L 269.912727 369.36 
L 270.250909 320.055652 
L 270.589091 346.351304 
L 270.927273 306.907826 
L 271.265455 362.786087 
L 271.603636 369.36 
L 271.941818 369.36 
L 272.28 290.473043 
L 272.618182 369.36 
L 272.956364 362.786087 
L 273.294545 339.777391 
L 273.632727 369.36 
L 273.970909 343.064348 
L 274.309091 346.351304 
L 274.985455 366.073043 
L 275.323636 329.916522 
L 275.661818 362.786087 
L 276 267.464348 
L 276.338182 362.786087 
L 276.676364 316.768696 
L 277.014545 359.49913 
L 277.352727 339.777391 
L 277.690909 366.073043 
L 278.029091 366.073043 
L 278.367273 346.351304 
L 278.705455 346.351304 
L 279.043636 352.925217 
L 279.381818 369.36 
L 279.72 326.629565 
L 280.058182 369.36 
L 280.396364 356.212174 
L 280.734545 326.629565 
L 281.072727 356.212174 
L 281.410909 323.342609 
L 281.749091 366.073043 
L 282.425455 343.064348 
L 282.763636 280.612174 
L 283.101818 369.36 
L 283.44 369.36 
L 283.778182 366.073043 
L 284.116364 356.212174 
L 284.454545 359.49913 
L 284.792727 346.351304 
L 285.130909 352.925217 
L 285.469091 369.36 
L 285.807273 369.36 
L 286.145455 349.638261 
L 286.483636 369.36 
L 286.821818 362.786087 
L 287.16 333.203478 
L 287.498182 362.786087 
L 287.836364 323.342609 
L 288.174545 352.925217 
L 288.512727 343.064348 
L 288.850909 346.351304 
L 289.189091 352.925217 
L 289.527273 349.638261 
L 289.865455 369.36 
L 290.203636 352.925217 
L 290.541818 369.36 
L 290.88 329.916522 
L 291.218182 369.36 
L 291.556364 366.073043 
L 291.894545 369.36 
L 292.232727 329.916522 
L 292.570909 323.342609 
L 292.909091 320.055652 
L 293.247273 349.638261 
L 294.261818 369.36 
L 294.6 346.351304 
L 294.938182 346.351304 
L 295.276364 349.638261 
L 295.614545 366.073043 
L 295.952727 346.351304 
L 296.290909 369.36 
L 296.629091 366.073043 
L 296.967273 343.064348 
L 297.305455 359.49913 
L 297.643636 362.786087 
L 297.981818 320.055652 
L 298.32 316.768696 
L 298.658182 362.786087 
L 298.996364 359.49913 
L 299.334545 336.490435 
L 299.672727 359.49913 
L 300.010909 366.073043 
L 300.349091 333.203478 
L 300.687273 366.073043 
L 301.025455 333.203478 
L 301.363636 369.36 
L 301.701818 369.36 
L 302.04 359.49913 
L 302.378182 369.36 
L 302.716364 369.36 
L 303.054545 352.925217 
L 303.392727 290.473043 
L 303.730909 366.073043 
L 304.069091 303.62087 
L 304.745455 366.073043 
L 305.083636 362.786087 
L 305.421818 283.89913 
L 305.76 369.36 
L 306.098182 366.073043 
L 306.436364 326.629565 
L 306.774545 343.064348 
L 307.112727 270.751304 
L 307.450909 359.49913 
L 307.789091 343.064348 
L 308.127273 366.073043 
L 308.465455 346.351304 
L 308.803636 356.212174 
L 309.141818 369.36 
L 309.48 362.786087 
L 309.818182 359.49913 
L 310.156364 369.36 
L 310.494545 366.073043 
L 310.832727 366.073043 
L 311.170909 343.064348 
L 311.509091 346.351304 
L 311.847273 336.490435 
L 312.185455 329.916522 
L 312.523636 313.481739 
L 312.861818 359.49913 
L 313.2 254.316522 
L 313.538182 362.786087 
L 313.876364 369.36 
L 314.214545 336.490435 
L 314.552727 323.342609 
L 314.890909 369.36 
L 315.229091 352.925217 
L 315.567273 346.351304 
L 315.905455 300.333913 
L 316.243636 356.212174 
L 316.581818 352.925217 
L 316.92 336.490435 
L 317.258182 362.786087 
L 317.596364 362.786087 
L 317.934545 326.629565 
L 318.272727 359.49913 
L 318.610909 329.916522 
L 318.949091 369.36 
L 319.287273 320.055652 
L 319.625455 303.62087 
L 319.963636 366.073043 
L 320.301818 326.629565 
L 320.64 369.36 
L 320.978182 310.194783 
L 321.316364 362.786087 
L 321.654545 366.073043 
L 321.992727 359.49913 
L 322.330909 349.638261 
L 322.669091 366.073043 
L 323.007273 343.064348 
L 323.345455 362.786087 
L 323.683636 366.073043 
L 324.021818 339.777391 
L 324.36 297.046957 
L 324.698182 359.49913 
L 325.036364 343.064348 
L 325.374545 366.073043 
L 325.712727 356.212174 
L 326.050909 257.603478 
L 326.389091 339.777391 
L 326.727273 346.351304 
L 327.065455 343.064348 
L 327.403636 352.925217 
L 327.741818 369.36 
L 328.08 369.36 
L 328.418182 329.916522 
L 328.756364 366.073043 
L 329.094545 316.768696 
L 329.432727 329.916522 
L 329.770909 359.49913 
L 330.109091 356.212174 
L 330.447273 270.751304 
L 330.785455 303.62087 
L 331.123636 352.925217 
L 331.461818 293.76 
L 331.8 359.49913 
L 332.138182 333.203478 
L 332.814545 369.36 
L 333.152727 346.351304 
L 333.490909 356.212174 
L 333.829091 343.064348 
L 334.167273 280.612174 
L 334.505455 290.473043 
L 334.843636 356.212174 
L 335.181818 366.073043 
L 335.52 339.777391 
L 335.858182 346.351304 
L 336.534545 333.203478 
L 336.872727 352.925217 
L 337.210909 320.055652 
L 337.549091 349.638261 
L 337.887273 362.786087 
L 338.225455 366.073043 
L 338.563636 343.064348 
L 338.901818 369.36 
L 339.24 346.351304 
L 339.578182 362.786087 
L 339.916364 352.925217 
L 340.254545 369.36 
L 340.592727 343.064348 
L 340.930909 336.490435 
L 341.269091 352.925217 
L 341.945455 352.925217 
L 342.283636 343.064348 
L 342.621818 359.49913 
L 342.96 336.490435 
L 343.298182 300.333913 
L 343.636364 369.36 
L 343.974545 339.777391 
L 344.312727 369.36 
L 344.650909 366.073043 
L 344.989091 369.36 
L 345.327273 323.342609 
L 345.665455 362.786087 
L 346.003636 343.064348 
L 346.341818 343.064348 
L 346.68 369.36 
L 347.018182 366.073043 
L 347.356364 343.064348 
L 347.694545 359.49913 
L 348.032727 369.36 
L 348.370909 316.768696 
L 348.709091 356.212174 
L 349.047273 369.36 
L 349.385455 346.351304 
L 349.723636 343.064348 
L 350.061818 343.064348 
L 350.4 366.073043 
L 350.738182 369.36 
L 351.076364 356.212174 
L 351.414545 352.925217 
L 351.752727 366.073043 
L 352.090909 297.046957 
L 352.429091 346.351304 
L 352.767273 362.786087 
L 353.105455 369.36 
L 353.443636 369.36 
L 353.781818 326.629565 
L 354.12 326.629565 
L 354.458182 336.490435 
L 354.796364 343.064348 
L 355.134545 359.49913 
L 355.472727 349.638261 
L 355.810909 359.49913 
L 356.149091 352.925217 
L 356.487273 356.212174 
L 356.825455 362.786087 
L 357.501818 293.76 
L 357.84 349.638261 
L 358.178182 346.351304 
L 358.516364 336.490435 
L 358.854545 356.212174 
L 359.192727 356.212174 
L 359.530909 320.055652 
L 359.869091 362.786087 
L 360.207273 366.073043 
L 360.545455 323.342609 
L 360.883636 333.203478 
L 361.221818 366.073043 
L 361.56 320.055652 
L 361.898182 369.36 
L 362.236364 352.925217 
L 362.574545 352.925217 
L 362.912727 369.36 
L 363.250909 369.36 
L 363.589091 320.055652 
L 363.927273 359.49913 
L 364.265455 306.907826 
L 364.603636 359.49913 
L 364.941818 366.073043 
L 365.28 323.342609 
L 365.618182 326.629565 
L 365.956364 356.212174 
L 366.294545 366.073043 
L 366.632727 349.638261 
L 366.970909 313.481739 
L 367.647273 356.212174 
L 367.985455 366.073043 
L 368.323636 346.351304 
L 368.661818 362.786087 
L 369 336.490435 
L 369.338182 329.916522 
L 369.676364 254.316522 
L 370.014545 333.203478 
L 370.352727 336.490435 
L 370.690909 336.490435 
L 371.029091 362.786087 
L 371.367273 349.638261 
L 371.705455 356.212174 
L 372.043636 333.203478 
L 372.381818 343.064348 
L 372.72 369.36 
L 373.058182 326.629565 
L 373.396364 339.777391 
L 373.734545 366.073043 
L 374.072727 366.073043 
L 374.410909 310.194783 
L 374.749091 346.351304 
L 375.087273 352.925217 
L 375.425455 349.638261 
L 375.763636 369.36 
L 376.101818 329.916522 
L 376.44 346.351304 
L 376.778182 343.064348 
L 377.116364 359.49913 
L 377.454545 359.49913 
L 377.792727 349.638261 
L 378.130909 303.62087 
L 378.469091 369.36 
L 378.807273 366.073043 
L 379.145455 326.629565 
L 379.483636 369.36 
L 379.821818 369.36 
L 380.16 313.481739 
L 380.498182 356.212174 
L 380.836364 346.351304 
L 381.174545 323.342609 
L 381.512727 349.638261 
L 381.850909 316.768696 
L 382.189091 352.925217 
L 382.527273 349.638261 
L 382.865455 343.064348 
L 383.203636 366.073043 
L 383.541818 333.203478 
L 384.218182 356.212174 
L 384.894545 303.62087 
L 385.232727 336.490435 
L 385.570909 293.76 
L 385.909091 356.212174 
L 386.247273 287.186087 
L 386.585455 323.342609 
L 386.923636 333.203478 
L 387.261818 349.638261 
L 387.6 316.768696 
L 388.276364 366.073043 
L 388.614545 359.49913 
L 388.952727 329.916522 
L 389.290909 362.786087 
L 389.629091 369.36 
L 389.967273 366.073043 
L 390.305455 359.49913 
L 390.643636 359.49913 
L 390.981818 352.925217 
L 391.32 297.046957 
L 391.658182 336.490435 
L 391.996364 320.055652 
L 392.334545 346.351304 
L 392.672727 349.638261 
L 393.010909 366.073043 
L 393.349091 359.49913 
L 393.687273 359.49913 
L 394.025455 336.490435 
L 394.363636 349.638261 
L 394.701818 349.638261 
L 395.04 320.055652 
L 395.378182 326.629565 
L 395.716364 362.786087 
L 396.054545 352.925217 
L 396.392727 349.638261 
L 396.730909 326.629565 
L 397.069091 359.49913 
L 397.407273 310.194783 
L 397.745455 346.351304 
L 398.083636 359.49913 
L 398.421818 366.073043 
L 398.76 366.073043 
L 399.098182 336.490435 
L 399.436364 326.629565 
L 399.774545 366.073043 
L 400.112727 336.490435 
L 400.450909 359.49913 
L 400.789091 293.76 
L 401.465455 369.36 
L 401.803636 326.629565 
L 402.141818 326.629565 
L 402.48 366.073043 
L 402.818182 339.777391 
L 403.156364 369.36 
L 403.494545 329.916522 
L 403.832727 366.073043 
L 404.170909 346.351304 
L 404.509091 89.968696 
L 404.847273 264.177391 
L 405.185455 320.055652 
L 405.523636 316.768696 
L 405.861818 369.36 
L 406.538182 323.342609 
L 406.876364 369.36 
L 407.214545 359.49913 
L 407.552727 359.49913 
L 407.890909 352.925217 
L 408.229091 339.777391 
L 408.567273 234.594783 
L 408.905455 326.629565 
L 409.243636 369.36 
L 409.581818 352.925217 
L 409.92 306.907826 
L 410.258182 349.638261 
L 410.596364 349.638261 
L 410.934545 352.925217 
L 411.272727 343.064348 
L 411.610909 356.212174 
L 411.949091 359.49913 
L 412.287273 366.073043 
L 412.625455 366.073043 
L 412.963636 323.342609 
L 413.301818 359.49913 
L 413.64 329.916522 
L 413.978182 333.203478 
L 414.316364 333.203478 
L 415.330909 343.064348 
L 415.669091 274.038261 
L 416.007273 333.203478 
L 416.345455 283.89913 
L 416.683636 366.073043 
L 417.021818 343.064348 
L 417.36 362.786087 
L 417.698182 346.351304 
L 418.036364 339.777391 
L 418.374545 339.777391 
L 418.712727 349.638261 
L 419.050909 356.212174 
L 419.389091 343.064348 
L 419.727273 287.186087 
L 420.065455 329.916522 
L 420.403636 343.064348 
L 420.741818 349.638261 
L 421.08 362.786087 
L 421.418182 359.49913 
L 421.756364 362.786087 
L 422.094545 362.786087 
L 422.432727 366.073043 
L 422.770909 362.786087 
L 423.109091 339.777391 
L 423.447273 336.490435 
L 423.785455 352.925217 
L 424.123636 352.925217 
L 424.461818 336.490435 
L 424.8 260.890435 
L 425.138182 366.073043 
L 425.476364 366.073043 
L 425.814545 369.36 
L 426.152727 369.36 
L 426.490909 323.342609 
L 426.829091 369.36 
L 427.167273 346.351304 
L 427.505455 359.49913 
L 427.843636 346.351304 
L 428.181818 343.064348 
L 428.52 369.36 
L 428.858182 320.055652 
L 429.196364 346.351304 
L 429.534545 346.351304 
L 429.872727 349.638261 
L 430.210909 333.203478 
L 430.549091 339.777391 
L 430.887273 316.768696 
L 431.225455 352.925217 
L 431.563636 336.490435 
L 431.901818 352.925217 
L 432.24 343.064348 
L 432.578182 369.36 
L 432.916364 359.49913 
L 433.254545 329.916522 
L 433.592727 352.925217 
L 433.930909 310.194783 
L 434.269091 306.907826 
L 434.607273 297.046957 
L 434.945455 362.786087 
L 435.283636 366.073043 
L 435.621818 297.046957 
L 435.96 172.142609 
L 436.298182 343.064348 
L 436.636364 310.194783 
L 436.974545 260.890435 
L 437.312727 346.351304 
L 437.650909 306.907826 
L 437.989091 320.055652 
L 438.327273 362.786087 
L 438.665455 369.36 
L 439.003636 251.029565 
L 439.341818 362.786087 
L 440.018182 369.36 
L 440.356364 320.055652 
L 440.694545 329.916522 
L 441.032727 320.055652 
L 441.370909 247.742609 
L 441.709091 320.055652 
L 442.047273 260.890435 
L 442.385455 290.473043 
L 442.723636 205.012174 
L 443.061818 356.212174 
L 443.4 244.455652 
L 443.738182 339.777391 
L 444.076364 359.49913 
L 444.414545 369.36 
L 444.752727 333.203478 
L 445.090909 333.203478 
L 445.429091 224.733913 
L 446.105455 339.777391 
L 446.443636 336.490435 
L 446.781818 369.36 
L 447.12 191.864348 
L 447.458182 89.968696 
L 447.796364 352.925217 
L 448.134545 369.36 
L 448.472727 366.073043 
L 448.810909 287.186087 
L 449.149091 274.038261 
L 449.487273 231.307826 
L 449.825455 369.36 
L 450.163636 369.36 
L 450.501818 352.925217 
L 450.84 346.351304 
L 451.178182 300.333913 
L 451.516364 366.073043 
L 451.854545 142.56 
L 452.192727 352.925217 
L 452.530909 362.786087 
L 452.869091 162.281739 
L 453.207273 287.186087 
L 453.883636 366.073043 
L 454.221818 300.333913 
L 454.56 349.638261 
L 454.898182 366.073043 
L 455.236364 323.342609 
L 455.574545 352.925217 
L 455.912727 323.342609 
L 456.250909 349.638261 
L 456.589091 251.029565 
L 456.927273 362.786087 
L 457.265455 346.351304 
L 457.603636 310.194783 
L 458.28 349.638261 
L 458.618182 362.786087 
L 458.956364 369.36 
L 459.294545 336.490435 
L 459.632727 356.212174 
L 459.970909 359.49913 
L 460.309091 306.907826 
L 460.647273 316.768696 
L 460.985455 356.212174 
L 461.323636 352.925217 
L 461.661818 362.786087 
L 462 366.073043 
L 462.338182 339.777391 
L 462.676364 208.29913 
L 463.014545 257.603478 
L 463.352727 366.073043 
L 463.690909 326.629565 
L 464.029091 316.768696 
L 464.367273 336.490435 
L 464.705455 369.36 
L 465.043636 257.603478 
L 465.381818 362.786087 
L 465.72 369.36 
L 466.058182 336.490435 
L 466.396364 366.073043 
L 466.734545 352.925217 
L 467.072727 366.073043 
L 467.410909 352.925217 
L 467.749091 231.307826 
L 468.087273 339.777391 
L 468.425455 366.073043 
L 468.763636 306.907826 
L 469.101818 352.925217 
L 469.778182 346.351304 
L 470.454545 300.333913 
L 470.792727 362.786087 
L 471.130909 359.49913 
L 471.469091 349.638261 
L 471.807273 362.786087 
L 472.145455 244.455652 
L 472.483636 366.073043 
L 472.821818 287.186087 
L 473.16 362.786087 
L 473.498182 352.925217 
L 473.836364 323.342609 
L 474.174545 366.073043 
L 474.512727 352.925217 
L 474.850909 313.481739 
L 475.189091 369.36 
L 475.527273 366.073043 
L 475.865455 359.49913 
L 476.203636 339.777391 
L 476.541818 89.968696 
L 476.88 300.333913 
L 477.218182 346.351304 
L 477.556364 362.786087 
L 477.894545 313.481739 
L 478.232727 356.212174 
L 478.570909 326.629565 
L 478.909091 366.073043 
L 479.247273 366.073043 
L 479.585455 333.203478 
L 479.923636 339.777391 
L 480.261818 349.638261 
L 480.6 346.351304 
L 481.276364 369.36 
L 481.614545 346.351304 
L 481.952727 260.890435 
L 482.290909 329.916522 
L 482.629091 346.351304 
L 482.967273 316.768696 
L 483.305455 297.046957 
L 483.643636 326.629565 
L 483.981818 333.203478 
L 484.32 323.342609 
L 484.658182 297.046957 
L 484.996364 343.064348 
L 485.334545 369.36 
L 485.672727 366.073043 
L 486.010909 366.073043 
L 486.349091 336.490435 
L 486.687273 362.786087 
L 487.025455 346.351304 
L 487.363636 352.925217 
L 487.701818 352.925217 
L 488.04 198.438261 
L 488.378182 283.89913 
L 488.716364 106.403478 
L 489.054545 191.864348 
L 489.392727 323.342609 
L 489.730909 254.316522 
L 490.069091 356.212174 
L 490.407273 359.49913 
L 490.745455 356.212174 
L 491.083636 320.055652 
L 491.421818 369.36 
L 491.76 293.76 
L 492.098182 326.629565 
L 492.436364 195.151304 
L 492.774545 323.342609 
L 493.112727 346.351304 
L 493.450909 346.351304 
L 493.789091 323.342609 
L 494.127273 362.786087 
L 494.465455 89.968696 
L 494.803636 274.038261 
L 495.141818 366.073043 
L 495.48 352.925217 
L 496.156364 287.186087 
L 496.494545 362.786087 
L 496.832727 224.733913 
L 497.170909 185.290435 
L 497.509091 362.786087 
L 497.847273 152.42087 
L 498.185455 297.046957 
L 498.523636 352.925217 
L 498.861818 366.073043 
L 499.2 369.36 
L 499.538182 339.777391 
L 500.214545 346.351304 
L 500.552727 339.777391 
L 500.890909 366.073043 
L 501.229091 326.629565 
L 501.567273 89.968696 
L 501.905455 303.62087 
L 502.243636 323.342609 
L 502.581818 198.438261 
L 502.92 142.56 
L 503.258182 339.777391 
L 503.596364 277.325217 
L 503.934545 352.925217 
L 504.272727 287.186087 
L 504.610909 369.36 
L 504.949091 251.029565 
L 505.287273 191.864348 
L 505.625455 205.012174 
L 505.963636 356.212174 
L 506.301818 191.864348 
L 506.64 352.925217 
L 506.978182 274.038261 
L 507.316364 366.073043 
L 507.654545 349.638261 
L 507.992727 356.212174 
L 508.330909 356.212174 
L 509.007273 205.012174 
L 509.345455 152.42087 
L 510.021818 359.49913 
L 510.36 369.36 
L 510.698182 352.925217 
L 511.036364 352.925217 
L 511.374545 234.594783 
L 511.712727 66.96 
L 512.050909 343.064348 
L 512.389091 201.725217 
L 513.065455 336.490435 
L 513.403636 336.490435 
L 513.741818 254.316522 
L 514.08 346.351304 
L 514.418182 362.786087 
L 514.756364 343.064348 
L 515.094545 352.925217 
L 515.432727 359.49913 
L 515.770909 346.351304 
L 516.109091 366.073043 
L 516.447273 352.925217 
L 516.785455 241.168696 
L 517.123636 336.490435 
L 517.461818 89.968696 
L 517.8 333.203478 
L 518.138182 333.203478 
L 518.476364 293.76 
L 518.814545 336.490435 
L 519.490909 306.907826 
L 519.829091 300.333913 
L 520.167273 300.333913 
L 520.505455 366.073043 
L 520.843636 316.768696 
L 521.181818 333.203478 
L 521.52 362.786087 
L 521.858182 366.073043 
L 522.196364 182.003478 
L 522.534545 310.194783 
L 522.872727 300.333913 
L 523.210909 89.968696 
L 523.549091 356.212174 
L 523.887273 336.490435 
L 524.225455 356.212174 
L 524.563636 333.203478 
L 524.901818 352.925217 
L 525.24 89.968696 
L 525.578182 352.925217 
L 526.254545 329.916522 
L 526.592727 237.881739 
L 526.930909 366.073043 
L 527.269091 139.273043 
L 527.607273 162.281739 
L 527.945455 89.968696 
L 528.283636 349.638261 
L 528.621818 369.36 
L 528.96 359.49913 
L 529.298182 89.968696 
L 529.636364 165.568696 
L 529.974545 366.073043 
L 530.312727 352.925217 
L 530.650909 356.212174 
L 530.989091 349.638261 
L 531.327273 356.212174 
L 531.665455 343.064348 
L 532.003636 369.36 
L 532.341818 306.907826 
L 532.68 369.36 
L 533.018182 359.49913 
L 533.356364 277.325217 
L 533.694545 326.629565 
L 534.032727 158.994783 
L 534.370909 343.064348 
L 534.709091 89.968696 
L 535.047273 89.968696 
L 535.385455 369.36 
L 535.723636 339.777391 
L 536.061818 188.577391 
L 536.4 349.638261 
L 536.738182 366.073043 
L 537.076364 362.786087 
L 537.414545 369.36 
L 537.752727 362.786087 
L 538.090909 251.029565 
L 538.429091 333.203478 
L 538.767273 362.786087 
L 539.105455 89.968696 
L 539.443636 343.064348 
L 539.781818 366.073043 
L 540.12 352.925217 
L 540.458182 224.733913 
L 540.796364 333.203478 
L 541.134545 293.76 
L 541.472727 343.064348 
L 541.810909 313.481739 
L 542.149091 313.481739 
L 542.487273 369.36 
L 542.825455 270.751304 
L 543.163636 326.629565 
L 543.501818 356.212174 
L 543.84 320.055652 
L 544.178182 369.36 
L 544.516364 306.907826 
L 544.854545 290.473043 
L 545.192727 339.777391 
L 545.530909 359.49913 
L 545.869091 320.055652 
L 546.207273 333.203478 
L 546.545455 297.046957 
L 546.883636 198.438261 
L 547.221818 356.212174 
L 547.56 310.194783 
L 547.898182 343.064348 
L 548.236364 205.012174 
L 548.574545 356.212174 
L 548.912727 343.064348 
L 549.250909 264.177391 
L 549.589091 356.212174 
L 549.927273 316.768696 
L 550.265455 366.073043 
L 550.603636 369.36 
L 550.941818 329.916522 
L 551.28 359.49913 
L 551.618182 277.325217 
L 552.294545 323.342609 
L 552.632727 362.786087 
L 553.309091 369.36 
L 553.647273 369.36 
L 554.323636 343.064348 
L 554.661818 369.36 
L 555 320.055652 
L 555.338182 369.36 
L 555.676364 287.186087 
L 556.014545 362.786087 
L 556.352727 333.203478 
L 556.690909 326.629565 
L 557.029091 366.073043 
L 557.367273 168.855652 
L 557.705455 369.36 
L 558.043636 369.36 
L 558.381818 198.438261 
L 558.72 300.333913 
L 559.058182 306.907826 
L 559.396364 264.177391 
L 559.734545 267.464348 
L 560.072727 283.89913 
L 560.410909 221.446957 
L 560.749091 247.742609 
L 561.087273 306.907826 
L 561.425455 237.881739 
L 561.763636 287.186087 
L 562.101818 362.786087 
L 562.44 362.786087 
L 562.778182 369.36 
L 563.116364 366.073043 
L 563.454545 274.038261 
L 564.130909 352.925217 
L 564.469091 218.16 
L 564.807273 369.36 
L 565.145455 366.073043 
L 565.483636 89.968696 
L 565.821818 191.864348 
L 566.16 369.36 
L 566.836364 270.751304 
L 567.174545 313.481739 
L 567.512727 234.594783 
L 568.189091 356.212174 
L 568.527273 290.473043 
L 568.865455 362.786087 
L 569.203636 359.49913 
L 569.541818 362.786087 
L 570.218182 89.968696 
L 570.556364 280.612174 
L 570.894545 257.603478 
L 571.232727 346.351304 
L 571.570909 352.925217 
L 571.909091 178.716522 
L 572.247273 339.777391 
L 572.585455 359.49913 
L 572.923636 313.481739 
L 573.261818 333.203478 
L 573.6 303.62087 
L 573.938182 352.925217 
L 574.614545 175.429565 
L 574.952727 352.925217 
L 575.290909 329.916522 
L 575.629091 356.212174 
L 575.967273 316.768696 
L 576.305455 333.203478 
L 576.643636 320.055652 
L 576.981818 356.212174 
L 577.32 329.916522 
L 577.658182 369.36 
L 577.996364 339.777391 
L 578.334545 237.881739 
L 579.010909 359.49913 
L 579.349091 326.629565 
L 579.687273 228.02087 
L 580.701818 369.36 
L 581.04 349.638261 
L 581.378182 290.473043 
L 581.716364 267.464348 
L 582.054545 366.073043 
L 582.392727 362.786087 
L 582.730909 356.212174 
L 583.069091 339.777391 
L 583.407273 306.907826 
L 583.745455 366.073043 
L 584.083636 89.968696 
L 584.421818 343.064348 
L 584.76 362.786087 
L 585.098182 297.046957 
L 585.436364 188.577391 
L 585.774545 359.49913 
L 586.112727 277.325217 
L 586.450909 369.36 
L 586.789091 218.16 
L 587.127273 349.638261 
L 587.465455 366.073043 
L 587.803636 362.786087 
L 588.141818 333.203478 
L 588.48 339.777391 
L 588.818182 359.49913 
L 589.156364 310.194783 
L 589.494545 352.925217 
L 589.832727 326.629565 
L 590.170909 359.49913 
L 590.509091 369.36 
L 590.847273 359.49913 
L 591.185455 329.916522 
L 591.523636 336.490435 
L 591.861818 349.638261 
L 592.2 234.594783 
L 592.538182 346.351304 
L 592.876364 369.36 
L 593.214545 280.612174 
L 593.552727 369.36 
L 593.890909 336.490435 
L 594.567273 205.012174 
L 594.905455 346.351304 
L 595.243636 290.473043 
L 595.581818 359.49913 
L 595.92 336.490435 
L 596.258182 356.212174 
L 596.596364 280.612174 
L 596.934545 333.203478 
L 597.272727 352.925217 
L 597.610909 274.038261 
L 597.949091 290.473043 
L 598.287273 359.49913 
L 598.625455 300.333913 
L 598.963636 339.777391 
L 599.64 369.36 
L 599.978182 343.064348 
L 600.316364 293.76 
L 600.992727 346.351304 
L 601.330909 333.203478 
L 601.669091 336.490435 
L 602.007273 346.351304 
L 602.345455 329.916522 
L 602.683636 362.786087 
L 603.021818 310.194783 
L 603.36 218.16 
L 603.698182 303.62087 
L 604.036364 323.342609 
L 604.374545 366.073043 
L 604.712727 323.342609 
L 605.050909 333.203478 
L 605.389091 188.577391 
L 605.727273 346.351304 
L 606.065455 320.055652 
L 606.403636 185.290435 
L 606.741818 277.325217 
L 607.08 336.490435 
L 607.418182 300.333913 
L 607.756364 362.786087 
L 608.094545 366.073043 
L 608.432727 211.586087 
L 608.770909 349.638261 
L 609.109091 336.490435 
L 609.447273 274.038261 
L 609.785455 349.638261 
L 610.123636 352.925217 
L 610.461818 359.49913 
L 610.8 343.064348 
L 611.138182 352.925217 
L 611.476364 352.925217 
L 611.814545 244.455652 
L 612.152727 231.307826 
L 612.490909 270.751304 
L 612.829091 366.073043 
L 613.167273 369.36 
L 613.505455 356.212174 
L 613.843636 310.194783 
L 614.181818 362.786087 
L 614.52 277.325217 
L 614.858182 333.203478 
L 615.534545 362.786087 
L 615.872727 175.429565 
L 616.210909 267.464348 
L 616.887273 362.786087 
L 617.225455 336.490435 
L 617.901818 366.073043 
L 618.24 257.603478 
L 618.578182 359.49913 
L 618.916364 349.638261 
L 619.254545 369.36 
L 619.592727 333.203478 
L 619.930909 336.490435 
L 620.607273 366.073043 
L 620.945455 369.36 
L 621.283636 313.481739 
L 621.621818 316.768696 
L 621.96 316.768696 
L 622.298182 362.786087 
L 622.298182 362.786087 
" clip-path="url(#pfb1da4919f)" style="fill: none; stroke: #1f77b4; stroke-opacity: 0.3; stroke-width: 1.5; stroke-linecap: square"/>
   </g>
   <g id="line2d_28">
    <path d="M 149.181818 358.776 
L 149.52 358.874609 
L 149.858182 358.80887 
L 150.196364 359.236174 
L 150.872727 359.170435 
L 152.563636 358.74313 
L 152.901818 358.874609 
L 153.578182 358.644522 
L 154.930909 358.118609 
L 155.945455 358.151478 
L 156.283636 357.822783 
L 156.96 358.085739 
L 157.298182 358.118609 
L 157.636364 358.02 
L 157.974545 358.05287 
L 158.312727 358.414435 
L 158.650909 358.085739 
L 159.327273 358.184348 
L 159.665455 358.644522 
L 160.003636 358.447304 
L 160.341818 358.381565 
L 161.018182 357.921391 
L 161.356364 358.118609 
L 163.385455 356.080696 
L 163.723636 356.080696 
L 164.4 356.442261 
L 166.429091 356.54087 
L 166.767273 356.606609 
L 167.781818 356.376522 
L 168.458182 356.343652 
L 168.796364 356.047826 
L 169.134545 355.127478 
L 169.472727 354.930261 
L 169.810909 354.535826 
L 170.149091 354.634435 
L 171.163636 354.108522 
L 171.501818 354.042783 
L 171.84 354.24 
L 173.192727 354.437217 
L 173.530909 354.24 
L 174.207273 354.27287 
L 174.545455 354.009913 
L 174.883636 353.977043 
L 175.898182 353.549739 
L 176.236364 353.549739 
L 176.574545 353.878435 
L 177.250909 353.944174 
L 177.589091 353.911304 
L 177.927273 353.549739 
L 178.265455 352.826609 
L 178.603636 352.793739 
L 178.941818 352.497913 
L 179.28 352.662261 
L 179.618182 352.69513 
L 179.956364 352.596522 
L 180.632727 352.070609 
L 181.985455 352.037739 
L 183 352.432174 
L 183.338182 352.432174 
L 183.676364 352.267826 
L 185.367273 352.333565 
L 185.705455 352.596522 
L 186.381818 352.662261 
L 186.72 352.596522 
L 187.058182 352.728 
L 187.396364 352.530783 
L 188.072727 353.122435 
L 188.410909 353.122435 
L 188.749091 353.319652 
L 189.087273 353.221043 
L 189.425455 352.925217 
L 189.763636 352.892348 
L 190.101818 353.122435 
L 190.44 353.023826 
L 190.778182 352.432174 
L 191.116364 352.333565 
L 191.792727 352.432174 
L 192.130909 352.070609 
L 192.469091 352.366435 
L 193.145455 352.465043 
L 193.483636 352.300696 
L 194.16 352.497913 
L 194.836364 352.530783 
L 195.174545 352.530783 
L 196.189091 353.286783 
L 196.527273 353.418261 
L 196.865455 353.878435 
L 197.203636 353.51687 
L 198.894545 353.51687 
L 199.232727 353.385391 
L 199.570909 353.089565 
L 201.261818 352.662261 
L 201.938182 352.103478 
L 202.276364 352.169217 
L 202.614545 352.465043 
L 202.952727 353.319652 
L 203.290909 353.549739 
L 203.629091 353.944174 
L 203.967273 353.746957 
L 204.305455 353.812696 
L 205.32 354.535826 
L 205.658182 354.24 
L 206.334545 354.24 
L 207.349091 353.155304 
L 207.687273 353.122435 
L 208.025455 352.859478 
L 208.363636 352.925217 
L 208.701818 352.465043 
L 209.04 352.728 
L 209.378182 352.399304 
L 209.716364 352.399304 
L 210.054545 351.873391 
L 210.392727 351.774783 
L 210.730909 351.478957 
L 211.407273 351.216 
L 211.745455 351.610435 
L 212.083636 352.366435 
L 212.76 352.76087 
L 213.098182 353.089565 
L 213.774545 353.221043 
L 214.112727 353.549739 
L 214.450909 354.042783 
L 214.789091 354.009913 
L 215.127273 353.418261 
L 215.465455 353.51687 
L 216.141818 353.319652 
L 216.818182 353.615478 
L 217.156364 352.859478 
L 217.494545 353.056696 
L 218.509091 352.958087 
L 218.847273 352.202087 
L 219.185455 352.530783 
L 220.2 352.629391 
L 220.538182 352.366435 
L 220.876364 352.333565 
L 221.214545 352.432174 
L 221.890909 351.873391 
L 222.229091 351.873391 
L 222.567273 351.347478 
L 222.905455 351.314609 
L 223.243636 351.676174 
L 223.581818 351.544696 
L 223.92 351.281739 
L 224.258182 351.281739 
L 224.596364 351.906261 
L 225.272727 352.070609 
L 225.610909 351.93913 
L 225.949091 352.333565 
L 226.287273 352.136348 
L 226.963636 352.202087 
L 227.64 352.465043 
L 227.978182 352.432174 
L 228.654545 352.728 
L 229.330909 352.69513 
L 230.007273 352.662261 
L 230.683636 352.925217 
L 231.021818 353.188174 
L 231.36 352.69513 
L 232.036364 352.69513 
L 232.712727 352.563652 
L 235.08 352.892348 
L 235.756364 353.253913 
L 236.094545 353.023826 
L 236.432727 353.056696 
L 236.770909 352.826609 
L 237.109091 352.76087 
L 237.447273 352.037739 
L 238.123636 351.93913 
L 238.8 351.610435 
L 239.138182 351.577565 
L 239.476364 351.807652 
L 240.152727 350.788696 
L 240.490909 351.314609 
L 240.829091 351.380348 
L 241.167273 351.93913 
L 241.505455 352.037739 
L 242.181818 352.037739 
L 242.52 352.530783 
L 243.196364 352.432174 
L 243.534545 352.465043 
L 244.210909 352.859478 
L 244.549091 352.76087 
L 244.887273 352.432174 
L 245.225455 351.873391 
L 245.901818 351.972 
L 246.24 351.906261 
L 246.578182 352.136348 
L 247.254545 351.93913 
L 247.592727 352.267826 
L 247.930909 352.267826 
L 248.269091 352.432174 
L 248.607273 352.399304 
L 248.945455 352.990957 
L 249.621818 352.826609 
L 250.298182 352.793739 
L 250.636364 352.76087 
L 250.974545 353.418261 
L 251.989091 353.45113 
L 252.327273 353.286783 
L 252.665455 354.042783 
L 253.003636 354.042783 
L 253.341818 353.911304 
L 253.68 353.484 
L 254.018182 353.45113 
L 254.356364 353.615478 
L 254.694545 353.45113 
L 255.032727 353.122435 
L 256.047273 353.352522 
L 256.385455 353.385391 
L 256.723636 353.221043 
L 257.4 353.155304 
L 257.738182 353.45113 
L 258.076364 353.056696 
L 258.414545 352.892348 
L 258.752727 352.892348 
L 259.429091 352.465043 
L 259.767273 352.267826 
L 260.105455 352.300696 
L 261.458182 351.741913 
L 261.796364 351.610435 
L 262.134545 351.610435 
L 262.472727 351.150261 
L 262.810909 350.985913 
L 263.149091 351.018783 
L 263.487273 350.690087 
L 263.825455 350.690087 
L 264.163636 350.065565 
L 264.501818 350.032696 
L 265.178182 350.591478 
L 265.516364 350.46 
L 265.854545 350.032696 
L 266.192727 349.901217 
L 266.530909 349.210957 
L 266.869091 349.276696 
L 267.545455 349.013739 
L 267.883636 348.619304 
L 268.898182 348.849391 
L 269.574545 348.882261 
L 269.912727 349.145217 
L 270.250909 349.145217 
L 270.927273 348.849391 
L 271.603636 349.178087 
L 272.28 349.769739 
L 272.618182 349.079478 
L 273.294545 349.178087 
L 273.632727 349.408174 
L 273.970909 349.934087 
L 274.309091 349.802609 
L 275.323636 349.704 
L 275.661818 349.638261 
L 276 349.73687 
L 276.338182 348.717913 
L 278.029091 348.652174 
L 278.367273 349.013739 
L 278.705455 349.210957 
L 279.043636 349.769739 
L 279.381818 349.638261 
L 279.72 349.638261 
L 280.058182 349.342435 
L 280.734545 349.506783 
L 281.072727 349.178087 
L 281.410909 349.079478 
L 281.749091 348.619304 
L 282.425455 348.487826 
L 282.763636 348.257739 
L 283.101818 347.46887 
L 283.44 347.731826 
L 284.116364 347.961913 
L 285.469091 347.46887 
L 285.807273 347.600348 
L 286.145455 347.929043 
L 286.483636 347.764696 
L 287.16 347.830435 
L 287.836364 347.994783 
L 288.174545 347.731826 
L 288.512727 347.797565 
L 288.850909 348.027652 
L 289.527273 347.896174 
L 289.865455 347.764696 
L 290.203636 348.290609 
L 290.541818 348.454957 
L 290.88 348.454957 
L 291.218182 348.323478 
L 291.556364 348.389217 
L 291.894545 348.849391 
L 292.232727 349.013739 
L 292.570909 348.619304 
L 293.247273 348.257739 
L 293.923636 348.389217 
L 294.6 348.652174 
L 295.276364 348.454957 
L 295.952727 348.454957 
L 296.290909 348.816522 
L 297.305455 349.375304 
L 297.643636 349.342435 
L 297.981818 349.966957 
L 298.658182 349.112348 
L 298.996364 349.309565 
L 299.334545 349.342435 
L 300.010909 349.73687 
L 300.349091 350.42713 
L 300.687273 350.098435 
L 301.025455 350.42713 
L 301.363636 350.361391 
L 301.701818 350.755826 
L 302.716364 350.821565 
L 303.054545 350.953043 
L 303.392727 350.854435 
L 303.730909 350.065565 
L 304.069091 350.032696 
L 304.745455 349.802609 
L 305.083636 350.394261 
L 305.421818 350.394261 
L 305.76 349.539652 
L 306.098182 349.539652 
L 306.436364 350.295652 
L 306.774545 349.868348 
L 307.112727 349.67113 
L 307.450909 348.98087 
L 308.127273 348.882261 
L 308.465455 349.079478 
L 309.141818 348.882261 
L 309.48 349.276696 
L 309.818182 349.276696 
L 310.156364 350.197043 
L 310.494545 350.262783 
L 310.832727 350.755826 
L 311.509091 350.854435 
L 312.523636 350.197043 
L 312.861818 349.868348 
L 313.2 349.934087 
L 313.538182 348.783652 
L 313.876364 349.145217 
L 314.214545 349.145217 
L 314.552727 348.948 
L 314.890909 348.91513 
L 315.229091 349.046609 
L 315.567273 349.342435 
L 315.905455 349.145217 
L 316.243636 348.619304 
L 316.581818 348.750783 
L 316.92 349.473913 
L 317.258182 349.145217 
L 317.934545 349.046609 
L 318.272727 348.750783 
L 318.610909 348.750783 
L 318.949091 348.586435 
L 319.287273 348.750783 
L 319.963636 347.600348 
L 320.301818 347.764696 
L 320.64 347.337391 
L 320.978182 347.40313 
L 321.316364 347.173043 
L 321.654545 347.173043 
L 321.992727 347.600348 
L 322.669091 347.731826 
L 323.007273 347.929043 
L 323.345455 347.830435 
L 323.683636 347.961913 
L 324.36 347.797565 
L 324.698182 347.074435 
L 325.036364 347.370261 
L 325.374545 347.107304 
L 325.712727 347.107304 
L 326.050909 346.975826 
L 326.389091 346.252696 
L 327.065455 346.68 
L 327.741818 346.581391 
L 328.418182 346.64713 
L 328.756364 346.482783 
L 329.094545 346.68 
L 329.770909 345.989739 
L 330.109091 346.121217 
L 330.447273 345.989739 
L 330.785455 345.036522 
L 331.123636 344.642087 
L 331.461818 344.576348 
L 331.8 343.886087 
L 332.138182 344.280522 
L 332.476364 344.44487 
L 332.814545 344.346261 
L 333.490909 344.543478 
L 333.829091 344.510609 
L 334.167273 344.280522 
L 334.505455 343.754609 
L 334.843636 342.998609 
L 335.181818 343.228696 
L 335.52 343.195826 
L 335.858182 342.9 
L 336.196364 342.768522 
L 336.872727 342.11113 
L 337.210909 342.11113 
L 337.549091 342.406957 
L 337.887273 342.242609 
L 338.225455 342.834261 
L 338.563636 343.097217 
L 338.901818 342.86713 
L 339.24 342.93287 
L 339.578182 343.557391 
L 340.254545 343.360174 
L 340.592727 343.787478 
L 340.930909 343.787478 
L 341.269091 344.44487 
L 341.607273 344.37913 
L 341.945455 344.477739 
L 342.621818 344.313391 
L 342.96 344.346261 
L 343.298182 344.017565 
L 343.636364 343.393043 
L 343.974545 343.491652 
L 344.312727 343.195826 
L 344.989091 343.228696 
L 345.327273 343.491652 
L 345.665455 343.261565 
L 346.68 343.951826 
L 347.018182 344.050435 
L 347.356364 345.168 
L 348.032727 344.872174 
L 348.370909 345.20087 
L 349.047273 345.003652 
L 349.385455 345.168 
L 349.723636 345.168 
L 350.061818 345.595304 
L 350.4 345.463826 
L 350.738182 345.595304 
L 351.076364 345.924 
L 351.752727 345.759652 
L 352.090909 346.154087 
L 352.429091 345.529565 
L 352.767273 345.693913 
L 353.105455 345.628174 
L 353.781818 346.778609 
L 354.12 346.384174 
L 354.458182 346.384174 
L 354.796364 346.055478 
L 355.134545 346.384174 
L 355.472727 346.351304 
L 355.810909 346.186957 
L 356.825455 346.121217 
L 357.163636 346.318435 
L 357.501818 345.989739 
L 357.84 345.266609 
L 358.178182 345.365217 
L 358.516364 345.858261 
L 358.854545 345.628174 
L 359.192727 345.759652 
L 359.530909 345.661043 
L 359.869091 345.299478 
L 360.207273 346.351304 
L 360.545455 346.614261 
L 361.221818 346.285565 
L 361.56 346.417043 
L 361.898182 345.924 
L 362.236364 345.924 
L 362.574545 346.154087 
L 362.912727 346.022609 
L 363.589091 346.942957 
L 363.927273 346.548522 
L 364.265455 346.581391 
L 364.603636 346.942957 
L 364.941818 347.501739 
L 365.28 347.633217 
L 365.618182 347.929043 
L 365.956364 347.600348 
L 366.632727 347.961913 
L 366.970909 347.764696 
L 367.647273 347.238783 
L 367.985455 347.370261 
L 368.661818 348.783652 
L 369 348.849391 
L 369.338182 348.553565 
L 369.676364 348.454957 
L 370.014545 347.534609 
L 371.029091 347.337391 
L 371.367273 347.764696 
L 372.043636 347.698957 
L 372.381818 347.370261 
L 373.058182 347.370261 
L 373.734545 346.942957 
L 374.072727 347.074435 
L 374.410909 347.041565 
L 374.749091 346.71287 
L 375.425455 346.811478 
L 375.763636 346.778609 
L 376.101818 346.942957 
L 376.778182 346.68 
L 377.116364 346.745739 
L 377.454545 347.337391 
L 377.792727 347.238783 
L 378.130909 347.337391 
L 378.469091 346.68 
L 379.821818 346.778609 
L 380.16 347.041565 
L 380.498182 346.745739 
L 381.174545 346.417043 
L 381.850909 346.121217 
L 382.189091 345.595304 
L 382.527273 345.95687 
L 382.865455 345.89113 
L 383.203636 345.628174 
L 383.541818 345.825391 
L 383.88 345.726783 
L 384.218182 345.759652 
L 384.556364 345.661043 
L 385.570909 344.576348 
L 385.909091 343.853217 
L 386.247273 344.44487 
L 386.923636 343.458783 
L 387.261818 343.097217 
L 387.938182 342.801391 
L 388.276364 342.93287 
L 388.952727 343.393043 
L 389.290909 343.097217 
L 390.305455 343.458783 
L 390.981818 343.458783 
L 391.32 343.68887 
L 391.658182 343.721739 
L 391.996364 343.590261 
L 392.334545 343.327304 
L 392.672727 343.425913 
L 393.010909 343.360174 
L 393.349091 343.458783 
L 393.687273 343.853217 
L 394.025455 343.820348 
L 394.363636 343.524522 
L 395.04 343.951826 
L 395.378182 343.491652 
L 395.716364 343.557391 
L 396.730909 343.458783 
L 397.069091 343.031478 
L 398.083636 342.702783 
L 398.421818 343.228696 
L 400.112727 343.524522 
L 400.450909 343.228696 
L 400.789091 343.327304 
L 401.127273 343.130087 
L 401.465455 343.097217 
L 401.803636 343.228696 
L 402.141818 342.834261 
L 402.48 342.637043 
L 403.156364 342.702783 
L 403.494545 343.097217 
L 403.832727 343.853217 
L 404.170909 344.181913 
L 404.509091 344.280522 
L 404.847273 341.815304 
L 405.185455 340.829217 
L 405.861818 340.138957 
L 406.2 340.500522 
L 406.538182 340.500522 
L 406.876364 340.040348 
L 407.214545 340.467652 
L 407.552727 340.66487 
L 408.229091 340.467652 
L 408.567273 340.763478 
L 408.905455 339.645913 
L 409.243636 339.382957 
L 409.581818 339.580174 
L 410.258182 339.185739 
L 411.272727 339.218609 
L 411.610909 339.054261 
L 411.949091 339.12 
L 412.287273 339.678783 
L 413.64 339.514435 
L 413.978182 339.12 
L 414.316364 339.317217 
L 414.992727 338.988522 
L 415.330909 339.15287 
L 415.669091 339.08713 
L 416.007273 338.659826 
L 416.345455 338.462609 
L 416.683636 337.805217 
L 417.021818 338.035304 
L 417.36 337.805217 
L 417.698182 338.101043 
L 418.036364 338.101043 
L 418.374545 337.936696 
L 418.712727 338.035304 
L 419.050909 338.495478 
L 419.389091 338.692696 
L 419.727273 339.185739 
L 420.065455 338.495478 
L 420.403636 338.922783 
L 421.418182 339.415826 
L 421.756364 339.84313 
L 422.094545 340.073217 
L 422.770909 340.106087 
L 423.109091 340.434783 
L 424.123636 339.744522 
L 424.461818 339.678783 
L 424.8 339.448696 
L 425.138182 338.528348 
L 425.476364 339.218609 
L 425.814545 339.514435 
L 426.152727 340.007478 
L 426.490909 340.237565 
L 426.829091 339.974609 
L 427.167273 340.007478 
L 427.505455 339.876 
L 428.52 339.90887 
L 428.858182 340.106087 
L 429.196364 340.106087 
L 429.534545 340.303304 
L 429.872727 340.138957 
L 430.210909 340.106087 
L 430.549091 339.941739 
L 430.887273 340.073217 
L 431.225455 339.645913 
L 431.563636 340.073217 
L 432.916364 339.711652 
L 433.254545 339.941739 
L 433.592727 339.974609 
L 433.930909 339.84313 
L 434.269091 339.580174 
L 434.607273 339.054261 
L 434.945455 339.08713 
L 435.283636 339.382957 
L 435.621818 339.350087 
L 435.96 339.054261 
L 436.298182 337.509391 
L 436.974545 336.983478 
L 437.312727 335.898783 
L 437.650909 336.06313 
L 437.989091 335.471478 
L 438.327273 335.208522 
L 438.665455 337.936696 
L 439.003636 338.988522 
L 439.341818 338.298261 
L 439.68 338.758435 
L 440.018182 338.725565 
L 440.356364 338.988522 
L 440.694545 338.955652 
L 441.370909 338.166783 
L 441.709091 337.049217 
L 442.047273 336.720522 
L 442.385455 335.931652 
L 442.723636 336.490435 
L 443.061818 335.274261 
L 443.4 335.142783 
L 443.738182 334.058087 
L 444.076364 334.386783 
L 444.752727 334.682609 
L 445.429091 334.386783 
L 445.767273 333.072 
L 446.105455 332.250261 
L 446.781818 331.691478 
L 447.12 332.151652 
L 447.458182 330.475304 
L 447.796364 328.075826 
L 448.134545 328.273043 
L 448.810909 328.930435 
L 449.825455 327.286957 
L 450.163636 327.648522 
L 450.501818 328.50313 
L 450.84 328.371652 
L 451.178182 328.404522 
L 451.516364 327.78 
L 451.854545 327.977217 
L 452.192727 326.005043 
L 452.869091 326.268 
L 453.207273 324.328696 
L 453.545455 323.769913 
L 454.221818 324.525913 
L 454.56 324.098609 
L 455.236364 324.131478 
L 455.574545 323.769913 
L 455.912727 323.671304 
L 456.250909 323.27687 
L 456.589091 323.112522 
L 456.927273 321.994957 
L 457.603636 322.323652 
L 457.941818 321.896348 
L 458.28 321.666261 
L 458.618182 321.797739 
L 458.956364 322.816696 
L 459.294545 322.849565 
L 459.632727 322.553739 
L 460.647273 322.159304 
L 460.985455 321.633391 
L 461.323636 321.732 
L 461.661818 321.666261 
L 462.338182 322.060696 
L 462.676364 321.76487 
L 463.352727 319.759826 
L 463.690909 319.957043 
L 464.367273 319.562609 
L 464.705455 319.529739 
L 465.043636 320.055652 
L 465.381818 319.102435 
L 466.058182 319.529739 
L 467.072727 319.365391 
L 467.410909 319.726957 
L 467.749091 319.726957 
L 468.087273 318.938087 
L 468.425455 319.266783 
L 468.763636 319.957043 
L 469.101818 319.398261 
L 469.44 319.266783 
L 469.778182 319.792696 
L 470.116364 321.534783 
L 470.792727 321.238957 
L 471.130909 322.257913 
L 471.469091 322.389391 
L 472.145455 323.244 
L 472.483636 322.060696 
L 472.821818 322.027826 
L 473.16 322.389391 
L 473.498182 322.389391 
L 473.836364 322.257913 
L 474.174545 321.797739 
L 474.512727 322.257913 
L 474.850909 322.488 
L 475.189091 322.422261 
L 475.527273 323.638435 
L 475.865455 324.098609 
L 476.203636 325.084696 
L 476.541818 325.577739 
L 476.88 324.427304 
L 477.218182 323.868522 
L 477.556364 324.887478 
L 477.894545 325.117565 
L 478.232727 324.657391 
L 478.909091 324.460174 
L 479.247273 324.78887 
L 479.585455 326.202261 
L 479.923636 326.761043 
L 480.261818 326.761043 
L 480.6 326.892522 
L 480.938182 326.662435 
L 481.276364 328.338783 
L 481.614545 331.132696 
L 481.952727 331.066957 
L 482.290909 329.982261 
L 482.629091 329.620696 
L 483.643636 331.297043 
L 484.32 330.508174 
L 484.658182 330.212348 
L 484.996364 329.719304 
L 485.334545 330.146609 
L 485.672727 330.179478 
L 486.010909 332.414609 
L 486.349091 332.546087 
L 486.687273 332.28313 
L 487.025455 334.288174 
L 487.363636 334.879826 
L 487.701818 335.142783 
L 488.04 335.011304 
L 488.378182 333.992348 
L 488.716364 333.334957 
L 489.054545 330.738261 
L 489.392727 329.423478 
L 489.730909 329.127652 
L 490.069091 328.437391 
L 490.407273 328.50313 
L 490.745455 329.587826 
L 491.083636 329.522087 
L 491.421818 329.25913 
L 491.76 329.850783 
L 492.436364 329.25913 
L 492.774545 327.582783 
L 493.112727 327.122609 
L 493.450909 327.221217 
L 493.789091 327.122609 
L 494.127273 326.761043 
L 494.465455 327.319826 
L 494.803636 325.051826 
L 495.141818 324.230087 
L 495.48 324.361565 
L 495.818182 324.262957 
L 496.494545 323.309739 
L 496.832727 324.854609 
L 497.170909 324.525913 
L 497.509091 322.718087 
L 497.847273 323.079652 
L 498.185455 321.436174 
L 498.523636 321.041739 
L 498.861818 320.877391 
L 499.2 321.962087 
L 499.538182 322.027826 
L 499.876364 321.732 
L 500.214545 321.797739 
L 500.890909 321.469043 
L 501.229091 321.469043 
L 501.567273 321.206087 
L 501.905455 319.792696 
L 502.581818 319.003826 
L 502.92 317.91913 
L 503.258182 315.815478 
L 503.596364 315.71687 
L 503.934545 315.026609 
L 504.272727 315.322435 
L 504.610909 315.190957 
L 504.949091 315.256696 
L 505.287273 314.172 
L 505.963636 311.016522 
L 506.301818 312.134087 
L 506.64 310.392 
L 506.978182 311.049391 
L 507.316364 310.161913 
L 507.654545 310.293391 
L 507.992727 310.556348 
L 508.330909 310.457739 
L 508.669091 310.490609 
L 509.007273 310.030435 
L 510.021818 305.231478 
L 510.36 305.428696 
L 510.698182 308.222609 
L 511.036364 308.748522 
L 511.374545 308.814261 
L 511.712727 307.532348 
L 512.050909 305.06713 
L 512.389091 304.935652 
L 513.065455 302.79913 
L 513.403636 302.503304 
L 513.741818 302.536174 
L 514.08 301.681565 
L 514.418182 301.648696 
L 514.756364 301.813043 
L 515.432727 301.484348 
L 515.770909 301.615826 
L 516.109091 302.470435 
L 516.447273 302.832 
L 516.785455 302.897739 
L 517.123636 302.141739 
L 517.461818 302.536174 
L 517.8 300.169565 
L 519.152727 300.169565 
L 519.829091 299.08487 
L 520.167273 298.427478 
L 520.505455 298.065913 
L 520.843636 298.098783 
L 521.52 297.605739 
L 521.858182 297.704348 
L 522.196364 299.380696 
L 522.534545 298.361739 
L 522.872727 300.399652 
L 523.210909 301.484348 
L 523.549091 299.150609 
L 523.887273 300.169565 
L 524.225455 299.972348 
L 524.563636 299.939478 
L 524.901818 299.709391 
L 525.24 300.038087 
L 525.578182 297.244174 
L 525.916364 297.835826 
L 526.254545 297.967304 
L 526.592727 299.314957 
L 526.930909 298.460348 
L 527.269091 298.657565 
L 528.283636 292.248 
L 528.621818 294.844696 
L 528.96 295.797913 
L 529.298182 295.732174 
L 529.636364 293.102609 
L 529.974545 291.52487 
L 530.312727 292.313739 
L 530.650909 292.21513 
L 531.327273 295.173391 
L 531.665455 295.107652 
L 532.003636 297.014087 
L 532.341818 297.737217 
L 532.68 297.277043 
L 533.018182 297.309913 
L 533.356364 297.211304 
L 533.694545 296.586783 
L 534.032727 296.422435 
L 534.370909 294.54887 
L 534.709091 294.581739 
L 535.385455 289.454087 
L 535.723636 292.248 
L 536.061818 292.609565 
L 536.4 291.261913 
L 536.738182 292.773913 
L 537.076364 295.009043 
L 537.414545 295.23913 
L 537.752727 296.159478 
L 538.090909 296.258087 
L 538.767273 295.534957 
L 539.105455 296.652522 
L 539.443636 295.633565 
L 539.781818 297.014087 
L 540.12 297.112696 
L 540.458182 298.723304 
L 540.796364 297.441391 
L 541.134545 298.033043 
L 541.472727 297.309913 
L 541.810909 297.244174 
L 542.487273 296.389565 
L 542.825455 297.408522 
L 543.163636 298.065913 
L 543.501818 299.808 
L 543.84 300.794087 
L 544.178182 300.399652 
L 544.516364 300.399652 
L 545.192727 299.314957 
L 545.530909 300.366783 
L 545.869091 303.292174 
L 546.207273 303.062087 
L 546.545455 304.37687 
L 546.883636 304.574087 
L 547.221818 303.193565 
L 547.56 303.390783 
L 547.898182 303.949565 
L 548.236364 303.916696 
L 548.574545 302.338957 
L 548.912727 302.470435 
L 549.250909 302.371826 
L 549.589091 301.418609 
L 549.927273 301.517217 
L 550.265455 301.024174 
L 550.603636 301.155652 
L 550.941818 302.437565 
L 551.28 302.371826 
L 551.618182 305.06713 
L 551.956364 304.508348 
L 552.294545 304.179652 
L 553.309091 305.198609 
L 554.323636 307.072174 
L 554.661818 306.842087 
L 555 307.368 
L 555.338182 307.236522 
L 555.676364 307.302261 
L 556.014545 306.513391 
L 556.352727 308.321217 
L 557.029091 308.814261 
L 557.367273 311.575304 
L 557.705455 309.701739 
L 558.043636 310.030435 
L 558.381818 310.161913 
L 558.72 308.814261 
L 559.058182 308.288348 
L 559.396364 310.457739 
L 560.072727 308.84713 
L 560.410909 308.386957 
L 560.749091 308.222609 
L 561.087273 307.039304 
L 561.425455 308.715652 
L 561.763636 309.471652 
L 562.101818 311.443826 
L 562.44 311.575304 
L 562.778182 311.509565 
L 563.116364 311.608174 
L 563.454545 314.369217 
L 563.792727 315.453913 
L 564.130909 314.96087 
L 564.469091 314.96087 
L 564.807273 313.580348 
L 565.483636 313.876174 
L 566.16 309.570261 
L 566.498182 310.194783 
L 566.836364 309.636 
L 567.174545 308.748522 
L 567.512727 309.110087 
L 567.850909 308.189739 
L 568.189091 309.66887 
L 568.527273 309.800348 
L 568.865455 311.805391 
L 569.203636 314.533565 
L 569.541818 314.434957 
L 569.88 314.665043 
L 570.218182 315.059478 
L 570.556364 312.462783 
L 571.232727 310.556348 
L 571.909091 310.227652 
L 572.247273 309.504522 
L 572.923636 309.537391 
L 573.261818 311.772522 
L 573.6 311.673913 
L 573.938182 311.049391 
L 574.276364 311.049391 
L 574.614545 311.279478 
L 574.952727 309.701739 
L 575.290909 310.293391 
L 575.629091 310.161913 
L 575.967273 310.589217 
L 576.305455 310.622087 
L 576.643636 310.260522 
L 576.981818 310.753565 
L 577.32 311.049391 
L 577.658182 310.786435 
L 577.996364 311.279478 
L 578.334545 310.983652 
L 578.672727 310.293391 
L 579.349091 310.589217 
L 579.687273 310.260522 
L 580.025455 309.340174 
L 580.363636 308.748522 
L 580.701818 309.044348 
L 581.04 310.753565 
L 581.378182 310.687826 
L 581.716364 310.490609 
L 582.054545 309.734609 
L 582.392727 311.345217 
L 583.069091 311.542435 
L 583.407273 312.298435 
L 583.745455 311.805391 
L 584.083636 312.298435 
L 584.421818 309.537391 
L 584.76 309.274435 
L 585.098182 309.60313 
L 585.436364 308.978609 
L 585.774545 308.09113 
L 586.112727 308.682783 
L 586.450909 308.222609 
L 586.789091 308.288348 
L 587.127273 306.809217 
L 587.465455 306.612 
L 588.48 306.546261 
L 588.818182 306.250435 
L 589.156364 306.64487 
L 589.494545 306.053217 
L 589.832727 306.710609 
L 590.170909 306.349043 
L 590.509091 306.612 
L 590.847273 307.039304 
L 591.185455 306.973565 
L 591.523636 308.584174 
L 592.2 308.058261 
L 592.876364 308.88 
L 593.214545 309.504522 
L 593.552727 309.66887 
L 593.890909 310.687826 
L 594.567273 311.739652 
L 594.905455 311.312348 
L 595.581818 312.232696 
L 595.92 312.955826 
L 596.258182 312.69287 
L 596.596364 312.62713 
L 596.934545 311.739652 
L 597.272727 311.410957 
L 597.610909 312.199826 
L 597.949091 311.772522 
L 598.287273 311.148 
L 598.625455 312.561391 
L 598.963636 311.87113 
L 599.301818 311.608174 
L 599.978182 316.012696 
L 600.654545 315.552522 
L 601.330909 316.341391 
L 601.669091 317.327478 
L 602.007273 317.623304 
L 602.345455 317.524696 
L 602.683636 317.91913 
L 603.021818 317.91913 
L 603.36 317.426087 
L 603.698182 315.979826 
L 604.036364 316.735826 
L 604.374545 319.069565 
L 605.050909 320.581565 
L 605.389091 320.450087 
L 605.727273 318.806609 
L 606.065455 320.482957 
L 606.403636 320.285739 
L 606.741818 318.543652 
L 607.08 318.182087 
L 608.094545 318.280696 
L 608.432727 319.464 
L 608.770909 319.825565 
L 609.447273 319.858435 
L 609.785455 319.036696 
L 610.8 319.957043 
L 611.138182 319.825565 
L 611.476364 320.055652 
L 611.814545 319.891304 
L 612.152727 318.938087 
L 612.490909 318.872348 
L 612.829091 318.576522 
L 613.167273 318.642261 
L 613.505455 319.069565 
L 613.843636 320.351478 
L 614.52 321.074609 
L 614.858182 320.154261 
L 615.196364 319.989913 
L 615.534545 320.548696 
L 615.872727 321.501913 
L 616.210909 319.595478 
L 616.549091 318.642261 
L 616.887273 318.313565 
L 617.563636 318.839478 
L 617.901818 318.67513 
L 618.24 321.436174 
L 618.578182 320.581565 
L 618.916364 320.548696 
L 619.254545 321.074609 
L 619.592727 322.882435 
L 619.930909 322.619478 
L 620.269091 323.21113 
L 620.607273 323.046783 
L 620.945455 324.525913 
L 621.283636 324.72313 
L 621.96 323.737043 
L 622.298182 323.572696 
L 622.636364 323.802783 
L 622.636364 323.802783 
" clip-path="url(#pfb1da4919f)" style="fill: none; stroke: #0000ff; stroke-width: 2; stroke-linecap: square"/>
   </g>
   <g id="patch_3">
    <path d="M 90 384.48 
L 90 51.84 
" style="fill: none; stroke: #000000; stroke-width: 0.8; stroke-linejoin: miter; stroke-linecap: square"/>
   </g>
   <g id="patch_4">
    <path d="M 648 384.48 
L 648 51.84 
" style="fill: none; stroke: #000000; stroke-width: 0.8; stroke-linejoin: miter; stroke-linecap: square"/>
   </g>
   <g id="patch_5">
    <path d="M 90 384.48 
L 648 384.48 
" style="fill: none; stroke: #000000; stroke-width: 0.8; stroke-linejoin: miter; stroke-linecap: square"/>
   </g>
   <g id="patch_6">
    <path d="M 90 51.84 
L 648 51.84 
" style="fill: none; stroke: #000000; stroke-width: 0.8; stroke-linejoin: miter; stroke-linecap: square"/>
   </g>
   <g id="text_16">
    <!-- DQN Performance on Frozen Lake -->
    <g transform="translate(268.4175 45.84) scale(0.12 -0.12)">
     <defs>
      <path id="DejaVuSans-44" d="M 1259 4147 
L 1259 519 
L 2022 519 
Q 2988 519 3436 956 
Q 3884 1394 3884 2338 
Q 3884 3275 3436 3711 
Q 2988 4147 2022 4147 
L 1259 4147 
z
M 628 4666 
L 1925 4666 
Q 3281 4666 3915 4102 
Q 4550 3538 4550 2338 
Q 4550 1131 3912 565 
Q 3275 0 1925 0 
L 628 0 
L 628 4666 
z
" transform="scale(0.015625)"/>
      <path id="DejaVuSans-51" d="M 2522 4238 
Q 1834 4238 1429 3725 
Q 1025 3213 1025 2328 
Q 1025 1447 1429 934 
Q 1834 422 2522 422 
Q 3209 422 3611 934 
Q 4013 1447 4013 2328 
Q 4013 3213 3611 3725 
Q 3209 4238 2522 4238 
z
M 3406 84 
L 4238 -825 
L 3475 -825 
L 2784 -78 
Q 2681 -84 2626 -87 
Q 2572 -91 2522 -91 
Q 1538 -91 948 567 
Q 359 1225 359 2328 
Q 359 3434 948 4092 
Q 1538 4750 2522 4750 
Q 3503 4750 4090 4092 
Q 4678 3434 4678 2328 
Q 4678 1516 4351 937 
Q 4025 359 3406 84 
z
" transform="scale(0.015625)"/>
      <path id="DejaVuSans-4e" d="M 628 4666 
L 1478 4666 
L 3547 763 
L 3547 4666 
L 4159 4666 
L 4159 0 
L 3309 0 
L 1241 3903 
L 1241 0 
L 628 0 
L 628 4666 
z
" transform="scale(0.015625)"/>
      <path id="DejaVuSans-50" d="M 1259 4147 
L 1259 2394 
L 2053 2394 
Q 2494 2394 2734 2622 
Q 2975 2850 2975 3272 
Q 2975 3691 2734 3919 
Q 2494 4147 2053 4147 
L 1259 4147 
z
M 628 4666 
L 2053 4666 
Q 2838 4666 3239 4311 
Q 3641 3956 3641 3272 
Q 3641 2581 3239 2228 
Q 2838 1875 2053 1875 
L 1259 1875 
L 1259 0 
L 628 0 
L 628 4666 
z
" transform="scale(0.015625)"/>
      <path id="DejaVuSans-66" d="M 2375 4863 
L 2375 4384 
L 1825 4384 
Q 1516 4384 1395 4259 
Q 1275 4134 1275 3809 
L 1275 3500 
L 2222 3500 
L 2222 3053 
L 1275 3053 
L 1275 0 
L 697 0 
L 697 3053 
L 147 3053 
L 147 3500 
L 697 3500 
L 697 3744 
Q 697 4328 969 4595 
Q 1241 4863 1831 4863 
L 2375 4863 
z
" transform="scale(0.015625)"/>
      <path id="DejaVuSans-6e" d="M 3513 2113 
L 3513 0 
L 2938 0 
L 2938 2094 
Q 2938 2591 2744 2837 
Q 2550 3084 2163 3084 
Q 1697 3084 1428 2787 
Q 1159 2491 1159 1978 
L 1159 0 
L 581 0 
L 581 3500 
L 1159 3500 
L 1159 2956 
Q 1366 3272 1645 3428 
Q 1925 3584 2291 3584 
Q 2894 3584 3203 3211 
Q 3513 2838 3513 2113 
z
" transform="scale(0.015625)"/>
      <path id="DejaVuSans-63" d="M 3122 3366 
L 3122 2828 
Q 2878 2963 2633 3030 
Q 2388 3097 2138 3097 
Q 1578 3097 1268 2742 
Q 959 2388 959 1747 
Q 959 1106 1268 751 
Q 1578 397 2138 397 
Q 2388 397 2633 464 
Q 2878 531 3122 666 
L 3122 134 
Q 2881 22 2623 -34 
Q 2366 -91 2075 -91 
Q 1284 -91 818 406 
Q 353 903 353 1747 
Q 353 2603 823 3093 
Q 1294 3584 2113 3584 
Q 2378 3584 2631 3529 
Q 2884 3475 3122 3366 
z
" transform="scale(0.015625)"/>
      <path id="DejaVuSans-46" d="M 628 4666 
L 3309 4666 
L 3309 4134 
L 1259 4134 
L 1259 2759 
L 3109 2759 
L 3109 2228 
L 1259 2228 
L 1259 0 
L 628 0 
L 628 4666 
z
" transform="scale(0.015625)"/>
      <path id="DejaVuSans-7a" d="M 353 3500 
L 3084 3500 
L 3084 2975 
L 922 459 
L 3084 459 
L 3084 0 
L 275 0 
L 275 525 
L 2438 3041 
L 353 3041 
L 353 3500 
z
" transform="scale(0.015625)"/>
      <path id="DejaVuSans-4c" d="M 628 4666 
L 1259 4666 
L 1259 531 
L 3531 531 
L 3531 0 
L 628 0 
L 628 4666 
z
" transform="scale(0.015625)"/>
      <path id="DejaVuSans-6b" d="M 581 4863 
L 1159 4863 
L 1159 1991 
L 2875 3500 
L 3609 3500 
L 1753 1863 
L 3688 0 
L 2938 0 
L 1159 1709 
L 1159 0 
L 581 0 
L 581 4863 
z
" transform="scale(0.015625)"/>
     </defs>
     <use xlink:href="#DejaVuSans-44"/>
     <use xlink:href="#DejaVuSans-51" transform="translate(77.001953 0)"/>
     <use xlink:href="#DejaVuSans-4e" transform="translate(155.712891 0)"/>
     <use xlink:href="#DejaVuSans-20" transform="translate(230.517578 0)"/>
     <use xlink:href="#DejaVuSans-50" transform="translate(262.304688 0)"/>
     <use xlink:href="#DejaVuSans-65" transform="translate(318.982422 0)"/>
     <use xlink:href="#DejaVuSans-72" transform="translate(380.505859 0)"/>
     <use xlink:href="#DejaVuSans-66" transform="translate(421.619141 0)"/>
     <use xlink:href="#DejaVuSans-6f" transform="translate(456.824219 0)"/>
     <use xlink:href="#DejaVuSans-72" transform="translate(518.005859 0)"/>
     <use xlink:href="#DejaVuSans-6d" transform="translate(557.369141 0)"/>
     <use xlink:href="#DejaVuSans-61" transform="translate(654.78125 0)"/>
     <use xlink:href="#DejaVuSans-6e" transform="translate(716.060547 0)"/>
     <use xlink:href="#DejaVuSans-63" transform="translate(779.439453 0)"/>
     <use xlink:href="#DejaVuSans-65" transform="translate(834.419922 0)"/>
     <use xlink:href="#DejaVuSans-20" transform="translate(895.943359 0)"/>
     <use xlink:href="#DejaVuSans-6f" transform="translate(927.730469 0)"/>
     <use xlink:href="#DejaVuSans-6e" transform="translate(988.912109 0)"/>
     <use xlink:href="#DejaVuSans-20" transform="translate(1052.291016 0)"/>
     <use xlink:href="#DejaVuSans-46" transform="translate(1084.078125 0)"/>
     <use xlink:href="#DejaVuSans-72" transform="translate(1134.347656 0)"/>
     <use xlink:href="#DejaVuSans-6f" transform="translate(1173.210938 0)"/>
     <use xlink:href="#DejaVuSans-7a" transform="translate(1234.392578 0)"/>
     <use xlink:href="#DejaVuSans-65" transform="translate(1286.882812 0)"/>
     <use xlink:href="#DejaVuSans-6e" transform="translate(1348.40625 0)"/>
     <use xlink:href="#DejaVuSans-20" transform="translate(1411.785156 0)"/>
     <use xlink:href="#DejaVuSans-4c" transform="translate(1443.572266 0)"/>
     <use xlink:href="#DejaVuSans-61" transform="translate(1499.285156 0)"/>
     <use xlink:href="#DejaVuSans-6b" transform="translate(1560.564453 0)"/>
     <use xlink:href="#DejaVuSans-65" transform="translate(1614.849609 0)"/>
    </g>
   </g>
   <g id="legend_1">
    <g id="patch_7">
     <path d="M 97 89.19625 
L 279.65625 89.19625 
Q 281.65625 89.19625 281.65625 87.19625 
L 281.65625 58.84 
Q 281.65625 56.84 279.65625 56.84 
L 97 56.84 
Q 95 56.84 95 58.84 
L 95 87.19625 
Q 95 89.19625 97 89.19625 
z
" style="fill: #ffffff; opacity: 0.8; stroke: #cccccc; stroke-linejoin: miter"/>
    </g>
    <g id="line2d_29">
     <path d="M 99 64.938437 
L 109 64.938437 
L 119 64.938437 
" style="fill: none; stroke: #1f77b4; stroke-opacity: 0.3; stroke-width: 1.5; stroke-linecap: square"/>
    </g>
    <g id="text_17">
     <!-- Raw Rewards -->
     <g transform="translate(127 68.438437) scale(0.1 -0.1)">
      <use xlink:href="#DejaVuSans-52"/>
      <use xlink:href="#DejaVuSans-61" transform="translate(67.232422 0)"/>
      <use xlink:href="#DejaVuSans-77" transform="translate(128.511719 0)"/>
      <use xlink:href="#DejaVuSans-20" transform="translate(210.298828 0)"/>
      <use xlink:href="#DejaVuSans-52" transform="translate(242.085938 0)"/>
      <use xlink:href="#DejaVuSans-65" transform="translate(307.068359 0)"/>
      <use xlink:href="#DejaVuSans-77" transform="translate(368.591797 0)"/>
      <use xlink:href="#DejaVuSans-61" transform="translate(450.378906 0)"/>
      <use xlink:href="#DejaVuSans-72" transform="translate(511.658203 0)"/>
      <use xlink:href="#DejaVuSans-64" transform="translate(551.021484 0)"/>
      <use xlink:href="#DejaVuSans-73" transform="translate(614.498047 0)"/>
     </g>
    </g>
    <g id="line2d_30">
     <path d="M 99 79.616562 
L 109 79.616562 
L 119 79.616562 
" style="fill: none; stroke: #0000ff; stroke-width: 2; stroke-linecap: square"/>
    </g>
    <g id="text_18">
     <!-- Smoothed Avg (Window=100) -->
     <g transform="translate(127 83.116562) scale(0.1 -0.1)">
      <defs>
       <path id="DejaVuSans-53" d="M 3425 4513 
L 3425 3897 
Q 3066 4069 2747 4153 
Q 2428 4238 2131 4238 
Q 1616 4238 1336 4038 
Q 1056 3838 1056 3469 
Q 1056 3159 1242 3001 
Q 1428 2844 1947 2747 
L 2328 2669 
Q 3034 2534 3370 2195 
Q 3706 1856 3706 1288 
Q 3706 609 3251 259 
Q 2797 -91 1919 -91 
Q 1588 -91 1214 -16 
Q 841 59 441 206 
L 441 856 
Q 825 641 1194 531 
Q 1563 422 1919 422 
Q 2459 422 2753 634 
Q 3047 847 3047 1241 
Q 3047 1584 2836 1778 
Q 2625 1972 2144 2069 
L 1759 2144 
Q 1053 2284 737 2584 
Q 422 2884 422 3419 
Q 422 4038 858 4394 
Q 1294 4750 2059 4750 
Q 2388 4750 2728 4690 
Q 3069 4631 3425 4513 
z
" transform="scale(0.015625)"/>
       <path id="DejaVuSans-68" d="M 3513 2113 
L 3513 0 
L 2938 0 
L 2938 2094 
Q 2938 2591 2744 2837 
Q 2550 3084 2163 3084 
Q 1697 3084 1428 2787 
Q 1159 2491 1159 1978 
L 1159 0 
L 581 0 
L 581 4863 
L 1159 4863 
L 1159 2956 
Q 1366 3272 1645 3428 
Q 1925 3584 2291 3584 
Q 2894 3584 3203 3211 
Q 3513 2838 3513 2113 
z
" transform="scale(0.015625)"/>
       <path id="DejaVuSans-41" d="M 2188 4044 
L 1331 1722 
L 3047 1722 
L 2188 4044 
z
M 1831 4666 
L 2547 4666 
L 4325 0 
L 3669 0 
L 3244 1197 
L 1141 1197 
L 716 0 
L 50 0 
L 1831 4666 
z
" transform="scale(0.015625)"/>
       <path id="DejaVuSans-67" d="M 2906 1791 
Q 2906 2416 2648 2759 
Q 2391 3103 1925 3103 
Q 1463 3103 1205 2759 
Q 947 2416 947 1791 
Q 947 1169 1205 825 
Q 1463 481 1925 481 
Q 2391 481 2648 825 
Q 2906 1169 2906 1791 
z
M 3481 434 
Q 3481 -459 3084 -895 
Q 2688 -1331 1869 -1331 
Q 1566 -1331 1297 -1286 
Q 1028 -1241 775 -1147 
L 775 -588 
Q 1028 -725 1275 -790 
Q 1522 -856 1778 -856 
Q 2344 -856 2625 -561 
Q 2906 -266 2906 331 
L 2906 616 
Q 2728 306 2450 153 
Q 2172 0 1784 0 
Q 1141 0 747 490 
Q 353 981 353 1791 
Q 353 2603 747 3093 
Q 1141 3584 1784 3584 
Q 2172 3584 2450 3431 
Q 2728 3278 2906 2969 
L 2906 3500 
L 3481 3500 
L 3481 434 
z
" transform="scale(0.015625)"/>
       <path id="DejaVuSans-57" d="M 213 4666 
L 850 4666 
L 1831 722 
L 2809 4666 
L 3519 4666 
L 4500 722 
L 5478 4666 
L 6119 4666 
L 4947 0 
L 4153 0 
L 3169 4050 
L 2175 0 
L 1381 0 
L 213 4666 
z
" transform="scale(0.015625)"/>
      </defs>
      <use xlink:href="#DejaVuSans-53"/>
      <use xlink:href="#DejaVuSans-6d" transform="translate(63.476562 0)"/>
      <use xlink:href="#DejaVuSans-6f" transform="translate(160.888672 0)"/>
      <use xlink:href="#DejaVuSans-6f" transform="translate(222.070312 0)"/>
      <use xlink:href="#DejaVuSans-74" transform="translate(283.251953 0)"/>
      <use xlink:href="#DejaVuSans-68" transform="translate(322.460938 0)"/>
      <use xlink:href="#DejaVuSans-65" transform="translate(385.839844 0)"/>
      <use xlink:href="#DejaVuSans-64" transform="translate(447.363281 0)"/>
      <use xlink:href="#DejaVuSans-20" transform="translate(510.839844 0)"/>
      <use xlink:href="#DejaVuSans-41" transform="translate(542.626953 0)"/>
      <use xlink:href="#DejaVuSans-76" transform="translate(605.160156 0)"/>
      <use xlink:href="#DejaVuSans-67" transform="translate(664.339844 0)"/>
      <use xlink:href="#DejaVuSans-20" transform="translate(727.816406 0)"/>
      <use xlink:href="#DejaVuSans-28" transform="translate(759.603516 0)"/>
      <use xlink:href="#DejaVuSans-57" transform="translate(798.617188 0)"/>
      <use xlink:href="#DejaVuSans-69" transform="translate(895.244141 0)"/>
      <use xlink:href="#DejaVuSans-6e" transform="translate(923.027344 0)"/>
      <use xlink:href="#DejaVuSans-64" transform="translate(986.40625 0)"/>
      <use xlink:href="#DejaVuSans-6f" transform="translate(1049.882812 0)"/>
      <use xlink:href="#DejaVuSans-77" transform="translate(1111.064453 0)"/>
      <use xlink:href="#DejaVuSans-3d" transform="translate(1192.851562 0)"/>
      <use xlink:href="#DejaVuSans-31" transform="translate(1276.640625 0)"/>
      <use xlink:href="#DejaVuSans-30" transform="translate(1340.263672 0)"/>
      <use xlink:href="#DejaVuSans-30" transform="translate(1403.886719 0)"/>
      <use xlink:href="#DejaVuSans-29" transform="translate(1467.509766 0)"/>
     </g>
    </g>
   </g>
  </g>
 </g>
 <defs>
  <clipPath id="pfb1da4919f">
   <rect x="90" y="51.84" width="558" height="332.64"/>
  </clipPath>
 </defs>
</svg>
