<?xml version="1.0" encoding="utf-8" standalone="no"?>
<!DOCTYPE svg PUBLIC "-//W3C//DTD SVG 1.1//EN"
  "http://www.w3.org/Graphics/SVG/1.1/DTD/svg11.dtd">
<svg xmlns:xlink="http://www.w3.org/1999/xlink" width="720pt" height="288pt" viewBox="0 0 720 288" xmlns="http://www.w3.org/2000/svg" version="1.1">
 <metadata>
  <rdf:RDF xmlns:dc="http://purl.org/dc/elements/1.1/" xmlns:cc="http://creativecommons.org/ns#" xmlns:rdf="http://www.w3.org/1999/02/22-rdf-syntax-ns#">
   <cc:Work>
    <dc:type rdf:resource="http://purl.org/dc/dcmitype/StillImage"/>
    <dc:date>2025-12-06T01:20:46.970833</dc:date>
    <dc:format>image/svg+xml</dc:format>
    <dc:creator>
     <cc:Agent>
      <dc:title>Matplotlib v3.10.7, https://matplotlib.org/</dc:title>
     </cc:Agent>
    </dc:creator>
   </cc:Work>
  </rdf:RDF>
 </metadata>
 <defs>
  <style type="text/css">*{stroke-linejoin: round; stroke-linecap: butt}</style>
 </defs>
 <g id="figure_1">
  <g id="patch_1">
   <path d="M 0 288 
L 720 288 
L 720 0 
L 0 0 
z
" style="fill: #ffffff"/>
  </g>
  <g id="axes_1">
   <g id="patch_2">
    <path d="M 90 256.32 
L 648 256.32 
L 648 34.56 
L 90 34.56 
z
" style="fill: #ffffff"/>
   </g>
   <g id="matplotlib.axis_1">
    <g id="xtick_1">
     <g id="line2d_1">
      <path d="M 115.363636 256.32 
L 115.363636 34.56 
" clip-path="url(#p97da48b310)" style="fill: none; stroke: #b0b0b0; stroke-width: 0.8; stroke-linecap: square"/>
     </g>
     <g id="line2d_2">
      <defs>
       <path id="mf216f38b36" d="M 0 0 
L 0 3.5 
" style="stroke: #000000; stroke-width: 0.8"/>
      </defs>
      <g>
       <use xlink:href="#mf216f38b36" x="115.363636" y="256.32" style="stroke: #000000; stroke-width: 0.8"/>
      </g>
     </g>
     <g id="text_1">
      <!-- 0 -->
      <g transform="translate(112.182386 270.918437) scale(0.1 -0.1)">
       <defs>
        <path id="DejaVuSans-30" d="M 2034 4250 
Q 1547 4250 1301 3770 
Q 1056 3291 1056 2328 
Q 1056 1369 1301 889 
Q 1547 409 2034 409 
Q 2525 409 2770 889 
Q 3016 1369 3016 2328 
Q 3016 3291 2770 3770 
Q 2525 4250 2034 4250 
z
M 2034 4750 
Q 2819 4750 3233 4129 
Q 3647 3509 3647 2328 
Q 3647 1150 3233 529 
Q 2819 -91 2034 -91 
Q 1250 -91 836 529 
Q 422 1150 422 2328 
Q 422 3509 836 4129 
Q 1250 4750 2034 4750 
z
" transform="scale(0.015625)"/>
       </defs>
       <use xlink:href="#DejaVuSans-30"/>
      </g>
     </g>
    </g>
    <g id="xtick_2">
     <g id="line2d_3">
      <path d="M 216.828328 256.32 
L 216.828328 34.56 
" clip-path="url(#p97da48b310)" style="fill: none; stroke: #b0b0b0; stroke-width: 0.8; stroke-linecap: square"/>
     </g>
     <g id="line2d_4">
      <g>
       <use xlink:href="#mf216f38b36" x="216.828328" y="256.32" style="stroke: #000000; stroke-width: 0.8"/>
      </g>
     </g>
     <g id="text_2">
      <!-- 2000 -->
      <g transform="translate(204.103328 270.918437) scale(0.1 -0.1)">
       <defs>
        <path id="DejaVuSans-32" d="M 1228 531 
L 3431 531 
L 3431 0 
L 469 0 
L 469 531 
Q 828 903 1448 1529 
Q 2069 2156 2228 2338 
Q 2531 2678 2651 2914 
Q 2772 3150 2772 3378 
Q 2772 3750 2511 3984 
Q 2250 4219 1831 4219 
Q 1534 4219 1204 4116 
Q 875 4013 500 3803 
L 500 4441 
Q 881 4594 1212 4672 
Q 1544 4750 1819 4750 
Q 2544 4750 2975 4387 
Q 3406 4025 3406 3419 
Q 3406 3131 3298 2873 
Q 3191 2616 2906 2266 
Q 2828 2175 2409 1742 
Q 1991 1309 1228 531 
z
" transform="scale(0.015625)"/>
       </defs>
       <use xlink:href="#DejaVuSans-32"/>
       <use xlink:href="#DejaVuSans-30" transform="translate(63.623047 0)"/>
       <use xlink:href="#DejaVuSans-30" transform="translate(127.246094 0)"/>
       <use xlink:href="#DejaVuSans-30" transform="translate(190.869141 0)"/>
      </g>
     </g>
    </g>
    <g id="xtick_3">
     <g id="line2d_5">
      <path d="M 318.29302 256.32 
L 318.29302 34.56 
" clip-path="url(#p97da48b310)" style="fill: none; stroke: #b0b0b0; stroke-width: 0.8; stroke-linecap: square"/>
     </g>
     <g id="line2d_6">
      <g>
       <use xlink:href="#mf216f38b36" x="318.29302" y="256.32" style="stroke: #000000; stroke-width: 0.8"/>
      </g>
     </g>
     <g id="text_3">
      <!-- 4000 -->
      <g transform="translate(305.56802 270.918437) scale(0.1 -0.1)">
       <defs>
        <path id="DejaVuSans-34" d="M 2419 4116 
L 825 1625 
L 2419 1625 
L 2419 4116 
z
M 2253 4666 
L 3047 4666 
L 3047 1625 
L 3713 1625 
L 3713 1100 
L 3047 1100 
L 3047 0 
L 2419 0 
L 2419 1100 
L 313 1100 
L 313 1709 
L 2253 4666 
z
" transform="scale(0.015625)"/>
       </defs>
       <use xlink:href="#DejaVuSans-34"/>
       <use xlink:href="#DejaVuSans-30" transform="translate(63.623047 0)"/>
       <use xlink:href="#DejaVuSans-30" transform="translate(127.246094 0)"/>
       <use xlink:href="#DejaVuSans-30" transform="translate(190.869141 0)"/>
      </g>
     </g>
    </g>
    <g id="xtick_4">
     <g id="line2d_7">
      <path d="M 419.757712 256.32 
L 419.757712 34.56 
" clip-path="url(#p97da48b310)" style="fill: none; stroke: #b0b0b0; stroke-width: 0.8; stroke-linecap: square"/>
     </g>
     <g id="line2d_8">
      <g>
       <use xlink:href="#mf216f38b36" x="419.757712" y="256.32" style="stroke: #000000; stroke-width: 0.8"/>
      </g>
     </g>
     <g id="text_4">
      <!-- 6000 -->
      <g transform="translate(407.032712 270.918437) scale(0.1 -0.1)">
       <defs>
        <path id="DejaVuSans-36" d="M 2113 2584 
Q 1688 2584 1439 2293 
Q 1191 2003 1191 1497 
Q 1191 994 1439 701 
Q 1688 409 2113 409 
Q 2538 409 2786 701 
Q 3034 994 3034 1497 
Q 3034 2003 2786 2293 
Q 2538 2584 2113 2584 
z
M 3366 4563 
L 3366 3988 
Q 3128 4100 2886 4159 
Q 2644 4219 2406 4219 
Q 1781 4219 1451 3797 
Q 1122 3375 1075 2522 
Q 1259 2794 1537 2939 
Q 1816 3084 2150 3084 
Q 2853 3084 3261 2657 
Q 3669 2231 3669 1497 
Q 3669 778 3244 343 
Q 2819 -91 2113 -91 
Q 1303 -91 875 529 
Q 447 1150 447 2328 
Q 447 3434 972 4092 
Q 1497 4750 2381 4750 
Q 2619 4750 2861 4703 
Q 3103 4656 3366 4563 
z
" transform="scale(0.015625)"/>
       </defs>
       <use xlink:href="#DejaVuSans-36"/>
       <use xlink:href="#DejaVuSans-30" transform="translate(63.623047 0)"/>
       <use xlink:href="#DejaVuSans-30" transform="translate(127.246094 0)"/>
       <use xlink:href="#DejaVuSans-30" transform="translate(190.869141 0)"/>
      </g>
     </g>
    </g>
    <g id="xtick_5">
     <g id="line2d_9">
      <path d="M 521.222404 256.32 
L 521.222404 34.56 
" clip-path="url(#p97da48b310)" style="fill: none; stroke: #b0b0b0; stroke-width: 0.8; stroke-linecap: square"/>
     </g>
     <g id="line2d_10">
      <g>
       <use xlink:href="#mf216f38b36" x="521.222404" y="256.32" style="stroke: #000000; stroke-width: 0.8"/>
      </g>
     </g>
     <g id="text_5">
      <!-- 8000 -->
      <g transform="translate(508.497404 270.918437) scale(0.1 -0.1)">
       <defs>
        <path id="DejaVuSans-38" d="M 2034 2216 
Q 1584 2216 1326 1975 
Q 1069 1734 1069 1313 
Q 1069 891 1326 650 
Q 1584 409 2034 409 
Q 2484 409 2743 651 
Q 3003 894 3003 1313 
Q 3003 1734 2745 1975 
Q 2488 2216 2034 2216 
z
M 1403 2484 
Q 997 2584 770 2862 
Q 544 3141 544 3541 
Q 544 4100 942 4425 
Q 1341 4750 2034 4750 
Q 2731 4750 3128 4425 
Q 3525 4100 3525 3541 
Q 3525 3141 3298 2862 
Q 3072 2584 2669 2484 
Q 3125 2378 3379 2068 
Q 3634 1759 3634 1313 
Q 3634 634 3220 271 
Q 2806 -91 2034 -91 
Q 1263 -91 848 271 
Q 434 634 434 1313 
Q 434 1759 690 2068 
Q 947 2378 1403 2484 
z
M 1172 3481 
Q 1172 3119 1398 2916 
Q 1625 2713 2034 2713 
Q 2441 2713 2670 2916 
Q 2900 3119 2900 3481 
Q 2900 3844 2670 4047 
Q 2441 4250 2034 4250 
Q 1625 4250 1398 4047 
Q 1172 3844 1172 3481 
z
" transform="scale(0.015625)"/>
       </defs>
       <use xlink:href="#DejaVuSans-38"/>
       <use xlink:href="#DejaVuSans-30" transform="translate(63.623047 0)"/>
       <use xlink:href="#DejaVuSans-30" transform="translate(127.246094 0)"/>
       <use xlink:href="#DejaVuSans-30" transform="translate(190.869141 0)"/>
      </g>
     </g>
    </g>
    <g id="xtick_6">
     <g id="line2d_11">
      <path d="M 622.687096 256.32 
L 622.687096 34.56 
" clip-path="url(#p97da48b310)" style="fill: none; stroke: #b0b0b0; stroke-width: 0.8; stroke-linecap: square"/>
     </g>
     <g id="line2d_12">
      <g>
       <use xlink:href="#mf216f38b36" x="622.687096" y="256.32" style="stroke: #000000; stroke-width: 0.8"/>
      </g>
     </g>
     <g id="text_6">
      <!-- 10000 -->
      <g transform="translate(606.780846 270.918437) scale(0.1 -0.1)">
       <defs>
        <path id="DejaVuSans-31" d="M 794 531 
L 1825 531 
L 1825 4091 
L 703 3866 
L 703 4441 
L 1819 4666 
L 2450 4666 
L 2450 531 
L 3481 531 
L 3481 0 
L 794 0 
L 794 531 
z
" transform="scale(0.015625)"/>
       </defs>
       <use xlink:href="#DejaVuSans-31"/>
       <use xlink:href="#DejaVuSans-30" transform="translate(63.623047 0)"/>
       <use xlink:href="#DejaVuSans-30" transform="translate(127.246094 0)"/>
       <use xlink:href="#DejaVuSans-30" transform="translate(190.869141 0)"/>
       <use xlink:href="#DejaVuSans-30" transform="translate(254.492188 0)"/>
      </g>
     </g>
    </g>
    <g id="text_7">
     <!-- Iterations -->
     <g transform="translate(335.661406 287.635938) scale(0.14 -0.14)">
      <defs>
       <path id="DejaVuSans-49" d="M 628 4666 
L 1259 4666 
L 1259 0 
L 628 0 
L 628 4666 
z
" transform="scale(0.015625)"/>
       <path id="DejaVuSans-74" d="M 1172 4494 
L 1172 3500 
L 2356 3500 
L 2356 3053 
L 1172 3053 
L 1172 1153 
Q 1172 725 1289 603 
Q 1406 481 1766 481 
L 2356 481 
L 2356 0 
L 1766 0 
Q 1100 0 847 248 
Q 594 497 594 1153 
L 594 3053 
L 172 3053 
L 172 3500 
L 594 3500 
L 594 4494 
L 1172 4494 
z
" transform="scale(0.015625)"/>
       <path id="DejaVuSans-65" d="M 3597 1894 
L 3597 1613 
L 953 1613 
Q 991 1019 1311 708 
Q 1631 397 2203 397 
Q 2534 397 2845 478 
Q 3156 559 3463 722 
L 3463 178 
Q 3153 47 2828 -22 
Q 2503 -91 2169 -91 
Q 1331 -91 842 396 
Q 353 884 353 1716 
Q 353 2575 817 3079 
Q 1281 3584 2069 3584 
Q 2775 3584 3186 3129 
Q 3597 2675 3597 1894 
z
M 3022 2063 
Q 3016 2534 2758 2815 
Q 2500 3097 2075 3097 
Q 1594 3097 1305 2825 
Q 1016 2553 972 2059 
L 3022 2063 
z
" transform="scale(0.015625)"/>
       <path id="DejaVuSans-72" d="M 2631 2963 
Q 2534 3019 2420 3045 
Q 2306 3072 2169 3072 
Q 1681 3072 1420 2755 
Q 1159 2438 1159 1844 
L 1159 0 
L 581 0 
L 581 3500 
L 1159 3500 
L 1159 2956 
Q 1341 3275 1631 3429 
Q 1922 3584 2338 3584 
Q 2397 3584 2469 3576 
Q 2541 3569 2628 3553 
L 2631 2963 
z
" transform="scale(0.015625)"/>
       <path id="DejaVuSans-61" d="M 2194 1759 
Q 1497 1759 1228 1600 
Q 959 1441 959 1056 
Q 959 750 1161 570 
Q 1363 391 1709 391 
Q 2188 391 2477 730 
Q 2766 1069 2766 1631 
L 2766 1759 
L 2194 1759 
z
M 3341 1997 
L 3341 0 
L 2766 0 
L 2766 531 
Q 2569 213 2275 61 
Q 1981 -91 1556 -91 
Q 1019 -91 701 211 
Q 384 513 384 1019 
Q 384 1609 779 1909 
Q 1175 2209 1959 2209 
L 2766 2209 
L 2766 2266 
Q 2766 2663 2505 2880 
Q 2244 3097 1772 3097 
Q 1472 3097 1187 3025 
Q 903 2953 641 2809 
L 641 3341 
Q 956 3463 1253 3523 
Q 1550 3584 1831 3584 
Q 2591 3584 2966 3190 
Q 3341 2797 3341 1997 
z
" transform="scale(0.015625)"/>
       <path id="DejaVuSans-69" d="M 603 3500 
L 1178 3500 
L 1178 0 
L 603 0 
L 603 3500 
z
M 603 4863 
L 1178 4863 
L 1178 4134 
L 603 4134 
L 603 4863 
z
" transform="scale(0.015625)"/>
       <path id="DejaVuSans-6f" d="M 1959 3097 
Q 1497 3097 1228 2736 
Q 959 2375 959 1747 
Q 959 1119 1226 758 
Q 1494 397 1959 397 
Q 2419 397 2687 759 
Q 2956 1122 2956 1747 
Q 2956 2369 2687 2733 
Q 2419 3097 1959 3097 
z
M 1959 3584 
Q 2709 3584 3137 3096 
Q 3566 2609 3566 1747 
Q 3566 888 3137 398 
Q 2709 -91 1959 -91 
Q 1206 -91 779 398 
Q 353 888 353 1747 
Q 353 2609 779 3096 
Q 1206 3584 1959 3584 
z
" transform="scale(0.015625)"/>
       <path id="DejaVuSans-6e" d="M 3513 2113 
L 3513 0 
L 2938 0 
L 2938 2094 
Q 2938 2591 2744 2837 
Q 2550 3084 2163 3084 
Q 1697 3084 1428 2787 
Q 1159 2491 1159 1978 
L 1159 0 
L 581 0 
L 581 3500 
L 1159 3500 
L 1159 2956 
Q 1366 3272 1645 3428 
Q 1925 3584 2291 3584 
Q 2894 3584 3203 3211 
Q 3513 2838 3513 2113 
z
" transform="scale(0.015625)"/>
       <path id="DejaVuSans-73" d="M 2834 3397 
L 2834 2853 
Q 2591 2978 2328 3040 
Q 2066 3103 1784 3103 
Q 1356 3103 1142 2972 
Q 928 2841 928 2578 
Q 928 2378 1081 2264 
Q 1234 2150 1697 2047 
L 1894 2003 
Q 2506 1872 2764 1633 
Q 3022 1394 3022 966 
Q 3022 478 2636 193 
Q 2250 -91 1575 -91 
Q 1294 -91 989 -36 
Q 684 19 347 128 
L 347 722 
Q 666 556 975 473 
Q 1284 391 1588 391 
Q 1994 391 2212 530 
Q 2431 669 2431 922 
Q 2431 1156 2273 1281 
Q 2116 1406 1581 1522 
L 1381 1569 
Q 847 1681 609 1914 
Q 372 2147 372 2553 
Q 372 3047 722 3315 
Q 1072 3584 1716 3584 
Q 2034 3584 2315 3537 
Q 2597 3491 2834 3397 
z
" transform="scale(0.015625)"/>
      </defs>
      <use xlink:href="#DejaVuSans-49"/>
      <use xlink:href="#DejaVuSans-74" transform="translate(29.492188 0)"/>
      <use xlink:href="#DejaVuSans-65" transform="translate(68.701172 0)"/>
      <use xlink:href="#DejaVuSans-72" transform="translate(130.224609 0)"/>
      <use xlink:href="#DejaVuSans-61" transform="translate(171.337891 0)"/>
      <use xlink:href="#DejaVuSans-74" transform="translate(232.617188 0)"/>
      <use xlink:href="#DejaVuSans-69" transform="translate(271.826172 0)"/>
      <use xlink:href="#DejaVuSans-6f" transform="translate(299.609375 0)"/>
      <use xlink:href="#DejaVuSans-6e" transform="translate(360.791016 0)"/>
      <use xlink:href="#DejaVuSans-73" transform="translate(424.169922 0)"/>
     </g>
    </g>
   </g>
   <g id="matplotlib.axis_2">
    <g id="ytick_1">
     <g id="line2d_13">
      <path d="M 90 224.886428 
L 648 224.886428 
" clip-path="url(#p97da48b310)" style="fill: none; stroke: #b0b0b0; stroke-width: 0.8; stroke-linecap: square"/>
     </g>
     <g id="line2d_14">
      <defs>
       <path id="mb62da504cd" d="M 0 0 
L -3.5 0 
" style="stroke: #000000; stroke-width: 0.8"/>
      </defs>
      <g>
       <use xlink:href="#mb62da504cd" x="90" y="224.886428" style="stroke: #000000; stroke-width: 0.8"/>
      </g>
     </g>
     <g id="text_8">
      <!-- −0.4 -->
      <g transform="translate(58.717187 228.685647) scale(0.1 -0.1)">
       <defs>
        <path id="DejaVuSans-2212" d="M 678 2272 
L 4684 2272 
L 4684 1741 
L 678 1741 
L 678 2272 
z
" transform="scale(0.015625)"/>
        <path id="DejaVuSans-2e" d="M 684 794 
L 1344 794 
L 1344 0 
L 684 0 
L 684 794 
z
" transform="scale(0.015625)"/>
       </defs>
       <use xlink:href="#DejaVuSans-2212"/>
       <use xlink:href="#DejaVuSans-30" transform="translate(83.789062 0)"/>
       <use xlink:href="#DejaVuSans-2e" transform="translate(147.412109 0)"/>
       <use xlink:href="#DejaVuSans-34" transform="translate(179.199219 0)"/>
      </g>
     </g>
    </g>
    <g id="ytick_2">
     <g id="line2d_15">
      <path d="M 90 190.668365 
L 648 190.668365 
" clip-path="url(#p97da48b310)" style="fill: none; stroke: #b0b0b0; stroke-width: 0.8; stroke-linecap: square"/>
     </g>
     <g id="line2d_16">
      <g>
       <use xlink:href="#mb62da504cd" x="90" y="190.668365" style="stroke: #000000; stroke-width: 0.8"/>
      </g>
     </g>
     <g id="text_9">
      <!-- −0.2 -->
      <g transform="translate(58.717187 194.467584) scale(0.1 -0.1)">
       <use xlink:href="#DejaVuSans-2212"/>
       <use xlink:href="#DejaVuSans-30" transform="translate(83.789062 0)"/>
       <use xlink:href="#DejaVuSans-2e" transform="translate(147.412109 0)"/>
       <use xlink:href="#DejaVuSans-32" transform="translate(179.199219 0)"/>
      </g>
     </g>
    </g>
    <g id="ytick_3">
     <g id="line2d_17">
      <path d="M 90 156.450302 
L 648 156.450302 
" clip-path="url(#p97da48b310)" style="fill: none; stroke: #b0b0b0; stroke-width: 0.8; stroke-linecap: square"/>
     </g>
     <g id="line2d_18">
      <g>
       <use xlink:href="#mb62da504cd" x="90" y="156.450302" style="stroke: #000000; stroke-width: 0.8"/>
      </g>
     </g>
     <g id="text_10">
      <!-- 0.0 -->
      <g transform="translate(67.096875 160.249521) scale(0.1 -0.1)">
       <use xlink:href="#DejaVuSans-30"/>
       <use xlink:href="#DejaVuSans-2e" transform="translate(63.623047 0)"/>
       <use xlink:href="#DejaVuSans-30" transform="translate(95.410156 0)"/>
      </g>
     </g>
    </g>
    <g id="ytick_4">
     <g id="line2d_19">
      <path d="M 90 122.23224 
L 648 122.23224 
" clip-path="url(#p97da48b310)" style="fill: none; stroke: #b0b0b0; stroke-width: 0.8; stroke-linecap: square"/>
     </g>
     <g id="line2d_20">
      <g>
       <use xlink:href="#mb62da504cd" x="90" y="122.23224" style="stroke: #000000; stroke-width: 0.8"/>
      </g>
     </g>
     <g id="text_11">
      <!-- 0.2 -->
      <g transform="translate(67.096875 126.031458) scale(0.1 -0.1)">
       <use xlink:href="#DejaVuSans-30"/>
       <use xlink:href="#DejaVuSans-2e" transform="translate(63.623047 0)"/>
       <use xlink:href="#DejaVuSans-32" transform="translate(95.410156 0)"/>
      </g>
     </g>
    </g>
    <g id="ytick_5">
     <g id="line2d_21">
      <path d="M 90 88.014177 
L 648 88.014177 
" clip-path="url(#p97da48b310)" style="fill: none; stroke: #b0b0b0; stroke-width: 0.8; stroke-linecap: square"/>
     </g>
     <g id="line2d_22">
      <g>
       <use xlink:href="#mb62da504cd" x="90" y="88.014177" style="stroke: #000000; stroke-width: 0.8"/>
      </g>
     </g>
     <g id="text_12">
      <!-- 0.4 -->
      <g transform="translate(67.096875 91.813396) scale(0.1 -0.1)">
       <use xlink:href="#DejaVuSans-30"/>
       <use xlink:href="#DejaVuSans-2e" transform="translate(63.623047 0)"/>
       <use xlink:href="#DejaVuSans-34" transform="translate(95.410156 0)"/>
      </g>
     </g>
    </g>
    <g id="ytick_6">
     <g id="line2d_23">
      <path d="M 90 53.796114 
L 648 53.796114 
" clip-path="url(#p97da48b310)" style="fill: none; stroke: #b0b0b0; stroke-width: 0.8; stroke-linecap: square"/>
     </g>
     <g id="line2d_24">
      <g>
       <use xlink:href="#mb62da504cd" x="90" y="53.796114" style="stroke: #000000; stroke-width: 0.8"/>
      </g>
     </g>
     <g id="text_13">
      <!-- 0.6 -->
      <g transform="translate(67.096875 57.595333) scale(0.1 -0.1)">
       <use xlink:href="#DejaVuSans-30"/>
       <use xlink:href="#DejaVuSans-2e" transform="translate(63.623047 0)"/>
       <use xlink:href="#DejaVuSans-36" transform="translate(95.410156 0)"/>
      </g>
     </g>
    </g>
    <g id="text_14">
     <!-- Q-Value$(s_0, a_0)$ -->
     <g transform="translate(51.805625 196.89) rotate(-90) scale(0.14 -0.14)">
      <defs>
       <path id="DejaVuSans-51" d="M 2522 4238 
Q 1834 4238 1429 3725 
Q 1025 3213 1025 2328 
Q 1025 1447 1429 934 
Q 1834 422 2522 422 
Q 3209 422 3611 934 
Q 4013 1447 4013 2328 
Q 4013 3213 3611 3725 
Q 3209 4238 2522 4238 
z
M 3406 84 
L 4238 -825 
L 3475 -825 
L 2784 -78 
Q 2681 -84 2626 -87 
Q 2572 -91 2522 -91 
Q 1538 -91 948 567 
Q 359 1225 359 2328 
Q 359 3434 948 4092 
Q 1538 4750 2522 4750 
Q 3503 4750 4090 4092 
Q 4678 3434 4678 2328 
Q 4678 1516 4351 937 
Q 4025 359 3406 84 
z
" transform="scale(0.015625)"/>
       <path id="DejaVuSans-2d" d="M 313 2009 
L 1997 2009 
L 1997 1497 
L 313 1497 
L 313 2009 
z
" transform="scale(0.015625)"/>
       <path id="DejaVuSans-56" d="M 1831 0 
L 50 4666 
L 709 4666 
L 2188 738 
L 3669 4666 
L 4325 4666 
L 2547 0 
L 1831 0 
z
" transform="scale(0.015625)"/>
       <path id="DejaVuSans-6c" d="M 603 4863 
L 1178 4863 
L 1178 0 
L 603 0 
L 603 4863 
z
" transform="scale(0.015625)"/>
       <path id="DejaVuSans-75" d="M 544 1381 
L 544 3500 
L 1119 3500 
L 1119 1403 
Q 1119 906 1312 657 
Q 1506 409 1894 409 
Q 2359 409 2629 706 
Q 2900 1003 2900 1516 
L 2900 3500 
L 3475 3500 
L 3475 0 
L 2900 0 
L 2900 538 
Q 2691 219 2414 64 
Q 2138 -91 1772 -91 
Q 1169 -91 856 284 
Q 544 659 544 1381 
z
M 1991 3584 
L 1991 3584 
z
" transform="scale(0.015625)"/>
       <path id="DejaVuSans-28" d="M 1984 4856 
Q 1566 4138 1362 3434 
Q 1159 2731 1159 2009 
Q 1159 1288 1364 580 
Q 1569 -128 1984 -844 
L 1484 -844 
Q 1016 -109 783 600 
Q 550 1309 550 2009 
Q 550 2706 781 3412 
Q 1013 4119 1484 4856 
L 1984 4856 
z
" transform="scale(0.015625)"/>
       <path id="DejaVuSans-Oblique-73" d="M 3200 3397 
L 3091 2853 
Q 2863 2978 2609 3040 
Q 2356 3103 2088 3103 
Q 1634 3103 1373 2948 
Q 1113 2794 1113 2528 
Q 1113 2219 1719 2053 
Q 1766 2041 1788 2034 
L 1972 1978 
Q 2547 1819 2739 1644 
Q 2931 1469 2931 1166 
Q 2931 609 2489 259 
Q 2047 -91 1331 -91 
Q 1053 -91 747 -37 
Q 441 16 72 128 
L 184 722 
Q 500 559 806 475 
Q 1113 391 1394 391 
Q 1816 391 2080 572 
Q 2344 753 2344 1031 
Q 2344 1331 1650 1516 
L 1591 1531 
L 1394 1581 
Q 956 1697 753 1886 
Q 550 2075 550 2369 
Q 550 2928 970 3256 
Q 1391 3584 2113 3584 
Q 2397 3584 2667 3537 
Q 2938 3491 3200 3397 
z
" transform="scale(0.015625)"/>
       <path id="DejaVuSans-2c" d="M 750 794 
L 1409 794 
L 1409 256 
L 897 -744 
L 494 -744 
L 750 256 
L 750 794 
z
" transform="scale(0.015625)"/>
       <path id="DejaVuSans-Oblique-61" d="M 3438 1997 
L 3047 0 
L 2472 0 
L 2578 531 
Q 2325 219 2001 64 
Q 1678 -91 1281 -91 
Q 834 -91 548 182 
Q 263 456 263 884 
Q 263 1497 752 1853 
Q 1241 2209 2100 2209 
L 2900 2209 
L 2931 2363 
Q 2938 2388 2941 2417 
Q 2944 2447 2944 2509 
Q 2944 2788 2717 2942 
Q 2491 3097 2081 3097 
Q 1800 3097 1504 3025 
Q 1209 2953 897 2809 
L 997 3341 
Q 1322 3463 1633 3523 
Q 1944 3584 2234 3584 
Q 2853 3584 3176 3315 
Q 3500 3047 3500 2534 
Q 3500 2431 3484 2292 
Q 3469 2153 3438 1997 
z
M 2816 1759 
L 2241 1759 
Q 1534 1759 1195 1570 
Q 856 1381 856 984 
Q 856 709 1029 553 
Q 1203 397 1509 397 
Q 1978 397 2328 733 
Q 2678 1069 2791 1631 
L 2816 1759 
z
" transform="scale(0.015625)"/>
       <path id="DejaVuSans-29" d="M 513 4856 
L 1013 4856 
Q 1481 4119 1714 3412 
Q 1947 2706 1947 2009 
Q 1947 1309 1714 600 
Q 1481 -109 1013 -844 
L 513 -844 
Q 928 -128 1133 580 
Q 1338 1288 1338 2009 
Q 1338 2731 1133 3434 
Q 928 4138 513 4856 
z
" transform="scale(0.015625)"/>
      </defs>
      <use xlink:href="#DejaVuSans-51" transform="translate(0 0.015625)"/>
      <use xlink:href="#DejaVuSans-2d" transform="translate(78.710938 0.015625)"/>
      <use xlink:href="#DejaVuSans-56" transform="translate(114.794922 0.015625)"/>
      <use xlink:href="#DejaVuSans-61" transform="translate(183.203125 0.015625)"/>
      <use xlink:href="#DejaVuSans-6c" transform="translate(244.482422 0.015625)"/>
      <use xlink:href="#DejaVuSans-75" transform="translate(272.265625 0.015625)"/>
      <use xlink:href="#DejaVuSans-65" transform="translate(335.644531 0.015625)"/>
      <use xlink:href="#DejaVuSans-28" transform="translate(397.167969 0.015625)"/>
      <use xlink:href="#DejaVuSans-Oblique-73" transform="translate(436.181641 0.015625)"/>
      <use xlink:href="#DejaVuSans-30" transform="translate(488.28125 -16.390625) scale(0.7)"/>
      <use xlink:href="#DejaVuSans-2c" transform="translate(535.551758 0.015625)"/>
      <use xlink:href="#DejaVuSans-Oblique-61" transform="translate(586.821289 0.015625)"/>
      <use xlink:href="#DejaVuSans-30" transform="translate(648.100586 -16.390625) scale(0.7)"/>
      <use xlink:href="#DejaVuSans-29" transform="translate(695.371094 0.015625)"/>
     </g>
    </g>
   </g>
   <g id="line2d_25">
    <path d="M 115.363636 156.450302 
L 115.465101 157.233896 
L 115.566566 155.873928 
L 115.718763 156.408649 
L 115.820227 156.441946 
L 115.972425 157.502714 
L 116.226086 157.427398 
L 116.479748 161.52344 
L 116.682677 161.52344 
L 116.834874 161.083608 
L 116.987071 163.50246 
L 117.037804 163.50246 
L 117.240733 166.740803 
L 117.494395 166.740803 
L 117.646592 169.202726 
L 117.748057 169.202726 
L 118.052451 175.661068 
L 118.407577 175.661068 
L 118.559774 178.050779 
L 118.711971 177.548496 
L 118.864168 181.788988 
L 119.016365 181.788988 
L 119.270027 185.199801 
L 119.371492 185.199801 
L 119.523689 185.783525 
L 119.675886 185.783525 
L 119.77735 186.722994 
L 119.929548 180.621331 
L 120.081745 182.36621 
L 120.132477 182.36621 
L 120.284674 184.664133 
L 120.335406 184.743504 
L 120.487603 182.914568 
L 120.6398 182.914568 
L 120.791997 187.185665 
L 120.84273 187.034644 
L 121.096391 190.182475 
L 121.147124 189.511639 
L 121.197856 189.586163 
L 121.350053 191.948038 
L 121.400786 191.948038 
L 121.654447 196.38016 
L 121.908109 199.559563 
L 122.060306 202.701931 
L 122.111038 202.701931 
L 122.263235 204.194319 
L 122.313968 204.194319 
L 122.3647 197.912004 
L 122.415432 201.262115 
L 122.567629 203.015829 
L 122.669094 203.015829 
L 122.872024 205.658821 
L 123.125685 205.658821 
L 123.277882 207.978947 
L 123.328615 207.978947 
L 123.379347 208.461563 
L 123.430079 208.171624 
L 123.531544 201.903318 
L 123.683741 205.561503 
L 123.734473 204.875288 
L 123.785206 205.303722 
L 123.988135 205.303722 
L 124.0896 206.934324 
L 124.140332 206.366047 
L 124.292529 209.176279 
L 124.444726 209.049289 
L 124.647656 211.68022 
L 124.74912 213.594922 
L 124.95205 206.633079 
L 125.002782 207.354535 
L 125.053514 206.226795 
L 125.104247 207.237778 
L 125.256444 210.775147 
L 125.357909 210.775147 
L 125.510106 211.983506 
L 125.560838 211.983506 
L 125.763767 217.829199 
L 125.915964 217.829199 
L 125.966697 219.136543 
L 126.017429 218.688632 
L 126.169626 218.688632 
L 126.372555 220.449852 
L 126.47402 220.449852 
L 126.626217 221.754575 
L 126.829147 223.349138 
L 126.930611 221.832153 
L 127.082808 222.827531 
L 127.235005 222.827531 
L 127.285738 221.167744 
L 127.33647 221.959988 
L 127.488667 223.980567 
L 127.539399 223.838773 
L 128.097455 223.838773 
L 128.249652 226.44014 
L 128.503314 224.344997 
L 128.655511 227.648964 
L 128.807708 224.471653 
L 128.909173 224.861906 
L 128.959905 224.861906 
L 129.010637 223.889453 
L 129.06137 224.605607 
L 129.568693 224.605607 
L 129.670158 223.609348 
L 129.873087 226.211173 
L 130.228214 226.211173 
L 130.380411 226.675557 
L 130.532608 226.675557 
L 130.684805 225.406211 
L 130.735537 225.406211 
L 131.192128 232.446466 
L 131.293593 232.446466 
L 131.44579 233.43123 
L 131.496522 233.43123 
L 131.648719 234.415009 
L 131.699452 234.415009 
L 131.851649 233.418833 
L 132.003846 233.418833 
L 132.156043 232.413761 
L 132.358972 234.313018 
L 132.561902 218.378097 
L 132.663366 218.625809 
L 132.815563 218.625809 
L 132.866296 219.554397 
L 132.917028 217.091842 
L 132.96776 218.09196 
L 133.069225 218.09196 
L 133.17069 219.283545 
L 133.272154 220.589434 
L 133.373619 219.518912 
L 133.424352 219.563428 
L 133.525816 219.563428 
L 133.627281 210.580216 
L 133.779478 212.371592 
L 133.83021 213.684394 
L 133.931675 211.679751 
L 134.337534 227.068328 
L 134.388266 227.068328 
L 134.540463 232.069755 
L 134.69266 232.069755 
L 134.743393 235.052403 
L 134.794125 231.050688 
L 134.844857 234.03639 
L 134.997054 237.013144 
L 135.047787 237.013144 
L 135.199984 236.858317 
L 135.301448 236.858317 
L 135.352181 238.540874 
L 135.402913 236.704932 
L 135.504378 229.368896 
L 135.605842 230.704625 
L 135.808772 230.704625 
L 135.859504 229.702267 
L 136.062434 237.352157 
L 136.214631 237.607349 
L 136.468292 237.607349 
L 136.620489 238.894914 
L 136.772686 239.122109 
L 137.381475 239.122109 
L 137.482939 239.349076 
L 137.635136 237.600794 
L 138.345389 237.600794 
L 138.446854 238.888366 
L 138.599051 238.313257 
L 138.751248 241.027743 
L 138.903445 240.306061 
L 138.954177 240.306061 
L 139.106374 241.590928 
L 139.309304 241.590928 
L 139.512233 243.764491 
L 139.66443 243.764491 
L 139.715162 242.02247 
L 139.867359 244.448951 
L 139.918092 244.448951 
L 140.070289 243.519826 
L 140.425415 243.519826 
L 140.628345 241.569065 
L 140.679077 241.569065 
L 140.932739 245.416027 
L 140.983471 243.616158 
L 141.034203 244.640365 
L 141.135668 244.640365 
L 141.287865 245.086319 
L 141.440062 243.749015 
L 141.490795 243.749015 
L 141.642992 243.024612 
L 141.947386 243.024612 
L 142.099583 244.306761 
L 142.201047 244.306761 
L 142.302512 245.587627 
L 142.353244 243.986563 
L 142.403977 244.959787 
L 142.454709 246.24 
L 142.505441 244.556801 
L 142.556174 245.529455 
L 142.759103 245.529455 
L 142.9113 244.448752 
L 143.164962 244.487906 
L 143.215694 245.183462 
L 143.367891 243.851705 
L 143.469356 243.851705 
L 143.621553 245.133026 
L 144.078144 245.133026 
L 144.179609 246.105103 
L 144.382538 245.155818 
L 144.534735 244.963629 
L 144.686932 245.658709 
L 145.194256 245.695444 
L 145.346453 246.140343 
L 145.397185 246.140343 
L 145.549382 244.376187 
L 146.107438 244.376187 
L 146.259635 241.634847 
L 146.310367 241.634847 
L 146.462564 240.142032 
L 146.513297 240.142032 
L 146.665494 241.427063 
L 146.817691 241.427063 
L 146.969888 240.824293 
L 147.02062 240.824293 
L 147.22355 237.896547 
L 147.325014 237.896547 
L 147.477211 239.05069 
L 147.527944 239.05069 
L 147.680141 235.865421 
L 147.88307 235.865421 
L 148.035267 235.041522 
L 148.441126 235.041522 
L 148.593323 234.121805 
L 148.796252 234.121805 
L 148.897717 232.795465 
L 148.948449 233.313181 
L 149.100646 231.63116 
L 149.202111 231.63116 
L 149.354308 230.35867 
L 149.557238 230.35867 
L 149.709435 230.818906 
L 149.861632 230.818906 
L 150.013829 230.670273 
L 150.216758 230.670273 
L 150.368955 228.88515 
L 150.521152 228.88515 
L 150.673349 227.262984 
L 151.12994 227.262984 
L 151.282137 225.740478 
L 151.485067 225.740478 
L 151.789461 221.582143 
L 152.246052 221.624596 
L 152.398249 221.321494 
L 153.108502 221.321494 
L 153.260699 219.882689 
L 153.565093 219.882689 
L 153.615825 219.744993 
L 153.768022 218.604863 
L 154.123149 218.604863 
L 154.173881 219.911431 
L 154.224613 219.006844 
L 154.326078 219.006844 
L 154.478275 220.313009 
L 154.630472 220.313009 
L 154.782669 221.309907 
L 155.543654 221.309907 
L 155.645119 220.047739 
L 155.797316 221.352864 
L 156.659766 221.352864 
L 156.811963 223.066416 
L 157.065625 223.066416 
L 157.167089 221.315776 
L 157.370019 223.02968 
L 157.572948 223.02968 
L 157.725145 224.02386 
L 157.877342 224.02386 
L 158.029539 225.732074 
L 158.080272 225.732074 
L 158.232469 224.821666 
L 158.435398 224.821666 
L 158.587595 227.113105 
L 158.739792 225.33154 
L 159.196383 225.33154 
L 159.399313 221.914395 
L 159.500777 221.914395 
L 159.652974 220.139843 
L 160.21103 220.139843 
L 160.515424 218.18973 
L 160.972015 218.18973 
L 161.124212 219.18875 
L 161.580804 219.18875 
L 161.733001 217.877344 
L 161.834465 217.877344 
L 161.986662 216.3261 
L 162.138859 217.326984 
L 162.291056 217.326984 
L 162.443253 215.555837 
L 162.747647 215.555837 
L 162.899845 213.855207 
L 163.102774 215.910042 
L 163.204239 215.910042 
L 163.356436 214.234849 
L 165.994518 214.3344 
L 166.248179 216.370222 
L 166.349644 214.640367 
L 166.451109 215.950899 
L 166.603306 215.653471 
L 166.755503 213.920235 
L 166.958432 213.920235 
L 167.110629 215.231488 
L 167.262826 213.462437 
L 167.56722 213.462437 
L 167.719417 209.941159 
L 167.922347 209.941159 
L 168.074544 211.256391 
L 168.328206 211.256391 
L 168.480403 211.985179 
L 168.6326 211.985179 
L 168.784797 210.229154 
L 168.886261 210.229154 
L 169.038458 208.484067 
L 169.139923 208.484067 
L 169.29212 204.57826 
L 169.342852 204.57826 
L 169.49505 205.064276 
L 170.256035 205.064276 
L 170.458964 201.578574 
L 170.560429 201.578574 
L 170.661893 201.295518 
L 170.81409 199.770887 
L 171.524343 199.770887 
L 171.67654 198.319936 
L 173.198511 198.319936 
L 173.350708 197.029398 
L 173.452172 197.029398 
L 173.60437 195.278549 
L 175.98879 195.278549 
L 176.140987 193.562001 
L 176.64831 193.562001 
L 176.800507 188.333029 
L 177.764422 188.333029 
L 177.916619 186.751414 
L 179.641519 186.751414 
L 179.793716 186.550023 
L 179.89518 186.550023 
L 180.047377 184.926514 
L 180.656166 184.926514 
L 180.808363 183.757795 
L 181.518615 183.757795 
L 181.670813 182.020218 
L 181.924474 182.020218 
L 182.076671 180.797339 
L 183.446445 180.797339 
L 183.598642 179.062722 
L 184.917683 179.062722 
L 185.06988 177.842802 
L 185.475738 177.842802 
L 185.627936 176.112243 
L 187.403568 176.112243 
L 187.555765 174.38231 
L 188.925538 174.38231 
L 189.077735 175.663418 
L 190.548973 175.663418 
L 190.70117 176.704965 
L 192.020211 176.704965 
L 192.172408 173.250655 
L 194.100237 173.250655 
L 194.252434 171.525893 
L 194.759758 171.525893 
L 194.911955 169.800547 
L 194.962687 169.800547 
L 195.114884 166.816632 
L 196.586122 166.816632 
L 196.738319 163.37715 
L 196.789052 163.37715 
L 196.941249 162.033731 
L 198.209557 162.033731 
L 198.361754 160.320512 
L 198.767613 160.320512 
L 198.91981 160.850786 
L 199.376401 160.850786 
L 199.528598 161.907145 
L 199.832992 161.907145 
L 199.985189 160.191418 
L 200.492513 160.191418 
L 200.64471 158.477407 
L 201.963751 158.477407 
L 202.115948 156.77489 
L 203.587186 156.77489 
L 203.739383 155.064295 
L 205.210621 155.064295 
L 205.362818 153.355411 
L 208.0009 153.355411 
L 208.153097 151.648236 
L 209.269209 151.648236 
L 209.421406 149.942768 
L 213.530726 149.942768 
L 213.682923 148.241789 
L 213.733655 148.241789 
L 213.83512 146.539727 
L 213.987317 147.610397 
L 214.342443 147.610397 
L 214.545373 144.369616 
L 215.306358 144.369616 
L 215.458555 142.671427 
L 215.965878 142.671427 
L 216.118075 140.974936 
L 218.045905 140.974936 
L 218.198102 139.280141 
L 219.517143 139.280141 
L 219.720072 135.895634 
L 219.821537 135.895634 
L 220.024466 132.517893 
L 221.394239 132.517893 
L 221.546436 127.464007 
L 223.017674 127.464007 
L 223.169872 125.782723 
L 223.322069 125.782723 
L 223.474266 124.247542 
L 225.148433 124.247542 
L 225.30063 122.569475 
L 227.938712 122.569475 
L 228.090909 119.236882 
L 228.801162 119.236882 
L 228.953359 117.563826 
L 229.612879 117.563826 
L 229.765077 115.892442 
L 230.779723 115.892442 
L 230.93192 114.22273 
L 231.388512 114.22273 
L 231.540709 115.325717 
L 233.316341 115.325717 
L 233.468538 113.656572 
L 235.193438 113.656572 
L 235.345635 111.989095 
L 236.258817 111.989095 
L 236.411014 110.323286 
L 238.135914 110.323286 
L 238.288111 108.659143 
L 239.150561 108.659143 
L 239.302758 106.996664 
L 241.94084 106.996664 
L 242.093037 105.335848 
L 248.028721 105.335848 
L 248.23165 102.019196 
L 251.123394 102.019196 
L 251.275591 100.363357 
L 252.899026 100.363357 
L 253.051223 98.709173 
L 269.437771 98.709173 
L 269.589968 97.056644 
L 273.293429 97.056644 
L 273.445626 95.405768 
L 275.424188 95.405768 
L 275.576385 93.756542 
L 278.823255 93.756542 
L 278.975452 92.108966 
L 289.933639 92.108966 
L 290.085836 90.463037 
L 293.332706 90.463037 
L 293.484903 88.818754 
L 298.405941 88.818754 
L 298.558138 87.176116 
L 300.99329 87.176116 
L 301.145487 85.603866 
L 303.326978 85.603866 
L 303.479175 83.964442 
L 306.726045 83.964442 
L 306.878242 82.326658 
L 315.401276 82.326658 
L 315.553474 80.690511 
L 323.163325 80.690511 
L 323.315522 79.056001 
L 324.78676 79.056001 
L 324.938958 77.423125 
L 329.251207 77.423125 
L 329.403404 75.791882 
L 342.847476 75.791882 
L 342.999673 74.162271 
L 350.964651 74.162271 
L 351.116848 72.534289 
L 353.907127 72.534289 
L 354.059324 70.907934 
L 355.429097 70.907934 
L 355.581294 69.283207 
L 355.733492 69.283207 
L 355.885689 67.660104 
L 359.741347 67.660104 
L 359.893544 68.809654 
L 369.938548 68.809654 
L 370.090745 67.187024 
L 376.939612 67.187024 
L 377.091809 65.566017 
L 380.237215 65.566017 
L 380.389412 63.946632 
L 384.701661 63.946632 
L 384.853858 62.328865 
L 389.21684 62.328865 
L 389.369037 60.712716 
L 389.927093 60.712716 
L 390.07929 59.098184 
L 392.108584 59.098184 
L 392.260781 57.485266 
L 392.971033 57.485266 
L 393.123231 55.873961 
L 481.701907 55.873961 
L 481.854104 54.264267 
L 503.466083 54.264267 
L 503.61828 52.656183 
L 527.919074 52.656183 
L 528.071271 51.049707 
L 539.486049 51.049707 
L 539.638246 49.444837 
L 551.864741 49.444837 
L 552.016938 47.841573 
L 558.815072 47.841573 
L 558.967269 46.24006 
L 574.034776 46.24006 
L 574.186973 44.64 
L 622.636364 44.64 
L 622.636364 44.64 
" clip-path="url(#p97da48b310)" style="fill: none; stroke: #0000ff; stroke-width: 2; stroke-linecap: square"/>
   </g>
   <g id="patch_3">
    <path d="M 90 256.32 
L 90 34.56 
" style="fill: none; stroke: #000000; stroke-width: 0.8; stroke-linejoin: miter; stroke-linecap: square"/>
   </g>
   <g id="patch_4">
    <path d="M 648 256.32 
L 648 34.56 
" style="fill: none; stroke: #000000; stroke-width: 0.8; stroke-linejoin: miter; stroke-linecap: square"/>
   </g>
   <g id="patch_5">
    <path d="M 90 256.32 
L 648 256.32 
" style="fill: none; stroke: #000000; stroke-width: 0.8; stroke-linejoin: miter; stroke-linecap: square"/>
   </g>
   <g id="patch_6">
    <path d="M 90 34.56 
L 648 34.56 
" style="fill: none; stroke: #000000; stroke-width: 0.8; stroke-linejoin: miter; stroke-linecap: square"/>
   </g>
   <g id="text_15">
    <!-- Markov_Chain_Monte_Carlo Q-Value Convergence -->
    <g transform="translate(220.141875 28.56) scale(0.12 -0.12)">
     <defs>
      <path id="DejaVuSans-4d" d="M 628 4666 
L 1569 4666 
L 2759 1491 
L 3956 4666 
L 4897 4666 
L 4897 0 
L 4281 0 
L 4281 4097 
L 3078 897 
L 2444 897 
L 1241 4097 
L 1241 0 
L 628 0 
L 628 4666 
z
" transform="scale(0.015625)"/>
      <path id="DejaVuSans-6b" d="M 581 4863 
L 1159 4863 
L 1159 1991 
L 2875 3500 
L 3609 3500 
L 1753 1863 
L 3688 0 
L 2938 0 
L 1159 1709 
L 1159 0 
L 581 0 
L 581 4863 
z
" transform="scale(0.015625)"/>
      <path id="DejaVuSans-76" d="M 191 3500 
L 800 3500 
L 1894 563 
L 2988 3500 
L 3597 3500 
L 2284 0 
L 1503 0 
L 191 3500 
z
" transform="scale(0.015625)"/>
      <path id="DejaVuSans-5f" d="M 3263 -1063 
L 3263 -1509 
L -63 -1509 
L -63 -1063 
L 3263 -1063 
z
" transform="scale(0.015625)"/>
      <path id="DejaVuSans-43" d="M 4122 4306 
L 4122 3641 
Q 3803 3938 3442 4084 
Q 3081 4231 2675 4231 
Q 1875 4231 1450 3742 
Q 1025 3253 1025 2328 
Q 1025 1406 1450 917 
Q 1875 428 2675 428 
Q 3081 428 3442 575 
Q 3803 722 4122 1019 
L 4122 359 
Q 3791 134 3420 21 
Q 3050 -91 2638 -91 
Q 1578 -91 968 557 
Q 359 1206 359 2328 
Q 359 3453 968 4101 
Q 1578 4750 2638 4750 
Q 3056 4750 3426 4639 
Q 3797 4528 4122 4306 
z
" transform="scale(0.015625)"/>
      <path id="DejaVuSans-68" d="M 3513 2113 
L 3513 0 
L 2938 0 
L 2938 2094 
Q 2938 2591 2744 2837 
Q 2550 3084 2163 3084 
Q 1697 3084 1428 2787 
Q 1159 2491 1159 1978 
L 1159 0 
L 581 0 
L 581 4863 
L 1159 4863 
L 1159 2956 
Q 1366 3272 1645 3428 
Q 1925 3584 2291 3584 
Q 2894 3584 3203 3211 
Q 3513 2838 3513 2113 
z
" transform="scale(0.015625)"/>
      <path id="DejaVuSans-20" transform="scale(0.015625)"/>
      <path id="DejaVuSans-67" d="M 2906 1791 
Q 2906 2416 2648 2759 
Q 2391 3103 1925 3103 
Q 1463 3103 1205 2759 
Q 947 2416 947 1791 
Q 947 1169 1205 825 
Q 1463 481 1925 481 
Q 2391 481 2648 825 
Q 2906 1169 2906 1791 
z
M 3481 434 
Q 3481 -459 3084 -895 
Q 2688 -1331 1869 -1331 
Q 1566 -1331 1297 -1286 
Q 1028 -1241 775 -1147 
L 775 -588 
Q 1028 -725 1275 -790 
Q 1522 -856 1778 -856 
Q 2344 -856 2625 -561 
Q 2906 -266 2906 331 
L 2906 616 
Q 2728 306 2450 153 
Q 2172 0 1784 0 
Q 1141 0 747 490 
Q 353 981 353 1791 
Q 353 2603 747 3093 
Q 1141 3584 1784 3584 
Q 2172 3584 2450 3431 
Q 2728 3278 2906 2969 
L 2906 3500 
L 3481 3500 
L 3481 434 
z
" transform="scale(0.015625)"/>
      <path id="DejaVuSans-63" d="M 3122 3366 
L 3122 2828 
Q 2878 2963 2633 3030 
Q 2388 3097 2138 3097 
Q 1578 3097 1268 2742 
Q 959 2388 959 1747 
Q 959 1106 1268 751 
Q 1578 397 2138 397 
Q 2388 397 2633 464 
Q 2878 531 3122 666 
L 3122 134 
Q 2881 22 2623 -34 
Q 2366 -91 2075 -91 
Q 1284 -91 818 406 
Q 353 903 353 1747 
Q 353 2603 823 3093 
Q 1294 3584 2113 3584 
Q 2378 3584 2631 3529 
Q 2884 3475 3122 3366 
z
" transform="scale(0.015625)"/>
     </defs>
     <use xlink:href="#DejaVuSans-4d"/>
     <use xlink:href="#DejaVuSans-61" transform="translate(86.279297 0)"/>
     <use xlink:href="#DejaVuSans-72" transform="translate(147.558594 0)"/>
     <use xlink:href="#DejaVuSans-6b" transform="translate(188.671875 0)"/>
     <use xlink:href="#DejaVuSans-6f" transform="translate(242.957031 0)"/>
     <use xlink:href="#DejaVuSans-76" transform="translate(304.138672 0)"/>
     <use xlink:href="#DejaVuSans-5f" transform="translate(363.318359 0)"/>
     <use xlink:href="#DejaVuSans-43" transform="translate(413.318359 0)"/>
     <use xlink:href="#DejaVuSans-68" transform="translate(483.142578 0)"/>
     <use xlink:href="#DejaVuSans-61" transform="translate(546.521484 0)"/>
     <use xlink:href="#DejaVuSans-69" transform="translate(607.800781 0)"/>
     <use xlink:href="#DejaVuSans-6e" transform="translate(635.583984 0)"/>
     <use xlink:href="#DejaVuSans-5f" transform="translate(698.962891 0)"/>
     <use xlink:href="#DejaVuSans-4d" transform="translate(748.962891 0)"/>
     <use xlink:href="#DejaVuSans-6f" transform="translate(835.242188 0)"/>
     <use xlink:href="#DejaVuSans-6e" transform="translate(896.423828 0)"/>
     <use xlink:href="#DejaVuSans-74" transform="translate(959.802734 0)"/>
     <use xlink:href="#DejaVuSans-65" transform="translate(999.011719 0)"/>
     <use xlink:href="#DejaVuSans-5f" transform="translate(1060.535156 0)"/>
     <use xlink:href="#DejaVuSans-43" transform="translate(1110.535156 0)"/>
     <use xlink:href="#DejaVuSans-61" transform="translate(1180.359375 0)"/>
     <use xlink:href="#DejaVuSans-72" transform="translate(1241.638672 0)"/>
     <use xlink:href="#DejaVuSans-6c" transform="translate(1282.751953 0)"/>
     <use xlink:href="#DejaVuSans-6f" transform="translate(1310.535156 0)"/>
     <use xlink:href="#DejaVuSans-20" transform="translate(1371.716797 0)"/>
     <use xlink:href="#DejaVuSans-51" transform="translate(1403.503906 0)"/>
     <use xlink:href="#DejaVuSans-2d" transform="translate(1484.964844 0)"/>
     <use xlink:href="#DejaVuSans-56" transform="translate(1515.173828 0)"/>
     <use xlink:href="#DejaVuSans-61" transform="translate(1575.832031 0)"/>
     <use xlink:href="#DejaVuSans-6c" transform="translate(1637.111328 0)"/>
     <use xlink:href="#DejaVuSans-75" transform="translate(1664.894531 0)"/>
     <use xlink:href="#DejaVuSans-65" transform="translate(1728.273438 0)"/>
     <use xlink:href="#DejaVuSans-20" transform="translate(1789.796875 0)"/>
     <use xlink:href="#DejaVuSans-43" transform="translate(1821.583984 0)"/>
     <use xlink:href="#DejaVuSans-6f" transform="translate(1891.408203 0)"/>
     <use xlink:href="#DejaVuSans-6e" transform="translate(1952.589844 0)"/>
     <use xlink:href="#DejaVuSans-76" transform="translate(2015.96875 0)"/>
     <use xlink:href="#DejaVuSans-65" transform="translate(2075.148438 0)"/>
     <use xlink:href="#DejaVuSans-72" transform="translate(2136.671875 0)"/>
     <use xlink:href="#DejaVuSans-67" transform="translate(2176.035156 0)"/>
     <use xlink:href="#DejaVuSans-65" transform="translate(2239.511719 0)"/>
     <use xlink:href="#DejaVuSans-6e" transform="translate(2301.035156 0)"/>
     <use xlink:href="#DejaVuSans-63" transform="translate(2364.414062 0)"/>
     <use xlink:href="#DejaVuSans-65" transform="translate(2419.394531 0)"/>
    </g>
   </g>
  </g>
 </g>
 <defs>
  <clipPath id="p97da48b310">
   <rect x="90" y="34.56" width="558" height="221.76"/>
  </clipPath>
 </defs>
</svg>
