<?xml version="1.0" encoding="utf-8" standalone="no"?>
<!DOCTYPE svg PUBLIC "-//W3C//DTD SVG 1.1//EN"
  "http://www.w3.org/Graphics/SVG/1.1/DTD/svg11.dtd">
<svg xmlns:xlink="http://www.w3.org/1999/xlink" width="460.8pt" height="345.6pt" viewBox="0 0 460.8 345.6" xmlns="http://www.w3.org/2000/svg" version="1.1">
 <metadata>
  <rdf:RDF xmlns:dc="http://purl.org/dc/elements/1.1/" xmlns:cc="http://creativecommons.org/ns#" xmlns:rdf="http://www.w3.org/1999/02/22-rdf-syntax-ns#">
   <cc:Work>
    <dc:type rdf:resource="http://purl.org/dc/dcmitype/StillImage"/>
    <dc:date>2025-09-29T17:09:19.417060</dc:date>
    <dc:format>image/svg+xml</dc:format>
    <dc:creator>
     <cc:Agent>
      <dc:title>Matplotlib v3.10.6, https://matplotlib.org/</dc:title>
     </cc:Agent>
    </dc:creator>
   </cc:Work>
  </rdf:RDF>
 </metadata>
 <defs>
  <style type="text/css">*{stroke-linejoin: round; stroke-linecap: butt}</style>
 </defs>
 <g id="figure_1">
  <g id="patch_1">
   <path d="M 0 345.6 
L 460.8 345.6 
L 460.8 0 
L 0 0 
z
" style="fill: #ffffff"/>
  </g>
  <g id="axes_1">
   <g id="patch_2">
    <path d="M 57.6 307.584 
L 414.72 307.584 
L 414.72 41.472 
L 57.6 41.472 
z
" style="fill: #ffffff"/>
   </g>
   <g id="FillBetweenPolyCollection_1">
    <defs>
     <path id="m013dd420ae" d="M 94.306863 -92.054776 
L 94.306863 -117.722913 
L 83.298613 -111.457317 
L 139.831195 -143.634122 
L 111.187818 -127.331093 
L 89.57581 -115.030127 
L 137.266257 -142.174229 
L 120.132022 -132.421889 
L 140.955836 -144.274237 
L 101.415728 -121.769085 
L 74.3563 -106.367596 
L 86.757593 -113.426074 
L 246.537884 -204.368661 
L 87.197998 -113.676741 
L 137.748246 -142.448564 
L 85.434486 -112.672998 
L 80.495516 -109.861871 
L 99.132423 -120.46949 
L 75.783365 -107.179843 
L 100.345901 -121.160169 
L 112.465562 -128.058349 
L 95.800084 -118.572814 
L 361.950618 -270.058444 
L 82.587915 -111.052807 
L 98.389593 -120.046692 
L 84.00175 -111.857523 
L 336.906093 -255.803783 
L 221.285442 -189.995659 
L 185.920682 -169.867002 
L 227.863174 -193.739525 
L 398.487273 -290.854112 
L 78.095022 -108.495575 
L 103.366366 -122.879335 
L 153.62175 -151.48333 
L 90.180659 -115.37439 
L 134.018975 -140.325965 
L 128.77002 -137.338403 
L 131.841519 -139.086616 
L 84.784273 -112.302914 
L 221.436654 -190.081725 
L 98.905605 -120.340392 
L 81.015308 -110.157722 
L 108.906404 -126.032574 
L 200.11573 -177.946436 
L 87.948389 -114.103843 
L 126.715424 -136.168983 
L 112.887066 -128.298258 
L 74.651163 -106.535425 
L 88.471961 -114.401846 
L 199.964518 -177.86037 
L 83.561344 -111.606856 
L 121.337939 -133.108265 
L 79.140277 -109.090505 
L 119.139691 -131.857082 
L 122.526845 -133.784958 
L 98.516233 -120.118772 
L 99.009563 -120.399562 
L 97.408604 -119.488339 
L 85.415584 -112.662239 
L 154.793645 -152.150341 
L 157.504124 -153.693072 
L 145.630184 -146.934748 
L 76.71332 -107.709148 
L 381.02226 -280.913503 
L 260.600622 -212.372788 
L 337.170714 -255.954398 
L 115.251647 -129.644113 
L 135.606703 -141.229656 
L 172.29268 -162.110315 
L 82.7637 -111.152859 
L 363.292626 -270.822279 
L 170.402527 -161.034491 
L 117.449895 -130.895296 
L 92.342994 -116.605132 
L 115.397189 -129.726952 
L 73.832727 -106.069593 
L 102.581952 -122.432868 
L 121.307697 -133.091052 
L 74.014182 -106.172872 
L 173.010938 -162.519127 
L 75.359971 -106.938858 
L 87.107271 -113.625101 
L 76.885324 -107.807048 
L 98.949078 -120.365136 
L 163.459996 -157.082991 
L 101.977103 -122.088605 
L 139.804733 -143.61906 
L 152.336446 -150.75177 
L 92.263608 -116.559948 
L 83.160632 -111.378782 
L 74.447027 -106.419236 
L 86.700888 -113.393799 
L 123.160046 -134.145359 
L 89.781837 -115.147392 
L 79.096803 -109.065761 
L 135.57457 -141.211367 
L 231.983707 -196.08482 
L 81.582354 -110.480469 
L 81.582354 -84.812332 
L 81.582354 -84.812332 
L 231.983707 -170.416683 
L 135.57457 -115.54323 
L 79.096803 -83.397624 
L 89.781837 -89.479254 
L 123.160046 -108.477221 
L 86.700888 -87.725662 
L 74.447027 -80.751098 
L 83.160632 -85.710645 
L 92.263608 -90.891811 
L 152.336446 -125.083633 
L 139.804733 -117.950923 
L 101.977103 -96.420467 
L 163.459996 -131.414854 
L 98.949078 -94.696998 
L 76.885324 -82.138911 
L 87.107271 -87.956964 
L 75.359971 -81.270721 
L 173.010938 -136.85099 
L 74.014182 -80.504735 
L 121.307697 -107.422914 
L 102.581952 -96.764731 
L 73.832727 -80.401456 
L 115.397189 -104.058814 
L 92.342994 -90.936995 
L 117.449895 -105.227159 
L 170.402527 -135.366354 
L 363.292626 -245.154141 
L 82.7637 -85.484722 
L 172.29268 -136.442177 
L 135.606703 -115.561519 
L 115.251647 -103.975976 
L 337.170714 -230.28626 
L 260.600622 -186.704651 
L 381.02226 -255.245366 
L 76.71332 -82.041011 
L 145.630184 -121.266611 
L 157.504124 -128.024934 
L 154.793645 -126.482203 
L 85.415584 -86.994102 
L 97.408604 -93.820202 
L 99.009563 -94.731425 
L 98.516233 -94.450635 
L 122.526845 -108.11682 
L 119.139691 -106.188945 
L 79.140277 -83.422368 
L 121.337939 -107.440127 
L 83.561344 -85.938719 
L 199.964518 -152.192233 
L 88.471961 -88.733709 
L 74.651163 -80.867287 
L 112.887066 -102.630121 
L 126.715424 -110.500845 
L 87.948389 -88.435705 
L 200.11573 -152.278299 
L 108.906404 -100.364436 
L 81.015308 -84.489585 
L 98.905605 -94.672254 
L 221.436654 -164.413588 
L 84.784273 -86.634777 
L 131.841519 -113.418479 
L 128.77002 -111.670265 
L 134.018975 -114.657827 
L 90.180659 -89.706253 
L 153.62175 -125.815193 
L 103.366366 -97.211198 
L 78.095022 -82.827438 
L 398.487273 -265.185975 
L 227.863174 -168.071388 
L 185.920682 -144.198865 
L 221.285442 -164.327522 
L 336.906093 -230.135645 
L 84.00175 -86.189386 
L 98.389593 -94.378554 
L 82.587915 -85.38467 
L 361.950618 -244.390306 
L 95.800084 -92.904676 
L 112.465562 -102.390212 
L 100.345901 -95.492032 
L 75.783365 -81.511705 
L 99.132423 -94.801353 
L 80.495516 -84.193733 
L 85.434486 -87.00486 
L 137.748246 -116.780427 
L 87.197998 -88.008604 
L 246.537884 -178.700524 
L 86.757593 -87.757937 
L 74.3563 -80.699459 
L 101.415728 -96.100948 
L 140.955836 -118.6061 
L 120.132022 -106.753752 
L 137.266257 -116.506092 
L 89.57581 -89.361989 
L 111.187818 -101.662955 
L 139.831195 -117.965985 
L 83.298613 -85.78918 
L 94.306863 -92.054776 
z
" style="stroke: #ff0000; stroke-opacity: 0.2"/>
    </defs>
    <g clip-path="url(#pb51505dbd2)">
     <use xlink:href="#m013dd420ae" x="0" y="345.6" style="fill: #ff0000; fill-opacity: 0.2; stroke: #ff0000; stroke-opacity: 0.2"/>
    </g>
   </g>
   <g id="PathCollection_1">
    <defs>
     <path id="m8cf15b70b5" d="M 0 1.581139 
C 0.419323 1.581139 0.821528 1.41454 1.118034 1.118034 
C 1.41454 0.821528 1.581139 0.419323 1.581139 0 
C 1.581139 -0.419323 1.41454 -0.821528 1.118034 -1.118034 
C 0.821528 -1.41454 0.419323 -1.581139 0 -1.581139 
C -0.419323 -1.581139 -0.821528 -1.41454 -1.118034 -1.118034 
C -1.41454 -0.821528 -1.581139 -0.419323 -1.581139 0 
C -1.581139 0.419323 -1.41454 0.821528 -1.118034 1.118034 
C -0.821528 1.41454 -0.419323 1.581139 0 1.581139 
z
" style="stroke: #0000ff"/>
    </defs>
    <g clip-path="url(#pb51505dbd2)">
     <use xlink:href="#m8cf15b70b5" x="94.306863" y="112.678009" style="fill: #0000ff; stroke: #0000ff"/>
     <use xlink:href="#m8cf15b70b5" x="83.298613" y="188.982674" style="fill: #0000ff; stroke: #0000ff"/>
     <use xlink:href="#m8cf15b70b5" x="139.831195" y="148.116962" style="fill: #0000ff; stroke: #0000ff"/>
     <use xlink:href="#m8cf15b70b5" x="111.187818" y="164.420684" style="fill: #0000ff; stroke: #0000ff"/>
     <use xlink:href="#m8cf15b70b5" x="89.57581" y="209.785249" style="fill: #0000ff; stroke: #0000ff"/>
     <use xlink:href="#m8cf15b70b5" x="137.266257" y="164.132123" style="fill: #0000ff; stroke: #0000ff"/>
     <use xlink:href="#m8cf15b70b5" x="120.132022" y="232.103674" style="fill: #0000ff; stroke: #0000ff"/>
     <use xlink:href="#m8cf15b70b5" x="140.955836" y="163.104123" style="fill: #0000ff; stroke: #0000ff"/>
     <use xlink:href="#m8cf15b70b5" x="101.415728" y="211.81059" style="fill: #0000ff; stroke: #0000ff"/>
     <use xlink:href="#m8cf15b70b5" x="74.3563" y="236.898303" style="fill: #0000ff; stroke: #0000ff"/>
     <use xlink:href="#m8cf15b70b5" x="86.757593" y="241.987805" style="fill: #0000ff; stroke: #0000ff"/>
     <use xlink:href="#m8cf15b70b5" x="246.537884" y="131.497626" style="fill: #0000ff; stroke: #0000ff"/>
     <use xlink:href="#m8cf15b70b5" x="87.197998" y="242.863409" style="fill: #0000ff; stroke: #0000ff"/>
     <use xlink:href="#m8cf15b70b5" x="137.748246" y="206.155688" style="fill: #0000ff; stroke: #0000ff"/>
     <use xlink:href="#m8cf15b70b5" x="85.434486" y="264.856481" style="fill: #0000ff; stroke: #0000ff"/>
     <use xlink:href="#m8cf15b70b5" x="80.495516" y="239.636931" style="fill: #0000ff; stroke: #0000ff"/>
     <use xlink:href="#m8cf15b70b5" x="99.132423" y="223.478392" style="fill: #0000ff; stroke: #0000ff"/>
     <use xlink:href="#m8cf15b70b5" x="75.783365" y="266.257897" style="fill: #0000ff; stroke: #0000ff"/>
     <use xlink:href="#m8cf15b70b5" x="100.345901" y="238.384394" style="fill: #0000ff; stroke: #0000ff"/>
     <use xlink:href="#m8cf15b70b5" x="112.465562" y="222.716409" style="fill: #0000ff; stroke: #0000ff"/>
     <use xlink:href="#m8cf15b70b5" x="95.800084" y="243.012199" style="fill: #0000ff; stroke: #0000ff"/>
     <use xlink:href="#m8cf15b70b5" x="361.950618" y="75.029758" style="fill: #0000ff; stroke: #0000ff"/>
     <use xlink:href="#m8cf15b70b5" x="82.587915" y="232.872871" style="fill: #0000ff; stroke: #0000ff"/>
     <use xlink:href="#m8cf15b70b5" x="98.389593" y="224.53615" style="fill: #0000ff; stroke: #0000ff"/>
     <use xlink:href="#m8cf15b70b5" x="84.00175" y="243.518083" style="fill: #0000ff; stroke: #0000ff"/>
     <use xlink:href="#m8cf15b70b5" x="336.906093" y="67.175476" style="fill: #0000ff; stroke: #0000ff"/>
     <use xlink:href="#m8cf15b70b5" x="221.285442" y="149.568787" style="fill: #0000ff; stroke: #0000ff"/>
     <use xlink:href="#m8cf15b70b5" x="185.920682" y="207.77073" style="fill: #0000ff; stroke: #0000ff"/>
     <use xlink:href="#m8cf15b70b5" x="227.863174" y="138.828891" style="fill: #0000ff; stroke: #0000ff"/>
     <use xlink:href="#m8cf15b70b5" x="398.487273" y="53.568" style="fill: #0000ff; stroke: #0000ff"/>
     <use xlink:href="#m8cf15b70b5" x="78.095022" y="282.316072" style="fill: #0000ff; stroke: #0000ff"/>
     <use xlink:href="#m8cf15b70b5" x="103.366366" y="217.240054" style="fill: #0000ff; stroke: #0000ff"/>
     <use xlink:href="#m8cf15b70b5" x="153.62175" y="161.895772" style="fill: #0000ff; stroke: #0000ff"/>
     <use xlink:href="#m8cf15b70b5" x="90.180659" y="254.636716" style="fill: #0000ff; stroke: #0000ff"/>
     <use xlink:href="#m8cf15b70b5" x="134.018975" y="212.316474" style="fill: #0000ff; stroke: #0000ff"/>
     <use xlink:href="#m8cf15b70b5" x="128.77002" y="230.173919" style="fill: #0000ff; stroke: #0000ff"/>
     <use xlink:href="#m8cf15b70b5" x="131.841519" y="234.194843" style="fill: #0000ff; stroke: #0000ff"/>
     <use xlink:href="#m8cf15b70b5" x="84.784273" y="240.719939" style="fill: #0000ff; stroke: #0000ff"/>
     <use xlink:href="#m8cf15b70b5" x="221.436654" y="180.084161" style="fill: #0000ff; stroke: #0000ff"/>
     <use xlink:href="#m8cf15b70b5" x="98.905605" y="221.741613" style="fill: #0000ff; stroke: #0000ff"/>
     <use xlink:href="#m8cf15b70b5" x="81.015308" y="266.295771" style="fill: #0000ff; stroke: #0000ff"/>
     <use xlink:href="#m8cf15b70b5" x="108.906404" y="236.042538" style="fill: #0000ff; stroke: #0000ff"/>
     <use xlink:href="#m8cf15b70b5" x="200.11573" y="222.751578" style="fill: #0000ff; stroke: #0000ff"/>
     <use xlink:href="#m8cf15b70b5" x="87.948389" y="249.306445" style="fill: #0000ff; stroke: #0000ff"/>
     <use xlink:href="#m8cf15b70b5" x="126.715424" y="210.610355" style="fill: #0000ff; stroke: #0000ff"/>
     <use xlink:href="#m8cf15b70b5" x="112.887066" y="261.879609" style="fill: #0000ff; stroke: #0000ff"/>
     <use xlink:href="#m8cf15b70b5" x="74.651163" y="225.021294" style="fill: #0000ff; stroke: #0000ff"/>
     <use xlink:href="#m8cf15b70b5" x="88.471961" y="254.686313" style="fill: #0000ff; stroke: #0000ff"/>
     <use xlink:href="#m8cf15b70b5" x="199.964518" y="199.135528" style="fill: #0000ff; stroke: #0000ff"/>
     <use xlink:href="#m8cf15b70b5" x="83.561344" y="262.135707" style="fill: #0000ff; stroke: #0000ff"/>
     <use xlink:href="#m8cf15b70b5" x="121.337939" y="210.442629" style="fill: #0000ff; stroke: #0000ff"/>
     <use xlink:href="#m8cf15b70b5" x="79.140277" y="254.72599" style="fill: #0000ff; stroke: #0000ff"/>
     <use xlink:href="#m8cf15b70b5" x="119.139691" y="232.642923" style="fill: #0000ff; stroke: #0000ff"/>
     <use xlink:href="#m8cf15b70b5" x="122.526845" y="226.244073" style="fill: #0000ff; stroke: #0000ff"/>
     <use xlink:href="#m8cf15b70b5" x="98.516233" y="258.479994" style="fill: #0000ff; stroke: #0000ff"/>
     <use xlink:href="#m8cf15b70b5" x="99.009563" y="284.1295" style="fill: #0000ff; stroke: #0000ff"/>
     <use xlink:href="#m8cf15b70b5" x="97.408604" y="248.990831" style="fill: #0000ff; stroke: #0000ff"/>
     <use xlink:href="#m8cf15b70b5" x="85.415584" y="229.796084" style="fill: #0000ff; stroke: #0000ff"/>
     <use xlink:href="#m8cf15b70b5" x="154.793645" y="235.583545" style="fill: #0000ff; stroke: #0000ff"/>
     <use xlink:href="#m8cf15b70b5" x="157.504124" y="222.492774" style="fill: #0000ff; stroke: #0000ff"/>
     <use xlink:href="#m8cf15b70b5" x="145.630184" y="224.699368" style="fill: #0000ff; stroke: #0000ff"/>
     <use xlink:href="#m8cf15b70b5" x="76.71332" y="278.012809" style="fill: #0000ff; stroke: #0000ff"/>
     <use xlink:href="#m8cf15b70b5" x="381.02226" y="109.639097" style="fill: #0000ff; stroke: #0000ff"/>
     <use xlink:href="#m8cf15b70b5" x="260.600622" y="162.617175" style="fill: #0000ff; stroke: #0000ff"/>
     <use xlink:href="#m8cf15b70b5" x="337.170714" y="117.529449" style="fill: #0000ff; stroke: #0000ff"/>
     <use xlink:href="#m8cf15b70b5" x="115.251647" y="227.262154" style="fill: #0000ff; stroke: #0000ff"/>
     <use xlink:href="#m8cf15b70b5" x="135.606703" y="219.516083" style="fill: #0000ff; stroke: #0000ff"/>
     <use xlink:href="#m8cf15b70b5" x="172.29268" y="201.199645" style="fill: #0000ff; stroke: #0000ff"/>
     <use xlink:href="#m8cf15b70b5" x="82.7637" y="262.141117" style="fill: #0000ff; stroke: #0000ff"/>
     <use xlink:href="#m8cf15b70b5" x="363.292626" y="82.018355" style="fill: #0000ff; stroke: #0000ff"/>
     <use xlink:href="#m8cf15b70b5" x="170.402527" y="211.078365" style="fill: #0000ff; stroke: #0000ff"/>
     <use xlink:href="#m8cf15b70b5" x="117.449895" y="235.010931" style="fill: #0000ff; stroke: #0000ff"/>
     <use xlink:href="#m8cf15b70b5" x="92.342994" y="259.786636" style="fill: #0000ff; stroke: #0000ff"/>
     <use xlink:href="#m8cf15b70b5" x="115.397189" y="241.186146" style="fill: #0000ff; stroke: #0000ff"/>
     <use xlink:href="#m8cf15b70b5" x="73.832727" y="295.488" style="fill: #0000ff; stroke: #0000ff"/>
     <use xlink:href="#m8cf15b70b5" x="102.581952" y="268.638439" style="fill: #0000ff; stroke: #0000ff"/>
     <use xlink:href="#m8cf15b70b5" x="121.307697" y="236.286012" style="fill: #0000ff; stroke: #0000ff"/>
     <use xlink:href="#m8cf15b70b5" x="74.014182" y="219.902034" style="fill: #0000ff; stroke: #0000ff"/>
     <use xlink:href="#m8cf15b70b5" x="173.010938" y="210.42279" style="fill: #0000ff; stroke: #0000ff"/>
     <use xlink:href="#m8cf15b70b5" x="75.359971" y="252.760165" style="fill: #0000ff; stroke: #0000ff"/>
     <use xlink:href="#m8cf15b70b5" x="87.107271" y="266.990483" style="fill: #0000ff; stroke: #0000ff"/>
     <use xlink:href="#m8cf15b70b5" x="76.885324" y="269.473193" style="fill: #0000ff; stroke: #0000ff"/>
     <use xlink:href="#m8cf15b70b5" x="98.949078" y="265.19527" style="fill: #0000ff; stroke: #0000ff"/>
     <use xlink:href="#m8cf15b70b5" x="163.459996" y="203.290813" style="fill: #0000ff; stroke: #0000ff"/>
     <use xlink:href="#m8cf15b70b5" x="101.977103" y="223.128511" style="fill: #0000ff; stroke: #0000ff"/>
     <use xlink:href="#m8cf15b70b5" x="139.804733" y="233.066748" style="fill: #0000ff; stroke: #0000ff"/>
     <use xlink:href="#m8cf15b70b5" x="152.336446" y="210.012492" style="fill: #0000ff; stroke: #0000ff"/>
     <use xlink:href="#m8cf15b70b5" x="92.263608" y="262.955853" style="fill: #0000ff; stroke: #0000ff"/>
     <use xlink:href="#m8cf15b70b5" x="83.160632" y="269.943999" style="fill: #0000ff; stroke: #0000ff"/>
     <use xlink:href="#m8cf15b70b5" x="74.447027" y="245.872564" style="fill: #0000ff; stroke: #0000ff"/>
     <use xlink:href="#m8cf15b70b5" x="86.700888" y="254.676393" style="fill: #0000ff; stroke: #0000ff"/>
     <use xlink:href="#m8cf15b70b5" x="123.160046" y="232.576193" style="fill: #0000ff; stroke: #0000ff"/>
     <use xlink:href="#m8cf15b70b5" x="89.781837" y="206.362189" style="fill: #0000ff; stroke: #0000ff"/>
     <use xlink:href="#m8cf15b70b5" x="79.096803" y="253.397706" style="fill: #0000ff; stroke: #0000ff"/>
     <use xlink:href="#m8cf15b70b5" x="135.57457" y="270.01127" style="fill: #0000ff; stroke: #0000ff"/>
     <use xlink:href="#m8cf15b70b5" x="231.983707" y="189.659892" style="fill: #0000ff; stroke: #0000ff"/>
     <use xlink:href="#m8cf15b70b5" x="81.582354" y="265.75039" style="fill: #0000ff; stroke: #0000ff"/>
    </g>
   </g>
   <g id="matplotlib.axis_1">
    <g id="xtick_1">
     <g id="line2d_1">
      <path d="M 73.324276 307.584 
L 73.324276 41.472 
" clip-path="url(#pb51505dbd2)" style="fill: none; stroke-dasharray: 3.7,1.6; stroke-dashoffset: 0; stroke: #e6e6e6; stroke-opacity: 0.5"/>
     </g>
     <g id="line2d_2">
      <defs>
       <path id="m026edaed54" d="M 0 0 
L 0 3.5 
" style="stroke: #000000; stroke-width: 0.8"/>
      </defs>
      <g>
       <use xlink:href="#m026edaed54" x="73.324276" y="307.584" style="stroke: #000000; stroke-width: 0.8"/>
      </g>
     </g>
     <g id="text_1">
      <!-- 5.0 -->
      <g transform="translate(65.372714 322.182437) scale(0.1 -0.1)">
       <defs>
        <path id="DejaVuSans-35" d="M 691 4666 
L 3169 4666 
L 3169 4134 
L 1269 4134 
L 1269 2991 
Q 1406 3038 1543 3061 
Q 1681 3084 1819 3084 
Q 2600 3084 3056 2656 
Q 3513 2228 3513 1497 
Q 3513 744 3044 326 
Q 2575 -91 1722 -91 
Q 1428 -91 1123 -41 
Q 819 9 494 109 
L 494 744 
Q 775 591 1075 516 
Q 1375 441 1709 441 
Q 2250 441 2565 725 
Q 2881 1009 2881 1497 
Q 2881 1984 2565 2268 
Q 2250 2553 1709 2553 
Q 1456 2553 1204 2497 
Q 953 2441 691 2322 
L 691 4666 
z
" transform="scale(0.015625)"/>
        <path id="DejaVuSans-2e" d="M 684 794 
L 1344 794 
L 1344 0 
L 684 0 
L 684 794 
z
" transform="scale(0.015625)"/>
        <path id="DejaVuSans-30" d="M 2034 4250 
Q 1547 4250 1301 3770 
Q 1056 3291 1056 2328 
Q 1056 1369 1301 889 
Q 1547 409 2034 409 
Q 2525 409 2770 889 
Q 3016 1369 3016 2328 
Q 3016 3291 2770 3770 
Q 2525 4250 2034 4250 
z
M 2034 4750 
Q 2819 4750 3233 4129 
Q 3647 3509 3647 2328 
Q 3647 1150 3233 529 
Q 2819 -91 2034 -91 
Q 1250 -91 836 529 
Q 422 1150 422 2328 
Q 422 3509 836 4129 
Q 1250 4750 2034 4750 
z
" transform="scale(0.015625)"/>
       </defs>
       <use xlink:href="#DejaVuSans-35"/>
       <use xlink:href="#DejaVuSans-2e" transform="translate(63.623047 0)"/>
       <use xlink:href="#DejaVuSans-30" transform="translate(95.410156 0)"/>
      </g>
     </g>
    </g>
    <g id="xtick_2">
     <g id="line2d_3">
      <path d="M 120.578098 307.584 
L 120.578098 41.472 
" clip-path="url(#pb51505dbd2)" style="fill: none; stroke-dasharray: 3.7,1.6; stroke-dashoffset: 0; stroke: #e6e6e6; stroke-opacity: 0.5"/>
     </g>
     <g id="line2d_4">
      <g>
       <use xlink:href="#m026edaed54" x="120.578098" y="307.584" style="stroke: #000000; stroke-width: 0.8"/>
      </g>
     </g>
     <g id="text_2">
      <!-- 7.5 -->
      <g transform="translate(112.626535 322.182437) scale(0.1 -0.1)">
       <defs>
        <path id="DejaVuSans-37" d="M 525 4666 
L 3525 4666 
L 3525 4397 
L 1831 0 
L 1172 0 
L 2766 4134 
L 525 4134 
L 525 4666 
z
" transform="scale(0.015625)"/>
       </defs>
       <use xlink:href="#DejaVuSans-37"/>
       <use xlink:href="#DejaVuSans-2e" transform="translate(63.623047 0)"/>
       <use xlink:href="#DejaVuSans-35" transform="translate(95.410156 0)"/>
      </g>
     </g>
    </g>
    <g id="xtick_3">
     <g id="line2d_5">
      <path d="M 167.831919 307.584 
L 167.831919 41.472 
" clip-path="url(#pb51505dbd2)" style="fill: none; stroke-dasharray: 3.7,1.6; stroke-dashoffset: 0; stroke: #e6e6e6; stroke-opacity: 0.5"/>
     </g>
     <g id="line2d_6">
      <g>
       <use xlink:href="#m026edaed54" x="167.831919" y="307.584" style="stroke: #000000; stroke-width: 0.8"/>
      </g>
     </g>
     <g id="text_3">
      <!-- 10.0 -->
      <g transform="translate(156.699107 322.182437) scale(0.1 -0.1)">
       <defs>
        <path id="DejaVuSans-31" d="M 794 531 
L 1825 531 
L 1825 4091 
L 703 3866 
L 703 4441 
L 1819 4666 
L 2450 4666 
L 2450 531 
L 3481 531 
L 3481 0 
L 794 0 
L 794 531 
z
" transform="scale(0.015625)"/>
       </defs>
       <use xlink:href="#DejaVuSans-31"/>
       <use xlink:href="#DejaVuSans-30" transform="translate(63.623047 0)"/>
       <use xlink:href="#DejaVuSans-2e" transform="translate(127.246094 0)"/>
       <use xlink:href="#DejaVuSans-30" transform="translate(159.033203 0)"/>
      </g>
     </g>
    </g>
    <g id="xtick_4">
     <g id="line2d_7">
      <path d="M 215.085741 307.584 
L 215.085741 41.472 
" clip-path="url(#pb51505dbd2)" style="fill: none; stroke-dasharray: 3.7,1.6; stroke-dashoffset: 0; stroke: #e6e6e6; stroke-opacity: 0.5"/>
     </g>
     <g id="line2d_8">
      <g>
       <use xlink:href="#m026edaed54" x="215.085741" y="307.584" style="stroke: #000000; stroke-width: 0.8"/>
      </g>
     </g>
     <g id="text_4">
      <!-- 12.5 -->
      <g transform="translate(203.952928 322.182437) scale(0.1 -0.1)">
       <defs>
        <path id="DejaVuSans-32" d="M 1228 531 
L 3431 531 
L 3431 0 
L 469 0 
L 469 531 
Q 828 903 1448 1529 
Q 2069 2156 2228 2338 
Q 2531 2678 2651 2914 
Q 2772 3150 2772 3378 
Q 2772 3750 2511 3984 
Q 2250 4219 1831 4219 
Q 1534 4219 1204 4116 
Q 875 4013 500 3803 
L 500 4441 
Q 881 4594 1212 4672 
Q 1544 4750 1819 4750 
Q 2544 4750 2975 4387 
Q 3406 4025 3406 3419 
Q 3406 3131 3298 2873 
Q 3191 2616 2906 2266 
Q 2828 2175 2409 1742 
Q 1991 1309 1228 531 
z
" transform="scale(0.015625)"/>
       </defs>
       <use xlink:href="#DejaVuSans-31"/>
       <use xlink:href="#DejaVuSans-32" transform="translate(63.623047 0)"/>
       <use xlink:href="#DejaVuSans-2e" transform="translate(127.246094 0)"/>
       <use xlink:href="#DejaVuSans-35" transform="translate(159.033203 0)"/>
      </g>
     </g>
    </g>
    <g id="xtick_5">
     <g id="line2d_9">
      <path d="M 262.339562 307.584 
L 262.339562 41.472 
" clip-path="url(#pb51505dbd2)" style="fill: none; stroke-dasharray: 3.7,1.6; stroke-dashoffset: 0; stroke: #e6e6e6; stroke-opacity: 0.5"/>
     </g>
     <g id="line2d_10">
      <g>
       <use xlink:href="#m026edaed54" x="262.339562" y="307.584" style="stroke: #000000; stroke-width: 0.8"/>
      </g>
     </g>
     <g id="text_5">
      <!-- 15.0 -->
      <g transform="translate(251.20675 322.182437) scale(0.1 -0.1)">
       <use xlink:href="#DejaVuSans-31"/>
       <use xlink:href="#DejaVuSans-35" transform="translate(63.623047 0)"/>
       <use xlink:href="#DejaVuSans-2e" transform="translate(127.246094 0)"/>
       <use xlink:href="#DejaVuSans-30" transform="translate(159.033203 0)"/>
      </g>
     </g>
    </g>
    <g id="xtick_6">
     <g id="line2d_11">
      <path d="M 309.593384 307.584 
L 309.593384 41.472 
" clip-path="url(#pb51505dbd2)" style="fill: none; stroke-dasharray: 3.7,1.6; stroke-dashoffset: 0; stroke: #e6e6e6; stroke-opacity: 0.5"/>
     </g>
     <g id="line2d_12">
      <g>
       <use xlink:href="#m026edaed54" x="309.593384" y="307.584" style="stroke: #000000; stroke-width: 0.8"/>
      </g>
     </g>
     <g id="text_6">
      <!-- 17.5 -->
      <g transform="translate(298.460571 322.182437) scale(0.1 -0.1)">
       <use xlink:href="#DejaVuSans-31"/>
       <use xlink:href="#DejaVuSans-37" transform="translate(63.623047 0)"/>
       <use xlink:href="#DejaVuSans-2e" transform="translate(127.246094 0)"/>
       <use xlink:href="#DejaVuSans-35" transform="translate(159.033203 0)"/>
      </g>
     </g>
    </g>
    <g id="xtick_7">
     <g id="line2d_13">
      <path d="M 356.847205 307.584 
L 356.847205 41.472 
" clip-path="url(#pb51505dbd2)" style="fill: none; stroke-dasharray: 3.7,1.6; stroke-dashoffset: 0; stroke: #e6e6e6; stroke-opacity: 0.5"/>
     </g>
     <g id="line2d_14">
      <g>
       <use xlink:href="#m026edaed54" x="356.847205" y="307.584" style="stroke: #000000; stroke-width: 0.8"/>
      </g>
     </g>
     <g id="text_7">
      <!-- 20.0 -->
      <g transform="translate(345.714393 322.182437) scale(0.1 -0.1)">
       <use xlink:href="#DejaVuSans-32"/>
       <use xlink:href="#DejaVuSans-30" transform="translate(63.623047 0)"/>
       <use xlink:href="#DejaVuSans-2e" transform="translate(127.246094 0)"/>
       <use xlink:href="#DejaVuSans-30" transform="translate(159.033203 0)"/>
      </g>
     </g>
    </g>
    <g id="xtick_8">
     <g id="line2d_15">
      <path d="M 404.101027 307.584 
L 404.101027 41.472 
" clip-path="url(#pb51505dbd2)" style="fill: none; stroke-dasharray: 3.7,1.6; stroke-dashoffset: 0; stroke: #e6e6e6; stroke-opacity: 0.5"/>
     </g>
     <g id="line2d_16">
      <g>
       <use xlink:href="#m026edaed54" x="404.101027" y="307.584" style="stroke: #000000; stroke-width: 0.8"/>
      </g>
     </g>
     <g id="text_8">
      <!-- 22.5 -->
      <g transform="translate(392.968214 322.182437) scale(0.1 -0.1)">
       <use xlink:href="#DejaVuSans-32"/>
       <use xlink:href="#DejaVuSans-32" transform="translate(63.623047 0)"/>
       <use xlink:href="#DejaVuSans-2e" transform="translate(127.246094 0)"/>
       <use xlink:href="#DejaVuSans-35" transform="translate(159.033203 0)"/>
      </g>
     </g>
    </g>
    <g id="text_9">
     <!-- Population of City in 10,000s -->
     <g transform="translate(148.865469 336.391812) scale(0.1 -0.1)">
      <defs>
       <path id="DejaVuSansMono-Bold-50" d="M 1428 3891 
L 1428 2522 
L 1806 2522 
Q 2259 2522 2442 2675 
Q 2625 2828 2625 3206 
Q 2625 3584 2442 3737 
Q 2259 3891 1806 3891 
L 1428 3891 
z
M 506 4666 
L 1772 4666 
Q 2738 4666 3161 4322 
Q 3584 3978 3584 3206 
Q 3584 2434 3161 2090 
Q 2738 1747 1772 1747 
L 1428 1747 
L 1428 0 
L 506 0 
L 506 4666 
z
" transform="scale(0.015625)"/>
       <path id="DejaVuSansMono-Bold-6f" d="M 1925 2841 
Q 1597 2841 1409 2552 
Q 1222 2263 1222 1747 
Q 1222 1231 1409 942 
Q 1597 653 1925 653 
Q 2256 653 2443 942 
Q 2631 1231 2631 1747 
Q 2631 2263 2443 2552 
Q 2256 2841 1925 2841 
z
M 306 1747 
Q 306 2594 745 3089 
Q 1184 3584 1925 3584 
Q 2669 3584 3108 3089 
Q 3547 2594 3547 1747 
Q 3547 900 3108 404 
Q 2669 -91 1925 -91 
Q 1184 -91 745 404 
Q 306 900 306 1747 
z
" transform="scale(0.015625)"/>
       <path id="DejaVuSansMono-Bold-70" d="M 1381 494 
L 1381 -1331 
L 469 -1331 
L 469 3500 
L 1381 3500 
L 1381 2975 
Q 1525 3278 1759 3431 
Q 1994 3584 2309 3584 
Q 2909 3584 3240 3103 
Q 3572 2622 3572 1747 
Q 3572 859 3236 384 
Q 2900 -91 2278 -91 
Q 1997 -91 1773 54 
Q 1550 200 1381 494 
z
M 2656 1753 
Q 2656 2259 2487 2546 
Q 2319 2834 2022 2834 
Q 1725 2834 1553 2546 
Q 1381 2259 1381 1753 
Q 1381 1247 1553 959 
Q 1725 672 2022 672 
Q 2319 672 2487 959 
Q 2656 1247 2656 1753 
z
" transform="scale(0.015625)"/>
       <path id="DejaVuSansMono-Bold-75" d="M 500 1222 
L 500 3500 
L 1416 3500 
L 1416 1363 
Q 1416 984 1522 821 
Q 1628 659 1875 659 
Q 2122 659 2261 878 
Q 2400 1097 2400 1491 
L 2400 3500 
L 3316 3500 
L 3316 0 
L 2400 0 
L 2400 519 
Q 2303 228 2070 68 
Q 1838 -91 1509 -91 
Q 1009 -91 754 240 
Q 500 572 500 1222 
z
" transform="scale(0.015625)"/>
       <path id="DejaVuSansMono-Bold-6c" d="M 1209 1459 
L 1209 4159 
L 281 4159 
L 281 4863 
L 2125 4863 
L 2125 1459 
Q 2125 1047 2253 875 
Q 2381 703 2688 703 
L 3419 703 
L 3419 0 
L 2431 0 
Q 1778 0 1493 337 
Q 1209 675 1209 1459 
z
" transform="scale(0.015625)"/>
       <path id="DejaVuSansMono-Bold-61" d="M 2188 1644 
Q 1675 1644 1472 1512 
Q 1269 1381 1269 1063 
Q 1269 825 1409 684 
Q 1550 544 1791 544 
Q 2153 544 2353 817 
Q 2553 1091 2553 1581 
L 2553 1644 
L 2188 1644 
z
M 3463 1997 
L 3463 0 
L 2553 0 
L 2553 391 
Q 2388 159 2128 34 
Q 1869 -91 1556 -91 
Q 959 -91 626 225 
Q 294 541 294 1106 
Q 294 1719 691 2011 
Q 1088 2303 1919 2303 
L 2553 2303 
L 2553 2456 
Q 2553 2678 2392 2792 
Q 2231 2906 1919 2906 
Q 1591 2906 1283 2823 
Q 975 2741 641 2559 
L 641 3341 
Q 944 3466 1256 3525 
Q 1569 3584 1919 3584 
Q 2772 3584 3117 3237 
Q 3463 2891 3463 1997 
z
" transform="scale(0.015625)"/>
       <path id="DejaVuSansMono-Bold-74" d="M 2156 4494 
L 2156 3500 
L 3353 3500 
L 3353 2797 
L 2156 2797 
L 2156 1141 
Q 2156 906 2270 804 
Q 2384 703 2650 703 
L 3353 703 
L 3353 0 
L 2584 0 
Q 1797 0 1519 251 
Q 1241 503 1241 1184 
L 1241 2797 
L 347 2797 
L 347 3500 
L 1241 3500 
L 1241 4494 
L 2156 4494 
z
" transform="scale(0.015625)"/>
       <path id="DejaVuSansMono-Bold-69" d="M 691 3500 
L 2503 3500 
L 2503 703 
L 3641 703 
L 3641 0 
L 447 0 
L 447 703 
L 1588 703 
L 1588 2797 
L 691 2797 
L 691 3500 
z
M 1588 5203 
L 2503 5203 
L 2503 4134 
L 1588 4134 
L 1588 5203 
z
" transform="scale(0.015625)"/>
       <path id="DejaVuSansMono-Bold-6e" d="M 3347 2272 
L 3347 0 
L 2438 0 
L 2438 2131 
Q 2438 2513 2330 2677 
Q 2222 2841 1978 2841 
Q 1731 2841 1589 2619 
Q 1447 2397 1447 2003 
L 1447 0 
L 538 0 
L 538 3500 
L 1447 3500 
L 1447 2975 
Q 1544 3266 1778 3425 
Q 2013 3584 2344 3584 
Q 2841 3584 3094 3254 
Q 3347 2925 3347 2272 
z
" transform="scale(0.015625)"/>
       <path id="DejaVuSansMono-Bold-20" transform="scale(0.015625)"/>
       <path id="DejaVuSansMono-Bold-66" d="M 2309 3806 
L 2309 3500 
L 3384 3500 
L 3384 2797 
L 2309 2797 
L 2309 0 
L 1394 0 
L 1394 2797 
L 544 2797 
L 544 3500 
L 1394 3500 
L 1394 3744 
Q 1394 4375 1656 4619 
Q 1919 4863 2631 4863 
L 3384 4863 
L 3384 4159 
L 2669 4159 
Q 2463 4159 2389 4084 
Q 2316 4009 2309 3806 
z
" transform="scale(0.015625)"/>
       <path id="DejaVuSansMono-Bold-43" d="M 3378 134 
Q 3159 22 2918 -34 
Q 2678 -91 2413 -91 
Q 1469 -91 972 531 
Q 475 1153 475 2328 
Q 475 3506 972 4128 
Q 1469 4750 2413 4750 
Q 2678 4750 2922 4694 
Q 3166 4638 3378 4525 
L 3378 3500 
Q 3141 3719 2917 3820 
Q 2694 3922 2456 3922 
Q 1950 3922 1692 3520 
Q 1434 3119 1434 2328 
Q 1434 1541 1692 1139 
Q 1950 738 2456 738 
Q 2694 738 2917 839 
Q 3141 941 3378 1159 
L 3378 134 
z
" transform="scale(0.015625)"/>
       <path id="DejaVuSansMono-Bold-79" d="M 2222 -378 
Q 2038 -872 1780 -1098 
Q 1522 -1325 1153 -1325 
L 397 -1325 
L 397 -628 
L 769 -628 
Q 1050 -628 1181 -533 
Q 1313 -438 1447 -91 
L 1516 97 
L 184 3500 
L 1147 3500 
L 1947 1228 
L 2713 3500 
L 3675 3500 
L 2222 -378 
z
" transform="scale(0.015625)"/>
       <path id="DejaVuSansMono-Bold-31" d="M 588 813 
L 1619 813 
L 1619 3841 
L 659 3603 
L 659 4434 
L 1625 4666 
L 2516 4666 
L 2516 813 
L 3547 813 
L 3547 0 
L 588 0 
L 588 813 
z
" transform="scale(0.015625)"/>
       <path id="DejaVuSansMono-Bold-30" d="M 1538 2328 
Q 1538 2494 1650 2606 
Q 1763 2719 1925 2719 
Q 2091 2719 2203 2606 
Q 2316 2494 2316 2328 
Q 2316 2166 2203 2053 
Q 2091 1941 1925 1941 
Q 1763 1941 1650 2052 
Q 1538 2163 1538 2328 
z
M 1925 3969 
Q 1606 3969 1459 3578 
Q 1313 3188 1313 2328 
Q 1313 1472 1459 1081 
Q 1606 691 1925 691 
Q 2247 691 2394 1081 
Q 2541 1472 2541 2328 
Q 2541 3188 2394 3578 
Q 2247 3969 1925 3969 
z
M 384 2328 
Q 384 3541 768 4145 
Q 1153 4750 1925 4750 
Q 2700 4750 3084 4147 
Q 3469 3544 3469 2328 
Q 3469 1116 3084 512 
Q 2700 -91 1925 -91 
Q 1153 -91 768 514 
Q 384 1119 384 2328 
z
" transform="scale(0.015625)"/>
       <path id="DejaVuSansMono-Bold-2c" d="M 1441 1147 
L 2419 1147 
L 2419 300 
L 1806 -897 
L 1131 -897 
L 1441 300 
L 1441 1147 
z
" transform="scale(0.015625)"/>
       <path id="DejaVuSansMono-Bold-73" d="M 3097 3391 
L 3097 2591 
Q 2844 2753 2570 2836 
Q 2297 2919 2022 2919 
Q 1716 2919 1559 2830 
Q 1403 2741 1403 2566 
Q 1403 2316 2072 2159 
L 2106 2150 
L 2369 2088 
Q 2869 1969 3101 1705 
Q 3334 1441 3334 991 
Q 3334 450 2979 179 
Q 2625 -91 1913 -91 
Q 1597 -91 1265 -36 
Q 934 19 594 128 
L 594 928 
Q 897 756 1211 665 
Q 1525 575 1819 575 
Q 2141 575 2306 669 
Q 2472 763 2472 941 
Q 2472 1116 2355 1209 
Q 2238 1303 1797 1409 
L 1544 1466 
Q 1019 1584 778 1837 
Q 538 2091 538 2516 
Q 538 3022 903 3303 
Q 1269 3584 1931 3584 
Q 2228 3584 2523 3536 
Q 2819 3488 3097 3391 
z
" transform="scale(0.015625)"/>
      </defs>
      <use xlink:href="#DejaVuSansMono-Bold-50"/>
      <use xlink:href="#DejaVuSansMono-Bold-6f" transform="translate(60.205078 0)"/>
      <use xlink:href="#DejaVuSansMono-Bold-70" transform="translate(120.410156 0)"/>
      <use xlink:href="#DejaVuSansMono-Bold-75" transform="translate(180.615234 0)"/>
      <use xlink:href="#DejaVuSansMono-Bold-6c" transform="translate(240.820312 0)"/>
      <use xlink:href="#DejaVuSansMono-Bold-61" transform="translate(301.025391 0)"/>
      <use xlink:href="#DejaVuSansMono-Bold-74" transform="translate(361.230469 0)"/>
      <use xlink:href="#DejaVuSansMono-Bold-69" transform="translate(421.435547 0)"/>
      <use xlink:href="#DejaVuSansMono-Bold-6f" transform="translate(481.640625 0)"/>
      <use xlink:href="#DejaVuSansMono-Bold-6e" transform="translate(541.845703 0)"/>
      <use xlink:href="#DejaVuSansMono-Bold-20" transform="translate(602.050781 0)"/>
      <use xlink:href="#DejaVuSansMono-Bold-6f" transform="translate(662.255859 0)"/>
      <use xlink:href="#DejaVuSansMono-Bold-66" transform="translate(722.460938 0)"/>
      <use xlink:href="#DejaVuSansMono-Bold-20" transform="translate(782.666016 0)"/>
      <use xlink:href="#DejaVuSansMono-Bold-43" transform="translate(842.871094 0)"/>
      <use xlink:href="#DejaVuSansMono-Bold-69" transform="translate(903.076172 0)"/>
      <use xlink:href="#DejaVuSansMono-Bold-74" transform="translate(963.28125 0)"/>
      <use xlink:href="#DejaVuSansMono-Bold-79" transform="translate(1023.486328 0)"/>
      <use xlink:href="#DejaVuSansMono-Bold-20" transform="translate(1083.691406 0)"/>
      <use xlink:href="#DejaVuSansMono-Bold-69" transform="translate(1143.896484 0)"/>
      <use xlink:href="#DejaVuSansMono-Bold-6e" transform="translate(1204.101562 0)"/>
      <use xlink:href="#DejaVuSansMono-Bold-20" transform="translate(1264.306641 0)"/>
      <use xlink:href="#DejaVuSansMono-Bold-31" transform="translate(1324.511719 0)"/>
      <use xlink:href="#DejaVuSansMono-Bold-30" transform="translate(1384.716797 0)"/>
      <use xlink:href="#DejaVuSansMono-Bold-2c" transform="translate(1444.921875 0)"/>
      <use xlink:href="#DejaVuSansMono-Bold-30" transform="translate(1505.126953 0)"/>
      <use xlink:href="#DejaVuSansMono-Bold-30" transform="translate(1565.332031 0)"/>
      <use xlink:href="#DejaVuSansMono-Bold-30" transform="translate(1625.537109 0)"/>
      <use xlink:href="#DejaVuSansMono-Bold-73" transform="translate(1685.742188 0)"/>
     </g>
    </g>
   </g>
   <g id="matplotlib.axis_2">
    <g id="ytick_1">
     <g id="line2d_17">
      <path d="M 57.6 271.314666 
L 414.72 271.314666 
" clip-path="url(#pb51505dbd2)" style="fill: none; stroke-dasharray: 3.7,1.6; stroke-dashoffset: 0; stroke: #e6e6e6; stroke-opacity: 0.5"/>
     </g>
     <g id="line2d_18">
      <defs>
       <path id="mb62079c441" d="M 0 0 
L -3.5 0 
" style="stroke: #000000; stroke-width: 0.8"/>
      </defs>
      <g>
       <use xlink:href="#mb62079c441" x="57.6" y="271.314666" style="stroke: #000000; stroke-width: 0.8"/>
      </g>
     </g>
     <g id="text_10">
      <!-- 0 -->
      <g transform="translate(44.2375 275.113885) scale(0.1 -0.1)">
       <use xlink:href="#DejaVuSans-30"/>
      </g>
     </g>
    </g>
    <g id="ytick_2">
     <g id="line2d_19">
      <path d="M 57.6 226.22694 
L 414.72 226.22694 
" clip-path="url(#pb51505dbd2)" style="fill: none; stroke-dasharray: 3.7,1.6; stroke-dashoffset: 0; stroke: #e6e6e6; stroke-opacity: 0.5"/>
     </g>
     <g id="line2d_20">
      <g>
       <use xlink:href="#mb62079c441" x="57.6" y="226.22694" style="stroke: #000000; stroke-width: 0.8"/>
      </g>
     </g>
     <g id="text_11">
      <!-- 5 -->
      <g transform="translate(44.2375 230.026159) scale(0.1 -0.1)">
       <use xlink:href="#DejaVuSans-35"/>
      </g>
     </g>
    </g>
    <g id="ytick_3">
     <g id="line2d_21">
      <path d="M 57.6 181.139213 
L 414.72 181.139213 
" clip-path="url(#pb51505dbd2)" style="fill: none; stroke-dasharray: 3.7,1.6; stroke-dashoffset: 0; stroke: #e6e6e6; stroke-opacity: 0.5"/>
     </g>
     <g id="line2d_22">
      <g>
       <use xlink:href="#mb62079c441" x="57.6" y="181.139213" style="stroke: #000000; stroke-width: 0.8"/>
      </g>
     </g>
     <g id="text_12">
      <!-- 10 -->
      <g transform="translate(37.875 184.938432) scale(0.1 -0.1)">
       <use xlink:href="#DejaVuSans-31"/>
       <use xlink:href="#DejaVuSans-30" transform="translate(63.623047 0)"/>
      </g>
     </g>
    </g>
    <g id="ytick_4">
     <g id="line2d_23">
      <path d="M 57.6 136.051487 
L 414.72 136.051487 
" clip-path="url(#pb51505dbd2)" style="fill: none; stroke-dasharray: 3.7,1.6; stroke-dashoffset: 0; stroke: #e6e6e6; stroke-opacity: 0.5"/>
     </g>
     <g id="line2d_24">
      <g>
       <use xlink:href="#mb62079c441" x="57.6" y="136.051487" style="stroke: #000000; stroke-width: 0.8"/>
      </g>
     </g>
     <g id="text_13">
      <!-- 15 -->
      <g transform="translate(37.875 139.850706) scale(0.1 -0.1)">
       <use xlink:href="#DejaVuSans-31"/>
       <use xlink:href="#DejaVuSans-35" transform="translate(63.623047 0)"/>
      </g>
     </g>
    </g>
    <g id="ytick_5">
     <g id="line2d_25">
      <path d="M 57.6 90.96376 
L 414.72 90.96376 
" clip-path="url(#pb51505dbd2)" style="fill: none; stroke-dasharray: 3.7,1.6; stroke-dashoffset: 0; stroke: #e6e6e6; stroke-opacity: 0.5"/>
     </g>
     <g id="line2d_26">
      <g>
       <use xlink:href="#mb62079c441" x="57.6" y="90.96376" style="stroke: #000000; stroke-width: 0.8"/>
      </g>
     </g>
     <g id="text_14">
      <!-- 20 -->
      <g transform="translate(37.875 94.762979) scale(0.1 -0.1)">
       <use xlink:href="#DejaVuSans-32"/>
       <use xlink:href="#DejaVuSans-30" transform="translate(63.623047 0)"/>
      </g>
     </g>
    </g>
    <g id="ytick_6">
     <g id="line2d_27">
      <path d="M 57.6 45.876034 
L 414.72 45.876034 
" clip-path="url(#pb51505dbd2)" style="fill: none; stroke-dasharray: 3.7,1.6; stroke-dashoffset: 0; stroke: #e6e6e6; stroke-opacity: 0.5"/>
     </g>
     <g id="line2d_28">
      <g>
       <use xlink:href="#mb62079c441" x="57.6" y="45.876034" style="stroke: #000000; stroke-width: 0.8"/>
      </g>
     </g>
     <g id="text_15">
      <!-- 25 -->
      <g transform="translate(37.875 49.675253) scale(0.1 -0.1)">
       <use xlink:href="#DejaVuSans-32"/>
       <use xlink:href="#DejaVuSans-35" transform="translate(63.623047 0)"/>
      </g>
     </g>
    </g>
    <g id="text_16">
     <!-- Profit in $10,000s -->
     <g transform="translate(31.795312 228.710813) rotate(-90) scale(0.1 -0.1)">
      <defs>
       <path id="DejaVuSansMono-Bold-72" d="M 3597 2534 
Q 3447 2672 3245 2740 
Q 3044 2809 2803 2809 
Q 2513 2809 2295 2707 
Q 2078 2606 1959 2413 
Q 1884 2294 1854 2125 
Q 1825 1956 1825 1613 
L 1825 0 
L 909 0 
L 909 3500 
L 1825 3500 
L 1825 2956 
Q 1959 3256 2237 3420 
Q 2516 3584 2888 3584 
Q 3075 3584 3254 3539 
Q 3434 3494 3597 3406 
L 3597 2534 
z
" transform="scale(0.015625)"/>
       <path id="DejaVuSansMono-Bold-24" d="M 2169 1650 
L 2169 706 
Q 2366 734 2475 857 
Q 2584 981 2584 1172 
Q 2584 1366 2476 1489 
Q 2369 1613 2169 1650 
z
M 1728 2553 
L 1728 3438 
Q 1534 3413 1436 3308 
Q 1338 3203 1338 3022 
Q 1338 2844 1436 2725 
Q 1534 2606 1728 2553 
z
M 2169 -941 
L 1728 -941 
L 1725 0 
Q 1453 9 1156 81 
Q 859 153 538 288 
L 538 1106 
Q 859 916 1161 812 
Q 1463 709 1728 706 
L 1728 1734 
Q 1113 1856 813 2154 
Q 513 2453 513 2944 
Q 513 3466 831 3775 
Q 1150 4084 1728 4122 
L 1728 4863 
L 2169 4863 
L 2172 4122 
Q 2394 4109 2633 4065 
Q 2872 4022 3122 3944 
L 3122 3144 
Q 2928 3269 2690 3344 
Q 2453 3419 2169 3438 
L 2169 2478 
Q 2784 2381 3098 2057 
Q 3413 1734 3413 1197 
Q 3413 684 3073 356 
Q 2734 28 2172 0 
L 2169 -941 
z
" transform="scale(0.015625)"/>
      </defs>
      <use xlink:href="#DejaVuSansMono-Bold-50"/>
      <use xlink:href="#DejaVuSansMono-Bold-72" transform="translate(60.205078 0)"/>
      <use xlink:href="#DejaVuSansMono-Bold-6f" transform="translate(120.410156 0)"/>
      <use xlink:href="#DejaVuSansMono-Bold-66" transform="translate(180.615234 0)"/>
      <use xlink:href="#DejaVuSansMono-Bold-69" transform="translate(240.820312 0)"/>
      <use xlink:href="#DejaVuSansMono-Bold-74" transform="translate(301.025391 0)"/>
      <use xlink:href="#DejaVuSansMono-Bold-20" transform="translate(361.230469 0)"/>
      <use xlink:href="#DejaVuSansMono-Bold-69" transform="translate(421.435547 0)"/>
      <use xlink:href="#DejaVuSansMono-Bold-6e" transform="translate(481.640625 0)"/>
      <use xlink:href="#DejaVuSansMono-Bold-20" transform="translate(541.845703 0)"/>
      <use xlink:href="#DejaVuSansMono-Bold-24" transform="translate(602.050781 0)"/>
      <use xlink:href="#DejaVuSansMono-Bold-31" transform="translate(662.255859 0)"/>
      <use xlink:href="#DejaVuSansMono-Bold-30" transform="translate(722.460938 0)"/>
      <use xlink:href="#DejaVuSansMono-Bold-2c" transform="translate(782.666016 0)"/>
      <use xlink:href="#DejaVuSansMono-Bold-30" transform="translate(842.871094 0)"/>
      <use xlink:href="#DejaVuSansMono-Bold-30" transform="translate(903.076172 0)"/>
      <use xlink:href="#DejaVuSansMono-Bold-30" transform="translate(963.28125 0)"/>
      <use xlink:href="#DejaVuSansMono-Bold-73" transform="translate(1023.486328 0)"/>
     </g>
    </g>
   </g>
   <g id="line2d_29">
    <path d="M 94.306863 240.711156 
L 83.298613 246.976752 
L 139.831195 214.799947 
L 111.187818 231.102976 
L 89.57581 243.403942 
L 137.266257 216.259839 
L 120.132022 226.012179 
L 140.955836 214.159832 
L 101.415728 236.664983 
L 74.3563 252.066473 
L 86.757593 245.007995 
L 246.537884 154.065407 
L 87.197998 244.757328 
L 137.748246 215.985504 
L 85.434486 245.761071 
L 80.495516 248.572198 
L 99.132423 237.964578 
L 75.783365 251.254226 
L 100.345901 237.2739 
L 112.465562 230.375719 
L 95.800084 239.861255 
L 361.950618 88.375625 
L 82.587915 247.381261 
L 98.389593 238.387377 
L 84.00175 246.576545 
L 336.906093 102.630286 
L 221.285442 168.438409 
L 185.920682 188.567067 
L 227.863174 164.694543 
L 398.487273 67.579957 
L 78.095022 249.938494 
L 103.366366 235.554734 
L 153.62175 206.950739 
L 90.180659 243.059678 
L 134.018975 218.108104 
L 128.77002 221.095666 
L 131.841519 219.347453 
L 84.784273 246.131154 
L 221.436654 168.352343 
L 98.905605 238.093677 
L 81.015308 248.276346 
L 108.906404 232.401495 
L 200.11573 180.487632 
L 87.948389 244.330226 
L 126.715424 222.265086 
L 112.887066 230.135811 
L 74.651163 251.898644 
L 88.471961 244.032223 
L 199.964518 180.573698 
L 83.561344 246.827212 
L 121.337939 225.325804 
L 79.140277 249.343563 
L 119.139691 226.576987 
L 122.526845 224.649111 
L 98.516233 238.315297 
L 99.009563 238.034507 
L 97.408604 238.945729 
L 85.415584 245.771829 
L 154.793645 206.283728 
L 157.504124 204.740997 
L 145.630184 211.49932 
L 76.71332 250.724921 
L 381.02226 77.520566 
L 260.600622 146.061281 
L 337.170714 102.479671 
L 115.251647 228.789955 
L 135.606703 217.204412 
L 172.29268 196.323754 
L 82.7637 247.28121 
L 363.292626 87.61179 
L 170.402527 197.399578 
L 117.449895 227.538773 
L 92.342994 241.828936 
L 115.397189 228.707117 
L 73.832727 252.364476 
L 102.581952 236.0012 
L 121.307697 225.343017 
L 74.014182 252.261197 
L 173.010938 195.914941 
L 75.359971 251.49521 
L 87.107271 244.808967 
L 76.885324 250.627021 
L 98.949078 238.068933 
L 163.459996 201.351077 
L 101.977103 236.345464 
L 139.804733 214.815008 
L 152.336446 207.682299 
L 92.263608 241.874121 
L 83.160632 247.055287 
L 74.447027 252.014833 
L 86.700888 245.040269 
L 123.160046 224.28871 
L 89.781837 243.286677 
L 79.096803 249.368307 
L 135.57457 217.222701 
L 231.983707 162.349248 
L 81.582354 247.953599 
" clip-path="url(#pb51505dbd2)" style="fill: none; stroke: #ff0000; stroke-width: 0.8; stroke-linecap: square"/>
   </g>
   <g id="patch_3">
    <path d="M 57.6 307.584 
L 57.6 41.472 
" style="fill: none; stroke: #000000; stroke-width: 0.8; stroke-linejoin: miter; stroke-linecap: square"/>
   </g>
   <g id="patch_4">
    <path d="M 414.72 307.584 
L 414.72 41.472 
" style="fill: none; stroke: #000000; stroke-width: 0.8; stroke-linejoin: miter; stroke-linecap: square"/>
   </g>
   <g id="patch_5">
    <path d="M 57.6 307.584 
L 414.72 307.584 
" style="fill: none; stroke: #000000; stroke-width: 0.8; stroke-linejoin: miter; stroke-linecap: square"/>
   </g>
   <g id="patch_6">
    <path d="M 57.6 41.472 
L 414.72 41.472 
" style="fill: none; stroke: #000000; stroke-width: 0.8; stroke-linejoin: miter; stroke-linecap: square"/>
   </g>
   <g id="text_17">
    <!-- Linear Regression Fit (Iteration 75000) -->
    <g transform="translate(57.6 31.472) scale(0.1 -0.1)">
     <defs>
      <path id="DejaVuSansMono-Bold-4c" d="M 703 0 
L 703 4666 
L 1625 4666 
L 1625 813 
L 3597 813 
L 3597 0 
L 703 0 
z
" transform="scale(0.015625)"/>
      <path id="DejaVuSansMono-Bold-65" d="M 3444 172 
Q 3125 41 2794 -25 
Q 2463 -91 2094 -91 
Q 1216 -91 752 379 
Q 288 850 288 1734 
Q 288 2591 734 3087 
Q 1181 3584 1953 3584 
Q 2731 3584 3161 3123 
Q 3591 2663 3591 1825 
L 3591 1453 
L 1219 1453 
Q 1222 1041 1462 837 
Q 1703 634 2181 634 
Q 2497 634 2803 725 
Q 3109 816 3444 1013 
L 3444 172 
z
M 2669 2141 
Q 2663 2503 2483 2689 
Q 2303 2875 1953 2875 
Q 1638 2875 1450 2683 
Q 1263 2491 1228 2138 
L 2669 2141 
z
" transform="scale(0.015625)"/>
      <path id="DejaVuSansMono-Bold-52" d="M 2522 2203 
Q 2659 2175 2761 2073 
Q 2863 1972 3009 1678 
L 3853 0 
L 2841 0 
L 2278 1178 
Q 2253 1228 2213 1316 
Q 1966 1844 1631 1844 
L 1338 1844 
L 1338 0 
L 416 0 
L 416 4666 
L 1747 4666 
Q 2647 4666 3039 4347 
Q 3431 4028 3431 3309 
Q 3431 2828 3197 2543 
Q 2963 2259 2522 2203 
z
M 1338 3891 
L 1338 2619 
L 1772 2619 
Q 2150 2619 2314 2767 
Q 2478 2916 2478 3256 
Q 2478 3597 2315 3744 
Q 2153 3891 1772 3891 
L 1338 3891 
z
" transform="scale(0.015625)"/>
      <path id="DejaVuSansMono-Bold-67" d="M 2509 1806 
Q 2509 2275 2331 2558 
Q 2153 2841 1863 2841 
Q 1575 2841 1398 2559 
Q 1222 2278 1222 1806 
Q 1222 1331 1398 1050 
Q 1575 769 1863 769 
Q 2153 769 2331 1051 
Q 2509 1334 2509 1806 
z
M 3425 263 
Q 3425 -578 3045 -951 
Q 2666 -1325 1813 -1325 
Q 1525 -1325 1244 -1283 
Q 963 -1241 672 -1153 
L 672 -313 
Q 931 -456 1200 -525 
Q 1469 -594 1753 -594 
Q 2141 -594 2325 -411 
Q 2509 -228 2509 159 
L 2509 538 
Q 2375 288 2153 166 
Q 1931 44 1613 44 
Q 1013 44 659 512 
Q 306 981 306 1784 
Q 306 2616 659 3103 
Q 1013 3591 1606 3591 
Q 1906 3591 2140 3450 
Q 2375 3309 2509 3053 
L 2509 3500 
L 3425 3500 
L 3425 263 
z
" transform="scale(0.015625)"/>
      <path id="DejaVuSansMono-Bold-46" d="M 3475 3853 
L 1491 3853 
L 1491 2847 
L 3297 2847 
L 3297 2034 
L 1491 2034 
L 1491 0 
L 569 0 
L 569 4666 
L 3475 4666 
L 3475 3853 
z
" transform="scale(0.015625)"/>
      <path id="DejaVuSansMono-Bold-28" d="M 2888 4856 
Q 2475 4109 2275 3409 
Q 2075 2709 2075 2009 
Q 2075 1316 2275 611 
Q 2475 -94 2888 -844 
L 2175 -844 
Q 1678 -122 1437 579 
Q 1197 1281 1197 2009 
Q 1197 2734 1439 3439 
Q 1681 4144 2175 4856 
L 2888 4856 
z
" transform="scale(0.015625)"/>
      <path id="DejaVuSansMono-Bold-49" d="M 538 3853 
L 538 4666 
L 3316 4666 
L 3316 3853 
L 2388 3853 
L 2388 813 
L 3316 813 
L 3316 0 
L 538 0 
L 538 813 
L 1466 813 
L 1466 3853 
L 538 3853 
z
" transform="scale(0.015625)"/>
      <path id="DejaVuSansMono-Bold-37" d="M 422 4666 
L 3372 4666 
L 3372 4013 
L 1791 0 
L 850 0 
L 2369 3853 
L 422 3853 
L 422 4666 
z
" transform="scale(0.015625)"/>
      <path id="DejaVuSansMono-Bold-35" d="M 603 4666 
L 3138 4666 
L 3138 3853 
L 1350 3853 
L 1350 2988 
Q 1463 3031 1591 3051 
Q 1719 3072 1863 3072 
Q 2556 3072 2987 2634 
Q 3419 2197 3419 1497 
Q 3419 763 2951 336 
Q 2484 -91 1678 -91 
Q 1378 -91 1072 -41 
Q 766 9 447 109 
L 447 941 
Q 706 813 979 748 
Q 1253 684 1528 684 
Q 2016 684 2269 892 
Q 2522 1100 2522 1497 
Q 2522 1863 2270 2083 
Q 2019 2303 1600 2303 
Q 1353 2303 1104 2242 
Q 856 2181 603 2059 
L 603 4666 
z
" transform="scale(0.015625)"/>
      <path id="DejaVuSansMono-Bold-29" d="M 966 4856 
L 1678 4856 
Q 2172 4144 2414 3439 
Q 2656 2734 2656 2009 
Q 2656 1281 2415 579 
Q 2175 -122 1678 -844 
L 966 -844 
Q 1378 -94 1578 611 
Q 1778 1316 1778 2009 
Q 1778 2709 1578 3409 
Q 1378 4109 966 4856 
z
" transform="scale(0.015625)"/>
     </defs>
     <use xlink:href="#DejaVuSansMono-Bold-4c"/>
     <use xlink:href="#DejaVuSansMono-Bold-69" transform="translate(60.205078 0)"/>
     <use xlink:href="#DejaVuSansMono-Bold-6e" transform="translate(120.410156 0)"/>
     <use xlink:href="#DejaVuSansMono-Bold-65" transform="translate(180.615234 0)"/>
     <use xlink:href="#DejaVuSansMono-Bold-61" transform="translate(240.820312 0)"/>
     <use xlink:href="#DejaVuSansMono-Bold-72" transform="translate(301.025391 0)"/>
     <use xlink:href="#DejaVuSansMono-Bold-20" transform="translate(361.230469 0)"/>
     <use xlink:href="#DejaVuSansMono-Bold-52" transform="translate(421.435547 0)"/>
     <use xlink:href="#DejaVuSansMono-Bold-65" transform="translate(481.640625 0)"/>
     <use xlink:href="#DejaVuSansMono-Bold-67" transform="translate(541.845703 0)"/>
     <use xlink:href="#DejaVuSansMono-Bold-72" transform="translate(602.050781 0)"/>
     <use xlink:href="#DejaVuSansMono-Bold-65" transform="translate(662.255859 0)"/>
     <use xlink:href="#DejaVuSansMono-Bold-73" transform="translate(722.460938 0)"/>
     <use xlink:href="#DejaVuSansMono-Bold-73" transform="translate(782.666016 0)"/>
     <use xlink:href="#DejaVuSansMono-Bold-69" transform="translate(842.871094 0)"/>
     <use xlink:href="#DejaVuSansMono-Bold-6f" transform="translate(903.076172 0)"/>
     <use xlink:href="#DejaVuSansMono-Bold-6e" transform="translate(963.28125 0)"/>
     <use xlink:href="#DejaVuSansMono-Bold-20" transform="translate(1023.486328 0)"/>
     <use xlink:href="#DejaVuSansMono-Bold-46" transform="translate(1083.691406 0)"/>
     <use xlink:href="#DejaVuSansMono-Bold-69" transform="translate(1143.896484 0)"/>
     <use xlink:href="#DejaVuSansMono-Bold-74" transform="translate(1204.101562 0)"/>
     <use xlink:href="#DejaVuSansMono-Bold-20" transform="translate(1264.306641 0)"/>
     <use xlink:href="#DejaVuSansMono-Bold-28" transform="translate(1324.511719 0)"/>
     <use xlink:href="#DejaVuSansMono-Bold-49" transform="translate(1384.716797 0)"/>
     <use xlink:href="#DejaVuSansMono-Bold-74" transform="translate(1444.921875 0)"/>
     <use xlink:href="#DejaVuSansMono-Bold-65" transform="translate(1505.126953 0)"/>
     <use xlink:href="#DejaVuSansMono-Bold-72" transform="translate(1565.332031 0)"/>
     <use xlink:href="#DejaVuSansMono-Bold-61" transform="translate(1625.537109 0)"/>
     <use xlink:href="#DejaVuSansMono-Bold-74" transform="translate(1685.742188 0)"/>
     <use xlink:href="#DejaVuSansMono-Bold-69" transform="translate(1745.947266 0)"/>
     <use xlink:href="#DejaVuSansMono-Bold-6f" transform="translate(1806.152344 0)"/>
     <use xlink:href="#DejaVuSansMono-Bold-6e" transform="translate(1866.357422 0)"/>
     <use xlink:href="#DejaVuSansMono-Bold-20" transform="translate(1926.5625 0)"/>
     <use xlink:href="#DejaVuSansMono-Bold-37" transform="translate(1986.767578 0)"/>
     <use xlink:href="#DejaVuSansMono-Bold-35" transform="translate(2046.972656 0)"/>
     <use xlink:href="#DejaVuSansMono-Bold-30" transform="translate(2107.177734 0)"/>
     <use xlink:href="#DejaVuSansMono-Bold-30" transform="translate(2167.382812 0)"/>
     <use xlink:href="#DejaVuSansMono-Bold-30" transform="translate(2227.587891 0)"/>
     <use xlink:href="#DejaVuSansMono-Bold-29" transform="translate(2287.792969 0)"/>
    </g>
   </g>
  </g>
 </g>
 <defs>
  <clipPath id="pb51505dbd2">
   <rect x="57.6" y="41.472" width="357.12" height="266.112"/>
  </clipPath>
 </defs>
</svg>
