<?xml version="1.0" encoding="utf-8" standalone="no"?>
<!DOCTYPE svg PUBLIC "-//W3C//DTD SVG 1.1//EN"
  "http://www.w3.org/Graphics/SVG/1.1/DTD/svg11.dtd">
<svg xmlns:xlink="http://www.w3.org/1999/xlink" width="720pt" height="288pt" viewBox="0 0 720 288" xmlns="http://www.w3.org/2000/svg" version="1.1">
 <metadata>
  <rdf:RDF xmlns:dc="http://purl.org/dc/elements/1.1/" xmlns:cc="http://creativecommons.org/ns#" xmlns:rdf="http://www.w3.org/1999/02/22-rdf-syntax-ns#">
   <cc:Work>
    <dc:type rdf:resource="http://purl.org/dc/dcmitype/StillImage"/>
    <dc:date>2025-12-06T13:51:40.378063</dc:date>
    <dc:format>image/svg+xml</dc:format>
    <dc:creator>
     <cc:Agent>
      <dc:title>Matplotlib v3.10.7, https://matplotlib.org/</dc:title>
     </cc:Agent>
    </dc:creator>
   </cc:Work>
  </rdf:RDF>
 </metadata>
 <defs>
  <style type="text/css">*{stroke-linejoin: round; stroke-linecap: butt}</style>
 </defs>
 <g id="figure_1">
  <g id="patch_1">
   <path d="M 0 288 
L 720 288 
L 720 0 
L 0 0 
z
" style="fill: #ffffff"/>
  </g>
  <g id="axes_1">
   <g id="patch_2">
    <path d="M 90 256.32 
L 648 256.32 
L 648 34.56 
L 90 34.56 
z
" style="fill: #ffffff"/>
   </g>
   <g id="matplotlib.axis_1">
    <g id="xtick_1">
     <g id="line2d_1">
      <path d="M 115.363636 256.32 
L 115.363636 34.56 
" clip-path="url(#pb06a157c8d)" style="fill: none; stroke: #b0b0b0; stroke-width: 0.8; stroke-linecap: square"/>
     </g>
     <g id="line2d_2">
      <defs>
       <path id="m66b13ab81f" d="M 0 0 
L 0 3.5 
" style="stroke: #000000; stroke-width: 0.8"/>
      </defs>
      <g>
       <use xlink:href="#m66b13ab81f" x="115.363636" y="256.32" style="stroke: #000000; stroke-width: 0.8"/>
      </g>
     </g>
     <g id="text_1">
      <!-- 0 -->
      <g transform="translate(112.182386 270.918437) scale(0.1 -0.1)">
       <defs>
        <path id="DejaVuSans-30" d="M 2034 4250 
Q 1547 4250 1301 3770 
Q 1056 3291 1056 2328 
Q 1056 1369 1301 889 
Q 1547 409 2034 409 
Q 2525 409 2770 889 
Q 3016 1369 3016 2328 
Q 3016 3291 2770 3770 
Q 2525 4250 2034 4250 
z
M 2034 4750 
Q 2819 4750 3233 4129 
Q 3647 3509 3647 2328 
Q 3647 1150 3233 529 
Q 2819 -91 2034 -91 
Q 1250 -91 836 529 
Q 422 1150 422 2328 
Q 422 3509 836 4129 
Q 1250 4750 2034 4750 
z
" transform="scale(0.015625)"/>
       </defs>
       <use xlink:href="#DejaVuSans-30"/>
      </g>
     </g>
    </g>
    <g id="xtick_2">
     <g id="line2d_3">
      <path d="M 216.819196 256.32 
L 216.819196 34.56 
" clip-path="url(#pb06a157c8d)" style="fill: none; stroke: #b0b0b0; stroke-width: 0.8; stroke-linecap: square"/>
     </g>
     <g id="line2d_4">
      <g>
       <use xlink:href="#m66b13ab81f" x="216.819196" y="256.32" style="stroke: #000000; stroke-width: 0.8"/>
      </g>
     </g>
     <g id="text_2">
      <!-- 20000 -->
      <g transform="translate(200.912946 270.918437) scale(0.1 -0.1)">
       <defs>
        <path id="DejaVuSans-32" d="M 1228 531 
L 3431 531 
L 3431 0 
L 469 0 
L 469 531 
Q 828 903 1448 1529 
Q 2069 2156 2228 2338 
Q 2531 2678 2651 2914 
Q 2772 3150 2772 3378 
Q 2772 3750 2511 3984 
Q 2250 4219 1831 4219 
Q 1534 4219 1204 4116 
Q 875 4013 500 3803 
L 500 4441 
Q 881 4594 1212 4672 
Q 1544 4750 1819 4750 
Q 2544 4750 2975 4387 
Q 3406 4025 3406 3419 
Q 3406 3131 3298 2873 
Q 3191 2616 2906 2266 
Q 2828 2175 2409 1742 
Q 1991 1309 1228 531 
z
" transform="scale(0.015625)"/>
       </defs>
       <use xlink:href="#DejaVuSans-32"/>
       <use xlink:href="#DejaVuSans-30" transform="translate(63.623047 0)"/>
       <use xlink:href="#DejaVuSans-30" transform="translate(127.246094 0)"/>
       <use xlink:href="#DejaVuSans-30" transform="translate(190.869141 0)"/>
       <use xlink:href="#DejaVuSans-30" transform="translate(254.492188 0)"/>
      </g>
     </g>
    </g>
    <g id="xtick_3">
     <g id="line2d_5">
      <path d="M 318.274756 256.32 
L 318.274756 34.56 
" clip-path="url(#pb06a157c8d)" style="fill: none; stroke: #b0b0b0; stroke-width: 0.8; stroke-linecap: square"/>
     </g>
     <g id="line2d_6">
      <g>
       <use xlink:href="#m66b13ab81f" x="318.274756" y="256.32" style="stroke: #000000; stroke-width: 0.8"/>
      </g>
     </g>
     <g id="text_3">
      <!-- 40000 -->
      <g transform="translate(302.368506 270.918437) scale(0.1 -0.1)">
       <defs>
        <path id="DejaVuSans-34" d="M 2419 4116 
L 825 1625 
L 2419 1625 
L 2419 4116 
z
M 2253 4666 
L 3047 4666 
L 3047 1625 
L 3713 1625 
L 3713 1100 
L 3047 1100 
L 3047 0 
L 2419 0 
L 2419 1100 
L 313 1100 
L 313 1709 
L 2253 4666 
z
" transform="scale(0.015625)"/>
       </defs>
       <use xlink:href="#DejaVuSans-34"/>
       <use xlink:href="#DejaVuSans-30" transform="translate(63.623047 0)"/>
       <use xlink:href="#DejaVuSans-30" transform="translate(127.246094 0)"/>
       <use xlink:href="#DejaVuSans-30" transform="translate(190.869141 0)"/>
       <use xlink:href="#DejaVuSans-30" transform="translate(254.492188 0)"/>
      </g>
     </g>
    </g>
    <g id="xtick_4">
     <g id="line2d_7">
      <path d="M 419.730316 256.32 
L 419.730316 34.56 
" clip-path="url(#pb06a157c8d)" style="fill: none; stroke: #b0b0b0; stroke-width: 0.8; stroke-linecap: square"/>
     </g>
     <g id="line2d_8">
      <g>
       <use xlink:href="#m66b13ab81f" x="419.730316" y="256.32" style="stroke: #000000; stroke-width: 0.8"/>
      </g>
     </g>
     <g id="text_4">
      <!-- 60000 -->
      <g transform="translate(403.824066 270.918437) scale(0.1 -0.1)">
       <defs>
        <path id="DejaVuSans-36" d="M 2113 2584 
Q 1688 2584 1439 2293 
Q 1191 2003 1191 1497 
Q 1191 994 1439 701 
Q 1688 409 2113 409 
Q 2538 409 2786 701 
Q 3034 994 3034 1497 
Q 3034 2003 2786 2293 
Q 2538 2584 2113 2584 
z
M 3366 4563 
L 3366 3988 
Q 3128 4100 2886 4159 
Q 2644 4219 2406 4219 
Q 1781 4219 1451 3797 
Q 1122 3375 1075 2522 
Q 1259 2794 1537 2939 
Q 1816 3084 2150 3084 
Q 2853 3084 3261 2657 
Q 3669 2231 3669 1497 
Q 3669 778 3244 343 
Q 2819 -91 2113 -91 
Q 1303 -91 875 529 
Q 447 1150 447 2328 
Q 447 3434 972 4092 
Q 1497 4750 2381 4750 
Q 2619 4750 2861 4703 
Q 3103 4656 3366 4563 
z
" transform="scale(0.015625)"/>
       </defs>
       <use xlink:href="#DejaVuSans-36"/>
       <use xlink:href="#DejaVuSans-30" transform="translate(63.623047 0)"/>
       <use xlink:href="#DejaVuSans-30" transform="translate(127.246094 0)"/>
       <use xlink:href="#DejaVuSans-30" transform="translate(190.869141 0)"/>
       <use xlink:href="#DejaVuSans-30" transform="translate(254.492188 0)"/>
      </g>
     </g>
    </g>
    <g id="xtick_5">
     <g id="line2d_9">
      <path d="M 521.185876 256.32 
L 521.185876 34.56 
" clip-path="url(#pb06a157c8d)" style="fill: none; stroke: #b0b0b0; stroke-width: 0.8; stroke-linecap: square"/>
     </g>
     <g id="line2d_10">
      <g>
       <use xlink:href="#m66b13ab81f" x="521.185876" y="256.32" style="stroke: #000000; stroke-width: 0.8"/>
      </g>
     </g>
     <g id="text_5">
      <!-- 80000 -->
      <g transform="translate(505.279626 270.918437) scale(0.1 -0.1)">
       <defs>
        <path id="DejaVuSans-38" d="M 2034 2216 
Q 1584 2216 1326 1975 
Q 1069 1734 1069 1313 
Q 1069 891 1326 650 
Q 1584 409 2034 409 
Q 2484 409 2743 651 
Q 3003 894 3003 1313 
Q 3003 1734 2745 1975 
Q 2488 2216 2034 2216 
z
M 1403 2484 
Q 997 2584 770 2862 
Q 544 3141 544 3541 
Q 544 4100 942 4425 
Q 1341 4750 2034 4750 
Q 2731 4750 3128 4425 
Q 3525 4100 3525 3541 
Q 3525 3141 3298 2862 
Q 3072 2584 2669 2484 
Q 3125 2378 3379 2068 
Q 3634 1759 3634 1313 
Q 3634 634 3220 271 
Q 2806 -91 2034 -91 
Q 1263 -91 848 271 
Q 434 634 434 1313 
Q 434 1759 690 2068 
Q 947 2378 1403 2484 
z
M 1172 3481 
Q 1172 3119 1398 2916 
Q 1625 2713 2034 2713 
Q 2441 2713 2670 2916 
Q 2900 3119 2900 3481 
Q 2900 3844 2670 4047 
Q 2441 4250 2034 4250 
Q 1625 4250 1398 4047 
Q 1172 3844 1172 3481 
z
" transform="scale(0.015625)"/>
       </defs>
       <use xlink:href="#DejaVuSans-38"/>
       <use xlink:href="#DejaVuSans-30" transform="translate(63.623047 0)"/>
       <use xlink:href="#DejaVuSans-30" transform="translate(127.246094 0)"/>
       <use xlink:href="#DejaVuSans-30" transform="translate(190.869141 0)"/>
       <use xlink:href="#DejaVuSans-30" transform="translate(254.492188 0)"/>
      </g>
     </g>
    </g>
    <g id="xtick_6">
     <g id="line2d_11">
      <path d="M 622.641436 256.32 
L 622.641436 34.56 
" clip-path="url(#pb06a157c8d)" style="fill: none; stroke: #b0b0b0; stroke-width: 0.8; stroke-linecap: square"/>
     </g>
     <g id="line2d_12">
      <g>
       <use xlink:href="#m66b13ab81f" x="622.641436" y="256.32" style="stroke: #000000; stroke-width: 0.8"/>
      </g>
     </g>
     <g id="text_6">
      <!-- 100000 -->
      <g transform="translate(603.553936 270.918437) scale(0.1 -0.1)">
       <defs>
        <path id="DejaVuSans-31" d="M 794 531 
L 1825 531 
L 1825 4091 
L 703 3866 
L 703 4441 
L 1819 4666 
L 2450 4666 
L 2450 531 
L 3481 531 
L 3481 0 
L 794 0 
L 794 531 
z
" transform="scale(0.015625)"/>
       </defs>
       <use xlink:href="#DejaVuSans-31"/>
       <use xlink:href="#DejaVuSans-30" transform="translate(63.623047 0)"/>
       <use xlink:href="#DejaVuSans-30" transform="translate(127.246094 0)"/>
       <use xlink:href="#DejaVuSans-30" transform="translate(190.869141 0)"/>
       <use xlink:href="#DejaVuSans-30" transform="translate(254.492188 0)"/>
       <use xlink:href="#DejaVuSans-30" transform="translate(318.115234 0)"/>
      </g>
     </g>
    </g>
    <g id="text_7">
     <!-- Iterations -->
     <g transform="translate(335.661406 287.635938) scale(0.14 -0.14)">
      <defs>
       <path id="DejaVuSans-49" d="M 628 4666 
L 1259 4666 
L 1259 0 
L 628 0 
L 628 4666 
z
" transform="scale(0.015625)"/>
       <path id="DejaVuSans-74" d="M 1172 4494 
L 1172 3500 
L 2356 3500 
L 2356 3053 
L 1172 3053 
L 1172 1153 
Q 1172 725 1289 603 
Q 1406 481 1766 481 
L 2356 481 
L 2356 0 
L 1766 0 
Q 1100 0 847 248 
Q 594 497 594 1153 
L 594 3053 
L 172 3053 
L 172 3500 
L 594 3500 
L 594 4494 
L 1172 4494 
z
" transform="scale(0.015625)"/>
       <path id="DejaVuSans-65" d="M 3597 1894 
L 3597 1613 
L 953 1613 
Q 991 1019 1311 708 
Q 1631 397 2203 397 
Q 2534 397 2845 478 
Q 3156 559 3463 722 
L 3463 178 
Q 3153 47 2828 -22 
Q 2503 -91 2169 -91 
Q 1331 -91 842 396 
Q 353 884 353 1716 
Q 353 2575 817 3079 
Q 1281 3584 2069 3584 
Q 2775 3584 3186 3129 
Q 3597 2675 3597 1894 
z
M 3022 2063 
Q 3016 2534 2758 2815 
Q 2500 3097 2075 3097 
Q 1594 3097 1305 2825 
Q 1016 2553 972 2059 
L 3022 2063 
z
" transform="scale(0.015625)"/>
       <path id="DejaVuSans-72" d="M 2631 2963 
Q 2534 3019 2420 3045 
Q 2306 3072 2169 3072 
Q 1681 3072 1420 2755 
Q 1159 2438 1159 1844 
L 1159 0 
L 581 0 
L 581 3500 
L 1159 3500 
L 1159 2956 
Q 1341 3275 1631 3429 
Q 1922 3584 2338 3584 
Q 2397 3584 2469 3576 
Q 2541 3569 2628 3553 
L 2631 2963 
z
" transform="scale(0.015625)"/>
       <path id="DejaVuSans-61" d="M 2194 1759 
Q 1497 1759 1228 1600 
Q 959 1441 959 1056 
Q 959 750 1161 570 
Q 1363 391 1709 391 
Q 2188 391 2477 730 
Q 2766 1069 2766 1631 
L 2766 1759 
L 2194 1759 
z
M 3341 1997 
L 3341 0 
L 2766 0 
L 2766 531 
Q 2569 213 2275 61 
Q 1981 -91 1556 -91 
Q 1019 -91 701 211 
Q 384 513 384 1019 
Q 384 1609 779 1909 
Q 1175 2209 1959 2209 
L 2766 2209 
L 2766 2266 
Q 2766 2663 2505 2880 
Q 2244 3097 1772 3097 
Q 1472 3097 1187 3025 
Q 903 2953 641 2809 
L 641 3341 
Q 956 3463 1253 3523 
Q 1550 3584 1831 3584 
Q 2591 3584 2966 3190 
Q 3341 2797 3341 1997 
z
" transform="scale(0.015625)"/>
       <path id="DejaVuSans-69" d="M 603 3500 
L 1178 3500 
L 1178 0 
L 603 0 
L 603 3500 
z
M 603 4863 
L 1178 4863 
L 1178 4134 
L 603 4134 
L 603 4863 
z
" transform="scale(0.015625)"/>
       <path id="DejaVuSans-6f" d="M 1959 3097 
Q 1497 3097 1228 2736 
Q 959 2375 959 1747 
Q 959 1119 1226 758 
Q 1494 397 1959 397 
Q 2419 397 2687 759 
Q 2956 1122 2956 1747 
Q 2956 2369 2687 2733 
Q 2419 3097 1959 3097 
z
M 1959 3584 
Q 2709 3584 3137 3096 
Q 3566 2609 3566 1747 
Q 3566 888 3137 398 
Q 2709 -91 1959 -91 
Q 1206 -91 779 398 
Q 353 888 353 1747 
Q 353 2609 779 3096 
Q 1206 3584 1959 3584 
z
" transform="scale(0.015625)"/>
       <path id="DejaVuSans-6e" d="M 3513 2113 
L 3513 0 
L 2938 0 
L 2938 2094 
Q 2938 2591 2744 2837 
Q 2550 3084 2163 3084 
Q 1697 3084 1428 2787 
Q 1159 2491 1159 1978 
L 1159 0 
L 581 0 
L 581 3500 
L 1159 3500 
L 1159 2956 
Q 1366 3272 1645 3428 
Q 1925 3584 2291 3584 
Q 2894 3584 3203 3211 
Q 3513 2838 3513 2113 
z
" transform="scale(0.015625)"/>
       <path id="DejaVuSans-73" d="M 2834 3397 
L 2834 2853 
Q 2591 2978 2328 3040 
Q 2066 3103 1784 3103 
Q 1356 3103 1142 2972 
Q 928 2841 928 2578 
Q 928 2378 1081 2264 
Q 1234 2150 1697 2047 
L 1894 2003 
Q 2506 1872 2764 1633 
Q 3022 1394 3022 966 
Q 3022 478 2636 193 
Q 2250 -91 1575 -91 
Q 1294 -91 989 -36 
Q 684 19 347 128 
L 347 722 
Q 666 556 975 473 
Q 1284 391 1588 391 
Q 1994 391 2212 530 
Q 2431 669 2431 922 
Q 2431 1156 2273 1281 
Q 2116 1406 1581 1522 
L 1381 1569 
Q 847 1681 609 1914 
Q 372 2147 372 2553 
Q 372 3047 722 3315 
Q 1072 3584 1716 3584 
Q 2034 3584 2315 3537 
Q 2597 3491 2834 3397 
z
" transform="scale(0.015625)"/>
      </defs>
      <use xlink:href="#DejaVuSans-49"/>
      <use xlink:href="#DejaVuSans-74" transform="translate(29.492188 0)"/>
      <use xlink:href="#DejaVuSans-65" transform="translate(68.701172 0)"/>
      <use xlink:href="#DejaVuSans-72" transform="translate(130.224609 0)"/>
      <use xlink:href="#DejaVuSans-61" transform="translate(171.337891 0)"/>
      <use xlink:href="#DejaVuSans-74" transform="translate(232.617188 0)"/>
      <use xlink:href="#DejaVuSans-69" transform="translate(271.826172 0)"/>
      <use xlink:href="#DejaVuSans-6f" transform="translate(299.609375 0)"/>
      <use xlink:href="#DejaVuSans-6e" transform="translate(360.791016 0)"/>
      <use xlink:href="#DejaVuSans-73" transform="translate(424.169922 0)"/>
     </g>
    </g>
   </g>
   <g id="matplotlib.axis_2">
    <g id="ytick_1">
     <g id="line2d_13">
      <path d="M 90 246.247483 
L 648 246.247483 
" clip-path="url(#pb06a157c8d)" style="fill: none; stroke: #b0b0b0; stroke-width: 0.8; stroke-linecap: square"/>
     </g>
     <g id="line2d_14">
      <defs>
       <path id="m9907b028e1" d="M 0 0 
L -3.5 0 
" style="stroke: #000000; stroke-width: 0.8"/>
      </defs>
      <g>
       <use xlink:href="#m9907b028e1" x="90" y="246.247483" style="stroke: #000000; stroke-width: 0.8"/>
      </g>
     </g>
     <g id="text_8">
      <!-- −0.10 -->
      <g transform="translate(52.354687 250.046702) scale(0.1 -0.1)">
       <defs>
        <path id="DejaVuSans-2212" d="M 678 2272 
L 4684 2272 
L 4684 1741 
L 678 1741 
L 678 2272 
z
" transform="scale(0.015625)"/>
        <path id="DejaVuSans-2e" d="M 684 794 
L 1344 794 
L 1344 0 
L 684 0 
L 684 794 
z
" transform="scale(0.015625)"/>
       </defs>
       <use xlink:href="#DejaVuSans-2212"/>
       <use xlink:href="#DejaVuSans-30" transform="translate(83.789062 0)"/>
       <use xlink:href="#DejaVuSans-2e" transform="translate(147.412109 0)"/>
       <use xlink:href="#DejaVuSans-31" transform="translate(179.199219 0)"/>
       <use xlink:href="#DejaVuSans-30" transform="translate(242.822266 0)"/>
      </g>
     </g>
    </g>
    <g id="ytick_2">
     <g id="line2d_15">
      <path d="M 90 205.925987 
L 648 205.925987 
" clip-path="url(#pb06a157c8d)" style="fill: none; stroke: #b0b0b0; stroke-width: 0.8; stroke-linecap: square"/>
     </g>
     <g id="line2d_16">
      <g>
       <use xlink:href="#m9907b028e1" x="90" y="205.925987" style="stroke: #000000; stroke-width: 0.8"/>
      </g>
     </g>
     <g id="text_9">
      <!-- −0.08 -->
      <g transform="translate(52.354687 209.725205) scale(0.1 -0.1)">
       <use xlink:href="#DejaVuSans-2212"/>
       <use xlink:href="#DejaVuSans-30" transform="translate(83.789062 0)"/>
       <use xlink:href="#DejaVuSans-2e" transform="translate(147.412109 0)"/>
       <use xlink:href="#DejaVuSans-30" transform="translate(179.199219 0)"/>
       <use xlink:href="#DejaVuSans-38" transform="translate(242.822266 0)"/>
      </g>
     </g>
    </g>
    <g id="ytick_3">
     <g id="line2d_17">
      <path d="M 90 165.60449 
L 648 165.60449 
" clip-path="url(#pb06a157c8d)" style="fill: none; stroke: #b0b0b0; stroke-width: 0.8; stroke-linecap: square"/>
     </g>
     <g id="line2d_18">
      <g>
       <use xlink:href="#m9907b028e1" x="90" y="165.60449" style="stroke: #000000; stroke-width: 0.8"/>
      </g>
     </g>
     <g id="text_10">
      <!-- −0.06 -->
      <g transform="translate(52.354687 169.403709) scale(0.1 -0.1)">
       <use xlink:href="#DejaVuSans-2212"/>
       <use xlink:href="#DejaVuSans-30" transform="translate(83.789062 0)"/>
       <use xlink:href="#DejaVuSans-2e" transform="translate(147.412109 0)"/>
       <use xlink:href="#DejaVuSans-30" transform="translate(179.199219 0)"/>
       <use xlink:href="#DejaVuSans-36" transform="translate(242.822266 0)"/>
      </g>
     </g>
    </g>
    <g id="ytick_4">
     <g id="line2d_19">
      <path d="M 90 125.282993 
L 648 125.282993 
" clip-path="url(#pb06a157c8d)" style="fill: none; stroke: #b0b0b0; stroke-width: 0.8; stroke-linecap: square"/>
     </g>
     <g id="line2d_20">
      <g>
       <use xlink:href="#m9907b028e1" x="90" y="125.282993" style="stroke: #000000; stroke-width: 0.8"/>
      </g>
     </g>
     <g id="text_11">
      <!-- −0.04 -->
      <g transform="translate(52.354687 129.082212) scale(0.1 -0.1)">
       <use xlink:href="#DejaVuSans-2212"/>
       <use xlink:href="#DejaVuSans-30" transform="translate(83.789062 0)"/>
       <use xlink:href="#DejaVuSans-2e" transform="translate(147.412109 0)"/>
       <use xlink:href="#DejaVuSans-30" transform="translate(179.199219 0)"/>
       <use xlink:href="#DejaVuSans-34" transform="translate(242.822266 0)"/>
      </g>
     </g>
    </g>
    <g id="ytick_5">
     <g id="line2d_21">
      <path d="M 90 84.961497 
L 648 84.961497 
" clip-path="url(#pb06a157c8d)" style="fill: none; stroke: #b0b0b0; stroke-width: 0.8; stroke-linecap: square"/>
     </g>
     <g id="line2d_22">
      <g>
       <use xlink:href="#m9907b028e1" x="90" y="84.961497" style="stroke: #000000; stroke-width: 0.8"/>
      </g>
     </g>
     <g id="text_12">
      <!-- −0.02 -->
      <g transform="translate(52.354687 88.760715) scale(0.1 -0.1)">
       <use xlink:href="#DejaVuSans-2212"/>
       <use xlink:href="#DejaVuSans-30" transform="translate(83.789062 0)"/>
       <use xlink:href="#DejaVuSans-2e" transform="translate(147.412109 0)"/>
       <use xlink:href="#DejaVuSans-30" transform="translate(179.199219 0)"/>
       <use xlink:href="#DejaVuSans-32" transform="translate(242.822266 0)"/>
      </g>
     </g>
    </g>
    <g id="ytick_6">
     <g id="line2d_23">
      <path d="M 90 44.64 
L 648 44.64 
" clip-path="url(#pb06a157c8d)" style="fill: none; stroke: #b0b0b0; stroke-width: 0.8; stroke-linecap: square"/>
     </g>
     <g id="line2d_24">
      <g>
       <use xlink:href="#m9907b028e1" x="90" y="44.64" style="stroke: #000000; stroke-width: 0.8"/>
      </g>
     </g>
     <g id="text_13">
      <!-- 0.00 -->
      <g transform="translate(60.734375 48.439219) scale(0.1 -0.1)">
       <use xlink:href="#DejaVuSans-30"/>
       <use xlink:href="#DejaVuSans-2e" transform="translate(63.623047 0)"/>
       <use xlink:href="#DejaVuSans-30" transform="translate(95.410156 0)"/>
       <use xlink:href="#DejaVuSans-30" transform="translate(159.033203 0)"/>
      </g>
     </g>
    </g>
    <g id="text_14">
     <!-- Q-Value$(s_0, a_0)$ -->
     <g transform="translate(45.443125 196.89) rotate(-90) scale(0.14 -0.14)">
      <defs>
       <path id="DejaVuSans-51" d="M 2522 4238 
Q 1834 4238 1429 3725 
Q 1025 3213 1025 2328 
Q 1025 1447 1429 934 
Q 1834 422 2522 422 
Q 3209 422 3611 934 
Q 4013 1447 4013 2328 
Q 4013 3213 3611 3725 
Q 3209 4238 2522 4238 
z
M 3406 84 
L 4238 -825 
L 3475 -825 
L 2784 -78 
Q 2681 -84 2626 -87 
Q 2572 -91 2522 -91 
Q 1538 -91 948 567 
Q 359 1225 359 2328 
Q 359 3434 948 4092 
Q 1538 4750 2522 4750 
Q 3503 4750 4090 4092 
Q 4678 3434 4678 2328 
Q 4678 1516 4351 937 
Q 4025 359 3406 84 
z
" transform="scale(0.015625)"/>
       <path id="DejaVuSans-2d" d="M 313 2009 
L 1997 2009 
L 1997 1497 
L 313 1497 
L 313 2009 
z
" transform="scale(0.015625)"/>
       <path id="DejaVuSans-56" d="M 1831 0 
L 50 4666 
L 709 4666 
L 2188 738 
L 3669 4666 
L 4325 4666 
L 2547 0 
L 1831 0 
z
" transform="scale(0.015625)"/>
       <path id="DejaVuSans-6c" d="M 603 4863 
L 1178 4863 
L 1178 0 
L 603 0 
L 603 4863 
z
" transform="scale(0.015625)"/>
       <path id="DejaVuSans-75" d="M 544 1381 
L 544 3500 
L 1119 3500 
L 1119 1403 
Q 1119 906 1312 657 
Q 1506 409 1894 409 
Q 2359 409 2629 706 
Q 2900 1003 2900 1516 
L 2900 3500 
L 3475 3500 
L 3475 0 
L 2900 0 
L 2900 538 
Q 2691 219 2414 64 
Q 2138 -91 1772 -91 
Q 1169 -91 856 284 
Q 544 659 544 1381 
z
M 1991 3584 
L 1991 3584 
z
" transform="scale(0.015625)"/>
       <path id="DejaVuSans-28" d="M 1984 4856 
Q 1566 4138 1362 3434 
Q 1159 2731 1159 2009 
Q 1159 1288 1364 580 
Q 1569 -128 1984 -844 
L 1484 -844 
Q 1016 -109 783 600 
Q 550 1309 550 2009 
Q 550 2706 781 3412 
Q 1013 4119 1484 4856 
L 1984 4856 
z
" transform="scale(0.015625)"/>
       <path id="DejaVuSans-Oblique-73" d="M 3200 3397 
L 3091 2853 
Q 2863 2978 2609 3040 
Q 2356 3103 2088 3103 
Q 1634 3103 1373 2948 
Q 1113 2794 1113 2528 
Q 1113 2219 1719 2053 
Q 1766 2041 1788 2034 
L 1972 1978 
Q 2547 1819 2739 1644 
Q 2931 1469 2931 1166 
Q 2931 609 2489 259 
Q 2047 -91 1331 -91 
Q 1053 -91 747 -37 
Q 441 16 72 128 
L 184 722 
Q 500 559 806 475 
Q 1113 391 1394 391 
Q 1816 391 2080 572 
Q 2344 753 2344 1031 
Q 2344 1331 1650 1516 
L 1591 1531 
L 1394 1581 
Q 956 1697 753 1886 
Q 550 2075 550 2369 
Q 550 2928 970 3256 
Q 1391 3584 2113 3584 
Q 2397 3584 2667 3537 
Q 2938 3491 3200 3397 
z
" transform="scale(0.015625)"/>
       <path id="DejaVuSans-2c" d="M 750 794 
L 1409 794 
L 1409 256 
L 897 -744 
L 494 -744 
L 750 256 
L 750 794 
z
" transform="scale(0.015625)"/>
       <path id="DejaVuSans-Oblique-61" d="M 3438 1997 
L 3047 0 
L 2472 0 
L 2578 531 
Q 2325 219 2001 64 
Q 1678 -91 1281 -91 
Q 834 -91 548 182 
Q 263 456 263 884 
Q 263 1497 752 1853 
Q 1241 2209 2100 2209 
L 2900 2209 
L 2931 2363 
Q 2938 2388 2941 2417 
Q 2944 2447 2944 2509 
Q 2944 2788 2717 2942 
Q 2491 3097 2081 3097 
Q 1800 3097 1504 3025 
Q 1209 2953 897 2809 
L 997 3341 
Q 1322 3463 1633 3523 
Q 1944 3584 2234 3584 
Q 2853 3584 3176 3315 
Q 3500 3047 3500 2534 
Q 3500 2431 3484 2292 
Q 3469 2153 3438 1997 
z
M 2816 1759 
L 2241 1759 
Q 1534 1759 1195 1570 
Q 856 1381 856 984 
Q 856 709 1029 553 
Q 1203 397 1509 397 
Q 1978 397 2328 733 
Q 2678 1069 2791 1631 
L 2816 1759 
z
" transform="scale(0.015625)"/>
       <path id="DejaVuSans-29" d="M 513 4856 
L 1013 4856 
Q 1481 4119 1714 3412 
Q 1947 2706 1947 2009 
Q 1947 1309 1714 600 
Q 1481 -109 1013 -844 
L 513 -844 
Q 928 -128 1133 580 
Q 1338 1288 1338 2009 
Q 1338 2731 1133 3434 
Q 928 4138 513 4856 
z
" transform="scale(0.015625)"/>
      </defs>
      <use xlink:href="#DejaVuSans-51" transform="translate(0 0.015625)"/>
      <use xlink:href="#DejaVuSans-2d" transform="translate(78.710938 0.015625)"/>
      <use xlink:href="#DejaVuSans-56" transform="translate(114.794922 0.015625)"/>
      <use xlink:href="#DejaVuSans-61" transform="translate(183.203125 0.015625)"/>
      <use xlink:href="#DejaVuSans-6c" transform="translate(244.482422 0.015625)"/>
      <use xlink:href="#DejaVuSans-75" transform="translate(272.265625 0.015625)"/>
      <use xlink:href="#DejaVuSans-65" transform="translate(335.644531 0.015625)"/>
      <use xlink:href="#DejaVuSans-28" transform="translate(397.167969 0.015625)"/>
      <use xlink:href="#DejaVuSans-Oblique-73" transform="translate(436.181641 0.015625)"/>
      <use xlink:href="#DejaVuSans-30" transform="translate(488.28125 -16.390625) scale(0.7)"/>
      <use xlink:href="#DejaVuSans-2c" transform="translate(535.551758 0.015625)"/>
      <use xlink:href="#DejaVuSans-Oblique-61" transform="translate(586.821289 0.015625)"/>
      <use xlink:href="#DejaVuSans-30" transform="translate(648.100586 -16.390625) scale(0.7)"/>
      <use xlink:href="#DejaVuSans-29" transform="translate(695.371094 0.015625)"/>
     </g>
    </g>
   </g>
   <g id="line2d_25">
    <path d="M 115.363636 44.64 
L 115.60713 97.657705 
L 115.612202 97.657705 
L 116.012952 124.574611 
L 116.023098 124.574611 
L 116.241227 130.544608 
L 116.2463 130.544608 
L 116.408629 133.673587 
L 116.459356 133.673587 
L 116.596321 136.93374 
L 116.799233 139.545464 
L 116.819524 139.545464 
L 116.966634 141.128481 
L 116.971707 141.128481 
L 117.128963 142.297551 
L 117.134036 142.297551 
L 117.30651 144.665261 
L 117.316656 144.665261 
L 117.448548 145.416323 
L 117.484058 145.416323 
L 117.641314 148.233868 
L 117.651459 148.233868 
L 117.829006 150.931547 
L 117.85437 151.038387 
L 118.016699 152.414893 
L 118.057281 152.414893 
L 118.229756 154.312838 
L 118.376866 155.159656 
L 118.432667 155.159656 
L 118.564559 155.865165 
L 118.589923 155.865165 
L 118.71167 156.320813 
L 118.716743 156.320813 
L 118.853708 157.735597 
L 118.868926 157.735597 
L 119.010964 159.489207 
L 119.051546 159.489207 
L 119.183438 160.553238 
L 119.188511 160.553238 
L 119.31533 162.177597 
L 119.472587 163.928075 
L 119.477659 163.928075 
L 119.619697 164.870491 
L 119.695789 164.870491 
L 119.837827 166.330734 
L 119.99001 166.330734 
L 120.121902 167.715461 
L 120.294377 167.715461 
L 120.405978 168.095912 
L 120.44656 168.095912 
L 120.578452 170.342831 
L 120.649471 170.342831 
L 120.781363 172.115493 
L 120.791509 172.115493 
L 120.90311 172.888689 
L 121.009638 172.888689 
L 121.131385 173.868782 
L 121.146603 173.868782 
L 121.26835 174.882739 
L 121.278496 174.882739 
L 121.395169 175.544824 
L 121.501698 175.544824 
L 121.623444 177.844953 
L 121.846647 177.844953 
L 121.968393 179.063861 
L 121.983612 179.063861 
L 122.095213 179.452383 
L 122.140868 179.452383 
L 122.262614 180.723746 
L 122.308269 180.723746 
L 122.424943 181.544657 
L 122.597418 181.544657 
L 122.714092 182.508303 
L 122.764819 182.508303 
L 122.886566 183.896424 
L 123.023531 183.896424 
L 123.140205 184.877285 
L 123.297461 184.877285 
L 123.409062 185.426326 
L 123.500372 185.426326 
L 123.617046 186.636667 
L 123.682992 186.636667 
L 123.794593 187.771484 
L 123.830103 187.771484 
L 123.941704 188.334945 
L 123.956922 188.334945 
L 124.083742 190.375424 
L 124.210561 190.375424 
L 124.327235 191.40019 
L 124.4084 191.40019 
L 124.520001 191.919474 
L 124.550437 191.919474 
L 124.672184 193.471774 
L 124.68233 193.471774 
L 124.799003 194.395997 
L 124.875095 194.395997 
L 124.986696 194.854561 
L 124.996842 194.854561 
L 125.108443 195.328555 
L 125.164243 195.328555 
L 125.280917 196.341842 
L 125.362082 196.341842 
L 125.478756 197.334964 
L 125.519338 197.334964 
L 125.641085 198.693928 
L 125.707031 198.693928 
L 125.818632 199.112734 
L 125.854141 199.112734 
L 125.965742 199.556346 
L 126.006325 199.556346 
L 126.122999 200.4855 
L 126.188945 200.4855 
L 126.305619 201.391305 
L 126.386783 201.391305 
L 126.503457 202.283943 
L 126.579549 202.283943 
L 126.716514 204.65386 
L 126.787532 204.65386 
L 126.904206 205.235451 
L 127.031026 205.235451 
L 127.142627 205.560204 
L 127.33032 205.560204 
L 127.446994 206.369881 
L 127.507867 206.369881 
L 127.624541 207.123985 
L 127.66005 207.123985 
L 127.771651 207.497477 
L 127.802088 207.497477 
L 127.928907 208.890044 
L 128.177474 208.890044 
L 128.304293 210.238381 
L 128.405749 210.238381 
L 128.522422 211.122258 
L 128.745625 211.122258 
L 128.872444 212.388787 
L 129.095646 212.388787 
L 129.21232 213.062575 
L 129.288412 213.062575 
L 129.405086 213.722955 
L 129.476105 213.722955 
L 129.592779 214.370193 
L 129.628288 214.370193 
L 129.744962 214.972255 
L 129.775399 214.972255 
L 129.887 215.268607 
L 129.917436 215.268607 
L 130.03411 215.885087 
L 130.06962 215.885087 
L 130.186294 216.472195 
L 130.282676 216.472195 
L 130.404423 217.332276 
L 130.445005 217.332276 
L 130.561679 217.833228 
L 130.693571 217.833228 
L 130.810245 218.398672 
L 130.886337 218.398672 
L 131.003011 218.952863 
L 131.053739 218.952863 
L 131.170413 219.496026 
L 131.226213 219.496026 
L 131.342887 220.015967 
L 131.398688 220.015967 
L 131.515362 220.537974 
L 131.576235 220.537974 
L 131.692909 221.049594 
L 131.7132 221.049594 
L 131.824801 221.29154 
L 131.834947 221.29154 
L 131.95162 221.788163 
L 132.017567 221.788163 
L 132.13424 222.274904 
L 132.200187 222.274904 
L 132.31686 222.751958 
L 132.387879 222.751958 
L 132.49948 223.199853 
L 132.555281 223.199853 
L 132.671955 223.657342 
L 132.6821 223.657342 
L 132.798774 224.074419 
L 132.925594 224.074419 
L 133.042268 224.515663 
L 133.108214 224.515663 
L 133.224888 224.948126 
L 133.22996 224.948126 
L 133.346634 225.350499 
L 133.468381 225.350499 
L 133.585055 225.766349 
L 133.666219 225.766349 
L 133.782893 226.173924 
L 133.853912 226.173924 
L 133.970586 226.573387 
L 134.056823 226.573387 
L 134.173497 226.964902 
L 134.259734 226.964902 
L 134.376408 227.348625 
L 134.462646 227.348625 
L 134.579319 227.724713 
L 134.670629 227.724713 
L 134.787303 228.093316 
L 134.873541 228.093316 
L 134.990214 228.454584 
L 135.066306 228.454584 
L 135.18298 228.793294 
L 135.259072 228.793294 
L 135.375746 229.140632 
L 135.416328 229.140632 
L 135.533002 229.457401 
L 135.63953 229.457401 
L 135.756204 229.791524 
L 135.842441 229.791524 
L 135.959115 230.118997 
L 136.045352 230.118997 
L 136.167099 230.583695 
L 136.329428 230.583695 
L 136.446102 230.895405 
L 136.527266 230.895405 
L 136.64394 231.200911 
L 136.704813 231.200911 
L 136.816415 231.348987 
L 136.831633 231.348987 
L 136.948307 231.638187 
L 137.024398 231.638187 
L 137.141072 231.928912 
L 137.22731 231.928912 
L 137.343983 232.213851 
L 137.430221 232.213851 
L 137.546895 232.493121 
L 137.638205 232.493121 
L 137.754878 232.764327 
L 137.836043 232.764327 
L 137.952717 233.032642 
L 138.044027 233.032642 
L 138.160701 233.295617 
L 138.252011 233.295617 
L 138.363612 233.425136 
L 138.368685 233.425136 
L 138.485358 233.6803 
L 138.571596 233.6803 
L 138.68827 233.930387 
L 138.784652 233.930387 
L 138.901326 234.175498 
L 138.987564 234.175498 
L 139.104237 234.410993 
L 139.185402 234.410993 
L 139.302076 234.646539 
L 139.393386 234.646539 
L 139.51006 234.877398 
L 139.606442 234.877398 
L 139.723116 235.103663 
L 139.814426 235.103663 
L 139.9311 235.320391 
L 140.123866 235.429662 
L 140.235467 235.53784 
L 140.33185 235.644937 
L 140.443451 235.750962 
L 140.549979 235.855927 
L 140.666653 236.062719 
L 140.874637 236.164567 
L 140.991311 236.365217 
L 141.204367 236.463756 
L 141.321041 236.656477 
L 141.534098 236.752387 
L 141.650772 236.94134 
L 141.863829 237.034401 
L 141.97543 237.126532 
L 142.097176 237.217742 
L 142.21385 237.397433 
L 142.437053 237.485934 
L 142.548654 237.573549 
L 142.6704 237.660289 
L 142.782001 237.746161 
L 142.908821 237.831174 
L 143.025495 237.992912 
L 143.243624 238.075458 
L 143.355225 238.157178 
L 143.482045 238.238081 
L 143.593646 238.318175 
L 143.720465 238.397468 
L 143.832067 238.475968 
L 143.963959 238.553683 
L 144.07556 238.630621 
L 144.207452 238.70679 
L 144.324126 238.85685 
L 144.562547 238.930756 
L 144.674148 239.003923 
L 144.800967 239.076359 
L 144.912568 239.14807 
L 145.034315 239.219064 
L 145.145916 239.28857 
L 145.303172 239.358159 
L 145.414773 239.427052 
L 145.551738 239.495256 
L 145.663339 239.562779 
L 145.805377 239.629626 
L 145.916978 239.695804 
L 146.059016 239.761321 
L 146.170617 239.826183 
L 146.312655 239.890396 
L 146.424256 239.953967 
L 146.561221 240.016902 
L 146.672822 240.079208 
L 146.809787 240.14089 
L 146.926461 240.25983 
L 147.185173 240.319706 
L 147.296774 240.378984 
L 147.306919 240.378984 
L 147.418521 240.490491 
L 147.672159 240.548061 
L 147.783761 240.605055 
L 148.052618 240.715292 
L 148.164219 240.770614 
L 148.438149 240.879604 
L 148.554823 240.933282 
L 148.838898 241.039035 
L 148.955572 241.091119 
L 149.249793 241.193731 
L 149.366467 241.244269 
L 149.660688 241.343833 
L 149.777362 241.392869 
L 150.066511 241.489476 
L 150.183185 241.537056 
L 150.497697 241.630793 
L 150.614371 241.67696 
L 150.913665 241.767914 
L 151.030338 241.812709 
L 151.339778 241.900961 
L 151.456452 241.944427 
L 151.7456 242.027802 
L 151.862274 242.069517 
L 152.20215 242.152658 
L 152.318824 242.193606 
L 152.653627 242.273166 
L 152.770301 242.31291 
L 153.105105 242.391208 
L 153.221779 242.42977 
L 153.5718 242.505743 
L 153.688474 242.54316 
L 154.185606 242.653182 
L 154.30228 242.689125 
L 154.829849 242.794812 
L 154.946523 242.829339 
L 155.463946 242.930861 
L 155.58062 242.964027 
L 156.098044 243.061549 
L 156.214718 243.093409 
L 156.732141 243.186889 
L 156.848815 243.217495 
L 157.381457 243.307489 
L 157.49813 243.336889 
L 158.035845 243.423336 
L 158.152519 243.451578 
L 158.862708 243.55992 
L 158.979382 243.586795 
L 159.501878 243.685589 
L 159.618552 243.708764 
L 160.541797 243.807884 
L 160.658471 243.83228 
L 161.297641 243.927449 
L 161.414315 243.949312 
L 162.312197 244.039869 
L 162.428871 244.061945 
L 163.418062 244.169058 
L 163.534736 244.189843 
L 164.544219 244.290687 
L 164.660893 244.310255 
L 165.710958 244.405199 
L 165.827632 244.423622 
L 167.105972 244.529781 
L 167.222646 244.546958 
L 168.58215 244.645898 
L 168.698824 244.661914 
L 170.124275 244.769629 
L 170.246022 244.783355 
L 171.985984 244.88282 
L 172.107731 244.896467 
L 174.010023 245.00084 
L 174.131769 245.013306 
L 176.297846 245.117087 
L 176.424665 245.128391 
L 178.864671 245.235219 
L 178.991491 245.244984 
L 181.918484 245.348827 
L 182.055449 245.366003 
L 185.799159 245.472485 
L 185.936124 245.480235 
L 189.958837 245.587314 
L 190.105947 245.593369 
L 195.62513 245.700711 
L 195.777313 245.706179 
L 202.985731 245.816178 
L 203.158205 245.820491 
L 213.714656 245.930705 
L 213.927713 245.933873 
L 231.190376 246.043937 
L 231.515034 246.045812 
L 270.479042 246.156172 
L 271.113139 246.157976 
L 622.636364 246.238642 
L 622.636364 246.238642 
" clip-path="url(#pb06a157c8d)" style="fill: none; stroke: #0000ff; stroke-width: 2; stroke-linecap: square"/>
   </g>
   <g id="patch_3">
    <path d="M 90 256.32 
L 90 34.56 
" style="fill: none; stroke: #000000; stroke-width: 0.8; stroke-linejoin: miter; stroke-linecap: square"/>
   </g>
   <g id="patch_4">
    <path d="M 648 256.32 
L 648 34.56 
" style="fill: none; stroke: #000000; stroke-width: 0.8; stroke-linejoin: miter; stroke-linecap: square"/>
   </g>
   <g id="patch_5">
    <path d="M 90 256.32 
L 648 256.32 
" style="fill: none; stroke: #000000; stroke-width: 0.8; stroke-linejoin: miter; stroke-linecap: square"/>
   </g>
   <g id="patch_6">
    <path d="M 90 34.56 
L 648 34.56 
" style="fill: none; stroke: #000000; stroke-width: 0.8; stroke-linejoin: miter; stroke-linecap: square"/>
   </g>
   <g id="text_15">
    <!-- Q_learning Q-Value Convergence -->
    <g transform="translate(270.244687 28.56) scale(0.12 -0.12)">
     <defs>
      <path id="DejaVuSans-5f" d="M 3263 -1063 
L 3263 -1509 
L -63 -1509 
L -63 -1063 
L 3263 -1063 
z
" transform="scale(0.015625)"/>
      <path id="DejaVuSans-67" d="M 2906 1791 
Q 2906 2416 2648 2759 
Q 2391 3103 1925 3103 
Q 1463 3103 1205 2759 
Q 947 2416 947 1791 
Q 947 1169 1205 825 
Q 1463 481 1925 481 
Q 2391 481 2648 825 
Q 2906 1169 2906 1791 
z
M 3481 434 
Q 3481 -459 3084 -895 
Q 2688 -1331 1869 -1331 
Q 1566 -1331 1297 -1286 
Q 1028 -1241 775 -1147 
L 775 -588 
Q 1028 -725 1275 -790 
Q 1522 -856 1778 -856 
Q 2344 -856 2625 -561 
Q 2906 -266 2906 331 
L 2906 616 
Q 2728 306 2450 153 
Q 2172 0 1784 0 
Q 1141 0 747 490 
Q 353 981 353 1791 
Q 353 2603 747 3093 
Q 1141 3584 1784 3584 
Q 2172 3584 2450 3431 
Q 2728 3278 2906 2969 
L 2906 3500 
L 3481 3500 
L 3481 434 
z
" transform="scale(0.015625)"/>
      <path id="DejaVuSans-20" transform="scale(0.015625)"/>
      <path id="DejaVuSans-43" d="M 4122 4306 
L 4122 3641 
Q 3803 3938 3442 4084 
Q 3081 4231 2675 4231 
Q 1875 4231 1450 3742 
Q 1025 3253 1025 2328 
Q 1025 1406 1450 917 
Q 1875 428 2675 428 
Q 3081 428 3442 575 
Q 3803 722 4122 1019 
L 4122 359 
Q 3791 134 3420 21 
Q 3050 -91 2638 -91 
Q 1578 -91 968 557 
Q 359 1206 359 2328 
Q 359 3453 968 4101 
Q 1578 4750 2638 4750 
Q 3056 4750 3426 4639 
Q 3797 4528 4122 4306 
z
" transform="scale(0.015625)"/>
      <path id="DejaVuSans-76" d="M 191 3500 
L 800 3500 
L 1894 563 
L 2988 3500 
L 3597 3500 
L 2284 0 
L 1503 0 
L 191 3500 
z
" transform="scale(0.015625)"/>
      <path id="DejaVuSans-63" d="M 3122 3366 
L 3122 2828 
Q 2878 2963 2633 3030 
Q 2388 3097 2138 3097 
Q 1578 3097 1268 2742 
Q 959 2388 959 1747 
Q 959 1106 1268 751 
Q 1578 397 2138 397 
Q 2388 397 2633 464 
Q 2878 531 3122 666 
L 3122 134 
Q 2881 22 2623 -34 
Q 2366 -91 2075 -91 
Q 1284 -91 818 406 
Q 353 903 353 1747 
Q 353 2603 823 3093 
Q 1294 3584 2113 3584 
Q 2378 3584 2631 3529 
Q 2884 3475 3122 3366 
z
" transform="scale(0.015625)"/>
     </defs>
     <use xlink:href="#DejaVuSans-51"/>
     <use xlink:href="#DejaVuSans-5f" transform="translate(78.710938 0)"/>
     <use xlink:href="#DejaVuSans-6c" transform="translate(128.710938 0)"/>
     <use xlink:href="#DejaVuSans-65" transform="translate(156.494141 0)"/>
     <use xlink:href="#DejaVuSans-61" transform="translate(218.017578 0)"/>
     <use xlink:href="#DejaVuSans-72" transform="translate(279.296875 0)"/>
     <use xlink:href="#DejaVuSans-6e" transform="translate(318.660156 0)"/>
     <use xlink:href="#DejaVuSans-69" transform="translate(382.039062 0)"/>
     <use xlink:href="#DejaVuSans-6e" transform="translate(409.822266 0)"/>
     <use xlink:href="#DejaVuSans-67" transform="translate(473.201172 0)"/>
     <use xlink:href="#DejaVuSans-20" transform="translate(536.677734 0)"/>
     <use xlink:href="#DejaVuSans-51" transform="translate(568.464844 0)"/>
     <use xlink:href="#DejaVuSans-2d" transform="translate(649.925781 0)"/>
     <use xlink:href="#DejaVuSans-56" transform="translate(680.134766 0)"/>
     <use xlink:href="#DejaVuSans-61" transform="translate(740.792969 0)"/>
     <use xlink:href="#DejaVuSans-6c" transform="translate(802.072266 0)"/>
     <use xlink:href="#DejaVuSans-75" transform="translate(829.855469 0)"/>
     <use xlink:href="#DejaVuSans-65" transform="translate(893.234375 0)"/>
     <use xlink:href="#DejaVuSans-20" transform="translate(954.757812 0)"/>
     <use xlink:href="#DejaVuSans-43" transform="translate(986.544922 0)"/>
     <use xlink:href="#DejaVuSans-6f" transform="translate(1056.369141 0)"/>
     <use xlink:href="#DejaVuSans-6e" transform="translate(1117.550781 0)"/>
     <use xlink:href="#DejaVuSans-76" transform="translate(1180.929688 0)"/>
     <use xlink:href="#DejaVuSans-65" transform="translate(1240.109375 0)"/>
     <use xlink:href="#DejaVuSans-72" transform="translate(1301.632812 0)"/>
     <use xlink:href="#DejaVuSans-67" transform="translate(1340.996094 0)"/>
     <use xlink:href="#DejaVuSans-65" transform="translate(1404.472656 0)"/>
     <use xlink:href="#DejaVuSans-6e" transform="translate(1465.996094 0)"/>
     <use xlink:href="#DejaVuSans-63" transform="translate(1529.375 0)"/>
     <use xlink:href="#DejaVuSans-65" transform="translate(1584.355469 0)"/>
    </g>
   </g>
  </g>
 </g>
 <defs>
  <clipPath id="pb06a157c8d">
   <rect x="90" y="34.56" width="558" height="221.76"/>
  </clipPath>
 </defs>
</svg>
